{
    "header": {
        "keySignatures": [],
        "meta": [
            {
                "text": "Creator: GNU LilyPond 2.7.17           ",
                "ticks": 0,
                "type": "text"
            },
            {
                "text": "Generated automatically by: GNU LilyPond 2.7.17           ",
                "ticks": 0,
                "type": "text"
            },
            {
                "text": "at Sat Nov 19 16:06:33 2005                                 ",
                "ticks": 0,
                "type": "text"
            },
            {
                "text": "at Sat Nov 19 16:06:33 2005                                 ",
                "ticks": 0,
                "type": "text"
            }
        ],
        "name": "Track 0",
        "ppq": 384,
        "tempos": [
            {
                "bpm": 60,
                "ticks": 0
            },
            {
                "bpm": 60,
                "ticks": 0
            },
            {
                "bpm": 60,
                "ticks": 0
            }
        ],
        "timeSignatures": [
            {
                "ticks": 0,
                "timeSignature": [
                    4,
                    4
                ],
                "measures": 0
            },
            {
                "ticks": 0,
                "timeSignature": [
                    4,
                    4
                ],
                "measures": 0
            }
        ]
    },
    "tracks": [
        {
            "channel": 0,
            "controlChanges": {},
            "pitchBends": [],
            "instrument": {
                "family": "piano",
                "number": 0,
                "name": "acoustic grand piano"
            },
            "name": "upper",
            "notes": [
                {
                    "duration": 0.25,
                    "durationTicks": 96,
                    "midi": 67,
                    "name": "G4",
                    "ticks": 192,
                    "time": 0.5,
                    "velocity": 1
                },
                {
                    "duration": 0.25,
                    "durationTicks": 96,
                    "midi": 72,
                    "name": "C5",
                    "ticks": 288,
                    "time": 0.75,
                    "velocity": 1
                },
                {
                    "duration": 0.25,
                    "durationTicks": 96,
                    "midi": 76,
                    "name": "E5",
                    "ticks": 384,
                    "time": 1,
                    "velocity": 1
                },
                {
                    "duration": 0.25,
                    "durationTicks": 96,
                    "midi": 67,
                    "name": "G4",
                    "ticks": 480,
                    "time": 1.25,
                    "velocity": 1
                },
                {
                    "duration": 0.25,
                    "durationTicks": 96,
                    "midi": 72,
                    "name": "C5",
                    "ticks": 576,
                    "time": 1.5,
                    "velocity": 1
                },
                {
                    "duration": 0.25,
                    "durationTicks": 96,
                    "midi": 76,
                    "name": "E5",
                    "ticks": 672,
                    "time": 1.75,
                    "velocity": 1
                },
                {
                    "duration": 0.25,
                    "durationTicks": 96,
                    "midi": 67,
                    "name": "G4",
                    "ticks": 960,
                    "time": 2.5,
                    "velocity": 1
                },
                {
                    "duration": 0.25,
                    "durationTicks": 96,
                    "midi": 72,
                    "name": "C5",
                    "ticks": 1056,
                    "time": 2.75,
                    "velocity": 1
                },
                {
                    "duration": 0.25,
                    "durationTicks": 96,
                    "midi": 76,
                    "name": "E5",
                    "ticks": 1152,
                    "time": 3,
                    "velocity": 1
                },
                {
                    "duration": 0.25,
                    "durationTicks": 96,
                    "midi": 67,
                    "name": "G4",
                    "ticks": 1248,
                    "time": 3.25,
                    "velocity": 1
                },
                {
                    "duration": 0.25,
                    "durationTicks": 96,
                    "midi": 72,
                    "name": "C5",
                    "ticks": 1344,
                    "time": 3.5,
                    "velocity": 1
                },
                {
                    "duration": 0.25,
                    "durationTicks": 96,
                    "midi": 76,
                    "name": "E5",
                    "ticks": 1440,
                    "time": 3.75,
                    "velocity": 1
                },
                {
                    "duration": 0.25,
                    "durationTicks": 96,
                    "midi": 69,
                    "name": "A4",
                    "ticks": 1728,
                    "time": 4.5,
                    "velocity": 1
                },
                {
                    "duration": 0.25,
                    "durationTicks": 96,
                    "midi": 74,
                    "name": "D5",
                    "ticks": 1824,
                    "time": 4.75,
                    "velocity": 1
                },
                {
                    "duration": 0.25,
                    "durationTicks": 96,
                    "midi": 77,
                    "name": "F5",
                    "ticks": 1920,
                    "time": 5,
                    "velocity": 1
                },
                {
                    "duration": 0.25,
                    "durationTicks": 96,
                    "midi": 69,
                    "name": "A4",
                    "ticks": 2016,
                    "time": 5.25,
                    "velocity": 1
                },
                {
                    "duration": 0.25,
                    "durationTicks": 96,
                    "midi": 74,
                    "name": "D5",
                    "ticks": 2112,
                    "time": 5.5,
                    "velocity": 1
                },
                {
                    "duration": 0.25,
                    "durationTicks": 96,
                    "midi": 77,
                    "name": "F5",
                    "ticks": 2208,
                    "time": 5.75,
                    "velocity": 1
                },
                {
                    "duration": 0.25,
                    "durationTicks": 96,
                    "midi": 69,
                    "name": "A4",
                    "ticks": 2496,
                    "time": 6.5,
                    "velocity": 1
                },
                {
                    "duration": 0.25,
                    "durationTicks": 96,
                    "midi": 74,
                    "name": "D5",
                    "ticks": 2592,
                    "time": 6.75,
                    "velocity": 1
                },
                {
                    "duration": 0.25,
                    "durationTicks": 96,
                    "midi": 77,
                    "name": "F5",
                    "ticks": 2688,
                    "time": 7,
                    "velocity": 1
                },
                {
                    "duration": 0.25,
                    "durationTicks": 96,
                    "midi": 69,
                    "name": "A4",
                    "ticks": 2784,
                    "time": 7.25,
                    "velocity": 1
                },
                {
                    "duration": 0.25,
                    "durationTicks": 96,
                    "midi": 74,
                    "name": "D5",
                    "ticks": 2880,
                    "time": 7.5,
                    "velocity": 1
                },
                {
                    "duration": 0.25,
                    "durationTicks": 96,
                    "midi": 77,
                    "name": "F5",
                    "ticks": 2976,
                    "time": 7.75,
                    "velocity": 1
                },
                {
                    "duration": 0.25,
                    "durationTicks": 96,
                    "midi": 67,
                    "name": "G4",
                    "ticks": 3264,
                    "time": 8.5,
                    "velocity": 1
                },
                {
                    "duration": 0.25,
                    "durationTicks": 96,
                    "midi": 74,
                    "name": "D5",
                    "ticks": 3360,
                    "time": 8.75,
                    "velocity": 1
                },
                {
                    "duration": 0.25,
                    "durationTicks": 96,
                    "midi": 77,
                    "name": "F5",
                    "ticks": 3456,
                    "time": 9,
                    "velocity": 1
                },
                {
                    "duration": 0.25,
                    "durationTicks": 96,
                    "midi": 67,
                    "name": "G4",
                    "ticks": 3552,
                    "time": 9.25,
                    "velocity": 1
                },
                {
                    "duration": 0.25,
                    "durationTicks": 96,
                    "midi": 74,
                    "name": "D5",
                    "ticks": 3648,
                    "time": 9.5,
                    "velocity": 1
                },
                {
                    "duration": 0.25,
                    "durationTicks": 96,
                    "midi": 77,
                    "name": "F5",
                    "ticks": 3744,
                    "time": 9.75,
                    "velocity": 1
                },
                {
                    "duration": 0.25,
                    "durationTicks": 96,
                    "midi": 67,
                    "name": "G4",
                    "ticks": 4032,
                    "time": 10.5,
                    "velocity": 1
                },
                {
                    "duration": 0.25,
                    "durationTicks": 96,
                    "midi": 74,
                    "name": "D5",
                    "ticks": 4128,
                    "time": 10.75,
                    "velocity": 1
                },
                {
                    "duration": 0.25,
                    "durationTicks": 96,
                    "midi": 77,
                    "name": "F5",
                    "ticks": 4224,
                    "time": 11,
                    "velocity": 1
                },
                {
                    "duration": 0.25,
                    "durationTicks": 96,
                    "midi": 67,
                    "name": "G4",
                    "ticks": 4320,
                    "time": 11.25,
                    "velocity": 1
                },
                {
                    "duration": 0.25,
                    "durationTicks": 96,
                    "midi": 74,
                    "name": "D5",
                    "ticks": 4416,
                    "time": 11.5,
                    "velocity": 1
                },
                {
                    "duration": 0.25,
                    "durationTicks": 96,
                    "midi": 77,
                    "name": "F5",
                    "ticks": 4512,
                    "time": 11.75,
                    "velocity": 1
                },
                {
                    "duration": 0.25,
                    "durationTicks": 96,
                    "midi": 67,
                    "name": "G4",
                    "ticks": 4800,
                    "time": 12.5,
                    "velocity": 1
                },
                {
                    "duration": 0.25,
                    "durationTicks": 96,
                    "midi": 72,
                    "name": "C5",
                    "ticks": 4896,
                    "time": 12.75,
                    "velocity": 1
                },
                {
                    "duration": 0.25,
                    "durationTicks": 96,
                    "midi": 76,
                    "name": "E5",
                    "ticks": 4992,
                    "time": 13,
                    "velocity": 1
                },
                {
                    "duration": 0.25,
                    "durationTicks": 96,
                    "midi": 67,
                    "name": "G4",
                    "ticks": 5088,
                    "time": 13.25,
                    "velocity": 1
                },
                {
                    "duration": 0.25,
                    "durationTicks": 96,
                    "midi": 72,
                    "name": "C5",
                    "ticks": 5184,
                    "time": 13.5,
                    "velocity": 1
                },
                {
                    "duration": 0.25,
                    "durationTicks": 96,
                    "midi": 76,
                    "name": "E5",
                    "ticks": 5280,
                    "time": 13.75,
                    "velocity": 1
                },
                {
                    "duration": 0.25,
                    "durationTicks": 96,
                    "midi": 67,
                    "name": "G4",
                    "ticks": 5568,
                    "time": 14.5,
                    "velocity": 1
                },
                {
                    "duration": 0.25,
                    "durationTicks": 96,
                    "midi": 72,
                    "name": "C5",
                    "ticks": 5664,
                    "time": 14.75,
                    "velocity": 1
                },
                {
                    "duration": 0.25,
                    "durationTicks": 96,
                    "midi": 76,
                    "name": "E5",
                    "ticks": 5760,
                    "time": 15,
                    "velocity": 1
                },
                {
                    "duration": 0.25,
                    "durationTicks": 96,
                    "midi": 67,
                    "name": "G4",
                    "ticks": 5856,
                    "time": 15.25,
                    "velocity": 1
                },
                {
                    "duration": 0.25,
                    "durationTicks": 96,
                    "midi": 72,
                    "name": "C5",
                    "ticks": 5952,
                    "time": 15.5,
                    "velocity": 1
                },
                {
                    "duration": 0.25,
                    "durationTicks": 96,
                    "midi": 76,
                    "name": "E5",
                    "ticks": 6048,
                    "time": 15.75,
                    "velocity": 1
                },
                {
                    "duration": 0.25,
                    "durationTicks": 96,
                    "midi": 69,
                    "name": "A4",
                    "ticks": 6336,
                    "time": 16.5,
                    "velocity": 1
                },
                {
                    "duration": 0.25,
                    "durationTicks": 96,
                    "midi": 76,
                    "name": "E5",
                    "ticks": 6432,
                    "time": 16.75,
                    "velocity": 1
                },
                {
                    "duration": 0.25,
                    "durationTicks": 96,
                    "midi": 81,
                    "name": "A5",
                    "ticks": 6528,
                    "time": 17,
                    "velocity": 1
                },
                {
                    "duration": 0.25,
                    "durationTicks": 96,
                    "midi": 69,
                    "name": "A4",
                    "ticks": 6624,
                    "time": 17.25,
                    "velocity": 1
                },
                {
                    "duration": 0.25,
                    "durationTicks": 96,
                    "midi": 76,
                    "name": "E5",
                    "ticks": 6720,
                    "time": 17.5,
                    "velocity": 1
                },
                {
                    "duration": 0.25,
                    "durationTicks": 96,
                    "midi": 81,
                    "name": "A5",
                    "ticks": 6816,
                    "time": 17.75,
                    "velocity": 1
                },
                {
                    "duration": 0.25,
                    "durationTicks": 96,
                    "midi": 69,
                    "name": "A4",
                    "ticks": 7104,
                    "time": 18.5,
                    "velocity": 1
                },
                {
                    "duration": 0.25,
                    "durationTicks": 96,
                    "midi": 76,
                    "name": "E5",
                    "ticks": 7200,
                    "time": 18.75,
                    "velocity": 1
                },
                {
                    "duration": 0.25,
                    "durationTicks": 96,
                    "midi": 81,
                    "name": "A5",
                    "ticks": 7296,
                    "time": 19,
                    "velocity": 1
                },
                {
                    "duration": 0.25,
                    "durationTicks": 96,
                    "midi": 69,
                    "name": "A4",
                    "ticks": 7392,
                    "time": 19.25,
                    "velocity": 1
                },
                {
                    "duration": 0.25,
                    "durationTicks": 96,
                    "midi": 76,
                    "name": "E5",
                    "ticks": 7488,
                    "time": 19.5,
                    "velocity": 1
                },
                {
                    "duration": 0.25,
                    "durationTicks": 96,
                    "midi": 81,
                    "name": "A5",
                    "ticks": 7584,
                    "time": 19.75,
                    "velocity": 1
                },
                {
                    "duration": 0.25,
                    "durationTicks": 96,
                    "midi": 66,
                    "name": "F#4",
                    "ticks": 7872,
                    "time": 20.5,
                    "velocity": 1
                },
                {
                    "duration": 0.25,
                    "durationTicks": 96,
                    "midi": 69,
                    "name": "A4",
                    "ticks": 7968,
                    "time": 20.75,
                    "velocity": 1
                },
                {
                    "duration": 0.25,
                    "durationTicks": 96,
                    "midi": 74,
                    "name": "D5",
                    "ticks": 8064,
                    "time": 21,
                    "velocity": 1
                },
                {
                    "duration": 0.25,
                    "durationTicks": 96,
                    "midi": 66,
                    "name": "F#4",
                    "ticks": 8160,
                    "time": 21.25,
                    "velocity": 1
                },
                {
                    "duration": 0.25,
                    "durationTicks": 96,
                    "midi": 69,
                    "name": "A4",
                    "ticks": 8256,
                    "time": 21.5,
                    "velocity": 1
                },
                {
                    "duration": 0.25,
                    "durationTicks": 96,
                    "midi": 74,
                    "name": "D5",
                    "ticks": 8352,
                    "time": 21.75,
                    "velocity": 1
                },
                {
                    "duration": 0.25,
                    "durationTicks": 96,
                    "midi": 66,
                    "name": "F#4",
                    "ticks": 8640,
                    "time": 22.5,
                    "velocity": 1
                },
                {
                    "duration": 0.25,
                    "durationTicks": 96,
                    "midi": 69,
                    "name": "A4",
                    "ticks": 8736,
                    "time": 22.75,
                    "velocity": 1
                },
                {
                    "duration": 0.25,
                    "durationTicks": 96,
                    "midi": 74,
                    "name": "D5",
                    "ticks": 8832,
                    "time": 23,
                    "velocity": 1
                },
                {
                    "duration": 0.25,
                    "durationTicks": 96,
                    "midi": 66,
                    "name": "F#4",
                    "ticks": 8928,
                    "time": 23.25,
                    "velocity": 1
                },
                {
                    "duration": 0.25,
                    "durationTicks": 96,
                    "midi": 69,
                    "name": "A4",
                    "ticks": 9024,
                    "time": 23.5,
                    "velocity": 1
                },
                {
                    "duration": 0.25,
                    "durationTicks": 96,
                    "midi": 74,
                    "name": "D5",
                    "ticks": 9120,
                    "time": 23.75,
                    "velocity": 1
                },
                {
                    "duration": 0.25,
                    "durationTicks": 96,
                    "midi": 67,
                    "name": "G4",
                    "ticks": 9408,
                    "time": 24.5,
                    "velocity": 1
                },
                {
                    "duration": 0.25,
                    "durationTicks": 96,
                    "midi": 74,
                    "name": "D5",
                    "ticks": 9504,
                    "time": 24.75,
                    "velocity": 1
                },
                {
                    "duration": 0.25,
                    "durationTicks": 96,
                    "midi": 79,
                    "name": "G5",
                    "ticks": 9600,
                    "time": 25,
                    "velocity": 1
                },
                {
                    "duration": 0.25,
                    "durationTicks": 96,
                    "midi": 67,
                    "name": "G4",
                    "ticks": 9696,
                    "time": 25.25,
                    "velocity": 1
                },
                {
                    "duration": 0.25,
                    "durationTicks": 96,
                    "midi": 74,
                    "name": "D5",
                    "ticks": 9792,
                    "time": 25.5,
                    "velocity": 1
                },
                {
                    "duration": 0.25,
                    "durationTicks": 96,
                    "midi": 79,
                    "name": "G5",
                    "ticks": 9888,
                    "time": 25.75,
                    "velocity": 1
                },
                {
                    "duration": 0.25,
                    "durationTicks": 96,
                    "midi": 67,
                    "name": "G4",
                    "ticks": 10176,
                    "time": 26.5,
                    "velocity": 1
                },
                {
                    "duration": 0.25,
                    "durationTicks": 96,
                    "midi": 74,
                    "name": "D5",
                    "ticks": 10272,
                    "time": 26.75,
                    "velocity": 1
                },
                {
                    "duration": 0.25,
                    "durationTicks": 96,
                    "midi": 79,
                    "name": "G5",
                    "ticks": 10368,
                    "time": 27,
                    "velocity": 1
                },
                {
                    "duration": 0.25,
                    "durationTicks": 96,
                    "midi": 67,
                    "name": "G4",
                    "ticks": 10464,
                    "time": 27.25,
                    "velocity": 1
                },
                {
                    "duration": 0.25,
                    "durationTicks": 96,
                    "midi": 74,
                    "name": "D5",
                    "ticks": 10560,
                    "time": 27.5,
                    "velocity": 1
                },
                {
                    "duration": 0.25,
                    "durationTicks": 96,
                    "midi": 79,
                    "name": "G5",
                    "ticks": 10656,
                    "time": 27.75,
                    "velocity": 1
                },
                {
                    "duration": 0.25,
                    "durationTicks": 96,
                    "midi": 64,
                    "name": "E4",
                    "ticks": 10944,
                    "time": 28.5,
                    "velocity": 1
                },
                {
                    "duration": 0.25,
                    "durationTicks": 96,
                    "midi": 67,
                    "name": "G4",
                    "ticks": 11040,
                    "time": 28.75,
                    "velocity": 1
                },
                {
                    "duration": 0.25,
                    "durationTicks": 96,
                    "midi": 72,
                    "name": "C5",
                    "ticks": 11136,
                    "time": 29,
                    "velocity": 1
                },
                {
                    "duration": 0.25,
                    "durationTicks": 96,
                    "midi": 64,
                    "name": "E4",
                    "ticks": 11232,
                    "time": 29.25,
                    "velocity": 1
                },
                {
                    "duration": 0.25,
                    "durationTicks": 96,
                    "midi": 67,
                    "name": "G4",
                    "ticks": 11328,
                    "time": 29.5,
                    "velocity": 1
                },
                {
                    "duration": 0.25,
                    "durationTicks": 96,
                    "midi": 72,
                    "name": "C5",
                    "ticks": 11424,
                    "time": 29.75,
                    "velocity": 1
                },
                {
                    "duration": 0.25,
                    "durationTicks": 96,
                    "midi": 64,
                    "name": "E4",
                    "ticks": 11712,
                    "time": 30.5,
                    "velocity": 1
                },
                {
                    "duration": 0.25,
                    "durationTicks": 96,
                    "midi": 67,
                    "name": "G4",
                    "ticks": 11808,
                    "time": 30.75,
                    "velocity": 1
                },
                {
                    "duration": 0.25,
                    "durationTicks": 96,
                    "midi": 72,
                    "name": "C5",
                    "ticks": 11904,
                    "time": 31,
                    "velocity": 1
                },
                {
                    "duration": 0.25,
                    "durationTicks": 96,
                    "midi": 64,
                    "name": "E4",
                    "ticks": 12000,
                    "time": 31.25,
                    "velocity": 1
                },
                {
                    "duration": 0.25,
                    "durationTicks": 96,
                    "midi": 67,
                    "name": "G4",
                    "ticks": 12096,
                    "time": 31.5,
                    "velocity": 1
                },
                {
                    "duration": 0.25,
                    "durationTicks": 96,
                    "midi": 72,
                    "name": "C5",
                    "ticks": 12192,
                    "time": 31.75,
                    "velocity": 1
                },
                {
                    "duration": 0.25,
                    "durationTicks": 96,
                    "midi": 64,
                    "name": "E4",
                    "ticks": 12480,
                    "time": 32.5,
                    "velocity": 1
                },
                {
                    "duration": 0.25,
                    "durationTicks": 96,
                    "midi": 67,
                    "name": "G4",
                    "ticks": 12576,
                    "time": 32.75,
                    "velocity": 1
                },
                {
                    "duration": 0.25,
                    "durationTicks": 96,
                    "midi": 72,
                    "name": "C5",
                    "ticks": 12672,
                    "time": 33,
                    "velocity": 1
                },
                {
                    "duration": 0.25,
                    "durationTicks": 96,
                    "midi": 64,
                    "name": "E4",
                    "ticks": 12768,
                    "time": 33.25,
                    "velocity": 1
                },
                {
                    "duration": 0.25,
                    "durationTicks": 96,
                    "midi": 67,
                    "name": "G4",
                    "ticks": 12864,
                    "time": 33.5,
                    "velocity": 1
                },
                {
                    "duration": 0.25,
                    "durationTicks": 96,
                    "midi": 72,
                    "name": "C5",
                    "ticks": 12960,
                    "time": 33.75,
                    "velocity": 1
                },
                {
                    "duration": 0.25,
                    "durationTicks": 96,
                    "midi": 64,
                    "name": "E4",
                    "ticks": 13248,
                    "time": 34.5,
                    "velocity": 1
                },
                {
                    "duration": 0.25,
                    "durationTicks": 96,
                    "midi": 67,
                    "name": "G4",
                    "ticks": 13344,
                    "time": 34.75,
                    "velocity": 1
                },
                {
                    "duration": 0.25,
                    "durationTicks": 96,
                    "midi": 72,
                    "name": "C5",
                    "ticks": 13440,
                    "time": 35,
                    "velocity": 1
                },
                {
                    "duration": 0.25,
                    "durationTicks": 96,
                    "midi": 64,
                    "name": "E4",
                    "ticks": 13536,
                    "time": 35.25,
                    "velocity": 1
                },
                {
                    "duration": 0.25,
                    "durationTicks": 96,
                    "midi": 67,
                    "name": "G4",
                    "ticks": 13632,
                    "time": 35.5,
                    "velocity": 1
                },
                {
                    "duration": 0.25,
                    "durationTicks": 96,
                    "midi": 72,
                    "name": "C5",
                    "ticks": 13728,
                    "time": 35.75,
                    "velocity": 1
                },
                {
                    "duration": 0.25,
                    "durationTicks": 96,
                    "midi": 62,
                    "name": "D4",
                    "ticks": 14016,
                    "time": 36.5,
                    "velocity": 1
                },
                {
                    "duration": 0.25,
                    "durationTicks": 96,
                    "midi": 66,
                    "name": "F#4",
                    "ticks": 14112,
                    "time": 36.75,
                    "velocity": 1
                },
                {
                    "duration": 0.25,
                    "durationTicks": 96,
                    "midi": 72,
                    "name": "C5",
                    "ticks": 14208,
                    "time": 37,
                    "velocity": 1
                },
                {
                    "duration": 0.25,
                    "durationTicks": 96,
                    "midi": 62,
                    "name": "D4",
                    "ticks": 14304,
                    "time": 37.25,
                    "velocity": 1
                },
                {
                    "duration": 0.25,
                    "durationTicks": 96,
                    "midi": 66,
                    "name": "F#4",
                    "ticks": 14400,
                    "time": 37.5,
                    "velocity": 1
                },
                {
                    "duration": 0.25,
                    "durationTicks": 96,
                    "midi": 72,
                    "name": "C5",
                    "ticks": 14496,
                    "time": 37.75,
                    "velocity": 1
                },
                {
                    "duration": 0.25,
                    "durationTicks": 96,
                    "midi": 62,
                    "name": "D4",
                    "ticks": 14784,
                    "time": 38.5,
                    "velocity": 1
                },
                {
                    "duration": 0.25,
                    "durationTicks": 96,
                    "midi": 66,
                    "name": "F#4",
                    "ticks": 14880,
                    "time": 38.75,
                    "velocity": 1
                },
                {
                    "duration": 0.25,
                    "durationTicks": 96,
                    "midi": 72,
                    "name": "C5",
                    "ticks": 14976,
                    "time": 39,
                    "velocity": 1
                },
                {
                    "duration": 0.25,
                    "durationTicks": 96,
                    "midi": 62,
                    "name": "D4",
                    "ticks": 15072,
                    "time": 39.25,
                    "velocity": 1
                },
                {
                    "duration": 0.25,
                    "durationTicks": 96,
                    "midi": 66,
                    "name": "F#4",
                    "ticks": 15168,
                    "time": 39.5,
                    "velocity": 1
                },
                {
                    "duration": 0.25,
                    "durationTicks": 96,
                    "midi": 72,
                    "name": "C5",
                    "ticks": 15264,
                    "time": 39.75,
                    "velocity": 1
                },
                {
                    "duration": 0.25,
                    "durationTicks": 96,
                    "midi": 62,
                    "name": "D4",
                    "ticks": 15552,
                    "time": 40.5,
                    "velocity": 1
                },
                {
                    "duration": 0.25,
                    "durationTicks": 96,
                    "midi": 67,
                    "name": "G4",
                    "ticks": 15648,
                    "time": 40.75,
                    "velocity": 1
                },
                {
                    "duration": 0.25,
                    "durationTicks": 96,
                    "midi": 71,
                    "name": "B4",
                    "ticks": 15744,
                    "time": 41,
                    "velocity": 1
                },
                {
                    "duration": 0.25,
                    "durationTicks": 96,
                    "midi": 62,
                    "name": "D4",
                    "ticks": 15840,
                    "time": 41.25,
                    "velocity": 1
                },
                {
                    "duration": 0.25,
                    "durationTicks": 96,
                    "midi": 67,
                    "name": "G4",
                    "ticks": 15936,
                    "time": 41.5,
                    "velocity": 1
                },
                {
                    "duration": 0.25,
                    "durationTicks": 96,
                    "midi": 71,
                    "name": "B4",
                    "ticks": 16032,
                    "time": 41.75,
                    "velocity": 1
                },
                {
                    "duration": 0.25,
                    "durationTicks": 96,
                    "midi": 62,
                    "name": "D4",
                    "ticks": 16320,
                    "time": 42.5,
                    "velocity": 1
                },
                {
                    "duration": 0.25,
                    "durationTicks": 96,
                    "midi": 67,
                    "name": "G4",
                    "ticks": 16416,
                    "time": 42.75,
                    "velocity": 1
                },
                {
                    "duration": 0.25,
                    "durationTicks": 96,
                    "midi": 71,
                    "name": "B4",
                    "ticks": 16512,
                    "time": 43,
                    "velocity": 1
                },
                {
                    "duration": 0.25,
                    "durationTicks": 96,
                    "midi": 62,
                    "name": "D4",
                    "ticks": 16608,
                    "time": 43.25,
                    "velocity": 1
                },
                {
                    "duration": 0.25,
                    "durationTicks": 96,
                    "midi": 67,
                    "name": "G4",
                    "ticks": 16704,
                    "time": 43.5,
                    "velocity": 1
                },
                {
                    "duration": 0.25,
                    "durationTicks": 96,
                    "midi": 71,
                    "name": "B4",
                    "ticks": 16800,
                    "time": 43.75,
                    "velocity": 1
                },
                {
                    "duration": 0.25,
                    "durationTicks": 96,
                    "midi": 64,
                    "name": "E4",
                    "ticks": 17088,
                    "time": 44.5,
                    "velocity": 1
                },
                {
                    "duration": 0.25,
                    "durationTicks": 96,
                    "midi": 67,
                    "name": "G4",
                    "ticks": 17184,
                    "time": 44.75,
                    "velocity": 1
                },
                {
                    "duration": 0.25,
                    "durationTicks": 96,
                    "midi": 73,
                    "name": "C#5",
                    "ticks": 17280,
                    "time": 45,
                    "velocity": 1
                },
                {
                    "duration": 0.25,
                    "durationTicks": 96,
                    "midi": 64,
                    "name": "E4",
                    "ticks": 17376,
                    "time": 45.25,
                    "velocity": 1
                },
                {
                    "duration": 0.25,
                    "durationTicks": 96,
                    "midi": 67,
                    "name": "G4",
                    "ticks": 17472,
                    "time": 45.5,
                    "velocity": 1
                },
                {
                    "duration": 0.25,
                    "durationTicks": 96,
                    "midi": 73,
                    "name": "C#5",
                    "ticks": 17568,
                    "time": 45.75,
                    "velocity": 1
                },
                {
                    "duration": 0.25,
                    "durationTicks": 96,
                    "midi": 64,
                    "name": "E4",
                    "ticks": 17856,
                    "time": 46.5,
                    "velocity": 1
                },
                {
                    "duration": 0.25,
                    "durationTicks": 96,
                    "midi": 67,
                    "name": "G4",
                    "ticks": 17952,
                    "time": 46.75,
                    "velocity": 1
                },
                {
                    "duration": 0.25,
                    "durationTicks": 96,
                    "midi": 73,
                    "name": "C#5",
                    "ticks": 18048,
                    "time": 47,
                    "velocity": 1
                },
                {
                    "duration": 0.25,
                    "durationTicks": 96,
                    "midi": 64,
                    "name": "E4",
                    "ticks": 18144,
                    "time": 47.25,
                    "velocity": 1
                },
                {
                    "duration": 0.25,
                    "durationTicks": 96,
                    "midi": 67,
                    "name": "G4",
                    "ticks": 18240,
                    "time": 47.5,
                    "velocity": 1
                },
                {
                    "duration": 0.25,
                    "durationTicks": 96,
                    "midi": 73,
                    "name": "C#5",
                    "ticks": 18336,
                    "time": 47.75,
                    "velocity": 1
                },
                {
                    "duration": 0.25,
                    "durationTicks": 96,
                    "midi": 62,
                    "name": "D4",
                    "ticks": 18624,
                    "time": 48.5,
                    "velocity": 1
                },
                {
                    "duration": 0.25,
                    "durationTicks": 96,
                    "midi": 69,
                    "name": "A4",
                    "ticks": 18720,
                    "time": 48.75,
                    "velocity": 1
                },
                {
                    "duration": 0.25,
                    "durationTicks": 96,
                    "midi": 74,
                    "name": "D5",
                    "ticks": 18816,
                    "time": 49,
                    "velocity": 1
                },
                {
                    "duration": 0.25,
                    "durationTicks": 96,
                    "midi": 62,
                    "name": "D4",
                    "ticks": 18912,
                    "time": 49.25,
                    "velocity": 1
                },
                {
                    "duration": 0.25,
                    "durationTicks": 96,
                    "midi": 69,
                    "name": "A4",
                    "ticks": 19008,
                    "time": 49.5,
                    "velocity": 1
                },
                {
                    "duration": 0.25,
                    "durationTicks": 96,
                    "midi": 74,
                    "name": "D5",
                    "ticks": 19104,
                    "time": 49.75,
                    "velocity": 1
                },
                {
                    "duration": 0.25,
                    "durationTicks": 96,
                    "midi": 62,
                    "name": "D4",
                    "ticks": 19392,
                    "time": 50.5,
                    "velocity": 1
                },
                {
                    "duration": 0.25,
                    "durationTicks": 96,
                    "midi": 69,
                    "name": "A4",
                    "ticks": 19488,
                    "time": 50.75,
                    "velocity": 1
                },
                {
                    "duration": 0.25,
                    "durationTicks": 96,
                    "midi": 74,
                    "name": "D5",
                    "ticks": 19584,
                    "time": 51,
                    "velocity": 1
                },
                {
                    "duration": 0.25,
                    "durationTicks": 96,
                    "midi": 62,
                    "name": "D4",
                    "ticks": 19680,
                    "time": 51.25,
                    "velocity": 1
                },
                {
                    "duration": 0.25,
                    "durationTicks": 96,
                    "midi": 69,
                    "name": "A4",
                    "ticks": 19776,
                    "time": 51.5,
                    "velocity": 1
                },
                {
                    "duration": 0.25,
                    "durationTicks": 96,
                    "midi": 74,
                    "name": "D5",
                    "ticks": 19872,
                    "time": 51.75,
                    "velocity": 1
                },
                {
                    "duration": 0.25,
                    "durationTicks": 96,
                    "midi": 62,
                    "name": "D4",
                    "ticks": 20160,
                    "time": 52.5,
                    "velocity": 1
                },
                {
                    "duration": 0.25,
                    "durationTicks": 96,
                    "midi": 65,
                    "name": "F4",
                    "ticks": 20256,
                    "time": 52.75,
                    "velocity": 1
                },
                {
                    "duration": 0.25,
                    "durationTicks": 96,
                    "midi": 71,
                    "name": "B4",
                    "ticks": 20352,
                    "time": 53,
                    "velocity": 1
                },
                {
                    "duration": 0.25,
                    "durationTicks": 96,
                    "midi": 62,
                    "name": "D4",
                    "ticks": 20448,
                    "time": 53.25,
                    "velocity": 1
                },
                {
                    "duration": 0.25,
                    "durationTicks": 96,
                    "midi": 65,
                    "name": "F4",
                    "ticks": 20544,
                    "time": 53.5,
                    "velocity": 1
                },
                {
                    "duration": 0.25,
                    "durationTicks": 96,
                    "midi": 71,
                    "name": "B4",
                    "ticks": 20640,
                    "time": 53.75,
                    "velocity": 1
                },
                {
                    "duration": 0.25,
                    "durationTicks": 96,
                    "midi": 62,
                    "name": "D4",
                    "ticks": 20928,
                    "time": 54.5,
                    "velocity": 1
                },
                {
                    "duration": 0.25,
                    "durationTicks": 96,
                    "midi": 65,
                    "name": "F4",
                    "ticks": 21024,
                    "time": 54.75,
                    "velocity": 1
                },
                {
                    "duration": 0.25,
                    "durationTicks": 96,
                    "midi": 71,
                    "name": "B4",
                    "ticks": 21120,
                    "time": 55,
                    "velocity": 1
                },
                {
                    "duration": 0.25,
                    "durationTicks": 96,
                    "midi": 62,
                    "name": "D4",
                    "ticks": 21216,
                    "time": 55.25,
                    "velocity": 1
                },
                {
                    "duration": 0.25,
                    "durationTicks": 96,
                    "midi": 65,
                    "name": "F4",
                    "ticks": 21312,
                    "time": 55.5,
                    "velocity": 1
                },
                {
                    "duration": 0.25,
                    "durationTicks": 96,
                    "midi": 71,
                    "name": "B4",
                    "ticks": 21408,
                    "time": 55.75,
                    "velocity": 1
                },
                {
                    "duration": 0.25,
                    "durationTicks": 96,
                    "midi": 60,
                    "name": "C4",
                    "ticks": 21696,
                    "time": 56.5,
                    "velocity": 1
                },
                {
                    "duration": 0.25,
                    "durationTicks": 96,
                    "midi": 67,
                    "name": "G4",
                    "ticks": 21792,
                    "time": 56.75,
                    "velocity": 1
                },
                {
                    "duration": 0.25,
                    "durationTicks": 96,
                    "midi": 72,
                    "name": "C5",
                    "ticks": 21888,
                    "time": 57,
                    "velocity": 1
                },
                {
                    "duration": 0.25,
                    "durationTicks": 96,
                    "midi": 60,
                    "name": "C4",
                    "ticks": 21984,
                    "time": 57.25,
                    "velocity": 1
                },
                {
                    "duration": 0.25,
                    "durationTicks": 96,
                    "midi": 67,
                    "name": "G4",
                    "ticks": 22080,
                    "time": 57.5,
                    "velocity": 1
                },
                {
                    "duration": 0.25,
                    "durationTicks": 96,
                    "midi": 72,
                    "name": "C5",
                    "ticks": 22176,
                    "time": 57.75,
                    "velocity": 1
                },
                {
                    "duration": 0.25,
                    "durationTicks": 96,
                    "midi": 60,
                    "name": "C4",
                    "ticks": 22464,
                    "time": 58.5,
                    "velocity": 1
                },
                {
                    "duration": 0.25,
                    "durationTicks": 96,
                    "midi": 67,
                    "name": "G4",
                    "ticks": 22560,
                    "time": 58.75,
                    "velocity": 1
                },
                {
                    "duration": 0.25,
                    "durationTicks": 96,
                    "midi": 72,
                    "name": "C5",
                    "ticks": 22656,
                    "time": 59,
                    "velocity": 1
                },
                {
                    "duration": 0.25,
                    "durationTicks": 96,
                    "midi": 60,
                    "name": "C4",
                    "ticks": 22752,
                    "time": 59.25,
                    "velocity": 1
                },
                {
                    "duration": 0.25,
                    "durationTicks": 96,
                    "midi": 67,
                    "name": "G4",
                    "ticks": 22848,
                    "time": 59.5,
                    "velocity": 1
                },
                {
                    "duration": 0.25,
                    "durationTicks": 96,
                    "midi": 72,
                    "name": "C5",
                    "ticks": 22944,
                    "time": 59.75,
                    "velocity": 1
                },
                {
                    "duration": 0.25,
                    "durationTicks": 96,
                    "midi": 57,
                    "name": "A3",
                    "ticks": 23232,
                    "time": 60.5,
                    "velocity": 1
                },
                {
                    "duration": 0.25,
                    "durationTicks": 96,
                    "midi": 60,
                    "name": "C4",
                    "ticks": 23328,
                    "time": 60.75,
                    "velocity": 1
                },
                {
                    "duration": 0.25,
                    "durationTicks": 96,
                    "midi": 65,
                    "name": "F4",
                    "ticks": 23424,
                    "time": 61,
                    "velocity": 1
                },
                {
                    "duration": 0.25,
                    "durationTicks": 96,
                    "midi": 57,
                    "name": "A3",
                    "ticks": 23520,
                    "time": 61.25,
                    "velocity": 1
                },
                {
                    "duration": 0.25,
                    "durationTicks": 96,
                    "midi": 60,
                    "name": "C4",
                    "ticks": 23616,
                    "time": 61.5,
                    "velocity": 1
                },
                {
                    "duration": 0.25,
                    "durationTicks": 96,
                    "midi": 65,
                    "name": "F4",
                    "ticks": 23712,
                    "time": 61.75,
                    "velocity": 1
                },
                {
                    "duration": 0.25,
                    "durationTicks": 96,
                    "midi": 57,
                    "name": "A3",
                    "ticks": 24000,
                    "time": 62.5,
                    "velocity": 1
                },
                {
                    "duration": 0.25,
                    "durationTicks": 96,
                    "midi": 60,
                    "name": "C4",
                    "ticks": 24096,
                    "time": 62.75,
                    "velocity": 1
                },
                {
                    "duration": 0.25,
                    "durationTicks": 96,
                    "midi": 65,
                    "name": "F4",
                    "ticks": 24192,
                    "time": 63,
                    "velocity": 1
                },
                {
                    "duration": 0.25,
                    "durationTicks": 96,
                    "midi": 57,
                    "name": "A3",
                    "ticks": 24288,
                    "time": 63.25,
                    "velocity": 1
                },
                {
                    "duration": 0.25,
                    "durationTicks": 96,
                    "midi": 60,
                    "name": "C4",
                    "ticks": 24384,
                    "time": 63.5,
                    "velocity": 1
                },
                {
                    "duration": 0.25,
                    "durationTicks": 96,
                    "midi": 65,
                    "name": "F4",
                    "ticks": 24480,
                    "time": 63.75,
                    "velocity": 1
                },
                {
                    "duration": 0.25,
                    "durationTicks": 96,
                    "midi": 57,
                    "name": "A3",
                    "ticks": 24768,
                    "time": 64.5,
                    "velocity": 1
                },
                {
                    "duration": 0.25,
                    "durationTicks": 96,
                    "midi": 60,
                    "name": "C4",
                    "ticks": 24864,
                    "time": 64.75,
                    "velocity": 1
                },
                {
                    "duration": 0.25,
                    "durationTicks": 96,
                    "midi": 65,
                    "name": "F4",
                    "ticks": 24960,
                    "time": 65,
                    "velocity": 1
                },
                {
                    "duration": 0.25,
                    "durationTicks": 96,
                    "midi": 57,
                    "name": "A3",
                    "ticks": 25056,
                    "time": 65.25,
                    "velocity": 1
                },
                {
                    "duration": 0.25,
                    "durationTicks": 96,
                    "midi": 60,
                    "name": "C4",
                    "ticks": 25152,
                    "time": 65.5,
                    "velocity": 1
                },
                {
                    "duration": 0.25,
                    "durationTicks": 96,
                    "midi": 65,
                    "name": "F4",
                    "ticks": 25248,
                    "time": 65.75,
                    "velocity": 1
                },
                {
                    "duration": 0.25,
                    "durationTicks": 96,
                    "midi": 57,
                    "name": "A3",
                    "ticks": 25536,
                    "time": 66.5,
                    "velocity": 1
                },
                {
                    "duration": 0.25,
                    "durationTicks": 96,
                    "midi": 60,
                    "name": "C4",
                    "ticks": 25632,
                    "time": 66.75,
                    "velocity": 1
                },
                {
                    "duration": 0.25,
                    "durationTicks": 96,
                    "midi": 65,
                    "name": "F4",
                    "ticks": 25728,
                    "time": 67,
                    "velocity": 1
                },
                {
                    "duration": 0.25,
                    "durationTicks": 96,
                    "midi": 57,
                    "name": "A3",
                    "ticks": 25824,
                    "time": 67.25,
                    "velocity": 1
                },
                {
                    "duration": 0.25,
                    "durationTicks": 96,
                    "midi": 60,
                    "name": "C4",
                    "ticks": 25920,
                    "time": 67.5,
                    "velocity": 1
                },
                {
                    "duration": 0.25,
                    "durationTicks": 96,
                    "midi": 65,
                    "name": "F4",
                    "ticks": 26016,
                    "time": 67.75,
                    "velocity": 1
                },
                {
                    "duration": 0.25,
                    "durationTicks": 96,
                    "midi": 55,
                    "name": "G3",
                    "ticks": 26304,
                    "time": 68.5,
                    "velocity": 1
                },
                {
                    "duration": 0.25,
                    "durationTicks": 96,
                    "midi": 59,
                    "name": "B3",
                    "ticks": 26400,
                    "time": 68.75,
                    "velocity": 1
                },
                {
                    "duration": 0.25,
                    "durationTicks": 96,
                    "midi": 65,
                    "name": "F4",
                    "ticks": 26496,
                    "time": 69,
                    "velocity": 1
                },
                {
                    "duration": 0.25,
                    "durationTicks": 96,
                    "midi": 55,
                    "name": "G3",
                    "ticks": 26592,
                    "time": 69.25,
                    "velocity": 1
                },
                {
                    "duration": 0.25,
                    "durationTicks": 96,
                    "midi": 59,
                    "name": "B3",
                    "ticks": 26688,
                    "time": 69.5,
                    "velocity": 1
                },
                {
                    "duration": 0.25,
                    "durationTicks": 96,
                    "midi": 65,
                    "name": "F4",
                    "ticks": 26784,
                    "time": 69.75,
                    "velocity": 1
                },
                {
                    "duration": 0.25,
                    "durationTicks": 96,
                    "midi": 55,
                    "name": "G3",
                    "ticks": 27072,
                    "time": 70.5,
                    "velocity": 1
                },
                {
                    "duration": 0.25,
                    "durationTicks": 96,
                    "midi": 59,
                    "name": "B3",
                    "ticks": 27168,
                    "time": 70.75,
                    "velocity": 1
                },
                {
                    "duration": 0.25,
                    "durationTicks": 96,
                    "midi": 65,
                    "name": "F4",
                    "ticks": 27264,
                    "time": 71,
                    "velocity": 1
                },
                {
                    "duration": 0.25,
                    "durationTicks": 96,
                    "midi": 55,
                    "name": "G3",
                    "ticks": 27360,
                    "time": 71.25,
                    "velocity": 1
                },
                {
                    "duration": 0.25,
                    "durationTicks": 96,
                    "midi": 59,
                    "name": "B3",
                    "ticks": 27456,
                    "time": 71.5,
                    "velocity": 1
                },
                {
                    "duration": 0.25,
                    "durationTicks": 96,
                    "midi": 65,
                    "name": "F4",
                    "ticks": 27552,
                    "time": 71.75,
                    "velocity": 1
                },
                {
                    "duration": 0.25,
                    "durationTicks": 96,
                    "midi": 55,
                    "name": "G3",
                    "ticks": 27840,
                    "time": 72.5,
                    "velocity": 1
                },
                {
                    "duration": 0.25,
                    "durationTicks": 96,
                    "midi": 60,
                    "name": "C4",
                    "ticks": 27936,
                    "time": 72.75,
                    "velocity": 1
                },
                {
                    "duration": 0.25,
                    "durationTicks": 96,
                    "midi": 64,
                    "name": "E4",
                    "ticks": 28032,
                    "time": 73,
                    "velocity": 1
                },
                {
                    "duration": 0.25,
                    "durationTicks": 96,
                    "midi": 55,
                    "name": "G3",
                    "ticks": 28128,
                    "time": 73.25,
                    "velocity": 1
                },
                {
                    "duration": 0.25,
                    "durationTicks": 96,
                    "midi": 60,
                    "name": "C4",
                    "ticks": 28224,
                    "time": 73.5,
                    "velocity": 1
                },
                {
                    "duration": 0.25,
                    "durationTicks": 96,
                    "midi": 64,
                    "name": "E4",
                    "ticks": 28320,
                    "time": 73.75,
                    "velocity": 1
                },
                {
                    "duration": 0.25,
                    "durationTicks": 96,
                    "midi": 55,
                    "name": "G3",
                    "ticks": 28608,
                    "time": 74.5,
                    "velocity": 1
                },
                {
                    "duration": 0.25,
                    "durationTicks": 96,
                    "midi": 60,
                    "name": "C4",
                    "ticks": 28704,
                    "time": 74.75,
                    "velocity": 1
                },
                {
                    "duration": 0.25,
                    "durationTicks": 96,
                    "midi": 64,
                    "name": "E4",
                    "ticks": 28800,
                    "time": 75,
                    "velocity": 1
                },
                {
                    "duration": 0.25,
                    "durationTicks": 96,
                    "midi": 55,
                    "name": "G3",
                    "ticks": 28896,
                    "time": 75.25,
                    "velocity": 1
                },
                {
                    "duration": 0.25,
                    "durationTicks": 96,
                    "midi": 60,
                    "name": "C4",
                    "ticks": 28992,
                    "time": 75.5,
                    "velocity": 1
                },
                {
                    "duration": 0.25,
                    "durationTicks": 96,
                    "midi": 64,
                    "name": "E4",
                    "ticks": 29088,
                    "time": 75.75,
                    "velocity": 1
                },
                {
                    "duration": 0.25,
                    "durationTicks": 96,
                    "midi": 58,
                    "name": "A#3",
                    "ticks": 29376,
                    "time": 76.5,
                    "velocity": 1
                },
                {
                    "duration": 0.25,
                    "durationTicks": 96,
                    "midi": 60,
                    "name": "C4",
                    "ticks": 29472,
                    "time": 76.75,
                    "velocity": 1
                },
                {
                    "duration": 0.25,
                    "durationTicks": 96,
                    "midi": 64,
                    "name": "E4",
                    "ticks": 29568,
                    "time": 77,
                    "velocity": 1
                },
                {
                    "duration": 0.25,
                    "durationTicks": 96,
                    "midi": 58,
                    "name": "A#3",
                    "ticks": 29664,
                    "time": 77.25,
                    "velocity": 1
                },
                {
                    "duration": 0.25,
                    "durationTicks": 96,
                    "midi": 60,
                    "name": "C4",
                    "ticks": 29760,
                    "time": 77.5,
                    "velocity": 1
                },
                {
                    "duration": 0.25,
                    "durationTicks": 96,
                    "midi": 64,
                    "name": "E4",
                    "ticks": 29856,
                    "time": 77.75,
                    "velocity": 1
                },
                {
                    "duration": 0.25,
                    "durationTicks": 96,
                    "midi": 58,
                    "name": "A#3",
                    "ticks": 30144,
                    "time": 78.5,
                    "velocity": 1
                },
                {
                    "duration": 0.25,
                    "durationTicks": 96,
                    "midi": 60,
                    "name": "C4",
                    "ticks": 30240,
                    "time": 78.75,
                    "velocity": 1
                },
                {
                    "duration": 0.25,
                    "durationTicks": 96,
                    "midi": 64,
                    "name": "E4",
                    "ticks": 30336,
                    "time": 79,
                    "velocity": 1
                },
                {
                    "duration": 0.25,
                    "durationTicks": 96,
                    "midi": 58,
                    "name": "A#3",
                    "ticks": 30432,
                    "time": 79.25,
                    "velocity": 1
                },
                {
                    "duration": 0.25,
                    "durationTicks": 96,
                    "midi": 60,
                    "name": "C4",
                    "ticks": 30528,
                    "time": 79.5,
                    "velocity": 1
                },
                {
                    "duration": 0.25,
                    "durationTicks": 96,
                    "midi": 64,
                    "name": "E4",
                    "ticks": 30624,
                    "time": 79.75,
                    "velocity": 1
                },
                {
                    "duration": 0.25,
                    "durationTicks": 96,
                    "midi": 57,
                    "name": "A3",
                    "ticks": 30912,
                    "time": 80.5,
                    "velocity": 1
                },
                {
                    "duration": 0.25,
                    "durationTicks": 96,
                    "midi": 60,
                    "name": "C4",
                    "ticks": 31008,
                    "time": 80.75,
                    "velocity": 1
                },
                {
                    "duration": 0.25,
                    "durationTicks": 96,
                    "midi": 64,
                    "name": "E4",
                    "ticks": 31104,
                    "time": 81,
                    "velocity": 1
                },
                {
                    "duration": 0.25,
                    "durationTicks": 96,
                    "midi": 57,
                    "name": "A3",
                    "ticks": 31200,
                    "time": 81.25,
                    "velocity": 1
                },
                {
                    "duration": 0.25,
                    "durationTicks": 96,
                    "midi": 60,
                    "name": "C4",
                    "ticks": 31296,
                    "time": 81.5,
                    "velocity": 1
                },
                {
                    "duration": 0.25,
                    "durationTicks": 96,
                    "midi": 64,
                    "name": "E4",
                    "ticks": 31392,
                    "time": 81.75,
                    "velocity": 1
                },
                {
                    "duration": 0.25,
                    "durationTicks": 96,
                    "midi": 57,
                    "name": "A3",
                    "ticks": 31680,
                    "time": 82.5,
                    "velocity": 1
                },
                {
                    "duration": 0.25,
                    "durationTicks": 96,
                    "midi": 60,
                    "name": "C4",
                    "ticks": 31776,
                    "time": 82.75,
                    "velocity": 1
                },
                {
                    "duration": 0.25,
                    "durationTicks": 96,
                    "midi": 64,
                    "name": "E4",
                    "ticks": 31872,
                    "time": 83,
                    "velocity": 1
                },
                {
                    "duration": 0.25,
                    "durationTicks": 96,
                    "midi": 57,
                    "name": "A3",
                    "ticks": 31968,
                    "time": 83.25,
                    "velocity": 1
                },
                {
                    "duration": 0.25,
                    "durationTicks": 96,
                    "midi": 60,
                    "name": "C4",
                    "ticks": 32064,
                    "time": 83.5,
                    "velocity": 1
                },
                {
                    "duration": 0.25,
                    "durationTicks": 96,
                    "midi": 64,
                    "name": "E4",
                    "ticks": 32160,
                    "time": 83.75,
                    "velocity": 1
                },
                {
                    "duration": 0.25,
                    "durationTicks": 96,
                    "midi": 57,
                    "name": "A3",
                    "ticks": 32448,
                    "time": 84.5,
                    "velocity": 1
                },
                {
                    "duration": 0.25,
                    "durationTicks": 96,
                    "midi": 60,
                    "name": "C4",
                    "ticks": 32544,
                    "time": 84.75,
                    "velocity": 1
                },
                {
                    "duration": 0.25,
                    "durationTicks": 96,
                    "midi": 63,
                    "name": "D#4",
                    "ticks": 32640,
                    "time": 85,
                    "velocity": 1
                },
                {
                    "duration": 0.25,
                    "durationTicks": 96,
                    "midi": 57,
                    "name": "A3",
                    "ticks": 32736,
                    "time": 85.25,
                    "velocity": 1
                },
                {
                    "duration": 0.25,
                    "durationTicks": 96,
                    "midi": 60,
                    "name": "C4",
                    "ticks": 32832,
                    "time": 85.5,
                    "velocity": 1
                },
                {
                    "duration": 0.25,
                    "durationTicks": 96,
                    "midi": 63,
                    "name": "D#4",
                    "ticks": 32928,
                    "time": 85.75,
                    "velocity": 1
                },
                {
                    "duration": 0.25,
                    "durationTicks": 96,
                    "midi": 57,
                    "name": "A3",
                    "ticks": 33216,
                    "time": 86.5,
                    "velocity": 1
                },
                {
                    "duration": 0.25,
                    "durationTicks": 96,
                    "midi": 60,
                    "name": "C4",
                    "ticks": 33312,
                    "time": 86.75,
                    "velocity": 1
                },
                {
                    "duration": 0.25,
                    "durationTicks": 96,
                    "midi": 63,
                    "name": "D#4",
                    "ticks": 33408,
                    "time": 87,
                    "velocity": 1
                },
                {
                    "duration": 0.25,
                    "durationTicks": 96,
                    "midi": 57,
                    "name": "A3",
                    "ticks": 33504,
                    "time": 87.25,
                    "velocity": 1
                },
                {
                    "duration": 0.25,
                    "durationTicks": 96,
                    "midi": 60,
                    "name": "C4",
                    "ticks": 33600,
                    "time": 87.5,
                    "velocity": 1
                },
                {
                    "duration": 0.25,
                    "durationTicks": 96,
                    "midi": 63,
                    "name": "D#4",
                    "ticks": 33696,
                    "time": 87.75,
                    "velocity": 1
                },
                {
                    "duration": 0.25,
                    "durationTicks": 96,
                    "midi": 59,
                    "name": "B3",
                    "ticks": 33984,
                    "time": 88.5,
                    "velocity": 1
                },
                {
                    "duration": 0.25,
                    "durationTicks": 96,
                    "midi": 60,
                    "name": "C4",
                    "ticks": 34080,
                    "time": 88.75,
                    "velocity": 1
                },
                {
                    "duration": 0.25,
                    "durationTicks": 96,
                    "midi": 62,
                    "name": "D4",
                    "ticks": 34176,
                    "time": 89,
                    "velocity": 1
                },
                {
                    "duration": 0.25,
                    "durationTicks": 96,
                    "midi": 59,
                    "name": "B3",
                    "ticks": 34272,
                    "time": 89.25,
                    "velocity": 1
                },
                {
                    "duration": 0.25,
                    "durationTicks": 96,
                    "midi": 60,
                    "name": "C4",
                    "ticks": 34368,
                    "time": 89.5,
                    "velocity": 1
                },
                {
                    "duration": 0.25,
                    "durationTicks": 96,
                    "midi": 62,
                    "name": "D4",
                    "ticks": 34464,
                    "time": 89.75,
                    "velocity": 1
                },
                {
                    "duration": 0.25,
                    "durationTicks": 96,
                    "midi": 59,
                    "name": "B3",
                    "ticks": 34752,
                    "time": 90.5,
                    "velocity": 1
                },
                {
                    "duration": 0.25,
                    "durationTicks": 96,
                    "midi": 60,
                    "name": "C4",
                    "ticks": 34848,
                    "time": 90.75,
                    "velocity": 1
                },
                {
                    "duration": 0.25,
                    "durationTicks": 96,
                    "midi": 62,
                    "name": "D4",
                    "ticks": 34944,
                    "time": 91,
                    "velocity": 1
                },
                {
                    "duration": 0.25,
                    "durationTicks": 96,
                    "midi": 59,
                    "name": "B3",
                    "ticks": 35040,
                    "time": 91.25,
                    "velocity": 1
                },
                {
                    "duration": 0.25,
                    "durationTicks": 96,
                    "midi": 60,
                    "name": "C4",
                    "ticks": 35136,
                    "time": 91.5,
                    "velocity": 1
                },
                {
                    "duration": 0.25,
                    "durationTicks": 96,
                    "midi": 62,
                    "name": "D4",
                    "ticks": 35232,
                    "time": 91.75,
                    "velocity": 1
                },
                {
                    "duration": 0.25,
                    "durationTicks": 96,
                    "midi": 55,
                    "name": "G3",
                    "ticks": 35520,
                    "time": 92.5,
                    "velocity": 1
                },
                {
                    "duration": 0.25,
                    "durationTicks": 96,
                    "midi": 59,
                    "name": "B3",
                    "ticks": 35616,
                    "time": 92.75,
                    "velocity": 1
                },
                {
                    "duration": 0.25,
                    "durationTicks": 96,
                    "midi": 62,
                    "name": "D4",
                    "ticks": 35712,
                    "time": 93,
                    "velocity": 1
                },
                {
                    "duration": 0.25,
                    "durationTicks": 96,
                    "midi": 55,
                    "name": "G3",
                    "ticks": 35808,
                    "time": 93.25,
                    "velocity": 1
                },
                {
                    "duration": 0.25,
                    "durationTicks": 96,
                    "midi": 59,
                    "name": "B3",
                    "ticks": 35904,
                    "time": 93.5,
                    "velocity": 1
                },
                {
                    "duration": 0.25,
                    "durationTicks": 96,
                    "midi": 62,
                    "name": "D4",
                    "ticks": 36000,
                    "time": 93.75,
                    "velocity": 1
                },
                {
                    "duration": 0.25,
                    "durationTicks": 96,
                    "midi": 55,
                    "name": "G3",
                    "ticks": 36288,
                    "time": 94.5,
                    "velocity": 1
                },
                {
                    "duration": 0.25,
                    "durationTicks": 96,
                    "midi": 59,
                    "name": "B3",
                    "ticks": 36384,
                    "time": 94.75,
                    "velocity": 1
                },
                {
                    "duration": 0.25,
                    "durationTicks": 96,
                    "midi": 62,
                    "name": "D4",
                    "ticks": 36480,
                    "time": 95,
                    "velocity": 1
                },
                {
                    "duration": 0.25,
                    "durationTicks": 96,
                    "midi": 55,
                    "name": "G3",
                    "ticks": 36576,
                    "time": 95.25,
                    "velocity": 1
                },
                {
                    "duration": 0.25,
                    "durationTicks": 96,
                    "midi": 59,
                    "name": "B3",
                    "ticks": 36672,
                    "time": 95.5,
                    "velocity": 1
                },
                {
                    "duration": 0.25,
                    "durationTicks": 96,
                    "midi": 62,
                    "name": "D4",
                    "ticks": 36768,
                    "time": 95.75,
                    "velocity": 1
                },
                {
                    "duration": 0.25,
                    "durationTicks": 96,
                    "midi": 55,
                    "name": "G3",
                    "ticks": 37056,
                    "time": 96.5,
                    "velocity": 1
                },
                {
                    "duration": 0.25,
                    "durationTicks": 96,
                    "midi": 60,
                    "name": "C4",
                    "ticks": 37152,
                    "time": 96.75,
                    "velocity": 1
                },
                {
                    "duration": 0.25,
                    "durationTicks": 96,
                    "midi": 64,
                    "name": "E4",
                    "ticks": 37248,
                    "time": 97,
                    "velocity": 1
                },
                {
                    "duration": 0.25,
                    "durationTicks": 96,
                    "midi": 55,
                    "name": "G3",
                    "ticks": 37344,
                    "time": 97.25,
                    "velocity": 1
                },
                {
                    "duration": 0.25,
                    "durationTicks": 96,
                    "midi": 60,
                    "name": "C4",
                    "ticks": 37440,
                    "time": 97.5,
                    "velocity": 1
                },
                {
                    "duration": 0.25,
                    "durationTicks": 96,
                    "midi": 64,
                    "name": "E4",
                    "ticks": 37536,
                    "time": 97.75,
                    "velocity": 1
                },
                {
                    "duration": 0.25,
                    "durationTicks": 96,
                    "midi": 55,
                    "name": "G3",
                    "ticks": 37824,
                    "time": 98.5,
                    "velocity": 1
                },
                {
                    "duration": 0.25,
                    "durationTicks": 96,
                    "midi": 60,
                    "name": "C4",
                    "ticks": 37920,
                    "time": 98.75,
                    "velocity": 1
                },
                {
                    "duration": 0.25,
                    "durationTicks": 96,
                    "midi": 64,
                    "name": "E4",
                    "ticks": 38016,
                    "time": 99,
                    "velocity": 1
                },
                {
                    "duration": 0.25,
                    "durationTicks": 96,
                    "midi": 55,
                    "name": "G3",
                    "ticks": 38112,
                    "time": 99.25,
                    "velocity": 1
                },
                {
                    "duration": 0.25,
                    "durationTicks": 96,
                    "midi": 60,
                    "name": "C4",
                    "ticks": 38208,
                    "time": 99.5,
                    "velocity": 1
                },
                {
                    "duration": 0.25,
                    "durationTicks": 96,
                    "midi": 64,
                    "name": "E4",
                    "ticks": 38304,
                    "time": 99.75,
                    "velocity": 1
                },
                {
                    "duration": 0.25,
                    "durationTicks": 96,
                    "midi": 55,
                    "name": "G3",
                    "ticks": 38592,
                    "time": 100.5,
                    "velocity": 1
                },
                {
                    "duration": 0.25,
                    "durationTicks": 96,
                    "midi": 60,
                    "name": "C4",
                    "ticks": 38688,
                    "time": 100.75,
                    "velocity": 1
                },
                {
                    "duration": 0.25,
                    "durationTicks": 96,
                    "midi": 65,
                    "name": "F4",
                    "ticks": 38784,
                    "time": 101,
                    "velocity": 1
                },
                {
                    "duration": 0.25,
                    "durationTicks": 96,
                    "midi": 55,
                    "name": "G3",
                    "ticks": 38880,
                    "time": 101.25,
                    "velocity": 1
                },
                {
                    "duration": 0.25,
                    "durationTicks": 96,
                    "midi": 60,
                    "name": "C4",
                    "ticks": 38976,
                    "time": 101.5,
                    "velocity": 1
                },
                {
                    "duration": 0.25,
                    "durationTicks": 96,
                    "midi": 65,
                    "name": "F4",
                    "ticks": 39072,
                    "time": 101.75,
                    "velocity": 1
                },
                {
                    "duration": 0.25,
                    "durationTicks": 96,
                    "midi": 55,
                    "name": "G3",
                    "ticks": 39360,
                    "time": 102.5,
                    "velocity": 1
                },
                {
                    "duration": 0.25,
                    "durationTicks": 96,
                    "midi": 60,
                    "name": "C4",
                    "ticks": 39456,
                    "time": 102.75,
                    "velocity": 1
                },
                {
                    "duration": 0.25,
                    "durationTicks": 96,
                    "midi": 65,
                    "name": "F4",
                    "ticks": 39552,
                    "time": 103,
                    "velocity": 1
                },
                {
                    "duration": 0.25,
                    "durationTicks": 96,
                    "midi": 55,
                    "name": "G3",
                    "ticks": 39648,
                    "time": 103.25,
                    "velocity": 1
                },
                {
                    "duration": 0.25,
                    "durationTicks": 96,
                    "midi": 60,
                    "name": "C4",
                    "ticks": 39744,
                    "time": 103.5,
                    "velocity": 1
                },
                {
                    "duration": 0.25,
                    "durationTicks": 96,
                    "midi": 65,
                    "name": "F4",
                    "ticks": 39840,
                    "time": 103.75,
                    "velocity": 1
                },
                {
                    "duration": 0.25,
                    "durationTicks": 96,
                    "midi": 55,
                    "name": "G3",
                    "ticks": 40128,
                    "time": 104.5,
                    "velocity": 1
                },
                {
                    "duration": 0.25,
                    "durationTicks": 96,
                    "midi": 59,
                    "name": "B3",
                    "ticks": 40224,
                    "time": 104.75,
                    "velocity": 1
                },
                {
                    "duration": 0.25,
                    "durationTicks": 96,
                    "midi": 65,
                    "name": "F4",
                    "ticks": 40320,
                    "time": 105,
                    "velocity": 1
                },
                {
                    "duration": 0.25,
                    "durationTicks": 96,
                    "midi": 55,
                    "name": "G3",
                    "ticks": 40416,
                    "time": 105.25,
                    "velocity": 1
                },
                {
                    "duration": 0.25,
                    "durationTicks": 96,
                    "midi": 59,
                    "name": "B3",
                    "ticks": 40512,
                    "time": 105.5,
                    "velocity": 1
                },
                {
                    "duration": 0.25,
                    "durationTicks": 96,
                    "midi": 65,
                    "name": "F4",
                    "ticks": 40608,
                    "time": 105.75,
                    "velocity": 1
                },
                {
                    "duration": 0.25,
                    "durationTicks": 96,
                    "midi": 55,
                    "name": "G3",
                    "ticks": 40896,
                    "time": 106.5,
                    "velocity": 1
                },
                {
                    "duration": 0.25,
                    "durationTicks": 96,
                    "midi": 59,
                    "name": "B3",
                    "ticks": 40992,
                    "time": 106.75,
                    "velocity": 1
                },
                {
                    "duration": 0.25,
                    "durationTicks": 96,
                    "midi": 65,
                    "name": "F4",
                    "ticks": 41088,
                    "time": 107,
                    "velocity": 1
                },
                {
                    "duration": 0.25,
                    "durationTicks": 96,
                    "midi": 55,
                    "name": "G3",
                    "ticks": 41184,
                    "time": 107.25,
                    "velocity": 1
                },
                {
                    "duration": 0.25,
                    "durationTicks": 96,
                    "midi": 59,
                    "name": "B3",
                    "ticks": 41280,
                    "time": 107.5,
                    "velocity": 1
                },
                {
                    "duration": 0.25,
                    "durationTicks": 96,
                    "midi": 65,
                    "name": "F4",
                    "ticks": 41376,
                    "time": 107.75,
                    "velocity": 1
                },
                {
                    "duration": 0.25,
                    "durationTicks": 96,
                    "midi": 57,
                    "name": "A3",
                    "ticks": 41664,
                    "time": 108.5,
                    "velocity": 1
                },
                {
                    "duration": 0.25,
                    "durationTicks": 96,
                    "midi": 60,
                    "name": "C4",
                    "ticks": 41760,
                    "time": 108.75,
                    "velocity": 1
                },
                {
                    "duration": 0.25,
                    "durationTicks": 96,
                    "midi": 66,
                    "name": "F#4",
                    "ticks": 41856,
                    "time": 109,
                    "velocity": 1
                },
                {
                    "duration": 0.25,
                    "durationTicks": 96,
                    "midi": 57,
                    "name": "A3",
                    "ticks": 41952,
                    "time": 109.25,
                    "velocity": 1
                },
                {
                    "duration": 0.25,
                    "durationTicks": 96,
                    "midi": 60,
                    "name": "C4",
                    "ticks": 42048,
                    "time": 109.5,
                    "velocity": 1
                },
                {
                    "duration": 0.25,
                    "durationTicks": 96,
                    "midi": 66,
                    "name": "F#4",
                    "ticks": 42144,
                    "time": 109.75,
                    "velocity": 1
                },
                {
                    "duration": 0.25,
                    "durationTicks": 96,
                    "midi": 57,
                    "name": "A3",
                    "ticks": 42432,
                    "time": 110.5,
                    "velocity": 1
                },
                {
                    "duration": 0.25,
                    "durationTicks": 96,
                    "midi": 60,
                    "name": "C4",
                    "ticks": 42528,
                    "time": 110.75,
                    "velocity": 1
                },
                {
                    "duration": 0.25,
                    "durationTicks": 96,
                    "midi": 66,
                    "name": "F#4",
                    "ticks": 42624,
                    "time": 111,
                    "velocity": 1
                },
                {
                    "duration": 0.25,
                    "durationTicks": 96,
                    "midi": 57,
                    "name": "A3",
                    "ticks": 42720,
                    "time": 111.25,
                    "velocity": 1
                },
                {
                    "duration": 0.25,
                    "durationTicks": 96,
                    "midi": 60,
                    "name": "C4",
                    "ticks": 42816,
                    "time": 111.5,
                    "velocity": 1
                },
                {
                    "duration": 0.25,
                    "durationTicks": 96,
                    "midi": 66,
                    "name": "F#4",
                    "ticks": 42912,
                    "time": 111.75,
                    "velocity": 1
                },
                {
                    "duration": 0.25,
                    "durationTicks": 96,
                    "midi": 55,
                    "name": "G3",
                    "ticks": 43200,
                    "time": 112.5,
                    "velocity": 1
                },
                {
                    "duration": 0.25,
                    "durationTicks": 96,
                    "midi": 60,
                    "name": "C4",
                    "ticks": 43296,
                    "time": 112.75,
                    "velocity": 1
                },
                {
                    "duration": 0.25,
                    "durationTicks": 96,
                    "midi": 67,
                    "name": "G4",
                    "ticks": 43392,
                    "time": 113,
                    "velocity": 1
                },
                {
                    "duration": 0.25,
                    "durationTicks": 96,
                    "midi": 55,
                    "name": "G3",
                    "ticks": 43488,
                    "time": 113.25,
                    "velocity": 1
                },
                {
                    "duration": 0.25,
                    "durationTicks": 96,
                    "midi": 60,
                    "name": "C4",
                    "ticks": 43584,
                    "time": 113.5,
                    "velocity": 1
                },
                {
                    "duration": 0.25,
                    "durationTicks": 96,
                    "midi": 67,
                    "name": "G4",
                    "ticks": 43680,
                    "time": 113.75,
                    "velocity": 1
                },
                {
                    "duration": 0.25,
                    "durationTicks": 96,
                    "midi": 55,
                    "name": "G3",
                    "ticks": 43968,
                    "time": 114.5,
                    "velocity": 1
                },
                {
                    "duration": 0.25,
                    "durationTicks": 96,
                    "midi": 60,
                    "name": "C4",
                    "ticks": 44064,
                    "time": 114.75,
                    "velocity": 1
                },
                {
                    "duration": 0.25,
                    "durationTicks": 96,
                    "midi": 67,
                    "name": "G4",
                    "ticks": 44160,
                    "time": 115,
                    "velocity": 1
                },
                {
                    "duration": 0.25,
                    "durationTicks": 96,
                    "midi": 55,
                    "name": "G3",
                    "ticks": 44256,
                    "time": 115.25,
                    "velocity": 1
                },
                {
                    "duration": 0.25,
                    "durationTicks": 96,
                    "midi": 60,
                    "name": "C4",
                    "ticks": 44352,
                    "time": 115.5,
                    "velocity": 1
                },
                {
                    "duration": 0.25,
                    "durationTicks": 96,
                    "midi": 67,
                    "name": "G4",
                    "ticks": 44448,
                    "time": 115.75,
                    "velocity": 1
                },
                {
                    "duration": 0.25,
                    "durationTicks": 96,
                    "midi": 55,
                    "name": "G3",
                    "ticks": 44736,
                    "time": 116.5,
                    "velocity": 1
                },
                {
                    "duration": 0.25,
                    "durationTicks": 96,
                    "midi": 60,
                    "name": "C4",
                    "ticks": 44832,
                    "time": 116.75,
                    "velocity": 1
                },
                {
                    "duration": 0.25,
                    "durationTicks": 96,
                    "midi": 65,
                    "name": "F4",
                    "ticks": 44928,
                    "time": 117,
                    "velocity": 1
                },
                {
                    "duration": 0.25,
                    "durationTicks": 96,
                    "midi": 55,
                    "name": "G3",
                    "ticks": 45024,
                    "time": 117.25,
                    "velocity": 1
                },
                {
                    "duration": 0.25,
                    "durationTicks": 96,
                    "midi": 60,
                    "name": "C4",
                    "ticks": 45120,
                    "time": 117.5,
                    "velocity": 1
                },
                {
                    "duration": 0.25,
                    "durationTicks": 96,
                    "midi": 65,
                    "name": "F4",
                    "ticks": 45216,
                    "time": 117.75,
                    "velocity": 1
                },
                {
                    "duration": 0.25,
                    "durationTicks": 96,
                    "midi": 55,
                    "name": "G3",
                    "ticks": 45504,
                    "time": 118.5,
                    "velocity": 1
                },
                {
                    "duration": 0.25,
                    "durationTicks": 96,
                    "midi": 60,
                    "name": "C4",
                    "ticks": 45600,
                    "time": 118.75,
                    "velocity": 1
                },
                {
                    "duration": 0.25,
                    "durationTicks": 96,
                    "midi": 65,
                    "name": "F4",
                    "ticks": 45696,
                    "time": 119,
                    "velocity": 1
                },
                {
                    "duration": 0.25,
                    "durationTicks": 96,
                    "midi": 55,
                    "name": "G3",
                    "ticks": 45792,
                    "time": 119.25,
                    "velocity": 1
                },
                {
                    "duration": 0.25,
                    "durationTicks": 96,
                    "midi": 60,
                    "name": "C4",
                    "ticks": 45888,
                    "time": 119.5,
                    "velocity": 1
                },
                {
                    "duration": 0.25,
                    "durationTicks": 96,
                    "midi": 65,
                    "name": "F4",
                    "ticks": 45984,
                    "time": 119.75,
                    "velocity": 1
                },
                {
                    "duration": 0.25,
                    "durationTicks": 96,
                    "midi": 55,
                    "name": "G3",
                    "ticks": 46272,
                    "time": 120.5,
                    "velocity": 1
                },
                {
                    "duration": 0.25,
                    "durationTicks": 96,
                    "midi": 59,
                    "name": "B3",
                    "ticks": 46368,
                    "time": 120.75,
                    "velocity": 1
                },
                {
                    "duration": 0.25,
                    "durationTicks": 96,
                    "midi": 65,
                    "name": "F4",
                    "ticks": 46464,
                    "time": 121,
                    "velocity": 1
                },
                {
                    "duration": 0.25,
                    "durationTicks": 96,
                    "midi": 55,
                    "name": "G3",
                    "ticks": 46560,
                    "time": 121.25,
                    "velocity": 1
                },
                {
                    "duration": 0.25,
                    "durationTicks": 96,
                    "midi": 59,
                    "name": "B3",
                    "ticks": 46656,
                    "time": 121.5,
                    "velocity": 1
                },
                {
                    "duration": 0.25,
                    "durationTicks": 96,
                    "midi": 65,
                    "name": "F4",
                    "ticks": 46752,
                    "time": 121.75,
                    "velocity": 1
                },
                {
                    "duration": 0.25,
                    "durationTicks": 96,
                    "midi": 55,
                    "name": "G3",
                    "ticks": 47040,
                    "time": 122.5,
                    "velocity": 1
                },
                {
                    "duration": 0.25,
                    "durationTicks": 96,
                    "midi": 59,
                    "name": "B3",
                    "ticks": 47136,
                    "time": 122.75,
                    "velocity": 1
                },
                {
                    "duration": 0.25,
                    "durationTicks": 96,
                    "midi": 65,
                    "name": "F4",
                    "ticks": 47232,
                    "time": 123,
                    "velocity": 1
                },
                {
                    "duration": 0.25,
                    "durationTicks": 96,
                    "midi": 55,
                    "name": "G3",
                    "ticks": 47328,
                    "time": 123.25,
                    "velocity": 1
                },
                {
                    "duration": 0.25,
                    "durationTicks": 96,
                    "midi": 59,
                    "name": "B3",
                    "ticks": 47424,
                    "time": 123.5,
                    "velocity": 1
                },
                {
                    "duration": 0.25,
                    "durationTicks": 96,
                    "midi": 65,
                    "name": "F4",
                    "ticks": 47520,
                    "time": 123.75,
                    "velocity": 1
                },
                {
                    "duration": 0.25,
                    "durationTicks": 96,
                    "midi": 55,
                    "name": "G3",
                    "ticks": 47808,
                    "time": 124.5,
                    "velocity": 1
                },
                {
                    "duration": 0.25,
                    "durationTicks": 96,
                    "midi": 58,
                    "name": "A#3",
                    "ticks": 47904,
                    "time": 124.75,
                    "velocity": 1
                },
                {
                    "duration": 0.25,
                    "durationTicks": 96,
                    "midi": 64,
                    "name": "E4",
                    "ticks": 48000,
                    "time": 125,
                    "velocity": 1
                },
                {
                    "duration": 0.25,
                    "durationTicks": 96,
                    "midi": 55,
                    "name": "G3",
                    "ticks": 48096,
                    "time": 125.25,
                    "velocity": 1
                },
                {
                    "duration": 0.25,
                    "durationTicks": 96,
                    "midi": 58,
                    "name": "A#3",
                    "ticks": 48192,
                    "time": 125.5,
                    "velocity": 1
                },
                {
                    "duration": 0.25,
                    "durationTicks": 96,
                    "midi": 64,
                    "name": "E4",
                    "ticks": 48288,
                    "time": 125.75,
                    "velocity": 1
                },
                {
                    "duration": 0.25,
                    "durationTicks": 96,
                    "midi": 55,
                    "name": "G3",
                    "ticks": 48576,
                    "time": 126.5,
                    "velocity": 1
                },
                {
                    "duration": 0.25,
                    "durationTicks": 96,
                    "midi": 58,
                    "name": "A#3",
                    "ticks": 48672,
                    "time": 126.75,
                    "velocity": 1
                },
                {
                    "duration": 0.25,
                    "durationTicks": 96,
                    "midi": 64,
                    "name": "E4",
                    "ticks": 48768,
                    "time": 127,
                    "velocity": 1
                },
                {
                    "duration": 0.25,
                    "durationTicks": 96,
                    "midi": 55,
                    "name": "G3",
                    "ticks": 48864,
                    "time": 127.25,
                    "velocity": 1
                },
                {
                    "duration": 0.25,
                    "durationTicks": 96,
                    "midi": 58,
                    "name": "A#3",
                    "ticks": 48960,
                    "time": 127.5,
                    "velocity": 1
                },
                {
                    "duration": 0.25,
                    "durationTicks": 96,
                    "midi": 64,
                    "name": "E4",
                    "ticks": 49056,
                    "time": 127.75,
                    "velocity": 1
                },
                {
                    "duration": 0.25,
                    "durationTicks": 96,
                    "midi": 53,
                    "name": "F3",
                    "ticks": 49344,
                    "time": 128.5,
                    "velocity": 1
                },
                {
                    "duration": 0.25,
                    "durationTicks": 96,
                    "midi": 57,
                    "name": "A3",
                    "ticks": 49440,
                    "time": 128.75,
                    "velocity": 1
                },
                {
                    "duration": 0.25,
                    "durationTicks": 96,
                    "midi": 60,
                    "name": "C4",
                    "ticks": 49536,
                    "time": 129,
                    "velocity": 1
                },
                {
                    "duration": 0.25,
                    "durationTicks": 96,
                    "midi": 65,
                    "name": "F4",
                    "ticks": 49632,
                    "time": 129.25,
                    "velocity": 1
                },
                {
                    "duration": 0.25,
                    "durationTicks": 96,
                    "midi": 60,
                    "name": "C4",
                    "ticks": 49728,
                    "time": 129.5,
                    "velocity": 1
                },
                {
                    "duration": 0.25,
                    "durationTicks": 96,
                    "midi": 57,
                    "name": "A3",
                    "ticks": 49824,
                    "time": 129.75,
                    "velocity": 1
                },
                {
                    "duration": 0.25,
                    "durationTicks": 96,
                    "midi": 60,
                    "name": "C4",
                    "ticks": 49920,
                    "time": 130,
                    "velocity": 1
                },
                {
                    "duration": 0.25,
                    "durationTicks": 96,
                    "midi": 57,
                    "name": "A3",
                    "ticks": 50016,
                    "time": 130.25,
                    "velocity": 1
                },
                {
                    "duration": 0.25,
                    "durationTicks": 96,
                    "midi": 53,
                    "name": "F3",
                    "ticks": 50112,
                    "time": 130.5,
                    "velocity": 1
                },
                {
                    "duration": 0.25,
                    "durationTicks": 96,
                    "midi": 57,
                    "name": "A3",
                    "ticks": 50208,
                    "time": 130.75,
                    "velocity": 1
                },
                {
                    "duration": 0.25,
                    "durationTicks": 96,
                    "midi": 53,
                    "name": "F3",
                    "ticks": 50304,
                    "time": 131,
                    "velocity": 1
                },
                {
                    "duration": 0.25,
                    "durationTicks": 96,
                    "midi": 50,
                    "name": "D3",
                    "ticks": 50400,
                    "time": 131.25,
                    "velocity": 1
                },
                {
                    "duration": 0.25,
                    "durationTicks": 96,
                    "midi": 53,
                    "name": "F3",
                    "ticks": 50496,
                    "time": 131.5,
                    "velocity": 1
                },
                {
                    "duration": 0.25,
                    "durationTicks": 96,
                    "midi": 50,
                    "name": "D3",
                    "ticks": 50592,
                    "time": 131.75,
                    "velocity": 1
                },
                {
                    "duration": 0.25,
                    "durationTicks": 96,
                    "midi": 67,
                    "name": "G4",
                    "ticks": 50880,
                    "time": 132.5,
                    "velocity": 1
                },
                {
                    "duration": 0.25,
                    "durationTicks": 96,
                    "midi": 71,
                    "name": "B4",
                    "ticks": 50976,
                    "time": 132.75,
                    "velocity": 1
                },
                {
                    "duration": 0.25,
                    "durationTicks": 96,
                    "midi": 74,
                    "name": "D5",
                    "ticks": 51072,
                    "time": 133,
                    "velocity": 1
                },
                {
                    "duration": 0.25,
                    "durationTicks": 96,
                    "midi": 77,
                    "name": "F5",
                    "ticks": 51168,
                    "time": 133.25,
                    "velocity": 1
                },
                {
                    "duration": 0.25,
                    "durationTicks": 96,
                    "midi": 74,
                    "name": "D5",
                    "ticks": 51264,
                    "time": 133.5,
                    "velocity": 1
                },
                {
                    "duration": 0.25,
                    "durationTicks": 96,
                    "midi": 71,
                    "name": "B4",
                    "ticks": 51360,
                    "time": 133.75,
                    "velocity": 1
                },
                {
                    "duration": 0.25,
                    "durationTicks": 96,
                    "midi": 74,
                    "name": "D5",
                    "ticks": 51456,
                    "time": 134,
                    "velocity": 1
                },
                {
                    "duration": 0.25,
                    "durationTicks": 96,
                    "midi": 71,
                    "name": "B4",
                    "ticks": 51552,
                    "time": 134.25,
                    "velocity": 1
                },
                {
                    "duration": 0.25,
                    "durationTicks": 96,
                    "midi": 67,
                    "name": "G4",
                    "ticks": 51648,
                    "time": 134.5,
                    "velocity": 1
                },
                {
                    "duration": 0.25,
                    "durationTicks": 96,
                    "midi": 71,
                    "name": "B4",
                    "ticks": 51744,
                    "time": 134.75,
                    "velocity": 1
                },
                {
                    "duration": 0.25,
                    "durationTicks": 96,
                    "midi": 62,
                    "name": "D4",
                    "ticks": 51840,
                    "time": 135,
                    "velocity": 1
                },
                {
                    "duration": 0.25,
                    "durationTicks": 96,
                    "midi": 65,
                    "name": "F4",
                    "ticks": 51936,
                    "time": 135.25,
                    "velocity": 1
                },
                {
                    "duration": 0.25,
                    "durationTicks": 96,
                    "midi": 64,
                    "name": "E4",
                    "ticks": 52032,
                    "time": 135.5,
                    "velocity": 1
                },
                {
                    "duration": 0.25,
                    "durationTicks": 96,
                    "midi": 62,
                    "name": "D4",
                    "ticks": 52128,
                    "time": 135.75,
                    "velocity": 1
                },
                {
                    "duration": 4,
                    "durationTicks": 1536,
                    "midi": 72,
                    "name": "C5",
                    "ticks": 52224,
                    "time": 136,
                    "velocity": 1
                },
                {
                    "duration": 4,
                    "durationTicks": 1536,
                    "midi": 67,
                    "name": "G4",
                    "ticks": 52224,
                    "time": 136,
                    "velocity": 1
                },
                {
                    "duration": 4,
                    "durationTicks": 1536,
                    "midi": 64,
                    "name": "E4",
                    "ticks": 52224,
                    "time": 136,
                    "velocity": 1
                }
            ],
            "endOfTrackTicks": 53760
        },
        {
            "channel": 1,
            "controlChanges": {},
            "pitchBends": [],
            "instrument": {
                "family": "piano",
                "number": 0,
                "name": "acoustic grand piano"
            },
            "name": "lower",
            "notes": [
                {
                    "duration": 2,
                    "durationTicks": 768,
                    "midi": 60,
                    "name": "C4",
                    "ticks": 0,
                    "time": 0,
                    "velocity": 1
                },
                {
                    "duration": 1.75,
                    "durationTicks": 672,
                    "midi": 64,
                    "name": "E4",
                    "ticks": 96,
                    "time": 0.25,
                    "velocity": 1
                },
                {
                    "duration": 2,
                    "durationTicks": 768,
                    "midi": 60,
                    "name": "C4",
                    "ticks": 768,
                    "time": 2,
                    "velocity": 1
                },
                {
                    "duration": 1.75,
                    "durationTicks": 672,
                    "midi": 64,
                    "name": "E4",
                    "ticks": 864,
                    "time": 2.25,
                    "velocity": 1
                },
                {
                    "duration": 2,
                    "durationTicks": 768,
                    "midi": 60,
                    "name": "C4",
                    "ticks": 1536,
                    "time": 4,
                    "velocity": 1
                },
                {
                    "duration": 1.75,
                    "durationTicks": 672,
                    "midi": 62,
                    "name": "D4",
                    "ticks": 1632,
                    "time": 4.25,
                    "velocity": 1
                },
                {
                    "duration": 2,
                    "durationTicks": 768,
                    "midi": 60,
                    "name": "C4",
                    "ticks": 2304,
                    "time": 6,
                    "velocity": 1
                },
                {
                    "duration": 1.75,
                    "durationTicks": 672,
                    "midi": 62,
                    "name": "D4",
                    "ticks": 2400,
                    "time": 6.25,
                    "velocity": 1
                },
                {
                    "duration": 2,
                    "durationTicks": 768,
                    "midi": 59,
                    "name": "B3",
                    "ticks": 3072,
                    "time": 8,
                    "velocity": 1
                },
                {
                    "duration": 1.75,
                    "durationTicks": 672,
                    "midi": 62,
                    "name": "D4",
                    "ticks": 3168,
                    "time": 8.25,
                    "velocity": 1
                },
                {
                    "duration": 2,
                    "durationTicks": 768,
                    "midi": 59,
                    "name": "B3",
                    "ticks": 3840,
                    "time": 10,
                    "velocity": 1
                },
                {
                    "duration": 1.75,
                    "durationTicks": 672,
                    "midi": 62,
                    "name": "D4",
                    "ticks": 3936,
                    "time": 10.25,
                    "velocity": 1
                },
                {
                    "duration": 2,
                    "durationTicks": 768,
                    "midi": 60,
                    "name": "C4",
                    "ticks": 4608,
                    "time": 12,
                    "velocity": 1
                },
                {
                    "duration": 1.75,
                    "durationTicks": 672,
                    "midi": 64,
                    "name": "E4",
                    "ticks": 4704,
                    "time": 12.25,
                    "velocity": 1
                },
                {
                    "duration": 2,
                    "durationTicks": 768,
                    "midi": 60,
                    "name": "C4",
                    "ticks": 5376,
                    "time": 14,
                    "velocity": 1
                },
                {
                    "duration": 1.75,
                    "durationTicks": 672,
                    "midi": 64,
                    "name": "E4",
                    "ticks": 5472,
                    "time": 14.25,
                    "velocity": 1
                },
                {
                    "duration": 2,
                    "durationTicks": 768,
                    "midi": 60,
                    "name": "C4",
                    "ticks": 6144,
                    "time": 16,
                    "velocity": 1
                },
                {
                    "duration": 1.75,
                    "durationTicks": 672,
                    "midi": 64,
                    "name": "E4",
                    "ticks": 6240,
                    "time": 16.25,
                    "velocity": 1
                },
                {
                    "duration": 2,
                    "durationTicks": 768,
                    "midi": 60,
                    "name": "C4",
                    "ticks": 6912,
                    "time": 18,
                    "velocity": 1
                },
                {
                    "duration": 1.75,
                    "durationTicks": 672,
                    "midi": 64,
                    "name": "E4",
                    "ticks": 7008,
                    "time": 18.25,
                    "velocity": 1
                },
                {
                    "duration": 2,
                    "durationTicks": 768,
                    "midi": 60,
                    "name": "C4",
                    "ticks": 7680,
                    "time": 20,
                    "velocity": 1
                },
                {
                    "duration": 1.75,
                    "durationTicks": 672,
                    "midi": 62,
                    "name": "D4",
                    "ticks": 7776,
                    "time": 20.25,
                    "velocity": 1
                },
                {
                    "duration": 2,
                    "durationTicks": 768,
                    "midi": 60,
                    "name": "C4",
                    "ticks": 8448,
                    "time": 22,
                    "velocity": 1
                },
                {
                    "duration": 1.75,
                    "durationTicks": 672,
                    "midi": 62,
                    "name": "D4",
                    "ticks": 8544,
                    "time": 22.25,
                    "velocity": 1
                },
                {
                    "duration": 2,
                    "durationTicks": 768,
                    "midi": 59,
                    "name": "B3",
                    "ticks": 9216,
                    "time": 24,
                    "velocity": 1
                },
                {
                    "duration": 1.75,
                    "durationTicks": 672,
                    "midi": 62,
                    "name": "D4",
                    "ticks": 9312,
                    "time": 24.25,
                    "velocity": 1
                },
                {
                    "duration": 2,
                    "durationTicks": 768,
                    "midi": 59,
                    "name": "B3",
                    "ticks": 9984,
                    "time": 26,
                    "velocity": 1
                },
                {
                    "duration": 1.75,
                    "durationTicks": 672,
                    "midi": 62,
                    "name": "D4",
                    "ticks": 10080,
                    "time": 26.25,
                    "velocity": 1
                },
                {
                    "duration": 2,
                    "durationTicks": 768,
                    "midi": 59,
                    "name": "B3",
                    "ticks": 10752,
                    "time": 28,
                    "velocity": 1
                },
                {
                    "duration": 1.75,
                    "durationTicks": 672,
                    "midi": 60,
                    "name": "C4",
                    "ticks": 10848,
                    "time": 28.25,
                    "velocity": 1
                },
                {
                    "duration": 2,
                    "durationTicks": 768,
                    "midi": 59,
                    "name": "B3",
                    "ticks": 11520,
                    "time": 30,
                    "velocity": 1
                },
                {
                    "duration": 1.75,
                    "durationTicks": 672,
                    "midi": 60,
                    "name": "C4",
                    "ticks": 11616,
                    "time": 30.25,
                    "velocity": 1
                },
                {
                    "duration": 2,
                    "durationTicks": 768,
                    "midi": 57,
                    "name": "A3",
                    "ticks": 12288,
                    "time": 32,
                    "velocity": 1
                },
                {
                    "duration": 1.75,
                    "durationTicks": 672,
                    "midi": 60,
                    "name": "C4",
                    "ticks": 12384,
                    "time": 32.25,
                    "velocity": 1
                },
                {
                    "duration": 2,
                    "durationTicks": 768,
                    "midi": 57,
                    "name": "A3",
                    "ticks": 13056,
                    "time": 34,
                    "velocity": 1
                },
                {
                    "duration": 1.75,
                    "durationTicks": 672,
                    "midi": 60,
                    "name": "C4",
                    "ticks": 13152,
                    "time": 34.25,
                    "velocity": 1
                },
                {
                    "duration": 2,
                    "durationTicks": 768,
                    "midi": 50,
                    "name": "D3",
                    "ticks": 13824,
                    "time": 36,
                    "velocity": 1
                },
                {
                    "duration": 1.75,
                    "durationTicks": 672,
                    "midi": 57,
                    "name": "A3",
                    "ticks": 13920,
                    "time": 36.25,
                    "velocity": 1
                },
                {
                    "duration": 2,
                    "durationTicks": 768,
                    "midi": 50,
                    "name": "D3",
                    "ticks": 14592,
                    "time": 38,
                    "velocity": 1
                },
                {
                    "duration": 1.75,
                    "durationTicks": 672,
                    "midi": 57,
                    "name": "A3",
                    "ticks": 14688,
                    "time": 38.25,
                    "velocity": 1
                },
                {
                    "duration": 2,
                    "durationTicks": 768,
                    "midi": 55,
                    "name": "G3",
                    "ticks": 15360,
                    "time": 40,
                    "velocity": 1
                },
                {
                    "duration": 1.75,
                    "durationTicks": 672,
                    "midi": 59,
                    "name": "B3",
                    "ticks": 15456,
                    "time": 40.25,
                    "velocity": 1
                },
                {
                    "duration": 2,
                    "durationTicks": 768,
                    "midi": 55,
                    "name": "G3",
                    "ticks": 16128,
                    "time": 42,
                    "velocity": 1
                },
                {
                    "duration": 1.75,
                    "durationTicks": 672,
                    "midi": 59,
                    "name": "B3",
                    "ticks": 16224,
                    "time": 42.25,
                    "velocity": 1
                },
                {
                    "duration": 2,
                    "durationTicks": 768,
                    "midi": 55,
                    "name": "G3",
                    "ticks": 16896,
                    "time": 44,
                    "velocity": 1
                },
                {
                    "duration": 1.75,
                    "durationTicks": 672,
                    "midi": 58,
                    "name": "A#3",
                    "ticks": 16992,
                    "time": 44.25,
                    "velocity": 1
                },
                {
                    "duration": 2,
                    "durationTicks": 768,
                    "midi": 55,
                    "name": "G3",
                    "ticks": 17664,
                    "time": 46,
                    "velocity": 1
                },
                {
                    "duration": 1.75,
                    "durationTicks": 672,
                    "midi": 58,
                    "name": "A#3",
                    "ticks": 17760,
                    "time": 46.25,
                    "velocity": 1
                },
                {
                    "duration": 2,
                    "durationTicks": 768,
                    "midi": 53,
                    "name": "F3",
                    "ticks": 18432,
                    "time": 48,
                    "velocity": 1
                },
                {
                    "duration": 1.75,
                    "durationTicks": 672,
                    "midi": 57,
                    "name": "A3",
                    "ticks": 18528,
                    "time": 48.25,
                    "velocity": 1
                },
                {
                    "duration": 2,
                    "durationTicks": 768,
                    "midi": 53,
                    "name": "F3",
                    "ticks": 19200,
                    "time": 50,
                    "velocity": 1
                },
                {
                    "duration": 1.75,
                    "durationTicks": 672,
                    "midi": 57,
                    "name": "A3",
                    "ticks": 19296,
                    "time": 50.25,
                    "velocity": 1
                },
                {
                    "duration": 2,
                    "durationTicks": 768,
                    "midi": 53,
                    "name": "F3",
                    "ticks": 19968,
                    "time": 52,
                    "velocity": 1
                },
                {
                    "duration": 1.75,
                    "durationTicks": 672,
                    "midi": 56,
                    "name": "G#3",
                    "ticks": 20064,
                    "time": 52.25,
                    "velocity": 1
                },
                {
                    "duration": 2,
                    "durationTicks": 768,
                    "midi": 53,
                    "name": "F3",
                    "ticks": 20736,
                    "time": 54,
                    "velocity": 1
                },
                {
                    "duration": 1.75,
                    "durationTicks": 672,
                    "midi": 56,
                    "name": "G#3",
                    "ticks": 20832,
                    "time": 54.25,
                    "velocity": 1
                },
                {
                    "duration": 2,
                    "durationTicks": 768,
                    "midi": 52,
                    "name": "E3",
                    "ticks": 21504,
                    "time": 56,
                    "velocity": 1
                },
                {
                    "duration": 1.75,
                    "durationTicks": 672,
                    "midi": 55,
                    "name": "G3",
                    "ticks": 21600,
                    "time": 56.25,
                    "velocity": 1
                },
                {
                    "duration": 2,
                    "durationTicks": 768,
                    "midi": 52,
                    "name": "E3",
                    "ticks": 22272,
                    "time": 58,
                    "velocity": 1
                },
                {
                    "duration": 1.75,
                    "durationTicks": 672,
                    "midi": 55,
                    "name": "G3",
                    "ticks": 22368,
                    "time": 58.25,
                    "velocity": 1
                },
                {
                    "duration": 2,
                    "durationTicks": 768,
                    "midi": 52,
                    "name": "E3",
                    "ticks": 23040,
                    "time": 60,
                    "velocity": 1
                },
                {
                    "duration": 1.75,
                    "durationTicks": 672,
                    "midi": 53,
                    "name": "F3",
                    "ticks": 23136,
                    "time": 60.25,
                    "velocity": 1
                },
                {
                    "duration": 2,
                    "durationTicks": 768,
                    "midi": 52,
                    "name": "E3",
                    "ticks": 23808,
                    "time": 62,
                    "velocity": 1
                },
                {
                    "duration": 1.75,
                    "durationTicks": 672,
                    "midi": 53,
                    "name": "F3",
                    "ticks": 23904,
                    "time": 62.25,
                    "velocity": 1
                },
                {
                    "duration": 2,
                    "durationTicks": 768,
                    "midi": 50,
                    "name": "D3",
                    "ticks": 24576,
                    "time": 64,
                    "velocity": 1
                },
                {
                    "duration": 1.75,
                    "durationTicks": 672,
                    "midi": 53,
                    "name": "F3",
                    "ticks": 24672,
                    "time": 64.25,
                    "velocity": 1
                },
                {
                    "duration": 2,
                    "durationTicks": 768,
                    "midi": 50,
                    "name": "D3",
                    "ticks": 25344,
                    "time": 66,
                    "velocity": 1
                },
                {
                    "duration": 1.75,
                    "durationTicks": 672,
                    "midi": 53,
                    "name": "F3",
                    "ticks": 25440,
                    "time": 66.25,
                    "velocity": 1
                },
                {
                    "duration": 2,
                    "durationTicks": 768,
                    "midi": 43,
                    "name": "G2",
                    "ticks": 26112,
                    "time": 68,
                    "velocity": 1
                },
                {
                    "duration": 1.75,
                    "durationTicks": 672,
                    "midi": 50,
                    "name": "D3",
                    "ticks": 26208,
                    "time": 68.25,
                    "velocity": 1
                },
                {
                    "duration": 2,
                    "durationTicks": 768,
                    "midi": 43,
                    "name": "G2",
                    "ticks": 26880,
                    "time": 70,
                    "velocity": 1
                },
                {
                    "duration": 1.75,
                    "durationTicks": 672,
                    "midi": 50,
                    "name": "D3",
                    "ticks": 26976,
                    "time": 70.25,
                    "velocity": 1
                },
                {
                    "duration": 2,
                    "durationTicks": 768,
                    "midi": 48,
                    "name": "C3",
                    "ticks": 27648,
                    "time": 72,
                    "velocity": 1
                },
                {
                    "duration": 1.75,
                    "durationTicks": 672,
                    "midi": 52,
                    "name": "E3",
                    "ticks": 27744,
                    "time": 72.25,
                    "velocity": 1
                },
                {
                    "duration": 2,
                    "durationTicks": 768,
                    "midi": 48,
                    "name": "C3",
                    "ticks": 28416,
                    "time": 74,
                    "velocity": 1
                },
                {
                    "duration": 1.75,
                    "durationTicks": 672,
                    "midi": 52,
                    "name": "E3",
                    "ticks": 28512,
                    "time": 74.25,
                    "velocity": 1
                },
                {
                    "duration": 2,
                    "durationTicks": 768,
                    "midi": 48,
                    "name": "C3",
                    "ticks": 29184,
                    "time": 76,
                    "velocity": 1
                },
                {
                    "duration": 1.75,
                    "durationTicks": 672,
                    "midi": 55,
                    "name": "G3",
                    "ticks": 29280,
                    "time": 76.25,
                    "velocity": 1
                },
                {
                    "duration": 2,
                    "durationTicks": 768,
                    "midi": 48,
                    "name": "C3",
                    "ticks": 29952,
                    "time": 78,
                    "velocity": 1
                },
                {
                    "duration": 1.75,
                    "durationTicks": 672,
                    "midi": 55,
                    "name": "G3",
                    "ticks": 30048,
                    "time": 78.25,
                    "velocity": 1
                },
                {
                    "duration": 2,
                    "durationTicks": 768,
                    "midi": 41,
                    "name": "F2",
                    "ticks": 30720,
                    "time": 80,
                    "velocity": 1
                },
                {
                    "duration": 1.75,
                    "durationTicks": 672,
                    "midi": 53,
                    "name": "F3",
                    "ticks": 30816,
                    "time": 80.25,
                    "velocity": 1
                },
                {
                    "duration": 2,
                    "durationTicks": 768,
                    "midi": 41,
                    "name": "F2",
                    "ticks": 31488,
                    "time": 82,
                    "velocity": 1
                },
                {
                    "duration": 1.75,
                    "durationTicks": 672,
                    "midi": 53,
                    "name": "F3",
                    "ticks": 31584,
                    "time": 82.25,
                    "velocity": 1
                },
                {
                    "duration": 2,
                    "durationTicks": 768,
                    "midi": 42,
                    "name": "F#2",
                    "ticks": 32256,
                    "time": 84,
                    "velocity": 1
                },
                {
                    "duration": 1.75,
                    "durationTicks": 672,
                    "midi": 48,
                    "name": "C3",
                    "ticks": 32352,
                    "time": 84.25,
                    "velocity": 1
                },
                {
                    "duration": 2,
                    "durationTicks": 768,
                    "midi": 42,
                    "name": "F#2",
                    "ticks": 33024,
                    "time": 86,
                    "velocity": 1
                },
                {
                    "duration": 1.75,
                    "durationTicks": 672,
                    "midi": 48,
                    "name": "C3",
                    "ticks": 33120,
                    "time": 86.25,
                    "velocity": 1
                },
                {
                    "duration": 2,
                    "durationTicks": 768,
                    "midi": 44,
                    "name": "G#2",
                    "ticks": 33792,
                    "time": 88,
                    "velocity": 1
                },
                {
                    "duration": 1.75,
                    "durationTicks": 672,
                    "midi": 53,
                    "name": "F3",
                    "ticks": 33888,
                    "time": 88.25,
                    "velocity": 1
                },
                {
                    "duration": 2,
                    "durationTicks": 768,
                    "midi": 44,
                    "name": "G#2",
                    "ticks": 34560,
                    "time": 90,
                    "velocity": 1
                },
                {
                    "duration": 1.75,
                    "durationTicks": 672,
                    "midi": 53,
                    "name": "F3",
                    "ticks": 34656,
                    "time": 90.25,
                    "velocity": 1
                },
                {
                    "duration": 2,
                    "durationTicks": 768,
                    "midi": 43,
                    "name": "G2",
                    "ticks": 35328,
                    "time": 92,
                    "velocity": 1
                },
                {
                    "duration": 1.75,
                    "durationTicks": 672,
                    "midi": 53,
                    "name": "F3",
                    "ticks": 35424,
                    "time": 92.25,
                    "velocity": 1
                },
                {
                    "duration": 2,
                    "durationTicks": 768,
                    "midi": 43,
                    "name": "G2",
                    "ticks": 36096,
                    "time": 94,
                    "velocity": 1
                },
                {
                    "duration": 1.75,
                    "durationTicks": 672,
                    "midi": 53,
                    "name": "F3",
                    "ticks": 36192,
                    "time": 94.25,
                    "velocity": 1
                },
                {
                    "duration": 2,
                    "durationTicks": 768,
                    "midi": 43,
                    "name": "G2",
                    "ticks": 36864,
                    "time": 96,
                    "velocity": 1
                },
                {
                    "duration": 1.75,
                    "durationTicks": 672,
                    "midi": 52,
                    "name": "E3",
                    "ticks": 36960,
                    "time": 96.25,
                    "velocity": 1
                },
                {
                    "duration": 2,
                    "durationTicks": 768,
                    "midi": 43,
                    "name": "G2",
                    "ticks": 37632,
                    "time": 98,
                    "velocity": 1
                },
                {
                    "duration": 1.75,
                    "durationTicks": 672,
                    "midi": 52,
                    "name": "E3",
                    "ticks": 37728,
                    "time": 98.25,
                    "velocity": 1
                },
                {
                    "duration": 2,
                    "durationTicks": 768,
                    "midi": 43,
                    "name": "G2",
                    "ticks": 38400,
                    "time": 100,
                    "velocity": 1
                },
                {
                    "duration": 1.75,
                    "durationTicks": 672,
                    "midi": 50,
                    "name": "D3",
                    "ticks": 38496,
                    "time": 100.25,
                    "velocity": 1
                },
                {
                    "duration": 2,
                    "durationTicks": 768,
                    "midi": 43,
                    "name": "G2",
                    "ticks": 39168,
                    "time": 102,
                    "velocity": 1
                },
                {
                    "duration": 1.75,
                    "durationTicks": 672,
                    "midi": 50,
                    "name": "D3",
                    "ticks": 39264,
                    "time": 102.25,
                    "velocity": 1
                },
                {
                    "duration": 2,
                    "durationTicks": 768,
                    "midi": 43,
                    "name": "G2",
                    "ticks": 39936,
                    "time": 104,
                    "velocity": 1
                },
                {
                    "duration": 1.75,
                    "durationTicks": 672,
                    "midi": 50,
                    "name": "D3",
                    "ticks": 40032,
                    "time": 104.25,
                    "velocity": 1
                },
                {
                    "duration": 2,
                    "durationTicks": 768,
                    "midi": 43,
                    "name": "G2",
                    "ticks": 40704,
                    "time": 106,
                    "velocity": 1
                },
                {
                    "duration": 1.75,
                    "durationTicks": 672,
                    "midi": 50,
                    "name": "D3",
                    "ticks": 40800,
                    "time": 106.25,
                    "velocity": 1
                },
                {
                    "duration": 2,
                    "durationTicks": 768,
                    "midi": 43,
                    "name": "G2",
                    "ticks": 41472,
                    "time": 108,
                    "velocity": 1
                },
                {
                    "duration": 1.75,
                    "durationTicks": 672,
                    "midi": 51,
                    "name": "D#3",
                    "ticks": 41568,
                    "time": 108.25,
                    "velocity": 1
                },
                {
                    "duration": 2,
                    "durationTicks": 768,
                    "midi": 43,
                    "name": "G2",
                    "ticks": 42240,
                    "time": 110,
                    "velocity": 1
                },
                {
                    "duration": 1.75,
                    "durationTicks": 672,
                    "midi": 51,
                    "name": "D#3",
                    "ticks": 42336,
                    "time": 110.25,
                    "velocity": 1
                },
                {
                    "duration": 2,
                    "durationTicks": 768,
                    "midi": 43,
                    "name": "G2",
                    "ticks": 43008,
                    "time": 112,
                    "velocity": 1
                },
                {
                    "duration": 1.75,
                    "durationTicks": 672,
                    "midi": 52,
                    "name": "E3",
                    "ticks": 43104,
                    "time": 112.25,
                    "velocity": 1
                },
                {
                    "duration": 2,
                    "durationTicks": 768,
                    "midi": 43,
                    "name": "G2",
                    "ticks": 43776,
                    "time": 114,
                    "velocity": 1
                },
                {
                    "duration": 1.75,
                    "durationTicks": 672,
                    "midi": 52,
                    "name": "E3",
                    "ticks": 43872,
                    "time": 114.25,
                    "velocity": 1
                },
                {
                    "duration": 2,
                    "durationTicks": 768,
                    "midi": 43,
                    "name": "G2",
                    "ticks": 44544,
                    "time": 116,
                    "velocity": 1
                },
                {
                    "duration": 1.75,
                    "durationTicks": 672,
                    "midi": 50,
                    "name": "D3",
                    "ticks": 44640,
                    "time": 116.25,
                    "velocity": 1
                },
                {
                    "duration": 2,
                    "durationTicks": 768,
                    "midi": 43,
                    "name": "G2",
                    "ticks": 45312,
                    "time": 118,
                    "velocity": 1
                },
                {
                    "duration": 1.75,
                    "durationTicks": 672,
                    "midi": 50,
                    "name": "D3",
                    "ticks": 45408,
                    "time": 118.25,
                    "velocity": 1
                },
                {
                    "duration": 2,
                    "durationTicks": 768,
                    "midi": 43,
                    "name": "G2",
                    "ticks": 46080,
                    "time": 120,
                    "velocity": 1
                },
                {
                    "duration": 1.75,
                    "durationTicks": 672,
                    "midi": 50,
                    "name": "D3",
                    "ticks": 46176,
                    "time": 120.25,
                    "velocity": 1
                },
                {
                    "duration": 2,
                    "durationTicks": 768,
                    "midi": 43,
                    "name": "G2",
                    "ticks": 46848,
                    "time": 122,
                    "velocity": 1
                },
                {
                    "duration": 1.75,
                    "durationTicks": 672,
                    "midi": 50,
                    "name": "D3",
                    "ticks": 46944,
                    "time": 122.25,
                    "velocity": 1
                },
                {
                    "duration": 2,
                    "durationTicks": 768,
                    "midi": 36,
                    "name": "C2",
                    "ticks": 47616,
                    "time": 124,
                    "velocity": 1
                },
                {
                    "duration": 1.75,
                    "durationTicks": 672,
                    "midi": 48,
                    "name": "C3",
                    "ticks": 47712,
                    "time": 124.25,
                    "velocity": 1
                },
                {
                    "duration": 2,
                    "durationTicks": 768,
                    "midi": 36,
                    "name": "C2",
                    "ticks": 48384,
                    "time": 126,
                    "velocity": 1
                },
                {
                    "duration": 1.75,
                    "durationTicks": 672,
                    "midi": 48,
                    "name": "C3",
                    "ticks": 48480,
                    "time": 126.25,
                    "velocity": 1
                },
                {
                    "duration": 4,
                    "durationTicks": 1536,
                    "midi": 36,
                    "name": "C2",
                    "ticks": 49152,
                    "time": 128,
                    "velocity": 1
                },
                {
                    "duration": 3.75,
                    "durationTicks": 1440,
                    "midi": 48,
                    "name": "C3",
                    "ticks": 49248,
                    "time": 128.25,
                    "velocity": 1
                },
                {
                    "duration": 4,
                    "durationTicks": 1536,
                    "midi": 36,
                    "name": "C2",
                    "ticks": 50688,
                    "time": 132,
                    "velocity": 1
                },
                {
                    "duration": 3.75,
                    "durationTicks": 1440,
                    "midi": 47,
                    "name": "B2",
                    "ticks": 50784,
                    "time": 132.25,
                    "velocity": 1
                },
                {
                    "duration": 4,
                    "durationTicks": 1536,
                    "midi": 48,
                    "name": "C3",
                    "ticks": 52224,
                    "time": 136,
                    "velocity": 1
                },
                {
                    "duration": 4,
                    "durationTicks": 1536,
                    "midi": 36,
                    "name": "C2",
                    "ticks": 52224,
                    "time": 136,
                    "velocity": 1
                }
            ],
            "endOfTrackTicks": 53760
        }
    ]
}