{
    "header": {
        "keySignatures": [
            {
                "key": "F",
                "scale": "major",
                "ticks": 0
            },
            {
                "key": "F",
                "scale": "major",
                "ticks": 0
            }
        ],
        "meta": [
            {
                "text": "Rimsky-Korsakov",
                "ticks": 0,
                "type": "text"
            }
        ],
        "name": "The Flight of the Bumble Bee",
        "ppq": 256,
        "tempos": [
            {
                "bpm": 144.00023040036865,
                "ticks": 0
            },
            {
                "bpm": 120,
                "ticks": 0
            },
            {
                "bpm": 144.00023040036865,
                "ticks": 0
            }
        ],
        "timeSignatures": [
            {
                "ticks": 0,
                "timeSignature": [
                    2,
                    4
                ],
                "measures": 0
            }
        ]
    },
    "tracks": [
        {
            "channel": 0,
            "controlChanges": {
                "7": [
                    {
                        "number": 7,
                        "ticks": 0,
                        "time": 0,
                        "value": 0.7874015748031497
                    },
                    {
                        "number": 7,
                        "ticks": 0,
                        "time": 0,
                        "value": 0.7874015748031497
                    },
                    {
                        "number": 7,
                        "ticks": 0,
                        "time": 0,
                        "value": 0.7874015748031497
                    }
                ],
                "10": [
                    {
                        "number": 10,
                        "ticks": 0,
                        "time": 0,
                        "value": 0.4015748031496063
                    },
                    {
                        "number": 10,
                        "ticks": 0,
                        "time": 0,
                        "value": 0.4015748031496063
                    },
                    {
                        "number": 10,
                        "ticks": 0,
                        "time": 0,
                        "value": 0.4015748031496063
                    }
                ],
                "64": [
                    {
                        "number": 64,
                        "ticks": 0,
                        "time": 0,
                        "value": 0
                    },
                    {
                        "number": 64,
                        "ticks": 0,
                        "time": 0,
                        "value": 0
                    },
                    {
                        "number": 64,
                        "ticks": 0,
                        "time": 0,
                        "value": 0
                    }
                ],
                "91": [
                    {
                        "number": 91,
                        "ticks": 0,
                        "time": 0,
                        "value": 0.3779527559055118
                    },
                    {
                        "number": 91,
                        "ticks": 0,
                        "time": 0,
                        "value": 0.3779527559055118
                    },
                    {
                        "number": 91,
                        "ticks": 0,
                        "time": 0,
                        "value": 0.3779527559055118
                    }
                ],
                "121": [
                    {
                        "number": 121,
                        "ticks": 0,
                        "time": 0,
                        "value": 0
                    },
                    {
                        "number": 121,
                        "ticks": 0,
                        "time": 0,
                        "value": 0
                    },
                    {
                        "number": 121,
                        "ticks": 0,
                        "time": 0,
                        "value": 0
                    }
                ]
            },
            "pitchBends": [],
            "instrument": {
                "family": "piano",
                "number": 0,
                "name": "acoustic grand piano"
            },
            "name": "Piano",
            "notes": [
                {
                    "duration": 0.1041665,
                    "durationTicks": 64,
                    "midi": 93,
                    "name": "A6",
                    "ticks": 0,
                    "time": 0,
                    "velocity": 0.6850393700787402
                },
                {
                    "duration": 0.208333,
                    "durationTicks": 128,
                    "midi": 57,
                    "name": "A3",
                    "ticks": 0,
                    "time": 0,
                    "velocity": 0.5590551181102362
                },
                {
                    "duration": 0.208333,
                    "durationTicks": 128,
                    "midi": 61,
                    "name": "C#4",
                    "ticks": 0,
                    "time": 0,
                    "velocity": 0.5590551181102362
                },
                {
                    "duration": 0.208333,
                    "durationTicks": 128,
                    "midi": 64,
                    "name": "E4",
                    "ticks": 0,
                    "time": 0,
                    "velocity": 0.5590551181102362
                },
                {
                    "duration": 0.208333,
                    "durationTicks": 128,
                    "midi": 69,
                    "name": "A4",
                    "ticks": 0,
                    "time": 0,
                    "velocity": 0.5590551181102362
                },
                {
                    "duration": 0.1041665,
                    "durationTicks": 64,
                    "midi": 92,
                    "name": "G#6",
                    "ticks": 64,
                    "time": 0.1041665,
                    "velocity": 0.5748031496062992
                },
                {
                    "duration": 0.1041665,
                    "durationTicks": 64,
                    "midi": 91,
                    "name": "G6",
                    "ticks": 128,
                    "time": 0.208333,
                    "velocity": 0.5669291338582677
                },
                {
                    "duration": 0.1041665,
                    "durationTicks": 64,
                    "midi": 90,
                    "name": "F#6",
                    "ticks": 192,
                    "time": 0.3124995,
                    "velocity": 0.5511811023622047
                },
                {
                    "duration": 0.10416650000000005,
                    "durationTicks": 64,
                    "midi": 91,
                    "name": "G6",
                    "ticks": 256,
                    "time": 0.416666,
                    "velocity": 0.6220472440944882
                },
                {
                    "duration": 0.10416649999999994,
                    "durationTicks": 64,
                    "midi": 90,
                    "name": "F#6",
                    "ticks": 320,
                    "time": 0.5208325,
                    "velocity": 0.5984251968503937
                },
                {
                    "duration": 0.10416649999999994,
                    "durationTicks": 64,
                    "midi": 89,
                    "name": "F6",
                    "ticks": 384,
                    "time": 0.624999,
                    "velocity": 0.5590551181102362
                },
                {
                    "duration": 0.10416650000000005,
                    "durationTicks": 64,
                    "midi": 88,
                    "name": "E6",
                    "ticks": 448,
                    "time": 0.7291654999999999,
                    "velocity": 0.5669291338582677
                },
                {
                    "duration": 0.10416650000000005,
                    "durationTicks": 64,
                    "midi": 89,
                    "name": "F6",
                    "ticks": 512,
                    "time": 0.833332,
                    "velocity": 0.5905511811023622
                },
                {
                    "duration": 0.10416650000000005,
                    "durationTicks": 64,
                    "midi": 88,
                    "name": "E6",
                    "ticks": 576,
                    "time": 0.9374985,
                    "velocity": 0.5669291338582677
                },
                {
                    "duration": 0.10416649999999983,
                    "durationTicks": 64,
                    "midi": 87,
                    "name": "D#6",
                    "ticks": 640,
                    "time": 1.041665,
                    "velocity": 0.5275590551181102
                },
                {
                    "duration": 0.10416650000000005,
                    "durationTicks": 64,
                    "midi": 86,
                    "name": "D6",
                    "ticks": 704,
                    "time": 1.1458315,
                    "velocity": 0.5905511811023622
                },
                {
                    "duration": 0.10416650000000005,
                    "durationTicks": 64,
                    "midi": 85,
                    "name": "C#6",
                    "ticks": 768,
                    "time": 1.249998,
                    "velocity": 0.5511811023622047
                },
                {
                    "duration": 0.10416649999999983,
                    "durationTicks": 64,
                    "midi": 84,
                    "name": "C6",
                    "ticks": 832,
                    "time": 1.3541645,
                    "velocity": 0.5511811023622047
                },
                {
                    "duration": 0.10416650000000005,
                    "durationTicks": 64,
                    "midi": 83,
                    "name": "B5",
                    "ticks": 896,
                    "time": 1.4583309999999998,
                    "velocity": 0.5984251968503937
                },
                {
                    "duration": 0.08300767968750011,
                    "durationTicks": 51,
                    "midi": 82,
                    "name": "A#5",
                    "ticks": 960,
                    "time": 1.5624974999999999,
                    "velocity": 0.5826771653543307
                },
                {
                    "duration": 0.10416650000000005,
                    "durationTicks": 64,
                    "midi": 81,
                    "name": "A5",
                    "ticks": 1024,
                    "time": 1.666664,
                    "velocity": 0.5748031496062992
                },
                {
                    "duration": 0.2083330000000001,
                    "durationTicks": 128,
                    "midi": 45,
                    "name": "A2",
                    "ticks": 1024,
                    "time": 1.666664,
                    "velocity": 0.5196850393700787
                },
                {
                    "duration": 0.2083330000000001,
                    "durationTicks": 128,
                    "midi": 52,
                    "name": "E3",
                    "ticks": 1024,
                    "time": 1.666664,
                    "velocity": 0.5196850393700787
                },
                {
                    "duration": 0.2083330000000001,
                    "durationTicks": 128,
                    "midi": 55,
                    "name": "G3",
                    "ticks": 1024,
                    "time": 1.666664,
                    "velocity": 0.5196850393700787
                },
                {
                    "duration": 0.2083330000000001,
                    "durationTicks": 128,
                    "midi": 57,
                    "name": "A3",
                    "ticks": 1024,
                    "time": 1.666664,
                    "velocity": 0.5196850393700787
                },
                {
                    "duration": 0.10416650000000005,
                    "durationTicks": 64,
                    "midi": 80,
                    "name": "G#5",
                    "ticks": 1088,
                    "time": 1.7708305,
                    "velocity": 0.5511811023622047
                },
                {
                    "duration": 0.10416649999999983,
                    "durationTicks": 64,
                    "midi": 79,
                    "name": "G5",
                    "ticks": 1152,
                    "time": 1.874997,
                    "velocity": 0.5354330708661418
                },
                {
                    "duration": 0.10416650000000027,
                    "durationTicks": 64,
                    "midi": 78,
                    "name": "F#5",
                    "ticks": 1216,
                    "time": 1.9791634999999999,
                    "velocity": 0.5433070866141733
                },
                {
                    "duration": 0.10416649999999983,
                    "durationTicks": 64,
                    "midi": 79,
                    "name": "G5",
                    "ticks": 1280,
                    "time": 2.08333,
                    "velocity": 0.5590551181102362
                },
                {
                    "duration": 0.10416649999999983,
                    "durationTicks": 64,
                    "midi": 78,
                    "name": "F#5",
                    "ticks": 1344,
                    "time": 2.1874965,
                    "velocity": 0.5905511811023622
                },
                {
                    "duration": 0.10416650000000027,
                    "durationTicks": 64,
                    "midi": 77,
                    "name": "F5",
                    "ticks": 1408,
                    "time": 2.291663,
                    "velocity": 0.5669291338582677
                },
                {
                    "duration": 0.10416649999999983,
                    "durationTicks": 64,
                    "midi": 76,
                    "name": "E5",
                    "ticks": 1472,
                    "time": 2.3958295,
                    "velocity": 0.5433070866141733
                },
                {
                    "duration": 0.10416649999999983,
                    "durationTicks": 64,
                    "midi": 77,
                    "name": "F5",
                    "ticks": 1536,
                    "time": 2.499996,
                    "velocity": 0.6456692913385826
                },
                {
                    "duration": 0.10416650000000027,
                    "durationTicks": 64,
                    "midi": 76,
                    "name": "E5",
                    "ticks": 1600,
                    "time": 2.6041624999999997,
                    "velocity": 0.5905511811023622
                },
                {
                    "duration": 0.10416649999999983,
                    "durationTicks": 64,
                    "midi": 75,
                    "name": "D#5",
                    "ticks": 1664,
                    "time": 2.708329,
                    "velocity": 0.5905511811023622
                },
                {
                    "duration": 0.10416649999999983,
                    "durationTicks": 64,
                    "midi": 74,
                    "name": "D5",
                    "ticks": 1728,
                    "time": 2.8124955,
                    "velocity": 0.5590551181102362
                },
                {
                    "duration": 0.10416650000000027,
                    "durationTicks": 64,
                    "midi": 73,
                    "name": "C#5",
                    "ticks": 1792,
                    "time": 2.9166619999999996,
                    "velocity": 0.5511811023622047
                },
                {
                    "duration": 0.10416649999999983,
                    "durationTicks": 64,
                    "midi": 72,
                    "name": "C5",
                    "ticks": 1856,
                    "time": 3.0208285,
                    "velocity": 0.5511811023622047
                },
                {
                    "duration": 0.10416650000000027,
                    "durationTicks": 64,
                    "midi": 71,
                    "name": "B4",
                    "ticks": 1920,
                    "time": 3.1249949999999997,
                    "velocity": 0.5354330708661418
                },
                {
                    "duration": 0.08300767968749989,
                    "durationTicks": 51,
                    "midi": 70,
                    "name": "A#4",
                    "ticks": 1984,
                    "time": 3.2291615,
                    "velocity": 0.5590551181102362
                },
                {
                    "duration": 0.10416649999999983,
                    "durationTicks": 64,
                    "midi": 69,
                    "name": "A4",
                    "ticks": 2048,
                    "time": 3.333328,
                    "velocity": 0.47244094488188976
                },
                {
                    "duration": 0.10416650000000027,
                    "durationTicks": 64,
                    "midi": 68,
                    "name": "G#4",
                    "ticks": 2112,
                    "time": 3.4374944999999997,
                    "velocity": 0.44881889763779526
                },
                {
                    "duration": 0.10416649999999983,
                    "durationTicks": 64,
                    "midi": 67,
                    "name": "G4",
                    "ticks": 2176,
                    "time": 3.541661,
                    "velocity": 0.44881889763779526
                },
                {
                    "duration": 0.10416650000000027,
                    "durationTicks": 64,
                    "midi": 66,
                    "name": "F#4",
                    "ticks": 2240,
                    "time": 3.6458274999999998,
                    "velocity": 0.44881889763779526
                },
                {
                    "duration": 0.10416649999999983,
                    "durationTicks": 64,
                    "midi": 67,
                    "name": "G4",
                    "ticks": 2304,
                    "time": 3.749994,
                    "velocity": 0.4881889763779528
                },
                {
                    "duration": 0.10416649999999983,
                    "durationTicks": 64,
                    "midi": 66,
                    "name": "F#4",
                    "ticks": 2368,
                    "time": 3.8541605,
                    "velocity": 0.44881889763779526
                },
                {
                    "duration": 0.10416649999999983,
                    "durationTicks": 64,
                    "midi": 65,
                    "name": "F4",
                    "ticks": 2432,
                    "time": 3.9583269999999997,
                    "velocity": 0.4645669291338583
                },
                {
                    "duration": 0.10416650000000072,
                    "durationTicks": 64,
                    "midi": 64,
                    "name": "E4",
                    "ticks": 2496,
                    "time": 4.0624934999999995,
                    "velocity": 0.4330708661417323
                },
                {
                    "duration": 0.10416649999999983,
                    "durationTicks": 64,
                    "midi": 69,
                    "name": "A4",
                    "ticks": 2560,
                    "time": 4.16666,
                    "velocity": 0.5354330708661418
                },
                {
                    "duration": 0.10416649999999983,
                    "durationTicks": 64,
                    "midi": 68,
                    "name": "G#4",
                    "ticks": 2624,
                    "time": 4.2708265,
                    "velocity": 0.4251968503937008
                },
                {
                    "duration": 0.10416649999999983,
                    "durationTicks": 64,
                    "midi": 67,
                    "name": "G4",
                    "ticks": 2688,
                    "time": 4.374993,
                    "velocity": 0.48031496062992124
                },
                {
                    "duration": 0.10416649999999983,
                    "durationTicks": 64,
                    "midi": 66,
                    "name": "F#4",
                    "ticks": 2752,
                    "time": 4.4791595,
                    "velocity": 0.41732283464566927
                },
                {
                    "duration": 0.10416649999999983,
                    "durationTicks": 64,
                    "midi": 67,
                    "name": "G4",
                    "ticks": 2816,
                    "time": 4.583326,
                    "velocity": 0.4566929133858268
                },
                {
                    "duration": 0.10416650000000072,
                    "durationTicks": 64,
                    "midi": 66,
                    "name": "F#4",
                    "ticks": 2880,
                    "time": 4.687492499999999,
                    "velocity": 0.4566929133858268
                },
                {
                    "duration": 0.10416649999999983,
                    "durationTicks": 64,
                    "midi": 65,
                    "name": "F4",
                    "ticks": 2944,
                    "time": 4.791659,
                    "velocity": 0.4566929133858268
                },
                {
                    "duration": 0.08300767968749945,
                    "durationTicks": 51,
                    "midi": 64,
                    "name": "E4",
                    "ticks": 3008,
                    "time": 4.8958255,
                    "velocity": 0.4409448818897638
                },
                {
                    "duration": 0.10416649999999983,
                    "durationTicks": 64,
                    "midi": 69,
                    "name": "A4",
                    "ticks": 3072,
                    "time": 4.999992,
                    "velocity": 0.5275590551181102
                },
                {
                    "duration": 0.10253889843750041,
                    "durationTicks": 63,
                    "midi": 50,
                    "name": "D3",
                    "ticks": 3072,
                    "time": 4.999992,
                    "velocity": 0.5196850393700787
                },
                {
                    "duration": 0.10253889843750041,
                    "durationTicks": 63,
                    "midi": 53,
                    "name": "F3",
                    "ticks": 3072,
                    "time": 4.999992,
                    "velocity": 0.5196850393700787
                },
                {
                    "duration": 0.10253889843750041,
                    "durationTicks": 63,
                    "midi": 57,
                    "name": "A3",
                    "ticks": 3072,
                    "time": 4.999992,
                    "velocity": 0.5196850393700787
                },
                {
                    "duration": 0.10416649999999983,
                    "durationTicks": 64,
                    "midi": 68,
                    "name": "G#4",
                    "ticks": 3136,
                    "time": 5.1041585,
                    "velocity": 0.4566929133858268
                },
                {
                    "duration": 0.10416650000000072,
                    "durationTicks": 64,
                    "midi": 67,
                    "name": "G4",
                    "ticks": 3200,
                    "time": 5.208324999999999,
                    "velocity": 0.4251968503937008
                },
                {
                    "duration": 0.10416649999999983,
                    "durationTicks": 64,
                    "midi": 66,
                    "name": "F#4",
                    "ticks": 3264,
                    "time": 5.3124915,
                    "velocity": 0.4409448818897638
                },
                {
                    "duration": 0.10416649999999983,
                    "durationTicks": 64,
                    "midi": 65,
                    "name": "F4",
                    "ticks": 3328,
                    "time": 5.416658,
                    "velocity": 0.4881889763779528
                },
                {
                    "duration": 0.10416649999999983,
                    "durationTicks": 64,
                    "midi": 70,
                    "name": "A#4",
                    "ticks": 3392,
                    "time": 5.5208245,
                    "velocity": 0.5118110236220472
                },
                {
                    "duration": 0.10416649999999983,
                    "durationTicks": 64,
                    "midi": 69,
                    "name": "A4",
                    "ticks": 3456,
                    "time": 5.624991,
                    "velocity": 0.44881889763779526
                },
                {
                    "duration": 0.10416649999999983,
                    "durationTicks": 64,
                    "midi": 68,
                    "name": "G#4",
                    "ticks": 3520,
                    "time": 5.7291574999999995,
                    "velocity": 0.41732283464566927
                },
                {
                    "duration": 0.10416650000000072,
                    "durationTicks": 64,
                    "midi": 69,
                    "name": "A4",
                    "ticks": 3584,
                    "time": 5.833323999999999,
                    "velocity": 0.49606299212598426
                },
                {
                    "duration": 0.10253889843750041,
                    "durationTicks": 63,
                    "midi": 50,
                    "name": "D3",
                    "ticks": 3584,
                    "time": 5.833323999999999,
                    "velocity": 0.5511811023622047
                },
                {
                    "duration": 0.10253889843750041,
                    "durationTicks": 63,
                    "midi": 53,
                    "name": "F3",
                    "ticks": 3584,
                    "time": 5.833323999999999,
                    "velocity": 0.5511811023622047
                },
                {
                    "duration": 0.10253889843750041,
                    "durationTicks": 63,
                    "midi": 57,
                    "name": "A3",
                    "ticks": 3584,
                    "time": 5.833323999999999,
                    "velocity": 0.5511811023622047
                },
                {
                    "duration": 0.10416649999999983,
                    "durationTicks": 64,
                    "midi": 68,
                    "name": "G#4",
                    "ticks": 3648,
                    "time": 5.9374905,
                    "velocity": 0.4330708661417323
                },
                {
                    "duration": 0.10416649999999983,
                    "durationTicks": 64,
                    "midi": 67,
                    "name": "G4",
                    "ticks": 3712,
                    "time": 6.041657,
                    "velocity": 0.44881889763779526
                },
                {
                    "duration": 0.10416649999999983,
                    "durationTicks": 64,
                    "midi": 66,
                    "name": "F#4",
                    "ticks": 3776,
                    "time": 6.1458235,
                    "velocity": 0.48031496062992124
                },
                {
                    "duration": 0.10416649999999983,
                    "durationTicks": 64,
                    "midi": 65,
                    "name": "F4",
                    "ticks": 3840,
                    "time": 6.2499899999999995,
                    "velocity": 0.4409448818897638
                },
                {
                    "duration": 0.10253889843750041,
                    "durationTicks": 63,
                    "midi": 50,
                    "name": "D3",
                    "ticks": 3840,
                    "time": 6.2499899999999995,
                    "velocity": 0.5196850393700787
                },
                {
                    "duration": 0.10253889843750041,
                    "durationTicks": 63,
                    "midi": 55,
                    "name": "G3",
                    "ticks": 3840,
                    "time": 6.2499899999999995,
                    "velocity": 0.5196850393700787
                },
                {
                    "duration": 0.10253889843750041,
                    "durationTicks": 63,
                    "midi": 59,
                    "name": "B3",
                    "ticks": 3840,
                    "time": 6.2499899999999995,
                    "velocity": 0.5196850393700787
                },
                {
                    "duration": 0.10416650000000072,
                    "durationTicks": 64,
                    "midi": 66,
                    "name": "F#4",
                    "ticks": 3904,
                    "time": 6.354156499999999,
                    "velocity": 0.49606299212598426
                },
                {
                    "duration": 0.10416649999999983,
                    "durationTicks": 64,
                    "midi": 67,
                    "name": "G4",
                    "ticks": 3968,
                    "time": 6.458323,
                    "velocity": 0.5275590551181102
                },
                {
                    "duration": 0.08300767968749945,
                    "durationTicks": 51,
                    "midi": 68,
                    "name": "G#4",
                    "ticks": 4032,
                    "time": 6.5624895,
                    "velocity": 0.5275590551181102
                },
                {
                    "duration": 0.10416649999999983,
                    "durationTicks": 64,
                    "midi": 69,
                    "name": "A4",
                    "ticks": 4096,
                    "time": 6.666656,
                    "velocity": 0.4645669291338583
                },
                {
                    "duration": 0.10253889843750041,
                    "durationTicks": 63,
                    "midi": 50,
                    "name": "D3",
                    "ticks": 4096,
                    "time": 6.666656,
                    "velocity": 0.5275590551181102
                },
                {
                    "duration": 0.10253889843750041,
                    "durationTicks": 63,
                    "midi": 53,
                    "name": "F3",
                    "ticks": 4096,
                    "time": 6.666656,
                    "velocity": 0.5275590551181102
                },
                {
                    "duration": 0.10253889843750041,
                    "durationTicks": 63,
                    "midi": 57,
                    "name": "A3",
                    "ticks": 4096,
                    "time": 6.666656,
                    "velocity": 0.5275590551181102
                },
                {
                    "duration": 0.10416649999999983,
                    "durationTicks": 64,
                    "midi": 68,
                    "name": "G#4",
                    "ticks": 4160,
                    "time": 6.7708224999999995,
                    "velocity": 0.44881889763779526
                },
                {
                    "duration": 0.10416650000000072,
                    "durationTicks": 64,
                    "midi": 67,
                    "name": "G4",
                    "ticks": 4224,
                    "time": 6.874988999999999,
                    "velocity": 0.4409448818897638
                },
                {
                    "duration": 0.10416649999999983,
                    "durationTicks": 64,
                    "midi": 66,
                    "name": "F#4",
                    "ticks": 4288,
                    "time": 6.9791555,
                    "velocity": 0.4330708661417323
                },
                {
                    "duration": 0.10416649999999983,
                    "durationTicks": 64,
                    "midi": 65,
                    "name": "F4",
                    "ticks": 4352,
                    "time": 7.083322,
                    "velocity": 0.48031496062992124
                },
                {
                    "duration": 0.10416649999999983,
                    "durationTicks": 64,
                    "midi": 70,
                    "name": "A#4",
                    "ticks": 4416,
                    "time": 7.1874885,
                    "velocity": 0.5275590551181102
                },
                {
                    "duration": 0.10416649999999983,
                    "durationTicks": 64,
                    "midi": 69,
                    "name": "A4",
                    "ticks": 4480,
                    "time": 7.2916549999999996,
                    "velocity": 0.4881889763779528
                },
                {
                    "duration": 0.10416650000000072,
                    "durationTicks": 64,
                    "midi": 68,
                    "name": "G#4",
                    "ticks": 4544,
                    "time": 7.395821499999999,
                    "velocity": 0.4409448818897638
                },
                {
                    "duration": 0.10416649999999983,
                    "durationTicks": 64,
                    "midi": 69,
                    "name": "A4",
                    "ticks": 4608,
                    "time": 7.499988,
                    "velocity": 0.5275590551181102
                },
                {
                    "duration": 0.10253889843749953,
                    "durationTicks": 63,
                    "midi": 50,
                    "name": "D3",
                    "ticks": 4608,
                    "time": 7.499988,
                    "velocity": 0.5590551181102362
                },
                {
                    "duration": 0.10253889843749953,
                    "durationTicks": 63,
                    "midi": 53,
                    "name": "F3",
                    "ticks": 4608,
                    "time": 7.499988,
                    "velocity": 0.5590551181102362
                },
                {
                    "duration": 0.10253889843749953,
                    "durationTicks": 63,
                    "midi": 57,
                    "name": "A3",
                    "ticks": 4608,
                    "time": 7.499988,
                    "velocity": 0.5590551181102362
                },
                {
                    "duration": 0.10416649999999983,
                    "durationTicks": 64,
                    "midi": 68,
                    "name": "G#4",
                    "ticks": 4672,
                    "time": 7.6041545,
                    "velocity": 0.44881889763779526
                },
                {
                    "duration": 0.10416649999999983,
                    "durationTicks": 64,
                    "midi": 67,
                    "name": "G4",
                    "ticks": 4736,
                    "time": 7.708321,
                    "velocity": 0.47244094488188976
                },
                {
                    "duration": 0.10416649999999983,
                    "durationTicks": 64,
                    "midi": 66,
                    "name": "F#4",
                    "ticks": 4800,
                    "time": 7.8124875,
                    "velocity": 0.4330708661417323
                },
                {
                    "duration": 0.10416649999999983,
                    "durationTicks": 64,
                    "midi": 65,
                    "name": "F4",
                    "ticks": 4864,
                    "time": 7.916653999999999,
                    "velocity": 0.44881889763779526
                },
                {
                    "duration": 0.20833299999999966,
                    "durationTicks": 128,
                    "midi": 50,
                    "name": "D3",
                    "ticks": 4864,
                    "time": 7.916653999999999,
                    "velocity": 0.5196850393700787
                },
                {
                    "duration": 0.20833299999999966,
                    "durationTicks": 128,
                    "midi": 55,
                    "name": "G3",
                    "ticks": 4864,
                    "time": 7.916653999999999,
                    "velocity": 0.5196850393700787
                },
                {
                    "duration": 0.20833299999999966,
                    "durationTicks": 128,
                    "midi": 59,
                    "name": "B3",
                    "ticks": 4864,
                    "time": 7.916653999999999,
                    "velocity": 0.5196850393700787
                },
                {
                    "duration": 0.10416649999999983,
                    "durationTicks": 64,
                    "midi": 66,
                    "name": "F#4",
                    "ticks": 4928,
                    "time": 8.0208205,
                    "velocity": 0.5511811023622047
                },
                {
                    "duration": 0.10416649999999983,
                    "durationTicks": 64,
                    "midi": 67,
                    "name": "G4",
                    "ticks": 4992,
                    "time": 8.124986999999999,
                    "velocity": 0.4881889763779528
                },
                {
                    "duration": 0.08300767968750122,
                    "durationTicks": 51,
                    "midi": 68,
                    "name": "G#4",
                    "ticks": 5056,
                    "time": 8.229153499999999,
                    "velocity": 0.5039370078740157
                },
                {
                    "duration": 0.10416649999999983,
                    "durationTicks": 64,
                    "midi": 69,
                    "name": "A4",
                    "ticks": 5120,
                    "time": 8.33332,
                    "velocity": 0.5039370078740157
                },
                {
                    "duration": 0.20833299999999966,
                    "durationTicks": 128,
                    "midi": 50,
                    "name": "D3",
                    "ticks": 5120,
                    "time": 8.33332,
                    "velocity": 0.5275590551181102
                },
                {
                    "duration": 0.20833299999999966,
                    "durationTicks": 128,
                    "midi": 53,
                    "name": "F3",
                    "ticks": 5120,
                    "time": 8.33332,
                    "velocity": 0.5275590551181102
                },
                {
                    "duration": 0.20833299999999966,
                    "durationTicks": 128,
                    "midi": 57,
                    "name": "A3",
                    "ticks": 5120,
                    "time": 8.33332,
                    "velocity": 0.5275590551181102
                },
                {
                    "duration": 0.10416649999999983,
                    "durationTicks": 64,
                    "midi": 68,
                    "name": "G#4",
                    "ticks": 5184,
                    "time": 8.4374865,
                    "velocity": 0.4566929133858268
                },
                {
                    "duration": 0.10416649999999983,
                    "durationTicks": 64,
                    "midi": 67,
                    "name": "G4",
                    "ticks": 5248,
                    "time": 8.541653,
                    "velocity": 0.4330708661417323
                },
                {
                    "duration": 0.10416649999999983,
                    "durationTicks": 64,
                    "midi": 66,
                    "name": "F#4",
                    "ticks": 5312,
                    "time": 8.6458195,
                    "velocity": 0.4409448818897638
                },
                {
                    "duration": 0.10416649999999983,
                    "durationTicks": 64,
                    "midi": 67,
                    "name": "G4",
                    "ticks": 5376,
                    "time": 8.749986,
                    "velocity": 0.5118110236220472
                },
                {
                    "duration": 0.20833299999999966,
                    "durationTicks": 128,
                    "midi": 50,
                    "name": "D3",
                    "ticks": 5376,
                    "time": 8.749986,
                    "velocity": 0.5275590551181102
                },
                {
                    "duration": 0.20833299999999966,
                    "durationTicks": 128,
                    "midi": 55,
                    "name": "G3",
                    "ticks": 5376,
                    "time": 8.749986,
                    "velocity": 0.5275590551181102
                },
                {
                    "duration": 0.20833299999999966,
                    "durationTicks": 128,
                    "midi": 58,
                    "name": "A#3",
                    "ticks": 5376,
                    "time": 8.749986,
                    "velocity": 0.5275590551181102
                },
                {
                    "duration": 0.10416649999999983,
                    "durationTicks": 64,
                    "midi": 66,
                    "name": "F#4",
                    "ticks": 5440,
                    "time": 8.8541525,
                    "velocity": 0.49606299212598426
                },
                {
                    "duration": 0.10416649999999983,
                    "durationTicks": 64,
                    "midi": 65,
                    "name": "F4",
                    "ticks": 5504,
                    "time": 8.958319,
                    "velocity": 0.48031496062992124
                },
                {
                    "duration": 0.10416649999999983,
                    "durationTicks": 64,
                    "midi": 64,
                    "name": "E4",
                    "ticks": 5568,
                    "time": 9.0624855,
                    "velocity": 0.4330708661417323
                },
                {
                    "duration": 0.10416649999999983,
                    "durationTicks": 64,
                    "midi": 65,
                    "name": "F4",
                    "ticks": 5632,
                    "time": 9.166652,
                    "velocity": 0.49606299212598426
                },
                {
                    "duration": 0.20833299999999966,
                    "durationTicks": 128,
                    "midi": 50,
                    "name": "D3",
                    "ticks": 5632,
                    "time": 9.166652,
                    "velocity": 0.5511811023622047
                },
                {
                    "duration": 0.20833299999999966,
                    "durationTicks": 128,
                    "midi": 53,
                    "name": "F3",
                    "ticks": 5632,
                    "time": 9.166652,
                    "velocity": 0.5511811023622047
                },
                {
                    "duration": 0.20833299999999966,
                    "durationTicks": 128,
                    "midi": 57,
                    "name": "A3",
                    "ticks": 5632,
                    "time": 9.166652,
                    "velocity": 0.5511811023622047
                },
                {
                    "duration": 0.10416649999999983,
                    "durationTicks": 64,
                    "midi": 66,
                    "name": "F#4",
                    "ticks": 5696,
                    "time": 9.270818499999999,
                    "velocity": 0.49606299212598426
                },
                {
                    "duration": 0.1041665000000016,
                    "durationTicks": 64,
                    "midi": 67,
                    "name": "G4",
                    "ticks": 5760,
                    "time": 9.374984999999999,
                    "velocity": 0.5118110236220472
                },
                {
                    "duration": 0.10416649999999983,
                    "durationTicks": 64,
                    "midi": 68,
                    "name": "G#4",
                    "ticks": 5824,
                    "time": 9.4791515,
                    "velocity": 0.4330708661417323
                },
                {
                    "duration": 0.10416649999999983,
                    "durationTicks": 64,
                    "midi": 69,
                    "name": "A4",
                    "ticks": 5888,
                    "time": 9.583318,
                    "velocity": 0.5196850393700787
                },
                {
                    "duration": 0.20833299999999966,
                    "durationTicks": 128,
                    "midi": 49,
                    "name": "C#3",
                    "ticks": 5888,
                    "time": 9.583318,
                    "velocity": 0.5275590551181102
                },
                {
                    "duration": 0.20833299999999966,
                    "durationTicks": 128,
                    "midi": 52,
                    "name": "E3",
                    "ticks": 5888,
                    "time": 9.583318,
                    "velocity": 0.5275590551181102
                },
                {
                    "duration": 0.20833299999999966,
                    "durationTicks": 128,
                    "midi": 55,
                    "name": "G3",
                    "ticks": 5888,
                    "time": 9.583318,
                    "velocity": 0.5275590551181102
                },
                {
                    "duration": 0.20833299999999966,
                    "durationTicks": 128,
                    "midi": 57,
                    "name": "A3",
                    "ticks": 5888,
                    "time": 9.583318,
                    "velocity": 0.5275590551181102
                },
                {
                    "duration": 0.10416649999999983,
                    "durationTicks": 64,
                    "midi": 70,
                    "name": "A#4",
                    "ticks": 5952,
                    "time": 9.6874845,
                    "velocity": 0.5039370078740157
                },
                {
                    "duration": 0.10416649999999983,
                    "durationTicks": 64,
                    "midi": 69,
                    "name": "A4",
                    "ticks": 6016,
                    "time": 9.791651,
                    "velocity": 0.4409448818897638
                },
                {
                    "duration": 0.08300767968749945,
                    "durationTicks": 51,
                    "midi": 68,
                    "name": "G#4",
                    "ticks": 6080,
                    "time": 9.8958175,
                    "velocity": 0.49606299212598426
                },
                {
                    "duration": 0.10416649999999983,
                    "durationTicks": 64,
                    "midi": 69,
                    "name": "A4",
                    "ticks": 6144,
                    "time": 9.999984,
                    "velocity": 0.4645669291338583
                },
                {
                    "duration": 0.20833299999999966,
                    "durationTicks": 128,
                    "midi": 50,
                    "name": "D3",
                    "ticks": 6144,
                    "time": 9.999984,
                    "velocity": 0.5196850393700787
                },
                {
                    "duration": 0.20833299999999966,
                    "durationTicks": 128,
                    "midi": 53,
                    "name": "F3",
                    "ticks": 6144,
                    "time": 9.999984,
                    "velocity": 0.5196850393700787
                },
                {
                    "duration": 0.20833299999999966,
                    "durationTicks": 128,
                    "midi": 57,
                    "name": "A3",
                    "ticks": 6144,
                    "time": 9.999984,
                    "velocity": 0.5196850393700787
                },
                {
                    "duration": 0.10416649999999983,
                    "durationTicks": 64,
                    "midi": 68,
                    "name": "G#4",
                    "ticks": 6208,
                    "time": 10.1041505,
                    "velocity": 0.47244094488188976
                },
                {
                    "duration": 0.10416649999999983,
                    "durationTicks": 64,
                    "midi": 67,
                    "name": "G4",
                    "ticks": 6272,
                    "time": 10.208317,
                    "velocity": 0.4251968503937008
                },
                {
                    "duration": 0.10416649999999983,
                    "durationTicks": 64,
                    "midi": 66,
                    "name": "F#4",
                    "ticks": 6336,
                    "time": 10.312483499999999,
                    "velocity": 0.4645669291338583
                },
                {
                    "duration": 0.10416649999999983,
                    "durationTicks": 64,
                    "midi": 67,
                    "name": "G4",
                    "ticks": 6400,
                    "time": 10.416649999999999,
                    "velocity": 0.48031496062992124
                },
                {
                    "duration": 0.20833300000000143,
                    "durationTicks": 128,
                    "midi": 50,
                    "name": "D3",
                    "ticks": 6400,
                    "time": 10.416649999999999,
                    "velocity": 0.49606299212598426
                },
                {
                    "duration": 0.20833300000000143,
                    "durationTicks": 128,
                    "midi": 55,
                    "name": "G3",
                    "ticks": 6400,
                    "time": 10.416649999999999,
                    "velocity": 0.49606299212598426
                },
                {
                    "duration": 0.20833300000000143,
                    "durationTicks": 128,
                    "midi": 58,
                    "name": "A#3",
                    "ticks": 6400,
                    "time": 10.416649999999999,
                    "velocity": 0.49606299212598426
                },
                {
                    "duration": 0.1041665000000016,
                    "durationTicks": 64,
                    "midi": 66,
                    "name": "F#4",
                    "ticks": 6464,
                    "time": 10.520816499999999,
                    "velocity": 0.44881889763779526
                },
                {
                    "duration": 0.10416649999999983,
                    "durationTicks": 64,
                    "midi": 65,
                    "name": "F4",
                    "ticks": 6528,
                    "time": 10.624983,
                    "velocity": 0.4409448818897638
                },
                {
                    "duration": 0.10416649999999983,
                    "durationTicks": 64,
                    "midi": 64,
                    "name": "E4",
                    "ticks": 6592,
                    "time": 10.7291495,
                    "velocity": 0.48031496062992124
                },
                {
                    "duration": 0.10416649999999983,
                    "durationTicks": 64,
                    "midi": 65,
                    "name": "F4",
                    "ticks": 6656,
                    "time": 10.833316,
                    "velocity": 0.4566929133858268
                },
                {
                    "duration": 0.20833299999999966,
                    "durationTicks": 128,
                    "midi": 50,
                    "name": "D3",
                    "ticks": 6656,
                    "time": 10.833316,
                    "velocity": 0.5433070866141733
                },
                {
                    "duration": 0.20833299999999966,
                    "durationTicks": 128,
                    "midi": 53,
                    "name": "F3",
                    "ticks": 6656,
                    "time": 10.833316,
                    "velocity": 0.5433070866141733
                },
                {
                    "duration": 0.20833299999999966,
                    "durationTicks": 128,
                    "midi": 57,
                    "name": "A3",
                    "ticks": 6656,
                    "time": 10.833316,
                    "velocity": 0.5433070866141733
                },
                {
                    "duration": 0.10416649999999983,
                    "durationTicks": 64,
                    "midi": 66,
                    "name": "F#4",
                    "ticks": 6720,
                    "time": 10.9374825,
                    "velocity": 0.5118110236220472
                },
                {
                    "duration": 0.10416649999999983,
                    "durationTicks": 64,
                    "midi": 67,
                    "name": "G4",
                    "ticks": 6784,
                    "time": 11.041649,
                    "velocity": 0.49606299212598426
                },
                {
                    "duration": 0.10416649999999983,
                    "durationTicks": 64,
                    "midi": 68,
                    "name": "G#4",
                    "ticks": 6848,
                    "time": 11.1458155,
                    "velocity": 0.4881889763779528
                },
                {
                    "duration": 0.10416649999999983,
                    "durationTicks": 64,
                    "midi": 69,
                    "name": "A4",
                    "ticks": 6912,
                    "time": 11.249982,
                    "velocity": 0.4881889763779528
                },
                {
                    "duration": 0.20833299999999966,
                    "durationTicks": 128,
                    "midi": 52,
                    "name": "E3",
                    "ticks": 6912,
                    "time": 11.249982,
                    "velocity": 0.5196850393700787
                },
                {
                    "duration": 0.20833299999999966,
                    "durationTicks": 128,
                    "midi": 55,
                    "name": "G3",
                    "ticks": 6912,
                    "time": 11.249982,
                    "velocity": 0.5196850393700787
                },
                {
                    "duration": 0.20833299999999966,
                    "durationTicks": 128,
                    "midi": 57,
                    "name": "A3",
                    "ticks": 6912,
                    "time": 11.249982,
                    "velocity": 0.5196850393700787
                },
                {
                    "duration": 0.20833299999999966,
                    "durationTicks": 128,
                    "midi": 61,
                    "name": "C#4",
                    "ticks": 6912,
                    "time": 11.249982,
                    "velocity": 0.5196850393700787
                },
                {
                    "duration": 0.10416649999999983,
                    "durationTicks": 64,
                    "midi": 71,
                    "name": "B4",
                    "ticks": 6976,
                    "time": 11.354148499999999,
                    "velocity": 0.49606299212598426
                },
                {
                    "duration": 0.10416649999999983,
                    "durationTicks": 64,
                    "midi": 72,
                    "name": "C5",
                    "ticks": 7040,
                    "time": 11.458314999999999,
                    "velocity": 0.5039370078740157
                },
                {
                    "duration": 0.08300767968750122,
                    "durationTicks": 51,
                    "midi": 73,
                    "name": "C#5",
                    "ticks": 7104,
                    "time": 11.562481499999999,
                    "velocity": 0.5039370078740157
                },
                {
                    "duration": 0.1041665000000016,
                    "durationTicks": 64,
                    "midi": 74,
                    "name": "D5",
                    "ticks": 7168,
                    "time": 11.666647999999999,
                    "velocity": 0.5039370078740157
                },
                {
                    "duration": 0.20833300000000143,
                    "durationTicks": 128,
                    "midi": 50,
                    "name": "D3",
                    "ticks": 7168,
                    "time": 11.666647999999999,
                    "velocity": 0.5669291338582677
                },
                {
                    "duration": 0.20833300000000143,
                    "durationTicks": 128,
                    "midi": 54,
                    "name": "F#3",
                    "ticks": 7168,
                    "time": 11.666647999999999,
                    "velocity": 0.5669291338582677
                },
                {
                    "duration": 0.20833300000000143,
                    "durationTicks": 128,
                    "midi": 60,
                    "name": "C4",
                    "ticks": 7168,
                    "time": 11.666647999999999,
                    "velocity": 0.5669291338582677
                },
                {
                    "duration": 0.10416649999999983,
                    "durationTicks": 64,
                    "midi": 73,
                    "name": "C#5",
                    "ticks": 7232,
                    "time": 11.7708145,
                    "velocity": 0.4566929133858268
                },
                {
                    "duration": 0.10416649999999983,
                    "durationTicks": 64,
                    "midi": 72,
                    "name": "C5",
                    "ticks": 7296,
                    "time": 11.874981,
                    "velocity": 0.4645669291338583
                },
                {
                    "duration": 0.10416649999999983,
                    "durationTicks": 64,
                    "midi": 71,
                    "name": "B4",
                    "ticks": 7360,
                    "time": 11.9791475,
                    "velocity": 0.41732283464566927
                },
                {
                    "duration": 0.10416649999999983,
                    "durationTicks": 64,
                    "midi": 70,
                    "name": "A#4",
                    "ticks": 7424,
                    "time": 12.083314,
                    "velocity": 0.4094488188976378
                },
                {
                    "duration": 0.20833299999999966,
                    "durationTicks": 128,
                    "midi": 50,
                    "name": "D3",
                    "ticks": 7424,
                    "time": 12.083314,
                    "velocity": 0.5275590551181102
                },
                {
                    "duration": 0.20833299999999966,
                    "durationTicks": 128,
                    "midi": 55,
                    "name": "G3",
                    "ticks": 7424,
                    "time": 12.083314,
                    "velocity": 0.5275590551181102
                },
                {
                    "duration": 0.20833299999999966,
                    "durationTicks": 128,
                    "midi": 58,
                    "name": "A#3",
                    "ticks": 7424,
                    "time": 12.083314,
                    "velocity": 0.5275590551181102
                },
                {
                    "duration": 0.10416649999999983,
                    "durationTicks": 64,
                    "midi": 75,
                    "name": "D#5",
                    "ticks": 7488,
                    "time": 12.1874805,
                    "velocity": 0.5354330708661418
                },
                {
                    "duration": 0.10416649999999983,
                    "durationTicks": 64,
                    "midi": 74,
                    "name": "D5",
                    "ticks": 7552,
                    "time": 12.291647,
                    "velocity": 0.49606299212598426
                },
                {
                    "duration": 0.10416649999999983,
                    "durationTicks": 64,
                    "midi": 73,
                    "name": "C#5",
                    "ticks": 7616,
                    "time": 12.3958135,
                    "velocity": 0.4566929133858268
                },
                {
                    "duration": 0.10416649999999983,
                    "durationTicks": 64,
                    "midi": 74,
                    "name": "D5",
                    "ticks": 7680,
                    "time": 12.499979999999999,
                    "velocity": 0.5039370078740157
                },
                {
                    "duration": 0.20833299999999966,
                    "durationTicks": 128,
                    "midi": 55,
                    "name": "G3",
                    "ticks": 7680,
                    "time": 12.499979999999999,
                    "velocity": 0.5275590551181102
                },
                {
                    "duration": 0.20833299999999966,
                    "durationTicks": 128,
                    "midi": 58,
                    "name": "A#3",
                    "ticks": 7680,
                    "time": 12.499979999999999,
                    "velocity": 0.5275590551181102
                },
                {
                    "duration": 0.20833299999999966,
                    "durationTicks": 128,
                    "midi": 62,
                    "name": "D4",
                    "ticks": 7680,
                    "time": 12.499979999999999,
                    "velocity": 0.5275590551181102
                },
                {
                    "duration": 0.10416649999999983,
                    "durationTicks": 64,
                    "midi": 73,
                    "name": "C#5",
                    "ticks": 7744,
                    "time": 12.604146499999999,
                    "velocity": 0.44881889763779526
                },
                {
                    "duration": 0.1041665000000016,
                    "durationTicks": 64,
                    "midi": 72,
                    "name": "C5",
                    "ticks": 7808,
                    "time": 12.708312999999999,
                    "velocity": 0.44881889763779526
                },
                {
                    "duration": 0.10416649999999983,
                    "durationTicks": 64,
                    "midi": 71,
                    "name": "B4",
                    "ticks": 7872,
                    "time": 12.8124795,
                    "velocity": 0.4566929133858268
                },
                {
                    "duration": 0.10416649999999983,
                    "durationTicks": 64,
                    "midi": 70,
                    "name": "A#4",
                    "ticks": 7936,
                    "time": 12.916646,
                    "velocity": 0.4251968503937008
                },
                {
                    "duration": 0.20833299999999966,
                    "durationTicks": 128,
                    "midi": 55,
                    "name": "G3",
                    "ticks": 7936,
                    "time": 12.916646,
                    "velocity": 0.5511811023622047
                },
                {
                    "duration": 0.20833299999999966,
                    "durationTicks": 128,
                    "midi": 60,
                    "name": "C4",
                    "ticks": 7936,
                    "time": 12.916646,
                    "velocity": 0.5511811023622047
                },
                {
                    "duration": 0.20833299999999966,
                    "durationTicks": 128,
                    "midi": 64,
                    "name": "E4",
                    "ticks": 7936,
                    "time": 12.916646,
                    "velocity": 0.5511811023622047
                },
                {
                    "duration": 0.10416649999999983,
                    "durationTicks": 64,
                    "midi": 71,
                    "name": "B4",
                    "ticks": 8000,
                    "time": 13.0208125,
                    "velocity": 0.4881889763779528
                },
                {
                    "duration": 0.10416649999999983,
                    "durationTicks": 64,
                    "midi": 72,
                    "name": "C5",
                    "ticks": 8064,
                    "time": 13.124979,
                    "velocity": 0.5118110236220472
                },
                {
                    "duration": 0.08300767968749945,
                    "durationTicks": 51,
                    "midi": 73,
                    "name": "C#5",
                    "ticks": 8128,
                    "time": 13.2291455,
                    "velocity": 0.49606299212598426
                },
                {
                    "duration": 0.10416649999999983,
                    "durationTicks": 64,
                    "midi": 74,
                    "name": "D5",
                    "ticks": 8192,
                    "time": 13.333312,
                    "velocity": 0.5039370078740157
                },
                {
                    "duration": 0.20833299999999966,
                    "durationTicks": 128,
                    "midi": 55,
                    "name": "G3",
                    "ticks": 8192,
                    "time": 13.333312,
                    "velocity": 0.5511811023622047
                },
                {
                    "duration": 0.20833299999999966,
                    "durationTicks": 128,
                    "midi": 58,
                    "name": "A#3",
                    "ticks": 8192,
                    "time": 13.333312,
                    "velocity": 0.5511811023622047
                },
                {
                    "duration": 0.20833299999999966,
                    "durationTicks": 128,
                    "midi": 62,
                    "name": "D4",
                    "ticks": 8192,
                    "time": 13.333312,
                    "velocity": 0.5511811023622047
                },
                {
                    "duration": 0.10416649999999983,
                    "durationTicks": 64,
                    "midi": 73,
                    "name": "C#5",
                    "ticks": 8256,
                    "time": 13.4374785,
                    "velocity": 0.47244094488188976
                },
                {
                    "duration": 0.10416649999999983,
                    "durationTicks": 64,
                    "midi": 72,
                    "name": "C5",
                    "ticks": 8320,
                    "time": 13.541644999999999,
                    "velocity": 0.4251968503937008
                },
                {
                    "duration": 0.10416649999999983,
                    "durationTicks": 64,
                    "midi": 71,
                    "name": "B4",
                    "ticks": 8384,
                    "time": 13.645811499999999,
                    "velocity": 0.4566929133858268
                },
                {
                    "duration": 0.10416649999999983,
                    "durationTicks": 64,
                    "midi": 70,
                    "name": "A#4",
                    "ticks": 8448,
                    "time": 13.749977999999999,
                    "velocity": 0.44881889763779526
                },
                {
                    "duration": 0.1041665000000016,
                    "durationTicks": 64,
                    "midi": 75,
                    "name": "D#5",
                    "ticks": 8512,
                    "time": 13.854144499999999,
                    "velocity": 0.5354330708661418
                },
                {
                    "duration": 0.10416649999999983,
                    "durationTicks": 64,
                    "midi": 74,
                    "name": "D5",
                    "ticks": 8576,
                    "time": 13.958311,
                    "velocity": 0.44881889763779526
                },
                {
                    "duration": 0.10416649999999983,
                    "durationTicks": 64,
                    "midi": 73,
                    "name": "C#5",
                    "ticks": 8640,
                    "time": 14.0624775,
                    "velocity": 0.4409448818897638
                },
                {
                    "duration": 0.10416649999999983,
                    "durationTicks": 64,
                    "midi": 74,
                    "name": "D5",
                    "ticks": 8704,
                    "time": 14.166644,
                    "velocity": 0.5039370078740157
                },
                {
                    "duration": 0.20833299999999966,
                    "durationTicks": 128,
                    "midi": 55,
                    "name": "G3",
                    "ticks": 8704,
                    "time": 14.166644,
                    "velocity": 0.5511811023622047
                },
                {
                    "duration": 0.20833299999999966,
                    "durationTicks": 128,
                    "midi": 58,
                    "name": "A#3",
                    "ticks": 8704,
                    "time": 14.166644,
                    "velocity": 0.5511811023622047
                },
                {
                    "duration": 0.20833299999999966,
                    "durationTicks": 128,
                    "midi": 62,
                    "name": "D4",
                    "ticks": 8704,
                    "time": 14.166644,
                    "velocity": 0.5511811023622047
                },
                {
                    "duration": 0.10416649999999983,
                    "durationTicks": 64,
                    "midi": 73,
                    "name": "C#5",
                    "ticks": 8768,
                    "time": 14.2708105,
                    "velocity": 0.47244094488188976
                },
                {
                    "duration": 0.10416649999999983,
                    "durationTicks": 64,
                    "midi": 72,
                    "name": "C5",
                    "ticks": 8832,
                    "time": 14.374977,
                    "velocity": 0.44881889763779526
                },
                {
                    "duration": 0.10416649999999983,
                    "durationTicks": 64,
                    "midi": 71,
                    "name": "B4",
                    "ticks": 8896,
                    "time": 14.4791435,
                    "velocity": 0.4881889763779528
                },
                {
                    "duration": 0.10416649999999983,
                    "durationTicks": 64,
                    "midi": 70,
                    "name": "A#4",
                    "ticks": 8960,
                    "time": 14.583309999999999,
                    "velocity": 0.44881889763779526
                },
                {
                    "duration": 0.20833299999999966,
                    "durationTicks": 128,
                    "midi": 55,
                    "name": "G3",
                    "ticks": 8960,
                    "time": 14.583309999999999,
                    "velocity": 0.5275590551181102
                },
                {
                    "duration": 0.20833299999999966,
                    "durationTicks": 128,
                    "midi": 60,
                    "name": "C4",
                    "ticks": 8960,
                    "time": 14.583309999999999,
                    "velocity": 0.5275590551181102
                },
                {
                    "duration": 0.20833299999999966,
                    "durationTicks": 128,
                    "midi": 64,
                    "name": "E4",
                    "ticks": 8960,
                    "time": 14.583309999999999,
                    "velocity": 0.5275590551181102
                },
                {
                    "duration": 0.10416649999999983,
                    "durationTicks": 64,
                    "midi": 71,
                    "name": "B4",
                    "ticks": 9024,
                    "time": 14.687476499999999,
                    "velocity": 0.4881889763779528
                },
                {
                    "duration": 0.10416649999999983,
                    "durationTicks": 64,
                    "midi": 72,
                    "name": "C5",
                    "ticks": 9088,
                    "time": 14.791642999999999,
                    "velocity": 0.5196850393700787
                },
                {
                    "duration": 0.08300767968750122,
                    "durationTicks": 51,
                    "midi": 73,
                    "name": "C#5",
                    "ticks": 9152,
                    "time": 14.895809499999999,
                    "velocity": 0.5118110236220472
                },
                {
                    "duration": 0.10416649999999983,
                    "durationTicks": 64,
                    "midi": 74,
                    "name": "D5",
                    "ticks": 9216,
                    "time": 14.999976,
                    "velocity": 0.48031496062992124
                },
                {
                    "duration": 0.20833299999999966,
                    "durationTicks": 128,
                    "midi": 55,
                    "name": "G3",
                    "ticks": 9216,
                    "time": 14.999976,
                    "velocity": 0.5354330708661418
                },
                {
                    "duration": 0.20833299999999966,
                    "durationTicks": 128,
                    "midi": 58,
                    "name": "A#3",
                    "ticks": 9216,
                    "time": 14.999976,
                    "velocity": 0.5354330708661418
                },
                {
                    "duration": 0.20833299999999966,
                    "durationTicks": 128,
                    "midi": 62,
                    "name": "D4",
                    "ticks": 9216,
                    "time": 14.999976,
                    "velocity": 0.5354330708661418
                },
                {
                    "duration": 0.10416649999999983,
                    "durationTicks": 64,
                    "midi": 73,
                    "name": "C#5",
                    "ticks": 9280,
                    "time": 15.1041425,
                    "velocity": 0.4645669291338583
                },
                {
                    "duration": 0.10416649999999983,
                    "durationTicks": 64,
                    "midi": 72,
                    "name": "C5",
                    "ticks": 9344,
                    "time": 15.208309,
                    "velocity": 0.5039370078740157
                },
                {
                    "duration": 0.10416649999999983,
                    "durationTicks": 64,
                    "midi": 71,
                    "name": "B4",
                    "ticks": 9408,
                    "time": 15.3124755,
                    "velocity": 0.44881889763779526
                },
                {
                    "duration": 0.10416649999999983,
                    "durationTicks": 64,
                    "midi": 72,
                    "name": "C5",
                    "ticks": 9472,
                    "time": 15.416642,
                    "velocity": 0.5196850393700787
                },
                {
                    "duration": 0.20833299999999966,
                    "durationTicks": 128,
                    "midi": 55,
                    "name": "G3",
                    "ticks": 9472,
                    "time": 15.416642,
                    "velocity": 0.5511811023622047
                },
                {
                    "duration": 0.20833299999999966,
                    "durationTicks": 128,
                    "midi": 60,
                    "name": "C4",
                    "ticks": 9472,
                    "time": 15.416642,
                    "velocity": 0.5511811023622047
                },
                {
                    "duration": 0.20833299999999966,
                    "durationTicks": 128,
                    "midi": 63,
                    "name": "D#4",
                    "ticks": 9472,
                    "time": 15.416642,
                    "velocity": 0.5511811023622047
                },
                {
                    "duration": 0.10416649999999983,
                    "durationTicks": 64,
                    "midi": 71,
                    "name": "B4",
                    "ticks": 9536,
                    "time": 15.5208085,
                    "velocity": 0.47244094488188976
                },
                {
                    "duration": 0.10416649999999983,
                    "durationTicks": 64,
                    "midi": 70,
                    "name": "A#4",
                    "ticks": 9600,
                    "time": 15.624975,
                    "velocity": 0.4409448818897638
                },
                {
                    "duration": 0.10416649999999983,
                    "durationTicks": 64,
                    "midi": 69,
                    "name": "A4",
                    "ticks": 9664,
                    "time": 15.729141499999999,
                    "velocity": 0.4409448818897638
                },
                {
                    "duration": 0.10416649999999983,
                    "durationTicks": 64,
                    "midi": 70,
                    "name": "A#4",
                    "ticks": 9728,
                    "time": 15.833307999999999,
                    "velocity": 0.48031496062992124
                },
                {
                    "duration": 0.20833299999999966,
                    "durationTicks": 128,
                    "midi": 55,
                    "name": "G3",
                    "ticks": 9728,
                    "time": 15.833307999999999,
                    "velocity": 0.3858267716535433
                },
                {
                    "duration": 0.20833299999999966,
                    "durationTicks": 128,
                    "midi": 58,
                    "name": "A#3",
                    "ticks": 9728,
                    "time": 15.833307999999999,
                    "velocity": 0.3858267716535433
                },
                {
                    "duration": 0.20833299999999966,
                    "durationTicks": 128,
                    "midi": 62,
                    "name": "D4",
                    "ticks": 9728,
                    "time": 15.833307999999999,
                    "velocity": 0.3858267716535433
                },
                {
                    "duration": 0.10416649999999983,
                    "durationTicks": 64,
                    "midi": 71,
                    "name": "B4",
                    "ticks": 9792,
                    "time": 15.937474499999999,
                    "velocity": 0.4881889763779528
                },
                {
                    "duration": 0.1041665000000016,
                    "durationTicks": 64,
                    "midi": 72,
                    "name": "C5",
                    "ticks": 9856,
                    "time": 16.041641,
                    "velocity": 0.5039370078740157
                },
                {
                    "duration": 0.10416649999999805,
                    "durationTicks": 64,
                    "midi": 73,
                    "name": "C#5",
                    "ticks": 9920,
                    "time": 16.1458075,
                    "velocity": 0.5039370078740157
                },
                {
                    "duration": 0.1041665000000016,
                    "durationTicks": 64,
                    "midi": 74,
                    "name": "D5",
                    "ticks": 9984,
                    "time": 16.249973999999998,
                    "velocity": 0.4409448818897638
                },
                {
                    "duration": 0.20833299999999966,
                    "durationTicks": 128,
                    "midi": 57,
                    "name": "A3",
                    "ticks": 9984,
                    "time": 16.249973999999998,
                    "velocity": 0.4409448818897638
                },
                {
                    "duration": 0.20833299999999966,
                    "durationTicks": 128,
                    "midi": 60,
                    "name": "C4",
                    "ticks": 9984,
                    "time": 16.249973999999998,
                    "velocity": 0.4409448818897638
                },
                {
                    "duration": 0.20833299999999966,
                    "durationTicks": 128,
                    "midi": 62,
                    "name": "D4",
                    "ticks": 9984,
                    "time": 16.249973999999998,
                    "velocity": 0.4409448818897638
                },
                {
                    "duration": 0.10416649999999805,
                    "durationTicks": 64,
                    "midi": 75,
                    "name": "D#5",
                    "ticks": 10048,
                    "time": 16.3541405,
                    "velocity": 0.5118110236220472
                },
                {
                    "duration": 0.1041665000000016,
                    "durationTicks": 64,
                    "midi": 74,
                    "name": "D5",
                    "ticks": 10112,
                    "time": 16.458306999999998,
                    "velocity": 0.4566929133858268
                },
                {
                    "duration": 0.08300767968750122,
                    "durationTicks": 51,
                    "midi": 73,
                    "name": "C#5",
                    "ticks": 10176,
                    "time": 16.5624735,
                    "velocity": 0.41732283464566927
                },
                {
                    "duration": 0.10416649999999805,
                    "durationTicks": 64,
                    "midi": 74,
                    "name": "D5",
                    "ticks": 10240,
                    "time": 16.66664,
                    "velocity": 0.5039370078740157
                },
                {
                    "duration": 0.20833299999999966,
                    "durationTicks": 128,
                    "midi": 55,
                    "name": "G3",
                    "ticks": 10240,
                    "time": 16.66664,
                    "velocity": 0.41732283464566927
                },
                {
                    "duration": 0.20833299999999966,
                    "durationTicks": 128,
                    "midi": 58,
                    "name": "A#3",
                    "ticks": 10240,
                    "time": 16.66664,
                    "velocity": 0.41732283464566927
                },
                {
                    "duration": 0.20833299999999966,
                    "durationTicks": 128,
                    "midi": 62,
                    "name": "D4",
                    "ticks": 10240,
                    "time": 16.66664,
                    "velocity": 0.41732283464566927
                },
                {
                    "duration": 0.1041665000000016,
                    "durationTicks": 64,
                    "midi": 73,
                    "name": "C#5",
                    "ticks": 10304,
                    "time": 16.7708065,
                    "velocity": 0.4566929133858268
                },
                {
                    "duration": 0.10416649999999805,
                    "durationTicks": 64,
                    "midi": 72,
                    "name": "C5",
                    "ticks": 10368,
                    "time": 16.874973,
                    "velocity": 0.4251968503937008
                },
                {
                    "duration": 0.1041665000000016,
                    "durationTicks": 64,
                    "midi": 71,
                    "name": "B4",
                    "ticks": 10432,
                    "time": 16.9791395,
                    "velocity": 0.44881889763779526
                },
                {
                    "duration": 0.10416649999999805,
                    "durationTicks": 64,
                    "midi": 72,
                    "name": "C5",
                    "ticks": 10496,
                    "time": 17.083306,
                    "velocity": 0.5354330708661418
                },
                {
                    "duration": 0.20833299999999966,
                    "durationTicks": 128,
                    "midi": 55,
                    "name": "G3",
                    "ticks": 10496,
                    "time": 17.083306,
                    "velocity": 0.3779527559055118
                },
                {
                    "duration": 0.20833299999999966,
                    "durationTicks": 128,
                    "midi": 60,
                    "name": "C4",
                    "ticks": 10496,
                    "time": 17.083306,
                    "velocity": 0.3779527559055118
                },
                {
                    "duration": 0.20833299999999966,
                    "durationTicks": 128,
                    "midi": 63,
                    "name": "D#4",
                    "ticks": 10496,
                    "time": 17.083306,
                    "velocity": 0.3779527559055118
                },
                {
                    "duration": 0.1041665000000016,
                    "durationTicks": 64,
                    "midi": 71,
                    "name": "B4",
                    "ticks": 10560,
                    "time": 17.1874725,
                    "velocity": 0.4409448818897638
                },
                {
                    "duration": 0.10416649999999805,
                    "durationTicks": 64,
                    "midi": 70,
                    "name": "A#4",
                    "ticks": 10624,
                    "time": 17.291639,
                    "velocity": 0.4566929133858268
                },
                {
                    "duration": 0.1041665000000016,
                    "durationTicks": 64,
                    "midi": 69,
                    "name": "A4",
                    "ticks": 10688,
                    "time": 17.395805499999998,
                    "velocity": 0.47244094488188976
                },
                {
                    "duration": 0.10416649999999805,
                    "durationTicks": 64,
                    "midi": 70,
                    "name": "A#4",
                    "ticks": 10752,
                    "time": 17.499972,
                    "velocity": 0.49606299212598426
                },
                {
                    "duration": 0.20833299999999966,
                    "durationTicks": 128,
                    "midi": 55,
                    "name": "G3",
                    "ticks": 10752,
                    "time": 17.499972,
                    "velocity": 0.4566929133858268
                },
                {
                    "duration": 0.20833299999999966,
                    "durationTicks": 128,
                    "midi": 58,
                    "name": "A#3",
                    "ticks": 10752,
                    "time": 17.499972,
                    "velocity": 0.4566929133858268
                },
                {
                    "duration": 0.20833299999999966,
                    "durationTicks": 128,
                    "midi": 62,
                    "name": "D4",
                    "ticks": 10752,
                    "time": 17.499972,
                    "velocity": 0.4566929133858268
                },
                {
                    "duration": 0.1041665000000016,
                    "durationTicks": 64,
                    "midi": 71,
                    "name": "B4",
                    "ticks": 10816,
                    "time": 17.604138499999998,
                    "velocity": 0.4645669291338583
                },
                {
                    "duration": 0.1041665000000016,
                    "durationTicks": 64,
                    "midi": 72,
                    "name": "C5",
                    "ticks": 10880,
                    "time": 17.708305,
                    "velocity": 0.5196850393700787
                },
                {
                    "duration": 0.10416649999999805,
                    "durationTicks": 64,
                    "midi": 73,
                    "name": "C#5",
                    "ticks": 10944,
                    "time": 17.8124715,
                    "velocity": 0.49606299212598426
                },
                {
                    "duration": 0.1041665000000016,
                    "durationTicks": 64,
                    "midi": 74,
                    "name": "D5",
                    "ticks": 11008,
                    "time": 17.916638,
                    "velocity": 0.5118110236220472
                },
                {
                    "duration": 0.20833299999999966,
                    "durationTicks": 128,
                    "midi": 54,
                    "name": "F#3",
                    "ticks": 11008,
                    "time": 17.916638,
                    "velocity": 0.3858267716535433
                },
                {
                    "duration": 0.20833299999999966,
                    "durationTicks": 128,
                    "midi": 60,
                    "name": "C4",
                    "ticks": 11008,
                    "time": 17.916638,
                    "velocity": 0.3858267716535433
                },
                {
                    "duration": 0.20833299999999966,
                    "durationTicks": 128,
                    "midi": 62,
                    "name": "D4",
                    "ticks": 11008,
                    "time": 17.916638,
                    "velocity": 0.3858267716535433
                },
                {
                    "duration": 0.10416649999999805,
                    "durationTicks": 64,
                    "midi": 75,
                    "name": "D#5",
                    "ticks": 11072,
                    "time": 18.0208045,
                    "velocity": 0.5039370078740157
                },
                {
                    "duration": 0.1041665000000016,
                    "durationTicks": 64,
                    "midi": 74,
                    "name": "D5",
                    "ticks": 11136,
                    "time": 18.124971,
                    "velocity": 0.4409448818897638
                },
                {
                    "duration": 0.08300767968749767,
                    "durationTicks": 51,
                    "midi": 73,
                    "name": "C#5",
                    "ticks": 11200,
                    "time": 18.2291375,
                    "velocity": 0.4645669291338583
                },
                {
                    "duration": 0.1041665000000016,
                    "durationTicks": 64,
                    "midi": 74,
                    "name": "D5",
                    "ticks": 11264,
                    "time": 18.333304,
                    "velocity": 0.6614173228346457
                },
                {
                    "duration": 0.1025388984375013,
                    "durationTicks": 63,
                    "midi": 55,
                    "name": "G3",
                    "ticks": 11264,
                    "time": 18.333304,
                    "velocity": 0.41732283464566927
                },
                {
                    "duration": 0.1025388984375013,
                    "durationTicks": 63,
                    "midi": 58,
                    "name": "A#3",
                    "ticks": 11264,
                    "time": 18.333304,
                    "velocity": 0.41732283464566927
                },
                {
                    "duration": 0.08300767968749767,
                    "durationTicks": 51,
                    "midi": 62,
                    "name": "D4",
                    "ticks": 11328,
                    "time": 18.4374705,
                    "velocity": 0.3543307086614173
                },
                {
                    "duration": 0.050455648437502276,
                    "durationTicks": 31,
                    "midi": 62,
                    "name": "D4",
                    "ticks": 11392,
                    "time": 18.541636999999998,
                    "velocity": 0.4566929133858268
                },
                {
                    "duration": 0.050455648437498724,
                    "durationTicks": 31,
                    "midi": 62,
                    "name": "D4",
                    "ticks": 11456,
                    "time": 18.6458035,
                    "velocity": 0.48031496062992124
                },
                {
                    "duration": 0.050455648437502276,
                    "durationTicks": 31,
                    "midi": 62,
                    "name": "D4",
                    "ticks": 11520,
                    "time": 18.749969999999998,
                    "velocity": 0.49606299212598426
                },
                {
                    "duration": 0.050455648437498724,
                    "durationTicks": 31,
                    "midi": 62,
                    "name": "D4",
                    "ticks": 11584,
                    "time": 18.8541365,
                    "velocity": 0.47244094488188976
                },
                {
                    "duration": 0.050455648437498724,
                    "durationTicks": 31,
                    "midi": 62,
                    "name": "D4",
                    "ticks": 11648,
                    "time": 18.958303,
                    "velocity": 0.48031496062992124
                },
                {
                    "duration": 0.050455648437498724,
                    "durationTicks": 31,
                    "midi": 62,
                    "name": "D4",
                    "ticks": 11712,
                    "time": 19.0624695,
                    "velocity": 0.49606299212598426
                },
                {
                    "duration": 0.10416649999999805,
                    "durationTicks": 64,
                    "midi": 61,
                    "name": "C#4",
                    "ticks": 11776,
                    "time": 19.166636,
                    "velocity": 0.4015748031496063
                },
                {
                    "duration": 0.10416649999999805,
                    "durationTicks": 64,
                    "midi": 63,
                    "name": "D#4",
                    "ticks": 11776,
                    "time": 19.166636,
                    "velocity": 0.4015748031496063
                },
                {
                    "duration": 0.1041665000000016,
                    "durationTicks": 64,
                    "midi": 62,
                    "name": "D4",
                    "ticks": 11840,
                    "time": 19.2708025,
                    "velocity": 0.44881889763779526
                },
                {
                    "duration": 0.10416649999999805,
                    "durationTicks": 64,
                    "midi": 61,
                    "name": "C#4",
                    "ticks": 11904,
                    "time": 19.374969,
                    "velocity": 0.5118110236220472
                },
                {
                    "duration": 0.10416649999999805,
                    "durationTicks": 64,
                    "midi": 63,
                    "name": "D#4",
                    "ticks": 11904,
                    "time": 19.374969,
                    "velocity": 0.5118110236220472
                },
                {
                    "duration": 0.1041665000000016,
                    "durationTicks": 64,
                    "midi": 75,
                    "name": "D#5",
                    "ticks": 11968,
                    "time": 19.479135499999998,
                    "velocity": 0.6299212598425197
                },
                {
                    "duration": 0.10416649999999805,
                    "durationTicks": 64,
                    "midi": 61,
                    "name": "C#4",
                    "ticks": 12032,
                    "time": 19.583302,
                    "velocity": 0.36220472440944884
                },
                {
                    "duration": 0.10416649999999805,
                    "durationTicks": 64,
                    "midi": 63,
                    "name": "D#4",
                    "ticks": 12032,
                    "time": 19.583302,
                    "velocity": 0.36220472440944884
                },
                {
                    "duration": 0.1041665000000016,
                    "durationTicks": 64,
                    "midi": 62,
                    "name": "D4",
                    "ticks": 12096,
                    "time": 19.687468499999998,
                    "velocity": 0.4251968503937008
                },
                {
                    "duration": 0.10416649999999805,
                    "durationTicks": 64,
                    "midi": 61,
                    "name": "C#4",
                    "ticks": 12160,
                    "time": 19.791635,
                    "velocity": 0.5039370078740157
                },
                {
                    "duration": 0.10416649999999805,
                    "durationTicks": 64,
                    "midi": 63,
                    "name": "D#4",
                    "ticks": 12160,
                    "time": 19.791635,
                    "velocity": 0.5039370078740157
                },
                {
                    "duration": 0.1041665000000016,
                    "durationTicks": 64,
                    "midi": 75,
                    "name": "D#5",
                    "ticks": 12224,
                    "time": 19.895801499999997,
                    "velocity": 0.5826771653543307
                },
                {
                    "duration": 0.050455648437498724,
                    "durationTicks": 31,
                    "midi": 74,
                    "name": "D5",
                    "ticks": 12288,
                    "time": 19.999968,
                    "velocity": 0.41732283464566927
                },
                {
                    "duration": 0.1041665000000016,
                    "durationTicks": 64,
                    "midi": 62,
                    "name": "D4",
                    "ticks": 12288,
                    "time": 19.999968,
                    "velocity": 0.3543307086614173
                },
                {
                    "duration": 0.050455648437498724,
                    "durationTicks": 31,
                    "midi": 74,
                    "name": "D5",
                    "ticks": 12352,
                    "time": 20.1041345,
                    "velocity": 0.4566929133858268
                },
                {
                    "duration": 0.050455648437498724,
                    "durationTicks": 31,
                    "midi": 74,
                    "name": "D5",
                    "ticks": 12416,
                    "time": 20.208301,
                    "velocity": 0.4881889763779528
                },
                {
                    "duration": 0.050455648437498724,
                    "durationTicks": 31,
                    "midi": 74,
                    "name": "D5",
                    "ticks": 12480,
                    "time": 20.3124675,
                    "velocity": 0.47244094488188976
                },
                {
                    "duration": 0.050455648437502276,
                    "durationTicks": 31,
                    "midi": 74,
                    "name": "D5",
                    "ticks": 12544,
                    "time": 20.416634,
                    "velocity": 0.5039370078740157
                },
                {
                    "duration": 0.050455648437498724,
                    "durationTicks": 31,
                    "midi": 74,
                    "name": "D5",
                    "ticks": 12608,
                    "time": 20.5208005,
                    "velocity": 0.4566929133858268
                },
                {
                    "duration": 0.050455648437502276,
                    "durationTicks": 31,
                    "midi": 74,
                    "name": "D5",
                    "ticks": 12672,
                    "time": 20.624966999999998,
                    "velocity": 0.48031496062992124
                },
                {
                    "duration": 0.050455648437498724,
                    "durationTicks": 31,
                    "midi": 74,
                    "name": "D5",
                    "ticks": 12736,
                    "time": 20.7291335,
                    "velocity": 0.5039370078740157
                },
                {
                    "duration": 0.050455648437502276,
                    "durationTicks": 31,
                    "midi": 73,
                    "name": "C#5",
                    "ticks": 12800,
                    "time": 20.833299999999998,
                    "velocity": 0.4645669291338583
                },
                {
                    "duration": 0.050455648437502276,
                    "durationTicks": 31,
                    "midi": 75,
                    "name": "D#5",
                    "ticks": 12800,
                    "time": 20.833299999999998,
                    "velocity": 0.4645669291338583
                },
                {
                    "duration": 0.050455648437498724,
                    "durationTicks": 31,
                    "midi": 74,
                    "name": "D5",
                    "ticks": 12864,
                    "time": 20.9374665,
                    "velocity": 0.47244094488188976
                },
                {
                    "duration": 0.050455648437502276,
                    "durationTicks": 31,
                    "midi": 73,
                    "name": "C#5",
                    "ticks": 12928,
                    "time": 21.041632999999997,
                    "velocity": 0.5118110236220472
                },
                {
                    "duration": 0.050455648437502276,
                    "durationTicks": 31,
                    "midi": 75,
                    "name": "D#5",
                    "ticks": 12928,
                    "time": 21.041632999999997,
                    "velocity": 0.5118110236220472
                },
                {
                    "duration": 0.050455648437498724,
                    "durationTicks": 31,
                    "midi": 87,
                    "name": "D#6",
                    "ticks": 12992,
                    "time": 21.1457995,
                    "velocity": 0.6062992125984252
                },
                {
                    "duration": 0.050455648437498724,
                    "durationTicks": 31,
                    "midi": 73,
                    "name": "C#5",
                    "ticks": 13056,
                    "time": 21.249966,
                    "velocity": 0.36220472440944884
                },
                {
                    "duration": 0.050455648437498724,
                    "durationTicks": 31,
                    "midi": 75,
                    "name": "D#5",
                    "ticks": 13056,
                    "time": 21.249966,
                    "velocity": 0.36220472440944884
                },
                {
                    "duration": 0.050455648437498724,
                    "durationTicks": 31,
                    "midi": 74,
                    "name": "D5",
                    "ticks": 13120,
                    "time": 21.3541325,
                    "velocity": 0.4409448818897638
                },
                {
                    "duration": 0.050455648437498724,
                    "durationTicks": 31,
                    "midi": 73,
                    "name": "C#5",
                    "ticks": 13184,
                    "time": 21.458299,
                    "velocity": 0.44881889763779526
                },
                {
                    "duration": 0.050455648437498724,
                    "durationTicks": 31,
                    "midi": 75,
                    "name": "D#5",
                    "ticks": 13184,
                    "time": 21.458299,
                    "velocity": 0.44881889763779526
                },
                {
                    "duration": 0.1041665000000016,
                    "durationTicks": 64,
                    "midi": 87,
                    "name": "D#6",
                    "ticks": 13248,
                    "time": 21.5624655,
                    "velocity": 0.6141732283464567
                },
                {
                    "duration": 0.10416649999999805,
                    "durationTicks": 64,
                    "midi": 86,
                    "name": "D6",
                    "ticks": 13312,
                    "time": 21.666632,
                    "velocity": 0.4645669291338583
                },
                {
                    "duration": 0.10416649999999805,
                    "durationTicks": 64,
                    "midi": 74,
                    "name": "D5",
                    "ticks": 13312,
                    "time": 21.666632,
                    "velocity": 0.4330708661417323
                },
                {
                    "duration": 0.1041665000000016,
                    "durationTicks": 64,
                    "midi": 75,
                    "name": "D#5",
                    "ticks": 13376,
                    "time": 21.770798499999998,
                    "velocity": 0.3858267716535433
                },
                {
                    "duration": 0.10416649999999805,
                    "durationTicks": 64,
                    "midi": 74,
                    "name": "D5",
                    "ticks": 13440,
                    "time": 21.874965,
                    "velocity": 0.4251968503937008
                },
                {
                    "duration": 0.1041665000000016,
                    "durationTicks": 64,
                    "midi": 73,
                    "name": "C#5",
                    "ticks": 13504,
                    "time": 21.979131499999998,
                    "velocity": 0.4330708661417323
                },
                {
                    "duration": 0.10416649999999805,
                    "durationTicks": 64,
                    "midi": 74,
                    "name": "D5",
                    "ticks": 13568,
                    "time": 22.083298,
                    "velocity": 0.5354330708661418
                },
                {
                    "duration": 0.1041665000000016,
                    "durationTicks": 64,
                    "midi": 75,
                    "name": "D#5",
                    "ticks": 13632,
                    "time": 22.187464499999997,
                    "velocity": 0.49606299212598426
                },
                {
                    "duration": 0.1041665000000016,
                    "durationTicks": 64,
                    "midi": 74,
                    "name": "D5",
                    "ticks": 13696,
                    "time": 22.291631,
                    "velocity": 0.4645669291338583
                },
                {
                    "duration": 0.10416649999999805,
                    "durationTicks": 64,
                    "midi": 73,
                    "name": "C#5",
                    "ticks": 13760,
                    "time": 22.3957975,
                    "velocity": 0.4566929133858268
                },
                {
                    "duration": 0.1041665000000016,
                    "durationTicks": 64,
                    "midi": 74,
                    "name": "D5",
                    "ticks": 13824,
                    "time": 22.499964,
                    "velocity": 0.4881889763779528
                },
                {
                    "duration": 0.1025388984375013,
                    "durationTicks": 63,
                    "midi": 62,
                    "name": "D4",
                    "ticks": 13824,
                    "time": 22.499964,
                    "velocity": 0.4330708661417323
                },
                {
                    "duration": 0.10416649999999805,
                    "durationTicks": 64,
                    "midi": 75,
                    "name": "D#5",
                    "ticks": 13888,
                    "time": 22.6041305,
                    "velocity": 0.5590551181102362
                },
                {
                    "duration": 0.1041665000000016,
                    "durationTicks": 64,
                    "midi": 74,
                    "name": "D5",
                    "ticks": 13952,
                    "time": 22.708296999999998,
                    "velocity": 0.5196850393700787
                },
                {
                    "duration": 0.1025388984375013,
                    "durationTicks": 63,
                    "midi": 61,
                    "name": "C#4",
                    "ticks": 13952,
                    "time": 22.708296999999998,
                    "velocity": 0.5748031496062992
                },
                {
                    "duration": 0.1025388984375013,
                    "durationTicks": 63,
                    "midi": 63,
                    "name": "D#4",
                    "ticks": 13952,
                    "time": 22.708296999999998,
                    "velocity": 0.5748031496062992
                },
                {
                    "duration": 0.10416649999999805,
                    "durationTicks": 64,
                    "midi": 73,
                    "name": "C#5",
                    "ticks": 14016,
                    "time": 22.8124635,
                    "velocity": 0.5748031496062992
                },
                {
                    "duration": 0.1041665000000016,
                    "durationTicks": 64,
                    "midi": 74,
                    "name": "D5",
                    "ticks": 14080,
                    "time": 22.916629999999998,
                    "velocity": 0.6377952755905512
                },
                {
                    "duration": 0.1025388984375013,
                    "durationTicks": 63,
                    "midi": 60,
                    "name": "C4",
                    "ticks": 14080,
                    "time": 22.916629999999998,
                    "velocity": 0.6456692913385826
                },
                {
                    "duration": 0.1025388984375013,
                    "durationTicks": 63,
                    "midi": 64,
                    "name": "E4",
                    "ticks": 14080,
                    "time": 22.916629999999998,
                    "velocity": 0.6456692913385826
                },
                {
                    "duration": 0.10416649999999805,
                    "durationTicks": 64,
                    "midi": 75,
                    "name": "D#5",
                    "ticks": 14144,
                    "time": 23.0207965,
                    "velocity": 0.6771653543307087
                },
                {
                    "duration": 0.1041665000000016,
                    "durationTicks": 64,
                    "midi": 74,
                    "name": "D5",
                    "ticks": 14208,
                    "time": 23.124962999999997,
                    "velocity": 0.7086614173228346
                },
                {
                    "duration": 0.1025388984375013,
                    "durationTicks": 63,
                    "midi": 59,
                    "name": "B3",
                    "ticks": 14208,
                    "time": 23.124962999999997,
                    "velocity": 0.7165354330708661
                },
                {
                    "duration": 0.1025388984375013,
                    "durationTicks": 63,
                    "midi": 65,
                    "name": "F4",
                    "ticks": 14208,
                    "time": 23.124962999999997,
                    "velocity": 0.7165354330708661
                },
                {
                    "duration": 0.08300767968750122,
                    "durationTicks": 51,
                    "midi": 73,
                    "name": "C#5",
                    "ticks": 14272,
                    "time": 23.2291295,
                    "velocity": 0.7244094488188977
                },
                {
                    "duration": 0.1041665000000016,
                    "durationTicks": 64,
                    "midi": 74,
                    "name": "D5",
                    "ticks": 14336,
                    "time": 23.333295999999997,
                    "velocity": 0.6692913385826772
                },
                {
                    "duration": 0.1041665000000016,
                    "durationTicks": 64,
                    "midi": 66,
                    "name": "F#4",
                    "ticks": 14336,
                    "time": 23.333295999999997,
                    "velocity": 0.7165354330708661
                },
                {
                    "duration": 1.6666640000000008,
                    "durationTicks": 1024,
                    "midi": 58,
                    "name": "A#3",
                    "ticks": 14336,
                    "time": 23.333295999999997,
                    "velocity": 0.6929133858267716
                },
                {
                    "duration": 0.1041665000000016,
                    "durationTicks": 64,
                    "midi": 75,
                    "name": "D#5",
                    "ticks": 14400,
                    "time": 23.4374625,
                    "velocity": 0.6692913385826772
                },
                {
                    "duration": 0.1041665000000016,
                    "durationTicks": 64,
                    "midi": 62,
                    "name": "D4",
                    "ticks": 14400,
                    "time": 23.4374625,
                    "velocity": 0.5905511811023622
                },
                {
                    "duration": 0.10416649999999805,
                    "durationTicks": 64,
                    "midi": 76,
                    "name": "E5",
                    "ticks": 14464,
                    "time": 23.541629,
                    "velocity": 0.7165354330708661
                },
                {
                    "duration": 0.10416649999999805,
                    "durationTicks": 64,
                    "midi": 66,
                    "name": "F#4",
                    "ticks": 14464,
                    "time": 23.541629,
                    "velocity": 0.7322834645669292
                },
                {
                    "duration": 0.1041665000000016,
                    "durationTicks": 64,
                    "midi": 77,
                    "name": "F5",
                    "ticks": 14528,
                    "time": 23.6457955,
                    "velocity": 0.7874015748031497
                },
                {
                    "duration": 0.1041665000000016,
                    "durationTicks": 64,
                    "midi": 62,
                    "name": "D4",
                    "ticks": 14528,
                    "time": 23.6457955,
                    "velocity": 0.7086614173228346
                },
                {
                    "duration": 0.10416649999999805,
                    "durationTicks": 64,
                    "midi": 78,
                    "name": "F#5",
                    "ticks": 14592,
                    "time": 23.749962,
                    "velocity": 0.8031496062992126
                },
                {
                    "duration": 0.10416649999999805,
                    "durationTicks": 64,
                    "midi": 66,
                    "name": "F#4",
                    "ticks": 14592,
                    "time": 23.749962,
                    "velocity": 0.8188976377952756
                },
                {
                    "duration": 0.1041665000000016,
                    "durationTicks": 64,
                    "midi": 77,
                    "name": "F5",
                    "ticks": 14656,
                    "time": 23.854128499999998,
                    "velocity": 0.5984251968503937
                },
                {
                    "duration": 0.1041665000000016,
                    "durationTicks": 64,
                    "midi": 62,
                    "name": "D4",
                    "ticks": 14656,
                    "time": 23.854128499999998,
                    "velocity": 0.5669291338582677
                },
                {
                    "duration": 0.10416649999999805,
                    "durationTicks": 64,
                    "midi": 76,
                    "name": "E5",
                    "ticks": 14720,
                    "time": 23.958295,
                    "velocity": 0.4881889763779528
                },
                {
                    "duration": 0.10416649999999805,
                    "durationTicks": 64,
                    "midi": 66,
                    "name": "F#4",
                    "ticks": 14720,
                    "time": 23.958295,
                    "velocity": 0.5354330708661418
                },
                {
                    "duration": 0.1041665000000016,
                    "durationTicks": 64,
                    "midi": 75,
                    "name": "D#5",
                    "ticks": 14784,
                    "time": 24.062461499999998,
                    "velocity": 0.3543307086614173
                },
                {
                    "duration": 0.1041665000000016,
                    "durationTicks": 64,
                    "midi": 62,
                    "name": "D4",
                    "ticks": 14784,
                    "time": 24.062461499999998,
                    "velocity": 0.36220472440944884
                },
                {
                    "duration": 0.10416649999999805,
                    "durationTicks": 64,
                    "midi": 74,
                    "name": "D5",
                    "ticks": 14848,
                    "time": 24.166628,
                    "velocity": 0.33070866141732286
                },
                {
                    "duration": 0.10416649999999805,
                    "durationTicks": 64,
                    "midi": 66,
                    "name": "F#4",
                    "ticks": 14848,
                    "time": 24.166628,
                    "velocity": 0.3779527559055118
                },
                {
                    "duration": 0.1041665000000016,
                    "durationTicks": 64,
                    "midi": 75,
                    "name": "D#5",
                    "ticks": 14912,
                    "time": 24.270794499999997,
                    "velocity": 0.5039370078740157
                },
                {
                    "duration": 0.1041665000000016,
                    "durationTicks": 64,
                    "midi": 62,
                    "name": "D4",
                    "ticks": 14912,
                    "time": 24.270794499999997,
                    "velocity": 0.47244094488188976
                },
                {
                    "duration": 0.1041665000000016,
                    "durationTicks": 64,
                    "midi": 76,
                    "name": "E5",
                    "ticks": 14976,
                    "time": 24.374961,
                    "velocity": 0.6377952755905512
                },
                {
                    "duration": 0.1041665000000016,
                    "durationTicks": 64,
                    "midi": 66,
                    "name": "F#4",
                    "ticks": 14976,
                    "time": 24.374961,
                    "velocity": 0.6377952755905512
                },
                {
                    "duration": 0.10416649999999805,
                    "durationTicks": 64,
                    "midi": 77,
                    "name": "F5",
                    "ticks": 15040,
                    "time": 24.4791275,
                    "velocity": 0.7952755905511811
                },
                {
                    "duration": 0.10416649999999805,
                    "durationTicks": 64,
                    "midi": 62,
                    "name": "D4",
                    "ticks": 15040,
                    "time": 24.4791275,
                    "velocity": 0.6692913385826772
                },
                {
                    "duration": 0.1041665000000016,
                    "durationTicks": 64,
                    "midi": 78,
                    "name": "F#5",
                    "ticks": 15104,
                    "time": 24.583294,
                    "velocity": 0.7952755905511811
                },
                {
                    "duration": 0.1041665000000016,
                    "durationTicks": 64,
                    "midi": 66,
                    "name": "F#4",
                    "ticks": 15104,
                    "time": 24.583294,
                    "velocity": 0.7637795275590551
                },
                {
                    "duration": 0.10416649999999805,
                    "durationTicks": 64,
                    "midi": 77,
                    "name": "F5",
                    "ticks": 15168,
                    "time": 24.6874605,
                    "velocity": 0.5826771653543307
                },
                {
                    "duration": 0.10416649999999805,
                    "durationTicks": 64,
                    "midi": 62,
                    "name": "D4",
                    "ticks": 15168,
                    "time": 24.6874605,
                    "velocity": 0.6062992125984252
                },
                {
                    "duration": 0.1041665000000016,
                    "durationTicks": 64,
                    "midi": 76,
                    "name": "E5",
                    "ticks": 15232,
                    "time": 24.791627,
                    "velocity": 0.49606299212598426
                },
                {
                    "duration": 0.1041665000000016,
                    "durationTicks": 64,
                    "midi": 66,
                    "name": "F#4",
                    "ticks": 15232,
                    "time": 24.791627,
                    "velocity": 0.5433070866141733
                },
                {
                    "duration": 0.08300767968749767,
                    "durationTicks": 51,
                    "midi": 75,
                    "name": "D#5",
                    "ticks": 15296,
                    "time": 24.8957935,
                    "velocity": 0.3464566929133858
                },
                {
                    "duration": 0.10416649999999805,
                    "durationTicks": 64,
                    "midi": 62,
                    "name": "D4",
                    "ticks": 15296,
                    "time": 24.8957935,
                    "velocity": 0.33858267716535434
                },
                {
                    "duration": 0.1041665000000016,
                    "durationTicks": 64,
                    "midi": 74,
                    "name": "D5",
                    "ticks": 15360,
                    "time": 24.999959999999998,
                    "velocity": 0.33858267716535434
                },
                {
                    "duration": 0.1025388984375013,
                    "durationTicks": 63,
                    "midi": 59,
                    "name": "B3",
                    "ticks": 15360,
                    "time": 24.999959999999998,
                    "velocity": 0.3937007874015748
                },
                {
                    "duration": 0.1025388984375013,
                    "durationTicks": 63,
                    "midi": 62,
                    "name": "D4",
                    "ticks": 15360,
                    "time": 24.999959999999998,
                    "velocity": 0.3937007874015748
                },
                {
                    "duration": 0.1025388984375013,
                    "durationTicks": 63,
                    "midi": 67,
                    "name": "G4",
                    "ticks": 15360,
                    "time": 24.999959999999998,
                    "velocity": 0.3937007874015748
                },
                {
                    "duration": 0.08300767968749767,
                    "durationTicks": 51,
                    "midi": 67,
                    "name": "G4",
                    "ticks": 15424,
                    "time": 25.1041265,
                    "velocity": 0.2992125984251969
                },
                {
                    "duration": 0.050455648437502276,
                    "durationTicks": 31,
                    "midi": 67,
                    "name": "G4",
                    "ticks": 15488,
                    "time": 25.208292999999998,
                    "velocity": 0.4015748031496063
                },
                {
                    "duration": 0.050455648437498724,
                    "durationTicks": 31,
                    "midi": 67,
                    "name": "G4",
                    "ticks": 15552,
                    "time": 25.3124595,
                    "velocity": 0.4881889763779528
                },
                {
                    "duration": 0.050455648437502276,
                    "durationTicks": 31,
                    "midi": 67,
                    "name": "G4",
                    "ticks": 15616,
                    "time": 25.416625999999997,
                    "velocity": 0.5669291338582677
                },
                {
                    "duration": 0.050455648437498724,
                    "durationTicks": 31,
                    "midi": 67,
                    "name": "G4",
                    "ticks": 15680,
                    "time": 25.5207925,
                    "velocity": 0.6220472440944882
                },
                {
                    "duration": 0.050455648437498724,
                    "durationTicks": 31,
                    "midi": 67,
                    "name": "G4",
                    "ticks": 15744,
                    "time": 25.624959,
                    "velocity": 0.6929133858267716
                },
                {
                    "duration": 0.050455648437498724,
                    "durationTicks": 31,
                    "midi": 67,
                    "name": "G4",
                    "ticks": 15808,
                    "time": 25.7291255,
                    "velocity": 0.7716535433070866
                },
                {
                    "duration": 0.10416649999999805,
                    "durationTicks": 64,
                    "midi": 66,
                    "name": "F#4",
                    "ticks": 15872,
                    "time": 25.833292,
                    "velocity": 0.6141732283464567
                },
                {
                    "duration": 0.10416649999999805,
                    "durationTicks": 64,
                    "midi": 68,
                    "name": "G#4",
                    "ticks": 15872,
                    "time": 25.833292,
                    "velocity": 0.6141732283464567
                },
                {
                    "duration": 0.1041665000000016,
                    "durationTicks": 64,
                    "midi": 67,
                    "name": "G4",
                    "ticks": 15936,
                    "time": 25.937458499999998,
                    "velocity": 0.7165354330708661
                },
                {
                    "duration": 0.10416649999999805,
                    "durationTicks": 64,
                    "midi": 66,
                    "name": "F#4",
                    "ticks": 16000,
                    "time": 26.041625,
                    "velocity": 0.7952755905511811
                },
                {
                    "duration": 0.10416649999999805,
                    "durationTicks": 64,
                    "midi": 68,
                    "name": "G#4",
                    "ticks": 16000,
                    "time": 26.041625,
                    "velocity": 0.7952755905511811
                },
                {
                    "duration": 0.1041665000000016,
                    "durationTicks": 64,
                    "midi": 80,
                    "name": "G#5",
                    "ticks": 16064,
                    "time": 26.145791499999998,
                    "velocity": 0.8582677165354331
                },
                {
                    "duration": 0.10416649999999805,
                    "durationTicks": 64,
                    "midi": 66,
                    "name": "F#4",
                    "ticks": 16128,
                    "time": 26.249958,
                    "velocity": 0.6771653543307087
                },
                {
                    "duration": 0.10416649999999805,
                    "durationTicks": 64,
                    "midi": 68,
                    "name": "G#4",
                    "ticks": 16128,
                    "time": 26.249958,
                    "velocity": 0.6771653543307087
                },
                {
                    "duration": 0.1041665000000016,
                    "durationTicks": 64,
                    "midi": 67,
                    "name": "G4",
                    "ticks": 16192,
                    "time": 26.354124499999998,
                    "velocity": 0.7244094488188977
                },
                {
                    "duration": 0.10416649999999805,
                    "durationTicks": 64,
                    "midi": 66,
                    "name": "F#4",
                    "ticks": 16256,
                    "time": 26.458291,
                    "velocity": 0.7637795275590551
                },
                {
                    "duration": 0.10416649999999805,
                    "durationTicks": 64,
                    "midi": 68,
                    "name": "G#4",
                    "ticks": 16256,
                    "time": 26.458291,
                    "velocity": 0.7637795275590551
                },
                {
                    "duration": 0.1041665000000016,
                    "durationTicks": 64,
                    "midi": 80,
                    "name": "G#5",
                    "ticks": 16320,
                    "time": 26.562457499999997,
                    "velocity": 0.968503937007874
                },
                {
                    "duration": 0.1041665000000016,
                    "durationTicks": 64,
                    "midi": 67,
                    "name": "G4",
                    "ticks": 16384,
                    "time": 26.666624,
                    "velocity": 0.6692913385826772
                },
                {
                    "duration": 0.1041665000000016,
                    "durationTicks": 64,
                    "midi": 67,
                    "name": "G4",
                    "ticks": 16384,
                    "time": 26.666624,
                    "velocity": 0.5669291338582677
                },
                {
                    "duration": 0.050455648437498724,
                    "durationTicks": 31,
                    "midi": 79,
                    "name": "G5",
                    "ticks": 16448,
                    "time": 26.7707905,
                    "velocity": 0.9212598425196851
                },
                {
                    "duration": 0.050455648437498724,
                    "durationTicks": 31,
                    "midi": 79,
                    "name": "G5",
                    "ticks": 16512,
                    "time": 26.874957,
                    "velocity": 0.7874015748031497
                },
                {
                    "duration": 0.050455648437498724,
                    "durationTicks": 31,
                    "midi": 79,
                    "name": "G5",
                    "ticks": 16576,
                    "time": 26.9791235,
                    "velocity": 0.7401574803149606
                },
                {
                    "duration": 0.050455648437502276,
                    "durationTicks": 31,
                    "midi": 79,
                    "name": "G5",
                    "ticks": 16640,
                    "time": 27.083289999999998,
                    "velocity": 0.7637795275590551
                },
                {
                    "duration": 0.050455648437498724,
                    "durationTicks": 31,
                    "midi": 79,
                    "name": "G5",
                    "ticks": 16704,
                    "time": 27.1874565,
                    "velocity": 0.7559055118110236
                },
                {
                    "duration": 0.050455648437502276,
                    "durationTicks": 31,
                    "midi": 79,
                    "name": "G5",
                    "ticks": 16768,
                    "time": 27.291622999999998,
                    "velocity": 0.7480314960629921
                },
                {
                    "duration": 0.050455648437498724,
                    "durationTicks": 31,
                    "midi": 79,
                    "name": "G5",
                    "ticks": 16832,
                    "time": 27.3957895,
                    "velocity": 0.7559055118110236
                },
                {
                    "duration": 0.1041665000000016,
                    "durationTicks": 64,
                    "midi": 78,
                    "name": "F#5",
                    "ticks": 16896,
                    "time": 27.499955999999997,
                    "velocity": 0.6929133858267716
                },
                {
                    "duration": 0.1041665000000016,
                    "durationTicks": 64,
                    "midi": 80,
                    "name": "G#5",
                    "ticks": 16896,
                    "time": 27.499955999999997,
                    "velocity": 0.6929133858267716
                },
                {
                    "duration": 0.10416649999999805,
                    "durationTicks": 64,
                    "midi": 79,
                    "name": "G5",
                    "ticks": 16960,
                    "time": 27.6041225,
                    "velocity": 0.7165354330708661
                },
                {
                    "duration": 0.1041665000000016,
                    "durationTicks": 64,
                    "midi": 78,
                    "name": "F#5",
                    "ticks": 17024,
                    "time": 27.708288999999997,
                    "velocity": 0.7795275590551181
                },
                {
                    "duration": 0.1041665000000016,
                    "durationTicks": 64,
                    "midi": 80,
                    "name": "G#5",
                    "ticks": 17024,
                    "time": 27.708288999999997,
                    "velocity": 0.7795275590551181
                },
                {
                    "duration": 0.1041665000000016,
                    "durationTicks": 64,
                    "midi": 92,
                    "name": "G#6",
                    "ticks": 17088,
                    "time": 27.8124555,
                    "velocity": 0.8818897637795275
                },
                {
                    "duration": 0.10416649999999805,
                    "durationTicks": 64,
                    "midi": 78,
                    "name": "F#5",
                    "ticks": 17152,
                    "time": 27.916622,
                    "velocity": 0.6850393700787402
                },
                {
                    "duration": 0.10416649999999805,
                    "durationTicks": 64,
                    "midi": 80,
                    "name": "G#5",
                    "ticks": 17152,
                    "time": 27.916622,
                    "velocity": 0.6850393700787402
                },
                {
                    "duration": 0.1041665000000016,
                    "durationTicks": 64,
                    "midi": 79,
                    "name": "G5",
                    "ticks": 17216,
                    "time": 28.0207885,
                    "velocity": 0.7322834645669292
                },
                {
                    "duration": 0.10416649999999805,
                    "durationTicks": 64,
                    "midi": 78,
                    "name": "F#5",
                    "ticks": 17280,
                    "time": 28.124955,
                    "velocity": 0.7559055118110236
                },
                {
                    "duration": 0.10416649999999805,
                    "durationTicks": 64,
                    "midi": 80,
                    "name": "G#5",
                    "ticks": 17280,
                    "time": 28.124955,
                    "velocity": 0.7559055118110236
                },
                {
                    "duration": 0.1041665000000016,
                    "durationTicks": 64,
                    "midi": 92,
                    "name": "G#6",
                    "ticks": 17344,
                    "time": 28.229121499999998,
                    "velocity": 0.968503937007874
                },
                {
                    "duration": 0.10416649999999805,
                    "durationTicks": 64,
                    "midi": 91,
                    "name": "G6",
                    "ticks": 17408,
                    "time": 28.333288,
                    "velocity": 0.6456692913385826
                },
                {
                    "duration": 0.10416649999999805,
                    "durationTicks": 64,
                    "midi": 79,
                    "name": "G5",
                    "ticks": 17408,
                    "time": 28.333288,
                    "velocity": 0.5748031496062992
                },
                {
                    "duration": 0.1041665000000016,
                    "durationTicks": 64,
                    "midi": 80,
                    "name": "G#5",
                    "ticks": 17472,
                    "time": 28.437454499999998,
                    "velocity": 0.5669291338582677
                },
                {
                    "duration": 0.10416649999999805,
                    "durationTicks": 64,
                    "midi": 79,
                    "name": "G5",
                    "ticks": 17536,
                    "time": 28.541621,
                    "velocity": 0.6850393700787402
                },
                {
                    "duration": 0.1041665000000016,
                    "durationTicks": 64,
                    "midi": 78,
                    "name": "F#5",
                    "ticks": 17600,
                    "time": 28.645787499999997,
                    "velocity": 0.6929133858267716
                },
                {
                    "duration": 0.10416649999999805,
                    "durationTicks": 64,
                    "midi": 79,
                    "name": "G5",
                    "ticks": 17664,
                    "time": 28.749954,
                    "velocity": 0.8031496062992126
                },
                {
                    "duration": 0.1041665000000016,
                    "durationTicks": 64,
                    "midi": 80,
                    "name": "G#5",
                    "ticks": 17728,
                    "time": 28.854120499999997,
                    "velocity": 0.8031496062992126
                },
                {
                    "duration": 0.1041665000000016,
                    "durationTicks": 64,
                    "midi": 79,
                    "name": "G5",
                    "ticks": 17792,
                    "time": 28.958287,
                    "velocity": 0.7165354330708661
                },
                {
                    "duration": 0.08300767968749767,
                    "durationTicks": 51,
                    "midi": 78,
                    "name": "F#5",
                    "ticks": 17856,
                    "time": 29.0624535,
                    "velocity": 0.7086614173228346
                },
                {
                    "duration": 0.1041665000000016,
                    "durationTicks": 64,
                    "midi": 79,
                    "name": "G5",
                    "ticks": 17920,
                    "time": 29.166619999999998,
                    "velocity": 0.7952755905511811
                },
                {
                    "duration": 0.20833299999999966,
                    "durationTicks": 128,
                    "midi": 67,
                    "name": "G4",
                    "ticks": 17920,
                    "time": 29.166619999999998,
                    "velocity": 0.9291338582677166
                },
                {
                    "duration": 0.10416649999999805,
                    "durationTicks": 64,
                    "midi": 80,
                    "name": "G#5",
                    "ticks": 17984,
                    "time": 29.2707865,
                    "velocity": 0.7637795275590551
                },
                {
                    "duration": 0.1041665000000016,
                    "durationTicks": 64,
                    "midi": 79,
                    "name": "G5",
                    "ticks": 18048,
                    "time": 29.374952999999998,
                    "velocity": 0.7401574803149606
                },
                {
                    "duration": 0.1025388984375013,
                    "durationTicks": 63,
                    "midi": 68,
                    "name": "G#4",
                    "ticks": 18048,
                    "time": 29.374952999999998,
                    "velocity": 0.7086614173228346
                },
                {
                    "duration": 0.20833299999999966,
                    "durationTicks": 128,
                    "midi": 66,
                    "name": "F#4",
                    "ticks": 18048,
                    "time": 29.374952999999998,
                    "velocity": 0.7322834645669292
                },
                {
                    "duration": 0.10416649999999805,
                    "durationTicks": 64,
                    "midi": 78,
                    "name": "F#5",
                    "ticks": 18112,
                    "time": 29.4791195,
                    "velocity": 0.7322834645669292
                },
                {
                    "duration": 0.1041665000000016,
                    "durationTicks": 64,
                    "midi": 79,
                    "name": "G5",
                    "ticks": 18176,
                    "time": 29.583285999999998,
                    "velocity": 0.7716535433070866
                },
                {
                    "duration": 0.1025388984375013,
                    "durationTicks": 63,
                    "midi": 69,
                    "name": "A4",
                    "ticks": 18176,
                    "time": 29.583285999999998,
                    "velocity": 0.7559055118110236
                },
                {
                    "duration": 0.20833299999999966,
                    "durationTicks": 128,
                    "midi": 65,
                    "name": "F4",
                    "ticks": 18176,
                    "time": 29.583285999999998,
                    "velocity": 0.7480314960629921
                },
                {
                    "duration": 0.10416649999999805,
                    "durationTicks": 64,
                    "midi": 80,
                    "name": "G#5",
                    "ticks": 18240,
                    "time": 29.6874525,
                    "velocity": 0.7637795275590551
                },
                {
                    "duration": 0.1041665000000016,
                    "durationTicks": 64,
                    "midi": 79,
                    "name": "G5",
                    "ticks": 18304,
                    "time": 29.791618999999997,
                    "velocity": 0.7480314960629921
                },
                {
                    "duration": 0.1025388984375013,
                    "durationTicks": 63,
                    "midi": 70,
                    "name": "A#4",
                    "ticks": 18304,
                    "time": 29.791618999999997,
                    "velocity": 0.7637795275590551
                },
                {
                    "duration": 0.2083330000000032,
                    "durationTicks": 128,
                    "midi": 64,
                    "name": "E4",
                    "ticks": 18304,
                    "time": 29.791618999999997,
                    "velocity": 0.7480314960629921
                },
                {
                    "duration": 0.08300767968750122,
                    "durationTicks": 51,
                    "midi": 78,
                    "name": "F#5",
                    "ticks": 18368,
                    "time": 29.8957855,
                    "velocity": 0.7165354330708661
                },
                {
                    "duration": 0.10416649999999805,
                    "durationTicks": 64,
                    "midi": 79,
                    "name": "G5",
                    "ticks": 18432,
                    "time": 29.999952,
                    "velocity": 0.7007874015748031
                },
                {
                    "duration": 0.10416649999999805,
                    "durationTicks": 64,
                    "midi": 71,
                    "name": "B4",
                    "ticks": 18432,
                    "time": 29.999952,
                    "velocity": 0.7007874015748031
                },
                {
                    "duration": 1.6666639999999973,
                    "durationTicks": 1024,
                    "midi": 63,
                    "name": "D#4",
                    "ticks": 18432,
                    "time": 29.999952,
                    "velocity": 0.6141732283464567
                },
                {
                    "duration": 0.1041665000000016,
                    "durationTicks": 64,
                    "midi": 80,
                    "name": "G#5",
                    "ticks": 18496,
                    "time": 30.1041185,
                    "velocity": 0.6929133858267716
                },
                {
                    "duration": 0.1041665000000016,
                    "durationTicks": 64,
                    "midi": 67,
                    "name": "G4",
                    "ticks": 18496,
                    "time": 30.1041185,
                    "velocity": 0.5984251968503937
                },
                {
                    "duration": 0.10416649999999805,
                    "durationTicks": 64,
                    "midi": 81,
                    "name": "A5",
                    "ticks": 18560,
                    "time": 30.208285,
                    "velocity": 0.7244094488188977
                },
                {
                    "duration": 0.10416649999999805,
                    "durationTicks": 64,
                    "midi": 71,
                    "name": "B4",
                    "ticks": 18560,
                    "time": 30.208285,
                    "velocity": 0.7401574803149606
                },
                {
                    "duration": 0.1041665000000016,
                    "durationTicks": 64,
                    "midi": 82,
                    "name": "A#5",
                    "ticks": 18624,
                    "time": 30.312451499999998,
                    "velocity": 0.7716535433070866
                },
                {
                    "duration": 0.1041665000000016,
                    "durationTicks": 64,
                    "midi": 67,
                    "name": "G4",
                    "ticks": 18624,
                    "time": 30.312451499999998,
                    "velocity": 0.7007874015748031
                },
                {
                    "duration": 0.10416649999999805,
                    "durationTicks": 64,
                    "midi": 83,
                    "name": "B5",
                    "ticks": 18688,
                    "time": 30.416618,
                    "velocity": 0.7716535433070866
                },
                {
                    "duration": 0.10416649999999805,
                    "durationTicks": 64,
                    "midi": 71,
                    "name": "B4",
                    "ticks": 18688,
                    "time": 30.416618,
                    "velocity": 0.7795275590551181
                },
                {
                    "duration": 0.1041665000000016,
                    "durationTicks": 64,
                    "midi": 82,
                    "name": "A#5",
                    "ticks": 18752,
                    "time": 30.520784499999998,
                    "velocity": 0.5511811023622047
                },
                {
                    "duration": 0.1041665000000016,
                    "durationTicks": 64,
                    "midi": 67,
                    "name": "G4",
                    "ticks": 18752,
                    "time": 30.520784499999998,
                    "velocity": 0.5275590551181102
                },
                {
                    "duration": 0.10416649999999805,
                    "durationTicks": 64,
                    "midi": 81,
                    "name": "A5",
                    "ticks": 18816,
                    "time": 30.624951,
                    "velocity": 0.3779527559055118
                },
                {
                    "duration": 0.10416649999999805,
                    "durationTicks": 64,
                    "midi": 71,
                    "name": "B4",
                    "ticks": 18816,
                    "time": 30.624951,
                    "velocity": 0.41732283464566927
                },
                {
                    "duration": 0.08300767968750122,
                    "durationTicks": 51,
                    "midi": 80,
                    "name": "G#5",
                    "ticks": 18880,
                    "time": 30.729117499999997,
                    "velocity": 0.4015748031496063
                },
                {
                    "duration": 0.1041665000000016,
                    "durationTicks": 64,
                    "midi": 67,
                    "name": "G4",
                    "ticks": 18880,
                    "time": 30.729117499999997,
                    "velocity": 0.3858267716535433
                },
                {
                    "duration": 0.10416649999999805,
                    "durationTicks": 64,
                    "midi": 79,
                    "name": "G5",
                    "ticks": 18944,
                    "time": 30.833284,
                    "velocity": 0.33858267716535434
                },
                {
                    "duration": 0.10416649999999805,
                    "durationTicks": 64,
                    "midi": 71,
                    "name": "B4",
                    "ticks": 18944,
                    "time": 30.833284,
                    "velocity": 0.4015748031496063
                },
                {
                    "duration": 0.1041665000000016,
                    "durationTicks": 64,
                    "midi": 80,
                    "name": "G#5",
                    "ticks": 19008,
                    "time": 30.937450499999997,
                    "velocity": 0.5196850393700787
                },
                {
                    "duration": 0.1041665000000016,
                    "durationTicks": 64,
                    "midi": 67,
                    "name": "G4",
                    "ticks": 19008,
                    "time": 30.937450499999997,
                    "velocity": 0.4881889763779528
                },
                {
                    "duration": 0.1041665000000016,
                    "durationTicks": 64,
                    "midi": 81,
                    "name": "A5",
                    "ticks": 19072,
                    "time": 31.041617,
                    "velocity": 0.6299212598425197
                },
                {
                    "duration": 0.1041665000000016,
                    "durationTicks": 64,
                    "midi": 71,
                    "name": "B4",
                    "ticks": 19072,
                    "time": 31.041617,
                    "velocity": 0.6377952755905512
                },
                {
                    "duration": 0.10416649999999805,
                    "durationTicks": 64,
                    "midi": 82,
                    "name": "A#5",
                    "ticks": 19136,
                    "time": 31.1457835,
                    "velocity": 0.8110236220472441
                },
                {
                    "duration": 0.10416649999999805,
                    "durationTicks": 64,
                    "midi": 67,
                    "name": "G4",
                    "ticks": 19136,
                    "time": 31.1457835,
                    "velocity": 0.7086614173228346
                },
                {
                    "duration": 0.1041665000000016,
                    "durationTicks": 64,
                    "midi": 83,
                    "name": "B5",
                    "ticks": 19200,
                    "time": 31.24995,
                    "velocity": 0.7874015748031497
                },
                {
                    "duration": 0.1041665000000016,
                    "durationTicks": 64,
                    "midi": 71,
                    "name": "B4",
                    "ticks": 19200,
                    "time": 31.24995,
                    "velocity": 0.8267716535433071
                },
                {
                    "duration": 0.10416649999999805,
                    "durationTicks": 64,
                    "midi": 82,
                    "name": "A#5",
                    "ticks": 19264,
                    "time": 31.3541165,
                    "velocity": 0.6062992125984252
                },
                {
                    "duration": 0.10416649999999805,
                    "durationTicks": 64,
                    "midi": 67,
                    "name": "G4",
                    "ticks": 19264,
                    "time": 31.3541165,
                    "velocity": 0.5905511811023622
                },
                {
                    "duration": 0.1041665000000016,
                    "durationTicks": 64,
                    "midi": 81,
                    "name": "A5",
                    "ticks": 19328,
                    "time": 31.458282999999998,
                    "velocity": 0.49606299212598426
                },
                {
                    "duration": 0.1041665000000016,
                    "durationTicks": 64,
                    "midi": 71,
                    "name": "B4",
                    "ticks": 19328,
                    "time": 31.458282999999998,
                    "velocity": 0.5275590551181102
                },
                {
                    "duration": 0.08300767968749767,
                    "durationTicks": 51,
                    "midi": 80,
                    "name": "G#5",
                    "ticks": 19392,
                    "time": 31.5624495,
                    "velocity": 0.3543307086614173
                },
                {
                    "duration": 0.10416649999999805,
                    "durationTicks": 64,
                    "midi": 67,
                    "name": "G4",
                    "ticks": 19392,
                    "time": 31.5624495,
                    "velocity": 0.3228346456692913
                },
                {
                    "duration": 0.1041665000000016,
                    "durationTicks": 64,
                    "midi": 79,
                    "name": "G5",
                    "ticks": 19456,
                    "time": 31.666615999999998,
                    "velocity": 0.4330708661417323
                },
                {
                    "duration": 0.1041665000000016,
                    "durationTicks": 64,
                    "midi": 60,
                    "name": "C4",
                    "ticks": 19456,
                    "time": 31.666615999999998,
                    "velocity": 0.5433070866141733
                },
                {
                    "duration": 0.1041665000000016,
                    "durationTicks": 64,
                    "midi": 63,
                    "name": "D#4",
                    "ticks": 19456,
                    "time": 31.666615999999998,
                    "velocity": 0.5433070866141733
                },
                {
                    "duration": 0.1041665000000016,
                    "durationTicks": 64,
                    "midi": 67,
                    "name": "G4",
                    "ticks": 19456,
                    "time": 31.666615999999998,
                    "velocity": 0.5433070866141733
                },
                {
                    "duration": 0.1041665000000016,
                    "durationTicks": 64,
                    "midi": 72,
                    "name": "C5",
                    "ticks": 19456,
                    "time": 31.666615999999998,
                    "velocity": 0.5433070866141733
                },
                {
                    "duration": 0.10416649999999805,
                    "durationTicks": 64,
                    "midi": 78,
                    "name": "F#5",
                    "ticks": 19520,
                    "time": 31.7707825,
                    "velocity": 0.41732283464566927
                },
                {
                    "duration": 0.1041665000000016,
                    "durationTicks": 64,
                    "midi": 77,
                    "name": "F5",
                    "ticks": 19584,
                    "time": 31.874948999999997,
                    "velocity": 0.4094488188976378
                },
                {
                    "duration": 0.10416649999999805,
                    "durationTicks": 64,
                    "midi": 76,
                    "name": "E5",
                    "ticks": 19648,
                    "time": 31.9791155,
                    "velocity": 0.4881889763779528
                },
                {
                    "duration": 0.10416649999999805,
                    "durationTicks": 64,
                    "midi": 75,
                    "name": "D#5",
                    "ticks": 19712,
                    "time": 32.083282,
                    "velocity": 0.44881889763779526
                },
                {
                    "duration": 0.10416650000000516,
                    "durationTicks": 64,
                    "midi": 80,
                    "name": "G#5",
                    "ticks": 19776,
                    "time": 32.187448499999995,
                    "velocity": 0.5433070866141733
                },
                {
                    "duration": 0.10416649999999805,
                    "durationTicks": 64,
                    "midi": 79,
                    "name": "G5",
                    "ticks": 19840,
                    "time": 32.291615,
                    "velocity": 0.4566929133858268
                },
                {
                    "duration": 0.10416649999999805,
                    "durationTicks": 64,
                    "midi": 78,
                    "name": "F#5",
                    "ticks": 19904,
                    "time": 32.3957815,
                    "velocity": 0.48031496062992124
                },
                {
                    "duration": 0.10416650000000516,
                    "durationTicks": 64,
                    "midi": 79,
                    "name": "G5",
                    "ticks": 19968,
                    "time": 32.499947999999996,
                    "velocity": 0.48031496062992124
                },
                {
                    "duration": 0.1025388984375013,
                    "durationTicks": 63,
                    "midi": 63,
                    "name": "D#4",
                    "ticks": 19968,
                    "time": 32.499947999999996,
                    "velocity": 0.41732283464566927
                },
                {
                    "duration": 0.1025388984375013,
                    "durationTicks": 63,
                    "midi": 67,
                    "name": "G4",
                    "ticks": 19968,
                    "time": 32.499947999999996,
                    "velocity": 0.41732283464566927
                },
                {
                    "duration": 0.1025388984375013,
                    "durationTicks": 63,
                    "midi": 72,
                    "name": "C5",
                    "ticks": 19968,
                    "time": 32.499947999999996,
                    "velocity": 0.41732283464566927
                },
                {
                    "duration": 0.10416649999999805,
                    "durationTicks": 64,
                    "midi": 78,
                    "name": "F#5",
                    "ticks": 20032,
                    "time": 32.6041145,
                    "velocity": 0.44881889763779526
                },
                {
                    "duration": 0.10416649999999805,
                    "durationTicks": 64,
                    "midi": 77,
                    "name": "F5",
                    "ticks": 20096,
                    "time": 32.708281,
                    "velocity": 0.4330708661417323
                },
                {
                    "duration": 0.10416649999999805,
                    "durationTicks": 64,
                    "midi": 76,
                    "name": "E5",
                    "ticks": 20160,
                    "time": 32.8124475,
                    "velocity": 0.4645669291338583
                },
                {
                    "duration": 0.10416650000000516,
                    "durationTicks": 64,
                    "midi": 75,
                    "name": "D#5",
                    "ticks": 20224,
                    "time": 32.916613999999996,
                    "velocity": 0.47244094488188976
                },
                {
                    "duration": 0.1025388984375013,
                    "durationTicks": 63,
                    "midi": 65,
                    "name": "F4",
                    "ticks": 20224,
                    "time": 32.916613999999996,
                    "velocity": 0.44881889763779526
                },
                {
                    "duration": 0.1025388984375013,
                    "durationTicks": 63,
                    "midi": 68,
                    "name": "G#4",
                    "ticks": 20224,
                    "time": 32.916613999999996,
                    "velocity": 0.44881889763779526
                },
                {
                    "duration": 0.1025388984375013,
                    "durationTicks": 63,
                    "midi": 72,
                    "name": "C5",
                    "ticks": 20224,
                    "time": 32.916613999999996,
                    "velocity": 0.44881889763779526
                },
                {
                    "duration": 0.10416649999999805,
                    "durationTicks": 64,
                    "midi": 76,
                    "name": "E5",
                    "ticks": 20288,
                    "time": 33.0207805,
                    "velocity": 0.4881889763779528
                },
                {
                    "duration": 0.10416649999999805,
                    "durationTicks": 64,
                    "midi": 77,
                    "name": "F5",
                    "ticks": 20352,
                    "time": 33.124947,
                    "velocity": 0.4881889763779528
                },
                {
                    "duration": 0.08300767968750478,
                    "durationTicks": 51,
                    "midi": 78,
                    "name": "F#5",
                    "ticks": 20416,
                    "time": 33.2291135,
                    "velocity": 0.5039370078740157
                },
                {
                    "duration": 0.10416649999999805,
                    "durationTicks": 64,
                    "midi": 79,
                    "name": "G5",
                    "ticks": 20480,
                    "time": 33.33328,
                    "velocity": 0.49606299212598426
                },
                {
                    "duration": 0.2083329999999961,
                    "durationTicks": 128,
                    "midi": 63,
                    "name": "D#4",
                    "ticks": 20480,
                    "time": 33.33328,
                    "velocity": 0.3937007874015748
                },
                {
                    "duration": 0.2083329999999961,
                    "durationTicks": 128,
                    "midi": 67,
                    "name": "G4",
                    "ticks": 20480,
                    "time": 33.33328,
                    "velocity": 0.3937007874015748
                },
                {
                    "duration": 0.2083329999999961,
                    "durationTicks": 128,
                    "midi": 72,
                    "name": "C5",
                    "ticks": 20480,
                    "time": 33.33328,
                    "velocity": 0.3937007874015748
                },
                {
                    "duration": 0.10416649999999805,
                    "durationTicks": 64,
                    "midi": 78,
                    "name": "F#5",
                    "ticks": 20544,
                    "time": 33.4374465,
                    "velocity": 0.4566929133858268
                },
                {
                    "duration": 0.10416649999999805,
                    "durationTicks": 64,
                    "midi": 77,
                    "name": "F5",
                    "ticks": 20608,
                    "time": 33.541613,
                    "velocity": 0.4566929133858268
                },
                {
                    "duration": 0.10416650000000516,
                    "durationTicks": 64,
                    "midi": 76,
                    "name": "E5",
                    "ticks": 20672,
                    "time": 33.645779499999996,
                    "velocity": 0.4566929133858268
                },
                {
                    "duration": 0.10416649999999805,
                    "durationTicks": 64,
                    "midi": 77,
                    "name": "F5",
                    "ticks": 20736,
                    "time": 33.749946,
                    "velocity": 0.4566929133858268
                },
                {
                    "duration": 0.2083329999999961,
                    "durationTicks": 128,
                    "midi": 59,
                    "name": "B3",
                    "ticks": 20736,
                    "time": 33.749946,
                    "velocity": 0.3858267716535433
                },
                {
                    "duration": 0.2083329999999961,
                    "durationTicks": 128,
                    "midi": 65,
                    "name": "F4",
                    "ticks": 20736,
                    "time": 33.749946,
                    "velocity": 0.3858267716535433
                },
                {
                    "duration": 0.2083329999999961,
                    "durationTicks": 128,
                    "midi": 68,
                    "name": "G#4",
                    "ticks": 20736,
                    "time": 33.749946,
                    "velocity": 0.3858267716535433
                },
                {
                    "duration": 0.10416649999999805,
                    "durationTicks": 64,
                    "midi": 76,
                    "name": "E5",
                    "ticks": 20800,
                    "time": 33.8541125,
                    "velocity": 0.4566929133858268
                },
                {
                    "duration": 0.10416649999999805,
                    "durationTicks": 64,
                    "midi": 75,
                    "name": "D#5",
                    "ticks": 20864,
                    "time": 33.958279,
                    "velocity": 0.4566929133858268
                },
                {
                    "duration": 0.10416650000000516,
                    "durationTicks": 64,
                    "midi": 74,
                    "name": "D5",
                    "ticks": 20928,
                    "time": 34.062445499999995,
                    "velocity": 0.4409448818897638
                },
                {
                    "duration": 0.10416649999999805,
                    "durationTicks": 64,
                    "midi": 75,
                    "name": "D#5",
                    "ticks": 20992,
                    "time": 34.166612,
                    "velocity": 0.5196850393700787
                },
                {
                    "duration": 0.2083329999999961,
                    "durationTicks": 128,
                    "midi": 60,
                    "name": "C4",
                    "ticks": 20992,
                    "time": 34.166612,
                    "velocity": 0.4094488188976378
                },
                {
                    "duration": 0.2083329999999961,
                    "durationTicks": 128,
                    "midi": 63,
                    "name": "D#4",
                    "ticks": 20992,
                    "time": 34.166612,
                    "velocity": 0.4094488188976378
                },
                {
                    "duration": 0.2083329999999961,
                    "durationTicks": 128,
                    "midi": 67,
                    "name": "G4",
                    "ticks": 20992,
                    "time": 34.166612,
                    "velocity": 0.4094488188976378
                },
                {
                    "duration": 0.10416649999999805,
                    "durationTicks": 64,
                    "midi": 76,
                    "name": "E5",
                    "ticks": 21056,
                    "time": 34.2707785,
                    "velocity": 0.4881889763779528
                },
                {
                    "duration": 0.10416650000000516,
                    "durationTicks": 64,
                    "midi": 77,
                    "name": "F5",
                    "ticks": 21120,
                    "time": 34.374945,
                    "velocity": 0.5118110236220472
                },
                {
                    "duration": 0.10416649999999805,
                    "durationTicks": 64,
                    "midi": 78,
                    "name": "F#5",
                    "ticks": 21184,
                    "time": 34.4791115,
                    "velocity": 0.48031496062992124
                },
                {
                    "duration": 0.10416649999999805,
                    "durationTicks": 64,
                    "midi": 77,
                    "name": "F5",
                    "ticks": 21248,
                    "time": 34.583278,
                    "velocity": 0.4645669291338583
                },
                {
                    "duration": 0.2083329999999961,
                    "durationTicks": 128,
                    "midi": 58,
                    "name": "A#3",
                    "ticks": 21248,
                    "time": 34.583278,
                    "velocity": 0.4566929133858268
                },
                {
                    "duration": 0.2083329999999961,
                    "durationTicks": 128,
                    "midi": 62,
                    "name": "D4",
                    "ticks": 21248,
                    "time": 34.583278,
                    "velocity": 0.4566929133858268
                },
                {
                    "duration": 0.10416649999999805,
                    "durationTicks": 64,
                    "midi": 78,
                    "name": "F#5",
                    "ticks": 21312,
                    "time": 34.6874445,
                    "velocity": 0.5433070866141733
                },
                {
                    "duration": 0.10416650000000516,
                    "durationTicks": 64,
                    "midi": 79,
                    "name": "G5",
                    "ticks": 21376,
                    "time": 34.791610999999996,
                    "velocity": 0.5275590551181102
                },
                {
                    "duration": 0.08300767968749767,
                    "durationTicks": 51,
                    "midi": 80,
                    "name": "G#5",
                    "ticks": 21440,
                    "time": 34.8957775,
                    "velocity": 0.5511811023622047
                },
                {
                    "duration": 0.10416649999999805,
                    "durationTicks": 64,
                    "midi": 81,
                    "name": "A5",
                    "ticks": 21504,
                    "time": 34.999944,
                    "velocity": 0.5275590551181102
                },
                {
                    "duration": 0.2083329999999961,
                    "durationTicks": 128,
                    "midi": 57,
                    "name": "A3",
                    "ticks": 21504,
                    "time": 34.999944,
                    "velocity": 0.4251968503937008
                },
                {
                    "duration": 0.2083329999999961,
                    "durationTicks": 128,
                    "midi": 61,
                    "name": "C#4",
                    "ticks": 21504,
                    "time": 34.999944,
                    "velocity": 0.4251968503937008
                },
                {
                    "duration": 0.2083329999999961,
                    "durationTicks": 128,
                    "midi": 67,
                    "name": "G4",
                    "ticks": 21504,
                    "time": 34.999944,
                    "velocity": 0.4251968503937008
                },
                {
                    "duration": 0.10416649999999805,
                    "durationTicks": 64,
                    "midi": 80,
                    "name": "G#5",
                    "ticks": 21568,
                    "time": 35.1041105,
                    "velocity": 0.4566929133858268
                },
                {
                    "duration": 0.10416650000000516,
                    "durationTicks": 64,
                    "midi": 79,
                    "name": "G5",
                    "ticks": 21632,
                    "time": 35.208276999999995,
                    "velocity": 0.4409448818897638
                },
                {
                    "duration": 0.10416649999999805,
                    "durationTicks": 64,
                    "midi": 78,
                    "name": "F#5",
                    "ticks": 21696,
                    "time": 35.3124435,
                    "velocity": 0.4251968503937008
                },
                {
                    "duration": 0.10416649999999805,
                    "durationTicks": 64,
                    "midi": 79,
                    "name": "G5",
                    "ticks": 21760,
                    "time": 35.41661,
                    "velocity": 0.5196850393700787
                },
                {
                    "duration": 0.8333319999999986,
                    "durationTicks": 512,
                    "midi": 69,
                    "name": "A4",
                    "ticks": 21760,
                    "time": 35.41661,
                    "velocity": 0.6062992125984252
                },
                {
                    "duration": 0.10416650000000516,
                    "durationTicks": 64,
                    "midi": 78,
                    "name": "F#5",
                    "ticks": 21824,
                    "time": 35.5207765,
                    "velocity": 0.4330708661417323
                },
                {
                    "duration": 0.10416649999999805,
                    "durationTicks": 64,
                    "midi": 77,
                    "name": "F5",
                    "ticks": 21888,
                    "time": 35.624943,
                    "velocity": 0.4566929133858268
                },
                {
                    "duration": 0.10416649999999805,
                    "durationTicks": 64,
                    "midi": 76,
                    "name": "E5",
                    "ticks": 21952,
                    "time": 35.7291095,
                    "velocity": 0.4409448818897638
                },
                {
                    "duration": 0.10416649999999805,
                    "durationTicks": 64,
                    "midi": 77,
                    "name": "F5",
                    "ticks": 22016,
                    "time": 35.833276,
                    "velocity": 0.49606299212598426
                },
                {
                    "duration": 0.10416650000000516,
                    "durationTicks": 64,
                    "midi": 76,
                    "name": "E5",
                    "ticks": 22080,
                    "time": 35.937442499999996,
                    "velocity": 0.4251968503937008
                },
                {
                    "duration": 0.10416649999999805,
                    "durationTicks": 64,
                    "midi": 75,
                    "name": "D#5",
                    "ticks": 22144,
                    "time": 36.041609,
                    "velocity": 0.4566929133858268
                },
                {
                    "duration": 0.10416649999999805,
                    "durationTicks": 64,
                    "midi": 74,
                    "name": "D5",
                    "ticks": 22208,
                    "time": 36.1457755,
                    "velocity": 0.4645669291338583
                },
                {
                    "duration": 0.10416649999999805,
                    "durationTicks": 64,
                    "midi": 73,
                    "name": "C#5",
                    "ticks": 22272,
                    "time": 36.249942,
                    "velocity": 0.4645669291338583
                },
                {
                    "duration": 0.1025388984375013,
                    "durationTicks": 63,
                    "midi": 69,
                    "name": "A4",
                    "ticks": 22272,
                    "time": 36.249942,
                    "velocity": 0.4645669291338583
                },
                {
                    "duration": 0.10416650000000516,
                    "durationTicks": 64,
                    "midi": 72,
                    "name": "C5",
                    "ticks": 22336,
                    "time": 36.354108499999995,
                    "velocity": 0.4409448818897638
                },
                {
                    "duration": 0.10416649999999805,
                    "durationTicks": 64,
                    "midi": 71,
                    "name": "B4",
                    "ticks": 22400,
                    "time": 36.458275,
                    "velocity": 0.47244094488188976
                },
                {
                    "duration": 0.08300767968749767,
                    "durationTicks": 51,
                    "midi": 70,
                    "name": "A#4",
                    "ticks": 22464,
                    "time": 36.5624415,
                    "velocity": 0.4015748031496063
                },
                {
                    "duration": 0.1025388984375013,
                    "durationTicks": 63,
                    "midi": 69,
                    "name": "A4",
                    "ticks": 22528,
                    "time": 36.666608,
                    "velocity": 0.41732283464566927
                },
                {
                    "duration": 0.10416650000000516,
                    "durationTicks": 64,
                    "midi": 69,
                    "name": "A4",
                    "ticks": 22528,
                    "time": 36.666608,
                    "velocity": 0.4251968503937008
                },
                {
                    "duration": 0.10416649999999805,
                    "durationTicks": 64,
                    "midi": 70,
                    "name": "A#4",
                    "ticks": 22592,
                    "time": 36.7707745,
                    "velocity": 0.4881889763779528
                },
                {
                    "duration": 0.10416649999999805,
                    "durationTicks": 64,
                    "midi": 69,
                    "name": "A4",
                    "ticks": 22656,
                    "time": 36.874941,
                    "velocity": 0.48031496062992124
                },
                {
                    "duration": 0.10416649999999805,
                    "durationTicks": 64,
                    "midi": 68,
                    "name": "G#4",
                    "ticks": 22720,
                    "time": 36.9791075,
                    "velocity": 0.4330708661417323
                },
                {
                    "duration": 0.1025388984375013,
                    "durationTicks": 63,
                    "midi": 69,
                    "name": "A4",
                    "ticks": 22784,
                    "time": 37.083273999999996,
                    "velocity": 0.48031496062992124
                },
                {
                    "duration": 0.10416650000000516,
                    "durationTicks": 64,
                    "midi": 69,
                    "name": "A4",
                    "ticks": 22784,
                    "time": 37.083273999999996,
                    "velocity": 0.4251968503937008
                },
                {
                    "duration": 0.10416649999999805,
                    "durationTicks": 64,
                    "midi": 70,
                    "name": "A#4",
                    "ticks": 22848,
                    "time": 37.1874405,
                    "velocity": 0.5039370078740157
                },
                {
                    "duration": 0.10416649999999805,
                    "durationTicks": 64,
                    "midi": 69,
                    "name": "A4",
                    "ticks": 22912,
                    "time": 37.291607,
                    "velocity": 0.4645669291338583
                },
                {
                    "duration": 0.1025388984375013,
                    "durationTicks": 63,
                    "midi": 65,
                    "name": "F4",
                    "ticks": 22912,
                    "time": 37.291607,
                    "velocity": 0.3779527559055118
                },
                {
                    "duration": 0.10416649999999805,
                    "durationTicks": 64,
                    "midi": 68,
                    "name": "G#4",
                    "ticks": 22976,
                    "time": 37.3957735,
                    "velocity": 0.4566929133858268
                },
                {
                    "duration": 0.10416650000000516,
                    "durationTicks": 64,
                    "midi": 69,
                    "name": "A4",
                    "ticks": 23040,
                    "time": 37.499939999999995,
                    "velocity": 0.5039370078740157
                },
                {
                    "duration": 0.1025388984375013,
                    "durationTicks": 63,
                    "midi": 62,
                    "name": "D4",
                    "ticks": 23040,
                    "time": 37.499939999999995,
                    "velocity": 0.4094488188976378
                },
                {
                    "duration": 0.10416649999999805,
                    "durationTicks": 64,
                    "midi": 70,
                    "name": "A#4",
                    "ticks": 23104,
                    "time": 37.6041065,
                    "velocity": 0.49606299212598426
                },
                {
                    "duration": 0.10416649999999805,
                    "durationTicks": 64,
                    "midi": 69,
                    "name": "A4",
                    "ticks": 23168,
                    "time": 37.708273,
                    "velocity": 0.4409448818897638
                },
                {
                    "duration": 0.1025388984375013,
                    "durationTicks": 63,
                    "midi": 58,
                    "name": "A#3",
                    "ticks": 23168,
                    "time": 37.708273,
                    "velocity": 0.4251968503937008
                },
                {
                    "duration": 0.10416650000000516,
                    "durationTicks": 64,
                    "midi": 68,
                    "name": "G#4",
                    "ticks": 23232,
                    "time": 37.812439499999996,
                    "velocity": 0.4330708661417323
                },
                {
                    "duration": 0.10416649999999805,
                    "durationTicks": 64,
                    "midi": 69,
                    "name": "A4",
                    "ticks": 23296,
                    "time": 37.916606,
                    "velocity": 0.47244094488188976
                },
                {
                    "duration": 0.1025388984374942,
                    "durationTicks": 63,
                    "midi": 62,
                    "name": "D4",
                    "ticks": 23296,
                    "time": 37.916606,
                    "velocity": 0.5196850393700787
                },
                {
                    "duration": 0.10416649999999805,
                    "durationTicks": 64,
                    "midi": 70,
                    "name": "A#4",
                    "ticks": 23360,
                    "time": 38.0207725,
                    "velocity": 0.4881889763779528
                },
                {
                    "duration": 0.10416649999999805,
                    "durationTicks": 64,
                    "midi": 69,
                    "name": "A4",
                    "ticks": 23424,
                    "time": 38.124939,
                    "velocity": 0.44881889763779526
                },
                {
                    "duration": 0.1025388984375013,
                    "durationTicks": 63,
                    "midi": 65,
                    "name": "F4",
                    "ticks": 23424,
                    "time": 38.124939,
                    "velocity": 0.5039370078740157
                },
                {
                    "duration": 0.08300767968750478,
                    "durationTicks": 51,
                    "midi": 68,
                    "name": "G#4",
                    "ticks": 23488,
                    "time": 38.229105499999996,
                    "velocity": 0.4645669291338583
                },
                {
                    "duration": 0.1025388984374942,
                    "durationTicks": 63,
                    "midi": 69,
                    "name": "A4",
                    "ticks": 23552,
                    "time": 38.333272,
                    "velocity": 0.5118110236220472
                },
                {
                    "duration": 0.10416649999999805,
                    "durationTicks": 64,
                    "midi": 69,
                    "name": "A4",
                    "ticks": 23552,
                    "time": 38.333272,
                    "velocity": 0.5669291338582677
                },
                {
                    "duration": 0.10416649999999805,
                    "durationTicks": 64,
                    "midi": 70,
                    "name": "A#4",
                    "ticks": 23616,
                    "time": 38.4374385,
                    "velocity": 0.5118110236220472
                },
                {
                    "duration": 0.10416649999999805,
                    "durationTicks": 64,
                    "midi": 69,
                    "name": "A4",
                    "ticks": 23680,
                    "time": 38.541605,
                    "velocity": 0.4645669291338583
                },
                {
                    "duration": 0.10416650000000516,
                    "durationTicks": 64,
                    "midi": 68,
                    "name": "G#4",
                    "ticks": 23744,
                    "time": 38.645771499999995,
                    "velocity": 0.44881889763779526
                },
                {
                    "duration": 0.1025388984375013,
                    "durationTicks": 63,
                    "midi": 69,
                    "name": "A4",
                    "ticks": 23808,
                    "time": 38.749938,
                    "velocity": 0.48031496062992124
                },
                {
                    "duration": 0.1025388984375013,
                    "durationTicks": 63,
                    "midi": 57,
                    "name": "A3",
                    "ticks": 23808,
                    "time": 38.749938,
                    "velocity": 0.4094488188976378
                },
                {
                    "duration": 0.10416649999999805,
                    "durationTicks": 64,
                    "midi": 69,
                    "name": "A4",
                    "ticks": 23808,
                    "time": 38.749938,
                    "velocity": 0.4094488188976378
                },
                {
                    "duration": 0.10416649999999805,
                    "durationTicks": 64,
                    "midi": 70,
                    "name": "A#4",
                    "ticks": 23872,
                    "time": 38.8541045,
                    "velocity": 0.5196850393700787
                },
                {
                    "duration": 0.10416650000000516,
                    "durationTicks": 64,
                    "midi": 69,
                    "name": "A4",
                    "ticks": 23936,
                    "time": 38.958270999999996,
                    "velocity": 0.4566929133858268
                },
                {
                    "duration": 0.1025388984375013,
                    "durationTicks": 63,
                    "midi": 53,
                    "name": "F3",
                    "ticks": 23936,
                    "time": 38.958270999999996,
                    "velocity": 0.41732283464566927
                },
                {
                    "duration": 0.1025388984375013,
                    "durationTicks": 63,
                    "midi": 65,
                    "name": "F4",
                    "ticks": 23936,
                    "time": 38.958270999999996,
                    "velocity": 0.41732283464566927
                },
                {
                    "duration": 0.10416649999999805,
                    "durationTicks": 64,
                    "midi": 68,
                    "name": "G#4",
                    "ticks": 24000,
                    "time": 39.0624375,
                    "velocity": 0.4566929133858268
                },
                {
                    "duration": 0.10416649999999805,
                    "durationTicks": 64,
                    "midi": 69,
                    "name": "A4",
                    "ticks": 24064,
                    "time": 39.166604,
                    "velocity": 0.5039370078740157
                },
                {
                    "duration": 0.1025388984375013,
                    "durationTicks": 63,
                    "midi": 50,
                    "name": "D3",
                    "ticks": 24064,
                    "time": 39.166604,
                    "velocity": 0.4409448818897638
                },
                {
                    "duration": 0.1025388984375013,
                    "durationTicks": 63,
                    "midi": 62,
                    "name": "D4",
                    "ticks": 24064,
                    "time": 39.166604,
                    "velocity": 0.4409448818897638
                },
                {
                    "duration": 0.10416649999999805,
                    "durationTicks": 64,
                    "midi": 70,
                    "name": "A#4",
                    "ticks": 24128,
                    "time": 39.2707705,
                    "velocity": 0.5039370078740157
                },
                {
                    "duration": 0.10416650000000516,
                    "durationTicks": 64,
                    "midi": 69,
                    "name": "A4",
                    "ticks": 24192,
                    "time": 39.374936999999996,
                    "velocity": 0.4409448818897638
                },
                {
                    "duration": 0.1025388984375013,
                    "durationTicks": 63,
                    "midi": 46,
                    "name": "A#2",
                    "ticks": 24192,
                    "time": 39.374936999999996,
                    "velocity": 0.48031496062992124
                },
                {
                    "duration": 0.1025388984375013,
                    "durationTicks": 63,
                    "midi": 58,
                    "name": "A#3",
                    "ticks": 24192,
                    "time": 39.374936999999996,
                    "velocity": 0.48031496062992124
                },
                {
                    "duration": 0.10416649999999805,
                    "durationTicks": 64,
                    "midi": 68,
                    "name": "G#4",
                    "ticks": 24256,
                    "time": 39.4791035,
                    "velocity": 0.4645669291338583
                },
                {
                    "duration": 0.10416649999999805,
                    "durationTicks": 64,
                    "midi": 69,
                    "name": "A4",
                    "ticks": 24320,
                    "time": 39.58327,
                    "velocity": 0.5039370078740157
                },
                {
                    "duration": 0.1025388984375013,
                    "durationTicks": 63,
                    "midi": 50,
                    "name": "D3",
                    "ticks": 24320,
                    "time": 39.58327,
                    "velocity": 0.5118110236220472
                },
                {
                    "duration": 0.1025388984375013,
                    "durationTicks": 63,
                    "midi": 62,
                    "name": "D4",
                    "ticks": 24320,
                    "time": 39.58327,
                    "velocity": 0.5118110236220472
                },
                {
                    "duration": 0.10416649999999805,
                    "durationTicks": 64,
                    "midi": 70,
                    "name": "A#4",
                    "ticks": 24384,
                    "time": 39.6874365,
                    "velocity": 0.5118110236220472
                },
                {
                    "duration": 0.10416650000000516,
                    "durationTicks": 64,
                    "midi": 69,
                    "name": "A4",
                    "ticks": 24448,
                    "time": 39.791602999999995,
                    "velocity": 0.4645669291338583
                },
                {
                    "duration": 0.1025388984375013,
                    "durationTicks": 63,
                    "midi": 53,
                    "name": "F3",
                    "ticks": 24448,
                    "time": 39.791602999999995,
                    "velocity": 0.5433070866141733
                },
                {
                    "duration": 0.1025388984375013,
                    "durationTicks": 63,
                    "midi": 65,
                    "name": "F4",
                    "ticks": 24448,
                    "time": 39.791602999999995,
                    "velocity": 0.5433070866141733
                },
                {
                    "duration": 0.08300767968749767,
                    "durationTicks": 51,
                    "midi": 68,
                    "name": "G#4",
                    "ticks": 24512,
                    "time": 39.8957695,
                    "velocity": 0.4409448818897638
                },
                {
                    "duration": 0.1025388984375013,
                    "durationTicks": 63,
                    "midi": 69,
                    "name": "A4",
                    "ticks": 24576,
                    "time": 39.999936,
                    "velocity": 0.5196850393700787
                },
                {
                    "duration": 0.1025388984375013,
                    "durationTicks": 63,
                    "midi": 57,
                    "name": "A3",
                    "ticks": 24576,
                    "time": 39.999936,
                    "velocity": 0.5590551181102362
                },
                {
                    "duration": 0.10416649999999805,
                    "durationTicks": 64,
                    "midi": 69,
                    "name": "A4",
                    "ticks": 24576,
                    "time": 39.999936,
                    "velocity": 0.5590551181102362
                },
                {
                    "duration": 0.10416650000000516,
                    "durationTicks": 64,
                    "midi": 68,
                    "name": "G#4",
                    "ticks": 24640,
                    "time": 40.104102499999996,
                    "velocity": 0.4645669291338583
                },
                {
                    "duration": 0.10416649999999805,
                    "durationTicks": 64,
                    "midi": 67,
                    "name": "G4",
                    "ticks": 24704,
                    "time": 40.208269,
                    "velocity": 0.4566929133858268
                },
                {
                    "duration": 0.10416649999999805,
                    "durationTicks": 64,
                    "midi": 66,
                    "name": "F#4",
                    "ticks": 24768,
                    "time": 40.3124355,
                    "velocity": 0.4330708661417323
                },
                {
                    "duration": 0.10416649999999805,
                    "durationTicks": 64,
                    "midi": 67,
                    "name": "G4",
                    "ticks": 24832,
                    "time": 40.416602,
                    "velocity": 0.49606299212598426
                },
                {
                    "duration": 0.10416650000000516,
                    "durationTicks": 64,
                    "midi": 66,
                    "name": "F#4",
                    "ticks": 24896,
                    "time": 40.520768499999996,
                    "velocity": 0.47244094488188976
                },
                {
                    "duration": 0.10416649999999805,
                    "durationTicks": 64,
                    "midi": 65,
                    "name": "F4",
                    "ticks": 24960,
                    "time": 40.624935,
                    "velocity": 0.44881889763779526
                },
                {
                    "duration": 0.10416649999999805,
                    "durationTicks": 64,
                    "midi": 64,
                    "name": "E4",
                    "ticks": 25024,
                    "time": 40.7291015,
                    "velocity": 0.4566929133858268
                },
                {
                    "duration": 0.10416649999999805,
                    "durationTicks": 64,
                    "midi": 65,
                    "name": "F4",
                    "ticks": 25088,
                    "time": 40.833268,
                    "velocity": 0.5039370078740157
                },
                {
                    "duration": 0.10416650000000516,
                    "durationTicks": 64,
                    "midi": 64,
                    "name": "E4",
                    "ticks": 25152,
                    "time": 40.937434499999995,
                    "velocity": 0.4566929133858268
                },
                {
                    "duration": 0.10416649999999805,
                    "durationTicks": 64,
                    "midi": 63,
                    "name": "D#4",
                    "ticks": 25216,
                    "time": 41.041601,
                    "velocity": 0.4566929133858268
                },
                {
                    "duration": 0.10416649999999805,
                    "durationTicks": 64,
                    "midi": 62,
                    "name": "D4",
                    "ticks": 25280,
                    "time": 41.1457675,
                    "velocity": 0.4566929133858268
                },
                {
                    "duration": 0.10416650000000516,
                    "durationTicks": 64,
                    "midi": 61,
                    "name": "C#4",
                    "ticks": 25344,
                    "time": 41.249933999999996,
                    "velocity": 0.4881889763779528
                },
                {
                    "duration": 0.10416649999999805,
                    "durationTicks": 64,
                    "midi": 60,
                    "name": "C4",
                    "ticks": 25408,
                    "time": 41.3541005,
                    "velocity": 0.4409448818897638
                },
                {
                    "duration": 0.10416649999999805,
                    "durationTicks": 64,
                    "midi": 59,
                    "name": "B3",
                    "ticks": 25472,
                    "time": 41.458267,
                    "velocity": 0.4645669291338583
                },
                {
                    "duration": 0.08300767968749767,
                    "durationTicks": 51,
                    "midi": 58,
                    "name": "A#3",
                    "ticks": 25536,
                    "time": 41.5624335,
                    "velocity": 0.4566929133858268
                },
                {
                    "duration": 0.10416650000000516,
                    "durationTicks": 64,
                    "midi": 57,
                    "name": "A3",
                    "ticks": 25600,
                    "time": 41.666599999999995,
                    "velocity": 0.48031496062992124
                },
                {
                    "duration": 0.10416649999999805,
                    "durationTicks": 64,
                    "midi": 58,
                    "name": "A#3",
                    "ticks": 25664,
                    "time": 41.7707665,
                    "velocity": 0.47244094488188976
                },
                {
                    "duration": 0.10416649999999805,
                    "durationTicks": 64,
                    "midi": 57,
                    "name": "A3",
                    "ticks": 25728,
                    "time": 41.874933,
                    "velocity": 0.48031496062992124
                },
                {
                    "duration": 0.10416649999999805,
                    "durationTicks": 64,
                    "midi": 56,
                    "name": "G#3",
                    "ticks": 25792,
                    "time": 41.9790995,
                    "velocity": 0.4566929133858268
                },
                {
                    "duration": 0.1025388984375013,
                    "durationTicks": 63,
                    "midi": 57,
                    "name": "A3",
                    "ticks": 25856,
                    "time": 42.083265999999995,
                    "velocity": 0.48031496062992124
                },
                {
                    "duration": 0.1025388984375013,
                    "durationTicks": 63,
                    "midi": 45,
                    "name": "A2",
                    "ticks": 25856,
                    "time": 42.083265999999995,
                    "velocity": 0.4330708661417323
                },
                {
                    "duration": 0.10416650000000516,
                    "durationTicks": 64,
                    "midi": 57,
                    "name": "A3",
                    "ticks": 25856,
                    "time": 42.083265999999995,
                    "velocity": 0.4330708661417323
                },
                {
                    "duration": 0.10416649999999805,
                    "durationTicks": 64,
                    "midi": 58,
                    "name": "A#3",
                    "ticks": 25920,
                    "time": 42.1874325,
                    "velocity": 0.4881889763779528
                },
                {
                    "duration": 0.10416649999999805,
                    "durationTicks": 64,
                    "midi": 57,
                    "name": "A3",
                    "ticks": 25984,
                    "time": 42.291599,
                    "velocity": 0.47244094488188976
                },
                {
                    "duration": 0.1025388984375013,
                    "durationTicks": 63,
                    "midi": 41,
                    "name": "F2",
                    "ticks": 25984,
                    "time": 42.291599,
                    "velocity": 0.4645669291338583
                },
                {
                    "duration": 0.1025388984375013,
                    "durationTicks": 63,
                    "midi": 53,
                    "name": "F3",
                    "ticks": 25984,
                    "time": 42.291599,
                    "velocity": 0.4645669291338583
                },
                {
                    "duration": 0.10416650000000516,
                    "durationTicks": 64,
                    "midi": 56,
                    "name": "G#3",
                    "ticks": 26048,
                    "time": 42.395765499999996,
                    "velocity": 0.4881889763779528
                },
                {
                    "duration": 0.10416649999999805,
                    "durationTicks": 64,
                    "midi": 57,
                    "name": "A3",
                    "ticks": 26112,
                    "time": 42.499932,
                    "velocity": 0.5039370078740157
                },
                {
                    "duration": 0.1025388984374942,
                    "durationTicks": 63,
                    "midi": 38,
                    "name": "D2",
                    "ticks": 26112,
                    "time": 42.499932,
                    "velocity": 0.4645669291338583
                },
                {
                    "duration": 0.1025388984374942,
                    "durationTicks": 63,
                    "midi": 50,
                    "name": "D3",
                    "ticks": 26112,
                    "time": 42.499932,
                    "velocity": 0.4645669291338583
                },
                {
                    "duration": 0.10416649999999805,
                    "durationTicks": 64,
                    "midi": 58,
                    "name": "A#3",
                    "ticks": 26176,
                    "time": 42.6040985,
                    "velocity": 0.4881889763779528
                },
                {
                    "duration": 0.10416649999999805,
                    "durationTicks": 64,
                    "midi": 57,
                    "name": "A3",
                    "ticks": 26240,
                    "time": 42.708265,
                    "velocity": 0.48031496062992124
                },
                {
                    "duration": 0.1025388984375013,
                    "durationTicks": 63,
                    "midi": 34,
                    "name": "A#1",
                    "ticks": 26240,
                    "time": 42.708265,
                    "velocity": 0.4409448818897638
                },
                {
                    "duration": 0.1025388984375013,
                    "durationTicks": 63,
                    "midi": 46,
                    "name": "A#2",
                    "ticks": 26240,
                    "time": 42.708265,
                    "velocity": 0.4409448818897638
                },
                {
                    "duration": 0.10416650000000516,
                    "durationTicks": 64,
                    "midi": 56,
                    "name": "G#3",
                    "ticks": 26304,
                    "time": 42.812431499999995,
                    "velocity": 0.48031496062992124
                },
                {
                    "duration": 0.10416649999999805,
                    "durationTicks": 64,
                    "midi": 57,
                    "name": "A3",
                    "ticks": 26368,
                    "time": 42.916598,
                    "velocity": 0.4881889763779528
                },
                {
                    "duration": 0.1025388984374942,
                    "durationTicks": 63,
                    "midi": 38,
                    "name": "D2",
                    "ticks": 26368,
                    "time": 42.916598,
                    "velocity": 0.4881889763779528
                },
                {
                    "duration": 0.1025388984374942,
                    "durationTicks": 63,
                    "midi": 50,
                    "name": "D3",
                    "ticks": 26368,
                    "time": 42.916598,
                    "velocity": 0.4881889763779528
                },
                {
                    "duration": 0.10416649999999805,
                    "durationTicks": 64,
                    "midi": 58,
                    "name": "A#3",
                    "ticks": 26432,
                    "time": 43.0207645,
                    "velocity": 0.5118110236220472
                },
                {
                    "duration": 0.10416649999999805,
                    "durationTicks": 64,
                    "midi": 57,
                    "name": "A3",
                    "ticks": 26496,
                    "time": 43.124931,
                    "velocity": 0.4409448818897638
                },
                {
                    "duration": 0.1025388984375013,
                    "durationTicks": 63,
                    "midi": 41,
                    "name": "F2",
                    "ticks": 26496,
                    "time": 43.124931,
                    "velocity": 0.49606299212598426
                },
                {
                    "duration": 0.1025388984375013,
                    "durationTicks": 63,
                    "midi": 53,
                    "name": "F3",
                    "ticks": 26496,
                    "time": 43.124931,
                    "velocity": 0.49606299212598426
                },
                {
                    "duration": 0.08300767968750478,
                    "durationTicks": 51,
                    "midi": 56,
                    "name": "G#3",
                    "ticks": 26560,
                    "time": 43.229097499999995,
                    "velocity": 0.4645669291338583
                },
                {
                    "duration": 0.10416649999999805,
                    "durationTicks": 64,
                    "midi": 57,
                    "name": "A3",
                    "ticks": 26624,
                    "time": 43.333264,
                    "velocity": 0.47244094488188976
                },
                {
                    "duration": 0.20670539843749935,
                    "durationTicks": 127,
                    "midi": 45,
                    "name": "A2",
                    "ticks": 26624,
                    "time": 43.333264,
                    "velocity": 0.48031496062992124
                },
                {
                    "duration": 0.20670539843749935,
                    "durationTicks": 127,
                    "midi": 57,
                    "name": "A3",
                    "ticks": 26624,
                    "time": 43.333264,
                    "velocity": 0.48031496062992124
                },
                {
                    "duration": 0.10416649999999805,
                    "durationTicks": 64,
                    "midi": 58,
                    "name": "A#3",
                    "ticks": 26688,
                    "time": 43.4374305,
                    "velocity": 0.48031496062992124
                },
                {
                    "duration": 0.10416650000000516,
                    "durationTicks": 64,
                    "midi": 57,
                    "name": "A3",
                    "ticks": 26752,
                    "time": 43.541596999999996,
                    "velocity": 0.4330708661417323
                },
                {
                    "duration": 0.10416649999999805,
                    "durationTicks": 64,
                    "midi": 56,
                    "name": "G#3",
                    "ticks": 26816,
                    "time": 43.6457635,
                    "velocity": 0.4566929133858268
                },
                {
                    "duration": 0.10416649999999805,
                    "durationTicks": 64,
                    "midi": 57,
                    "name": "A3",
                    "ticks": 26880,
                    "time": 43.74993,
                    "velocity": 0.48031496062992124
                },
                {
                    "duration": 0.1025388984375013,
                    "durationTicks": 63,
                    "midi": 69,
                    "name": "A4",
                    "ticks": 26880,
                    "time": 43.74993,
                    "velocity": 0.6062992125984252
                },
                {
                    "duration": 0.10416649999999805,
                    "durationTicks": 64,
                    "midi": 58,
                    "name": "A#3",
                    "ticks": 26944,
                    "time": 43.8540965,
                    "velocity": 0.4881889763779528
                },
                {
                    "duration": 0.10416650000000516,
                    "durationTicks": 64,
                    "midi": 57,
                    "name": "A3",
                    "ticks": 27008,
                    "time": 43.958262999999995,
                    "velocity": 0.49606299212598426
                },
                {
                    "duration": 0.1025388984375013,
                    "durationTicks": 63,
                    "midi": 65,
                    "name": "F4",
                    "ticks": 27008,
                    "time": 43.958262999999995,
                    "velocity": 0.4251968503937008
                },
                {
                    "duration": 0.10416649999999805,
                    "durationTicks": 64,
                    "midi": 56,
                    "name": "G#3",
                    "ticks": 27072,
                    "time": 44.0624295,
                    "velocity": 0.47244094488188976
                },
                {
                    "duration": 0.10416649999999805,
                    "durationTicks": 64,
                    "midi": 57,
                    "name": "A3",
                    "ticks": 27136,
                    "time": 44.166596,
                    "velocity": 0.4881889763779528
                },
                {
                    "duration": 0.1025388984375013,
                    "durationTicks": 63,
                    "midi": 62,
                    "name": "D4",
                    "ticks": 27136,
                    "time": 44.166596,
                    "velocity": 0.3858267716535433
                },
                {
                    "duration": 0.10416649999999805,
                    "durationTicks": 64,
                    "midi": 58,
                    "name": "A#3",
                    "ticks": 27200,
                    "time": 44.2707625,
                    "velocity": 0.48031496062992124
                },
                {
                    "duration": 0.10416650000000516,
                    "durationTicks": 64,
                    "midi": 57,
                    "name": "A3",
                    "ticks": 27264,
                    "time": 44.374928999999995,
                    "velocity": 0.4566929133858268
                },
                {
                    "duration": 0.1025388984375013,
                    "durationTicks": 63,
                    "midi": 58,
                    "name": "A#3",
                    "ticks": 27264,
                    "time": 44.374928999999995,
                    "velocity": 0.4330708661417323
                },
                {
                    "duration": 0.10416649999999805,
                    "durationTicks": 64,
                    "midi": 56,
                    "name": "G#3",
                    "ticks": 27328,
                    "time": 44.4790955,
                    "velocity": 0.4645669291338583
                },
                {
                    "duration": 0.10416649999999805,
                    "durationTicks": 64,
                    "midi": 57,
                    "name": "A3",
                    "ticks": 27392,
                    "time": 44.583262,
                    "velocity": 0.4881889763779528
                },
                {
                    "duration": 0.1025388984375013,
                    "durationTicks": 63,
                    "midi": 62,
                    "name": "D4",
                    "ticks": 27392,
                    "time": 44.583262,
                    "velocity": 0.5354330708661418
                },
                {
                    "duration": 0.10416650000000516,
                    "durationTicks": 64,
                    "midi": 58,
                    "name": "A#3",
                    "ticks": 27456,
                    "time": 44.687428499999996,
                    "velocity": 0.4881889763779528
                },
                {
                    "duration": 0.10416649999999805,
                    "durationTicks": 64,
                    "midi": 57,
                    "name": "A3",
                    "ticks": 27520,
                    "time": 44.791595,
                    "velocity": 0.44881889763779526
                },
                {
                    "duration": 0.1025388984374942,
                    "durationTicks": 63,
                    "midi": 65,
                    "name": "F4",
                    "ticks": 27520,
                    "time": 44.791595,
                    "velocity": 0.5196850393700787
                },
                {
                    "duration": 0.08300767968749767,
                    "durationTicks": 51,
                    "midi": 56,
                    "name": "G#3",
                    "ticks": 27584,
                    "time": 44.8957615,
                    "velocity": 0.4566929133858268
                },
                {
                    "duration": 0.10416649999999805,
                    "durationTicks": 64,
                    "midi": 57,
                    "name": "A3",
                    "ticks": 27648,
                    "time": 44.999928,
                    "velocity": 0.4645669291338583
                },
                {
                    "duration": 0.8333319999999986,
                    "durationTicks": 512,
                    "midi": 69,
                    "name": "A4",
                    "ticks": 27648,
                    "time": 44.999928,
                    "velocity": 0.5511811023622047
                },
                {
                    "duration": 0.10416650000000516,
                    "durationTicks": 64,
                    "midi": 58,
                    "name": "A#3",
                    "ticks": 27712,
                    "time": 45.104094499999995,
                    "velocity": 0.4881889763779528
                },
                {
                    "duration": 0.10416649999999805,
                    "durationTicks": 64,
                    "midi": 59,
                    "name": "B3",
                    "ticks": 27776,
                    "time": 45.208261,
                    "velocity": 0.5118110236220472
                },
                {
                    "duration": 0.10416649999999805,
                    "durationTicks": 64,
                    "midi": 60,
                    "name": "C4",
                    "ticks": 27840,
                    "time": 45.3124275,
                    "velocity": 0.47244094488188976
                },
                {
                    "duration": 0.10416649999999805,
                    "durationTicks": 64,
                    "midi": 61,
                    "name": "C#4",
                    "ticks": 27904,
                    "time": 45.416593999999996,
                    "velocity": 0.5118110236220472
                },
                {
                    "duration": 0.10416650000000516,
                    "durationTicks": 64,
                    "midi": 62,
                    "name": "D4",
                    "ticks": 27968,
                    "time": 45.520760499999994,
                    "velocity": 0.5275590551181102
                },
                {
                    "duration": 0.10416649999999805,
                    "durationTicks": 64,
                    "midi": 63,
                    "name": "D#4",
                    "ticks": 28032,
                    "time": 45.624927,
                    "velocity": 0.5196850393700787
                },
                {
                    "duration": 0.10416649999999805,
                    "durationTicks": 64,
                    "midi": 64,
                    "name": "E4",
                    "ticks": 28096,
                    "time": 45.7290935,
                    "velocity": 0.5196850393700787
                },
                {
                    "duration": 0.10416650000000516,
                    "durationTicks": 64,
                    "midi": 65,
                    "name": "F4",
                    "ticks": 28160,
                    "time": 45.833259999999996,
                    "velocity": 0.49606299212598426
                },
                {
                    "duration": 0.5208325000000045,
                    "durationTicks": 320,
                    "midi": 69,
                    "name": "A4",
                    "ticks": 28160,
                    "time": 45.833259999999996,
                    "velocity": 0.6220472440944882
                },
                {
                    "duration": 1.249998000000005,
                    "durationTicks": 768,
                    "midi": 81,
                    "name": "A5",
                    "ticks": 28160,
                    "time": 45.833259999999996,
                    "velocity": 0.6220472440944882
                },
                {
                    "duration": 0.10416649999999805,
                    "durationTicks": 64,
                    "midi": 66,
                    "name": "F#4",
                    "ticks": 28224,
                    "time": 45.9374265,
                    "velocity": 0.49606299212598426
                },
                {
                    "duration": 0.10416649999999805,
                    "durationTicks": 64,
                    "midi": 67,
                    "name": "G4",
                    "ticks": 28288,
                    "time": 46.041593,
                    "velocity": 0.5039370078740157
                },
                {
                    "duration": 0.10416649999999805,
                    "durationTicks": 64,
                    "midi": 68,
                    "name": "G#4",
                    "ticks": 28352,
                    "time": 46.1457595,
                    "velocity": 0.49606299212598426
                },
                {
                    "duration": 0.8333320000000057,
                    "durationTicks": 512,
                    "midi": 69,
                    "name": "A4",
                    "ticks": 28416,
                    "time": 46.249925999999995,
                    "velocity": 0.5354330708661418
                },
                {
                    "duration": 0.10416649999999805,
                    "durationTicks": 64,
                    "midi": 70,
                    "name": "A#4",
                    "ticks": 28480,
                    "time": 46.3540925,
                    "velocity": 0.5118110236220472
                },
                {
                    "duration": 0.10416649999999805,
                    "durationTicks": 64,
                    "midi": 71,
                    "name": "B4",
                    "ticks": 28544,
                    "time": 46.458259,
                    "velocity": 0.5039370078740157
                },
                {
                    "duration": 0.08300767968750478,
                    "durationTicks": 51,
                    "midi": 72,
                    "name": "C5",
                    "ticks": 28608,
                    "time": 46.562425499999996,
                    "velocity": 0.5196850393700787
                },
                {
                    "duration": 0.10416650000000516,
                    "durationTicks": 64,
                    "midi": 73,
                    "name": "C#5",
                    "ticks": 28672,
                    "time": 46.666591999999994,
                    "velocity": 0.47244094488188976
                },
                {
                    "duration": 0.10416649999999805,
                    "durationTicks": 64,
                    "midi": 74,
                    "name": "D5",
                    "ticks": 28736,
                    "time": 46.7707585,
                    "velocity": 0.47244094488188976
                },
                {
                    "duration": 0.10416649999999805,
                    "durationTicks": 64,
                    "midi": 75,
                    "name": "D#5",
                    "ticks": 28800,
                    "time": 46.874925,
                    "velocity": 0.4645669291338583
                },
                {
                    "duration": 0.10416650000000516,
                    "durationTicks": 64,
                    "midi": 76,
                    "name": "E5",
                    "ticks": 28864,
                    "time": 46.979091499999996,
                    "velocity": 0.4566929133858268
                },
                {
                    "duration": 0.10416649999999805,
                    "durationTicks": 64,
                    "midi": 77,
                    "name": "F5",
                    "ticks": 28928,
                    "time": 47.083258,
                    "velocity": 0.44881889763779526
                },
                {
                    "duration": 0.4166659999999993,
                    "durationTicks": 256,
                    "midi": 57,
                    "name": "A3",
                    "ticks": 28928,
                    "time": 47.083258,
                    "velocity": 0.44881889763779526
                },
                {
                    "duration": 0.4166659999999993,
                    "durationTicks": 256,
                    "midi": 69,
                    "name": "A4",
                    "ticks": 28928,
                    "time": 47.083258,
                    "velocity": 0.44881889763779526
                },
                {
                    "duration": 0.10416649999999805,
                    "durationTicks": 64,
                    "midi": 78,
                    "name": "F#5",
                    "ticks": 28992,
                    "time": 47.1874245,
                    "velocity": 0.4409448818897638
                },
                {
                    "duration": 0.10416649999999805,
                    "durationTicks": 64,
                    "midi": 79,
                    "name": "G5",
                    "ticks": 29056,
                    "time": 47.291591,
                    "velocity": 0.4330708661417323
                },
                {
                    "duration": 0.10416650000000516,
                    "durationTicks": 64,
                    "midi": 80,
                    "name": "G#5",
                    "ticks": 29120,
                    "time": 47.395757499999995,
                    "velocity": 0.4251968503937008
                },
                {
                    "duration": 0.10416649999999805,
                    "durationTicks": 64,
                    "midi": 81,
                    "name": "A5",
                    "ticks": 29184,
                    "time": 47.499924,
                    "velocity": 0.41732283464566927
                },
                {
                    "duration": 0.8333319999999986,
                    "durationTicks": 512,
                    "midi": 57,
                    "name": "A3",
                    "ticks": 29184,
                    "time": 47.499924,
                    "velocity": 0.41732283464566927
                },
                {
                    "duration": 0.10416649999999805,
                    "durationTicks": 64,
                    "midi": 82,
                    "name": "A#5",
                    "ticks": 29248,
                    "time": 47.6040905,
                    "velocity": 0.4094488188976378
                },
                {
                    "duration": 0.10416650000000516,
                    "durationTicks": 64,
                    "midi": 81,
                    "name": "A5",
                    "ticks": 29312,
                    "time": 47.708256999999996,
                    "velocity": 0.4015748031496063
                },
                {
                    "duration": 0.10416649999999805,
                    "durationTicks": 64,
                    "midi": 80,
                    "name": "G#5",
                    "ticks": 29376,
                    "time": 47.8124235,
                    "velocity": 0.3937007874015748
                },
                {
                    "duration": 0.10416649999999805,
                    "durationTicks": 64,
                    "midi": 81,
                    "name": "A5",
                    "ticks": 29440,
                    "time": 47.91659,
                    "velocity": 0.3937007874015748
                },
                {
                    "duration": 0.10416649999999805,
                    "durationTicks": 64,
                    "midi": 82,
                    "name": "A#5",
                    "ticks": 29504,
                    "time": 48.0207565,
                    "velocity": 0.3858267716535433
                },
                {
                    "duration": 0.08300767968750478,
                    "durationTicks": 51,
                    "midi": 81,
                    "name": "A5",
                    "ticks": 29568,
                    "time": 48.124922999999995,
                    "velocity": 0.3779527559055118
                },
                {
                    "duration": 0.10416649999999805,
                    "durationTicks": 64,
                    "midi": 80,
                    "name": "G#5",
                    "ticks": 29632,
                    "time": 48.2290895,
                    "velocity": 0.3700787401574803
                },
                {
                    "duration": 0.10416649999999805,
                    "durationTicks": 64,
                    "midi": 69,
                    "name": "A4",
                    "ticks": 29696,
                    "time": 48.333256,
                    "velocity": 0.3543307086614173
                },
                {
                    "duration": 0.1025388984375013,
                    "durationTicks": 63,
                    "midi": 50,
                    "name": "D3",
                    "ticks": 29696,
                    "time": 48.333256,
                    "velocity": 0.4094488188976378
                },
                {
                    "duration": 0.1025388984375013,
                    "durationTicks": 63,
                    "midi": 53,
                    "name": "F3",
                    "ticks": 29696,
                    "time": 48.333256,
                    "velocity": 0.4094488188976378
                },
                {
                    "duration": 0.1025388984375013,
                    "durationTicks": 63,
                    "midi": 57,
                    "name": "A3",
                    "ticks": 29696,
                    "time": 48.333256,
                    "velocity": 0.4094488188976378
                },
                {
                    "duration": 0.10416649999999805,
                    "durationTicks": 64,
                    "midi": 68,
                    "name": "G#4",
                    "ticks": 29760,
                    "time": 48.4374225,
                    "velocity": 0.4566929133858268
                },
                {
                    "duration": 0.10416650000000516,
                    "durationTicks": 64,
                    "midi": 67,
                    "name": "G4",
                    "ticks": 29824,
                    "time": 48.541588999999995,
                    "velocity": 0.4094488188976378
                },
                {
                    "duration": 0.10416649999999805,
                    "durationTicks": 64,
                    "midi": 66,
                    "name": "F#4",
                    "ticks": 29888,
                    "time": 48.6457555,
                    "velocity": 0.47244094488188976
                },
                {
                    "duration": 0.10416649999999805,
                    "durationTicks": 64,
                    "midi": 65,
                    "name": "F4",
                    "ticks": 29952,
                    "time": 48.749922,
                    "velocity": 0.44881889763779526
                },
                {
                    "duration": 0.10416650000000516,
                    "durationTicks": 64,
                    "midi": 70,
                    "name": "A#4",
                    "ticks": 30016,
                    "time": 48.854088499999996,
                    "velocity": 0.5511811023622047
                },
                {
                    "duration": 0.10416649999999805,
                    "durationTicks": 64,
                    "midi": 69,
                    "name": "A4",
                    "ticks": 30080,
                    "time": 48.958255,
                    "velocity": 0.4251968503937008
                },
                {
                    "duration": 0.10416649999999805,
                    "durationTicks": 64,
                    "midi": 68,
                    "name": "G#4",
                    "ticks": 30144,
                    "time": 49.0624215,
                    "velocity": 0.4409448818897638
                },
                {
                    "duration": 0.10416649999999805,
                    "durationTicks": 64,
                    "midi": 69,
                    "name": "A4",
                    "ticks": 30208,
                    "time": 49.166588,
                    "velocity": 0.4881889763779528
                },
                {
                    "duration": 0.1025388984375013,
                    "durationTicks": 63,
                    "midi": 50,
                    "name": "D3",
                    "ticks": 30208,
                    "time": 49.166588,
                    "velocity": 0.44881889763779526
                },
                {
                    "duration": 0.1025388984375013,
                    "durationTicks": 63,
                    "midi": 53,
                    "name": "F3",
                    "ticks": 30208,
                    "time": 49.166588,
                    "velocity": 0.44881889763779526
                },
                {
                    "duration": 0.1025388984375013,
                    "durationTicks": 63,
                    "midi": 57,
                    "name": "A3",
                    "ticks": 30208,
                    "time": 49.166588,
                    "velocity": 0.44881889763779526
                },
                {
                    "duration": 0.10416650000000516,
                    "durationTicks": 64,
                    "midi": 68,
                    "name": "G#4",
                    "ticks": 30272,
                    "time": 49.270754499999995,
                    "velocity": 0.5039370078740157
                },
                {
                    "duration": 0.10416649999999805,
                    "durationTicks": 64,
                    "midi": 67,
                    "name": "G4",
                    "ticks": 30336,
                    "time": 49.374921,
                    "velocity": 0.4409448818897638
                },
                {
                    "duration": 0.10416649999999805,
                    "durationTicks": 64,
                    "midi": 66,
                    "name": "F#4",
                    "ticks": 30400,
                    "time": 49.4790875,
                    "velocity": 0.4330708661417323
                },
                {
                    "duration": 0.10416649999999805,
                    "durationTicks": 64,
                    "midi": 65,
                    "name": "F4",
                    "ticks": 30464,
                    "time": 49.583254,
                    "velocity": 0.4566929133858268
                },
                {
                    "duration": 0.1025388984375013,
                    "durationTicks": 63,
                    "midi": 50,
                    "name": "D3",
                    "ticks": 30464,
                    "time": 49.583254,
                    "velocity": 0.4330708661417323
                },
                {
                    "duration": 0.1025388984375013,
                    "durationTicks": 63,
                    "midi": 55,
                    "name": "G3",
                    "ticks": 30464,
                    "time": 49.583254,
                    "velocity": 0.4330708661417323
                },
                {
                    "duration": 0.1025388984375013,
                    "durationTicks": 63,
                    "midi": 59,
                    "name": "B3",
                    "ticks": 30464,
                    "time": 49.583254,
                    "velocity": 0.4330708661417323
                },
                {
                    "duration": 0.10416650000000516,
                    "durationTicks": 64,
                    "midi": 66,
                    "name": "F#4",
                    "ticks": 30528,
                    "time": 49.687420499999995,
                    "velocity": 0.48031496062992124
                },
                {
                    "duration": 0.10416649999999805,
                    "durationTicks": 64,
                    "midi": 67,
                    "name": "G4",
                    "ticks": 30592,
                    "time": 49.791587,
                    "velocity": 0.4566929133858268
                },
                {
                    "duration": 0.08300767968749767,
                    "durationTicks": 51,
                    "midi": 68,
                    "name": "G#4",
                    "ticks": 30656,
                    "time": 49.8957535,
                    "velocity": 0.5196850393700787
                },
                {
                    "duration": 0.10416650000000516,
                    "durationTicks": 64,
                    "midi": 69,
                    "name": "A4",
                    "ticks": 30720,
                    "time": 49.999919999999996,
                    "velocity": 0.5039370078740157
                },
                {
                    "duration": 0.1025388984375013,
                    "durationTicks": 63,
                    "midi": 50,
                    "name": "D3",
                    "ticks": 30720,
                    "time": 49.999919999999996,
                    "velocity": 0.4251968503937008
                },
                {
                    "duration": 0.1025388984375013,
                    "durationTicks": 63,
                    "midi": 53,
                    "name": "F3",
                    "ticks": 30720,
                    "time": 49.999919999999996,
                    "velocity": 0.4251968503937008
                },
                {
                    "duration": 0.1025388984375013,
                    "durationTicks": 63,
                    "midi": 57,
                    "name": "A3",
                    "ticks": 30720,
                    "time": 49.999919999999996,
                    "velocity": 0.4251968503937008
                },
                {
                    "duration": 0.10416649999999805,
                    "durationTicks": 64,
                    "midi": 68,
                    "name": "G#4",
                    "ticks": 30784,
                    "time": 50.1040865,
                    "velocity": 0.48031496062992124
                },
                {
                    "duration": 0.10416649999999805,
                    "durationTicks": 64,
                    "midi": 67,
                    "name": "G4",
                    "ticks": 30848,
                    "time": 50.208253,
                    "velocity": 0.4645669291338583
                },
                {
                    "duration": 0.10416649999999805,
                    "durationTicks": 64,
                    "midi": 66,
                    "name": "F#4",
                    "ticks": 30912,
                    "time": 50.3124195,
                    "velocity": 0.4881889763779528
                },
                {
                    "duration": 0.10416650000000516,
                    "durationTicks": 64,
                    "midi": 65,
                    "name": "F4",
                    "ticks": 30976,
                    "time": 50.416585999999995,
                    "velocity": 0.4094488188976378
                },
                {
                    "duration": 0.10416649999999805,
                    "durationTicks": 64,
                    "midi": 70,
                    "name": "A#4",
                    "ticks": 31040,
                    "time": 50.5207525,
                    "velocity": 0.5118110236220472
                },
                {
                    "duration": 0.10416649999999805,
                    "durationTicks": 64,
                    "midi": 69,
                    "name": "A4",
                    "ticks": 31104,
                    "time": 50.624919,
                    "velocity": 0.4645669291338583
                },
                {
                    "duration": 0.10416649999999805,
                    "durationTicks": 64,
                    "midi": 68,
                    "name": "G#4",
                    "ticks": 31168,
                    "time": 50.7290855,
                    "velocity": 0.44881889763779526
                },
                {
                    "duration": 0.10416650000000516,
                    "durationTicks": 64,
                    "midi": 69,
                    "name": "A4",
                    "ticks": 31232,
                    "time": 50.833251999999995,
                    "velocity": 0.5196850393700787
                },
                {
                    "duration": 0.1025388984375013,
                    "durationTicks": 63,
                    "midi": 50,
                    "name": "D3",
                    "ticks": 31232,
                    "time": 50.833251999999995,
                    "velocity": 0.4409448818897638
                },
                {
                    "duration": 0.1025388984375013,
                    "durationTicks": 63,
                    "midi": 53,
                    "name": "F3",
                    "ticks": 31232,
                    "time": 50.833251999999995,
                    "velocity": 0.4409448818897638
                },
                {
                    "duration": 0.1025388984375013,
                    "durationTicks": 63,
                    "midi": 57,
                    "name": "A3",
                    "ticks": 31232,
                    "time": 50.833251999999995,
                    "velocity": 0.4409448818897638
                },
                {
                    "duration": 0.10416649999999805,
                    "durationTicks": 64,
                    "midi": 68,
                    "name": "G#4",
                    "ticks": 31296,
                    "time": 50.9374185,
                    "velocity": 0.44881889763779526
                },
                {
                    "duration": 0.10416649999999805,
                    "durationTicks": 64,
                    "midi": 67,
                    "name": "G4",
                    "ticks": 31360,
                    "time": 51.041585,
                    "velocity": 0.49606299212598426
                },
                {
                    "duration": 0.10416650000000516,
                    "durationTicks": 64,
                    "midi": 66,
                    "name": "F#4",
                    "ticks": 31424,
                    "time": 51.145751499999996,
                    "velocity": 0.4251968503937008
                },
                {
                    "duration": 0.10416649999999805,
                    "durationTicks": 64,
                    "midi": 65,
                    "name": "F4",
                    "ticks": 31488,
                    "time": 51.249918,
                    "velocity": 0.4645669291338583
                },
                {
                    "duration": 0.2083329999999961,
                    "durationTicks": 128,
                    "midi": 50,
                    "name": "D3",
                    "ticks": 31488,
                    "time": 51.249918,
                    "velocity": 0.4409448818897638
                },
                {
                    "duration": 0.2083329999999961,
                    "durationTicks": 128,
                    "midi": 55,
                    "name": "G3",
                    "ticks": 31488,
                    "time": 51.249918,
                    "velocity": 0.4409448818897638
                },
                {
                    "duration": 0.2083329999999961,
                    "durationTicks": 128,
                    "midi": 59,
                    "name": "B3",
                    "ticks": 31488,
                    "time": 51.249918,
                    "velocity": 0.4409448818897638
                },
                {
                    "duration": 0.10416649999999805,
                    "durationTicks": 64,
                    "midi": 66,
                    "name": "F#4",
                    "ticks": 31552,
                    "time": 51.3540845,
                    "velocity": 0.48031496062992124
                },
                {
                    "duration": 0.10416649999999805,
                    "durationTicks": 64,
                    "midi": 67,
                    "name": "G4",
                    "ticks": 31616,
                    "time": 51.458251,
                    "velocity": 0.5275590551181102
                },
                {
                    "duration": 0.08300767968750478,
                    "durationTicks": 51,
                    "midi": 68,
                    "name": "G#4",
                    "ticks": 31680,
                    "time": 51.562417499999995,
                    "velocity": 0.5433070866141733
                },
                {
                    "duration": 0.10416649999999805,
                    "durationTicks": 64,
                    "midi": 69,
                    "name": "A4",
                    "ticks": 31744,
                    "time": 51.666584,
                    "velocity": 0.5118110236220472
                },
                {
                    "duration": 0.2083329999999961,
                    "durationTicks": 128,
                    "midi": 50,
                    "name": "D3",
                    "ticks": 31744,
                    "time": 51.666584,
                    "velocity": 0.4330708661417323
                },
                {
                    "duration": 0.2083329999999961,
                    "durationTicks": 128,
                    "midi": 53,
                    "name": "F3",
                    "ticks": 31744,
                    "time": 51.666584,
                    "velocity": 0.4330708661417323
                },
                {
                    "duration": 0.2083329999999961,
                    "durationTicks": 128,
                    "midi": 57,
                    "name": "A3",
                    "ticks": 31744,
                    "time": 51.666584,
                    "velocity": 0.4330708661417323
                },
                {
                    "duration": 0.10416649999999805,
                    "durationTicks": 64,
                    "midi": 68,
                    "name": "G#4",
                    "ticks": 31808,
                    "time": 51.7707505,
                    "velocity": 0.4566929133858268
                },
                {
                    "duration": 0.10416649999999805,
                    "durationTicks": 64,
                    "midi": 67,
                    "name": "G4",
                    "ticks": 31872,
                    "time": 51.874916999999996,
                    "velocity": 0.4409448818897638
                },
                {
                    "duration": 0.10416650000000516,
                    "durationTicks": 64,
                    "midi": 66,
                    "name": "F#4",
                    "ticks": 31936,
                    "time": 51.979083499999994,
                    "velocity": 0.4566929133858268
                },
                {
                    "duration": 0.10416649999999805,
                    "durationTicks": 64,
                    "midi": 67,
                    "name": "G4",
                    "ticks": 32000,
                    "time": 52.08325,
                    "velocity": 0.49606299212598426
                },
                {
                    "duration": 0.2083329999999961,
                    "durationTicks": 128,
                    "midi": 50,
                    "name": "D3",
                    "ticks": 32000,
                    "time": 52.08325,
                    "velocity": 0.4094488188976378
                },
                {
                    "duration": 0.2083329999999961,
                    "durationTicks": 128,
                    "midi": 55,
                    "name": "G3",
                    "ticks": 32000,
                    "time": 52.08325,
                    "velocity": 0.4094488188976378
                },
                {
                    "duration": 0.2083329999999961,
                    "durationTicks": 128,
                    "midi": 58,
                    "name": "A#3",
                    "ticks": 32000,
                    "time": 52.08325,
                    "velocity": 0.4094488188976378
                },
                {
                    "duration": 0.10416649999999805,
                    "durationTicks": 64,
                    "midi": 66,
                    "name": "F#4",
                    "ticks": 32064,
                    "time": 52.1874165,
                    "velocity": 0.4251968503937008
                },
                {
                    "duration": 0.10416650000000516,
                    "durationTicks": 64,
                    "midi": 65,
                    "name": "F4",
                    "ticks": 32128,
                    "time": 52.291582999999996,
                    "velocity": 0.4251968503937008
                },
                {
                    "duration": 0.10416649999999805,
                    "durationTicks": 64,
                    "midi": 64,
                    "name": "E4",
                    "ticks": 32192,
                    "time": 52.3957495,
                    "velocity": 0.4409448818897638
                },
                {
                    "duration": 0.10416649999999805,
                    "durationTicks": 64,
                    "midi": 65,
                    "name": "F4",
                    "ticks": 32256,
                    "time": 52.499916,
                    "velocity": 0.4881889763779528
                },
                {
                    "duration": 0.2083329999999961,
                    "durationTicks": 128,
                    "midi": 50,
                    "name": "D3",
                    "ticks": 32256,
                    "time": 52.499916,
                    "velocity": 0.4330708661417323
                },
                {
                    "duration": 0.2083329999999961,
                    "durationTicks": 128,
                    "midi": 53,
                    "name": "F3",
                    "ticks": 32256,
                    "time": 52.499916,
                    "velocity": 0.4330708661417323
                },
                {
                    "duration": 0.2083329999999961,
                    "durationTicks": 128,
                    "midi": 57,
                    "name": "A3",
                    "ticks": 32256,
                    "time": 52.499916,
                    "velocity": 0.4330708661417323
                },
                {
                    "duration": 0.10416649999999805,
                    "durationTicks": 64,
                    "midi": 66,
                    "name": "F#4",
                    "ticks": 32320,
                    "time": 52.6040825,
                    "velocity": 0.5118110236220472
                },
                {
                    "duration": 0.10416650000000516,
                    "durationTicks": 64,
                    "midi": 67,
                    "name": "G4",
                    "ticks": 32384,
                    "time": 52.708248999999995,
                    "velocity": 0.5039370078740157
                },
                {
                    "duration": 0.10416649999999805,
                    "durationTicks": 64,
                    "midi": 68,
                    "name": "G#4",
                    "ticks": 32448,
                    "time": 52.8124155,
                    "velocity": 0.5275590551181102
                },
                {
                    "duration": 0.10416649999999805,
                    "durationTicks": 64,
                    "midi": 69,
                    "name": "A4",
                    "ticks": 32512,
                    "time": 52.916582,
                    "velocity": 0.4881889763779528
                },
                {
                    "duration": 0.2083329999999961,
                    "durationTicks": 128,
                    "midi": 49,
                    "name": "C#3",
                    "ticks": 32512,
                    "time": 52.916582,
                    "velocity": 0.4094488188976378
                },
                {
                    "duration": 0.2083329999999961,
                    "durationTicks": 128,
                    "midi": 52,
                    "name": "E3",
                    "ticks": 32512,
                    "time": 52.916582,
                    "velocity": 0.4094488188976378
                },
                {
                    "duration": 0.2083329999999961,
                    "durationTicks": 128,
                    "midi": 55,
                    "name": "G3",
                    "ticks": 32512,
                    "time": 52.916582,
                    "velocity": 0.4094488188976378
                },
                {
                    "duration": 0.2083329999999961,
                    "durationTicks": 128,
                    "midi": 57,
                    "name": "A3",
                    "ticks": 32512,
                    "time": 52.916582,
                    "velocity": 0.4094488188976378
                },
                {
                    "duration": 0.10416649999999805,
                    "durationTicks": 64,
                    "midi": 70,
                    "name": "A#4",
                    "ticks": 32576,
                    "time": 53.020748499999996,
                    "velocity": 0.5039370078740157
                },
                {
                    "duration": 0.10416650000000516,
                    "durationTicks": 64,
                    "midi": 69,
                    "name": "A4",
                    "ticks": 32640,
                    "time": 53.124914999999994,
                    "velocity": 0.4645669291338583
                },
                {
                    "duration": 0.08300767968749767,
                    "durationTicks": 51,
                    "midi": 68,
                    "name": "G#4",
                    "ticks": 32704,
                    "time": 53.2290815,
                    "velocity": 0.4409448818897638
                },
                {
                    "duration": 0.10416649999999805,
                    "durationTicks": 64,
                    "midi": 69,
                    "name": "A4",
                    "ticks": 32768,
                    "time": 53.333248,
                    "velocity": 0.5039370078740157
                },
                {
                    "duration": 0.2083330000000032,
                    "durationTicks": 128,
                    "midi": 50,
                    "name": "D3",
                    "ticks": 32768,
                    "time": 53.333248,
                    "velocity": 0.4881889763779528
                },
                {
                    "duration": 0.2083330000000032,
                    "durationTicks": 128,
                    "midi": 53,
                    "name": "F3",
                    "ticks": 32768,
                    "time": 53.333248,
                    "velocity": 0.4881889763779528
                },
                {
                    "duration": 0.2083330000000032,
                    "durationTicks": 128,
                    "midi": 57,
                    "name": "A3",
                    "ticks": 32768,
                    "time": 53.333248,
                    "velocity": 0.4881889763779528
                },
                {
                    "duration": 0.10416650000000516,
                    "durationTicks": 64,
                    "midi": 68,
                    "name": "G#4",
                    "ticks": 32832,
                    "time": 53.437414499999996,
                    "velocity": 0.4409448818897638
                },
                {
                    "duration": 0.10416649999999805,
                    "durationTicks": 64,
                    "midi": 67,
                    "name": "G4",
                    "ticks": 32896,
                    "time": 53.541581,
                    "velocity": 0.48031496062992124
                },
                {
                    "duration": 0.10416649999999805,
                    "durationTicks": 64,
                    "midi": 66,
                    "name": "F#4",
                    "ticks": 32960,
                    "time": 53.6457475,
                    "velocity": 0.4409448818897638
                },
                {
                    "duration": 0.10416649999999805,
                    "durationTicks": 64,
                    "midi": 67,
                    "name": "G4",
                    "ticks": 33024,
                    "time": 53.749914,
                    "velocity": 0.4881889763779528
                },
                {
                    "duration": 0.2083330000000032,
                    "durationTicks": 128,
                    "midi": 50,
                    "name": "D3",
                    "ticks": 33024,
                    "time": 53.749914,
                    "velocity": 0.44881889763779526
                },
                {
                    "duration": 0.2083330000000032,
                    "durationTicks": 128,
                    "midi": 55,
                    "name": "G3",
                    "ticks": 33024,
                    "time": 53.749914,
                    "velocity": 0.44881889763779526
                },
                {
                    "duration": 0.2083330000000032,
                    "durationTicks": 128,
                    "midi": 58,
                    "name": "A#3",
                    "ticks": 33024,
                    "time": 53.749914,
                    "velocity": 0.44881889763779526
                },
                {
                    "duration": 0.10416650000000516,
                    "durationTicks": 64,
                    "midi": 66,
                    "name": "F#4",
                    "ticks": 33088,
                    "time": 53.854080499999995,
                    "velocity": 0.44881889763779526
                },
                {
                    "duration": 0.10416649999999805,
                    "durationTicks": 64,
                    "midi": 65,
                    "name": "F4",
                    "ticks": 33152,
                    "time": 53.958247,
                    "velocity": 0.4409448818897638
                },
                {
                    "duration": 0.10416649999999805,
                    "durationTicks": 64,
                    "midi": 64,
                    "name": "E4",
                    "ticks": 33216,
                    "time": 54.0624135,
                    "velocity": 0.47244094488188976
                },
                {
                    "duration": 0.10416649999999805,
                    "durationTicks": 64,
                    "midi": 65,
                    "name": "F4",
                    "ticks": 33280,
                    "time": 54.166579999999996,
                    "velocity": 0.5039370078740157
                },
                {
                    "duration": 0.2083330000000032,
                    "durationTicks": 128,
                    "midi": 50,
                    "name": "D3",
                    "ticks": 33280,
                    "time": 54.166579999999996,
                    "velocity": 0.4330708661417323
                },
                {
                    "duration": 0.2083330000000032,
                    "durationTicks": 128,
                    "midi": 53,
                    "name": "F3",
                    "ticks": 33280,
                    "time": 54.166579999999996,
                    "velocity": 0.4330708661417323
                },
                {
                    "duration": 0.2083330000000032,
                    "durationTicks": 128,
                    "midi": 57,
                    "name": "A3",
                    "ticks": 33280,
                    "time": 54.166579999999996,
                    "velocity": 0.4330708661417323
                },
                {
                    "duration": 0.10416650000000516,
                    "durationTicks": 64,
                    "midi": 66,
                    "name": "F#4",
                    "ticks": 33344,
                    "time": 54.270746499999994,
                    "velocity": 0.47244094488188976
                },
                {
                    "duration": 0.10416649999999805,
                    "durationTicks": 64,
                    "midi": 67,
                    "name": "G4",
                    "ticks": 33408,
                    "time": 54.374913,
                    "velocity": 0.5118110236220472
                },
                {
                    "duration": 0.10416649999999805,
                    "durationTicks": 64,
                    "midi": 68,
                    "name": "G#4",
                    "ticks": 33472,
                    "time": 54.4790795,
                    "velocity": 0.48031496062992124
                },
                {
                    "duration": 0.10416650000000516,
                    "durationTicks": 64,
                    "midi": 69,
                    "name": "A4",
                    "ticks": 33536,
                    "time": 54.583245999999995,
                    "velocity": 0.5039370078740157
                },
                {
                    "duration": 0.2083330000000032,
                    "durationTicks": 128,
                    "midi": 52,
                    "name": "E3",
                    "ticks": 33536,
                    "time": 54.583245999999995,
                    "velocity": 0.44881889763779526
                },
                {
                    "duration": 0.2083330000000032,
                    "durationTicks": 128,
                    "midi": 55,
                    "name": "G3",
                    "ticks": 33536,
                    "time": 54.583245999999995,
                    "velocity": 0.44881889763779526
                },
                {
                    "duration": 0.2083330000000032,
                    "durationTicks": 128,
                    "midi": 57,
                    "name": "A3",
                    "ticks": 33536,
                    "time": 54.583245999999995,
                    "velocity": 0.44881889763779526
                },
                {
                    "duration": 0.2083330000000032,
                    "durationTicks": 128,
                    "midi": 61,
                    "name": "C#4",
                    "ticks": 33536,
                    "time": 54.583245999999995,
                    "velocity": 0.44881889763779526
                },
                {
                    "duration": 0.10416649999999805,
                    "durationTicks": 64,
                    "midi": 71,
                    "name": "B4",
                    "ticks": 33600,
                    "time": 54.6874125,
                    "velocity": 0.5118110236220472
                },
                {
                    "duration": 0.10416649999999805,
                    "durationTicks": 64,
                    "midi": 72,
                    "name": "C5",
                    "ticks": 33664,
                    "time": 54.791579,
                    "velocity": 0.49606299212598426
                },
                {
                    "duration": 0.08300767968749767,
                    "durationTicks": 51,
                    "midi": 73,
                    "name": "C#5",
                    "ticks": 33728,
                    "time": 54.8957455,
                    "velocity": 0.5039370078740157
                },
                {
                    "duration": 0.10416650000000516,
                    "durationTicks": 64,
                    "midi": 74,
                    "name": "D5",
                    "ticks": 33792,
                    "time": 54.999911999999995,
                    "velocity": 0.5039370078740157
                },
                {
                    "duration": 0.2083330000000032,
                    "durationTicks": 128,
                    "midi": 50,
                    "name": "D3",
                    "ticks": 33792,
                    "time": 54.999911999999995,
                    "velocity": 0.4330708661417323
                },
                {
                    "duration": 0.2083330000000032,
                    "durationTicks": 128,
                    "midi": 54,
                    "name": "F#3",
                    "ticks": 33792,
                    "time": 54.999911999999995,
                    "velocity": 0.4330708661417323
                },
                {
                    "duration": 0.2083330000000032,
                    "durationTicks": 128,
                    "midi": 60,
                    "name": "C4",
                    "ticks": 33792,
                    "time": 54.999911999999995,
                    "velocity": 0.4330708661417323
                },
                {
                    "duration": 0.10416649999999805,
                    "durationTicks": 64,
                    "midi": 73,
                    "name": "C#5",
                    "ticks": 33856,
                    "time": 55.1040785,
                    "velocity": 0.48031496062992124
                },
                {
                    "duration": 0.10416649999999805,
                    "durationTicks": 64,
                    "midi": 72,
                    "name": "C5",
                    "ticks": 33920,
                    "time": 55.208245,
                    "velocity": 0.44881889763779526
                },
                {
                    "duration": 0.10416649999999805,
                    "durationTicks": 64,
                    "midi": 71,
                    "name": "B4",
                    "ticks": 33984,
                    "time": 55.312411499999996,
                    "velocity": 0.4645669291338583
                },
                {
                    "duration": 0.10416650000000516,
                    "durationTicks": 64,
                    "midi": 70,
                    "name": "A#4",
                    "ticks": 34048,
                    "time": 55.416577999999994,
                    "velocity": 0.4330708661417323
                },
                {
                    "duration": 0.2083330000000032,
                    "durationTicks": 128,
                    "midi": 50,
                    "name": "D3",
                    "ticks": 34048,
                    "time": 55.416577999999994,
                    "velocity": 0.3937007874015748
                },
                {
                    "duration": 0.2083330000000032,
                    "durationTicks": 128,
                    "midi": 55,
                    "name": "G3",
                    "ticks": 34048,
                    "time": 55.416577999999994,
                    "velocity": 0.3937007874015748
                },
                {
                    "duration": 0.2083330000000032,
                    "durationTicks": 128,
                    "midi": 58,
                    "name": "A#3",
                    "ticks": 34048,
                    "time": 55.416577999999994,
                    "velocity": 0.3937007874015748
                },
                {
                    "duration": 0.10416649999999805,
                    "durationTicks": 64,
                    "midi": 75,
                    "name": "D#5",
                    "ticks": 34112,
                    "time": 55.5207445,
                    "velocity": 0.5826771653543307
                },
                {
                    "duration": 0.10416649999999805,
                    "durationTicks": 64,
                    "midi": 74,
                    "name": "D5",
                    "ticks": 34176,
                    "time": 55.624911,
                    "velocity": 0.4645669291338583
                },
                {
                    "duration": 0.10416650000000516,
                    "durationTicks": 64,
                    "midi": 73,
                    "name": "C#5",
                    "ticks": 34240,
                    "time": 55.729077499999995,
                    "velocity": 0.4330708661417323
                },
                {
                    "duration": 0.10416649999999805,
                    "durationTicks": 64,
                    "midi": 74,
                    "name": "D5",
                    "ticks": 34304,
                    "time": 55.833244,
                    "velocity": 0.5196850393700787
                },
                {
                    "duration": 0.2083329999999961,
                    "durationTicks": 128,
                    "midi": 55,
                    "name": "G3",
                    "ticks": 34304,
                    "time": 55.833244,
                    "velocity": 0.4251968503937008
                },
                {
                    "duration": 0.2083329999999961,
                    "durationTicks": 128,
                    "midi": 58,
                    "name": "A#3",
                    "ticks": 34304,
                    "time": 55.833244,
                    "velocity": 0.4251968503937008
                },
                {
                    "duration": 0.2083329999999961,
                    "durationTicks": 128,
                    "midi": 62,
                    "name": "D4",
                    "ticks": 34304,
                    "time": 55.833244,
                    "velocity": 0.4251968503937008
                },
                {
                    "duration": 0.10416649999999805,
                    "durationTicks": 64,
                    "midi": 73,
                    "name": "C#5",
                    "ticks": 34368,
                    "time": 55.9374105,
                    "velocity": 0.4645669291338583
                },
                {
                    "duration": 0.10416649999999805,
                    "durationTicks": 64,
                    "midi": 72,
                    "name": "C5",
                    "ticks": 34432,
                    "time": 56.041577,
                    "velocity": 0.41732283464566927
                },
                {
                    "duration": 0.10416650000000516,
                    "durationTicks": 64,
                    "midi": 71,
                    "name": "B4",
                    "ticks": 34496,
                    "time": 56.145743499999995,
                    "velocity": 0.4645669291338583
                },
                {
                    "duration": 0.10416649999999805,
                    "durationTicks": 64,
                    "midi": 70,
                    "name": "A#4",
                    "ticks": 34560,
                    "time": 56.24991,
                    "velocity": 0.4409448818897638
                },
                {
                    "duration": 0.2083329999999961,
                    "durationTicks": 128,
                    "midi": 55,
                    "name": "G3",
                    "ticks": 34560,
                    "time": 56.24991,
                    "velocity": 0.3937007874015748
                },
                {
                    "duration": 0.2083329999999961,
                    "durationTicks": 128,
                    "midi": 60,
                    "name": "C4",
                    "ticks": 34560,
                    "time": 56.24991,
                    "velocity": 0.3937007874015748
                },
                {
                    "duration": 0.2083329999999961,
                    "durationTicks": 128,
                    "midi": 64,
                    "name": "E4",
                    "ticks": 34560,
                    "time": 56.24991,
                    "velocity": 0.3937007874015748
                },
                {
                    "duration": 0.10416649999999805,
                    "durationTicks": 64,
                    "midi": 71,
                    "name": "B4",
                    "ticks": 34624,
                    "time": 56.3540765,
                    "velocity": 0.47244094488188976
                },
                {
                    "duration": 0.10416649999999805,
                    "durationTicks": 64,
                    "midi": 72,
                    "name": "C5",
                    "ticks": 34688,
                    "time": 56.458242999999996,
                    "velocity": 0.48031496062992124
                },
                {
                    "duration": 0.08300767968750478,
                    "durationTicks": 51,
                    "midi": 73,
                    "name": "C#5",
                    "ticks": 34752,
                    "time": 56.562409499999994,
                    "velocity": 0.5196850393700787
                },
                {
                    "duration": 0.10416649999999805,
                    "durationTicks": 64,
                    "midi": 74,
                    "name": "D5",
                    "ticks": 34816,
                    "time": 56.666576,
                    "velocity": 0.5039370078740157
                },
                {
                    "duration": 0.2083329999999961,
                    "durationTicks": 128,
                    "midi": 55,
                    "name": "G3",
                    "ticks": 34816,
                    "time": 56.666576,
                    "velocity": 0.4330708661417323
                },
                {
                    "duration": 0.2083329999999961,
                    "durationTicks": 128,
                    "midi": 58,
                    "name": "A#3",
                    "ticks": 34816,
                    "time": 56.666576,
                    "velocity": 0.4330708661417323
                },
                {
                    "duration": 0.2083329999999961,
                    "durationTicks": 128,
                    "midi": 62,
                    "name": "D4",
                    "ticks": 34816,
                    "time": 56.666576,
                    "velocity": 0.4330708661417323
                },
                {
                    "duration": 0.10416649999999805,
                    "durationTicks": 64,
                    "midi": 73,
                    "name": "C#5",
                    "ticks": 34880,
                    "time": 56.7707425,
                    "velocity": 0.4409448818897638
                },
                {
                    "duration": 0.10416650000000516,
                    "durationTicks": 64,
                    "midi": 72,
                    "name": "C5",
                    "ticks": 34944,
                    "time": 56.874908999999995,
                    "velocity": 0.4251968503937008
                },
                {
                    "duration": 0.10416649999999805,
                    "durationTicks": 64,
                    "midi": 71,
                    "name": "B4",
                    "ticks": 35008,
                    "time": 56.9790755,
                    "velocity": 0.4566929133858268
                },
                {
                    "duration": 0.10416649999999805,
                    "durationTicks": 64,
                    "midi": 70,
                    "name": "A#4",
                    "ticks": 35072,
                    "time": 57.083242,
                    "velocity": 0.4251968503937008
                },
                {
                    "duration": 0.10416649999999805,
                    "durationTicks": 64,
                    "midi": 75,
                    "name": "D#5",
                    "ticks": 35136,
                    "time": 57.1874085,
                    "velocity": 0.5433070866141733
                },
                {
                    "duration": 0.10416650000000516,
                    "durationTicks": 64,
                    "midi": 74,
                    "name": "D5",
                    "ticks": 35200,
                    "time": 57.291574999999995,
                    "velocity": 0.4881889763779528
                },
                {
                    "duration": 0.10416649999999805,
                    "durationTicks": 64,
                    "midi": 73,
                    "name": "C#5",
                    "ticks": 35264,
                    "time": 57.3957415,
                    "velocity": 0.4330708661417323
                },
                {
                    "duration": 0.10416649999999805,
                    "durationTicks": 64,
                    "midi": 74,
                    "name": "D5",
                    "ticks": 35328,
                    "time": 57.499908,
                    "velocity": 0.49606299212598426
                },
                {
                    "duration": 0.2083329999999961,
                    "durationTicks": 128,
                    "midi": 55,
                    "name": "G3",
                    "ticks": 35328,
                    "time": 57.499908,
                    "velocity": 0.4251968503937008
                },
                {
                    "duration": 0.2083329999999961,
                    "durationTicks": 128,
                    "midi": 58,
                    "name": "A#3",
                    "ticks": 35328,
                    "time": 57.499908,
                    "velocity": 0.4251968503937008
                },
                {
                    "duration": 0.2083329999999961,
                    "durationTicks": 128,
                    "midi": 62,
                    "name": "D4",
                    "ticks": 35328,
                    "time": 57.499908,
                    "velocity": 0.4251968503937008
                },
                {
                    "duration": 0.10416649999999805,
                    "durationTicks": 64,
                    "midi": 73,
                    "name": "C#5",
                    "ticks": 35392,
                    "time": 57.604074499999996,
                    "velocity": 0.4330708661417323
                },
                {
                    "duration": 0.10416650000000516,
                    "durationTicks": 64,
                    "midi": 72,
                    "name": "C5",
                    "ticks": 35456,
                    "time": 57.708240999999994,
                    "velocity": 0.4409448818897638
                },
                {
                    "duration": 0.10416649999999805,
                    "durationTicks": 64,
                    "midi": 71,
                    "name": "B4",
                    "ticks": 35520,
                    "time": 57.8124075,
                    "velocity": 0.4330708661417323
                },
                {
                    "duration": 0.10416649999999805,
                    "durationTicks": 64,
                    "midi": 70,
                    "name": "A#4",
                    "ticks": 35584,
                    "time": 57.916574,
                    "velocity": 0.4409448818897638
                },
                {
                    "duration": 0.2083330000000032,
                    "durationTicks": 128,
                    "midi": 55,
                    "name": "G3",
                    "ticks": 35584,
                    "time": 57.916574,
                    "velocity": 0.4015748031496063
                },
                {
                    "duration": 0.2083330000000032,
                    "durationTicks": 128,
                    "midi": 60,
                    "name": "C4",
                    "ticks": 35584,
                    "time": 57.916574,
                    "velocity": 0.4015748031496063
                },
                {
                    "duration": 0.2083330000000032,
                    "durationTicks": 128,
                    "midi": 64,
                    "name": "E4",
                    "ticks": 35584,
                    "time": 57.916574,
                    "velocity": 0.4015748031496063
                },
                {
                    "duration": 0.10416650000000516,
                    "durationTicks": 64,
                    "midi": 71,
                    "name": "B4",
                    "ticks": 35648,
                    "time": 58.020740499999995,
                    "velocity": 0.5039370078740157
                },
                {
                    "duration": 0.10416649999999805,
                    "durationTicks": 64,
                    "midi": 72,
                    "name": "C5",
                    "ticks": 35712,
                    "time": 58.124907,
                    "velocity": 0.4881889763779528
                },
                {
                    "duration": 0.08300767968749767,
                    "durationTicks": 51,
                    "midi": 73,
                    "name": "C#5",
                    "ticks": 35776,
                    "time": 58.2290735,
                    "velocity": 0.4645669291338583
                },
                {
                    "duration": 0.10416649999999805,
                    "durationTicks": 64,
                    "midi": 74,
                    "name": "D5",
                    "ticks": 35840,
                    "time": 58.333239999999996,
                    "velocity": 0.47244094488188976
                },
                {
                    "duration": 0.2083330000000032,
                    "durationTicks": 128,
                    "midi": 55,
                    "name": "G3",
                    "ticks": 35840,
                    "time": 58.333239999999996,
                    "velocity": 0.4251968503937008
                },
                {
                    "duration": 0.2083330000000032,
                    "durationTicks": 128,
                    "midi": 58,
                    "name": "A#3",
                    "ticks": 35840,
                    "time": 58.333239999999996,
                    "velocity": 0.4251968503937008
                },
                {
                    "duration": 0.2083330000000032,
                    "durationTicks": 128,
                    "midi": 62,
                    "name": "D4",
                    "ticks": 35840,
                    "time": 58.333239999999996,
                    "velocity": 0.4251968503937008
                },
                {
                    "duration": 0.10416650000000516,
                    "durationTicks": 64,
                    "midi": 73,
                    "name": "C#5",
                    "ticks": 35904,
                    "time": 58.437406499999994,
                    "velocity": 0.4566929133858268
                },
                {
                    "duration": 0.10416649999999805,
                    "durationTicks": 64,
                    "midi": 72,
                    "name": "C5",
                    "ticks": 35968,
                    "time": 58.541573,
                    "velocity": 0.5039370078740157
                },
                {
                    "duration": 0.10416649999999805,
                    "durationTicks": 64,
                    "midi": 71,
                    "name": "B4",
                    "ticks": 36032,
                    "time": 58.6457395,
                    "velocity": 0.4566929133858268
                },
                {
                    "duration": 0.10416649999999805,
                    "durationTicks": 64,
                    "midi": 72,
                    "name": "C5",
                    "ticks": 36096,
                    "time": 58.749905999999996,
                    "velocity": 0.4645669291338583
                },
                {
                    "duration": 0.2083330000000032,
                    "durationTicks": 128,
                    "midi": 55,
                    "name": "G3",
                    "ticks": 36096,
                    "time": 58.749905999999996,
                    "velocity": 0.4251968503937008
                },
                {
                    "duration": 0.2083330000000032,
                    "durationTicks": 128,
                    "midi": 60,
                    "name": "C4",
                    "ticks": 36096,
                    "time": 58.749905999999996,
                    "velocity": 0.4251968503937008
                },
                {
                    "duration": 0.2083330000000032,
                    "durationTicks": 128,
                    "midi": 63,
                    "name": "D#4",
                    "ticks": 36096,
                    "time": 58.749905999999996,
                    "velocity": 0.4251968503937008
                },
                {
                    "duration": 0.10416650000000516,
                    "durationTicks": 64,
                    "midi": 71,
                    "name": "B4",
                    "ticks": 36160,
                    "time": 58.854072499999994,
                    "velocity": 0.44881889763779526
                },
                {
                    "duration": 0.10416649999999805,
                    "durationTicks": 64,
                    "midi": 70,
                    "name": "A#4",
                    "ticks": 36224,
                    "time": 58.958239,
                    "velocity": 0.4251968503937008
                },
                {
                    "duration": 0.10416649999999805,
                    "durationTicks": 64,
                    "midi": 69,
                    "name": "A4",
                    "ticks": 36288,
                    "time": 59.0624055,
                    "velocity": 0.4409448818897638
                },
                {
                    "duration": 0.10416650000000516,
                    "durationTicks": 64,
                    "midi": 70,
                    "name": "A#4",
                    "ticks": 36352,
                    "time": 59.166571999999995,
                    "velocity": 0.47244094488188976
                },
                {
                    "duration": 0.2083330000000032,
                    "durationTicks": 128,
                    "midi": 55,
                    "name": "G3",
                    "ticks": 36352,
                    "time": 59.166571999999995,
                    "velocity": 0.4094488188976378
                },
                {
                    "duration": 0.2083330000000032,
                    "durationTicks": 128,
                    "midi": 58,
                    "name": "A#3",
                    "ticks": 36352,
                    "time": 59.166571999999995,
                    "velocity": 0.4094488188976378
                },
                {
                    "duration": 0.2083330000000032,
                    "durationTicks": 128,
                    "midi": 62,
                    "name": "D4",
                    "ticks": 36352,
                    "time": 59.166571999999995,
                    "velocity": 0.4094488188976378
                },
                {
                    "duration": 0.10416649999999805,
                    "durationTicks": 64,
                    "midi": 71,
                    "name": "B4",
                    "ticks": 36416,
                    "time": 59.2707385,
                    "velocity": 0.4645669291338583
                },
                {
                    "duration": 0.10416649999999805,
                    "durationTicks": 64,
                    "midi": 72,
                    "name": "C5",
                    "ticks": 36480,
                    "time": 59.374905,
                    "velocity": 0.5275590551181102
                },
                {
                    "duration": 0.10416649999999805,
                    "durationTicks": 64,
                    "midi": 73,
                    "name": "C#5",
                    "ticks": 36544,
                    "time": 59.479071499999996,
                    "velocity": 0.5039370078740157
                },
                {
                    "duration": 0.10416650000000516,
                    "durationTicks": 64,
                    "midi": 74,
                    "name": "D5",
                    "ticks": 36608,
                    "time": 59.583237999999994,
                    "velocity": 0.5275590551181102
                },
                {
                    "duration": 0.2083330000000032,
                    "durationTicks": 128,
                    "midi": 57,
                    "name": "A3",
                    "ticks": 36608,
                    "time": 59.583237999999994,
                    "velocity": 0.4330708661417323
                },
                {
                    "duration": 0.2083330000000032,
                    "durationTicks": 128,
                    "midi": 60,
                    "name": "C4",
                    "ticks": 36608,
                    "time": 59.583237999999994,
                    "velocity": 0.4330708661417323
                },
                {
                    "duration": 0.2083330000000032,
                    "durationTicks": 128,
                    "midi": 62,
                    "name": "D4",
                    "ticks": 36608,
                    "time": 59.583237999999994,
                    "velocity": 0.4330708661417323
                },
                {
                    "duration": 0.10416649999999805,
                    "durationTicks": 64,
                    "midi": 75,
                    "name": "D#5",
                    "ticks": 36672,
                    "time": 59.6874045,
                    "velocity": 0.5039370078740157
                },
                {
                    "duration": 0.10416649999999805,
                    "durationTicks": 64,
                    "midi": 74,
                    "name": "D5",
                    "ticks": 36736,
                    "time": 59.791571,
                    "velocity": 0.44881889763779526
                },
                {
                    "duration": 0.08300767968750478,
                    "durationTicks": 51,
                    "midi": 73,
                    "name": "C#5",
                    "ticks": 36800,
                    "time": 59.895737499999996,
                    "velocity": 0.4251968503937008
                },
                {
                    "duration": 0.10416649999999805,
                    "durationTicks": 64,
                    "midi": 74,
                    "name": "D5",
                    "ticks": 36864,
                    "time": 59.999904,
                    "velocity": 0.4881889763779528
                },
                {
                    "duration": 0.2083329999999961,
                    "durationTicks": 128,
                    "midi": 55,
                    "name": "G3",
                    "ticks": 36864,
                    "time": 59.999904,
                    "velocity": 0.4330708661417323
                },
                {
                    "duration": 0.2083329999999961,
                    "durationTicks": 128,
                    "midi": 58,
                    "name": "A#3",
                    "ticks": 36864,
                    "time": 59.999904,
                    "velocity": 0.4330708661417323
                },
                {
                    "duration": 0.2083329999999961,
                    "durationTicks": 128,
                    "midi": 62,
                    "name": "D4",
                    "ticks": 36864,
                    "time": 59.999904,
                    "velocity": 0.4330708661417323
                },
                {
                    "duration": 0.10416649999999805,
                    "durationTicks": 64,
                    "midi": 73,
                    "name": "C#5",
                    "ticks": 36928,
                    "time": 60.1040705,
                    "velocity": 0.4094488188976378
                },
                {
                    "duration": 0.10416649999999805,
                    "durationTicks": 64,
                    "midi": 72,
                    "name": "C5",
                    "ticks": 36992,
                    "time": 60.208237,
                    "velocity": 0.4645669291338583
                },
                {
                    "duration": 0.10416650000000516,
                    "durationTicks": 64,
                    "midi": 71,
                    "name": "B4",
                    "ticks": 37056,
                    "time": 60.312403499999995,
                    "velocity": 0.4409448818897638
                },
                {
                    "duration": 0.10416649999999805,
                    "durationTicks": 64,
                    "midi": 72,
                    "name": "C5",
                    "ticks": 37120,
                    "time": 60.41657,
                    "velocity": 0.4881889763779528
                },
                {
                    "duration": 0.2083329999999961,
                    "durationTicks": 128,
                    "midi": 55,
                    "name": "G3",
                    "ticks": 37120,
                    "time": 60.41657,
                    "velocity": 0.4015748031496063
                },
                {
                    "duration": 0.2083329999999961,
                    "durationTicks": 128,
                    "midi": 60,
                    "name": "C4",
                    "ticks": 37120,
                    "time": 60.41657,
                    "velocity": 0.4015748031496063
                },
                {
                    "duration": 0.2083329999999961,
                    "durationTicks": 128,
                    "midi": 63,
                    "name": "D#4",
                    "ticks": 37120,
                    "time": 60.41657,
                    "velocity": 0.4015748031496063
                },
                {
                    "duration": 0.10416649999999805,
                    "durationTicks": 64,
                    "midi": 71,
                    "name": "B4",
                    "ticks": 37184,
                    "time": 60.5207365,
                    "velocity": 0.41732283464566927
                },
                {
                    "duration": 0.10416649999999805,
                    "durationTicks": 64,
                    "midi": 70,
                    "name": "A#4",
                    "ticks": 37248,
                    "time": 60.624902999999996,
                    "velocity": 0.4409448818897638
                },
                {
                    "duration": 0.10416650000000516,
                    "durationTicks": 64,
                    "midi": 69,
                    "name": "A4",
                    "ticks": 37312,
                    "time": 60.729069499999994,
                    "velocity": 0.44881889763779526
                },
                {
                    "duration": 0.10416649999999805,
                    "durationTicks": 64,
                    "midi": 70,
                    "name": "A#4",
                    "ticks": 37376,
                    "time": 60.833236,
                    "velocity": 0.47244094488188976
                },
                {
                    "duration": 0.2083329999999961,
                    "durationTicks": 128,
                    "midi": 55,
                    "name": "G3",
                    "ticks": 37376,
                    "time": 60.833236,
                    "velocity": 0.4094488188976378
                },
                {
                    "duration": 0.2083329999999961,
                    "durationTicks": 128,
                    "midi": 58,
                    "name": "A#3",
                    "ticks": 37376,
                    "time": 60.833236,
                    "velocity": 0.4094488188976378
                },
                {
                    "duration": 0.2083329999999961,
                    "durationTicks": 128,
                    "midi": 62,
                    "name": "D4",
                    "ticks": 37376,
                    "time": 60.833236,
                    "velocity": 0.4094488188976378
                },
                {
                    "duration": 0.10416649999999805,
                    "durationTicks": 64,
                    "midi": 71,
                    "name": "B4",
                    "ticks": 37440,
                    "time": 60.9374025,
                    "velocity": 0.5039370078740157
                },
                {
                    "duration": 0.10416650000000516,
                    "durationTicks": 64,
                    "midi": 72,
                    "name": "C5",
                    "ticks": 37504,
                    "time": 61.041568999999996,
                    "velocity": 0.49606299212598426
                },
                {
                    "duration": 0.10416649999999805,
                    "durationTicks": 64,
                    "midi": 73,
                    "name": "C#5",
                    "ticks": 37568,
                    "time": 61.1457355,
                    "velocity": 0.5118110236220472
                },
                {
                    "duration": 0.10416649999999805,
                    "durationTicks": 64,
                    "midi": 74,
                    "name": "D5",
                    "ticks": 37632,
                    "time": 61.249902,
                    "velocity": 0.5039370078740157
                },
                {
                    "duration": 0.2083329999999961,
                    "durationTicks": 128,
                    "midi": 54,
                    "name": "F#3",
                    "ticks": 37632,
                    "time": 61.249902,
                    "velocity": 0.4251968503937008
                },
                {
                    "duration": 0.2083329999999961,
                    "durationTicks": 128,
                    "midi": 60,
                    "name": "C4",
                    "ticks": 37632,
                    "time": 61.249902,
                    "velocity": 0.4251968503937008
                },
                {
                    "duration": 0.2083329999999961,
                    "durationTicks": 128,
                    "midi": 62,
                    "name": "D4",
                    "ticks": 37632,
                    "time": 61.249902,
                    "velocity": 0.4251968503937008
                },
                {
                    "duration": 0.10416649999999805,
                    "durationTicks": 64,
                    "midi": 75,
                    "name": "D#5",
                    "ticks": 37696,
                    "time": 61.3540685,
                    "velocity": 0.47244094488188976
                },
                {
                    "duration": 0.10416650000000516,
                    "durationTicks": 64,
                    "midi": 74,
                    "name": "D5",
                    "ticks": 37760,
                    "time": 61.458234999999995,
                    "velocity": 0.4645669291338583
                },
                {
                    "duration": 0.08300767968749767,
                    "durationTicks": 51,
                    "midi": 73,
                    "name": "C#5",
                    "ticks": 37824,
                    "time": 61.5624015,
                    "velocity": 0.41732283464566927
                },
                {
                    "duration": 0.10416649999999805,
                    "durationTicks": 64,
                    "midi": 74,
                    "name": "D5",
                    "ticks": 37888,
                    "time": 61.666568,
                    "velocity": 0.6692913385826772
                },
                {
                    "duration": 0.1025388984375013,
                    "durationTicks": 63,
                    "midi": 55,
                    "name": "G3",
                    "ticks": 37888,
                    "time": 61.666568,
                    "velocity": 0.4330708661417323
                },
                {
                    "duration": 0.1025388984375013,
                    "durationTicks": 63,
                    "midi": 58,
                    "name": "A#3",
                    "ticks": 37888,
                    "time": 61.666568,
                    "velocity": 0.4330708661417323
                },
                {
                    "duration": 0.08300767968749767,
                    "durationTicks": 51,
                    "midi": 62,
                    "name": "D4",
                    "ticks": 37952,
                    "time": 61.770734499999996,
                    "velocity": 0.3543307086614173
                },
                {
                    "duration": 0.05045564843750583,
                    "durationTicks": 31,
                    "midi": 62,
                    "name": "D4",
                    "ticks": 38016,
                    "time": 61.874900999999994,
                    "velocity": 0.41732283464566927
                },
                {
                    "duration": 0.050455648437498724,
                    "durationTicks": 31,
                    "midi": 62,
                    "name": "D4",
                    "ticks": 38080,
                    "time": 61.9790675,
                    "velocity": 0.48031496062992124
                },
                {
                    "duration": 0.050455648437498724,
                    "durationTicks": 31,
                    "midi": 62,
                    "name": "D4",
                    "ticks": 38144,
                    "time": 62.083234,
                    "velocity": 0.4881889763779528
                },
                {
                    "duration": 0.050455648437498724,
                    "durationTicks": 31,
                    "midi": 62,
                    "name": "D4",
                    "ticks": 38208,
                    "time": 62.187400499999995,
                    "velocity": 0.4566929133858268
                },
                {
                    "duration": 0.050455648437498724,
                    "durationTicks": 31,
                    "midi": 62,
                    "name": "D4",
                    "ticks": 38272,
                    "time": 62.291567,
                    "velocity": 0.4566929133858268
                },
                {
                    "duration": 0.050455648437498724,
                    "durationTicks": 31,
                    "midi": 62,
                    "name": "D4",
                    "ticks": 38336,
                    "time": 62.3957335,
                    "velocity": 0.48031496062992124
                },
                {
                    "duration": 0.10416649999999805,
                    "durationTicks": 64,
                    "midi": 61,
                    "name": "C#4",
                    "ticks": 38400,
                    "time": 62.4999,
                    "velocity": 0.4094488188976378
                },
                {
                    "duration": 0.10416649999999805,
                    "durationTicks": 64,
                    "midi": 63,
                    "name": "D#4",
                    "ticks": 38400,
                    "time": 62.4999,
                    "velocity": 0.4094488188976378
                },
                {
                    "duration": 0.10416650000000516,
                    "durationTicks": 64,
                    "midi": 62,
                    "name": "D4",
                    "ticks": 38464,
                    "time": 62.604066499999995,
                    "velocity": 0.47244094488188976
                },
                {
                    "duration": 0.10416649999999805,
                    "durationTicks": 64,
                    "midi": 61,
                    "name": "C#4",
                    "ticks": 38528,
                    "time": 62.708233,
                    "velocity": 0.5196850393700787
                },
                {
                    "duration": 0.10416649999999805,
                    "durationTicks": 64,
                    "midi": 63,
                    "name": "D#4",
                    "ticks": 38528,
                    "time": 62.708233,
                    "velocity": 0.5196850393700787
                },
                {
                    "duration": 0.10416649999999805,
                    "durationTicks": 64,
                    "midi": 75,
                    "name": "D#5",
                    "ticks": 38592,
                    "time": 62.8123995,
                    "velocity": 0.5984251968503937
                },
                {
                    "duration": 0.10416649999999805,
                    "durationTicks": 64,
                    "midi": 61,
                    "name": "C#4",
                    "ticks": 38656,
                    "time": 62.916565999999996,
                    "velocity": 0.3700787401574803
                },
                {
                    "duration": 0.10416649999999805,
                    "durationTicks": 64,
                    "midi": 63,
                    "name": "D#4",
                    "ticks": 38656,
                    "time": 62.916565999999996,
                    "velocity": 0.3700787401574803
                },
                {
                    "duration": 0.10416650000000516,
                    "durationTicks": 64,
                    "midi": 62,
                    "name": "D4",
                    "ticks": 38720,
                    "time": 63.020732499999994,
                    "velocity": 0.41732283464566927
                },
                {
                    "duration": 0.10416649999999805,
                    "durationTicks": 64,
                    "midi": 61,
                    "name": "C#4",
                    "ticks": 38784,
                    "time": 63.124899,
                    "velocity": 0.48031496062992124
                },
                {
                    "duration": 0.10416649999999805,
                    "durationTicks": 64,
                    "midi": 63,
                    "name": "D#4",
                    "ticks": 38784,
                    "time": 63.124899,
                    "velocity": 0.48031496062992124
                },
                {
                    "duration": 0.10416649999999805,
                    "durationTicks": 64,
                    "midi": 75,
                    "name": "D#5",
                    "ticks": 38848,
                    "time": 63.2290655,
                    "velocity": 0.5669291338582677
                },
                {
                    "duration": 0.050455648437498724,
                    "durationTicks": 31,
                    "midi": 74,
                    "name": "D5",
                    "ticks": 38912,
                    "time": 63.333231999999995,
                    "velocity": 0.41732283464566927
                },
                {
                    "duration": 0.10416650000000516,
                    "durationTicks": 64,
                    "midi": 62,
                    "name": "D4",
                    "ticks": 38912,
                    "time": 63.333231999999995,
                    "velocity": 0.33858267716535434
                },
                {
                    "duration": 0.050455648437498724,
                    "durationTicks": 31,
                    "midi": 74,
                    "name": "D5",
                    "ticks": 38976,
                    "time": 63.4373985,
                    "velocity": 0.47244094488188976
                },
                {
                    "duration": 0.050455648437498724,
                    "durationTicks": 31,
                    "midi": 74,
                    "name": "D5",
                    "ticks": 39040,
                    "time": 63.541565,
                    "velocity": 0.4409448818897638
                },
                {
                    "duration": 0.050455648437498724,
                    "durationTicks": 31,
                    "midi": 74,
                    "name": "D5",
                    "ticks": 39104,
                    "time": 63.6457315,
                    "velocity": 0.4566929133858268
                },
                {
                    "duration": 0.05045564843750583,
                    "durationTicks": 31,
                    "midi": 74,
                    "name": "D5",
                    "ticks": 39168,
                    "time": 63.749897999999995,
                    "velocity": 0.4881889763779528
                },
                {
                    "duration": 0.050455648437498724,
                    "durationTicks": 31,
                    "midi": 74,
                    "name": "D5",
                    "ticks": 39232,
                    "time": 63.8540645,
                    "velocity": 0.49606299212598426
                },
                {
                    "duration": 0.05045564843750583,
                    "durationTicks": 31,
                    "midi": 74,
                    "name": "D5",
                    "ticks": 39296,
                    "time": 63.958231,
                    "velocity": 0.47244094488188976
                },
                {
                    "duration": 0.05045564843749162,
                    "durationTicks": 31,
                    "midi": 74,
                    "name": "D5",
                    "ticks": 39360,
                    "time": 64.0623975,
                    "velocity": 0.5039370078740157
                },
                {
                    "duration": 0.05045564843750583,
                    "durationTicks": 31,
                    "midi": 73,
                    "name": "C#5",
                    "ticks": 39424,
                    "time": 64.166564,
                    "velocity": 0.4881889763779528
                },
                {
                    "duration": 0.05045564843750583,
                    "durationTicks": 31,
                    "midi": 75,
                    "name": "D#5",
                    "ticks": 39424,
                    "time": 64.166564,
                    "velocity": 0.4881889763779528
                },
                {
                    "duration": 0.05045564843749162,
                    "durationTicks": 31,
                    "midi": 74,
                    "name": "D5",
                    "ticks": 39488,
                    "time": 64.2707305,
                    "velocity": 0.48031496062992124
                },
                {
                    "duration": 0.05045564843750583,
                    "durationTicks": 31,
                    "midi": 73,
                    "name": "C#5",
                    "ticks": 39552,
                    "time": 64.37489699999999,
                    "velocity": 0.47244094488188976
                },
                {
                    "duration": 0.05045564843750583,
                    "durationTicks": 31,
                    "midi": 75,
                    "name": "D#5",
                    "ticks": 39552,
                    "time": 64.37489699999999,
                    "velocity": 0.47244094488188976
                },
                {
                    "duration": 0.05045564843750583,
                    "durationTicks": 31,
                    "midi": 87,
                    "name": "D#6",
                    "ticks": 39616,
                    "time": 64.4790635,
                    "velocity": 0.5905511811023622
                },
                {
                    "duration": 0.05045564843749162,
                    "durationTicks": 31,
                    "midi": 73,
                    "name": "C#5",
                    "ticks": 39680,
                    "time": 64.58323,
                    "velocity": 0.3464566929133858
                },
                {
                    "duration": 0.05045564843749162,
                    "durationTicks": 31,
                    "midi": 75,
                    "name": "D#5",
                    "ticks": 39680,
                    "time": 64.58323,
                    "velocity": 0.3464566929133858
                },
                {
                    "duration": 0.05045564843750583,
                    "durationTicks": 31,
                    "midi": 74,
                    "name": "D5",
                    "ticks": 39744,
                    "time": 64.68739649999999,
                    "velocity": 0.48031496062992124
                },
                {
                    "duration": 0.05045564843750583,
                    "durationTicks": 31,
                    "midi": 73,
                    "name": "C#5",
                    "ticks": 39808,
                    "time": 64.791563,
                    "velocity": 0.5196850393700787
                },
                {
                    "duration": 0.05045564843750583,
                    "durationTicks": 31,
                    "midi": 75,
                    "name": "D#5",
                    "ticks": 39808,
                    "time": 64.791563,
                    "velocity": 0.5196850393700787
                },
                {
                    "duration": 0.10416649999999095,
                    "durationTicks": 64,
                    "midi": 87,
                    "name": "D#6",
                    "ticks": 39872,
                    "time": 64.8957295,
                    "velocity": 0.5826771653543307
                },
                {
                    "duration": 0.10416650000000516,
                    "durationTicks": 64,
                    "midi": 86,
                    "name": "D6",
                    "ticks": 39936,
                    "time": 64.99989599999999,
                    "velocity": 0.49606299212598426
                },
                {
                    "duration": 0.10416650000000516,
                    "durationTicks": 64,
                    "midi": 74,
                    "name": "D5",
                    "ticks": 39936,
                    "time": 64.99989599999999,
                    "velocity": 0.4015748031496063
                },
                {
                    "duration": 0.10416650000000516,
                    "durationTicks": 64,
                    "midi": 75,
                    "name": "D#5",
                    "ticks": 40000,
                    "time": 65.1040625,
                    "velocity": 0.36220472440944884
                },
                {
                    "duration": 0.10416649999999095,
                    "durationTicks": 64,
                    "midi": 74,
                    "name": "D5",
                    "ticks": 40064,
                    "time": 65.208229,
                    "velocity": 0.4251968503937008
                },
                {
                    "duration": 0.10416650000000516,
                    "durationTicks": 64,
                    "midi": 73,
                    "name": "C#5",
                    "ticks": 40128,
                    "time": 65.3123955,
                    "velocity": 0.4645669291338583
                },
                {
                    "duration": 0.10416649999999095,
                    "durationTicks": 64,
                    "midi": 74,
                    "name": "D5",
                    "ticks": 40192,
                    "time": 65.416562,
                    "velocity": 0.49606299212598426
                },
                {
                    "duration": 0.10416650000000516,
                    "durationTicks": 64,
                    "midi": 75,
                    "name": "D#5",
                    "ticks": 40256,
                    "time": 65.52072849999999,
                    "velocity": 0.5196850393700787
                },
                {
                    "duration": 0.10416650000000516,
                    "durationTicks": 64,
                    "midi": 74,
                    "name": "D5",
                    "ticks": 40320,
                    "time": 65.624895,
                    "velocity": 0.44881889763779526
                },
                {
                    "duration": 0.10416649999999095,
                    "durationTicks": 64,
                    "midi": 73,
                    "name": "C#5",
                    "ticks": 40384,
                    "time": 65.7290615,
                    "velocity": 0.4330708661417323
                },
                {
                    "duration": 0.10416650000000516,
                    "durationTicks": 64,
                    "midi": 74,
                    "name": "D5",
                    "ticks": 40448,
                    "time": 65.83322799999999,
                    "velocity": 0.4566929133858268
                },
                {
                    "duration": 0.1025388984375013,
                    "durationTicks": 63,
                    "midi": 62,
                    "name": "D4",
                    "ticks": 40448,
                    "time": 65.83322799999999,
                    "velocity": 0.4566929133858268
                },
                {
                    "duration": 0.10416650000000516,
                    "durationTicks": 64,
                    "midi": 75,
                    "name": "D#5",
                    "ticks": 40512,
                    "time": 65.9373945,
                    "velocity": 0.5354330708661418
                },
                {
                    "duration": 0.10416649999999095,
                    "durationTicks": 64,
                    "midi": 74,
                    "name": "D5",
                    "ticks": 40576,
                    "time": 66.041561,
                    "velocity": 0.5196850393700787
                },
                {
                    "duration": 0.1025388984375013,
                    "durationTicks": 63,
                    "midi": 61,
                    "name": "C#4",
                    "ticks": 40576,
                    "time": 66.041561,
                    "velocity": 0.5669291338582677
                },
                {
                    "duration": 0.1025388984375013,
                    "durationTicks": 63,
                    "midi": 63,
                    "name": "D#4",
                    "ticks": 40576,
                    "time": 66.041561,
                    "velocity": 0.5669291338582677
                },
                {
                    "duration": 0.10416650000000516,
                    "durationTicks": 64,
                    "midi": 73,
                    "name": "C#5",
                    "ticks": 40640,
                    "time": 66.14572749999999,
                    "velocity": 0.5826771653543307
                },
                {
                    "duration": 0.10416650000000516,
                    "durationTicks": 64,
                    "midi": 74,
                    "name": "D5",
                    "ticks": 40704,
                    "time": 66.249894,
                    "velocity": 0.6456692913385826
                },
                {
                    "duration": 0.1025388984375013,
                    "durationTicks": 63,
                    "midi": 60,
                    "name": "C4",
                    "ticks": 40704,
                    "time": 66.249894,
                    "velocity": 0.6456692913385826
                },
                {
                    "duration": 0.1025388984375013,
                    "durationTicks": 63,
                    "midi": 64,
                    "name": "E4",
                    "ticks": 40704,
                    "time": 66.249894,
                    "velocity": 0.6456692913385826
                },
                {
                    "duration": 0.10416649999999095,
                    "durationTicks": 64,
                    "midi": 75,
                    "name": "D#5",
                    "ticks": 40768,
                    "time": 66.3540605,
                    "velocity": 0.6692913385826772
                },
                {
                    "duration": 0.10416650000000516,
                    "durationTicks": 64,
                    "midi": 74,
                    "name": "D5",
                    "ticks": 40832,
                    "time": 66.458227,
                    "velocity": 0.7165354330708661
                },
                {
                    "duration": 0.1025388984375013,
                    "durationTicks": 63,
                    "midi": 59,
                    "name": "B3",
                    "ticks": 40832,
                    "time": 66.458227,
                    "velocity": 0.7165354330708661
                },
                {
                    "duration": 0.1025388984375013,
                    "durationTicks": 63,
                    "midi": 65,
                    "name": "F4",
                    "ticks": 40832,
                    "time": 66.458227,
                    "velocity": 0.7165354330708661
                },
                {
                    "duration": 0.08300767968749767,
                    "durationTicks": 51,
                    "midi": 73,
                    "name": "C#5",
                    "ticks": 40896,
                    "time": 66.5623935,
                    "velocity": 0.7165354330708661
                },
                {
                    "duration": 0.10416649999999095,
                    "durationTicks": 64,
                    "midi": 74,
                    "name": "D5",
                    "ticks": 40960,
                    "time": 66.66656,
                    "velocity": 0.6929133858267716
                },
                {
                    "duration": 0.10416649999999095,
                    "durationTicks": 64,
                    "midi": 66,
                    "name": "F#4",
                    "ticks": 40960,
                    "time": 66.66656,
                    "velocity": 0.6771653543307087
                },
                {
                    "duration": 1.6666639999999973,
                    "durationTicks": 1024,
                    "midi": 58,
                    "name": "A#3",
                    "ticks": 40960,
                    "time": 66.66656,
                    "velocity": 0.7086614173228346
                },
                {
                    "duration": 0.10416650000000516,
                    "durationTicks": 64,
                    "midi": 75,
                    "name": "D#5",
                    "ticks": 41024,
                    "time": 66.7707265,
                    "velocity": 0.6850393700787402
                },
                {
                    "duration": 0.10416650000000516,
                    "durationTicks": 64,
                    "midi": 62,
                    "name": "D4",
                    "ticks": 41024,
                    "time": 66.7707265,
                    "velocity": 0.5669291338582677
                },
                {
                    "duration": 0.10416649999999095,
                    "durationTicks": 64,
                    "midi": 76,
                    "name": "E5",
                    "ticks": 41088,
                    "time": 66.874893,
                    "velocity": 0.7244094488188977
                },
                {
                    "duration": 0.10416649999999095,
                    "durationTicks": 64,
                    "midi": 66,
                    "name": "F#4",
                    "ticks": 41088,
                    "time": 66.874893,
                    "velocity": 0.7559055118110236
                },
                {
                    "duration": 0.10416650000000516,
                    "durationTicks": 64,
                    "midi": 77,
                    "name": "F5",
                    "ticks": 41152,
                    "time": 66.97905949999999,
                    "velocity": 0.8267716535433071
                },
                {
                    "duration": 0.10416650000000516,
                    "durationTicks": 64,
                    "midi": 62,
                    "name": "D4",
                    "ticks": 41152,
                    "time": 66.97905949999999,
                    "velocity": 0.6692913385826772
                },
                {
                    "duration": 0.10416650000000516,
                    "durationTicks": 64,
                    "midi": 78,
                    "name": "F#5",
                    "ticks": 41216,
                    "time": 67.083226,
                    "velocity": 0.7795275590551181
                },
                {
                    "duration": 0.10416650000000516,
                    "durationTicks": 64,
                    "midi": 66,
                    "name": "F#4",
                    "ticks": 41216,
                    "time": 67.083226,
                    "velocity": 0.8976377952755905
                },
                {
                    "duration": 0.10416649999999095,
                    "durationTicks": 64,
                    "midi": 77,
                    "name": "F5",
                    "ticks": 41280,
                    "time": 67.1873925,
                    "velocity": 0.5984251968503937
                },
                {
                    "duration": 0.10416649999999095,
                    "durationTicks": 64,
                    "midi": 62,
                    "name": "D4",
                    "ticks": 41280,
                    "time": 67.1873925,
                    "velocity": 0.5984251968503937
                },
                {
                    "duration": 0.10416650000000516,
                    "durationTicks": 64,
                    "midi": 76,
                    "name": "E5",
                    "ticks": 41344,
                    "time": 67.29155899999999,
                    "velocity": 0.49606299212598426
                },
                {
                    "duration": 0.10416650000000516,
                    "durationTicks": 64,
                    "midi": 66,
                    "name": "F#4",
                    "ticks": 41344,
                    "time": 67.29155899999999,
                    "velocity": 0.5196850393700787
                },
                {
                    "duration": 0.10416650000000516,
                    "durationTicks": 64,
                    "midi": 75,
                    "name": "D#5",
                    "ticks": 41408,
                    "time": 67.3957255,
                    "velocity": 0.36220472440944884
                },
                {
                    "duration": 0.10416650000000516,
                    "durationTicks": 64,
                    "midi": 62,
                    "name": "D4",
                    "ticks": 41408,
                    "time": 67.3957255,
                    "velocity": 0.3228346456692913
                },
                {
                    "duration": 0.10416649999999095,
                    "durationTicks": 64,
                    "midi": 74,
                    "name": "D5",
                    "ticks": 41472,
                    "time": 67.499892,
                    "velocity": 0.36220472440944884
                },
                {
                    "duration": 0.10416649999999095,
                    "durationTicks": 64,
                    "midi": 66,
                    "name": "F#4",
                    "ticks": 41472,
                    "time": 67.499892,
                    "velocity": 0.4015748031496063
                },
                {
                    "duration": 0.10416650000000516,
                    "durationTicks": 64,
                    "midi": 75,
                    "name": "D#5",
                    "ticks": 41536,
                    "time": 67.6040585,
                    "velocity": 0.5433070866141733
                },
                {
                    "duration": 0.10416650000000516,
                    "durationTicks": 64,
                    "midi": 62,
                    "name": "D4",
                    "ticks": 41536,
                    "time": 67.6040585,
                    "velocity": 0.4566929133858268
                },
                {
                    "duration": 0.10416650000000516,
                    "durationTicks": 64,
                    "midi": 76,
                    "name": "E5",
                    "ticks": 41600,
                    "time": 67.708225,
                    "velocity": 0.6377952755905512
                },
                {
                    "duration": 0.10416650000000516,
                    "durationTicks": 64,
                    "midi": 66,
                    "name": "F#4",
                    "ticks": 41600,
                    "time": 67.708225,
                    "velocity": 0.6377952755905512
                },
                {
                    "duration": 0.10416649999999095,
                    "durationTicks": 64,
                    "midi": 77,
                    "name": "F5",
                    "ticks": 41664,
                    "time": 67.8123915,
                    "velocity": 0.8188976377952756
                },
                {
                    "duration": 0.10416649999999095,
                    "durationTicks": 64,
                    "midi": 62,
                    "name": "D4",
                    "ticks": 41664,
                    "time": 67.8123915,
                    "velocity": 0.6850393700787402
                },
                {
                    "duration": 0.10416650000000516,
                    "durationTicks": 64,
                    "midi": 78,
                    "name": "F#5",
                    "ticks": 41728,
                    "time": 67.916558,
                    "velocity": 0.8188976377952756
                },
                {
                    "duration": 0.10416650000000516,
                    "durationTicks": 64,
                    "midi": 66,
                    "name": "F#4",
                    "ticks": 41728,
                    "time": 67.916558,
                    "velocity": 0.8188976377952756
                },
                {
                    "duration": 0.10416649999999095,
                    "durationTicks": 64,
                    "midi": 77,
                    "name": "F5",
                    "ticks": 41792,
                    "time": 68.0207245,
                    "velocity": 0.5984251968503937
                },
                {
                    "duration": 0.10416649999999095,
                    "durationTicks": 64,
                    "midi": 62,
                    "name": "D4",
                    "ticks": 41792,
                    "time": 68.0207245,
                    "velocity": 0.6141732283464567
                },
                {
                    "duration": 0.10416650000000516,
                    "durationTicks": 64,
                    "midi": 76,
                    "name": "E5",
                    "ticks": 41856,
                    "time": 68.12489099999999,
                    "velocity": 0.4881889763779528
                },
                {
                    "duration": 0.10416650000000516,
                    "durationTicks": 64,
                    "midi": 66,
                    "name": "F#4",
                    "ticks": 41856,
                    "time": 68.12489099999999,
                    "velocity": 0.5275590551181102
                },
                {
                    "duration": 0.08300767968749767,
                    "durationTicks": 51,
                    "midi": 75,
                    "name": "D#5",
                    "ticks": 41920,
                    "time": 68.2290575,
                    "velocity": 0.36220472440944884
                },
                {
                    "duration": 0.10416650000000516,
                    "durationTicks": 64,
                    "midi": 62,
                    "name": "D4",
                    "ticks": 41920,
                    "time": 68.2290575,
                    "velocity": 0.31496062992125984
                },
                {
                    "duration": 0.10416649999999095,
                    "durationTicks": 64,
                    "midi": 74,
                    "name": "D5",
                    "ticks": 41984,
                    "time": 68.333224,
                    "velocity": 0.3779527559055118
                },
                {
                    "duration": 0.1025388984375013,
                    "durationTicks": 63,
                    "midi": 59,
                    "name": "B3",
                    "ticks": 41984,
                    "time": 68.333224,
                    "velocity": 0.4094488188976378
                },
                {
                    "duration": 0.1025388984375013,
                    "durationTicks": 63,
                    "midi": 62,
                    "name": "D4",
                    "ticks": 41984,
                    "time": 68.333224,
                    "velocity": 0.4094488188976378
                },
                {
                    "duration": 0.1025388984375013,
                    "durationTicks": 63,
                    "midi": 67,
                    "name": "G4",
                    "ticks": 41984,
                    "time": 68.333224,
                    "velocity": 0.4094488188976378
                },
                {
                    "duration": 0.08300767968749767,
                    "durationTicks": 51,
                    "midi": 67,
                    "name": "G4",
                    "ticks": 42048,
                    "time": 68.43739049999999,
                    "velocity": 0.2755905511811024
                },
                {
                    "duration": 0.05045564843750583,
                    "durationTicks": 31,
                    "midi": 67,
                    "name": "G4",
                    "ticks": 42112,
                    "time": 68.541557,
                    "velocity": 0.4409448818897638
                },
                {
                    "duration": 0.05045564843749162,
                    "durationTicks": 31,
                    "midi": 67,
                    "name": "G4",
                    "ticks": 42176,
                    "time": 68.6457235,
                    "velocity": 0.48031496062992124
                },
                {
                    "duration": 0.05045564843750583,
                    "durationTicks": 31,
                    "midi": 67,
                    "name": "G4",
                    "ticks": 42240,
                    "time": 68.74989,
                    "velocity": 0.5669291338582677
                },
                {
                    "duration": 0.05045564843749162,
                    "durationTicks": 31,
                    "midi": 67,
                    "name": "G4",
                    "ticks": 42304,
                    "time": 68.8540565,
                    "velocity": 0.6220472440944882
                },
                {
                    "duration": 0.05045564843749162,
                    "durationTicks": 31,
                    "midi": 67,
                    "name": "G4",
                    "ticks": 42368,
                    "time": 68.958223,
                    "velocity": 0.6850393700787402
                },
                {
                    "duration": 0.05045564843750583,
                    "durationTicks": 31,
                    "midi": 67,
                    "name": "G4",
                    "ticks": 42432,
                    "time": 69.0623895,
                    "velocity": 0.7165354330708661
                },
                {
                    "duration": 0.10416649999999095,
                    "durationTicks": 64,
                    "midi": 66,
                    "name": "F#4",
                    "ticks": 42496,
                    "time": 69.166556,
                    "velocity": 0.7007874015748031
                },
                {
                    "duration": 0.10416649999999095,
                    "durationTicks": 64,
                    "midi": 68,
                    "name": "G#4",
                    "ticks": 42496,
                    "time": 69.166556,
                    "velocity": 0.7007874015748031
                },
                {
                    "duration": 0.10416650000000516,
                    "durationTicks": 64,
                    "midi": 67,
                    "name": "G4",
                    "ticks": 42560,
                    "time": 69.27072249999999,
                    "velocity": 0.7086614173228346
                },
                {
                    "duration": 0.10416650000000516,
                    "durationTicks": 64,
                    "midi": 66,
                    "name": "F#4",
                    "ticks": 42624,
                    "time": 69.374889,
                    "velocity": 0.7637795275590551
                },
                {
                    "duration": 0.10416650000000516,
                    "durationTicks": 64,
                    "midi": 68,
                    "name": "G#4",
                    "ticks": 42624,
                    "time": 69.374889,
                    "velocity": 0.7637795275590551
                },
                {
                    "duration": 0.10416649999999095,
                    "durationTicks": 64,
                    "midi": 80,
                    "name": "G#5",
                    "ticks": 42688,
                    "time": 69.4790555,
                    "velocity": 0.8818897637795275
                },
                {
                    "duration": 0.10416650000000516,
                    "durationTicks": 64,
                    "midi": 66,
                    "name": "F#4",
                    "ticks": 42752,
                    "time": 69.58322199999999,
                    "velocity": 0.6692913385826772
                },
                {
                    "duration": 0.10416650000000516,
                    "durationTicks": 64,
                    "midi": 68,
                    "name": "G#4",
                    "ticks": 42752,
                    "time": 69.58322199999999,
                    "velocity": 0.6692913385826772
                },
                {
                    "duration": 0.10416650000000516,
                    "durationTicks": 64,
                    "midi": 67,
                    "name": "G4",
                    "ticks": 42816,
                    "time": 69.6873885,
                    "velocity": 0.7401574803149606
                },
                {
                    "duration": 0.10416649999999095,
                    "durationTicks": 64,
                    "midi": 66,
                    "name": "F#4",
                    "ticks": 42880,
                    "time": 69.791555,
                    "velocity": 0.7637795275590551
                },
                {
                    "duration": 0.10416649999999095,
                    "durationTicks": 64,
                    "midi": 68,
                    "name": "G#4",
                    "ticks": 42880,
                    "time": 69.791555,
                    "velocity": 0.7637795275590551
                },
                {
                    "duration": 0.10416650000000516,
                    "durationTicks": 64,
                    "midi": 80,
                    "name": "G#5",
                    "ticks": 42944,
                    "time": 69.8957215,
                    "velocity": 0.9921259842519685
                },
                {
                    "duration": 0.10416650000000516,
                    "durationTicks": 64,
                    "midi": 67,
                    "name": "G4",
                    "ticks": 43008,
                    "time": 69.999888,
                    "velocity": 0.7165354330708661
                },
                {
                    "duration": 0.10416650000000516,
                    "durationTicks": 64,
                    "midi": 67,
                    "name": "G4",
                    "ticks": 43008,
                    "time": 69.999888,
                    "velocity": 0.5669291338582677
                },
                {
                    "duration": 0.05045564843749162,
                    "durationTicks": 31,
                    "midi": 79,
                    "name": "G5",
                    "ticks": 43072,
                    "time": 70.1040545,
                    "velocity": 0.937007874015748
                },
                {
                    "duration": 0.05045564843750583,
                    "durationTicks": 31,
                    "midi": 79,
                    "name": "G5",
                    "ticks": 43136,
                    "time": 70.208221,
                    "velocity": 0.7795275590551181
                },
                {
                    "duration": 0.05045564843749162,
                    "durationTicks": 31,
                    "midi": 79,
                    "name": "G5",
                    "ticks": 43200,
                    "time": 70.3123875,
                    "velocity": 0.7637795275590551
                },
                {
                    "duration": 0.05045564843750583,
                    "durationTicks": 31,
                    "midi": 79,
                    "name": "G5",
                    "ticks": 43264,
                    "time": 70.41655399999999,
                    "velocity": 0.7401574803149606
                },
                {
                    "duration": 0.05045564843750583,
                    "durationTicks": 31,
                    "midi": 79,
                    "name": "G5",
                    "ticks": 43328,
                    "time": 70.5207205,
                    "velocity": 0.7559055118110236
                },
                {
                    "duration": 0.05045564843749162,
                    "durationTicks": 31,
                    "midi": 79,
                    "name": "G5",
                    "ticks": 43392,
                    "time": 70.624887,
                    "velocity": 0.7874015748031497
                },
                {
                    "duration": 0.05045564843750583,
                    "durationTicks": 31,
                    "midi": 79,
                    "name": "G5",
                    "ticks": 43456,
                    "time": 70.72905349999999,
                    "velocity": 0.7795275590551181
                },
                {
                    "duration": 0.10416650000000516,
                    "durationTicks": 64,
                    "midi": 78,
                    "name": "F#5",
                    "ticks": 43520,
                    "time": 70.83322,
                    "velocity": 0.7007874015748031
                },
                {
                    "duration": 0.10416650000000516,
                    "durationTicks": 64,
                    "midi": 80,
                    "name": "G#5",
                    "ticks": 43520,
                    "time": 70.83322,
                    "velocity": 0.7007874015748031
                },
                {
                    "duration": 0.10416649999999095,
                    "durationTicks": 64,
                    "midi": 79,
                    "name": "G5",
                    "ticks": 43584,
                    "time": 70.9373865,
                    "velocity": 0.7086614173228346
                },
                {
                    "duration": 0.10416650000000516,
                    "durationTicks": 64,
                    "midi": 78,
                    "name": "F#5",
                    "ticks": 43648,
                    "time": 71.041553,
                    "velocity": 0.7716535433070866
                },
                {
                    "duration": 0.10416650000000516,
                    "durationTicks": 64,
                    "midi": 80,
                    "name": "G#5",
                    "ticks": 43648,
                    "time": 71.041553,
                    "velocity": 0.7716535433070866
                },
                {
                    "duration": 0.10416650000000516,
                    "durationTicks": 64,
                    "midi": 92,
                    "name": "G#6",
                    "ticks": 43712,
                    "time": 71.1457195,
                    "velocity": 0.8740157480314961
                },
                {
                    "duration": 0.10416649999999095,
                    "durationTicks": 64,
                    "midi": 78,
                    "name": "F#5",
                    "ticks": 43776,
                    "time": 71.249886,
                    "velocity": 0.7007874015748031
                },
                {
                    "duration": 0.10416649999999095,
                    "durationTicks": 64,
                    "midi": 80,
                    "name": "G#5",
                    "ticks": 43776,
                    "time": 71.249886,
                    "velocity": 0.7007874015748031
                },
                {
                    "duration": 0.10416650000000516,
                    "durationTicks": 64,
                    "midi": 79,
                    "name": "G5",
                    "ticks": 43840,
                    "time": 71.3540525,
                    "velocity": 0.7322834645669292
                },
                {
                    "duration": 0.10416649999999095,
                    "durationTicks": 64,
                    "midi": 78,
                    "name": "F#5",
                    "ticks": 43904,
                    "time": 71.458219,
                    "velocity": 0.7559055118110236
                },
                {
                    "duration": 0.10416649999999095,
                    "durationTicks": 64,
                    "midi": 80,
                    "name": "G#5",
                    "ticks": 43904,
                    "time": 71.458219,
                    "velocity": 0.7559055118110236
                },
                {
                    "duration": 0.10416650000000516,
                    "durationTicks": 64,
                    "midi": 92,
                    "name": "G#6",
                    "ticks": 43968,
                    "time": 71.56238549999999,
                    "velocity": 0.9921259842519685
                },
                {
                    "duration": 0.10416650000000516,
                    "durationTicks": 64,
                    "midi": 91,
                    "name": "G6",
                    "ticks": 44032,
                    "time": 71.666552,
                    "velocity": 0.6377952755905512
                },
                {
                    "duration": 0.10416650000000516,
                    "durationTicks": 64,
                    "midi": 79,
                    "name": "G5",
                    "ticks": 44032,
                    "time": 71.666552,
                    "velocity": 0.5905511811023622
                },
                {
                    "duration": 0.10416649999999095,
                    "durationTicks": 64,
                    "midi": 80,
                    "name": "G#5",
                    "ticks": 44096,
                    "time": 71.7707185,
                    "velocity": 0.5590551181102362
                },
                {
                    "duration": 0.10416650000000516,
                    "durationTicks": 64,
                    "midi": 79,
                    "name": "G5",
                    "ticks": 44160,
                    "time": 71.87488499999999,
                    "velocity": 0.6850393700787402
                },
                {
                    "duration": 0.10416650000000516,
                    "durationTicks": 64,
                    "midi": 78,
                    "name": "F#5",
                    "ticks": 44224,
                    "time": 71.9790515,
                    "velocity": 0.7086614173228346
                },
                {
                    "duration": 0.10416649999999095,
                    "durationTicks": 64,
                    "midi": 79,
                    "name": "G5",
                    "ticks": 44288,
                    "time": 72.083218,
                    "velocity": 0.8267716535433071
                },
                {
                    "duration": 0.10416650000000516,
                    "durationTicks": 64,
                    "midi": 80,
                    "name": "G#5",
                    "ticks": 44352,
                    "time": 72.1873845,
                    "velocity": 0.7401574803149606
                },
                {
                    "duration": 0.10416650000000516,
                    "durationTicks": 64,
                    "midi": 79,
                    "name": "G5",
                    "ticks": 44416,
                    "time": 72.291551,
                    "velocity": 0.7559055118110236
                },
                {
                    "duration": 0.08300767968749767,
                    "durationTicks": 51,
                    "midi": 78,
                    "name": "F#5",
                    "ticks": 44480,
                    "time": 72.3957175,
                    "velocity": 0.7322834645669292
                },
                {
                    "duration": 0.10416650000000516,
                    "durationTicks": 64,
                    "midi": 79,
                    "name": "G5",
                    "ticks": 44544,
                    "time": 72.499884,
                    "velocity": 0.7795275590551181
                },
                {
                    "duration": 0.2083329999999961,
                    "durationTicks": 128,
                    "midi": 67,
                    "name": "G4",
                    "ticks": 44544,
                    "time": 72.499884,
                    "velocity": 0.9133858267716536
                },
                {
                    "duration": 0.10416649999999095,
                    "durationTicks": 64,
                    "midi": 80,
                    "name": "G#5",
                    "ticks": 44608,
                    "time": 72.6040505,
                    "velocity": 0.7795275590551181
                },
                {
                    "duration": 0.10416650000000516,
                    "durationTicks": 64,
                    "midi": 79,
                    "name": "G5",
                    "ticks": 44672,
                    "time": 72.70821699999999,
                    "velocity": 0.7322834645669292
                },
                {
                    "duration": 0.1025388984375013,
                    "durationTicks": 63,
                    "midi": 68,
                    "name": "G#4",
                    "ticks": 44672,
                    "time": 72.70821699999999,
                    "velocity": 0.6614173228346457
                },
                {
                    "duration": 0.20833300000001032,
                    "durationTicks": 128,
                    "midi": 66,
                    "name": "F#4",
                    "ticks": 44672,
                    "time": 72.70821699999999,
                    "velocity": 0.7401574803149606
                },
                {
                    "duration": 0.10416650000000516,
                    "durationTicks": 64,
                    "midi": 78,
                    "name": "F#5",
                    "ticks": 44736,
                    "time": 72.8123835,
                    "velocity": 0.7165354330708661
                },
                {
                    "duration": 0.10416649999999095,
                    "durationTicks": 64,
                    "midi": 79,
                    "name": "G5",
                    "ticks": 44800,
                    "time": 72.91655,
                    "velocity": 0.7637795275590551
                },
                {
                    "duration": 0.1025388984375013,
                    "durationTicks": 63,
                    "midi": 69,
                    "name": "A4",
                    "ticks": 44800,
                    "time": 72.91655,
                    "velocity": 0.7637795275590551
                },
                {
                    "duration": 0.2083329999999961,
                    "durationTicks": 128,
                    "midi": 65,
                    "name": "F4",
                    "ticks": 44800,
                    "time": 72.91655,
                    "velocity": 0.7480314960629921
                },
                {
                    "duration": 0.10416650000000516,
                    "durationTicks": 64,
                    "midi": 80,
                    "name": "G#5",
                    "ticks": 44864,
                    "time": 73.02071649999999,
                    "velocity": 0.7716535433070866
                },
                {
                    "duration": 0.10416650000000516,
                    "durationTicks": 64,
                    "midi": 79,
                    "name": "G5",
                    "ticks": 44928,
                    "time": 73.124883,
                    "velocity": 0.7480314960629921
                },
                {
                    "duration": 0.1025388984375013,
                    "durationTicks": 63,
                    "midi": 70,
                    "name": "A#4",
                    "ticks": 44928,
                    "time": 73.124883,
                    "velocity": 0.7637795275590551
                },
                {
                    "duration": 0.2083329999999961,
                    "durationTicks": 128,
                    "midi": 64,
                    "name": "E4",
                    "ticks": 44928,
                    "time": 73.124883,
                    "velocity": 0.7480314960629921
                },
                {
                    "duration": 0.08300767968749767,
                    "durationTicks": 51,
                    "midi": 78,
                    "name": "F#5",
                    "ticks": 44992,
                    "time": 73.2290495,
                    "velocity": 0.7480314960629921
                },
                {
                    "duration": 0.10416650000000516,
                    "durationTicks": 64,
                    "midi": 79,
                    "name": "G5",
                    "ticks": 45056,
                    "time": 73.333216,
                    "velocity": 0.7007874015748031
                },
                {
                    "duration": 0.10416650000000516,
                    "durationTicks": 64,
                    "midi": 71,
                    "name": "B4",
                    "ticks": 45056,
                    "time": 73.333216,
                    "velocity": 0.6692913385826772
                },
                {
                    "duration": 1.6666639999999973,
                    "durationTicks": 1024,
                    "midi": 63,
                    "name": "D#4",
                    "ticks": 45056,
                    "time": 73.333216,
                    "velocity": 0.5984251968503937
                },
                {
                    "duration": 0.10416650000000516,
                    "durationTicks": 64,
                    "midi": 80,
                    "name": "G#5",
                    "ticks": 45120,
                    "time": 73.4373825,
                    "velocity": 0.6692913385826772
                },
                {
                    "duration": 0.10416650000000516,
                    "durationTicks": 64,
                    "midi": 67,
                    "name": "G4",
                    "ticks": 45120,
                    "time": 73.4373825,
                    "velocity": 0.5905511811023622
                },
                {
                    "duration": 0.10416649999999095,
                    "durationTicks": 64,
                    "midi": 81,
                    "name": "A5",
                    "ticks": 45184,
                    "time": 73.541549,
                    "velocity": 0.7322834645669292
                },
                {
                    "duration": 0.10416649999999095,
                    "durationTicks": 64,
                    "midi": 71,
                    "name": "B4",
                    "ticks": 45184,
                    "time": 73.541549,
                    "velocity": 0.7322834645669292
                },
                {
                    "duration": 0.10416650000000516,
                    "durationTicks": 64,
                    "midi": 82,
                    "name": "A#5",
                    "ticks": 45248,
                    "time": 73.6457155,
                    "velocity": 0.7559055118110236
                },
                {
                    "duration": 0.10416650000000516,
                    "durationTicks": 64,
                    "midi": 67,
                    "name": "G4",
                    "ticks": 45248,
                    "time": 73.6457155,
                    "velocity": 0.7165354330708661
                },
                {
                    "duration": 0.10416649999999095,
                    "durationTicks": 64,
                    "midi": 83,
                    "name": "B5",
                    "ticks": 45312,
                    "time": 73.749882,
                    "velocity": 0.8110236220472441
                },
                {
                    "duration": 0.10416649999999095,
                    "durationTicks": 64,
                    "midi": 71,
                    "name": "B4",
                    "ticks": 45312,
                    "time": 73.749882,
                    "velocity": 0.7874015748031497
                },
                {
                    "duration": 0.10416650000000516,
                    "durationTicks": 64,
                    "midi": 82,
                    "name": "A#5",
                    "ticks": 45376,
                    "time": 73.85404849999999,
                    "velocity": 0.5511811023622047
                },
                {
                    "duration": 0.10416650000000516,
                    "durationTicks": 64,
                    "midi": 67,
                    "name": "G4",
                    "ticks": 45376,
                    "time": 73.85404849999999,
                    "velocity": 0.5196850393700787
                },
                {
                    "duration": 0.10416650000000516,
                    "durationTicks": 64,
                    "midi": 81,
                    "name": "A5",
                    "ticks": 45440,
                    "time": 73.958215,
                    "velocity": 0.3858267716535433
                },
                {
                    "duration": 0.10416650000000516,
                    "durationTicks": 64,
                    "midi": 71,
                    "name": "B4",
                    "ticks": 45440,
                    "time": 73.958215,
                    "velocity": 0.3700787401574803
                },
                {
                    "duration": 0.08300767968749767,
                    "durationTicks": 51,
                    "midi": 80,
                    "name": "G#5",
                    "ticks": 45504,
                    "time": 74.0623815,
                    "velocity": 0.3700787401574803
                },
                {
                    "duration": 0.10416649999999095,
                    "durationTicks": 64,
                    "midi": 67,
                    "name": "G4",
                    "ticks": 45504,
                    "time": 74.0623815,
                    "velocity": 0.3464566929133858
                },
                {
                    "duration": 0.10416650000000516,
                    "durationTicks": 64,
                    "midi": 79,
                    "name": "G5",
                    "ticks": 45568,
                    "time": 74.16654799999999,
                    "velocity": 0.3543307086614173
                },
                {
                    "duration": 0.10416650000000516,
                    "durationTicks": 64,
                    "midi": 71,
                    "name": "B4",
                    "ticks": 45568,
                    "time": 74.16654799999999,
                    "velocity": 0.3858267716535433
                },
                {
                    "duration": 0.10416650000000516,
                    "durationTicks": 64,
                    "midi": 80,
                    "name": "G#5",
                    "ticks": 45632,
                    "time": 74.2707145,
                    "velocity": 0.5039370078740157
                },
                {
                    "duration": 0.10416650000000516,
                    "durationTicks": 64,
                    "midi": 67,
                    "name": "G4",
                    "ticks": 45632,
                    "time": 74.2707145,
                    "velocity": 0.4566929133858268
                },
                {
                    "duration": 0.10416649999999095,
                    "durationTicks": 64,
                    "midi": 81,
                    "name": "A5",
                    "ticks": 45696,
                    "time": 74.374881,
                    "velocity": 0.6456692913385826
                },
                {
                    "duration": 0.10416649999999095,
                    "durationTicks": 64,
                    "midi": 71,
                    "name": "B4",
                    "ticks": 45696,
                    "time": 74.374881,
                    "velocity": 0.6377952755905512
                },
                {
                    "duration": 0.10416650000000516,
                    "durationTicks": 64,
                    "midi": 82,
                    "name": "A#5",
                    "ticks": 45760,
                    "time": 74.4790475,
                    "velocity": 0.7952755905511811
                },
                {
                    "duration": 0.10416650000000516,
                    "durationTicks": 64,
                    "midi": 67,
                    "name": "G4",
                    "ticks": 45760,
                    "time": 74.4790475,
                    "velocity": 0.6692913385826772
                },
                {
                    "duration": 0.10416650000000516,
                    "durationTicks": 64,
                    "midi": 83,
                    "name": "B5",
                    "ticks": 45824,
                    "time": 74.583214,
                    "velocity": 0.7874015748031497
                },
                {
                    "duration": 0.10416650000000516,
                    "durationTicks": 64,
                    "midi": 71,
                    "name": "B4",
                    "ticks": 45824,
                    "time": 74.583214,
                    "velocity": 0.8110236220472441
                },
                {
                    "duration": 0.10416649999999095,
                    "durationTicks": 64,
                    "midi": 82,
                    "name": "A#5",
                    "ticks": 45888,
                    "time": 74.6873805,
                    "velocity": 0.6062992125984252
                },
                {
                    "duration": 0.10416649999999095,
                    "durationTicks": 64,
                    "midi": 67,
                    "name": "G4",
                    "ticks": 45888,
                    "time": 74.6873805,
                    "velocity": 0.5826771653543307
                },
                {
                    "duration": 0.10416650000000516,
                    "durationTicks": 64,
                    "midi": 81,
                    "name": "A5",
                    "ticks": 45952,
                    "time": 74.791547,
                    "velocity": 0.48031496062992124
                },
                {
                    "duration": 0.10416650000000516,
                    "durationTicks": 64,
                    "midi": 71,
                    "name": "B4",
                    "ticks": 45952,
                    "time": 74.791547,
                    "velocity": 0.5196850393700787
                },
                {
                    "duration": 0.08300767968749767,
                    "durationTicks": 51,
                    "midi": 80,
                    "name": "G#5",
                    "ticks": 46016,
                    "time": 74.8957135,
                    "velocity": 0.36220472440944884
                },
                {
                    "duration": 0.10416649999999095,
                    "durationTicks": 64,
                    "midi": 67,
                    "name": "G4",
                    "ticks": 46016,
                    "time": 74.8957135,
                    "velocity": 0.33070866141732286
                },
                {
                    "duration": 0.10416650000000516,
                    "durationTicks": 64,
                    "midi": 79,
                    "name": "G5",
                    "ticks": 46080,
                    "time": 74.99987999999999,
                    "velocity": 0.4409448818897638
                },
                {
                    "duration": 0.10416650000000516,
                    "durationTicks": 64,
                    "midi": 60,
                    "name": "C4",
                    "ticks": 46080,
                    "time": 74.99987999999999,
                    "velocity": 0.5039370078740157
                },
                {
                    "duration": 0.10416650000000516,
                    "durationTicks": 64,
                    "midi": 63,
                    "name": "D#4",
                    "ticks": 46080,
                    "time": 74.99987999999999,
                    "velocity": 0.5039370078740157
                },
                {
                    "duration": 0.10416650000000516,
                    "durationTicks": 64,
                    "midi": 67,
                    "name": "G4",
                    "ticks": 46080,
                    "time": 74.99987999999999,
                    "velocity": 0.5039370078740157
                },
                {
                    "duration": 0.10416650000000516,
                    "durationTicks": 64,
                    "midi": 72,
                    "name": "C5",
                    "ticks": 46080,
                    "time": 74.99987999999999,
                    "velocity": 0.5039370078740157
                },
                {
                    "duration": 0.10416650000000516,
                    "durationTicks": 64,
                    "midi": 78,
                    "name": "F#5",
                    "ticks": 46144,
                    "time": 75.1040465,
                    "velocity": 0.47244094488188976
                },
                {
                    "duration": 0.10416649999999095,
                    "durationTicks": 64,
                    "midi": 77,
                    "name": "F5",
                    "ticks": 46208,
                    "time": 75.208213,
                    "velocity": 0.47244094488188976
                },
                {
                    "duration": 0.10416650000000516,
                    "durationTicks": 64,
                    "midi": 76,
                    "name": "E5",
                    "ticks": 46272,
                    "time": 75.31237949999999,
                    "velocity": 0.48031496062992124
                },
                {
                    "duration": 0.10416650000000516,
                    "durationTicks": 64,
                    "midi": 75,
                    "name": "D#5",
                    "ticks": 46336,
                    "time": 75.416546,
                    "velocity": 0.44881889763779526
                },
                {
                    "duration": 0.10416649999999095,
                    "durationTicks": 64,
                    "midi": 80,
                    "name": "G#5",
                    "ticks": 46400,
                    "time": 75.5207125,
                    "velocity": 0.5354330708661418
                },
                {
                    "duration": 0.10416650000000516,
                    "durationTicks": 64,
                    "midi": 79,
                    "name": "G5",
                    "ticks": 46464,
                    "time": 75.62487899999999,
                    "velocity": 0.47244094488188976
                },
                {
                    "duration": 0.10416650000000516,
                    "durationTicks": 64,
                    "midi": 78,
                    "name": "F#5",
                    "ticks": 46528,
                    "time": 75.7290455,
                    "velocity": 0.47244094488188976
                },
                {
                    "duration": 0.10416649999999095,
                    "durationTicks": 64,
                    "midi": 79,
                    "name": "G5",
                    "ticks": 46592,
                    "time": 75.833212,
                    "velocity": 0.4645669291338583
                },
                {
                    "duration": 0.10253889843748709,
                    "durationTicks": 63,
                    "midi": 63,
                    "name": "D#4",
                    "ticks": 46592,
                    "time": 75.833212,
                    "velocity": 0.44881889763779526
                },
                {
                    "duration": 0.10253889843748709,
                    "durationTicks": 63,
                    "midi": 67,
                    "name": "G4",
                    "ticks": 46592,
                    "time": 75.833212,
                    "velocity": 0.44881889763779526
                },
                {
                    "duration": 0.10253889843748709,
                    "durationTicks": 63,
                    "midi": 72,
                    "name": "C5",
                    "ticks": 46592,
                    "time": 75.833212,
                    "velocity": 0.44881889763779526
                },
                {
                    "duration": 0.10416650000000516,
                    "durationTicks": 64,
                    "midi": 78,
                    "name": "F#5",
                    "ticks": 46656,
                    "time": 75.9373785,
                    "velocity": 0.4251968503937008
                },
                {
                    "duration": 0.10416649999999095,
                    "durationTicks": 64,
                    "midi": 77,
                    "name": "F5",
                    "ticks": 46720,
                    "time": 76.041545,
                    "velocity": 0.4409448818897638
                },
                {
                    "duration": 0.10416650000000516,
                    "durationTicks": 64,
                    "midi": 76,
                    "name": "E5",
                    "ticks": 46784,
                    "time": 76.14571149999999,
                    "velocity": 0.44881889763779526
                },
                {
                    "duration": 0.10416650000000516,
                    "durationTicks": 64,
                    "midi": 75,
                    "name": "D#5",
                    "ticks": 46848,
                    "time": 76.249878,
                    "velocity": 0.4645669291338583
                },
                {
                    "duration": 0.1025388984375013,
                    "durationTicks": 63,
                    "midi": 65,
                    "name": "F4",
                    "ticks": 46848,
                    "time": 76.249878,
                    "velocity": 0.4409448818897638
                },
                {
                    "duration": 0.1025388984375013,
                    "durationTicks": 63,
                    "midi": 68,
                    "name": "G#4",
                    "ticks": 46848,
                    "time": 76.249878,
                    "velocity": 0.4409448818897638
                },
                {
                    "duration": 0.1025388984375013,
                    "durationTicks": 63,
                    "midi": 72,
                    "name": "C5",
                    "ticks": 46848,
                    "time": 76.249878,
                    "velocity": 0.4409448818897638
                },
                {
                    "duration": 0.10416649999999095,
                    "durationTicks": 64,
                    "midi": 76,
                    "name": "E5",
                    "ticks": 46912,
                    "time": 76.3540445,
                    "velocity": 0.4645669291338583
                },
                {
                    "duration": 0.10416650000000516,
                    "durationTicks": 64,
                    "midi": 77,
                    "name": "F5",
                    "ticks": 46976,
                    "time": 76.45821099999999,
                    "velocity": 0.5275590551181102
                },
                {
                    "duration": 0.08300767968749767,
                    "durationTicks": 51,
                    "midi": 78,
                    "name": "F#5",
                    "ticks": 47040,
                    "time": 76.5623775,
                    "velocity": 0.5118110236220472
                },
                {
                    "duration": 0.10416649999999095,
                    "durationTicks": 64,
                    "midi": 79,
                    "name": "G5",
                    "ticks": 47104,
                    "time": 76.666544,
                    "velocity": 0.48031496062992124
                },
                {
                    "duration": 0.2083329999999961,
                    "durationTicks": 128,
                    "midi": 63,
                    "name": "D#4",
                    "ticks": 47104,
                    "time": 76.666544,
                    "velocity": 0.4409448818897638
                },
                {
                    "duration": 0.2083329999999961,
                    "durationTicks": 128,
                    "midi": 67,
                    "name": "G4",
                    "ticks": 47104,
                    "time": 76.666544,
                    "velocity": 0.4409448818897638
                },
                {
                    "duration": 0.2083329999999961,
                    "durationTicks": 128,
                    "midi": 72,
                    "name": "C5",
                    "ticks": 47104,
                    "time": 76.666544,
                    "velocity": 0.4409448818897638
                },
                {
                    "duration": 0.10416650000000516,
                    "durationTicks": 64,
                    "midi": 78,
                    "name": "F#5",
                    "ticks": 47168,
                    "time": 76.77071049999999,
                    "velocity": 0.4566929133858268
                },
                {
                    "duration": 0.10416650000000516,
                    "durationTicks": 64,
                    "midi": 77,
                    "name": "F5",
                    "ticks": 47232,
                    "time": 76.874877,
                    "velocity": 0.4566929133858268
                },
                {
                    "duration": 0.10416649999999095,
                    "durationTicks": 64,
                    "midi": 76,
                    "name": "E5",
                    "ticks": 47296,
                    "time": 76.9790435,
                    "velocity": 0.4566929133858268
                },
                {
                    "duration": 0.10416650000000516,
                    "durationTicks": 64,
                    "midi": 77,
                    "name": "F5",
                    "ticks": 47360,
                    "time": 77.08321,
                    "velocity": 0.49606299212598426
                },
                {
                    "duration": 0.2083329999999961,
                    "durationTicks": 128,
                    "midi": 59,
                    "name": "B3",
                    "ticks": 47360,
                    "time": 77.08321,
                    "velocity": 0.3937007874015748
                },
                {
                    "duration": 0.2083329999999961,
                    "durationTicks": 128,
                    "midi": 65,
                    "name": "F4",
                    "ticks": 47360,
                    "time": 77.08321,
                    "velocity": 0.3937007874015748
                },
                {
                    "duration": 0.2083329999999961,
                    "durationTicks": 128,
                    "midi": 68,
                    "name": "G#4",
                    "ticks": 47360,
                    "time": 77.08321,
                    "velocity": 0.3937007874015748
                },
                {
                    "duration": 0.10416649999999095,
                    "durationTicks": 64,
                    "midi": 76,
                    "name": "E5",
                    "ticks": 47424,
                    "time": 77.1873765,
                    "velocity": 0.4409448818897638
                },
                {
                    "duration": 0.10416650000000516,
                    "durationTicks": 64,
                    "midi": 75,
                    "name": "D#5",
                    "ticks": 47488,
                    "time": 77.29154299999999,
                    "velocity": 0.4251968503937008
                },
                {
                    "duration": 0.10416650000000516,
                    "durationTicks": 64,
                    "midi": 74,
                    "name": "D5",
                    "ticks": 47552,
                    "time": 77.3957095,
                    "velocity": 0.4330708661417323
                },
                {
                    "duration": 0.10416649999999095,
                    "durationTicks": 64,
                    "midi": 75,
                    "name": "D#5",
                    "ticks": 47616,
                    "time": 77.499876,
                    "velocity": 0.4645669291338583
                },
                {
                    "duration": 0.2083329999999961,
                    "durationTicks": 128,
                    "midi": 60,
                    "name": "C4",
                    "ticks": 47616,
                    "time": 77.499876,
                    "velocity": 0.4251968503937008
                },
                {
                    "duration": 0.2083329999999961,
                    "durationTicks": 128,
                    "midi": 63,
                    "name": "D#4",
                    "ticks": 47616,
                    "time": 77.499876,
                    "velocity": 0.4251968503937008
                },
                {
                    "duration": 0.2083329999999961,
                    "durationTicks": 128,
                    "midi": 67,
                    "name": "G4",
                    "ticks": 47616,
                    "time": 77.499876,
                    "velocity": 0.4251968503937008
                },
                {
                    "duration": 0.10416650000000516,
                    "durationTicks": 64,
                    "midi": 76,
                    "name": "E5",
                    "ticks": 47680,
                    "time": 77.60404249999999,
                    "velocity": 0.4881889763779528
                },
                {
                    "duration": 0.10416650000000516,
                    "durationTicks": 64,
                    "midi": 77,
                    "name": "F5",
                    "ticks": 47744,
                    "time": 77.708209,
                    "velocity": 0.4645669291338583
                },
                {
                    "duration": 0.10416649999999095,
                    "durationTicks": 64,
                    "midi": 78,
                    "name": "F#5",
                    "ticks": 47808,
                    "time": 77.8123755,
                    "velocity": 0.5118110236220472
                },
                {
                    "duration": 0.10416650000000516,
                    "durationTicks": 64,
                    "midi": 77,
                    "name": "F5",
                    "ticks": 47872,
                    "time": 77.91654199999999,
                    "velocity": 0.4330708661417323
                },
                {
                    "duration": 0.20833300000001032,
                    "durationTicks": 128,
                    "midi": 58,
                    "name": "A#3",
                    "ticks": 47872,
                    "time": 77.91654199999999,
                    "velocity": 0.44881889763779526
                },
                {
                    "duration": 0.20833300000001032,
                    "durationTicks": 128,
                    "midi": 62,
                    "name": "D4",
                    "ticks": 47872,
                    "time": 77.91654199999999,
                    "velocity": 0.44881889763779526
                },
                {
                    "duration": 0.10416650000000516,
                    "durationTicks": 64,
                    "midi": 78,
                    "name": "F#5",
                    "ticks": 47936,
                    "time": 78.0207085,
                    "velocity": 0.5196850393700787
                },
                {
                    "duration": 0.10416649999999095,
                    "durationTicks": 64,
                    "midi": 79,
                    "name": "G5",
                    "ticks": 48000,
                    "time": 78.124875,
                    "velocity": 0.5275590551181102
                },
                {
                    "duration": 0.08300767968749767,
                    "durationTicks": 51,
                    "midi": 80,
                    "name": "G#5",
                    "ticks": 48064,
                    "time": 78.2290415,
                    "velocity": 0.5196850393700787
                },
                {
                    "duration": 0.10416649999999095,
                    "durationTicks": 64,
                    "midi": 81,
                    "name": "A5",
                    "ticks": 48128,
                    "time": 78.333208,
                    "velocity": 0.48031496062992124
                },
                {
                    "duration": 0.2083329999999961,
                    "durationTicks": 128,
                    "midi": 57,
                    "name": "A3",
                    "ticks": 48128,
                    "time": 78.333208,
                    "velocity": 0.4251968503937008
                },
                {
                    "duration": 0.2083329999999961,
                    "durationTicks": 128,
                    "midi": 61,
                    "name": "C#4",
                    "ticks": 48128,
                    "time": 78.333208,
                    "velocity": 0.4251968503937008
                },
                {
                    "duration": 0.2083329999999961,
                    "durationTicks": 128,
                    "midi": 67,
                    "name": "G4",
                    "ticks": 48128,
                    "time": 78.333208,
                    "velocity": 0.4251968503937008
                },
                {
                    "duration": 0.10416650000000516,
                    "durationTicks": 64,
                    "midi": 80,
                    "name": "G#5",
                    "ticks": 48192,
                    "time": 78.43737449999999,
                    "velocity": 0.4645669291338583
                },
                {
                    "duration": 0.10416650000000516,
                    "durationTicks": 64,
                    "midi": 79,
                    "name": "G5",
                    "ticks": 48256,
                    "time": 78.541541,
                    "velocity": 0.4566929133858268
                },
                {
                    "duration": 0.10416649999999095,
                    "durationTicks": 64,
                    "midi": 78,
                    "name": "F#5",
                    "ticks": 48320,
                    "time": 78.6457075,
                    "velocity": 0.4330708661417323
                },
                {
                    "duration": 0.10416650000000516,
                    "durationTicks": 64,
                    "midi": 79,
                    "name": "G5",
                    "ticks": 48384,
                    "time": 78.74987399999999,
                    "velocity": 0.48031496062992124
                },
                {
                    "duration": 0.8333319999999986,
                    "durationTicks": 512,
                    "midi": 69,
                    "name": "A4",
                    "ticks": 48384,
                    "time": 78.74987399999999,
                    "velocity": 0.6141732283464567
                },
                {
                    "duration": 0.10416650000000516,
                    "durationTicks": 64,
                    "midi": 78,
                    "name": "F#5",
                    "ticks": 48448,
                    "time": 78.8540405,
                    "velocity": 0.44881889763779526
                },
                {
                    "duration": 0.10416649999999095,
                    "durationTicks": 64,
                    "midi": 77,
                    "name": "F5",
                    "ticks": 48512,
                    "time": 78.958207,
                    "velocity": 0.44881889763779526
                },
                {
                    "duration": 0.10416650000000516,
                    "durationTicks": 64,
                    "midi": 76,
                    "name": "E5",
                    "ticks": 48576,
                    "time": 79.06237349999999,
                    "velocity": 0.4330708661417323
                },
                {
                    "duration": 0.10416650000000516,
                    "durationTicks": 64,
                    "midi": 77,
                    "name": "F5",
                    "ticks": 48640,
                    "time": 79.16654,
                    "velocity": 0.5275590551181102
                },
                {
                    "duration": 0.10416649999999095,
                    "durationTicks": 64,
                    "midi": 76,
                    "name": "E5",
                    "ticks": 48704,
                    "time": 79.2707065,
                    "velocity": 0.4409448818897638
                },
                {
                    "duration": 0.10416650000000516,
                    "durationTicks": 64,
                    "midi": 75,
                    "name": "D#5",
                    "ticks": 48768,
                    "time": 79.374873,
                    "velocity": 0.4645669291338583
                },
                {
                    "duration": 0.10416649999999095,
                    "durationTicks": 64,
                    "midi": 74,
                    "name": "D5",
                    "ticks": 48832,
                    "time": 79.4790395,
                    "velocity": 0.41732283464566927
                },
                {
                    "duration": 0.10416650000000516,
                    "durationTicks": 64,
                    "midi": 73,
                    "name": "C#5",
                    "ticks": 48896,
                    "time": 79.58320599999999,
                    "velocity": 0.4330708661417323
                },
                {
                    "duration": 0.1025388984375013,
                    "durationTicks": 63,
                    "midi": 69,
                    "name": "A4",
                    "ticks": 48896,
                    "time": 79.58320599999999,
                    "velocity": 0.48031496062992124
                },
                {
                    "duration": 0.10416650000000516,
                    "durationTicks": 64,
                    "midi": 72,
                    "name": "C5",
                    "ticks": 48960,
                    "time": 79.6873725,
                    "velocity": 0.4645669291338583
                },
                {
                    "duration": 0.10416649999999095,
                    "durationTicks": 64,
                    "midi": 71,
                    "name": "B4",
                    "ticks": 49024,
                    "time": 79.791539,
                    "velocity": 0.47244094488188976
                },
                {
                    "duration": 0.08300767968751188,
                    "durationTicks": 51,
                    "midi": 70,
                    "name": "A#4",
                    "ticks": 49088,
                    "time": 79.89570549999999,
                    "velocity": 0.4251968503937008
                },
                {
                    "duration": 0.1025388984375013,
                    "durationTicks": 63,
                    "midi": 69,
                    "name": "A4",
                    "ticks": 49152,
                    "time": 79.999872,
                    "velocity": 0.47244094488188976
                },
                {
                    "duration": 0.10416650000000516,
                    "durationTicks": 64,
                    "midi": 69,
                    "name": "A4",
                    "ticks": 49152,
                    "time": 79.999872,
                    "velocity": 0.4015748031496063
                },
                {
                    "duration": 0.10416649999999095,
                    "durationTicks": 64,
                    "midi": 70,
                    "name": "A#4",
                    "ticks": 49216,
                    "time": 80.1040385,
                    "velocity": 0.47244094488188976
                },
                {
                    "duration": 0.10416650000000516,
                    "durationTicks": 64,
                    "midi": 69,
                    "name": "A4",
                    "ticks": 49280,
                    "time": 80.20820499999999,
                    "velocity": 0.4409448818897638
                },
                {
                    "duration": 0.10416650000000516,
                    "durationTicks": 64,
                    "midi": 68,
                    "name": "G#4",
                    "ticks": 49344,
                    "time": 80.3123715,
                    "velocity": 0.4330708661417323
                },
                {
                    "duration": 0.10253889843748709,
                    "durationTicks": 63,
                    "midi": 69,
                    "name": "A4",
                    "ticks": 49408,
                    "time": 80.416538,
                    "velocity": 0.5039370078740157
                },
                {
                    "duration": 0.10416649999999095,
                    "durationTicks": 64,
                    "midi": 69,
                    "name": "A4",
                    "ticks": 49408,
                    "time": 80.416538,
                    "velocity": 0.4094488188976378
                },
                {
                    "duration": 0.10416650000000516,
                    "durationTicks": 64,
                    "midi": 70,
                    "name": "A#4",
                    "ticks": 49472,
                    "time": 80.5207045,
                    "velocity": 0.5039370078740157
                },
                {
                    "duration": 0.10416649999999095,
                    "durationTicks": 64,
                    "midi": 69,
                    "name": "A4",
                    "ticks": 49536,
                    "time": 80.624871,
                    "velocity": 0.4409448818897638
                },
                {
                    "duration": 0.1025388984375013,
                    "durationTicks": 63,
                    "midi": 65,
                    "name": "F4",
                    "ticks": 49536,
                    "time": 80.624871,
                    "velocity": 0.4251968503937008
                },
                {
                    "duration": 0.10416650000000516,
                    "durationTicks": 64,
                    "midi": 68,
                    "name": "G#4",
                    "ticks": 49600,
                    "time": 80.72903749999999,
                    "velocity": 0.4566929133858268
                },
                {
                    "duration": 0.10416650000000516,
                    "durationTicks": 64,
                    "midi": 69,
                    "name": "A4",
                    "ticks": 49664,
                    "time": 80.833204,
                    "velocity": 0.5196850393700787
                },
                {
                    "duration": 0.1025388984375013,
                    "durationTicks": 63,
                    "midi": 62,
                    "name": "D4",
                    "ticks": 49664,
                    "time": 80.833204,
                    "velocity": 0.3858267716535433
                },
                {
                    "duration": 0.10416649999999095,
                    "durationTicks": 64,
                    "midi": 70,
                    "name": "A#4",
                    "ticks": 49728,
                    "time": 80.9373705,
                    "velocity": 0.48031496062992124
                },
                {
                    "duration": 0.10416650000000516,
                    "durationTicks": 64,
                    "midi": 69,
                    "name": "A4",
                    "ticks": 49792,
                    "time": 81.04153699999999,
                    "velocity": 0.4330708661417323
                },
                {
                    "duration": 0.1025388984375013,
                    "durationTicks": 63,
                    "midi": 58,
                    "name": "A#3",
                    "ticks": 49792,
                    "time": 81.04153699999999,
                    "velocity": 0.41732283464566927
                },
                {
                    "duration": 0.10416650000000516,
                    "durationTicks": 64,
                    "midi": 68,
                    "name": "G#4",
                    "ticks": 49856,
                    "time": 81.1457035,
                    "velocity": 0.4409448818897638
                },
                {
                    "duration": 0.10416649999999095,
                    "durationTicks": 64,
                    "midi": 69,
                    "name": "A4",
                    "ticks": 49920,
                    "time": 81.24987,
                    "velocity": 0.47244094488188976
                },
                {
                    "duration": 0.1025388984375013,
                    "durationTicks": 63,
                    "midi": 62,
                    "name": "D4",
                    "ticks": 49920,
                    "time": 81.24987,
                    "velocity": 0.5275590551181102
                },
                {
                    "duration": 0.10416650000000516,
                    "durationTicks": 64,
                    "midi": 70,
                    "name": "A#4",
                    "ticks": 49984,
                    "time": 81.35403649999999,
                    "velocity": 0.5118110236220472
                },
                {
                    "duration": 0.10416650000000516,
                    "durationTicks": 64,
                    "midi": 69,
                    "name": "A4",
                    "ticks": 50048,
                    "time": 81.458203,
                    "velocity": 0.4645669291338583
                },
                {
                    "duration": 0.1025388984375013,
                    "durationTicks": 63,
                    "midi": 65,
                    "name": "F4",
                    "ticks": 50048,
                    "time": 81.458203,
                    "velocity": 0.5275590551181102
                },
                {
                    "duration": 0.08300767968749767,
                    "durationTicks": 51,
                    "midi": 68,
                    "name": "G#4",
                    "ticks": 50112,
                    "time": 81.5623695,
                    "velocity": 0.47244094488188976
                },
                {
                    "duration": 0.1025388984375013,
                    "durationTicks": 63,
                    "midi": 69,
                    "name": "A4",
                    "ticks": 50176,
                    "time": 81.666536,
                    "velocity": 0.5118110236220472
                },
                {
                    "duration": 0.10416650000000516,
                    "durationTicks": 64,
                    "midi": 69,
                    "name": "A4",
                    "ticks": 50176,
                    "time": 81.666536,
                    "velocity": 0.5354330708661418
                },
                {
                    "duration": 0.10416649999999095,
                    "durationTicks": 64,
                    "midi": 70,
                    "name": "A#4",
                    "ticks": 50240,
                    "time": 81.7707025,
                    "velocity": 0.5354330708661418
                },
                {
                    "duration": 0.10416650000000516,
                    "durationTicks": 64,
                    "midi": 69,
                    "name": "A4",
                    "ticks": 50304,
                    "time": 81.87486899999999,
                    "velocity": 0.47244094488188976
                },
                {
                    "duration": 0.10416650000000516,
                    "durationTicks": 64,
                    "midi": 68,
                    "name": "G#4",
                    "ticks": 50368,
                    "time": 81.9790355,
                    "velocity": 0.47244094488188976
                },
                {
                    "duration": 0.1025388984375013,
                    "durationTicks": 63,
                    "midi": 69,
                    "name": "A4",
                    "ticks": 50432,
                    "time": 82.083202,
                    "velocity": 0.5196850393700787
                },
                {
                    "duration": 0.1025388984375013,
                    "durationTicks": 63,
                    "midi": 57,
                    "name": "A3",
                    "ticks": 50432,
                    "time": 82.083202,
                    "velocity": 0.44881889763779526
                },
                {
                    "duration": 0.10416649999999095,
                    "durationTicks": 64,
                    "midi": 69,
                    "name": "A4",
                    "ticks": 50432,
                    "time": 82.083202,
                    "velocity": 0.44881889763779526
                },
                {
                    "duration": 0.10416650000000516,
                    "durationTicks": 64,
                    "midi": 70,
                    "name": "A#4",
                    "ticks": 50496,
                    "time": 82.18736849999999,
                    "velocity": 0.47244094488188976
                },
                {
                    "duration": 0.10416650000000516,
                    "durationTicks": 64,
                    "midi": 69,
                    "name": "A4",
                    "ticks": 50560,
                    "time": 82.291535,
                    "velocity": 0.48031496062992124
                },
                {
                    "duration": 0.1025388984375013,
                    "durationTicks": 63,
                    "midi": 53,
                    "name": "F3",
                    "ticks": 50560,
                    "time": 82.291535,
                    "velocity": 0.4251968503937008
                },
                {
                    "duration": 0.1025388984375013,
                    "durationTicks": 63,
                    "midi": 65,
                    "name": "F4",
                    "ticks": 50560,
                    "time": 82.291535,
                    "velocity": 0.4251968503937008
                },
                {
                    "duration": 0.10416649999999095,
                    "durationTicks": 64,
                    "midi": 68,
                    "name": "G#4",
                    "ticks": 50624,
                    "time": 82.3957015,
                    "velocity": 0.41732283464566927
                },
                {
                    "duration": 0.10416650000000516,
                    "durationTicks": 64,
                    "midi": 69,
                    "name": "A4",
                    "ticks": 50688,
                    "time": 82.49986799999999,
                    "velocity": 0.49606299212598426
                },
                {
                    "duration": 0.1025388984375013,
                    "durationTicks": 63,
                    "midi": 50,
                    "name": "D3",
                    "ticks": 50688,
                    "time": 82.49986799999999,
                    "velocity": 0.4251968503937008
                },
                {
                    "duration": 0.1025388984375013,
                    "durationTicks": 63,
                    "midi": 62,
                    "name": "D4",
                    "ticks": 50688,
                    "time": 82.49986799999999,
                    "velocity": 0.4251968503937008
                },
                {
                    "duration": 0.10416650000000516,
                    "durationTicks": 64,
                    "midi": 70,
                    "name": "A#4",
                    "ticks": 50752,
                    "time": 82.6040345,
                    "velocity": 0.5039370078740157
                },
                {
                    "duration": 0.10416649999999095,
                    "durationTicks": 64,
                    "midi": 69,
                    "name": "A4",
                    "ticks": 50816,
                    "time": 82.708201,
                    "velocity": 0.47244094488188976
                },
                {
                    "duration": 0.10253889843748709,
                    "durationTicks": 63,
                    "midi": 46,
                    "name": "A#2",
                    "ticks": 50816,
                    "time": 82.708201,
                    "velocity": 0.41732283464566927
                },
                {
                    "duration": 0.10253889843748709,
                    "durationTicks": 63,
                    "midi": 58,
                    "name": "A#3",
                    "ticks": 50816,
                    "time": 82.708201,
                    "velocity": 0.41732283464566927
                },
                {
                    "duration": 0.10416650000000516,
                    "durationTicks": 64,
                    "midi": 68,
                    "name": "G#4",
                    "ticks": 50880,
                    "time": 82.8123675,
                    "velocity": 0.4566929133858268
                },
                {
                    "duration": 0.10416649999999095,
                    "durationTicks": 64,
                    "midi": 69,
                    "name": "A4",
                    "ticks": 50944,
                    "time": 82.916534,
                    "velocity": 0.4881889763779528
                },
                {
                    "duration": 0.1025388984375013,
                    "durationTicks": 63,
                    "midi": 50,
                    "name": "D3",
                    "ticks": 50944,
                    "time": 82.916534,
                    "velocity": 0.5275590551181102
                },
                {
                    "duration": 0.1025388984375013,
                    "durationTicks": 63,
                    "midi": 62,
                    "name": "D4",
                    "ticks": 50944,
                    "time": 82.916534,
                    "velocity": 0.5275590551181102
                },
                {
                    "duration": 0.10416650000000516,
                    "durationTicks": 64,
                    "midi": 70,
                    "name": "A#4",
                    "ticks": 51008,
                    "time": 83.02070049999999,
                    "velocity": 0.49606299212598426
                },
                {
                    "duration": 0.10416650000000516,
                    "durationTicks": 64,
                    "midi": 69,
                    "name": "A4",
                    "ticks": 51072,
                    "time": 83.124867,
                    "velocity": 0.47244094488188976
                },
                {
                    "duration": 0.1025388984375013,
                    "durationTicks": 63,
                    "midi": 53,
                    "name": "F3",
                    "ticks": 51072,
                    "time": 83.124867,
                    "velocity": 0.5275590551181102
                },
                {
                    "duration": 0.1025388984375013,
                    "durationTicks": 63,
                    "midi": 65,
                    "name": "F4",
                    "ticks": 51072,
                    "time": 83.124867,
                    "velocity": 0.5275590551181102
                },
                {
                    "duration": 0.08300767968749767,
                    "durationTicks": 51,
                    "midi": 68,
                    "name": "G#4",
                    "ticks": 51136,
                    "time": 83.2290335,
                    "velocity": 0.4645669291338583
                },
                {
                    "duration": 0.1025388984375013,
                    "durationTicks": 63,
                    "midi": 69,
                    "name": "A4",
                    "ticks": 51200,
                    "time": 83.33319999999999,
                    "velocity": 0.5118110236220472
                },
                {
                    "duration": 0.1025388984375013,
                    "durationTicks": 63,
                    "midi": 57,
                    "name": "A3",
                    "ticks": 51200,
                    "time": 83.33319999999999,
                    "velocity": 0.5118110236220472
                },
                {
                    "duration": 0.10416650000000516,
                    "durationTicks": 64,
                    "midi": 69,
                    "name": "A4",
                    "ticks": 51200,
                    "time": 83.33319999999999,
                    "velocity": 0.5118110236220472
                },
                {
                    "duration": 0.10416650000000516,
                    "durationTicks": 64,
                    "midi": 68,
                    "name": "G#4",
                    "ticks": 51264,
                    "time": 83.4373665,
                    "velocity": 0.4330708661417323
                },
                {
                    "duration": 0.10416649999999095,
                    "durationTicks": 64,
                    "midi": 67,
                    "name": "G4",
                    "ticks": 51328,
                    "time": 83.541533,
                    "velocity": 0.44881889763779526
                },
                {
                    "duration": 0.10416650000000516,
                    "durationTicks": 64,
                    "midi": 66,
                    "name": "F#4",
                    "ticks": 51392,
                    "time": 83.64569949999999,
                    "velocity": 0.44881889763779526
                },
                {
                    "duration": 0.10416650000000516,
                    "durationTicks": 64,
                    "midi": 67,
                    "name": "G4",
                    "ticks": 51456,
                    "time": 83.749866,
                    "velocity": 0.5196850393700787
                },
                {
                    "duration": 0.10416649999999095,
                    "durationTicks": 64,
                    "midi": 66,
                    "name": "F#4",
                    "ticks": 51520,
                    "time": 83.8540325,
                    "velocity": 0.47244094488188976
                },
                {
                    "duration": 0.10416650000000516,
                    "durationTicks": 64,
                    "midi": 65,
                    "name": "F4",
                    "ticks": 51584,
                    "time": 83.958199,
                    "velocity": 0.4566929133858268
                },
                {
                    "duration": 0.10416649999999095,
                    "durationTicks": 64,
                    "midi": 64,
                    "name": "E4",
                    "ticks": 51648,
                    "time": 84.0623655,
                    "velocity": 0.4330708661417323
                },
                {
                    "duration": 0.10416650000000516,
                    "durationTicks": 64,
                    "midi": 65,
                    "name": "F4",
                    "ticks": 51712,
                    "time": 84.16653199999999,
                    "velocity": 0.49606299212598426
                },
                {
                    "duration": 0.10416650000000516,
                    "durationTicks": 64,
                    "midi": 64,
                    "name": "E4",
                    "ticks": 51776,
                    "time": 84.2706985,
                    "velocity": 0.4566929133858268
                },
                {
                    "duration": 0.10416649999999095,
                    "durationTicks": 64,
                    "midi": 63,
                    "name": "D#4",
                    "ticks": 51840,
                    "time": 84.374865,
                    "velocity": 0.4566929133858268
                },
                {
                    "duration": 0.10416650000000516,
                    "durationTicks": 64,
                    "midi": 62,
                    "name": "D4",
                    "ticks": 51904,
                    "time": 84.47903149999999,
                    "velocity": 0.47244094488188976
                },
                {
                    "duration": 0.10416650000000516,
                    "durationTicks": 64,
                    "midi": 61,
                    "name": "C#4",
                    "ticks": 51968,
                    "time": 84.583198,
                    "velocity": 0.41732283464566927
                },
                {
                    "duration": 0.10416649999999095,
                    "durationTicks": 64,
                    "midi": 60,
                    "name": "C4",
                    "ticks": 52032,
                    "time": 84.6873645,
                    "velocity": 0.4330708661417323
                },
                {
                    "duration": 0.10416650000000516,
                    "durationTicks": 64,
                    "midi": 59,
                    "name": "B3",
                    "ticks": 52096,
                    "time": 84.79153099999999,
                    "velocity": 0.44881889763779526
                },
                {
                    "duration": 0.08300767968749767,
                    "durationTicks": 51,
                    "midi": 58,
                    "name": "A#3",
                    "ticks": 52160,
                    "time": 84.8956975,
                    "velocity": 0.47244094488188976
                },
                {
                    "duration": 0.10416649999999095,
                    "durationTicks": 64,
                    "midi": 57,
                    "name": "A3",
                    "ticks": 52224,
                    "time": 84.999864,
                    "velocity": 0.47244094488188976
                },
                {
                    "duration": 0.10416650000000516,
                    "durationTicks": 64,
                    "midi": 58,
                    "name": "A#3",
                    "ticks": 52288,
                    "time": 85.1040305,
                    "velocity": 0.4566929133858268
                },
                {
                    "duration": 0.10416649999999095,
                    "durationTicks": 64,
                    "midi": 57,
                    "name": "A3",
                    "ticks": 52352,
                    "time": 85.208197,
                    "velocity": 0.49606299212598426
                },
                {
                    "duration": 0.10416650000000516,
                    "durationTicks": 64,
                    "midi": 56,
                    "name": "G#3",
                    "ticks": 52416,
                    "time": 85.31236349999999,
                    "velocity": 0.4566929133858268
                },
                {
                    "duration": 0.1025388984375013,
                    "durationTicks": 63,
                    "midi": 57,
                    "name": "A3",
                    "ticks": 52480,
                    "time": 85.41653,
                    "velocity": 0.49606299212598426
                },
                {
                    "duration": 0.1025388984375013,
                    "durationTicks": 63,
                    "midi": 45,
                    "name": "A2",
                    "ticks": 52480,
                    "time": 85.41653,
                    "velocity": 0.4094488188976378
                },
                {
                    "duration": 0.10416650000000516,
                    "durationTicks": 64,
                    "midi": 57,
                    "name": "A3",
                    "ticks": 52480,
                    "time": 85.41653,
                    "velocity": 0.4094488188976378
                },
                {
                    "duration": 0.10416649999999095,
                    "durationTicks": 64,
                    "midi": 58,
                    "name": "A#3",
                    "ticks": 52544,
                    "time": 85.5206965,
                    "velocity": 0.49606299212598426
                },
                {
                    "duration": 0.10416650000000516,
                    "durationTicks": 64,
                    "midi": 57,
                    "name": "A3",
                    "ticks": 52608,
                    "time": 85.62486299999999,
                    "velocity": 0.4566929133858268
                },
                {
                    "duration": 0.1025388984375013,
                    "durationTicks": 63,
                    "midi": 41,
                    "name": "F2",
                    "ticks": 52608,
                    "time": 85.62486299999999,
                    "velocity": 0.4881889763779528
                },
                {
                    "duration": 0.1025388984375013,
                    "durationTicks": 63,
                    "midi": 53,
                    "name": "F3",
                    "ticks": 52608,
                    "time": 85.62486299999999,
                    "velocity": 0.4881889763779528
                },
                {
                    "duration": 0.10416650000000516,
                    "durationTicks": 64,
                    "midi": 56,
                    "name": "G#3",
                    "ticks": 52672,
                    "time": 85.7290295,
                    "velocity": 0.4251968503937008
                },
                {
                    "duration": 0.10416649999999095,
                    "durationTicks": 64,
                    "midi": 57,
                    "name": "A3",
                    "ticks": 52736,
                    "time": 85.833196,
                    "velocity": 0.4566929133858268
                },
                {
                    "duration": 0.1025388984375013,
                    "durationTicks": 63,
                    "midi": 38,
                    "name": "D2",
                    "ticks": 52736,
                    "time": 85.833196,
                    "velocity": 0.4409448818897638
                },
                {
                    "duration": 0.1025388984375013,
                    "durationTicks": 63,
                    "midi": 50,
                    "name": "D3",
                    "ticks": 52736,
                    "time": 85.833196,
                    "velocity": 0.4409448818897638
                },
                {
                    "duration": 0.10416650000000516,
                    "durationTicks": 64,
                    "midi": 58,
                    "name": "A#3",
                    "ticks": 52800,
                    "time": 85.93736249999999,
                    "velocity": 0.5118110236220472
                },
                {
                    "duration": 0.10416650000000516,
                    "durationTicks": 64,
                    "midi": 57,
                    "name": "A3",
                    "ticks": 52864,
                    "time": 86.041529,
                    "velocity": 0.4645669291338583
                },
                {
                    "duration": 0.1025388984375013,
                    "durationTicks": 63,
                    "midi": 34,
                    "name": "A#1",
                    "ticks": 52864,
                    "time": 86.041529,
                    "velocity": 0.44881889763779526
                },
                {
                    "duration": 0.1025388984375013,
                    "durationTicks": 63,
                    "midi": 46,
                    "name": "A#2",
                    "ticks": 52864,
                    "time": 86.041529,
                    "velocity": 0.44881889763779526
                },
                {
                    "duration": 0.10416649999999095,
                    "durationTicks": 64,
                    "midi": 56,
                    "name": "G#3",
                    "ticks": 52928,
                    "time": 86.1456955,
                    "velocity": 0.4330708661417323
                },
                {
                    "duration": 0.10416650000000516,
                    "durationTicks": 64,
                    "midi": 57,
                    "name": "A3",
                    "ticks": 52992,
                    "time": 86.249862,
                    "velocity": 0.5118110236220472
                },
                {
                    "duration": 0.1025388984375013,
                    "durationTicks": 63,
                    "midi": 38,
                    "name": "D2",
                    "ticks": 52992,
                    "time": 86.249862,
                    "velocity": 0.5118110236220472
                },
                {
                    "duration": 0.1025388984375013,
                    "durationTicks": 63,
                    "midi": 50,
                    "name": "D3",
                    "ticks": 52992,
                    "time": 86.249862,
                    "velocity": 0.5118110236220472
                },
                {
                    "duration": 0.10416649999999095,
                    "durationTicks": 64,
                    "midi": 58,
                    "name": "A#3",
                    "ticks": 53056,
                    "time": 86.3540285,
                    "velocity": 0.4881889763779528
                },
                {
                    "duration": 0.10416650000000516,
                    "durationTicks": 64,
                    "midi": 57,
                    "name": "A3",
                    "ticks": 53120,
                    "time": 86.45819499999999,
                    "velocity": 0.47244094488188976
                },
                {
                    "duration": 0.1025388984375013,
                    "durationTicks": 63,
                    "midi": 41,
                    "name": "F2",
                    "ticks": 53120,
                    "time": 86.45819499999999,
                    "velocity": 0.5039370078740157
                },
                {
                    "duration": 0.1025388984375013,
                    "durationTicks": 63,
                    "midi": 53,
                    "name": "F3",
                    "ticks": 53120,
                    "time": 86.45819499999999,
                    "velocity": 0.5039370078740157
                },
                {
                    "duration": 0.08300767968749767,
                    "durationTicks": 51,
                    "midi": 56,
                    "name": "G#3",
                    "ticks": 53184,
                    "time": 86.5623615,
                    "velocity": 0.4566929133858268
                },
                {
                    "duration": 0.10416649999999095,
                    "durationTicks": 64,
                    "midi": 57,
                    "name": "A3",
                    "ticks": 53248,
                    "time": 86.666528,
                    "velocity": 0.47244094488188976
                },
                {
                    "duration": 0.20670539843749225,
                    "durationTicks": 127,
                    "midi": 45,
                    "name": "A2",
                    "ticks": 53248,
                    "time": 86.666528,
                    "velocity": 0.5196850393700787
                },
                {
                    "duration": 0.20670539843749225,
                    "durationTicks": 127,
                    "midi": 57,
                    "name": "A3",
                    "ticks": 53248,
                    "time": 86.666528,
                    "velocity": 0.5196850393700787
                },
                {
                    "duration": 0.10416650000000516,
                    "durationTicks": 64,
                    "midi": 58,
                    "name": "A#3",
                    "ticks": 53312,
                    "time": 86.77069449999999,
                    "velocity": 0.44881889763779526
                },
                {
                    "duration": 0.10416650000000516,
                    "durationTicks": 64,
                    "midi": 57,
                    "name": "A3",
                    "ticks": 53376,
                    "time": 86.874861,
                    "velocity": 0.4645669291338583
                },
                {
                    "duration": 0.10416649999999095,
                    "durationTicks": 64,
                    "midi": 56,
                    "name": "G#3",
                    "ticks": 53440,
                    "time": 86.9790275,
                    "velocity": 0.44881889763779526
                },
                {
                    "duration": 0.10416650000000516,
                    "durationTicks": 64,
                    "midi": 57,
                    "name": "A3",
                    "ticks": 53504,
                    "time": 87.08319399999999,
                    "velocity": 0.48031496062992124
                },
                {
                    "duration": 0.1025388984375013,
                    "durationTicks": 63,
                    "midi": 69,
                    "name": "A4",
                    "ticks": 53504,
                    "time": 87.08319399999999,
                    "velocity": 0.6141732283464567
                },
                {
                    "duration": 0.10416650000000516,
                    "durationTicks": 64,
                    "midi": 58,
                    "name": "A#3",
                    "ticks": 53568,
                    "time": 87.1873605,
                    "velocity": 0.4881889763779528
                },
                {
                    "duration": 0.10416649999999095,
                    "durationTicks": 64,
                    "midi": 57,
                    "name": "A3",
                    "ticks": 53632,
                    "time": 87.291527,
                    "velocity": 0.47244094488188976
                },
                {
                    "duration": 0.10253889843748709,
                    "durationTicks": 63,
                    "midi": 65,
                    "name": "F4",
                    "ticks": 53632,
                    "time": 87.291527,
                    "velocity": 0.4251968503937008
                },
                {
                    "duration": 0.10416650000000516,
                    "durationTicks": 64,
                    "midi": 56,
                    "name": "G#3",
                    "ticks": 53696,
                    "time": 87.3956935,
                    "velocity": 0.4251968503937008
                },
                {
                    "duration": 0.10416649999999095,
                    "durationTicks": 64,
                    "midi": 57,
                    "name": "A3",
                    "ticks": 53760,
                    "time": 87.49986,
                    "velocity": 0.47244094488188976
                },
                {
                    "duration": 0.1025388984375013,
                    "durationTicks": 63,
                    "midi": 62,
                    "name": "D4",
                    "ticks": 53760,
                    "time": 87.49986,
                    "velocity": 0.4094488188976378
                },
                {
                    "duration": 0.10416650000000516,
                    "durationTicks": 64,
                    "midi": 58,
                    "name": "A#3",
                    "ticks": 53824,
                    "time": 87.60402649999999,
                    "velocity": 0.4881889763779528
                },
                {
                    "duration": 0.10416650000000516,
                    "durationTicks": 64,
                    "midi": 57,
                    "name": "A3",
                    "ticks": 53888,
                    "time": 87.708193,
                    "velocity": 0.4645669291338583
                },
                {
                    "duration": 0.1025388984375013,
                    "durationTicks": 63,
                    "midi": 58,
                    "name": "A#3",
                    "ticks": 53888,
                    "time": 87.708193,
                    "velocity": 0.4330708661417323
                },
                {
                    "duration": 0.10416649999999095,
                    "durationTicks": 64,
                    "midi": 56,
                    "name": "G#3",
                    "ticks": 53952,
                    "time": 87.8123595,
                    "velocity": 0.5039370078740157
                },
                {
                    "duration": 0.10416650000000516,
                    "durationTicks": 64,
                    "midi": 57,
                    "name": "A3",
                    "ticks": 54016,
                    "time": 87.91652599999999,
                    "velocity": 0.5118110236220472
                },
                {
                    "duration": 0.1025388984375013,
                    "durationTicks": 63,
                    "midi": 62,
                    "name": "D4",
                    "ticks": 54016,
                    "time": 87.91652599999999,
                    "velocity": 0.5196850393700787
                },
                {
                    "duration": 0.10416650000000516,
                    "durationTicks": 64,
                    "midi": 58,
                    "name": "A#3",
                    "ticks": 54080,
                    "time": 88.0206925,
                    "velocity": 0.4881889763779528
                },
                {
                    "duration": 0.10416649999999095,
                    "durationTicks": 64,
                    "midi": 57,
                    "name": "A3",
                    "ticks": 54144,
                    "time": 88.124859,
                    "velocity": 0.4330708661417323
                },
                {
                    "duration": 0.1025388984375013,
                    "durationTicks": 63,
                    "midi": 65,
                    "name": "F4",
                    "ticks": 54144,
                    "time": 88.124859,
                    "velocity": 0.5118110236220472
                },
                {
                    "duration": 0.08300767968749767,
                    "durationTicks": 51,
                    "midi": 56,
                    "name": "G#3",
                    "ticks": 54208,
                    "time": 88.22902549999999,
                    "velocity": 0.44881889763779526
                },
                {
                    "duration": 0.10416650000000516,
                    "durationTicks": 64,
                    "midi": 57,
                    "name": "A3",
                    "ticks": 54272,
                    "time": 88.333192,
                    "velocity": 0.48031496062992124
                },
                {
                    "duration": 0.8333319999999986,
                    "durationTicks": 512,
                    "midi": 69,
                    "name": "A4",
                    "ticks": 54272,
                    "time": 88.333192,
                    "velocity": 0.5275590551181102
                },
                {
                    "duration": 0.10416649999999095,
                    "durationTicks": 64,
                    "midi": 58,
                    "name": "A#3",
                    "ticks": 54336,
                    "time": 88.4373585,
                    "velocity": 0.5196850393700787
                },
                {
                    "duration": 0.10416650000000516,
                    "durationTicks": 64,
                    "midi": 59,
                    "name": "B3",
                    "ticks": 54400,
                    "time": 88.541525,
                    "velocity": 0.4881889763779528
                },
                {
                    "duration": 0.10416649999999095,
                    "durationTicks": 64,
                    "midi": 60,
                    "name": "C4",
                    "ticks": 54464,
                    "time": 88.6456915,
                    "velocity": 0.5590551181102362
                },
                {
                    "duration": 0.10416650000000516,
                    "durationTicks": 64,
                    "midi": 61,
                    "name": "C#4",
                    "ticks": 54528,
                    "time": 88.74985799999999,
                    "velocity": 0.5039370078740157
                },
                {
                    "duration": 0.10416650000000516,
                    "durationTicks": 64,
                    "midi": 62,
                    "name": "D4",
                    "ticks": 54592,
                    "time": 88.8540245,
                    "velocity": 0.5196850393700787
                },
                {
                    "duration": 0.10416649999999095,
                    "durationTicks": 64,
                    "midi": 63,
                    "name": "D#4",
                    "ticks": 54656,
                    "time": 88.958191,
                    "velocity": 0.4881889763779528
                },
                {
                    "duration": 0.10416650000000516,
                    "durationTicks": 64,
                    "midi": 64,
                    "name": "E4",
                    "ticks": 54720,
                    "time": 89.06235749999999,
                    "velocity": 0.5433070866141733
                },
                {
                    "duration": 0.10416650000000516,
                    "durationTicks": 64,
                    "midi": 65,
                    "name": "F4",
                    "ticks": 54784,
                    "time": 89.166524,
                    "velocity": 0.4645669291338583
                },
                {
                    "duration": 0.5208324999999974,
                    "durationTicks": 320,
                    "midi": 69,
                    "name": "A4",
                    "ticks": 54784,
                    "time": 89.166524,
                    "velocity": 0.6299212598425197
                },
                {
                    "duration": 1.249998000000005,
                    "durationTicks": 768,
                    "midi": 81,
                    "name": "A5",
                    "ticks": 54784,
                    "time": 89.166524,
                    "velocity": 0.6299212598425197
                },
                {
                    "duration": 0.10416649999999095,
                    "durationTicks": 64,
                    "midi": 66,
                    "name": "F#4",
                    "ticks": 54848,
                    "time": 89.2706905,
                    "velocity": 0.49606299212598426
                },
                {
                    "duration": 0.10416650000000516,
                    "durationTicks": 64,
                    "midi": 67,
                    "name": "G4",
                    "ticks": 54912,
                    "time": 89.37485699999999,
                    "velocity": 0.4881889763779528
                },
                {
                    "duration": 0.10416650000000516,
                    "durationTicks": 64,
                    "midi": 68,
                    "name": "G#4",
                    "ticks": 54976,
                    "time": 89.4790235,
                    "velocity": 0.5118110236220472
                },
                {
                    "duration": 0.8333319999999986,
                    "durationTicks": 512,
                    "midi": 69,
                    "name": "A4",
                    "ticks": 55040,
                    "time": 89.58319,
                    "velocity": 0.48031496062992124
                },
                {
                    "duration": 0.10416650000000516,
                    "durationTicks": 64,
                    "midi": 70,
                    "name": "A#4",
                    "ticks": 55104,
                    "time": 89.68735649999999,
                    "velocity": 0.49606299212598426
                },
                {
                    "duration": 0.10416649999999095,
                    "durationTicks": 64,
                    "midi": 71,
                    "name": "B4",
                    "ticks": 55168,
                    "time": 89.791523,
                    "velocity": 0.5275590551181102
                },
                {
                    "duration": 0.08300767968751188,
                    "durationTicks": 51,
                    "midi": 72,
                    "name": "C5",
                    "ticks": 55232,
                    "time": 89.89568949999999,
                    "velocity": 0.5196850393700787
                },
                {
                    "duration": 0.10416650000000516,
                    "durationTicks": 64,
                    "midi": 73,
                    "name": "C#5",
                    "ticks": 55296,
                    "time": 89.999856,
                    "velocity": 0.47244094488188976
                },
                {
                    "duration": 0.10416649999999095,
                    "durationTicks": 64,
                    "midi": 74,
                    "name": "D5",
                    "ticks": 55360,
                    "time": 90.1040225,
                    "velocity": 0.47244094488188976
                },
                {
                    "duration": 0.10416650000000516,
                    "durationTicks": 64,
                    "midi": 75,
                    "name": "D#5",
                    "ticks": 55424,
                    "time": 90.20818899999999,
                    "velocity": 0.4645669291338583
                },
                {
                    "duration": 0.10416650000000516,
                    "durationTicks": 64,
                    "midi": 76,
                    "name": "E5",
                    "ticks": 55488,
                    "time": 90.3123555,
                    "velocity": 0.4566929133858268
                },
                {
                    "duration": 0.10416649999999095,
                    "durationTicks": 64,
                    "midi": 77,
                    "name": "F5",
                    "ticks": 55552,
                    "time": 90.416522,
                    "velocity": 0.44881889763779526
                },
                {
                    "duration": 0.4166659999999922,
                    "durationTicks": 256,
                    "midi": 57,
                    "name": "A3",
                    "ticks": 55552,
                    "time": 90.416522,
                    "velocity": 0.44881889763779526
                },
                {
                    "duration": 0.4166659999999922,
                    "durationTicks": 256,
                    "midi": 69,
                    "name": "A4",
                    "ticks": 55552,
                    "time": 90.416522,
                    "velocity": 0.44881889763779526
                },
                {
                    "duration": 0.10416650000000516,
                    "durationTicks": 64,
                    "midi": 78,
                    "name": "F#5",
                    "ticks": 55616,
                    "time": 90.52068849999999,
                    "velocity": 0.4409448818897638
                },
                {
                    "duration": 0.10416650000000516,
                    "durationTicks": 64,
                    "midi": 79,
                    "name": "G5",
                    "ticks": 55680,
                    "time": 90.624855,
                    "velocity": 0.4330708661417323
                },
                {
                    "duration": 0.10416649999999095,
                    "durationTicks": 64,
                    "midi": 80,
                    "name": "G#5",
                    "ticks": 55744,
                    "time": 90.7290215,
                    "velocity": 0.4251968503937008
                },
                {
                    "duration": 0.10416650000000516,
                    "durationTicks": 64,
                    "midi": 81,
                    "name": "A5",
                    "ticks": 55808,
                    "time": 90.83318799999999,
                    "velocity": 0.41732283464566927
                },
                {
                    "duration": 0.8333319999999986,
                    "durationTicks": 512,
                    "midi": 57,
                    "name": "A3",
                    "ticks": 55808,
                    "time": 90.83318799999999,
                    "velocity": 0.41732283464566927
                },
                {
                    "duration": 0.10416649999999095,
                    "durationTicks": 64,
                    "midi": 82,
                    "name": "A#5",
                    "ticks": 55872,
                    "time": 90.9373545,
                    "velocity": 0.4094488188976378
                },
                {
                    "duration": 0.10416650000000516,
                    "durationTicks": 64,
                    "midi": 81,
                    "name": "A5",
                    "ticks": 55936,
                    "time": 91.04152099999999,
                    "velocity": 0.4015748031496063
                },
                {
                    "duration": 0.10416650000000516,
                    "durationTicks": 64,
                    "midi": 80,
                    "name": "G#5",
                    "ticks": 56000,
                    "time": 91.1456875,
                    "velocity": 0.3937007874015748
                },
                {
                    "duration": 0.10416649999999095,
                    "durationTicks": 64,
                    "midi": 81,
                    "name": "A5",
                    "ticks": 56064,
                    "time": 91.249854,
                    "velocity": 0.3937007874015748
                },
                {
                    "duration": 0.10416650000000516,
                    "durationTicks": 64,
                    "midi": 82,
                    "name": "A#5",
                    "ticks": 56128,
                    "time": 91.35402049999999,
                    "velocity": 0.3858267716535433
                },
                {
                    "duration": 0.08300767968749767,
                    "durationTicks": 51,
                    "midi": 81,
                    "name": "A5",
                    "ticks": 56192,
                    "time": 91.458187,
                    "velocity": 0.3700787401574803
                },
                {
                    "duration": 0.10416649999999095,
                    "durationTicks": 64,
                    "midi": 80,
                    "name": "G#5",
                    "ticks": 56256,
                    "time": 91.5623535,
                    "velocity": 0.36220472440944884
                },
                {
                    "duration": 0.10416650000000516,
                    "durationTicks": 64,
                    "midi": 74,
                    "name": "D5",
                    "ticks": 56320,
                    "time": 91.66651999999999,
                    "velocity": 0.6535433070866141
                },
                {
                    "duration": 0.10416650000000516,
                    "durationTicks": 64,
                    "midi": 77,
                    "name": "F5",
                    "ticks": 56320,
                    "time": 91.66651999999999,
                    "velocity": 0.6535433070866141
                },
                {
                    "duration": 0.10416650000000516,
                    "durationTicks": 64,
                    "midi": 81,
                    "name": "A5",
                    "ticks": 56320,
                    "time": 91.66651999999999,
                    "velocity": 0.6535433070866141
                },
                {
                    "duration": 0.20833300000001032,
                    "durationTicks": 128,
                    "midi": 38,
                    "name": "D2",
                    "ticks": 56320,
                    "time": 91.66651999999999,
                    "velocity": 0.5826771653543307
                },
                {
                    "duration": 0.20833300000001032,
                    "durationTicks": 128,
                    "midi": 50,
                    "name": "D3",
                    "ticks": 56320,
                    "time": 91.66651999999999,
                    "velocity": 0.5826771653543307
                },
                {
                    "duration": 0.10416650000000516,
                    "durationTicks": 64,
                    "midi": 80,
                    "name": "G#5",
                    "ticks": 56384,
                    "time": 91.7706865,
                    "velocity": 0.5905511811023622
                },
                {
                    "duration": 0.10416649999999095,
                    "durationTicks": 64,
                    "midi": 79,
                    "name": "G5",
                    "ticks": 56448,
                    "time": 91.874853,
                    "velocity": 0.5905511811023622
                },
                {
                    "duration": 0.10416650000000516,
                    "durationTicks": 64,
                    "midi": 78,
                    "name": "F#5",
                    "ticks": 56512,
                    "time": 91.97901949999999,
                    "velocity": 0.6299212598425197
                },
                {
                    "duration": 0.10416649999999095,
                    "durationTicks": 64,
                    "midi": 77,
                    "name": "F5",
                    "ticks": 56576,
                    "time": 92.083186,
                    "velocity": 0.5984251968503937
                },
                {
                    "duration": 0.10416650000000516,
                    "durationTicks": 64,
                    "midi": 82,
                    "name": "A#5",
                    "ticks": 56640,
                    "time": 92.18735249999999,
                    "velocity": 0.7795275590551181
                },
                {
                    "duration": 0.10416650000000516,
                    "durationTicks": 64,
                    "midi": 81,
                    "name": "A5",
                    "ticks": 56704,
                    "time": 92.291519,
                    "velocity": 0.6377952755905512
                },
                {
                    "duration": 0.10416649999999095,
                    "durationTicks": 64,
                    "midi": 80,
                    "name": "G#5",
                    "ticks": 56768,
                    "time": 92.3956855,
                    "velocity": 0.6692913385826772
                },
                {
                    "duration": 0.10416650000000516,
                    "durationTicks": 64,
                    "midi": 81,
                    "name": "A5",
                    "ticks": 56832,
                    "time": 92.49985199999999,
                    "velocity": 0.6614173228346457
                },
                {
                    "duration": 0.20833300000001032,
                    "durationTicks": 128,
                    "midi": 38,
                    "name": "D2",
                    "ticks": 56832,
                    "time": 92.49985199999999,
                    "velocity": 0.5826771653543307
                },
                {
                    "duration": 0.20833300000001032,
                    "durationTicks": 128,
                    "midi": 50,
                    "name": "D3",
                    "ticks": 56832,
                    "time": 92.49985199999999,
                    "velocity": 0.5826771653543307
                },
                {
                    "duration": 0.10416650000000516,
                    "durationTicks": 64,
                    "midi": 80,
                    "name": "G#5",
                    "ticks": 56896,
                    "time": 92.6040185,
                    "velocity": 0.6377952755905512
                },
                {
                    "duration": 0.10416649999999095,
                    "durationTicks": 64,
                    "midi": 79,
                    "name": "G5",
                    "ticks": 56960,
                    "time": 92.708185,
                    "velocity": 0.5984251968503937
                },
                {
                    "duration": 0.10416650000000516,
                    "durationTicks": 64,
                    "midi": 78,
                    "name": "F#5",
                    "ticks": 57024,
                    "time": 92.81235149999999,
                    "velocity": 0.6220472440944882
                },
                {
                    "duration": 0.10416650000000516,
                    "durationTicks": 64,
                    "midi": 77,
                    "name": "F5",
                    "ticks": 57088,
                    "time": 92.916518,
                    "velocity": 0.6141732283464567
                },
                {
                    "duration": 0.2083329999999961,
                    "durationTicks": 128,
                    "midi": 55,
                    "name": "G3",
                    "ticks": 57088,
                    "time": 92.916518,
                    "velocity": 0.5748031496062992
                },
                {
                    "duration": 0.2083329999999961,
                    "durationTicks": 128,
                    "midi": 59,
                    "name": "B3",
                    "ticks": 57088,
                    "time": 92.916518,
                    "velocity": 0.5748031496062992
                },
                {
                    "duration": 0.2083329999999961,
                    "durationTicks": 128,
                    "midi": 62,
                    "name": "D4",
                    "ticks": 57088,
                    "time": 92.916518,
                    "velocity": 0.5748031496062992
                },
                {
                    "duration": 0.10416649999999095,
                    "durationTicks": 64,
                    "midi": 78,
                    "name": "F#5",
                    "ticks": 57152,
                    "time": 93.0206845,
                    "velocity": 0.6692913385826772
                },
                {
                    "duration": 0.10416650000000516,
                    "durationTicks": 64,
                    "midi": 79,
                    "name": "G5",
                    "ticks": 57216,
                    "time": 93.12485099999999,
                    "velocity": 0.6929133858267716
                },
                {
                    "duration": 0.08300767968749767,
                    "durationTicks": 51,
                    "midi": 80,
                    "name": "G#5",
                    "ticks": 57280,
                    "time": 93.2290175,
                    "velocity": 0.6771653543307087
                },
                {
                    "duration": 0.10416650000000516,
                    "durationTicks": 64,
                    "midi": 74,
                    "name": "D5",
                    "ticks": 57344,
                    "time": 93.33318399999999,
                    "velocity": 0.7322834645669292
                },
                {
                    "duration": 0.10416650000000516,
                    "durationTicks": 64,
                    "midi": 77,
                    "name": "F5",
                    "ticks": 57344,
                    "time": 93.33318399999999,
                    "velocity": 0.7322834645669292
                },
                {
                    "duration": 0.10416650000000516,
                    "durationTicks": 64,
                    "midi": 81,
                    "name": "A5",
                    "ticks": 57344,
                    "time": 93.33318399999999,
                    "velocity": 0.7322834645669292
                },
                {
                    "duration": 0.20833300000001032,
                    "durationTicks": 128,
                    "midi": 38,
                    "name": "D2",
                    "ticks": 57344,
                    "time": 93.33318399999999,
                    "velocity": 0.4330708661417323
                },
                {
                    "duration": 0.20833300000001032,
                    "durationTicks": 128,
                    "midi": 50,
                    "name": "D3",
                    "ticks": 57344,
                    "time": 93.33318399999999,
                    "velocity": 0.4330708661417323
                },
                {
                    "duration": 0.10416650000000516,
                    "durationTicks": 64,
                    "midi": 80,
                    "name": "G#5",
                    "ticks": 57408,
                    "time": 93.4373505,
                    "velocity": 0.6299212598425197
                },
                {
                    "duration": 0.10416649999999095,
                    "durationTicks": 64,
                    "midi": 79,
                    "name": "G5",
                    "ticks": 57472,
                    "time": 93.541517,
                    "velocity": 0.6062992125984252
                },
                {
                    "duration": 0.10416650000000516,
                    "durationTicks": 64,
                    "midi": 78,
                    "name": "F#5",
                    "ticks": 57536,
                    "time": 93.64568349999999,
                    "velocity": 0.6220472440944882
                },
                {
                    "duration": 0.10416650000000516,
                    "durationTicks": 64,
                    "midi": 77,
                    "name": "F5",
                    "ticks": 57600,
                    "time": 93.74985,
                    "velocity": 0.6062992125984252
                },
                {
                    "duration": 0.10416649999999095,
                    "durationTicks": 64,
                    "midi": 82,
                    "name": "A#5",
                    "ticks": 57664,
                    "time": 93.8540165,
                    "velocity": 0.7559055118110236
                },
                {
                    "duration": 0.10416650000000516,
                    "durationTicks": 64,
                    "midi": 81,
                    "name": "A5",
                    "ticks": 57728,
                    "time": 93.95818299999999,
                    "velocity": 0.6220472440944882
                },
                {
                    "duration": 0.10416650000000516,
                    "durationTicks": 64,
                    "midi": 80,
                    "name": "G#5",
                    "ticks": 57792,
                    "time": 94.0623495,
                    "velocity": 0.6299212598425197
                },
                {
                    "duration": 0.10416649999999095,
                    "durationTicks": 64,
                    "midi": 81,
                    "name": "A5",
                    "ticks": 57856,
                    "time": 94.166516,
                    "velocity": 0.6614173228346457
                },
                {
                    "duration": 0.2083329999999961,
                    "durationTicks": 128,
                    "midi": 38,
                    "name": "D2",
                    "ticks": 57856,
                    "time": 94.166516,
                    "velocity": 0.41732283464566927
                },
                {
                    "duration": 0.2083329999999961,
                    "durationTicks": 128,
                    "midi": 50,
                    "name": "D3",
                    "ticks": 57856,
                    "time": 94.166516,
                    "velocity": 0.41732283464566927
                },
                {
                    "duration": 0.10416650000000516,
                    "durationTicks": 64,
                    "midi": 80,
                    "name": "G#5",
                    "ticks": 57920,
                    "time": 94.27068249999999,
                    "velocity": 0.6299212598425197
                },
                {
                    "duration": 0.10416650000000516,
                    "durationTicks": 64,
                    "midi": 79,
                    "name": "G5",
                    "ticks": 57984,
                    "time": 94.374849,
                    "velocity": 0.6535433070866141
                },
                {
                    "duration": 0.10416649999999095,
                    "durationTicks": 64,
                    "midi": 78,
                    "name": "F#5",
                    "ticks": 58048,
                    "time": 94.4790155,
                    "velocity": 0.6535433070866141
                },
                {
                    "duration": 0.10416650000000516,
                    "durationTicks": 64,
                    "midi": 77,
                    "name": "F5",
                    "ticks": 58112,
                    "time": 94.583182,
                    "velocity": 0.6299212598425197
                },
                {
                    "duration": 0.2083329999999961,
                    "durationTicks": 128,
                    "midi": 55,
                    "name": "G3",
                    "ticks": 58112,
                    "time": 94.583182,
                    "velocity": 0.4251968503937008
                },
                {
                    "duration": 0.2083329999999961,
                    "durationTicks": 128,
                    "midi": 59,
                    "name": "B3",
                    "ticks": 58112,
                    "time": 94.583182,
                    "velocity": 0.4251968503937008
                },
                {
                    "duration": 0.2083329999999961,
                    "durationTicks": 128,
                    "midi": 62,
                    "name": "D4",
                    "ticks": 58112,
                    "time": 94.583182,
                    "velocity": 0.4251968503937008
                },
                {
                    "duration": 0.10416649999999095,
                    "durationTicks": 64,
                    "midi": 78,
                    "name": "F#5",
                    "ticks": 58176,
                    "time": 94.6873485,
                    "velocity": 0.7007874015748031
                },
                {
                    "duration": 0.10416650000000516,
                    "durationTicks": 64,
                    "midi": 79,
                    "name": "G5",
                    "ticks": 58240,
                    "time": 94.79151499999999,
                    "velocity": 0.6850393700787402
                },
                {
                    "duration": 0.08300767968749767,
                    "durationTicks": 51,
                    "midi": 80,
                    "name": "G#5",
                    "ticks": 58304,
                    "time": 94.8956815,
                    "velocity": 0.7007874015748031
                },
                {
                    "duration": 0.10416649999999095,
                    "durationTicks": 64,
                    "midi": 81,
                    "name": "A5",
                    "ticks": 58368,
                    "time": 94.999848,
                    "velocity": 0.7165354330708661
                },
                {
                    "duration": 0.2083329999999961,
                    "durationTicks": 128,
                    "midi": 50,
                    "name": "D3",
                    "ticks": 58368,
                    "time": 94.999848,
                    "velocity": 0.4251968503937008
                },
                {
                    "duration": 0.2083329999999961,
                    "durationTicks": 128,
                    "midi": 53,
                    "name": "F3",
                    "ticks": 58368,
                    "time": 94.999848,
                    "velocity": 0.4251968503937008
                },
                {
                    "duration": 0.2083329999999961,
                    "durationTicks": 128,
                    "midi": 57,
                    "name": "A3",
                    "ticks": 58368,
                    "time": 94.999848,
                    "velocity": 0.4251968503937008
                },
                {
                    "duration": 0.10416650000000516,
                    "durationTicks": 64,
                    "midi": 80,
                    "name": "G#5",
                    "ticks": 58432,
                    "time": 95.10401449999999,
                    "velocity": 0.6456692913385826
                },
                {
                    "duration": 0.10416650000000516,
                    "durationTicks": 64,
                    "midi": 79,
                    "name": "G5",
                    "ticks": 58496,
                    "time": 95.208181,
                    "velocity": 0.6299212598425197
                },
                {
                    "duration": 0.10416649999999095,
                    "durationTicks": 64,
                    "midi": 78,
                    "name": "F#5",
                    "ticks": 58560,
                    "time": 95.3123475,
                    "velocity": 0.6062992125984252
                },
                {
                    "duration": 0.10416650000000516,
                    "durationTicks": 64,
                    "midi": 79,
                    "name": "G5",
                    "ticks": 58624,
                    "time": 95.41651399999999,
                    "velocity": 0.7086614173228346
                },
                {
                    "duration": 0.20833300000001032,
                    "durationTicks": 128,
                    "midi": 46,
                    "name": "A#2",
                    "ticks": 58624,
                    "time": 95.41651399999999,
                    "velocity": 0.4251968503937008
                },
                {
                    "duration": 0.20833300000001032,
                    "durationTicks": 128,
                    "midi": 50,
                    "name": "D3",
                    "ticks": 58624,
                    "time": 95.41651399999999,
                    "velocity": 0.4251968503937008
                },
                {
                    "duration": 0.20833300000001032,
                    "durationTicks": 128,
                    "midi": 55,
                    "name": "G3",
                    "ticks": 58624,
                    "time": 95.41651399999999,
                    "velocity": 0.4251968503937008
                },
                {
                    "duration": 0.10416650000000516,
                    "durationTicks": 64,
                    "midi": 78,
                    "name": "F#5",
                    "ticks": 58688,
                    "time": 95.5206805,
                    "velocity": 0.6220472440944882
                },
                {
                    "duration": 0.10416649999999095,
                    "durationTicks": 64,
                    "midi": 77,
                    "name": "F5",
                    "ticks": 58752,
                    "time": 95.624847,
                    "velocity": 0.6062992125984252
                },
                {
                    "duration": 0.10416650000000516,
                    "durationTicks": 64,
                    "midi": 76,
                    "name": "E5",
                    "ticks": 58816,
                    "time": 95.7290135,
                    "velocity": 0.5669291338582677
                },
                {
                    "duration": 0.10416649999999095,
                    "durationTicks": 64,
                    "midi": 77,
                    "name": "F5",
                    "ticks": 58880,
                    "time": 95.83318,
                    "velocity": 0.6850393700787402
                },
                {
                    "duration": 0.2083329999999961,
                    "durationTicks": 128,
                    "midi": 45,
                    "name": "A2",
                    "ticks": 58880,
                    "time": 95.83318,
                    "velocity": 0.4094488188976378
                },
                {
                    "duration": 0.2083329999999961,
                    "durationTicks": 128,
                    "midi": 50,
                    "name": "D3",
                    "ticks": 58880,
                    "time": 95.83318,
                    "velocity": 0.4094488188976378
                },
                {
                    "duration": 0.2083329999999961,
                    "durationTicks": 128,
                    "midi": 53,
                    "name": "F3",
                    "ticks": 58880,
                    "time": 95.83318,
                    "velocity": 0.4094488188976378
                },
                {
                    "duration": 0.10416650000000516,
                    "durationTicks": 64,
                    "midi": 78,
                    "name": "F#5",
                    "ticks": 58944,
                    "time": 95.93734649999999,
                    "velocity": 0.7007874015748031
                },
                {
                    "duration": 0.10416650000000516,
                    "durationTicks": 64,
                    "midi": 79,
                    "name": "G5",
                    "ticks": 59008,
                    "time": 96.041513,
                    "velocity": 0.7007874015748031
                },
                {
                    "duration": 0.10416649999999095,
                    "durationTicks": 64,
                    "midi": 80,
                    "name": "G#5",
                    "ticks": 59072,
                    "time": 96.1456795,
                    "velocity": 0.7086614173228346
                },
                {
                    "duration": 0.10416650000000516,
                    "durationTicks": 64,
                    "midi": 81,
                    "name": "A5",
                    "ticks": 59136,
                    "time": 96.24984599999999,
                    "velocity": 0.6929133858267716
                },
                {
                    "duration": 0.20833300000001032,
                    "durationTicks": 128,
                    "midi": 49,
                    "name": "C#3",
                    "ticks": 59136,
                    "time": 96.24984599999999,
                    "velocity": 0.4330708661417323
                },
                {
                    "duration": 0.20833300000001032,
                    "durationTicks": 128,
                    "midi": 52,
                    "name": "E3",
                    "ticks": 59136,
                    "time": 96.24984599999999,
                    "velocity": 0.4330708661417323
                },
                {
                    "duration": 0.20833300000001032,
                    "durationTicks": 128,
                    "midi": 55,
                    "name": "G3",
                    "ticks": 59136,
                    "time": 96.24984599999999,
                    "velocity": 0.4330708661417323
                },
                {
                    "duration": 0.20833300000001032,
                    "durationTicks": 128,
                    "midi": 57,
                    "name": "A3",
                    "ticks": 59136,
                    "time": 96.24984599999999,
                    "velocity": 0.4330708661417323
                },
                {
                    "duration": 0.10416650000000516,
                    "durationTicks": 64,
                    "midi": 82,
                    "name": "A#5",
                    "ticks": 59200,
                    "time": 96.3540125,
                    "velocity": 0.6850393700787402
                },
                {
                    "duration": 0.10416649999999095,
                    "durationTicks": 64,
                    "midi": 81,
                    "name": "A5",
                    "ticks": 59264,
                    "time": 96.458179,
                    "velocity": 0.6299212598425197
                },
                {
                    "duration": 0.08300767968749767,
                    "durationTicks": 51,
                    "midi": 80,
                    "name": "G#5",
                    "ticks": 59328,
                    "time": 96.56234549999999,
                    "velocity": 0.6220472440944882
                },
                {
                    "duration": 0.10416650000000516,
                    "durationTicks": 64,
                    "midi": 81,
                    "name": "A5",
                    "ticks": 59392,
                    "time": 96.666512,
                    "velocity": 0.6692913385826772
                },
                {
                    "duration": 0.2083329999999961,
                    "durationTicks": 128,
                    "midi": 50,
                    "name": "D3",
                    "ticks": 59392,
                    "time": 96.666512,
                    "velocity": 0.4251968503937008
                },
                {
                    "duration": 0.2083329999999961,
                    "durationTicks": 128,
                    "midi": 53,
                    "name": "F3",
                    "ticks": 59392,
                    "time": 96.666512,
                    "velocity": 0.4251968503937008
                },
                {
                    "duration": 0.2083329999999961,
                    "durationTicks": 128,
                    "midi": 57,
                    "name": "A3",
                    "ticks": 59392,
                    "time": 96.666512,
                    "velocity": 0.4251968503937008
                },
                {
                    "duration": 0.10416649999999095,
                    "durationTicks": 64,
                    "midi": 80,
                    "name": "G#5",
                    "ticks": 59456,
                    "time": 96.7706785,
                    "velocity": 0.6535433070866141
                },
                {
                    "duration": 0.10416650000000516,
                    "durationTicks": 64,
                    "midi": 79,
                    "name": "G5",
                    "ticks": 59520,
                    "time": 96.874845,
                    "velocity": 0.6220472440944882
                },
                {
                    "duration": 0.10416649999999095,
                    "durationTicks": 64,
                    "midi": 78,
                    "name": "F#5",
                    "ticks": 59584,
                    "time": 96.9790115,
                    "velocity": 0.6299212598425197
                },
                {
                    "duration": 0.10416650000000516,
                    "durationTicks": 64,
                    "midi": 79,
                    "name": "G5",
                    "ticks": 59648,
                    "time": 97.08317799999999,
                    "velocity": 0.6929133858267716
                },
                {
                    "duration": 0.20833300000001032,
                    "durationTicks": 128,
                    "midi": 46,
                    "name": "A#2",
                    "ticks": 59648,
                    "time": 97.08317799999999,
                    "velocity": 0.4330708661417323
                },
                {
                    "duration": 0.20833300000001032,
                    "durationTicks": 128,
                    "midi": 50,
                    "name": "D3",
                    "ticks": 59648,
                    "time": 97.08317799999999,
                    "velocity": 0.4330708661417323
                },
                {
                    "duration": 0.20833300000001032,
                    "durationTicks": 128,
                    "midi": 55,
                    "name": "G3",
                    "ticks": 59648,
                    "time": 97.08317799999999,
                    "velocity": 0.4330708661417323
                },
                {
                    "duration": 0.10416650000000516,
                    "durationTicks": 64,
                    "midi": 78,
                    "name": "F#5",
                    "ticks": 59712,
                    "time": 97.1873445,
                    "velocity": 0.6220472440944882
                },
                {
                    "duration": 0.10416649999999095,
                    "durationTicks": 64,
                    "midi": 77,
                    "name": "F5",
                    "ticks": 59776,
                    "time": 97.291511,
                    "velocity": 0.6299212598425197
                },
                {
                    "duration": 0.10416650000000516,
                    "durationTicks": 64,
                    "midi": 76,
                    "name": "E5",
                    "ticks": 59840,
                    "time": 97.39567749999999,
                    "velocity": 0.6535433070866141
                },
                {
                    "duration": 0.10416650000000516,
                    "durationTicks": 64,
                    "midi": 77,
                    "name": "F5",
                    "ticks": 59904,
                    "time": 97.499844,
                    "velocity": 0.7165354330708661
                },
                {
                    "duration": 0.2083329999999961,
                    "durationTicks": 128,
                    "midi": 45,
                    "name": "A2",
                    "ticks": 59904,
                    "time": 97.499844,
                    "velocity": 0.4094488188976378
                },
                {
                    "duration": 0.2083329999999961,
                    "durationTicks": 128,
                    "midi": 50,
                    "name": "D3",
                    "ticks": 59904,
                    "time": 97.499844,
                    "velocity": 0.4094488188976378
                },
                {
                    "duration": 0.2083329999999961,
                    "durationTicks": 128,
                    "midi": 53,
                    "name": "F3",
                    "ticks": 59904,
                    "time": 97.499844,
                    "velocity": 0.4094488188976378
                },
                {
                    "duration": 0.10416649999999095,
                    "durationTicks": 64,
                    "midi": 78,
                    "name": "F#5",
                    "ticks": 59968,
                    "time": 97.6040105,
                    "velocity": 0.6929133858267716
                },
                {
                    "duration": 0.10416650000000516,
                    "durationTicks": 64,
                    "midi": 79,
                    "name": "G5",
                    "ticks": 60032,
                    "time": 97.70817699999999,
                    "velocity": 0.6771653543307087
                },
                {
                    "duration": 0.10416650000000516,
                    "durationTicks": 64,
                    "midi": 80,
                    "name": "G#5",
                    "ticks": 60096,
                    "time": 97.8123435,
                    "velocity": 0.7086614173228346
                },
                {
                    "duration": 0.10416649999999095,
                    "durationTicks": 64,
                    "midi": 81,
                    "name": "A5",
                    "ticks": 60160,
                    "time": 97.91651,
                    "velocity": 0.7007874015748031
                },
                {
                    "duration": 0.2083329999999961,
                    "durationTicks": 128,
                    "midi": 49,
                    "name": "C#3",
                    "ticks": 60160,
                    "time": 97.91651,
                    "velocity": 0.4094488188976378
                },
                {
                    "duration": 0.2083329999999961,
                    "durationTicks": 128,
                    "midi": 52,
                    "name": "E3",
                    "ticks": 60160,
                    "time": 97.91651,
                    "velocity": 0.4094488188976378
                },
                {
                    "duration": 0.2083329999999961,
                    "durationTicks": 128,
                    "midi": 55,
                    "name": "G3",
                    "ticks": 60160,
                    "time": 97.91651,
                    "velocity": 0.4094488188976378
                },
                {
                    "duration": 0.2083329999999961,
                    "durationTicks": 128,
                    "midi": 57,
                    "name": "A3",
                    "ticks": 60160,
                    "time": 97.91651,
                    "velocity": 0.4094488188976378
                },
                {
                    "duration": 0.10416650000000516,
                    "durationTicks": 64,
                    "midi": 83,
                    "name": "B5",
                    "ticks": 60224,
                    "time": 98.0206765,
                    "velocity": 0.7165354330708661
                },
                {
                    "duration": 0.10416649999999095,
                    "durationTicks": 64,
                    "midi": 84,
                    "name": "C6",
                    "ticks": 60288,
                    "time": 98.124843,
                    "velocity": 0.7165354330708661
                },
                {
                    "duration": 0.08300767968751188,
                    "durationTicks": 51,
                    "midi": 85,
                    "name": "C#6",
                    "ticks": 60352,
                    "time": 98.22900949999999,
                    "velocity": 0.6614173228346457
                },
                {
                    "duration": 0.10416650000000516,
                    "durationTicks": 64,
                    "midi": 86,
                    "name": "D6",
                    "ticks": 60416,
                    "time": 98.333176,
                    "velocity": 0.6614173228346457
                },
                {
                    "duration": 0.2083329999999961,
                    "durationTicks": 128,
                    "midi": 50,
                    "name": "D3",
                    "ticks": 60416,
                    "time": 98.333176,
                    "velocity": 0.4409448818897638
                },
                {
                    "duration": 0.2083329999999961,
                    "durationTicks": 128,
                    "midi": 54,
                    "name": "F#3",
                    "ticks": 60416,
                    "time": 98.333176,
                    "velocity": 0.4409448818897638
                },
                {
                    "duration": 0.2083329999999961,
                    "durationTicks": 128,
                    "midi": 60,
                    "name": "C4",
                    "ticks": 60416,
                    "time": 98.333176,
                    "velocity": 0.4409448818897638
                },
                {
                    "duration": 0.10416649999999095,
                    "durationTicks": 64,
                    "midi": 85,
                    "name": "C#6",
                    "ticks": 60480,
                    "time": 98.4373425,
                    "velocity": 0.5984251968503937
                },
                {
                    "duration": 0.10416650000000516,
                    "durationTicks": 64,
                    "midi": 84,
                    "name": "C6",
                    "ticks": 60544,
                    "time": 98.54150899999999,
                    "velocity": 0.5905511811023622
                },
                {
                    "duration": 0.10416650000000516,
                    "durationTicks": 64,
                    "midi": 83,
                    "name": "B5",
                    "ticks": 60608,
                    "time": 98.6456755,
                    "velocity": 0.6299212598425197
                },
                {
                    "duration": 0.10416649999999095,
                    "durationTicks": 64,
                    "midi": 82,
                    "name": "A#5",
                    "ticks": 60672,
                    "time": 98.749842,
                    "velocity": 0.6141732283464567
                },
                {
                    "duration": 0.2083329999999961,
                    "durationTicks": 128,
                    "midi": 55,
                    "name": "G3",
                    "ticks": 60672,
                    "time": 98.749842,
                    "velocity": 0.4330708661417323
                },
                {
                    "duration": 0.2083329999999961,
                    "durationTicks": 128,
                    "midi": 62,
                    "name": "D4",
                    "ticks": 60672,
                    "time": 98.749842,
                    "velocity": 0.4330708661417323
                },
                {
                    "duration": 0.10416650000000516,
                    "durationTicks": 64,
                    "midi": 87,
                    "name": "D#6",
                    "ticks": 60736,
                    "time": 98.85400849999999,
                    "velocity": 0.7165354330708661
                },
                {
                    "duration": 0.10416650000000516,
                    "durationTicks": 64,
                    "midi": 86,
                    "name": "D6",
                    "ticks": 60800,
                    "time": 98.958175,
                    "velocity": 0.6456692913385826
                },
                {
                    "duration": 0.10416649999999095,
                    "durationTicks": 64,
                    "midi": 85,
                    "name": "C#6",
                    "ticks": 60864,
                    "time": 99.0623415,
                    "velocity": 0.6535433070866141
                },
                {
                    "duration": 0.10416650000000516,
                    "durationTicks": 64,
                    "midi": 86,
                    "name": "D6",
                    "ticks": 60928,
                    "time": 99.166508,
                    "velocity": 0.6929133858267716
                },
                {
                    "duration": 0.2083329999999961,
                    "durationTicks": 128,
                    "midi": 55,
                    "name": "G3",
                    "ticks": 60928,
                    "time": 99.166508,
                    "velocity": 0.41732283464566927
                },
                {
                    "duration": 0.2083329999999961,
                    "durationTicks": 128,
                    "midi": 58,
                    "name": "A#3",
                    "ticks": 60928,
                    "time": 99.166508,
                    "velocity": 0.41732283464566927
                },
                {
                    "duration": 0.2083329999999961,
                    "durationTicks": 128,
                    "midi": 62,
                    "name": "D4",
                    "ticks": 60928,
                    "time": 99.166508,
                    "velocity": 0.41732283464566927
                },
                {
                    "duration": 0.10416649999999095,
                    "durationTicks": 64,
                    "midi": 85,
                    "name": "C#6",
                    "ticks": 60992,
                    "time": 99.2706745,
                    "velocity": 0.6141732283464567
                },
                {
                    "duration": 0.10416650000000516,
                    "durationTicks": 64,
                    "midi": 84,
                    "name": "C6",
                    "ticks": 61056,
                    "time": 99.37484099999999,
                    "velocity": 0.6141732283464567
                },
                {
                    "duration": 0.10416650000000516,
                    "durationTicks": 64,
                    "midi": 83,
                    "name": "B5",
                    "ticks": 61120,
                    "time": 99.4790075,
                    "velocity": 0.5826771653543307
                },
                {
                    "duration": 0.10416649999999095,
                    "durationTicks": 64,
                    "midi": 82,
                    "name": "A#5",
                    "ticks": 61184,
                    "time": 99.583174,
                    "velocity": 0.5826771653543307
                },
                {
                    "duration": 0.2083329999999961,
                    "durationTicks": 128,
                    "midi": 52,
                    "name": "E3",
                    "ticks": 61184,
                    "time": 99.583174,
                    "velocity": 0.44881889763779526
                },
                {
                    "duration": 0.2083329999999961,
                    "durationTicks": 128,
                    "midi": 55,
                    "name": "G3",
                    "ticks": 61184,
                    "time": 99.583174,
                    "velocity": 0.44881889763779526
                },
                {
                    "duration": 0.2083329999999961,
                    "durationTicks": 128,
                    "midi": 60,
                    "name": "C4",
                    "ticks": 61184,
                    "time": 99.583174,
                    "velocity": 0.44881889763779526
                },
                {
                    "duration": 0.10416650000000516,
                    "durationTicks": 64,
                    "midi": 83,
                    "name": "B5",
                    "ticks": 61248,
                    "time": 99.68734049999999,
                    "velocity": 0.6850393700787402
                },
                {
                    "duration": 0.10416650000000516,
                    "durationTicks": 64,
                    "midi": 84,
                    "name": "C6",
                    "ticks": 61312,
                    "time": 99.791507,
                    "velocity": 0.6850393700787402
                },
                {
                    "duration": 0.08300767968749767,
                    "durationTicks": 51,
                    "midi": 85,
                    "name": "C#6",
                    "ticks": 61376,
                    "time": 99.8956735,
                    "velocity": 0.7007874015748031
                },
                {
                    "duration": 0.10416650000000516,
                    "durationTicks": 64,
                    "midi": 86,
                    "name": "D6",
                    "ticks": 61440,
                    "time": 99.99983999999999,
                    "velocity": 0.6850393700787402
                },
                {
                    "duration": 0.20833300000001032,
                    "durationTicks": 128,
                    "midi": 55,
                    "name": "G3",
                    "ticks": 61440,
                    "time": 99.99983999999999,
                    "velocity": 0.4645669291338583
                },
                {
                    "duration": 0.20833300000001032,
                    "durationTicks": 128,
                    "midi": 58,
                    "name": "A#3",
                    "ticks": 61440,
                    "time": 99.99983999999999,
                    "velocity": 0.4645669291338583
                },
                {
                    "duration": 0.20833300000001032,
                    "durationTicks": 128,
                    "midi": 62,
                    "name": "D4",
                    "ticks": 61440,
                    "time": 99.99983999999999,
                    "velocity": 0.4645669291338583
                },
                {
                    "duration": 0.10416650000000516,
                    "durationTicks": 64,
                    "midi": 85,
                    "name": "C#6",
                    "ticks": 61504,
                    "time": 100.1040065,
                    "velocity": 0.6299212598425197
                },
                {
                    "duration": 0.10416649999999095,
                    "durationTicks": 64,
                    "midi": 84,
                    "name": "C6",
                    "ticks": 61568,
                    "time": 100.208173,
                    "velocity": 0.6141732283464567
                },
                {
                    "duration": 0.10416650000000516,
                    "durationTicks": 64,
                    "midi": 83,
                    "name": "B5",
                    "ticks": 61632,
                    "time": 100.3123395,
                    "velocity": 0.5984251968503937
                },
                {
                    "duration": 0.10416649999999095,
                    "durationTicks": 64,
                    "midi": 82,
                    "name": "A#5",
                    "ticks": 61696,
                    "time": 100.416506,
                    "velocity": 0.6220472440944882
                },
                {
                    "duration": 0.10416650000000516,
                    "durationTicks": 64,
                    "midi": 87,
                    "name": "D#6",
                    "ticks": 61760,
                    "time": 100.52067249999999,
                    "velocity": 0.7165354330708661
                },
                {
                    "duration": 0.10416650000000516,
                    "durationTicks": 64,
                    "midi": 86,
                    "name": "D6",
                    "ticks": 61824,
                    "time": 100.624839,
                    "velocity": 0.6377952755905512
                },
                {
                    "duration": 0.10416649999999095,
                    "durationTicks": 64,
                    "midi": 85,
                    "name": "C#6",
                    "ticks": 61888,
                    "time": 100.7290055,
                    "velocity": 0.6377952755905512
                },
                {
                    "duration": 0.10416650000000516,
                    "durationTicks": 64,
                    "midi": 86,
                    "name": "D6",
                    "ticks": 61952,
                    "time": 100.83317199999999,
                    "velocity": 0.6692913385826772
                },
                {
                    "duration": 0.20833300000001032,
                    "durationTicks": 128,
                    "midi": 55,
                    "name": "G3",
                    "ticks": 61952,
                    "time": 100.83317199999999,
                    "velocity": 0.4566929133858268
                },
                {
                    "duration": 0.20833300000001032,
                    "durationTicks": 128,
                    "midi": 58,
                    "name": "A#3",
                    "ticks": 61952,
                    "time": 100.83317199999999,
                    "velocity": 0.4566929133858268
                },
                {
                    "duration": 0.20833300000001032,
                    "durationTicks": 128,
                    "midi": 62,
                    "name": "D4",
                    "ticks": 61952,
                    "time": 100.83317199999999,
                    "velocity": 0.4566929133858268
                },
                {
                    "duration": 0.10416650000000516,
                    "durationTicks": 64,
                    "midi": 85,
                    "name": "C#6",
                    "ticks": 62016,
                    "time": 100.9373385,
                    "velocity": 0.6456692913385826
                },
                {
                    "duration": 0.10416649999999095,
                    "durationTicks": 64,
                    "midi": 84,
                    "name": "C6",
                    "ticks": 62080,
                    "time": 101.041505,
                    "velocity": 0.6377952755905512
                },
                {
                    "duration": 0.10416650000000516,
                    "durationTicks": 64,
                    "midi": 83,
                    "name": "B5",
                    "ticks": 62144,
                    "time": 101.14567149999999,
                    "velocity": 0.6141732283464567
                },
                {
                    "duration": 0.10416650000000516,
                    "durationTicks": 64,
                    "midi": 82,
                    "name": "A#5",
                    "ticks": 62208,
                    "time": 101.249838,
                    "velocity": 0.6299212598425197
                },
                {
                    "duration": 0.2083329999999961,
                    "durationTicks": 128,
                    "midi": 52,
                    "name": "E3",
                    "ticks": 62208,
                    "time": 101.249838,
                    "velocity": 0.4251968503937008
                },
                {
                    "duration": 0.2083329999999961,
                    "durationTicks": 128,
                    "midi": 55,
                    "name": "G3",
                    "ticks": 62208,
                    "time": 101.249838,
                    "velocity": 0.4251968503937008
                },
                {
                    "duration": 0.2083329999999961,
                    "durationTicks": 128,
                    "midi": 60,
                    "name": "C4",
                    "ticks": 62208,
                    "time": 101.249838,
                    "velocity": 0.4251968503937008
                },
                {
                    "duration": 0.10416649999999095,
                    "durationTicks": 64,
                    "midi": 83,
                    "name": "B5",
                    "ticks": 62272,
                    "time": 101.3540045,
                    "velocity": 0.6692913385826772
                },
                {
                    "duration": 0.10416650000000516,
                    "durationTicks": 64,
                    "midi": 84,
                    "name": "C6",
                    "ticks": 62336,
                    "time": 101.458171,
                    "velocity": 0.6929133858267716
                },
                {
                    "duration": 0.08300767968749767,
                    "durationTicks": 51,
                    "midi": 85,
                    "name": "C#6",
                    "ticks": 62400,
                    "time": 101.5623375,
                    "velocity": 0.7007874015748031
                },
                {
                    "duration": 0.10416650000000516,
                    "durationTicks": 64,
                    "midi": 86,
                    "name": "D6",
                    "ticks": 62464,
                    "time": 101.66650399999999,
                    "velocity": 0.7007874015748031
                },
                {
                    "duration": 0.20833300000001032,
                    "durationTicks": 128,
                    "midi": 55,
                    "name": "G3",
                    "ticks": 62464,
                    "time": 101.66650399999999,
                    "velocity": 0.4251968503937008
                },
                {
                    "duration": 0.20833300000001032,
                    "durationTicks": 128,
                    "midi": 58,
                    "name": "A#3",
                    "ticks": 62464,
                    "time": 101.66650399999999,
                    "velocity": 0.4251968503937008
                },
                {
                    "duration": 0.20833300000001032,
                    "durationTicks": 128,
                    "midi": 62,
                    "name": "D4",
                    "ticks": 62464,
                    "time": 101.66650399999999,
                    "velocity": 0.4251968503937008
                },
                {
                    "duration": 0.10416650000000516,
                    "durationTicks": 64,
                    "midi": 85,
                    "name": "C#6",
                    "ticks": 62528,
                    "time": 101.7706705,
                    "velocity": 0.6062992125984252
                },
                {
                    "duration": 0.10416649999999095,
                    "durationTicks": 64,
                    "midi": 84,
                    "name": "C6",
                    "ticks": 62592,
                    "time": 101.874837,
                    "velocity": 0.6299212598425197
                },
                {
                    "duration": 0.10416650000000516,
                    "durationTicks": 64,
                    "midi": 83,
                    "name": "B5",
                    "ticks": 62656,
                    "time": 101.97900349999999,
                    "velocity": 0.6377952755905512
                },
                {
                    "duration": 0.10416650000000516,
                    "durationTicks": 64,
                    "midi": 84,
                    "name": "C6",
                    "ticks": 62720,
                    "time": 102.08317,
                    "velocity": 0.6771653543307087
                },
                {
                    "duration": 0.2083329999999961,
                    "durationTicks": 128,
                    "midi": 51,
                    "name": "D#3",
                    "ticks": 62720,
                    "time": 102.08317,
                    "velocity": 0.44881889763779526
                },
                {
                    "duration": 0.2083329999999961,
                    "durationTicks": 128,
                    "midi": 55,
                    "name": "G3",
                    "ticks": 62720,
                    "time": 102.08317,
                    "velocity": 0.44881889763779526
                },
                {
                    "duration": 0.2083329999999961,
                    "durationTicks": 128,
                    "midi": 60,
                    "name": "C4",
                    "ticks": 62720,
                    "time": 102.08317,
                    "velocity": 0.44881889763779526
                },
                {
                    "duration": 0.10416649999999095,
                    "durationTicks": 64,
                    "midi": 83,
                    "name": "B5",
                    "ticks": 62784,
                    "time": 102.1873365,
                    "velocity": 0.6220472440944882
                },
                {
                    "duration": 0.10416650000000516,
                    "durationTicks": 64,
                    "midi": 82,
                    "name": "A#5",
                    "ticks": 62848,
                    "time": 102.29150299999999,
                    "velocity": 0.5984251968503937
                },
                {
                    "duration": 0.10416650000000516,
                    "durationTicks": 64,
                    "midi": 81,
                    "name": "A5",
                    "ticks": 62912,
                    "time": 102.3956695,
                    "velocity": 0.6220472440944882
                },
                {
                    "duration": 0.10416649999999095,
                    "durationTicks": 64,
                    "midi": 82,
                    "name": "A#5",
                    "ticks": 62976,
                    "time": 102.499836,
                    "velocity": 0.6771653543307087
                },
                {
                    "duration": 0.2083329999999961,
                    "durationTicks": 128,
                    "midi": 50,
                    "name": "D3",
                    "ticks": 62976,
                    "time": 102.499836,
                    "velocity": 0.41732283464566927
                },
                {
                    "duration": 0.2083329999999961,
                    "durationTicks": 128,
                    "midi": 55,
                    "name": "G3",
                    "ticks": 62976,
                    "time": 102.499836,
                    "velocity": 0.41732283464566927
                },
                {
                    "duration": 0.2083329999999961,
                    "durationTicks": 128,
                    "midi": 58,
                    "name": "A#3",
                    "ticks": 62976,
                    "time": 102.499836,
                    "velocity": 0.41732283464566927
                },
                {
                    "duration": 0.10416650000000516,
                    "durationTicks": 64,
                    "midi": 83,
                    "name": "B5",
                    "ticks": 63040,
                    "time": 102.60400249999999,
                    "velocity": 0.6850393700787402
                },
                {
                    "duration": 0.10416649999999095,
                    "durationTicks": 64,
                    "midi": 84,
                    "name": "C6",
                    "ticks": 63104,
                    "time": 102.708169,
                    "velocity": 0.6929133858267716
                },
                {
                    "duration": 0.10416650000000516,
                    "durationTicks": 64,
                    "midi": 85,
                    "name": "C#6",
                    "ticks": 63168,
                    "time": 102.81233549999999,
                    "velocity": 0.6692913385826772
                },
                {
                    "duration": 0.10416650000000516,
                    "durationTicks": 64,
                    "midi": 86,
                    "name": "D6",
                    "ticks": 63232,
                    "time": 102.916502,
                    "velocity": 0.6850393700787402
                },
                {
                    "duration": 0.2083329999999961,
                    "durationTicks": 128,
                    "midi": 48,
                    "name": "C3",
                    "ticks": 63232,
                    "time": 102.916502,
                    "velocity": 0.4015748031496063
                },
                {
                    "duration": 0.2083329999999961,
                    "durationTicks": 128,
                    "midi": 50,
                    "name": "D3",
                    "ticks": 63232,
                    "time": 102.916502,
                    "velocity": 0.4015748031496063
                },
                {
                    "duration": 0.2083329999999961,
                    "durationTicks": 128,
                    "midi": 54,
                    "name": "F#3",
                    "ticks": 63232,
                    "time": 102.916502,
                    "velocity": 0.4015748031496063
                },
                {
                    "duration": 0.2083329999999961,
                    "durationTicks": 128,
                    "midi": 57,
                    "name": "A3",
                    "ticks": 63232,
                    "time": 102.916502,
                    "velocity": 0.4015748031496063
                },
                {
                    "duration": 0.10416649999999095,
                    "durationTicks": 64,
                    "midi": 87,
                    "name": "D#6",
                    "ticks": 63296,
                    "time": 103.0206685,
                    "velocity": 0.6692913385826772
                },
                {
                    "duration": 0.10416650000000516,
                    "durationTicks": 64,
                    "midi": 86,
                    "name": "D6",
                    "ticks": 63360,
                    "time": 103.12483499999999,
                    "velocity": 0.6377952755905512
                },
                {
                    "duration": 0.08300767968749767,
                    "durationTicks": 51,
                    "midi": 85,
                    "name": "C#6",
                    "ticks": 63424,
                    "time": 103.2290015,
                    "velocity": 0.5984251968503937
                },
                {
                    "duration": 0.10416649999999095,
                    "durationTicks": 64,
                    "midi": 86,
                    "name": "D6",
                    "ticks": 63488,
                    "time": 103.333168,
                    "velocity": 0.6929133858267716
                },
                {
                    "duration": 0.2083329999999961,
                    "durationTicks": 128,
                    "midi": 46,
                    "name": "A#2",
                    "ticks": 63488,
                    "time": 103.333168,
                    "velocity": 0.4645669291338583
                },
                {
                    "duration": 0.2083329999999961,
                    "durationTicks": 128,
                    "midi": 50,
                    "name": "D3",
                    "ticks": 63488,
                    "time": 103.333168,
                    "velocity": 0.4645669291338583
                },
                {
                    "duration": 0.2083329999999961,
                    "durationTicks": 128,
                    "midi": 55,
                    "name": "G3",
                    "ticks": 63488,
                    "time": 103.333168,
                    "velocity": 0.4645669291338583
                },
                {
                    "duration": 0.10416650000000516,
                    "durationTicks": 64,
                    "midi": 85,
                    "name": "C#6",
                    "ticks": 63552,
                    "time": 103.43733449999999,
                    "velocity": 0.6535433070866141
                },
                {
                    "duration": 0.10416650000000516,
                    "durationTicks": 64,
                    "midi": 84,
                    "name": "C6",
                    "ticks": 63616,
                    "time": 103.541501,
                    "velocity": 0.6299212598425197
                },
                {
                    "duration": 0.10416649999999095,
                    "durationTicks": 64,
                    "midi": 83,
                    "name": "B5",
                    "ticks": 63680,
                    "time": 103.6456675,
                    "velocity": 0.6220472440944882
                },
                {
                    "duration": 0.10416650000000516,
                    "durationTicks": 64,
                    "midi": 82,
                    "name": "A#5",
                    "ticks": 63744,
                    "time": 103.74983399999999,
                    "velocity": 0.6062992125984252
                },
                {
                    "duration": 0.2083329999999961,
                    "durationTicks": 128,
                    "midi": 55,
                    "name": "G3",
                    "ticks": 63744,
                    "time": 103.74983399999999,
                    "velocity": 0.4015748031496063
                },
                {
                    "duration": 0.2083329999999961,
                    "durationTicks": 128,
                    "midi": 58,
                    "name": "A#3",
                    "ticks": 63744,
                    "time": 103.74983399999999,
                    "velocity": 0.4015748031496063
                },
                {
                    "duration": 0.2083329999999961,
                    "durationTicks": 128,
                    "midi": 62,
                    "name": "D4",
                    "ticks": 63744,
                    "time": 103.74983399999999,
                    "velocity": 0.4015748031496063
                },
                {
                    "duration": 0.10416649999999095,
                    "durationTicks": 64,
                    "midi": 83,
                    "name": "B5",
                    "ticks": 63808,
                    "time": 103.8540005,
                    "velocity": 0.6771653543307087
                },
                {
                    "duration": 0.10416650000000516,
                    "durationTicks": 64,
                    "midi": 84,
                    "name": "C6",
                    "ticks": 63872,
                    "time": 103.95816699999999,
                    "velocity": 0.6771653543307087
                },
                {
                    "duration": 0.10416650000000516,
                    "durationTicks": 64,
                    "midi": 85,
                    "name": "C#6",
                    "ticks": 63936,
                    "time": 104.0623335,
                    "velocity": 0.6535433070866141
                },
                {
                    "duration": 0.10416649999999095,
                    "durationTicks": 64,
                    "midi": 86,
                    "name": "D6",
                    "ticks": 64000,
                    "time": 104.1665,
                    "velocity": 0.5039370078740157
                },
                {
                    "duration": 0.2083329999999961,
                    "durationTicks": 128,
                    "midi": 53,
                    "name": "F3",
                    "ticks": 64000,
                    "time": 104.1665,
                    "velocity": 0.4645669291338583
                },
                {
                    "duration": 0.2083329999999961,
                    "durationTicks": 128,
                    "midi": 57,
                    "name": "A3",
                    "ticks": 64000,
                    "time": 104.1665,
                    "velocity": 0.4645669291338583
                },
                {
                    "duration": 0.2083329999999961,
                    "durationTicks": 128,
                    "midi": 62,
                    "name": "D4",
                    "ticks": 64000,
                    "time": 104.1665,
                    "velocity": 0.4645669291338583
                },
                {
                    "duration": 0.10416650000000516,
                    "durationTicks": 64,
                    "midi": 88,
                    "name": "E6",
                    "ticks": 64064,
                    "time": 104.27066649999999,
                    "velocity": 0.6929133858267716
                },
                {
                    "duration": 0.10416650000000516,
                    "durationTicks": 64,
                    "midi": 89,
                    "name": "F6",
                    "ticks": 64128,
                    "time": 104.374833,
                    "velocity": 0.6456692913385826
                },
                {
                    "duration": 0.10416649999999095,
                    "durationTicks": 64,
                    "midi": 91,
                    "name": "G6",
                    "ticks": 64192,
                    "time": 104.4789995,
                    "velocity": 0.6850393700787402
                },
                {
                    "duration": 0.10416650000000516,
                    "durationTicks": 64,
                    "midi": 93,
                    "name": "A6",
                    "ticks": 64256,
                    "time": 104.58316599999999,
                    "velocity": 0.6850393700787402
                },
                {
                    "duration": 0.20833300000001032,
                    "durationTicks": 128,
                    "midi": 52,
                    "name": "E3",
                    "ticks": 64256,
                    "time": 104.58316599999999,
                    "velocity": 0.4645669291338583
                },
                {
                    "duration": 0.20833300000001032,
                    "durationTicks": 128,
                    "midi": 55,
                    "name": "G3",
                    "ticks": 64256,
                    "time": 104.58316599999999,
                    "velocity": 0.4645669291338583
                },
                {
                    "duration": 0.20833300000001032,
                    "durationTicks": 128,
                    "midi": 61,
                    "name": "C#4",
                    "ticks": 64256,
                    "time": 104.58316599999999,
                    "velocity": 0.4645669291338583
                },
                {
                    "duration": 0.10416650000000516,
                    "durationTicks": 64,
                    "midi": 94,
                    "name": "A#6",
                    "ticks": 64320,
                    "time": 104.6873325,
                    "velocity": 0.6850393700787402
                },
                {
                    "duration": 0.10416649999999095,
                    "durationTicks": 64,
                    "midi": 93,
                    "name": "A6",
                    "ticks": 64384,
                    "time": 104.791499,
                    "velocity": 0.6614173228346457
                },
                {
                    "duration": 0.08300767968749767,
                    "durationTicks": 51,
                    "midi": 92,
                    "name": "G#6",
                    "ticks": 64448,
                    "time": 104.89566549999999,
                    "velocity": 0.6535433070866141
                },
                {
                    "duration": 0.10416649999999095,
                    "durationTicks": 64,
                    "midi": 93,
                    "name": "A6",
                    "ticks": 64512,
                    "time": 104.999832,
                    "velocity": 0.7952755905511811
                },
                {
                    "duration": 0.1025388984375013,
                    "durationTicks": 63,
                    "midi": 50,
                    "name": "D3",
                    "ticks": 64512,
                    "time": 104.999832,
                    "velocity": 0.6220472440944882
                },
                {
                    "duration": 0.1025388984375013,
                    "durationTicks": 63,
                    "midi": 53,
                    "name": "F3",
                    "ticks": 64512,
                    "time": 104.999832,
                    "velocity": 0.6220472440944882
                },
                {
                    "duration": 0.1025388984375013,
                    "durationTicks": 63,
                    "midi": 57,
                    "name": "A3",
                    "ticks": 64512,
                    "time": 104.999832,
                    "velocity": 0.6220472440944882
                },
                {
                    "duration": 0.10416650000000516,
                    "durationTicks": 64,
                    "midi": 92,
                    "name": "G#6",
                    "ticks": 64576,
                    "time": 105.10399849999999,
                    "velocity": 0.7322834645669292
                },
                {
                    "duration": 0.10416650000000516,
                    "durationTicks": 64,
                    "midi": 91,
                    "name": "G6",
                    "ticks": 64640,
                    "time": 105.208165,
                    "velocity": 0.7165354330708661
                },
                {
                    "duration": 0.1025388984375013,
                    "durationTicks": 63,
                    "midi": 53,
                    "name": "F3",
                    "ticks": 64640,
                    "time": 105.208165,
                    "velocity": 0.7322834645669292
                },
                {
                    "duration": 0.1025388984375013,
                    "durationTicks": 63,
                    "midi": 57,
                    "name": "A3",
                    "ticks": 64640,
                    "time": 105.208165,
                    "velocity": 0.7322834645669292
                },
                {
                    "duration": 0.1025388984375013,
                    "durationTicks": 63,
                    "midi": 62,
                    "name": "D4",
                    "ticks": 64640,
                    "time": 105.208165,
                    "velocity": 0.7322834645669292
                },
                {
                    "duration": 0.10416649999999095,
                    "durationTicks": 64,
                    "midi": 90,
                    "name": "F#6",
                    "ticks": 64704,
                    "time": 105.3123315,
                    "velocity": 0.7086614173228346
                },
                {
                    "duration": 0.10416650000000516,
                    "durationTicks": 64,
                    "midi": 89,
                    "name": "F6",
                    "ticks": 64768,
                    "time": 105.41649799999999,
                    "velocity": 0.7165354330708661
                },
                {
                    "duration": 0.10416650000000516,
                    "durationTicks": 64,
                    "midi": 94,
                    "name": "A#6",
                    "ticks": 64832,
                    "time": 105.5206645,
                    "velocity": 0.8503937007874016
                },
                {
                    "duration": 0.10416649999999095,
                    "durationTicks": 64,
                    "midi": 93,
                    "name": "A6",
                    "ticks": 64896,
                    "time": 105.624831,
                    "velocity": 0.7244094488188977
                },
                {
                    "duration": 0.10416650000000516,
                    "durationTicks": 64,
                    "midi": 92,
                    "name": "G#6",
                    "ticks": 64960,
                    "time": 105.72899749999999,
                    "velocity": 0.7322834645669292
                },
                {
                    "duration": 0.10416650000000516,
                    "durationTicks": 64,
                    "midi": 93,
                    "name": "A6",
                    "ticks": 65024,
                    "time": 105.833164,
                    "velocity": 0.8031496062992126
                },
                {
                    "duration": 0.2083329999999961,
                    "durationTicks": 128,
                    "midi": 50,
                    "name": "D3",
                    "ticks": 65024,
                    "time": 105.833164,
                    "velocity": 0.4566929133858268
                },
                {
                    "duration": 0.2083329999999961,
                    "durationTicks": 128,
                    "midi": 53,
                    "name": "F3",
                    "ticks": 65024,
                    "time": 105.833164,
                    "velocity": 0.4566929133858268
                },
                {
                    "duration": 0.2083329999999961,
                    "durationTicks": 128,
                    "midi": 57,
                    "name": "A3",
                    "ticks": 65024,
                    "time": 105.833164,
                    "velocity": 0.4566929133858268
                },
                {
                    "duration": 0.10416649999999095,
                    "durationTicks": 64,
                    "midi": 92,
                    "name": "G#6",
                    "ticks": 65088,
                    "time": 105.9373305,
                    "velocity": 0.7007874015748031
                },
                {
                    "duration": 0.10416650000000516,
                    "durationTicks": 64,
                    "midi": 91,
                    "name": "G6",
                    "ticks": 65152,
                    "time": 106.04149699999999,
                    "velocity": 0.7165354330708661
                },
                {
                    "duration": 0.10416649999999095,
                    "durationTicks": 64,
                    "midi": 90,
                    "name": "F#6",
                    "ticks": 65216,
                    "time": 106.1456635,
                    "velocity": 0.7165354330708661
                },
                {
                    "duration": 0.10416650000000516,
                    "durationTicks": 64,
                    "midi": 89,
                    "name": "F6",
                    "ticks": 65280,
                    "time": 106.24982999999999,
                    "velocity": 0.7165354330708661
                },
                {
                    "duration": 0.20833300000001032,
                    "durationTicks": 128,
                    "midi": 47,
                    "name": "B2",
                    "ticks": 65280,
                    "time": 106.24982999999999,
                    "velocity": 0.4566929133858268
                },
                {
                    "duration": 0.20833300000001032,
                    "durationTicks": 128,
                    "midi": 50,
                    "name": "D3",
                    "ticks": 65280,
                    "time": 106.24982999999999,
                    "velocity": 0.4566929133858268
                },
                {
                    "duration": 0.20833300000001032,
                    "durationTicks": 128,
                    "midi": 55,
                    "name": "G3",
                    "ticks": 65280,
                    "time": 106.24982999999999,
                    "velocity": 0.4566929133858268
                },
                {
                    "duration": 0.10416650000000516,
                    "durationTicks": 64,
                    "midi": 90,
                    "name": "F#6",
                    "ticks": 65344,
                    "time": 106.3539965,
                    "velocity": 0.8503937007874016
                },
                {
                    "duration": 0.10416649999999095,
                    "durationTicks": 64,
                    "midi": 91,
                    "name": "G6",
                    "ticks": 65408,
                    "time": 106.458163,
                    "velocity": 0.8346456692913385
                },
                {
                    "duration": 0.08300767968751188,
                    "durationTicks": 51,
                    "midi": 92,
                    "name": "G#6",
                    "ticks": 65472,
                    "time": 106.56232949999999,
                    "velocity": 0.8267716535433071
                },
                {
                    "duration": 0.10416650000000516,
                    "durationTicks": 64,
                    "midi": 93,
                    "name": "A6",
                    "ticks": 65536,
                    "time": 106.666496,
                    "velocity": 0.7795275590551181
                },
                {
                    "duration": 0.1025388984375013,
                    "durationTicks": 63,
                    "midi": 50,
                    "name": "D3",
                    "ticks": 65536,
                    "time": 106.666496,
                    "velocity": 0.889763779527559
                },
                {
                    "duration": 0.1025388984375013,
                    "durationTicks": 63,
                    "midi": 53,
                    "name": "F3",
                    "ticks": 65536,
                    "time": 106.666496,
                    "velocity": 0.889763779527559
                },
                {
                    "duration": 0.1025388984375013,
                    "durationTicks": 63,
                    "midi": 57,
                    "name": "A3",
                    "ticks": 65536,
                    "time": 106.666496,
                    "velocity": 0.889763779527559
                },
                {
                    "duration": 0.10416649999999095,
                    "durationTicks": 64,
                    "midi": 92,
                    "name": "G#6",
                    "ticks": 65600,
                    "time": 106.7706625,
                    "velocity": 0.6929133858267716
                },
                {
                    "duration": 0.10416650000000516,
                    "durationTicks": 64,
                    "midi": 91,
                    "name": "G6",
                    "ticks": 65664,
                    "time": 106.87482899999999,
                    "velocity": 0.7244094488188977
                },
                {
                    "duration": 0.1025388984375013,
                    "durationTicks": 63,
                    "midi": 53,
                    "name": "F3",
                    "ticks": 65664,
                    "time": 106.87482899999999,
                    "velocity": 1
                },
                {
                    "duration": 0.1025388984375013,
                    "durationTicks": 63,
                    "midi": 57,
                    "name": "A3",
                    "ticks": 65664,
                    "time": 106.87482899999999,
                    "velocity": 1
                },
                {
                    "duration": 0.1025388984375013,
                    "durationTicks": 63,
                    "midi": 62,
                    "name": "D4",
                    "ticks": 65664,
                    "time": 106.87482899999999,
                    "velocity": 1
                },
                {
                    "duration": 0.10416650000000516,
                    "durationTicks": 64,
                    "midi": 90,
                    "name": "F#6",
                    "ticks": 65728,
                    "time": 106.9789955,
                    "velocity": 0.7401574803149606
                },
                {
                    "duration": 0.10416649999999095,
                    "durationTicks": 64,
                    "midi": 89,
                    "name": "F6",
                    "ticks": 65792,
                    "time": 107.083162,
                    "velocity": 0.7007874015748031
                },
                {
                    "duration": 0.10416650000000516,
                    "durationTicks": 64,
                    "midi": 94,
                    "name": "A#6",
                    "ticks": 65856,
                    "time": 107.18732849999999,
                    "velocity": 0.8661417322834646
                },
                {
                    "duration": 0.10416649999999095,
                    "durationTicks": 64,
                    "midi": 93,
                    "name": "A6",
                    "ticks": 65920,
                    "time": 107.291495,
                    "velocity": 0.7480314960629921
                },
                {
                    "duration": 0.10416650000000516,
                    "durationTicks": 64,
                    "midi": 92,
                    "name": "G#6",
                    "ticks": 65984,
                    "time": 107.39566149999999,
                    "velocity": 0.7086614173228346
                },
                {
                    "duration": 0.10416650000000516,
                    "durationTicks": 64,
                    "midi": 93,
                    "name": "A6",
                    "ticks": 66048,
                    "time": 107.499828,
                    "velocity": 0.8110236220472441
                },
                {
                    "duration": 0.2083329999999961,
                    "durationTicks": 128,
                    "midi": 50,
                    "name": "D3",
                    "ticks": 66048,
                    "time": 107.499828,
                    "velocity": 0.6929133858267716
                },
                {
                    "duration": 0.2083329999999961,
                    "durationTicks": 128,
                    "midi": 53,
                    "name": "F3",
                    "ticks": 66048,
                    "time": 107.499828,
                    "velocity": 0.6929133858267716
                },
                {
                    "duration": 0.2083329999999961,
                    "durationTicks": 128,
                    "midi": 57,
                    "name": "A3",
                    "ticks": 66048,
                    "time": 107.499828,
                    "velocity": 0.6929133858267716
                },
                {
                    "duration": 0.10416649999999095,
                    "durationTicks": 64,
                    "midi": 92,
                    "name": "G#6",
                    "ticks": 66112,
                    "time": 107.6039945,
                    "velocity": 0.7480314960629921
                },
                {
                    "duration": 0.10416650000000516,
                    "durationTicks": 64,
                    "midi": 91,
                    "name": "G6",
                    "ticks": 66176,
                    "time": 107.70816099999999,
                    "velocity": 0.7086614173228346
                },
                {
                    "duration": 0.10416650000000516,
                    "durationTicks": 64,
                    "midi": 90,
                    "name": "F#6",
                    "ticks": 66240,
                    "time": 107.8123275,
                    "velocity": 0.7165354330708661
                },
                {
                    "duration": 0.10416649999999095,
                    "durationTicks": 64,
                    "midi": 89,
                    "name": "F6",
                    "ticks": 66304,
                    "time": 107.916494,
                    "velocity": 0.7244094488188977
                },
                {
                    "duration": 0.2083329999999961,
                    "durationTicks": 128,
                    "midi": 47,
                    "name": "B2",
                    "ticks": 66304,
                    "time": 107.916494,
                    "velocity": 0.6929133858267716
                },
                {
                    "duration": 0.2083329999999961,
                    "durationTicks": 128,
                    "midi": 50,
                    "name": "D3",
                    "ticks": 66304,
                    "time": 107.916494,
                    "velocity": 0.6929133858267716
                },
                {
                    "duration": 0.2083329999999961,
                    "durationTicks": 128,
                    "midi": 55,
                    "name": "G3",
                    "ticks": 66304,
                    "time": 107.916494,
                    "velocity": 0.6929133858267716
                },
                {
                    "duration": 0.10416650000000516,
                    "durationTicks": 64,
                    "midi": 90,
                    "name": "F#6",
                    "ticks": 66368,
                    "time": 108.02066049999999,
                    "velocity": 0.8031496062992126
                },
                {
                    "duration": 0.10416650000000516,
                    "durationTicks": 64,
                    "midi": 91,
                    "name": "G6",
                    "ticks": 66432,
                    "time": 108.124827,
                    "velocity": 0.84251968503937
                },
                {
                    "duration": 0.10416649999999095,
                    "durationTicks": 64,
                    "midi": 92,
                    "name": "G#6",
                    "ticks": 66496,
                    "time": 108.2289935,
                    "velocity": 0.8031496062992126
                },
                {
                    "duration": 0.16601535937500955,
                    "durationTicks": 102,
                    "midi": 93,
                    "name": "A6",
                    "ticks": 66560,
                    "time": 108.33315999999999,
                    "velocity": 0.84251968503937
                },
                {
                    "duration": 0.2083329999999961,
                    "durationTicks": 128,
                    "midi": 50,
                    "name": "D3",
                    "ticks": 66560,
                    "time": 108.33315999999999,
                    "velocity": 0.6692913385826772
                },
                {
                    "duration": 0.2083329999999961,
                    "durationTicks": 128,
                    "midi": 53,
                    "name": "F3",
                    "ticks": 66560,
                    "time": 108.33315999999999,
                    "velocity": 0.6692913385826772
                },
                {
                    "duration": 0.2083329999999961,
                    "durationTicks": 128,
                    "midi": 57,
                    "name": "A3",
                    "ticks": 66560,
                    "time": 108.33315999999999,
                    "velocity": 0.6692913385826772
                },
                {
                    "duration": 0.10416650000000516,
                    "durationTicks": 64,
                    "midi": 85,
                    "name": "C#6",
                    "ticks": 66688,
                    "time": 108.54149299999999,
                    "velocity": 0.5196850393700787
                },
                {
                    "duration": 0.10416650000000516,
                    "durationTicks": 64,
                    "midi": 86,
                    "name": "D6",
                    "ticks": 66752,
                    "time": 108.6456595,
                    "velocity": 0.7007874015748031
                },
                {
                    "duration": 0.10416649999999095,
                    "durationTicks": 64,
                    "midi": 87,
                    "name": "D#6",
                    "ticks": 66816,
                    "time": 108.749826,
                    "velocity": 0.7086614173228346
                },
                {
                    "duration": 0.1025388984375013,
                    "durationTicks": 63,
                    "midi": 74,
                    "name": "D5",
                    "ticks": 66816,
                    "time": 108.749826,
                    "velocity": 0.7007874015748031
                },
                {
                    "duration": 0.10416650000000516,
                    "durationTicks": 64,
                    "midi": 88,
                    "name": "E6",
                    "ticks": 66880,
                    "time": 108.85399249999999,
                    "velocity": 0.7244094488188977
                },
                {
                    "duration": 0.10416650000000516,
                    "durationTicks": 64,
                    "midi": 89,
                    "name": "F6",
                    "ticks": 66944,
                    "time": 108.958159,
                    "velocity": 0.6929133858267716
                },
                {
                    "duration": 0.1025388984375013,
                    "durationTicks": 63,
                    "midi": 70,
                    "name": "A#4",
                    "ticks": 66944,
                    "time": 108.958159,
                    "velocity": 0.6692913385826772
                },
                {
                    "duration": 0.10416649999999095,
                    "durationTicks": 64,
                    "midi": 90,
                    "name": "F#6",
                    "ticks": 67008,
                    "time": 109.0623255,
                    "velocity": 0.7480314960629921
                },
                {
                    "duration": 0.10416650000000516,
                    "durationTicks": 64,
                    "midi": 91,
                    "name": "G6",
                    "ticks": 67072,
                    "time": 109.16649199999999,
                    "velocity": 0.7165354330708661
                },
                {
                    "duration": 0.1025388984375013,
                    "durationTicks": 63,
                    "midi": 67,
                    "name": "G4",
                    "ticks": 67072,
                    "time": 109.16649199999999,
                    "velocity": 0.6850393700787402
                },
                {
                    "duration": 0.10416650000000516,
                    "durationTicks": 64,
                    "midi": 90,
                    "name": "F#6",
                    "ticks": 67136,
                    "time": 109.2706585,
                    "velocity": 0.6062992125984252
                },
                {
                    "duration": 0.10416649999999095,
                    "durationTicks": 64,
                    "midi": 89,
                    "name": "F6",
                    "ticks": 67200,
                    "time": 109.374825,
                    "velocity": 0.6220472440944882
                },
                {
                    "duration": 0.10253889843748709,
                    "durationTicks": 63,
                    "midi": 64,
                    "name": "E4",
                    "ticks": 67200,
                    "time": 109.374825,
                    "velocity": 0.6850393700787402
                },
                {
                    "duration": 0.10416650000000516,
                    "durationTicks": 64,
                    "midi": 88,
                    "name": "E6",
                    "ticks": 67264,
                    "time": 109.47899149999999,
                    "velocity": 0.6535433070866141
                },
                {
                    "duration": 0.10416649999999095,
                    "durationTicks": 64,
                    "midi": 89,
                    "name": "F6",
                    "ticks": 67328,
                    "time": 109.583158,
                    "velocity": 0.6771653543307087
                },
                {
                    "duration": 0.1025388984375013,
                    "durationTicks": 63,
                    "midi": 67,
                    "name": "G4",
                    "ticks": 67328,
                    "time": 109.583158,
                    "velocity": 0.7716535433070866
                },
                {
                    "duration": 0.10416650000000516,
                    "durationTicks": 64,
                    "midi": 88,
                    "name": "E6",
                    "ticks": 67392,
                    "time": 109.68732449999999,
                    "velocity": 0.6456692913385826
                },
                {
                    "duration": 0.10416650000000516,
                    "durationTicks": 64,
                    "midi": 87,
                    "name": "D#6",
                    "ticks": 67456,
                    "time": 109.791491,
                    "velocity": 0.6299212598425197
                },
                {
                    "duration": 0.1025388984375013,
                    "durationTicks": 63,
                    "midi": 70,
                    "name": "A#4",
                    "ticks": 67456,
                    "time": 109.791491,
                    "velocity": 0.8346456692913385
                },
                {
                    "duration": 0.08300767968749767,
                    "durationTicks": 51,
                    "midi": 86,
                    "name": "D6",
                    "ticks": 67520,
                    "time": 109.8956575,
                    "velocity": 0.6377952755905512
                },
                {
                    "duration": 0.10416650000000516,
                    "durationTicks": 64,
                    "midi": 85,
                    "name": "C#6",
                    "ticks": 67584,
                    "time": 109.99982399999999,
                    "velocity": 0.6377952755905512
                },
                {
                    "duration": 0.1025388984375013,
                    "durationTicks": 63,
                    "midi": 74,
                    "name": "D5",
                    "ticks": 67584,
                    "time": 109.99982399999999,
                    "velocity": 0.889763779527559
                },
                {
                    "duration": 0.10416650000000516,
                    "durationTicks": 64,
                    "midi": 86,
                    "name": "D6",
                    "ticks": 67648,
                    "time": 110.1039905,
                    "velocity": 0.6929133858267716
                },
                {
                    "duration": 0.10416649999999095,
                    "durationTicks": 64,
                    "midi": 87,
                    "name": "D#6",
                    "ticks": 67712,
                    "time": 110.208157,
                    "velocity": 0.6929133858267716
                },
                {
                    "duration": 0.10416650000000516,
                    "durationTicks": 64,
                    "midi": 88,
                    "name": "E6",
                    "ticks": 67776,
                    "time": 110.31232349999999,
                    "velocity": 0.6850393700787402
                },
                {
                    "duration": 0.10416650000000516,
                    "durationTicks": 64,
                    "midi": 89,
                    "name": "F6",
                    "ticks": 67840,
                    "time": 110.41649,
                    "velocity": 0.6692913385826772
                },
                {
                    "duration": 0.10416649999999095,
                    "durationTicks": 64,
                    "midi": 90,
                    "name": "F#6",
                    "ticks": 67904,
                    "time": 110.5206565,
                    "velocity": 0.6692913385826772
                },
                {
                    "duration": 0.10416650000000516,
                    "durationTicks": 64,
                    "midi": 91,
                    "name": "G6",
                    "ticks": 67968,
                    "time": 110.62482299999999,
                    "velocity": 0.7322834645669292
                },
                {
                    "duration": 0.10416649999999095,
                    "durationTicks": 64,
                    "midi": 92,
                    "name": "G#6",
                    "ticks": 68032,
                    "time": 110.7289895,
                    "velocity": 0.6850393700787402
                },
                {
                    "duration": 0.10416650000000516,
                    "durationTicks": 64,
                    "midi": 93,
                    "name": "A6",
                    "ticks": 68096,
                    "time": 110.83315599999999,
                    "velocity": 0.7322834645669292
                },
                {
                    "duration": 0.1025388984375013,
                    "durationTicks": 63,
                    "midi": 57,
                    "name": "A3",
                    "ticks": 68096,
                    "time": 110.83315599999999,
                    "velocity": 0.7086614173228346
                },
                {
                    "duration": 0.1025388984375013,
                    "durationTicks": 63,
                    "midi": 61,
                    "name": "C#4",
                    "ticks": 68096,
                    "time": 110.83315599999999,
                    "velocity": 0.7086614173228346
                },
                {
                    "duration": 0.1025388984375013,
                    "durationTicks": 63,
                    "midi": 67,
                    "name": "G4",
                    "ticks": 68096,
                    "time": 110.83315599999999,
                    "velocity": 0.7086614173228346
                },
                {
                    "duration": 0.1025388984375013,
                    "durationTicks": 63,
                    "midi": 69,
                    "name": "A4",
                    "ticks": 68096,
                    "time": 110.83315599999999,
                    "velocity": 0.7086614173228346
                },
                {
                    "duration": 0.10416650000000516,
                    "durationTicks": 64,
                    "midi": 94,
                    "name": "A#6",
                    "ticks": 68160,
                    "time": 110.9373225,
                    "velocity": 0.6771653543307087
                },
                {
                    "duration": 0.10416649999999095,
                    "durationTicks": 64,
                    "midi": 93,
                    "name": "A6",
                    "ticks": 68224,
                    "time": 111.041489,
                    "velocity": 0.6141732283464567
                },
                {
                    "duration": 0.10416650000000516,
                    "durationTicks": 64,
                    "midi": 92,
                    "name": "G#6",
                    "ticks": 68288,
                    "time": 111.14565549999999,
                    "velocity": 0.6141732283464567
                },
                {
                    "duration": 0.10416650000000516,
                    "durationTicks": 64,
                    "midi": 93,
                    "name": "A6",
                    "ticks": 68352,
                    "time": 111.249822,
                    "velocity": 0.6850393700787402
                },
                {
                    "duration": 0.10416649999999095,
                    "durationTicks": 64,
                    "midi": 94,
                    "name": "A#6",
                    "ticks": 68416,
                    "time": 111.3539885,
                    "velocity": 0.6456692913385826
                },
                {
                    "duration": 0.10416650000000516,
                    "durationTicks": 64,
                    "midi": 93,
                    "name": "A6",
                    "ticks": 68480,
                    "time": 111.45815499999999,
                    "velocity": 0.6220472440944882
                },
                {
                    "duration": 0.10416650000000516,
                    "durationTicks": 64,
                    "midi": 92,
                    "name": "G#6",
                    "ticks": 68544,
                    "time": 111.5623215,
                    "velocity": 0.6062992125984252
                },
                {
                    "duration": 0.16601535937499534,
                    "durationTicks": 102,
                    "midi": 105,
                    "name": "A7",
                    "ticks": 68608,
                    "time": 111.666488,
                    "velocity": 0.8031496062992126
                },
                {
                    "duration": 0.2083329999999961,
                    "durationTicks": 128,
                    "midi": 62,
                    "name": "D4",
                    "ticks": 68608,
                    "time": 111.666488,
                    "velocity": 0.6850393700787402
                },
                {
                    "duration": 0.2083329999999961,
                    "durationTicks": 128,
                    "midi": 65,
                    "name": "F4",
                    "ticks": 68608,
                    "time": 111.666488,
                    "velocity": 0.6850393700787402
                },
                {
                    "duration": 0.10416649999999095,
                    "durationTicks": 64,
                    "midi": 73,
                    "name": "C#5",
                    "ticks": 68736,
                    "time": 111.874821,
                    "velocity": 0.47244094488188976
                },
                {
                    "duration": 0.10416650000000516,
                    "durationTicks": 64,
                    "midi": 74,
                    "name": "D5",
                    "ticks": 68800,
                    "time": 111.97898749999999,
                    "velocity": 0.6692913385826772
                },
                {
                    "duration": 0.10416650000000516,
                    "durationTicks": 64,
                    "midi": 75,
                    "name": "D#5",
                    "ticks": 68864,
                    "time": 112.083154,
                    "velocity": 0.7007874015748031
                },
                {
                    "duration": 0.1025388984375013,
                    "durationTicks": 63,
                    "midi": 98,
                    "name": "D7",
                    "ticks": 68864,
                    "time": 112.083154,
                    "velocity": 0.6929133858267716
                },
                {
                    "duration": 0.10416649999999095,
                    "durationTicks": 64,
                    "midi": 76,
                    "name": "E5",
                    "ticks": 68928,
                    "time": 112.1873205,
                    "velocity": 0.6771653543307087
                },
                {
                    "duration": 0.10416650000000516,
                    "durationTicks": 64,
                    "midi": 77,
                    "name": "F5",
                    "ticks": 68992,
                    "time": 112.29148699999999,
                    "velocity": 0.6771653543307087
                },
                {
                    "duration": 0.1025388984375013,
                    "durationTicks": 63,
                    "midi": 94,
                    "name": "A#6",
                    "ticks": 68992,
                    "time": 112.29148699999999,
                    "velocity": 0.6850393700787402
                },
                {
                    "duration": 0.10416650000000516,
                    "durationTicks": 64,
                    "midi": 78,
                    "name": "F#5",
                    "ticks": 69056,
                    "time": 112.3956535,
                    "velocity": 0.6850393700787402
                },
                {
                    "duration": 0.10416649999999095,
                    "durationTicks": 64,
                    "midi": 79,
                    "name": "G5",
                    "ticks": 69120,
                    "time": 112.49982,
                    "velocity": 0.7086614173228346
                },
                {
                    "duration": 0.1025388984375013,
                    "durationTicks": 63,
                    "midi": 91,
                    "name": "G6",
                    "ticks": 69120,
                    "time": 112.49982,
                    "velocity": 0.6692913385826772
                },
                {
                    "duration": 0.10416650000000516,
                    "durationTicks": 64,
                    "midi": 78,
                    "name": "F#5",
                    "ticks": 69184,
                    "time": 112.60398649999999,
                    "velocity": 0.6220472440944882
                },
                {
                    "duration": 0.10416650000000516,
                    "durationTicks": 64,
                    "midi": 77,
                    "name": "F5",
                    "ticks": 69248,
                    "time": 112.708153,
                    "velocity": 0.6377952755905512
                },
                {
                    "duration": 0.1025388984375013,
                    "durationTicks": 63,
                    "midi": 88,
                    "name": "E6",
                    "ticks": 69248,
                    "time": 112.708153,
                    "velocity": 0.6692913385826772
                },
                {
                    "duration": 0.10416649999999095,
                    "durationTicks": 64,
                    "midi": 76,
                    "name": "E5",
                    "ticks": 69312,
                    "time": 112.8123195,
                    "velocity": 0.6141732283464567
                },
                {
                    "duration": 0.10416650000000516,
                    "durationTicks": 64,
                    "midi": 77,
                    "name": "F5",
                    "ticks": 69376,
                    "time": 112.91648599999999,
                    "velocity": 0.6929133858267716
                },
                {
                    "duration": 0.1025388984375013,
                    "durationTicks": 63,
                    "midi": 91,
                    "name": "G6",
                    "ticks": 69376,
                    "time": 112.91648599999999,
                    "velocity": 0.8267716535433071
                },
                {
                    "duration": 0.10416649999999095,
                    "durationTicks": 64,
                    "midi": 76,
                    "name": "E5",
                    "ticks": 69440,
                    "time": 113.0206525,
                    "velocity": 0.6220472440944882
                },
                {
                    "duration": 0.10416650000000516,
                    "durationTicks": 64,
                    "midi": 75,
                    "name": "D#5",
                    "ticks": 69504,
                    "time": 113.12481899999999,
                    "velocity": 0.6141732283464567
                },
                {
                    "duration": 0.1025388984375013,
                    "durationTicks": 63,
                    "midi": 94,
                    "name": "A#6",
                    "ticks": 69504,
                    "time": 113.12481899999999,
                    "velocity": 0.8267716535433071
                },
                {
                    "duration": 0.08300767968749767,
                    "durationTicks": 51,
                    "midi": 74,
                    "name": "D5",
                    "ticks": 69568,
                    "time": 113.2289855,
                    "velocity": 0.5905511811023622
                },
                {
                    "duration": 0.10416649999999095,
                    "durationTicks": 64,
                    "midi": 73,
                    "name": "C#5",
                    "ticks": 69632,
                    "time": 113.333152,
                    "velocity": 0.6220472440944882
                },
                {
                    "duration": 0.1025388984375013,
                    "durationTicks": 63,
                    "midi": 98,
                    "name": "D7",
                    "ticks": 69632,
                    "time": 113.333152,
                    "velocity": 0.8503937007874016
                },
                {
                    "duration": 0.10416650000000516,
                    "durationTicks": 64,
                    "midi": 74,
                    "name": "D5",
                    "ticks": 69696,
                    "time": 113.43731849999999,
                    "velocity": 0.6771653543307087
                },
                {
                    "duration": 0.10416650000000516,
                    "durationTicks": 64,
                    "midi": 75,
                    "name": "D#5",
                    "ticks": 69760,
                    "time": 113.541485,
                    "velocity": 0.6692913385826772
                },
                {
                    "duration": 0.10416649999999095,
                    "durationTicks": 64,
                    "midi": 76,
                    "name": "E5",
                    "ticks": 69824,
                    "time": 113.6456515,
                    "velocity": 0.6929133858267716
                },
                {
                    "duration": 0.10416650000000516,
                    "durationTicks": 64,
                    "midi": 77,
                    "name": "F5",
                    "ticks": 69888,
                    "time": 113.74981799999999,
                    "velocity": 0.6692913385826772
                },
                {
                    "duration": 0.10416650000000516,
                    "durationTicks": 64,
                    "midi": 78,
                    "name": "F#5",
                    "ticks": 69952,
                    "time": 113.8539845,
                    "velocity": 0.7401574803149606
                },
                {
                    "duration": 0.10416649999999095,
                    "durationTicks": 64,
                    "midi": 79,
                    "name": "G5",
                    "ticks": 70016,
                    "time": 113.958151,
                    "velocity": 0.6850393700787402
                },
                {
                    "duration": 0.10416650000000516,
                    "durationTicks": 64,
                    "midi": 80,
                    "name": "G#5",
                    "ticks": 70080,
                    "time": 114.06231749999999,
                    "velocity": 0.7165354330708661
                },
                {
                    "duration": 0.10416649999999095,
                    "durationTicks": 64,
                    "midi": 81,
                    "name": "A5",
                    "ticks": 70144,
                    "time": 114.166484,
                    "velocity": 0.7086614173228346
                },
                {
                    "duration": 0.1025388984375013,
                    "durationTicks": 63,
                    "midi": 57,
                    "name": "A3",
                    "ticks": 70144,
                    "time": 114.166484,
                    "velocity": 0.7165354330708661
                },
                {
                    "duration": 0.1025388984375013,
                    "durationTicks": 63,
                    "midi": 61,
                    "name": "C#4",
                    "ticks": 70144,
                    "time": 114.166484,
                    "velocity": 0.7165354330708661
                },
                {
                    "duration": 0.1025388984375013,
                    "durationTicks": 63,
                    "midi": 67,
                    "name": "G4",
                    "ticks": 70144,
                    "time": 114.166484,
                    "velocity": 0.7165354330708661
                },
                {
                    "duration": 0.1025388984375013,
                    "durationTicks": 63,
                    "midi": 69,
                    "name": "A4",
                    "ticks": 70144,
                    "time": 114.166484,
                    "velocity": 0.7165354330708661
                },
                {
                    "duration": 0.10416650000000516,
                    "durationTicks": 64,
                    "midi": 82,
                    "name": "A#5",
                    "ticks": 70208,
                    "time": 114.27065049999999,
                    "velocity": 0.7007874015748031
                },
                {
                    "duration": 0.10416650000000516,
                    "durationTicks": 64,
                    "midi": 81,
                    "name": "A5",
                    "ticks": 70272,
                    "time": 114.374817,
                    "velocity": 0.6299212598425197
                },
                {
                    "duration": 0.10416649999999095,
                    "durationTicks": 64,
                    "midi": 80,
                    "name": "G#5",
                    "ticks": 70336,
                    "time": 114.4789835,
                    "velocity": 0.6062992125984252
                },
                {
                    "duration": 0.10416650000000516,
                    "durationTicks": 64,
                    "midi": 81,
                    "name": "A5",
                    "ticks": 70400,
                    "time": 114.58314999999999,
                    "velocity": 0.6456692913385826
                },
                {
                    "duration": 0.10416650000000516,
                    "durationTicks": 64,
                    "midi": 83,
                    "name": "B5",
                    "ticks": 70464,
                    "time": 114.6873165,
                    "velocity": 0.7165354330708661
                },
                {
                    "duration": 0.10416649999999095,
                    "durationTicks": 64,
                    "midi": 84,
                    "name": "C6",
                    "ticks": 70528,
                    "time": 114.791483,
                    "velocity": 0.6850393700787402
                },
                {
                    "duration": 0.08300767968749767,
                    "durationTicks": 51,
                    "midi": 85,
                    "name": "C#6",
                    "ticks": 70592,
                    "time": 114.89564949999999,
                    "velocity": 0.6929133858267716
                },
                {
                    "duration": 0.10416650000000516,
                    "durationTicks": 64,
                    "midi": 86,
                    "name": "D6",
                    "ticks": 70656,
                    "time": 114.999816,
                    "velocity": 0.7874015748031497
                },
                {
                    "duration": 0.2083329999999961,
                    "durationTicks": 128,
                    "midi": 62,
                    "name": "D4",
                    "ticks": 70656,
                    "time": 114.999816,
                    "velocity": 0.7007874015748031
                },
                {
                    "duration": 0.2083329999999961,
                    "durationTicks": 128,
                    "midi": 65,
                    "name": "F4",
                    "ticks": 70656,
                    "time": 114.999816,
                    "velocity": 0.7007874015748031
                },
                {
                    "duration": 0.2083329999999961,
                    "durationTicks": 128,
                    "midi": 69,
                    "name": "A4",
                    "ticks": 70656,
                    "time": 114.999816,
                    "velocity": 0.7007874015748031
                },
                {
                    "duration": 0.10416649999999095,
                    "durationTicks": 64,
                    "midi": 85,
                    "name": "C#6",
                    "ticks": 70720,
                    "time": 115.1039825,
                    "velocity": 0.7795275590551181
                },
                {
                    "duration": 0.10416650000000516,
                    "durationTicks": 64,
                    "midi": 84,
                    "name": "C6",
                    "ticks": 70784,
                    "time": 115.20814899999999,
                    "velocity": 0.7480314960629921
                },
                {
                    "duration": 0.10416649999999095,
                    "durationTicks": 64,
                    "midi": 83,
                    "name": "B5",
                    "ticks": 70848,
                    "time": 115.3123155,
                    "velocity": 0.7007874015748031
                },
                {
                    "duration": 0.10416650000000516,
                    "durationTicks": 64,
                    "midi": 84,
                    "name": "C6",
                    "ticks": 70912,
                    "time": 115.41648199999999,
                    "velocity": 0.7795275590551181
                },
                {
                    "duration": 0.20833300000001032,
                    "durationTicks": 128,
                    "midi": 62,
                    "name": "D4",
                    "ticks": 70912,
                    "time": 115.41648199999999,
                    "velocity": 0.6692913385826772
                },
                {
                    "duration": 0.20833300000001032,
                    "durationTicks": 128,
                    "midi": 66,
                    "name": "F#4",
                    "ticks": 70912,
                    "time": 115.41648199999999,
                    "velocity": 0.6692913385826772
                },
                {
                    "duration": 0.20833300000001032,
                    "durationTicks": 128,
                    "midi": 72,
                    "name": "C5",
                    "ticks": 70912,
                    "time": 115.41648199999999,
                    "velocity": 0.6692913385826772
                },
                {
                    "duration": 0.20833300000001032,
                    "durationTicks": 128,
                    "midi": 74,
                    "name": "D5",
                    "ticks": 70912,
                    "time": 115.41648199999999,
                    "velocity": 0.6692913385826772
                },
                {
                    "duration": 0.10416650000000516,
                    "durationTicks": 64,
                    "midi": 83,
                    "name": "B5",
                    "ticks": 70976,
                    "time": 115.5206485,
                    "velocity": 0.7637795275590551
                },
                {
                    "duration": 0.10416649999999095,
                    "durationTicks": 64,
                    "midi": 82,
                    "name": "A#5",
                    "ticks": 71040,
                    "time": 115.624815,
                    "velocity": 0.7007874015748031
                },
                {
                    "duration": 0.10416650000000516,
                    "durationTicks": 64,
                    "midi": 81,
                    "name": "A5",
                    "ticks": 71104,
                    "time": 115.72898149999999,
                    "velocity": 0.7086614173228346
                },
                {
                    "duration": 0.10416650000000516,
                    "durationTicks": 64,
                    "midi": 82,
                    "name": "A#5",
                    "ticks": 71168,
                    "time": 115.833148,
                    "velocity": 0.7952755905511811
                },
                {
                    "duration": 0.2083329999999961,
                    "durationTicks": 128,
                    "midi": 62,
                    "name": "D4",
                    "ticks": 71168,
                    "time": 115.833148,
                    "velocity": 0.7007874015748031
                },
                {
                    "duration": 0.2083329999999961,
                    "durationTicks": 128,
                    "midi": 67,
                    "name": "G4",
                    "ticks": 71168,
                    "time": 115.833148,
                    "velocity": 0.7007874015748031
                },
                {
                    "duration": 0.2083329999999961,
                    "durationTicks": 128,
                    "midi": 70,
                    "name": "A#4",
                    "ticks": 71168,
                    "time": 115.833148,
                    "velocity": 0.7007874015748031
                },
                {
                    "duration": 0.10416649999999095,
                    "durationTicks": 64,
                    "midi": 81,
                    "name": "A5",
                    "ticks": 71232,
                    "time": 115.9373145,
                    "velocity": 0.7007874015748031
                },
                {
                    "duration": 0.10416650000000516,
                    "durationTicks": 64,
                    "midi": 80,
                    "name": "G#5",
                    "ticks": 71296,
                    "time": 116.04148099999999,
                    "velocity": 0.7007874015748031
                },
                {
                    "duration": 0.08300767968749767,
                    "durationTicks": 51,
                    "midi": 79,
                    "name": "G5",
                    "ticks": 71360,
                    "time": 116.1456475,
                    "velocity": 0.7165354330708661
                },
                {
                    "duration": 0.10416649999999095,
                    "durationTicks": 64,
                    "midi": 78,
                    "name": "F#5",
                    "ticks": 71424,
                    "time": 116.249814,
                    "velocity": 0.7007874015748031
                },
                {
                    "duration": 0.10416650000000516,
                    "durationTicks": 64,
                    "midi": 77,
                    "name": "F5",
                    "ticks": 71488,
                    "time": 116.35398049999999,
                    "velocity": 0.7401574803149606
                },
                {
                    "duration": 0.10416649999999095,
                    "durationTicks": 64,
                    "midi": 76,
                    "name": "E5",
                    "ticks": 71552,
                    "time": 116.458147,
                    "velocity": 0.7086614173228346
                },
                {
                    "duration": 0.10416650000000516,
                    "durationTicks": 64,
                    "midi": 75,
                    "name": "D#5",
                    "ticks": 71616,
                    "time": 116.56231349999999,
                    "velocity": 0.6929133858267716
                },
                {
                    "duration": 0.10416650000000516,
                    "durationTicks": 64,
                    "midi": 74,
                    "name": "D5",
                    "ticks": 71680,
                    "time": 116.66647999999999,
                    "velocity": 0.6299212598425197
                },
                {
                    "duration": 0.2083329999999961,
                    "durationTicks": 128,
                    "midi": 50,
                    "name": "D3",
                    "ticks": 71680,
                    "time": 116.66647999999999,
                    "velocity": 0.5669291338582677
                },
                {
                    "duration": 0.2083329999999961,
                    "durationTicks": 128,
                    "midi": 53,
                    "name": "F3",
                    "ticks": 71680,
                    "time": 116.66647999999999,
                    "velocity": 0.5669291338582677
                },
                {
                    "duration": 0.2083329999999961,
                    "durationTicks": 128,
                    "midi": 57,
                    "name": "A3",
                    "ticks": 71680,
                    "time": 116.66647999999999,
                    "velocity": 0.5669291338582677
                },
                {
                    "duration": 0.10416649999999095,
                    "durationTicks": 64,
                    "midi": 73,
                    "name": "C#5",
                    "ticks": 71744,
                    "time": 116.7706465,
                    "velocity": 0.6141732283464567
                },
                {
                    "duration": 0.10416650000000516,
                    "durationTicks": 64,
                    "midi": 72,
                    "name": "C5",
                    "ticks": 71808,
                    "time": 116.87481299999999,
                    "velocity": 0.6141732283464567
                },
                {
                    "duration": 0.10416650000000516,
                    "durationTicks": 64,
                    "midi": 71,
                    "name": "B4",
                    "ticks": 71872,
                    "time": 116.9789795,
                    "velocity": 0.6220472440944882
                },
                {
                    "duration": 0.10416649999999095,
                    "durationTicks": 64,
                    "midi": 72,
                    "name": "C5",
                    "ticks": 71936,
                    "time": 117.083146,
                    "velocity": 0.6850393700787402
                },
                {
                    "duration": 0.2083329999999961,
                    "durationTicks": 128,
                    "midi": 50,
                    "name": "D3",
                    "ticks": 71936,
                    "time": 117.083146,
                    "velocity": 0.5905511811023622
                },
                {
                    "duration": 0.2083329999999961,
                    "durationTicks": 128,
                    "midi": 54,
                    "name": "F#3",
                    "ticks": 71936,
                    "time": 117.083146,
                    "velocity": 0.5905511811023622
                },
                {
                    "duration": 0.2083329999999961,
                    "durationTicks": 128,
                    "midi": 57,
                    "name": "A3",
                    "ticks": 71936,
                    "time": 117.083146,
                    "velocity": 0.5905511811023622
                },
                {
                    "duration": 0.10416650000000516,
                    "durationTicks": 64,
                    "midi": 71,
                    "name": "B4",
                    "ticks": 72000,
                    "time": 117.18731249999999,
                    "velocity": 0.6299212598425197
                },
                {
                    "duration": 0.10416650000000516,
                    "durationTicks": 64,
                    "midi": 70,
                    "name": "A#4",
                    "ticks": 72064,
                    "time": 117.291479,
                    "velocity": 0.6220472440944882
                },
                {
                    "duration": 0.08300767968749767,
                    "durationTicks": 51,
                    "midi": 69,
                    "name": "A4",
                    "ticks": 72128,
                    "time": 117.3956455,
                    "velocity": 0.6692913385826772
                },
                {
                    "duration": 0.10416650000000516,
                    "durationTicks": 64,
                    "midi": 70,
                    "name": "A#4",
                    "ticks": 72192,
                    "time": 117.49981199999999,
                    "velocity": 0.6535433070866141
                },
                {
                    "duration": 0.2083329999999961,
                    "durationTicks": 128,
                    "midi": 50,
                    "name": "D3",
                    "ticks": 72192,
                    "time": 117.49981199999999,
                    "velocity": 0.5669291338582677
                },
                {
                    "duration": 0.2083329999999961,
                    "durationTicks": 128,
                    "midi": 55,
                    "name": "G3",
                    "ticks": 72192,
                    "time": 117.49981199999999,
                    "velocity": 0.5669291338582677
                },
                {
                    "duration": 0.2083329999999961,
                    "durationTicks": 128,
                    "midi": 58,
                    "name": "A#3",
                    "ticks": 72192,
                    "time": 117.49981199999999,
                    "velocity": 0.5669291338582677
                },
                {
                    "duration": 0.10416649999999095,
                    "durationTicks": 64,
                    "midi": 69,
                    "name": "A4",
                    "ticks": 72256,
                    "time": 117.6039785,
                    "velocity": 0.6299212598425197
                },
                {
                    "duration": 0.10416650000000516,
                    "durationTicks": 64,
                    "midi": 68,
                    "name": "G#4",
                    "ticks": 72320,
                    "time": 117.70814499999999,
                    "velocity": 0.6062992125984252
                },
                {
                    "duration": 0.10416650000000516,
                    "durationTicks": 64,
                    "midi": 67,
                    "name": "G4",
                    "ticks": 72384,
                    "time": 117.81231149999999,
                    "velocity": 0.6377952755905512
                },
                {
                    "duration": 0.10416649999999095,
                    "durationTicks": 64,
                    "midi": 66,
                    "name": "F#4",
                    "ticks": 72448,
                    "time": 117.916478,
                    "velocity": 0.6062992125984252
                },
                {
                    "duration": 0.10416650000000516,
                    "durationTicks": 64,
                    "midi": 65,
                    "name": "F4",
                    "ticks": 72512,
                    "time": 118.02064449999999,
                    "velocity": 0.6535433070866141
                },
                {
                    "duration": 0.10416650000000516,
                    "durationTicks": 64,
                    "midi": 64,
                    "name": "E4",
                    "ticks": 72576,
                    "time": 118.124811,
                    "velocity": 0.6062992125984252
                },
                {
                    "duration": 0.10416649999999095,
                    "durationTicks": 64,
                    "midi": 63,
                    "name": "D#4",
                    "ticks": 72640,
                    "time": 118.2289775,
                    "velocity": 0.6377952755905512
                },
                {
                    "duration": 0.10416650000000516,
                    "durationTicks": 64,
                    "midi": 62,
                    "name": "D4",
                    "ticks": 72704,
                    "time": 118.33314399999999,
                    "velocity": 0.6377952755905512
                },
                {
                    "duration": 0.20833300000001032,
                    "durationTicks": 128,
                    "midi": 50,
                    "name": "D3",
                    "ticks": 72704,
                    "time": 118.33314399999999,
                    "velocity": 0.6062992125984252
                },
                {
                    "duration": 0.20833300000001032,
                    "durationTicks": 128,
                    "midi": 53,
                    "name": "F3",
                    "ticks": 72704,
                    "time": 118.33314399999999,
                    "velocity": 0.6062992125984252
                },
                {
                    "duration": 0.20833300000001032,
                    "durationTicks": 128,
                    "midi": 57,
                    "name": "A3",
                    "ticks": 72704,
                    "time": 118.33314399999999,
                    "velocity": 0.6062992125984252
                },
                {
                    "duration": 0.10416650000000516,
                    "durationTicks": 64,
                    "midi": 63,
                    "name": "D#4",
                    "ticks": 72768,
                    "time": 118.4373105,
                    "velocity": 0.6692913385826772
                },
                {
                    "duration": 0.10416649999999095,
                    "durationTicks": 64,
                    "midi": 62,
                    "name": "D4",
                    "ticks": 72832,
                    "time": 118.541477,
                    "velocity": 0.6377952755905512
                },
                {
                    "duration": 0.10416650000000516,
                    "durationTicks": 64,
                    "midi": 61,
                    "name": "C#4",
                    "ticks": 72896,
                    "time": 118.64564349999999,
                    "velocity": 0.6377952755905512
                },
                {
                    "duration": 0.10416649999999095,
                    "durationTicks": 64,
                    "midi": 61,
                    "name": "C#4",
                    "ticks": 72960,
                    "time": 118.74981,
                    "velocity": 0.7716535433070866
                },
                {
                    "duration": 0.10416649999999095,
                    "durationTicks": 64,
                    "midi": 63,
                    "name": "D#4",
                    "ticks": 72960,
                    "time": 118.74981,
                    "velocity": 0.7716535433070866
                },
                {
                    "duration": 0.10416650000000516,
                    "durationTicks": 64,
                    "midi": 62,
                    "name": "D4",
                    "ticks": 73024,
                    "time": 118.85397649999999,
                    "velocity": 0.6929133858267716
                },
                {
                    "duration": 0.10416650000000516,
                    "durationTicks": 64,
                    "midi": 61,
                    "name": "C#4",
                    "ticks": 73088,
                    "time": 118.95814299999999,
                    "velocity": 0.7480314960629921
                },
                {
                    "duration": 0.10416650000000516,
                    "durationTicks": 64,
                    "midi": 63,
                    "name": "D#4",
                    "ticks": 73088,
                    "time": 118.95814299999999,
                    "velocity": 0.7480314960629921
                },
                {
                    "duration": 0.10416649999999095,
                    "durationTicks": 64,
                    "midi": 75,
                    "name": "D#5",
                    "ticks": 73152,
                    "time": 119.0623095,
                    "velocity": 0.968503937007874
                },
                {
                    "duration": 0.10416650000000516,
                    "durationTicks": 64,
                    "midi": 62,
                    "name": "D4",
                    "ticks": 73216,
                    "time": 119.16647599999999,
                    "velocity": 0.5748031496062992
                },
                {
                    "duration": 0.10416650000000516,
                    "durationTicks": 64,
                    "midi": 63,
                    "name": "D#4",
                    "ticks": 73280,
                    "time": 119.2706425,
                    "velocity": 0.7559055118110236
                },
                {
                    "duration": 0.10416649999999095,
                    "durationTicks": 64,
                    "midi": 61,
                    "name": "C#4",
                    "ticks": 73344,
                    "time": 119.374809,
                    "velocity": 0.7086614173228346
                },
                {
                    "duration": 0.10416649999999095,
                    "durationTicks": 64,
                    "midi": 62,
                    "name": "D4",
                    "ticks": 73344,
                    "time": 119.374809,
                    "velocity": 0.7086614173228346
                },
                {
                    "duration": 0.10416650000000516,
                    "durationTicks": 64,
                    "midi": 64,
                    "name": "E4",
                    "ticks": 73408,
                    "time": 119.47897549999999,
                    "velocity": 0.7874015748031497
                },
                {
                    "duration": 0.10416650000000516,
                    "durationTicks": 64,
                    "midi": 60,
                    "name": "C4",
                    "ticks": 73472,
                    "time": 119.583142,
                    "velocity": 0.7401574803149606
                },
                {
                    "duration": 0.10416650000000516,
                    "durationTicks": 64,
                    "midi": 62,
                    "name": "D4",
                    "ticks": 73472,
                    "time": 119.583142,
                    "velocity": 0.7401574803149606
                },
                {
                    "duration": 0.10416649999999095,
                    "durationTicks": 64,
                    "midi": 65,
                    "name": "F4",
                    "ticks": 73536,
                    "time": 119.6873085,
                    "velocity": 0.7795275590551181
                },
                {
                    "duration": 0.10416650000000516,
                    "durationTicks": 64,
                    "midi": 58,
                    "name": "A#3",
                    "ticks": 73600,
                    "time": 119.79147499999999,
                    "velocity": 0.7480314960629921
                },
                {
                    "duration": 0.10416650000000516,
                    "durationTicks": 64,
                    "midi": 62,
                    "name": "D4",
                    "ticks": 73600,
                    "time": 119.79147499999999,
                    "velocity": 0.7480314960629921
                },
                {
                    "duration": 0.10416650000000516,
                    "durationTicks": 64,
                    "midi": 67,
                    "name": "G4",
                    "ticks": 73664,
                    "time": 119.8956415,
                    "velocity": 0.8503937007874016
                },
                {
                    "duration": 0.10416649999999095,
                    "durationTicks": 64,
                    "midi": 69,
                    "name": "A4",
                    "ticks": 73728,
                    "time": 119.999808,
                    "velocity": 0.6062992125984252
                },
                {
                    "duration": 0.10416649999999095,
                    "durationTicks": 64,
                    "midi": 50,
                    "name": "D3",
                    "ticks": 73728,
                    "time": 119.999808,
                    "velocity": 0.6614173228346457
                },
                {
                    "duration": 0.10416649999999095,
                    "durationTicks": 64,
                    "midi": 53,
                    "name": "F3",
                    "ticks": 73728,
                    "time": 119.999808,
                    "velocity": 0.6614173228346457
                },
                {
                    "duration": 0.10416649999999095,
                    "durationTicks": 64,
                    "midi": 57,
                    "name": "A3",
                    "ticks": 73728,
                    "time": 119.999808,
                    "velocity": 0.6614173228346457
                },
                {
                    "duration": 0.10416650000000516,
                    "durationTicks": 64,
                    "midi": 70,
                    "name": "A#4",
                    "ticks": 73792,
                    "time": 120.10397449999999,
                    "velocity": 0.6929133858267716
                },
                {
                    "duration": 0.10416649999999095,
                    "durationTicks": 64,
                    "midi": 69,
                    "name": "A4",
                    "ticks": 73856,
                    "time": 120.208141,
                    "velocity": 0.6299212598425197
                },
                {
                    "duration": 0.10416650000000516,
                    "durationTicks": 64,
                    "midi": 68,
                    "name": "G#4",
                    "ticks": 73920,
                    "time": 120.31230749999999,
                    "velocity": 0.6535433070866141
                },
                {
                    "duration": 0.10416650000000516,
                    "durationTicks": 64,
                    "midi": 68,
                    "name": "G#4",
                    "ticks": 73984,
                    "time": 120.416474,
                    "velocity": 0.8740157480314961
                },
                {
                    "duration": 0.10416650000000516,
                    "durationTicks": 64,
                    "midi": 70,
                    "name": "A#4",
                    "ticks": 73984,
                    "time": 120.416474,
                    "velocity": 0.8740157480314961
                },
                {
                    "duration": 0.10416649999999095,
                    "durationTicks": 64,
                    "midi": 69,
                    "name": "A4",
                    "ticks": 74048,
                    "time": 120.5206405,
                    "velocity": 0.8503937007874016
                },
                {
                    "duration": 0.10416649999999095,
                    "durationTicks": 64,
                    "midi": 81,
                    "name": "A5",
                    "ticks": 74048,
                    "time": 120.5206405,
                    "velocity": 0.8503937007874016
                },
                {
                    "duration": 0.10416650000000516,
                    "durationTicks": 64,
                    "midi": 68,
                    "name": "G#4",
                    "ticks": 74112,
                    "time": 120.62480699999999,
                    "velocity": 0.7007874015748031
                },
                {
                    "duration": 0.10416650000000516,
                    "durationTicks": 64,
                    "midi": 70,
                    "name": "A#4",
                    "ticks": 74112,
                    "time": 120.62480699999999,
                    "velocity": 0.7007874015748031
                },
                {
                    "duration": 0.10416650000000516,
                    "durationTicks": 64,
                    "midi": 82,
                    "name": "A#5",
                    "ticks": 74176,
                    "time": 120.7289735,
                    "velocity": 0.905511811023622
                },
                {
                    "duration": 0.10416649999999095,
                    "durationTicks": 64,
                    "midi": 81,
                    "name": "A5",
                    "ticks": 74240,
                    "time": 120.83314,
                    "velocity": 0.6141732283464567
                },
                {
                    "duration": 0.10416649999999095,
                    "durationTicks": 64,
                    "midi": 69,
                    "name": "A4",
                    "ticks": 74240,
                    "time": 120.83314,
                    "velocity": 0.6062992125984252
                },
                {
                    "duration": 0.10416650000000516,
                    "durationTicks": 64,
                    "midi": 70,
                    "name": "A#4",
                    "ticks": 74304,
                    "time": 120.93730649999999,
                    "velocity": 0.7716535433070866
                },
                {
                    "duration": 0.10416650000000516,
                    "durationTicks": 64,
                    "midi": 67,
                    "name": "G4",
                    "ticks": 74368,
                    "time": 121.041473,
                    "velocity": 0.6141732283464567
                },
                {
                    "duration": 0.10416650000000516,
                    "durationTicks": 64,
                    "midi": 69,
                    "name": "A4",
                    "ticks": 74368,
                    "time": 121.041473,
                    "velocity": 0.6141732283464567
                },
                {
                    "duration": 0.10416649999999095,
                    "durationTicks": 64,
                    "midi": 71,
                    "name": "B4",
                    "ticks": 74432,
                    "time": 121.1456395,
                    "velocity": 0.8267716535433071
                },
                {
                    "duration": 0.10416649999999095,
                    "durationTicks": 64,
                    "midi": 83,
                    "name": "B5",
                    "ticks": 74432,
                    "time": 121.1456395,
                    "velocity": 0.8267716535433071
                },
                {
                    "duration": 0.10416650000000516,
                    "durationTicks": 64,
                    "midi": 65,
                    "name": "F4",
                    "ticks": 74496,
                    "time": 121.24980599999999,
                    "velocity": 0.5039370078740157
                },
                {
                    "duration": 0.10416650000000516,
                    "durationTicks": 64,
                    "midi": 69,
                    "name": "A4",
                    "ticks": 74496,
                    "time": 121.24980599999999,
                    "velocity": 0.5039370078740157
                },
                {
                    "duration": 0.10416649999999095,
                    "durationTicks": 64,
                    "midi": 72,
                    "name": "C5",
                    "ticks": 74560,
                    "time": 121.3539725,
                    "velocity": 0.7952755905511811
                },
                {
                    "duration": 0.10416649999999095,
                    "durationTicks": 64,
                    "midi": 84,
                    "name": "C6",
                    "ticks": 74560,
                    "time": 121.3539725,
                    "velocity": 0.7952755905511811
                },
                {
                    "duration": 0.10416650000000516,
                    "durationTicks": 64,
                    "midi": 64,
                    "name": "E4",
                    "ticks": 74624,
                    "time": 121.45813899999999,
                    "velocity": 0.5118110236220472
                },
                {
                    "duration": 0.10416650000000516,
                    "durationTicks": 64,
                    "midi": 67,
                    "name": "G4",
                    "ticks": 74624,
                    "time": 121.45813899999999,
                    "velocity": 0.5118110236220472
                },
                {
                    "duration": 0.10416650000000516,
                    "durationTicks": 64,
                    "midi": 69,
                    "name": "A4",
                    "ticks": 74624,
                    "time": 121.45813899999999,
                    "velocity": 0.5118110236220472
                },
                {
                    "duration": 0.10416650000000516,
                    "durationTicks": 64,
                    "midi": 73,
                    "name": "C#5",
                    "ticks": 74688,
                    "time": 121.5623055,
                    "velocity": 0.84251968503937
                },
                {
                    "duration": 0.10416650000000516,
                    "durationTicks": 64,
                    "midi": 85,
                    "name": "C#6",
                    "ticks": 74688,
                    "time": 121.5623055,
                    "velocity": 0.84251968503937
                },
                {
                    "duration": 0.2083329999999961,
                    "durationTicks": 128,
                    "midi": 74,
                    "name": "D5",
                    "ticks": 74752,
                    "time": 121.666472,
                    "velocity": 0.6771653543307087
                },
                {
                    "duration": 0.2083329999999961,
                    "durationTicks": 128,
                    "midi": 86,
                    "name": "D6",
                    "ticks": 74752,
                    "time": 121.666472,
                    "velocity": 0.6771653543307087
                },
                {
                    "duration": 0.2083329999999961,
                    "durationTicks": 128,
                    "midi": 62,
                    "name": "D4",
                    "ticks": 74752,
                    "time": 121.666472,
                    "velocity": 0.6614173228346457
                },
                {
                    "duration": 0.2083329999999961,
                    "durationTicks": 128,
                    "midi": 65,
                    "name": "F4",
                    "ticks": 74752,
                    "time": 121.666472,
                    "velocity": 0.6614173228346457
                },
                {
                    "duration": 0.2083329999999961,
                    "durationTicks": 128,
                    "midi": 69,
                    "name": "A4",
                    "ticks": 74752,
                    "time": 121.666472,
                    "velocity": 0.6614173228346457
                },
                {
                    "duration": 0.10416650000000516,
                    "durationTicks": 64,
                    "midi": 57,
                    "name": "A3",
                    "ticks": 75008,
                    "time": 122.08313799999999,
                    "velocity": 0.3543307086614173
                },
                {
                    "duration": 0.10416650000000516,
                    "durationTicks": 64,
                    "midi": 58,
                    "name": "A#3",
                    "ticks": 75072,
                    "time": 122.1873045,
                    "velocity": 0.3700787401574803
                },
                {
                    "duration": 0.10416649999999095,
                    "durationTicks": 64,
                    "midi": 59,
                    "name": "B3",
                    "ticks": 75136,
                    "time": 122.291471,
                    "velocity": 0.3779527559055118
                },
                {
                    "duration": 0.10416650000000516,
                    "durationTicks": 64,
                    "midi": 60,
                    "name": "C4",
                    "ticks": 75200,
                    "time": 122.39563749999999,
                    "velocity": 0.4330708661417323
                },
                {
                    "duration": 0.10416649999999095,
                    "durationTicks": 64,
                    "midi": 61,
                    "name": "C#4",
                    "ticks": 75264,
                    "time": 122.499804,
                    "velocity": 0.4015748031496063
                },
                {
                    "duration": 0.10416650000000516,
                    "durationTicks": 64,
                    "midi": 62,
                    "name": "D4",
                    "ticks": 75328,
                    "time": 122.60397049999999,
                    "velocity": 0.3858267716535433
                },
                {
                    "duration": 0.10416650000000516,
                    "durationTicks": 64,
                    "midi": 63,
                    "name": "D#4",
                    "ticks": 75392,
                    "time": 122.708137,
                    "velocity": 0.4409448818897638
                },
                {
                    "duration": 0.10416649999999095,
                    "durationTicks": 64,
                    "midi": 64,
                    "name": "E4",
                    "ticks": 75456,
                    "time": 122.8123035,
                    "velocity": 0.4015748031496063
                },
                {
                    "duration": 0.10416650000000516,
                    "durationTicks": 64,
                    "midi": 65,
                    "name": "F4",
                    "ticks": 75520,
                    "time": 122.91646999999999,
                    "velocity": 0.4330708661417323
                },
                {
                    "duration": 0.10416650000000516,
                    "durationTicks": 64,
                    "midi": 66,
                    "name": "F#4",
                    "ticks": 75584,
                    "time": 123.0206365,
                    "velocity": 0.4094488188976378
                },
                {
                    "duration": 0.10416649999999095,
                    "durationTicks": 64,
                    "midi": 67,
                    "name": "G4",
                    "ticks": 75648,
                    "time": 123.124803,
                    "velocity": 0.41732283464566927
                },
                {
                    "duration": 0.08300767968749767,
                    "durationTicks": 51,
                    "midi": 68,
                    "name": "G#4",
                    "ticks": 75712,
                    "time": 123.22896949999999,
                    "velocity": 0.41732283464566927
                },
                {
                    "duration": 0.10416650000000516,
                    "durationTicks": 64,
                    "midi": 69,
                    "name": "A4",
                    "ticks": 75776,
                    "time": 123.333136,
                    "velocity": 0.41732283464566927
                },
                {
                    "duration": 0.2083329999999961,
                    "durationTicks": 128,
                    "midi": 62,
                    "name": "D4",
                    "ticks": 75776,
                    "time": 123.333136,
                    "velocity": 0.3464566929133858
                },
                {
                    "duration": 0.2083329999999961,
                    "durationTicks": 128,
                    "midi": 65,
                    "name": "F4",
                    "ticks": 75776,
                    "time": 123.333136,
                    "velocity": 0.3464566929133858
                },
                {
                    "duration": 0.2083329999999961,
                    "durationTicks": 128,
                    "midi": 69,
                    "name": "A4",
                    "ticks": 75776,
                    "time": 123.333136,
                    "velocity": 0.3464566929133858
                },
                {
                    "duration": 0.10416649999999095,
                    "durationTicks": 64,
                    "midi": 70,
                    "name": "A#4",
                    "ticks": 75840,
                    "time": 123.4373025,
                    "velocity": 0.4094488188976378
                },
                {
                    "duration": 0.10416650000000516,
                    "durationTicks": 64,
                    "midi": 71,
                    "name": "B4",
                    "ticks": 75904,
                    "time": 123.54146899999999,
                    "velocity": 0.44881889763779526
                },
                {
                    "duration": 0.10416649999999095,
                    "durationTicks": 64,
                    "midi": 72,
                    "name": "C5",
                    "ticks": 75968,
                    "time": 123.6456355,
                    "velocity": 0.4015748031496063
                },
                {
                    "duration": 0.10416650000000516,
                    "durationTicks": 64,
                    "midi": 73,
                    "name": "C#5",
                    "ticks": 76032,
                    "time": 123.74980199999999,
                    "velocity": 0.3779527559055118
                },
                {
                    "duration": 0.10416650000000516,
                    "durationTicks": 64,
                    "midi": 74,
                    "name": "D5",
                    "ticks": 76096,
                    "time": 123.8539685,
                    "velocity": 0.41732283464566927
                },
                {
                    "duration": 0.10416649999999095,
                    "durationTicks": 64,
                    "midi": 75,
                    "name": "D#5",
                    "ticks": 76160,
                    "time": 123.958135,
                    "velocity": 0.4094488188976378
                },
                {
                    "duration": 0.10416650000000516,
                    "durationTicks": 64,
                    "midi": 76,
                    "name": "E5",
                    "ticks": 76224,
                    "time": 124.06230149999999,
                    "velocity": 0.4251968503937008
                },
                {
                    "duration": 0.10416650000000516,
                    "durationTicks": 64,
                    "midi": 77,
                    "name": "F5",
                    "ticks": 76288,
                    "time": 124.166468,
                    "velocity": 0.4015748031496063
                },
                {
                    "duration": 0.2083329999999961,
                    "durationTicks": 128,
                    "midi": 69,
                    "name": "A4",
                    "ticks": 76288,
                    "time": 124.166468,
                    "velocity": 0.4015748031496063
                },
                {
                    "duration": 0.2083329999999961,
                    "durationTicks": 128,
                    "midi": 74,
                    "name": "D5",
                    "ticks": 76288,
                    "time": 124.166468,
                    "velocity": 0.4015748031496063
                },
                {
                    "duration": 0.2083329999999961,
                    "durationTicks": 128,
                    "midi": 81,
                    "name": "A5",
                    "ticks": 76288,
                    "time": 124.166468,
                    "velocity": 0.4015748031496063
                },
                {
                    "duration": 0.10416649999999095,
                    "durationTicks": 64,
                    "midi": 78,
                    "name": "F#5",
                    "ticks": 76352,
                    "time": 124.2706345,
                    "velocity": 0.44881889763779526
                },
                {
                    "duration": 0.10416650000000516,
                    "durationTicks": 64,
                    "midi": 79,
                    "name": "G5",
                    "ticks": 76416,
                    "time": 124.37480099999999,
                    "velocity": 0.4094488188976378
                },
                {
                    "duration": 0.10416650000000516,
                    "durationTicks": 64,
                    "midi": 80,
                    "name": "G#5",
                    "ticks": 76480,
                    "time": 124.4789675,
                    "velocity": 0.41732283464566927
                },
                {
                    "duration": 0.10416649999999095,
                    "durationTicks": 64,
                    "midi": 81,
                    "name": "A5",
                    "ticks": 76544,
                    "time": 124.583134,
                    "velocity": 0.41732283464566927
                },
                {
                    "duration": 0.10416650000000516,
                    "durationTicks": 64,
                    "midi": 83,
                    "name": "B5",
                    "ticks": 76608,
                    "time": 124.68730049999999,
                    "velocity": 0.4251968503937008
                },
                {
                    "duration": 0.10416649999999095,
                    "durationTicks": 64,
                    "midi": 84,
                    "name": "C6",
                    "ticks": 76672,
                    "time": 124.791467,
                    "velocity": 0.44881889763779526
                },
                {
                    "duration": 0.08300767968751188,
                    "durationTicks": 51,
                    "midi": 85,
                    "name": "C#6",
                    "ticks": 76736,
                    "time": 124.89563349999999,
                    "velocity": 0.44881889763779526
                },
                {
                    "duration": 0.8333319999999986,
                    "durationTicks": 512,
                    "midi": 77,
                    "name": "F5",
                    "ticks": 76800,
                    "time": 124.9998,
                    "velocity": 0.4881889763779528
                },
                {
                    "duration": 0.8333319999999986,
                    "durationTicks": 512,
                    "midi": 81,
                    "name": "A5",
                    "ticks": 76800,
                    "time": 124.9998,
                    "velocity": 0.4881889763779528
                },
                {
                    "duration": 0.8333319999999986,
                    "durationTicks": 512,
                    "midi": 86,
                    "name": "D6",
                    "ticks": 76800,
                    "time": 124.9998,
                    "velocity": 0.4881889763779528
                },
                {
                    "duration": 0.2083329999999961,
                    "durationTicks": 128,
                    "midi": 65,
                    "name": "F4",
                    "ticks": 76800,
                    "time": 124.9998,
                    "velocity": 0.3464566929133858
                },
                {
                    "duration": 0.2083329999999961,
                    "durationTicks": 128,
                    "midi": 69,
                    "name": "A4",
                    "ticks": 76800,
                    "time": 124.9998,
                    "velocity": 0.3464566929133858
                },
                {
                    "duration": 0.8333319999999986,
                    "durationTicks": 512,
                    "midi": 86,
                    "name": "D6",
                    "ticks": 77312,
                    "time": 125.83313199999999,
                    "velocity": 0.5039370078740157
                },
                {
                    "duration": 0.8333319999999986,
                    "durationTicks": 512,
                    "midi": 89,
                    "name": "F6",
                    "ticks": 77312,
                    "time": 125.83313199999999,
                    "velocity": 0.5039370078740157
                },
                {
                    "duration": 0.8333319999999986,
                    "durationTicks": 512,
                    "midi": 93,
                    "name": "A6",
                    "ticks": 77312,
                    "time": 125.83313199999999,
                    "velocity": 0.5039370078740157
                },
                {
                    "duration": 0.8333319999999986,
                    "durationTicks": 512,
                    "midi": 98,
                    "name": "D7",
                    "ticks": 77312,
                    "time": 125.83313199999999,
                    "velocity": 0.5039370078740157
                },
                {
                    "duration": 0.20670539843750646,
                    "durationTicks": 127,
                    "midi": 62,
                    "name": "D4",
                    "ticks": 77312,
                    "time": 125.83313199999999,
                    "velocity": 0.33858267716535434
                },
                {
                    "duration": 0.20670539843750646,
                    "durationTicks": 127,
                    "midi": 65,
                    "name": "F4",
                    "ticks": 77312,
                    "time": 125.83313199999999,
                    "velocity": 0.33858267716535434
                },
                {
                    "duration": 0.20670539843750646,
                    "durationTicks": 127,
                    "midi": 69,
                    "name": "A4",
                    "ticks": 77312,
                    "time": 125.83313199999999,
                    "velocity": 0.33858267716535434
                },
                {
                    "duration": 0.4166660000000064,
                    "durationTicks": 256,
                    "midi": 62,
                    "name": "D4",
                    "ticks": 77824,
                    "time": 126.66646399999999,
                    "velocity": 0.33070866141732286
                },
                {
                    "duration": 0.4166660000000064,
                    "durationTicks": 256,
                    "midi": 74,
                    "name": "D5",
                    "ticks": 77824,
                    "time": 126.66646399999999,
                    "velocity": 0.33070866141732286
                },
                {
                    "duration": 0.4166660000000064,
                    "durationTicks": 256,
                    "midi": 38,
                    "name": "D2",
                    "ticks": 77824,
                    "time": 126.66646399999999,
                    "velocity": 0.3543307086614173
                },
                {
                    "duration": 0.4166660000000064,
                    "durationTicks": 256,
                    "midi": 50,
                    "name": "D3",
                    "ticks": 77824,
                    "time": 126.66646399999999,
                    "velocity": 0.3543307086614173
                }
            ],
            "endOfTrackTicks": 78081
        }
    ]
}