{
    "header": {
        "keySignatures": [
            {
                "key": "C",
                "scale": "major",
                "ticks": 0
            },
            {
                "key": "C",
                "scale": "major",
                "ticks": 0
            },
            {
                "key": "C",
                "scale": "major",
                "ticks": 0
            },
            {
                "key": "C",
                "scale": "major",
                "ticks": 0
            }
        ],
        "meta": [],
        "name": "",
        "ppq": 480,
        "tempos": [
            {
                "bpm": 120,
                "ticks": 0
            }
        ],
        "timeSignatures": [
            {
                "ticks": 0,
                "timeSignature": [
                    4,
                    4
                ],
                "measures": 0
            }
        ]
    },
    "tracks": [
        {
            "channel": 0,
            "controlChanges": {
                "7": [
                    {
                        "number": 7,
                        "ticks": 0,
                        "time": 0,
                        "value": 0.7874015748031497
                    }
                ],
                "10": [
                    {
                        "number": 10,
                        "ticks": 0,
                        "time": 0,
                        "value": 0.5039370078740157
                    }
                ],
                "91": [
                    {
                        "number": 91,
                        "ticks": 0,
                        "time": 0,
                        "value": 0
                    }
                ],
                "93": [
                    {
                        "number": 93,
                        "ticks": 0,
                        "time": 0,
                        "value": 0
                    }
                ],
                "121": [
                    {
                        "number": 121,
                        "ticks": 0,
                        "time": 0,
                        "value": 0
                    }
                ]
            },
            "pitchBends": [],
            "instrument": {
                "family": "piano",
                "number": 0,
                "name": "acoustic grand piano"
            },
            "name": "",
            "notes": [
                {
                    "duration": 0.11770833333333333,
                    "durationTicks": 113,
                    "midi": 62,
                    "name": "D4",
                    "ticks": 0,
                    "time": 0,
                    "velocity": 0.7559055118110236
                },
                {
                    "duration": 0.11770833333333333,
                    "durationTicks": 113,
                    "midi": 62,
                    "name": "D4",
                    "ticks": 120,
                    "time": 0.125,
                    "velocity": 0.7559055118110236
                },
                {
                    "duration": 0.12395833333333334,
                    "durationTicks": 119,
                    "midi": 74,
                    "name": "D5",
                    "ticks": 240,
                    "time": 0.25,
                    "velocity": 0.7559055118110236
                },
                {
                    "duration": 0.12395833333333328,
                    "durationTicks": 119,
                    "midi": 69,
                    "name": "A4",
                    "ticks": 480,
                    "time": 0.5,
                    "velocity": 0.7559055118110236
                },
                {
                    "duration": 0.12395833333333328,
                    "durationTicks": 119,
                    "midi": 68,
                    "name": "G#4",
                    "ticks": 840,
                    "time": 0.875,
                    "velocity": 0.7559055118110236
                },
                {
                    "duration": 0.12395833333333339,
                    "durationTicks": 119,
                    "midi": 67,
                    "name": "G4",
                    "ticks": 1080,
                    "time": 1.125,
                    "velocity": 0.7559055118110236
                },
                {
                    "duration": 0.23645833333333344,
                    "durationTicks": 227,
                    "midi": 65,
                    "name": "F4",
                    "ticks": 1320,
                    "time": 1.375,
                    "velocity": 0.7559055118110236
                },
                {
                    "duration": 0.1177083333333333,
                    "durationTicks": 113,
                    "midi": 62,
                    "name": "D4",
                    "ticks": 1560,
                    "time": 1.625,
                    "velocity": 0.7559055118110236
                },
                {
                    "duration": 0.1177083333333333,
                    "durationTicks": 113,
                    "midi": 65,
                    "name": "F4",
                    "ticks": 1680,
                    "time": 1.75,
                    "velocity": 0.7559055118110236
                },
                {
                    "duration": 0.1177083333333333,
                    "durationTicks": 113,
                    "midi": 67,
                    "name": "G4",
                    "ticks": 1800,
                    "time": 1.875,
                    "velocity": 0.7559055118110236
                },
                {
                    "duration": 0.1177083333333333,
                    "durationTicks": 113,
                    "midi": 60,
                    "name": "C4",
                    "ticks": 1920,
                    "time": 2,
                    "velocity": 0.7559055118110236
                },
                {
                    "duration": 0.1177083333333333,
                    "durationTicks": 113,
                    "midi": 60,
                    "name": "C4",
                    "ticks": 2040,
                    "time": 2.125,
                    "velocity": 0.7559055118110236
                },
                {
                    "duration": 0.12395833333333339,
                    "durationTicks": 119,
                    "midi": 74,
                    "name": "D5",
                    "ticks": 2160,
                    "time": 2.25,
                    "velocity": 0.7559055118110236
                },
                {
                    "duration": 0.12395833333333339,
                    "durationTicks": 119,
                    "midi": 69,
                    "name": "A4",
                    "ticks": 2400,
                    "time": 2.5,
                    "velocity": 0.7559055118110236
                },
                {
                    "duration": 0.12395833333333339,
                    "durationTicks": 119,
                    "midi": 68,
                    "name": "G#4",
                    "ticks": 2760,
                    "time": 2.875,
                    "velocity": 0.7559055118110236
                },
                {
                    "duration": 0.12395833333333339,
                    "durationTicks": 119,
                    "midi": 67,
                    "name": "G4",
                    "ticks": 3000,
                    "time": 3.125,
                    "velocity": 0.7559055118110236
                },
                {
                    "duration": 0.23645833333333321,
                    "durationTicks": 227,
                    "midi": 65,
                    "name": "F4",
                    "ticks": 3240,
                    "time": 3.375,
                    "velocity": 0.7559055118110236
                },
                {
                    "duration": 0.1177083333333333,
                    "durationTicks": 113,
                    "midi": 62,
                    "name": "D4",
                    "ticks": 3480,
                    "time": 3.625,
                    "velocity": 0.7559055118110236
                },
                {
                    "duration": 0.1177083333333333,
                    "durationTicks": 113,
                    "midi": 65,
                    "name": "F4",
                    "ticks": 3600,
                    "time": 3.75,
                    "velocity": 0.7559055118110236
                },
                {
                    "duration": 0.1177083333333333,
                    "durationTicks": 113,
                    "midi": 67,
                    "name": "G4",
                    "ticks": 3720,
                    "time": 3.875,
                    "velocity": 0.7559055118110236
                },
                {
                    "duration": 0.11770833333333375,
                    "durationTicks": 113,
                    "midi": 59,
                    "name": "B3",
                    "ticks": 3840,
                    "time": 4,
                    "velocity": 0.7559055118110236
                },
                {
                    "duration": 0.11770833333333375,
                    "durationTicks": 113,
                    "midi": 59,
                    "name": "B3",
                    "ticks": 3960,
                    "time": 4.125,
                    "velocity": 0.7559055118110236
                },
                {
                    "duration": 0.12395833333333339,
                    "durationTicks": 119,
                    "midi": 74,
                    "name": "D5",
                    "ticks": 4080,
                    "time": 4.25,
                    "velocity": 0.7559055118110236
                },
                {
                    "duration": 0.12395833333333339,
                    "durationTicks": 119,
                    "midi": 69,
                    "name": "A4",
                    "ticks": 4320,
                    "time": 4.5,
                    "velocity": 0.7559055118110236
                },
                {
                    "duration": 0.12395833333333339,
                    "durationTicks": 119,
                    "midi": 68,
                    "name": "G#4",
                    "ticks": 4680,
                    "time": 4.875,
                    "velocity": 0.7559055118110236
                },
                {
                    "duration": 0.12395833333333339,
                    "durationTicks": 119,
                    "midi": 67,
                    "name": "G4",
                    "ticks": 4920,
                    "time": 5.125,
                    "velocity": 0.7559055118110236
                },
                {
                    "duration": 0.23645833333333321,
                    "durationTicks": 227,
                    "midi": 65,
                    "name": "F4",
                    "ticks": 5160,
                    "time": 5.375,
                    "velocity": 0.7559055118110236
                },
                {
                    "duration": 0.11770833333333375,
                    "durationTicks": 113,
                    "midi": 62,
                    "name": "D4",
                    "ticks": 5400,
                    "time": 5.625,
                    "velocity": 0.7559055118110236
                },
                {
                    "duration": 0.11770833333333375,
                    "durationTicks": 113,
                    "midi": 65,
                    "name": "F4",
                    "ticks": 5520,
                    "time": 5.75,
                    "velocity": 0.7559055118110236
                },
                {
                    "duration": 0.11770833333333375,
                    "durationTicks": 113,
                    "midi": 67,
                    "name": "G4",
                    "ticks": 5640,
                    "time": 5.875,
                    "velocity": 0.7559055118110236
                },
                {
                    "duration": 0.11770833333333375,
                    "durationTicks": 113,
                    "midi": 58,
                    "name": "A#3",
                    "ticks": 5760,
                    "time": 6,
                    "velocity": 0.7559055118110236
                },
                {
                    "duration": 0.11770833333333375,
                    "durationTicks": 113,
                    "midi": 58,
                    "name": "A#3",
                    "ticks": 5880,
                    "time": 6.125,
                    "velocity": 0.7559055118110236
                },
                {
                    "duration": 0.12395833333333339,
                    "durationTicks": 119,
                    "midi": 74,
                    "name": "D5",
                    "ticks": 6000,
                    "time": 6.25,
                    "velocity": 0.7559055118110236
                },
                {
                    "duration": 0.12395833333333339,
                    "durationTicks": 119,
                    "midi": 69,
                    "name": "A4",
                    "ticks": 6240,
                    "time": 6.5,
                    "velocity": 0.7559055118110236
                },
                {
                    "duration": 0.12395833333333339,
                    "durationTicks": 119,
                    "midi": 68,
                    "name": "G#4",
                    "ticks": 6600,
                    "time": 6.875,
                    "velocity": 0.7559055118110236
                },
                {
                    "duration": 0.12395833333333339,
                    "durationTicks": 119,
                    "midi": 67,
                    "name": "G4",
                    "ticks": 6840,
                    "time": 7.125,
                    "velocity": 0.7559055118110236
                },
                {
                    "duration": 0.23645833333333321,
                    "durationTicks": 227,
                    "midi": 65,
                    "name": "F4",
                    "ticks": 7080,
                    "time": 7.375,
                    "velocity": 0.7559055118110236
                },
                {
                    "duration": 0.11770833333333375,
                    "durationTicks": 113,
                    "midi": 62,
                    "name": "D4",
                    "ticks": 7320,
                    "time": 7.625,
                    "velocity": 0.7559055118110236
                },
                {
                    "duration": 0.11770833333333375,
                    "durationTicks": 113,
                    "midi": 65,
                    "name": "F4",
                    "ticks": 7440,
                    "time": 7.75,
                    "velocity": 0.7559055118110236
                },
                {
                    "duration": 0.11770833333333375,
                    "durationTicks": 113,
                    "midi": 67,
                    "name": "G4",
                    "ticks": 7560,
                    "time": 7.875,
                    "velocity": 0.7559055118110236
                },
                {
                    "duration": 0.11770833333333286,
                    "durationTicks": 113,
                    "midi": 62,
                    "name": "D4",
                    "ticks": 7680,
                    "time": 8,
                    "velocity": 0.7559055118110236
                },
                {
                    "duration": 0.11770833333333286,
                    "durationTicks": 113,
                    "midi": 62,
                    "name": "D4",
                    "ticks": 7800,
                    "time": 8.125,
                    "velocity": 0.7559055118110236
                },
                {
                    "duration": 0.1239583333333325,
                    "durationTicks": 119,
                    "midi": 74,
                    "name": "D5",
                    "ticks": 7920,
                    "time": 8.25,
                    "velocity": 0.7559055118110236
                },
                {
                    "duration": 0.1239583333333325,
                    "durationTicks": 119,
                    "midi": 69,
                    "name": "A4",
                    "ticks": 8160,
                    "time": 8.5,
                    "velocity": 0.7559055118110236
                },
                {
                    "duration": 0.1239583333333325,
                    "durationTicks": 119,
                    "midi": 68,
                    "name": "G#4",
                    "ticks": 8520,
                    "time": 8.875,
                    "velocity": 0.7559055118110236
                },
                {
                    "duration": 0.1239583333333325,
                    "durationTicks": 119,
                    "midi": 67,
                    "name": "G4",
                    "ticks": 8760,
                    "time": 9.125,
                    "velocity": 0.7559055118110236
                },
                {
                    "duration": 0.23645833333333321,
                    "durationTicks": 227,
                    "midi": 65,
                    "name": "F4",
                    "ticks": 9000,
                    "time": 9.375,
                    "velocity": 0.7559055118110236
                },
                {
                    "duration": 0.11770833333333286,
                    "durationTicks": 113,
                    "midi": 62,
                    "name": "D4",
                    "ticks": 9240,
                    "time": 9.625,
                    "velocity": 0.7559055118110236
                },
                {
                    "duration": 0.11770833333333286,
                    "durationTicks": 113,
                    "midi": 65,
                    "name": "F4",
                    "ticks": 9360,
                    "time": 9.75,
                    "velocity": 0.7559055118110236
                },
                {
                    "duration": 0.11770833333333286,
                    "durationTicks": 113,
                    "midi": 67,
                    "name": "G4",
                    "ticks": 9480,
                    "time": 9.875,
                    "velocity": 0.7559055118110236
                },
                {
                    "duration": 0.11770833333333286,
                    "durationTicks": 113,
                    "midi": 60,
                    "name": "C4",
                    "ticks": 9600,
                    "time": 10,
                    "velocity": 0.7559055118110236
                },
                {
                    "duration": 0.11770833333333286,
                    "durationTicks": 113,
                    "midi": 60,
                    "name": "C4",
                    "ticks": 9720,
                    "time": 10.125,
                    "velocity": 0.7559055118110236
                },
                {
                    "duration": 0.1239583333333325,
                    "durationTicks": 119,
                    "midi": 74,
                    "name": "D5",
                    "ticks": 9840,
                    "time": 10.25,
                    "velocity": 0.7559055118110236
                },
                {
                    "duration": 0.1239583333333325,
                    "durationTicks": 119,
                    "midi": 69,
                    "name": "A4",
                    "ticks": 10080,
                    "time": 10.5,
                    "velocity": 0.7559055118110236
                },
                {
                    "duration": 0.1239583333333325,
                    "durationTicks": 119,
                    "midi": 68,
                    "name": "G#4",
                    "ticks": 10440,
                    "time": 10.875,
                    "velocity": 0.7559055118110236
                },
                {
                    "duration": 0.1239583333333325,
                    "durationTicks": 119,
                    "midi": 67,
                    "name": "G4",
                    "ticks": 10680,
                    "time": 11.125,
                    "velocity": 0.7559055118110236
                },
                {
                    "duration": 0.23645833333333321,
                    "durationTicks": 227,
                    "midi": 65,
                    "name": "F4",
                    "ticks": 10920,
                    "time": 11.375,
                    "velocity": 0.7559055118110236
                },
                {
                    "duration": 0.11770833333333286,
                    "durationTicks": 113,
                    "midi": 62,
                    "name": "D4",
                    "ticks": 11160,
                    "time": 11.625,
                    "velocity": 0.7559055118110236
                },
                {
                    "duration": 0.11770833333333286,
                    "durationTicks": 113,
                    "midi": 65,
                    "name": "F4",
                    "ticks": 11280,
                    "time": 11.75,
                    "velocity": 0.7559055118110236
                },
                {
                    "duration": 0.11770833333333286,
                    "durationTicks": 113,
                    "midi": 67,
                    "name": "G4",
                    "ticks": 11400,
                    "time": 11.875,
                    "velocity": 0.7559055118110236
                },
                {
                    "duration": 0.11770833333333286,
                    "durationTicks": 113,
                    "midi": 59,
                    "name": "B3",
                    "ticks": 11520,
                    "time": 12,
                    "velocity": 0.7559055118110236
                },
                {
                    "duration": 0.11770833333333286,
                    "durationTicks": 113,
                    "midi": 59,
                    "name": "B3",
                    "ticks": 11640,
                    "time": 12.125,
                    "velocity": 0.7559055118110236
                },
                {
                    "duration": 0.1239583333333325,
                    "durationTicks": 119,
                    "midi": 74,
                    "name": "D5",
                    "ticks": 11760,
                    "time": 12.25,
                    "velocity": 0.7559055118110236
                },
                {
                    "duration": 0.1239583333333325,
                    "durationTicks": 119,
                    "midi": 69,
                    "name": "A4",
                    "ticks": 12000,
                    "time": 12.5,
                    "velocity": 0.7559055118110236
                },
                {
                    "duration": 0.1239583333333325,
                    "durationTicks": 119,
                    "midi": 68,
                    "name": "G#4",
                    "ticks": 12360,
                    "time": 12.875,
                    "velocity": 0.7559055118110236
                },
                {
                    "duration": 0.1239583333333325,
                    "durationTicks": 119,
                    "midi": 67,
                    "name": "G4",
                    "ticks": 12600,
                    "time": 13.125,
                    "velocity": 0.7559055118110236
                },
                {
                    "duration": 0.23645833333333321,
                    "durationTicks": 227,
                    "midi": 65,
                    "name": "F4",
                    "ticks": 12840,
                    "time": 13.375,
                    "velocity": 0.7559055118110236
                },
                {
                    "duration": 0.11770833333333286,
                    "durationTicks": 113,
                    "midi": 62,
                    "name": "D4",
                    "ticks": 13080,
                    "time": 13.625,
                    "velocity": 0.7559055118110236
                },
                {
                    "duration": 0.11770833333333286,
                    "durationTicks": 113,
                    "midi": 65,
                    "name": "F4",
                    "ticks": 13200,
                    "time": 13.75,
                    "velocity": 0.7559055118110236
                },
                {
                    "duration": 0.11770833333333286,
                    "durationTicks": 113,
                    "midi": 67,
                    "name": "G4",
                    "ticks": 13320,
                    "time": 13.875,
                    "velocity": 0.7559055118110236
                },
                {
                    "duration": 0.11770833333333286,
                    "durationTicks": 113,
                    "midi": 58,
                    "name": "A#3",
                    "ticks": 13440,
                    "time": 14,
                    "velocity": 0.7559055118110236
                },
                {
                    "duration": 0.11770833333333286,
                    "durationTicks": 113,
                    "midi": 58,
                    "name": "A#3",
                    "ticks": 13560,
                    "time": 14.125,
                    "velocity": 0.7559055118110236
                },
                {
                    "duration": 0.1239583333333325,
                    "durationTicks": 119,
                    "midi": 74,
                    "name": "D5",
                    "ticks": 13680,
                    "time": 14.25,
                    "velocity": 0.7559055118110236
                },
                {
                    "duration": 0.1239583333333325,
                    "durationTicks": 119,
                    "midi": 69,
                    "name": "A4",
                    "ticks": 13920,
                    "time": 14.5,
                    "velocity": 0.7559055118110236
                },
                {
                    "duration": 0.1239583333333325,
                    "durationTicks": 119,
                    "midi": 68,
                    "name": "G#4",
                    "ticks": 14280,
                    "time": 14.875,
                    "velocity": 0.7559055118110236
                },
                {
                    "duration": 0.1239583333333325,
                    "durationTicks": 119,
                    "midi": 67,
                    "name": "G4",
                    "ticks": 14520,
                    "time": 15.125,
                    "velocity": 0.7559055118110236
                },
                {
                    "duration": 0.23645833333333321,
                    "durationTicks": 227,
                    "midi": 65,
                    "name": "F4",
                    "ticks": 14760,
                    "time": 15.375,
                    "velocity": 0.7559055118110236
                },
                {
                    "duration": 0.11770833333333286,
                    "durationTicks": 113,
                    "midi": 62,
                    "name": "D4",
                    "ticks": 15000,
                    "time": 15.625,
                    "velocity": 0.7559055118110236
                },
                {
                    "duration": 0.11770833333333286,
                    "durationTicks": 113,
                    "midi": 65,
                    "name": "F4",
                    "ticks": 15120,
                    "time": 15.75,
                    "velocity": 0.7559055118110236
                },
                {
                    "duration": 0.11770833333333286,
                    "durationTicks": 113,
                    "midi": 67,
                    "name": "G4",
                    "ticks": 15240,
                    "time": 15.875,
                    "velocity": 0.7559055118110236
                },
                {
                    "duration": 0.11770833333333286,
                    "durationTicks": 113,
                    "midi": 62,
                    "name": "D4",
                    "ticks": 15360,
                    "time": 16,
                    "velocity": 0.9921259842519685
                },
                {
                    "duration": 0.11770833333333286,
                    "durationTicks": 113,
                    "midi": 74,
                    "name": "D5",
                    "ticks": 15360,
                    "time": 16,
                    "velocity": 0.9921259842519685
                },
                {
                    "duration": 0.11770833333333286,
                    "durationTicks": 113,
                    "midi": 62,
                    "name": "D4",
                    "ticks": 15480,
                    "time": 16.125,
                    "velocity": 0.9921259842519685
                },
                {
                    "duration": 0.11770833333333286,
                    "durationTicks": 113,
                    "midi": 74,
                    "name": "D5",
                    "ticks": 15480,
                    "time": 16.125,
                    "velocity": 0.9921259842519685
                },
                {
                    "duration": 0.12395833333333428,
                    "durationTicks": 119,
                    "midi": 74,
                    "name": "D5",
                    "ticks": 15600,
                    "time": 16.25,
                    "velocity": 0.9921259842519685
                },
                {
                    "duration": 0.12395833333333428,
                    "durationTicks": 119,
                    "midi": 86,
                    "name": "D6",
                    "ticks": 15600,
                    "time": 16.25,
                    "velocity": 0.9921259842519685
                },
                {
                    "duration": 0.12395833333333428,
                    "durationTicks": 119,
                    "midi": 69,
                    "name": "A4",
                    "ticks": 15840,
                    "time": 16.5,
                    "velocity": 0.9921259842519685
                },
                {
                    "duration": 0.12395833333333428,
                    "durationTicks": 119,
                    "midi": 81,
                    "name": "A5",
                    "ticks": 15840,
                    "time": 16.5,
                    "velocity": 0.9921259842519685
                },
                {
                    "duration": 0.12395833333333428,
                    "durationTicks": 119,
                    "midi": 68,
                    "name": "G#4",
                    "ticks": 16200,
                    "time": 16.875,
                    "velocity": 0.9921259842519685
                },
                {
                    "duration": 0.12395833333333428,
                    "durationTicks": 119,
                    "midi": 80,
                    "name": "G#5",
                    "ticks": 16200,
                    "time": 16.875,
                    "velocity": 0.9921259842519685
                },
                {
                    "duration": 0.12395833333333428,
                    "durationTicks": 119,
                    "midi": 67,
                    "name": "G4",
                    "ticks": 16440,
                    "time": 17.125,
                    "velocity": 0.9921259842519685
                },
                {
                    "duration": 0.12395833333333428,
                    "durationTicks": 119,
                    "midi": 79,
                    "name": "G5",
                    "ticks": 16440,
                    "time": 17.125,
                    "velocity": 0.9921259842519685
                },
                {
                    "duration": 0.236458333333335,
                    "durationTicks": 227,
                    "midi": 65,
                    "name": "F4",
                    "ticks": 16680,
                    "time": 17.375,
                    "velocity": 0.9921259842519685
                },
                {
                    "duration": 0.236458333333335,
                    "durationTicks": 227,
                    "midi": 77,
                    "name": "F5",
                    "ticks": 16680,
                    "time": 17.375,
                    "velocity": 0.9921259842519685
                },
                {
                    "duration": 0.11770833333333286,
                    "durationTicks": 113,
                    "midi": 62,
                    "name": "D4",
                    "ticks": 16920,
                    "time": 17.625,
                    "velocity": 0.9921259842519685
                },
                {
                    "duration": 0.11770833333333286,
                    "durationTicks": 113,
                    "midi": 74,
                    "name": "D5",
                    "ticks": 16920,
                    "time": 17.625,
                    "velocity": 0.9921259842519685
                },
                {
                    "duration": 0.11770833333333286,
                    "durationTicks": 113,
                    "midi": 65,
                    "name": "F4",
                    "ticks": 17040,
                    "time": 17.75,
                    "velocity": 0.9921259842519685
                },
                {
                    "duration": 0.11770833333333286,
                    "durationTicks": 113,
                    "midi": 77,
                    "name": "F5",
                    "ticks": 17040,
                    "time": 17.75,
                    "velocity": 0.9921259842519685
                },
                {
                    "duration": 0.11770833333333286,
                    "durationTicks": 113,
                    "midi": 67,
                    "name": "G4",
                    "ticks": 17160,
                    "time": 17.875,
                    "velocity": 0.9921259842519685
                },
                {
                    "duration": 0.11770833333333286,
                    "durationTicks": 113,
                    "midi": 79,
                    "name": "G5",
                    "ticks": 17160,
                    "time": 17.875,
                    "velocity": 0.9921259842519685
                },
                {
                    "duration": 0.11770833333333286,
                    "durationTicks": 113,
                    "midi": 60,
                    "name": "C4",
                    "ticks": 17280,
                    "time": 18,
                    "velocity": 0.9921259842519685
                },
                {
                    "duration": 0.11770833333333286,
                    "durationTicks": 113,
                    "midi": 72,
                    "name": "C5",
                    "ticks": 17280,
                    "time": 18,
                    "velocity": 0.9921259842519685
                },
                {
                    "duration": 0.11770833333333286,
                    "durationTicks": 113,
                    "midi": 60,
                    "name": "C4",
                    "ticks": 17400,
                    "time": 18.125,
                    "velocity": 0.9921259842519685
                },
                {
                    "duration": 0.11770833333333286,
                    "durationTicks": 113,
                    "midi": 72,
                    "name": "C5",
                    "ticks": 17400,
                    "time": 18.125,
                    "velocity": 0.9921259842519685
                },
                {
                    "duration": 0.12395833333333428,
                    "durationTicks": 119,
                    "midi": 74,
                    "name": "D5",
                    "ticks": 17520,
                    "time": 18.25,
                    "velocity": 0.9921259842519685
                },
                {
                    "duration": 0.12395833333333428,
                    "durationTicks": 119,
                    "midi": 86,
                    "name": "D6",
                    "ticks": 17520,
                    "time": 18.25,
                    "velocity": 0.9921259842519685
                },
                {
                    "duration": 0.12395833333333428,
                    "durationTicks": 119,
                    "midi": 69,
                    "name": "A4",
                    "ticks": 17760,
                    "time": 18.5,
                    "velocity": 0.9921259842519685
                },
                {
                    "duration": 0.12395833333333428,
                    "durationTicks": 119,
                    "midi": 81,
                    "name": "A5",
                    "ticks": 17760,
                    "time": 18.5,
                    "velocity": 0.9921259842519685
                },
                {
                    "duration": 0.12395833333333428,
                    "durationTicks": 119,
                    "midi": 68,
                    "name": "G#4",
                    "ticks": 18120,
                    "time": 18.875,
                    "velocity": 0.9921259842519685
                },
                {
                    "duration": 0.12395833333333428,
                    "durationTicks": 119,
                    "midi": 80,
                    "name": "G#5",
                    "ticks": 18120,
                    "time": 18.875,
                    "velocity": 0.9921259842519685
                },
                {
                    "duration": 0.12395833333333428,
                    "durationTicks": 119,
                    "midi": 67,
                    "name": "G4",
                    "ticks": 18360,
                    "time": 19.125,
                    "velocity": 0.9921259842519685
                },
                {
                    "duration": 0.12395833333333428,
                    "durationTicks": 119,
                    "midi": 79,
                    "name": "G5",
                    "ticks": 18360,
                    "time": 19.125,
                    "velocity": 0.9921259842519685
                },
                {
                    "duration": 0.236458333333335,
                    "durationTicks": 227,
                    "midi": 65,
                    "name": "F4",
                    "ticks": 18600,
                    "time": 19.375,
                    "velocity": 0.9921259842519685
                },
                {
                    "duration": 0.236458333333335,
                    "durationTicks": 227,
                    "midi": 77,
                    "name": "F5",
                    "ticks": 18600,
                    "time": 19.375,
                    "velocity": 0.9921259842519685
                },
                {
                    "duration": 0.11770833333333286,
                    "durationTicks": 113,
                    "midi": 62,
                    "name": "D4",
                    "ticks": 18840,
                    "time": 19.625,
                    "velocity": 0.9921259842519685
                },
                {
                    "duration": 0.11770833333333286,
                    "durationTicks": 113,
                    "midi": 74,
                    "name": "D5",
                    "ticks": 18840,
                    "time": 19.625,
                    "velocity": 0.9921259842519685
                },
                {
                    "duration": 0.11770833333333286,
                    "durationTicks": 113,
                    "midi": 65,
                    "name": "F4",
                    "ticks": 18960,
                    "time": 19.75,
                    "velocity": 0.9921259842519685
                },
                {
                    "duration": 0.11770833333333286,
                    "durationTicks": 113,
                    "midi": 77,
                    "name": "F5",
                    "ticks": 18960,
                    "time": 19.75,
                    "velocity": 0.9921259842519685
                },
                {
                    "duration": 0.11770833333333286,
                    "durationTicks": 113,
                    "midi": 67,
                    "name": "G4",
                    "ticks": 19080,
                    "time": 19.875,
                    "velocity": 0.9921259842519685
                },
                {
                    "duration": 0.11770833333333286,
                    "durationTicks": 113,
                    "midi": 79,
                    "name": "G5",
                    "ticks": 19080,
                    "time": 19.875,
                    "velocity": 0.9921259842519685
                },
                {
                    "duration": 0.11770833333333286,
                    "durationTicks": 113,
                    "midi": 59,
                    "name": "B3",
                    "ticks": 19200,
                    "time": 20,
                    "velocity": 0.9921259842519685
                },
                {
                    "duration": 0.11770833333333286,
                    "durationTicks": 113,
                    "midi": 71,
                    "name": "B4",
                    "ticks": 19200,
                    "time": 20,
                    "velocity": 0.9921259842519685
                },
                {
                    "duration": 0.11770833333333286,
                    "durationTicks": 113,
                    "midi": 59,
                    "name": "B3",
                    "ticks": 19320,
                    "time": 20.125,
                    "velocity": 0.9921259842519685
                },
                {
                    "duration": 0.11770833333333286,
                    "durationTicks": 113,
                    "midi": 71,
                    "name": "B4",
                    "ticks": 19320,
                    "time": 20.125,
                    "velocity": 0.9921259842519685
                },
                {
                    "duration": 0.12395833333333428,
                    "durationTicks": 119,
                    "midi": 74,
                    "name": "D5",
                    "ticks": 19440,
                    "time": 20.25,
                    "velocity": 0.9921259842519685
                },
                {
                    "duration": 0.12395833333333428,
                    "durationTicks": 119,
                    "midi": 86,
                    "name": "D6",
                    "ticks": 19440,
                    "time": 20.25,
                    "velocity": 0.9921259842519685
                },
                {
                    "duration": 0.12395833333333428,
                    "durationTicks": 119,
                    "midi": 69,
                    "name": "A4",
                    "ticks": 19680,
                    "time": 20.5,
                    "velocity": 0.9921259842519685
                },
                {
                    "duration": 0.12395833333333428,
                    "durationTicks": 119,
                    "midi": 81,
                    "name": "A5",
                    "ticks": 19680,
                    "time": 20.5,
                    "velocity": 0.9921259842519685
                },
                {
                    "duration": 0.12395833333333428,
                    "durationTicks": 119,
                    "midi": 68,
                    "name": "G#4",
                    "ticks": 20040,
                    "time": 20.875,
                    "velocity": 0.9921259842519685
                },
                {
                    "duration": 0.12395833333333428,
                    "durationTicks": 119,
                    "midi": 80,
                    "name": "G#5",
                    "ticks": 20040,
                    "time": 20.875,
                    "velocity": 0.9921259842519685
                },
                {
                    "duration": 0.12395833333333428,
                    "durationTicks": 119,
                    "midi": 67,
                    "name": "G4",
                    "ticks": 20280,
                    "time": 21.125,
                    "velocity": 0.9921259842519685
                },
                {
                    "duration": 0.12395833333333428,
                    "durationTicks": 119,
                    "midi": 79,
                    "name": "G5",
                    "ticks": 20280,
                    "time": 21.125,
                    "velocity": 0.9921259842519685
                },
                {
                    "duration": 0.236458333333335,
                    "durationTicks": 227,
                    "midi": 65,
                    "name": "F4",
                    "ticks": 20520,
                    "time": 21.375,
                    "velocity": 0.9921259842519685
                },
                {
                    "duration": 0.236458333333335,
                    "durationTicks": 227,
                    "midi": 77,
                    "name": "F5",
                    "ticks": 20520,
                    "time": 21.375,
                    "velocity": 0.9921259842519685
                },
                {
                    "duration": 0.11770833333333286,
                    "durationTicks": 113,
                    "midi": 62,
                    "name": "D4",
                    "ticks": 20760,
                    "time": 21.625,
                    "velocity": 0.9921259842519685
                },
                {
                    "duration": 0.11770833333333286,
                    "durationTicks": 113,
                    "midi": 74,
                    "name": "D5",
                    "ticks": 20760,
                    "time": 21.625,
                    "velocity": 0.9921259842519685
                },
                {
                    "duration": 0.11770833333333286,
                    "durationTicks": 113,
                    "midi": 65,
                    "name": "F4",
                    "ticks": 20880,
                    "time": 21.75,
                    "velocity": 0.9921259842519685
                },
                {
                    "duration": 0.11770833333333286,
                    "durationTicks": 113,
                    "midi": 77,
                    "name": "F5",
                    "ticks": 20880,
                    "time": 21.75,
                    "velocity": 0.9921259842519685
                },
                {
                    "duration": 0.11770833333333286,
                    "durationTicks": 113,
                    "midi": 67,
                    "name": "G4",
                    "ticks": 21000,
                    "time": 21.875,
                    "velocity": 0.9921259842519685
                },
                {
                    "duration": 0.11770833333333286,
                    "durationTicks": 113,
                    "midi": 79,
                    "name": "G5",
                    "ticks": 21000,
                    "time": 21.875,
                    "velocity": 0.9921259842519685
                },
                {
                    "duration": 0.11770833333333286,
                    "durationTicks": 113,
                    "midi": 58,
                    "name": "A#3",
                    "ticks": 21120,
                    "time": 22,
                    "velocity": 0.9921259842519685
                },
                {
                    "duration": 0.11770833333333286,
                    "durationTicks": 113,
                    "midi": 70,
                    "name": "A#4",
                    "ticks": 21120,
                    "time": 22,
                    "velocity": 0.9921259842519685
                },
                {
                    "duration": 0.11770833333333286,
                    "durationTicks": 113,
                    "midi": 58,
                    "name": "A#3",
                    "ticks": 21240,
                    "time": 22.125,
                    "velocity": 0.9921259842519685
                },
                {
                    "duration": 0.11770833333333286,
                    "durationTicks": 113,
                    "midi": 70,
                    "name": "A#4",
                    "ticks": 21240,
                    "time": 22.125,
                    "velocity": 0.9921259842519685
                },
                {
                    "duration": 0.12395833333333428,
                    "durationTicks": 119,
                    "midi": 74,
                    "name": "D5",
                    "ticks": 21360,
                    "time": 22.25,
                    "velocity": 0.9921259842519685
                },
                {
                    "duration": 0.12395833333333428,
                    "durationTicks": 119,
                    "midi": 86,
                    "name": "D6",
                    "ticks": 21360,
                    "time": 22.25,
                    "velocity": 0.9921259842519685
                },
                {
                    "duration": 0.12395833333333428,
                    "durationTicks": 119,
                    "midi": 69,
                    "name": "A4",
                    "ticks": 21600,
                    "time": 22.5,
                    "velocity": 0.9921259842519685
                },
                {
                    "duration": 0.12395833333333428,
                    "durationTicks": 119,
                    "midi": 81,
                    "name": "A5",
                    "ticks": 21600,
                    "time": 22.5,
                    "velocity": 0.9921259842519685
                },
                {
                    "duration": 0.12395833333333428,
                    "durationTicks": 119,
                    "midi": 68,
                    "name": "G#4",
                    "ticks": 21960,
                    "time": 22.875,
                    "velocity": 0.9921259842519685
                },
                {
                    "duration": 0.12395833333333428,
                    "durationTicks": 119,
                    "midi": 80,
                    "name": "G#5",
                    "ticks": 21960,
                    "time": 22.875,
                    "velocity": 0.9921259842519685
                },
                {
                    "duration": 0.12395833333333428,
                    "durationTicks": 119,
                    "midi": 67,
                    "name": "G4",
                    "ticks": 22200,
                    "time": 23.125,
                    "velocity": 0.9921259842519685
                },
                {
                    "duration": 0.12395833333333428,
                    "durationTicks": 119,
                    "midi": 79,
                    "name": "G5",
                    "ticks": 22200,
                    "time": 23.125,
                    "velocity": 0.9921259842519685
                },
                {
                    "duration": 0.236458333333335,
                    "durationTicks": 227,
                    "midi": 65,
                    "name": "F4",
                    "ticks": 22440,
                    "time": 23.375,
                    "velocity": 0.9921259842519685
                },
                {
                    "duration": 0.236458333333335,
                    "durationTicks": 227,
                    "midi": 77,
                    "name": "F5",
                    "ticks": 22440,
                    "time": 23.375,
                    "velocity": 0.9921259842519685
                },
                {
                    "duration": 0.11770833333333286,
                    "durationTicks": 113,
                    "midi": 62,
                    "name": "D4",
                    "ticks": 22680,
                    "time": 23.625,
                    "velocity": 0.9921259842519685
                },
                {
                    "duration": 0.11770833333333286,
                    "durationTicks": 113,
                    "midi": 74,
                    "name": "D5",
                    "ticks": 22680,
                    "time": 23.625,
                    "velocity": 0.9921259842519685
                },
                {
                    "duration": 0.11770833333333286,
                    "durationTicks": 113,
                    "midi": 65,
                    "name": "F4",
                    "ticks": 22800,
                    "time": 23.75,
                    "velocity": 0.9921259842519685
                },
                {
                    "duration": 0.11770833333333286,
                    "durationTicks": 113,
                    "midi": 77,
                    "name": "F5",
                    "ticks": 22800,
                    "time": 23.75,
                    "velocity": 0.9921259842519685
                },
                {
                    "duration": 0.11770833333333286,
                    "durationTicks": 113,
                    "midi": 67,
                    "name": "G4",
                    "ticks": 22920,
                    "time": 23.875,
                    "velocity": 0.9921259842519685
                },
                {
                    "duration": 0.11770833333333286,
                    "durationTicks": 113,
                    "midi": 79,
                    "name": "G5",
                    "ticks": 22920,
                    "time": 23.875,
                    "velocity": 0.9921259842519685
                },
                {
                    "duration": 0.11770833333333286,
                    "durationTicks": 113,
                    "midi": 62,
                    "name": "D4",
                    "ticks": 23040,
                    "time": 24,
                    "velocity": 0.9921259842519685
                },
                {
                    "duration": 0.11770833333333286,
                    "durationTicks": 113,
                    "midi": 74,
                    "name": "D5",
                    "ticks": 23040,
                    "time": 24,
                    "velocity": 0.9921259842519685
                },
                {
                    "duration": 0.11770833333333286,
                    "durationTicks": 113,
                    "midi": 62,
                    "name": "D4",
                    "ticks": 23160,
                    "time": 24.125,
                    "velocity": 0.9921259842519685
                },
                {
                    "duration": 0.11770833333333286,
                    "durationTicks": 113,
                    "midi": 74,
                    "name": "D5",
                    "ticks": 23160,
                    "time": 24.125,
                    "velocity": 0.9921259842519685
                },
                {
                    "duration": 0.12395833333333428,
                    "durationTicks": 119,
                    "midi": 74,
                    "name": "D5",
                    "ticks": 23280,
                    "time": 24.25,
                    "velocity": 0.9921259842519685
                },
                {
                    "duration": 0.12395833333333428,
                    "durationTicks": 119,
                    "midi": 86,
                    "name": "D6",
                    "ticks": 23280,
                    "time": 24.25,
                    "velocity": 0.9921259842519685
                },
                {
                    "duration": 0.12395833333333428,
                    "durationTicks": 119,
                    "midi": 69,
                    "name": "A4",
                    "ticks": 23520,
                    "time": 24.5,
                    "velocity": 0.9921259842519685
                },
                {
                    "duration": 0.12395833333333428,
                    "durationTicks": 119,
                    "midi": 81,
                    "name": "A5",
                    "ticks": 23520,
                    "time": 24.5,
                    "velocity": 0.9921259842519685
                },
                {
                    "duration": 0.12395833333333428,
                    "durationTicks": 119,
                    "midi": 68,
                    "name": "G#4",
                    "ticks": 23880,
                    "time": 24.875,
                    "velocity": 0.9921259842519685
                },
                {
                    "duration": 0.12395833333333428,
                    "durationTicks": 119,
                    "midi": 80,
                    "name": "G#5",
                    "ticks": 23880,
                    "time": 24.875,
                    "velocity": 0.9921259842519685
                },
                {
                    "duration": 0.12395833333333428,
                    "durationTicks": 119,
                    "midi": 67,
                    "name": "G4",
                    "ticks": 24120,
                    "time": 25.125,
                    "velocity": 0.9921259842519685
                },
                {
                    "duration": 0.12395833333333428,
                    "durationTicks": 119,
                    "midi": 79,
                    "name": "G5",
                    "ticks": 24120,
                    "time": 25.125,
                    "velocity": 0.9921259842519685
                },
                {
                    "duration": 0.236458333333335,
                    "durationTicks": 227,
                    "midi": 65,
                    "name": "F4",
                    "ticks": 24360,
                    "time": 25.375,
                    "velocity": 0.9921259842519685
                },
                {
                    "duration": 0.236458333333335,
                    "durationTicks": 227,
                    "midi": 77,
                    "name": "F5",
                    "ticks": 24360,
                    "time": 25.375,
                    "velocity": 0.9921259842519685
                },
                {
                    "duration": 0.11770833333333286,
                    "durationTicks": 113,
                    "midi": 62,
                    "name": "D4",
                    "ticks": 24600,
                    "time": 25.625,
                    "velocity": 0.9921259842519685
                },
                {
                    "duration": 0.11770833333333286,
                    "durationTicks": 113,
                    "midi": 74,
                    "name": "D5",
                    "ticks": 24600,
                    "time": 25.625,
                    "velocity": 0.9921259842519685
                },
                {
                    "duration": 0.11770833333333286,
                    "durationTicks": 113,
                    "midi": 65,
                    "name": "F4",
                    "ticks": 24720,
                    "time": 25.75,
                    "velocity": 0.9921259842519685
                },
                {
                    "duration": 0.11770833333333286,
                    "durationTicks": 113,
                    "midi": 77,
                    "name": "F5",
                    "ticks": 24720,
                    "time": 25.75,
                    "velocity": 0.9921259842519685
                },
                {
                    "duration": 0.11770833333333286,
                    "durationTicks": 113,
                    "midi": 67,
                    "name": "G4",
                    "ticks": 24840,
                    "time": 25.875,
                    "velocity": 0.9921259842519685
                },
                {
                    "duration": 0.11770833333333286,
                    "durationTicks": 113,
                    "midi": 79,
                    "name": "G5",
                    "ticks": 24840,
                    "time": 25.875,
                    "velocity": 0.9921259842519685
                },
                {
                    "duration": 0.11770833333333286,
                    "durationTicks": 113,
                    "midi": 60,
                    "name": "C4",
                    "ticks": 24960,
                    "time": 26,
                    "velocity": 0.9921259842519685
                },
                {
                    "duration": 0.11770833333333286,
                    "durationTicks": 113,
                    "midi": 72,
                    "name": "C5",
                    "ticks": 24960,
                    "time": 26,
                    "velocity": 0.9921259842519685
                },
                {
                    "duration": 0.11770833333333286,
                    "durationTicks": 113,
                    "midi": 60,
                    "name": "C4",
                    "ticks": 25080,
                    "time": 26.125,
                    "velocity": 0.9921259842519685
                },
                {
                    "duration": 0.11770833333333286,
                    "durationTicks": 113,
                    "midi": 72,
                    "name": "C5",
                    "ticks": 25080,
                    "time": 26.125,
                    "velocity": 0.9921259842519685
                },
                {
                    "duration": 0.12395833333333428,
                    "durationTicks": 119,
                    "midi": 74,
                    "name": "D5",
                    "ticks": 25200,
                    "time": 26.25,
                    "velocity": 0.9921259842519685
                },
                {
                    "duration": 0.12395833333333428,
                    "durationTicks": 119,
                    "midi": 86,
                    "name": "D6",
                    "ticks": 25200,
                    "time": 26.25,
                    "velocity": 0.9921259842519685
                },
                {
                    "duration": 0.12395833333333428,
                    "durationTicks": 119,
                    "midi": 69,
                    "name": "A4",
                    "ticks": 25440,
                    "time": 26.5,
                    "velocity": 0.9921259842519685
                },
                {
                    "duration": 0.12395833333333428,
                    "durationTicks": 119,
                    "midi": 81,
                    "name": "A5",
                    "ticks": 25440,
                    "time": 26.5,
                    "velocity": 0.9921259842519685
                },
                {
                    "duration": 0.12395833333333428,
                    "durationTicks": 119,
                    "midi": 68,
                    "name": "G#4",
                    "ticks": 25800,
                    "time": 26.875,
                    "velocity": 0.9921259842519685
                },
                {
                    "duration": 0.12395833333333428,
                    "durationTicks": 119,
                    "midi": 80,
                    "name": "G#5",
                    "ticks": 25800,
                    "time": 26.875,
                    "velocity": 0.9921259842519685
                },
                {
                    "duration": 0.12395833333333428,
                    "durationTicks": 119,
                    "midi": 67,
                    "name": "G4",
                    "ticks": 26040,
                    "time": 27.125,
                    "velocity": 0.9921259842519685
                },
                {
                    "duration": 0.12395833333333428,
                    "durationTicks": 119,
                    "midi": 79,
                    "name": "G5",
                    "ticks": 26040,
                    "time": 27.125,
                    "velocity": 0.9921259842519685
                },
                {
                    "duration": 0.236458333333335,
                    "durationTicks": 227,
                    "midi": 65,
                    "name": "F4",
                    "ticks": 26280,
                    "time": 27.375,
                    "velocity": 0.9921259842519685
                },
                {
                    "duration": 0.236458333333335,
                    "durationTicks": 227,
                    "midi": 77,
                    "name": "F5",
                    "ticks": 26280,
                    "time": 27.375,
                    "velocity": 0.9921259842519685
                },
                {
                    "duration": 0.11770833333333286,
                    "durationTicks": 113,
                    "midi": 62,
                    "name": "D4",
                    "ticks": 26520,
                    "time": 27.625,
                    "velocity": 0.9921259842519685
                },
                {
                    "duration": 0.11770833333333286,
                    "durationTicks": 113,
                    "midi": 74,
                    "name": "D5",
                    "ticks": 26520,
                    "time": 27.625,
                    "velocity": 0.9921259842519685
                },
                {
                    "duration": 0.11770833333333286,
                    "durationTicks": 113,
                    "midi": 65,
                    "name": "F4",
                    "ticks": 26640,
                    "time": 27.75,
                    "velocity": 0.9921259842519685
                },
                {
                    "duration": 0.11770833333333286,
                    "durationTicks": 113,
                    "midi": 77,
                    "name": "F5",
                    "ticks": 26640,
                    "time": 27.75,
                    "velocity": 0.9921259842519685
                },
                {
                    "duration": 0.11770833333333286,
                    "durationTicks": 113,
                    "midi": 67,
                    "name": "G4",
                    "ticks": 26760,
                    "time": 27.875,
                    "velocity": 0.9921259842519685
                },
                {
                    "duration": 0.11770833333333286,
                    "durationTicks": 113,
                    "midi": 79,
                    "name": "G5",
                    "ticks": 26760,
                    "time": 27.875,
                    "velocity": 0.9921259842519685
                },
                {
                    "duration": 0.11770833333333286,
                    "durationTicks": 113,
                    "midi": 59,
                    "name": "B3",
                    "ticks": 26880,
                    "time": 28,
                    "velocity": 0.9921259842519685
                },
                {
                    "duration": 0.11770833333333286,
                    "durationTicks": 113,
                    "midi": 71,
                    "name": "B4",
                    "ticks": 26880,
                    "time": 28,
                    "velocity": 0.9921259842519685
                },
                {
                    "duration": 0.11770833333333286,
                    "durationTicks": 113,
                    "midi": 59,
                    "name": "B3",
                    "ticks": 27000,
                    "time": 28.125,
                    "velocity": 0.9921259842519685
                },
                {
                    "duration": 0.11770833333333286,
                    "durationTicks": 113,
                    "midi": 71,
                    "name": "B4",
                    "ticks": 27000,
                    "time": 28.125,
                    "velocity": 0.9921259842519685
                },
                {
                    "duration": 0.12395833333333428,
                    "durationTicks": 119,
                    "midi": 74,
                    "name": "D5",
                    "ticks": 27120,
                    "time": 28.25,
                    "velocity": 0.9921259842519685
                },
                {
                    "duration": 0.12395833333333428,
                    "durationTicks": 119,
                    "midi": 86,
                    "name": "D6",
                    "ticks": 27120,
                    "time": 28.25,
                    "velocity": 0.9921259842519685
                },
                {
                    "duration": 0.12395833333333428,
                    "durationTicks": 119,
                    "midi": 69,
                    "name": "A4",
                    "ticks": 27360,
                    "time": 28.5,
                    "velocity": 0.9921259842519685
                },
                {
                    "duration": 0.12395833333333428,
                    "durationTicks": 119,
                    "midi": 81,
                    "name": "A5",
                    "ticks": 27360,
                    "time": 28.5,
                    "velocity": 0.9921259842519685
                },
                {
                    "duration": 0.12395833333333428,
                    "durationTicks": 119,
                    "midi": 68,
                    "name": "G#4",
                    "ticks": 27720,
                    "time": 28.875,
                    "velocity": 0.9921259842519685
                },
                {
                    "duration": 0.12395833333333428,
                    "durationTicks": 119,
                    "midi": 80,
                    "name": "G#5",
                    "ticks": 27720,
                    "time": 28.875,
                    "velocity": 0.9921259842519685
                },
                {
                    "duration": 0.12395833333333428,
                    "durationTicks": 119,
                    "midi": 67,
                    "name": "G4",
                    "ticks": 27960,
                    "time": 29.125,
                    "velocity": 0.9921259842519685
                },
                {
                    "duration": 0.12395833333333428,
                    "durationTicks": 119,
                    "midi": 79,
                    "name": "G5",
                    "ticks": 27960,
                    "time": 29.125,
                    "velocity": 0.9921259842519685
                },
                {
                    "duration": 0.236458333333335,
                    "durationTicks": 227,
                    "midi": 65,
                    "name": "F4",
                    "ticks": 28200,
                    "time": 29.375,
                    "velocity": 0.9921259842519685
                },
                {
                    "duration": 0.236458333333335,
                    "durationTicks": 227,
                    "midi": 77,
                    "name": "F5",
                    "ticks": 28200,
                    "time": 29.375,
                    "velocity": 0.9921259842519685
                },
                {
                    "duration": 0.11770833333333286,
                    "durationTicks": 113,
                    "midi": 62,
                    "name": "D4",
                    "ticks": 28440,
                    "time": 29.625,
                    "velocity": 0.9921259842519685
                },
                {
                    "duration": 0.11770833333333286,
                    "durationTicks": 113,
                    "midi": 74,
                    "name": "D5",
                    "ticks": 28440,
                    "time": 29.625,
                    "velocity": 0.9921259842519685
                },
                {
                    "duration": 0.11770833333333286,
                    "durationTicks": 113,
                    "midi": 65,
                    "name": "F4",
                    "ticks": 28560,
                    "time": 29.75,
                    "velocity": 0.9921259842519685
                },
                {
                    "duration": 0.11770833333333286,
                    "durationTicks": 113,
                    "midi": 77,
                    "name": "F5",
                    "ticks": 28560,
                    "time": 29.75,
                    "velocity": 0.9921259842519685
                },
                {
                    "duration": 0.11770833333333286,
                    "durationTicks": 113,
                    "midi": 67,
                    "name": "G4",
                    "ticks": 28680,
                    "time": 29.875,
                    "velocity": 0.9921259842519685
                },
                {
                    "duration": 0.11770833333333286,
                    "durationTicks": 113,
                    "midi": 79,
                    "name": "G5",
                    "ticks": 28680,
                    "time": 29.875,
                    "velocity": 0.9921259842519685
                },
                {
                    "duration": 0.11770833333333286,
                    "durationTicks": 113,
                    "midi": 58,
                    "name": "A#3",
                    "ticks": 28800,
                    "time": 30,
                    "velocity": 0.9921259842519685
                },
                {
                    "duration": 0.11770833333333286,
                    "durationTicks": 113,
                    "midi": 70,
                    "name": "A#4",
                    "ticks": 28800,
                    "time": 30,
                    "velocity": 0.9921259842519685
                },
                {
                    "duration": 0.11770833333333286,
                    "durationTicks": 113,
                    "midi": 58,
                    "name": "A#3",
                    "ticks": 28920,
                    "time": 30.125,
                    "velocity": 0.9921259842519685
                },
                {
                    "duration": 0.11770833333333286,
                    "durationTicks": 113,
                    "midi": 70,
                    "name": "A#4",
                    "ticks": 28920,
                    "time": 30.125,
                    "velocity": 0.9921259842519685
                },
                {
                    "duration": 0.12395833333333428,
                    "durationTicks": 119,
                    "midi": 74,
                    "name": "D5",
                    "ticks": 29040,
                    "time": 30.25,
                    "velocity": 0.9921259842519685
                },
                {
                    "duration": 0.12395833333333428,
                    "durationTicks": 119,
                    "midi": 86,
                    "name": "D6",
                    "ticks": 29040,
                    "time": 30.25,
                    "velocity": 0.9921259842519685
                },
                {
                    "duration": 0.12395833333333428,
                    "durationTicks": 119,
                    "midi": 69,
                    "name": "A4",
                    "ticks": 29280,
                    "time": 30.5,
                    "velocity": 0.9921259842519685
                },
                {
                    "duration": 0.12395833333333428,
                    "durationTicks": 119,
                    "midi": 81,
                    "name": "A5",
                    "ticks": 29280,
                    "time": 30.5,
                    "velocity": 0.9921259842519685
                },
                {
                    "duration": 0.12395833333333428,
                    "durationTicks": 119,
                    "midi": 68,
                    "name": "G#4",
                    "ticks": 29640,
                    "time": 30.875,
                    "velocity": 0.9921259842519685
                },
                {
                    "duration": 0.12395833333333428,
                    "durationTicks": 119,
                    "midi": 80,
                    "name": "G#5",
                    "ticks": 29640,
                    "time": 30.875,
                    "velocity": 0.9921259842519685
                },
                {
                    "duration": 0.12395833333333428,
                    "durationTicks": 119,
                    "midi": 67,
                    "name": "G4",
                    "ticks": 29880,
                    "time": 31.125,
                    "velocity": 0.9921259842519685
                },
                {
                    "duration": 0.12395833333333428,
                    "durationTicks": 119,
                    "midi": 79,
                    "name": "G5",
                    "ticks": 29880,
                    "time": 31.125,
                    "velocity": 0.9921259842519685
                },
                {
                    "duration": 0.236458333333335,
                    "durationTicks": 227,
                    "midi": 65,
                    "name": "F4",
                    "ticks": 30120,
                    "time": 31.375,
                    "velocity": 0.9921259842519685
                },
                {
                    "duration": 0.236458333333335,
                    "durationTicks": 227,
                    "midi": 77,
                    "name": "F5",
                    "ticks": 30120,
                    "time": 31.375,
                    "velocity": 0.9921259842519685
                },
                {
                    "duration": 0.11770833333333286,
                    "durationTicks": 113,
                    "midi": 62,
                    "name": "D4",
                    "ticks": 30360,
                    "time": 31.625,
                    "velocity": 0.9921259842519685
                },
                {
                    "duration": 0.11770833333333286,
                    "durationTicks": 113,
                    "midi": 74,
                    "name": "D5",
                    "ticks": 30360,
                    "time": 31.625,
                    "velocity": 0.9921259842519685
                },
                {
                    "duration": 0.236458333333335,
                    "durationTicks": 227,
                    "midi": 72,
                    "name": "C5",
                    "ticks": 30480,
                    "time": 31.75,
                    "velocity": 0.9921259842519685
                },
                {
                    "duration": 0.06354166666666572,
                    "durationTicks": 61,
                    "midi": 76,
                    "name": "E5",
                    "ticks": 30720,
                    "time": 32,
                    "velocity": 0.9921259842519685
                },
                {
                    "duration": 0.17395833333333854,
                    "durationTicks": 167,
                    "midi": 77,
                    "name": "F5",
                    "ticks": 30782,
                    "time": 32.06458333333333,
                    "velocity": 0.9921259842519685
                },
                {
                    "duration": 0.11770833333333286,
                    "durationTicks": 113,
                    "midi": 77,
                    "name": "F5",
                    "ticks": 30960,
                    "time": 32.25,
                    "velocity": 0.9921259842519685
                },
                {
                    "duration": 0.12395833333333428,
                    "durationTicks": 119,
                    "midi": 77,
                    "name": "F5",
                    "ticks": 31080,
                    "time": 32.375,
                    "velocity": 0.9921259842519685
                },
                {
                    "duration": 0.12395833333333428,
                    "durationTicks": 119,
                    "midi": 77,
                    "name": "F5",
                    "ticks": 31320,
                    "time": 32.625,
                    "velocity": 0.9921259842519685
                },
                {
                    "duration": 0.06354166666666572,
                    "durationTicks": 61,
                    "midi": 76,
                    "name": "E5",
                    "ticks": 31560,
                    "time": 32.875,
                    "velocity": 0.9921259842519685
                },
                {
                    "duration": 0.18333333333333712,
                    "durationTicks": 176,
                    "midi": 77,
                    "name": "F5",
                    "ticks": 31622,
                    "time": 32.93958333333333,
                    "velocity": 0.9921259842519685
                },
                {
                    "duration": 0.12395833333333428,
                    "durationTicks": 119,
                    "midi": 74,
                    "name": "D5",
                    "ticks": 31800,
                    "time": 33.125,
                    "velocity": 0.9921259842519685
                },
                {
                    "duration": 0.5927083333333343,
                    "durationTicks": 569,
                    "midi": 74,
                    "name": "D5",
                    "ticks": 32040,
                    "time": 33.375,
                    "velocity": 0.9921259842519685
                },
                {
                    "duration": 0.23645833333333144,
                    "durationTicks": 227,
                    "midi": 77,
                    "name": "F5",
                    "ticks": 32640,
                    "time": 34,
                    "velocity": 0.9921259842519685
                },
                {
                    "duration": 0.11770833333333286,
                    "durationTicks": 113,
                    "midi": 77,
                    "name": "F5",
                    "ticks": 32880,
                    "time": 34.25,
                    "velocity": 0.9921259842519685
                },
                {
                    "duration": 0.12395833333333428,
                    "durationTicks": 119,
                    "midi": 77,
                    "name": "F5",
                    "ticks": 33000,
                    "time": 34.375,
                    "velocity": 0.9921259842519685
                },
                {
                    "duration": 0.12395833333333428,
                    "durationTicks": 119,
                    "midi": 79,
                    "name": "G5",
                    "ticks": 33240,
                    "time": 34.625,
                    "velocity": 0.9921259842519685
                },
                {
                    "duration": 0.23645833333333144,
                    "durationTicks": 227,
                    "midi": 80,
                    "name": "G#5",
                    "ticks": 33480,
                    "time": 34.875,
                    "velocity": 0.9921259842519685
                },
                {
                    "duration": 0.05833333333333002,
                    "durationTicks": 56,
                    "midi": 79,
                    "name": "G5",
                    "ticks": 33720,
                    "time": 35.125,
                    "velocity": 0.9921259842519685
                },
                {
                    "duration": 0.05833333333333002,
                    "durationTicks": 56,
                    "midi": 80,
                    "name": "G#5",
                    "ticks": 33780,
                    "time": 35.1875,
                    "velocity": 0.9921259842519685
                },
                {
                    "duration": 0.06145833333333428,
                    "durationTicks": 59,
                    "midi": 79,
                    "name": "G5",
                    "ticks": 33840,
                    "time": 35.25,
                    "velocity": 0.9921259842519685
                },
                {
                    "duration": 0.11770833333333286,
                    "durationTicks": 113,
                    "midi": 74,
                    "name": "D5",
                    "ticks": 33960,
                    "time": 35.375,
                    "velocity": 0.9921259842519685
                },
                {
                    "duration": 0.11770833333333286,
                    "durationTicks": 113,
                    "midi": 77,
                    "name": "F5",
                    "ticks": 34080,
                    "time": 35.5,
                    "velocity": 0.9921259842519685
                },
                {
                    "duration": 0.35520833333333,
                    "durationTicks": 341,
                    "midi": 79,
                    "name": "G5",
                    "ticks": 34200,
                    "time": 35.625,
                    "velocity": 0.9921259842519685
                },
                {
                    "duration": 0.23645833333333144,
                    "durationTicks": 227,
                    "midi": 77,
                    "name": "F5",
                    "ticks": 34560,
                    "time": 36,
                    "velocity": 0.9921259842519685
                },
                {
                    "duration": 0.11770833333333286,
                    "durationTicks": 113,
                    "midi": 77,
                    "name": "F5",
                    "ticks": 34800,
                    "time": 36.25,
                    "velocity": 0.9921259842519685
                },
                {
                    "duration": 0.12395833333333428,
                    "durationTicks": 119,
                    "midi": 77,
                    "name": "F5",
                    "ticks": 34920,
                    "time": 36.375,
                    "velocity": 0.9921259842519685
                },
                {
                    "duration": 0.12395833333333428,
                    "durationTicks": 119,
                    "midi": 79,
                    "name": "G5",
                    "ticks": 35160,
                    "time": 36.625,
                    "velocity": 0.9921259842519685
                },
                {
                    "duration": 0.12395833333333428,
                    "durationTicks": 119,
                    "midi": 80,
                    "name": "G#5",
                    "ticks": 35400,
                    "time": 36.875,
                    "velocity": 0.9921259842519685
                },
                {
                    "duration": 0.23645833333333144,
                    "durationTicks": 227,
                    "midi": 81,
                    "name": "A5",
                    "ticks": 35640,
                    "time": 37.125,
                    "velocity": 0.9921259842519685
                },
                {
                    "duration": 0.12395833333333428,
                    "durationTicks": 119,
                    "midi": 84,
                    "name": "C6",
                    "ticks": 35880,
                    "time": 37.375,
                    "velocity": 0.9921259842519685
                },
                {
                    "duration": 0.35520833333333,
                    "durationTicks": 341,
                    "midi": 81,
                    "name": "A5",
                    "ticks": 36120,
                    "time": 37.625,
                    "velocity": 0.9921259842519685
                },
                {
                    "duration": 0.23645833333333144,
                    "durationTicks": 227,
                    "midi": 86,
                    "name": "D6",
                    "ticks": 36480,
                    "time": 38,
                    "velocity": 0.9921259842519685
                },
                {
                    "duration": 0.23645833333333144,
                    "durationTicks": 227,
                    "midi": 86,
                    "name": "D6",
                    "ticks": 36720,
                    "time": 38.25,
                    "velocity": 0.9921259842519685
                },
                {
                    "duration": 0.11770833333333286,
                    "durationTicks": 113,
                    "midi": 86,
                    "name": "D6",
                    "ticks": 36960,
                    "time": 38.5,
                    "velocity": 0.9921259842519685
                },
                {
                    "duration": 0.11770833333333286,
                    "durationTicks": 113,
                    "midi": 81,
                    "name": "A5",
                    "ticks": 37080,
                    "time": 38.625,
                    "velocity": 0.9921259842519685
                },
                {
                    "duration": 0.11770833333333286,
                    "durationTicks": 113,
                    "midi": 86,
                    "name": "D6",
                    "ticks": 37200,
                    "time": 38.75,
                    "velocity": 0.9921259842519685
                },
                {
                    "duration": 1.0927083333333343,
                    "durationTicks": 1049,
                    "midi": 84,
                    "name": "C6",
                    "ticks": 37320,
                    "time": 38.875,
                    "velocity": 0.9921259842519685
                },
                {
                    "duration": 0.6177083333333329,
                    "durationTicks": 593,
                    "midi": 91,
                    "name": "G6",
                    "ticks": 37800,
                    "time": 39.375,
                    "velocity": 1
                },
                {
                    "duration": 0.23645833333333144,
                    "durationTicks": 227,
                    "midi": 77,
                    "name": "F5",
                    "ticks": 38400,
                    "time": 40,
                    "velocity": 0.9921259842519685
                },
                {
                    "duration": 0.23645833333333144,
                    "durationTicks": 227,
                    "midi": 81,
                    "name": "A5",
                    "ticks": 38400,
                    "time": 40,
                    "velocity": 0.9921259842519685
                },
                {
                    "duration": 0.11770833333333286,
                    "durationTicks": 113,
                    "midi": 77,
                    "name": "F5",
                    "ticks": 38640,
                    "time": 40.25,
                    "velocity": 0.9921259842519685
                },
                {
                    "duration": 0.11770833333333286,
                    "durationTicks": 113,
                    "midi": 81,
                    "name": "A5",
                    "ticks": 38640,
                    "time": 40.25,
                    "velocity": 0.9921259842519685
                },
                {
                    "duration": 0.23645833333333144,
                    "durationTicks": 227,
                    "midi": 77,
                    "name": "F5",
                    "ticks": 38760,
                    "time": 40.375,
                    "velocity": 0.9921259842519685
                },
                {
                    "duration": 0.23645833333333144,
                    "durationTicks": 227,
                    "midi": 81,
                    "name": "A5",
                    "ticks": 38760,
                    "time": 40.375,
                    "velocity": 0.9921259842519685
                },
                {
                    "duration": 0.23645833333333144,
                    "durationTicks": 227,
                    "midi": 77,
                    "name": "F5",
                    "ticks": 39000,
                    "time": 40.625,
                    "velocity": 0.9921259842519685
                },
                {
                    "duration": 0.23645833333333144,
                    "durationTicks": 227,
                    "midi": 81,
                    "name": "A5",
                    "ticks": 39000,
                    "time": 40.625,
                    "velocity": 0.9921259842519685
                },
                {
                    "duration": 0.23645833333333144,
                    "durationTicks": 227,
                    "midi": 77,
                    "name": "F5",
                    "ticks": 39240,
                    "time": 40.875,
                    "velocity": 0.9921259842519685
                },
                {
                    "duration": 0.23645833333333144,
                    "durationTicks": 227,
                    "midi": 81,
                    "name": "A5",
                    "ticks": 39240,
                    "time": 40.875,
                    "velocity": 0.9921259842519685
                },
                {
                    "duration": 0.23645833333333144,
                    "durationTicks": 227,
                    "midi": 74,
                    "name": "D5",
                    "ticks": 39480,
                    "time": 41.125,
                    "velocity": 0.9921259842519685
                },
                {
                    "duration": 0.23645833333333144,
                    "durationTicks": 227,
                    "midi": 79,
                    "name": "G5",
                    "ticks": 39480,
                    "time": 41.125,
                    "velocity": 0.9921259842519685
                },
                {
                    "duration": 0.5927083333333343,
                    "durationTicks": 569,
                    "midi": 74,
                    "name": "D5",
                    "ticks": 39720,
                    "time": 41.375,
                    "velocity": 0.9921259842519685
                },
                {
                    "duration": 0.5927083333333343,
                    "durationTicks": 569,
                    "midi": 79,
                    "name": "G5",
                    "ticks": 39720,
                    "time": 41.375,
                    "velocity": 0.9921259842519685
                },
                {
                    "duration": 0.23645833333333144,
                    "durationTicks": 227,
                    "midi": 77,
                    "name": "F5",
                    "ticks": 40320,
                    "time": 42,
                    "velocity": 0.9921259842519685
                },
                {
                    "duration": 0.23645833333333144,
                    "durationTicks": 227,
                    "midi": 81,
                    "name": "A5",
                    "ticks": 40320,
                    "time": 42,
                    "velocity": 0.9921259842519685
                },
                {
                    "duration": 0.23645833333333144,
                    "durationTicks": 227,
                    "midi": 77,
                    "name": "F5",
                    "ticks": 40560,
                    "time": 42.25,
                    "velocity": 0.9921259842519685
                },
                {
                    "duration": 0.23645833333333144,
                    "durationTicks": 227,
                    "midi": 81,
                    "name": "A5",
                    "ticks": 40560,
                    "time": 42.25,
                    "velocity": 0.9921259842519685
                },
                {
                    "duration": 0.11770833333333286,
                    "durationTicks": 113,
                    "midi": 77,
                    "name": "F5",
                    "ticks": 40800,
                    "time": 42.5,
                    "velocity": 0.9921259842519685
                },
                {
                    "duration": 0.11770833333333286,
                    "durationTicks": 113,
                    "midi": 81,
                    "name": "A5",
                    "ticks": 40800,
                    "time": 42.5,
                    "velocity": 0.9921259842519685
                },
                {
                    "duration": 0.12395833333333428,
                    "durationTicks": 119,
                    "midi": 77,
                    "name": "F5",
                    "ticks": 40920,
                    "time": 42.625,
                    "velocity": 0.9921259842519685
                },
                {
                    "duration": 0.12395833333333428,
                    "durationTicks": 119,
                    "midi": 81,
                    "name": "A5",
                    "ticks": 40920,
                    "time": 42.625,
                    "velocity": 0.9921259842519685
                },
                {
                    "duration": 0.12395833333333428,
                    "durationTicks": 119,
                    "midi": 74,
                    "name": "D5",
                    "ticks": 41160,
                    "time": 42.875,
                    "velocity": 0.9921259842519685
                },
                {
                    "duration": 0.12395833333333428,
                    "durationTicks": 119,
                    "midi": 79,
                    "name": "G5",
                    "ticks": 41160,
                    "time": 42.875,
                    "velocity": 0.9921259842519685
                },
                {
                    "duration": 0.12395833333333428,
                    "durationTicks": 119,
                    "midi": 77,
                    "name": "F5",
                    "ticks": 41400,
                    "time": 43.125,
                    "velocity": 0.9921259842519685
                },
                {
                    "duration": 0.12395833333333428,
                    "durationTicks": 119,
                    "midi": 81,
                    "name": "A5",
                    "ticks": 41400,
                    "time": 43.125,
                    "velocity": 0.9921259842519685
                },
                {
                    "duration": 0.5927083333333343,
                    "durationTicks": 569,
                    "midi": 74,
                    "name": "D5",
                    "ticks": 41640,
                    "time": 43.375,
                    "velocity": 0.9921259842519685
                },
                {
                    "duration": 0.23645833333333144,
                    "durationTicks": 227,
                    "midi": 86,
                    "name": "D6",
                    "ticks": 41640,
                    "time": 43.375,
                    "velocity": 0.9921259842519685
                },
                {
                    "duration": 0.11770833333333286,
                    "durationTicks": 113,
                    "midi": 81,
                    "name": "A5",
                    "ticks": 41880,
                    "time": 43.625,
                    "velocity": 0.9921259842519685
                },
                {
                    "duration": 0.23645833333333144,
                    "durationTicks": 227,
                    "midi": 79,
                    "name": "G5",
                    "ticks": 42000,
                    "time": 43.75,
                    "velocity": 0.9921259842519685
                },
                {
                    "duration": 0.24895833333333428,
                    "durationTicks": 239,
                    "midi": 77,
                    "name": "F5",
                    "ticks": 42240,
                    "time": 44,
                    "velocity": 1
                },
                {
                    "duration": 0.24895833333333428,
                    "durationTicks": 239,
                    "midi": 86,
                    "name": "D6",
                    "ticks": 42240,
                    "time": 44,
                    "velocity": 1
                },
                {
                    "duration": 0.24895833333333428,
                    "durationTicks": 239,
                    "midi": 81,
                    "name": "A5",
                    "ticks": 42480,
                    "time": 44.25,
                    "velocity": 1
                },
                {
                    "duration": 0.24895833333333428,
                    "durationTicks": 239,
                    "midi": 79,
                    "name": "G5",
                    "ticks": 42720,
                    "time": 44.5,
                    "velocity": 1
                },
                {
                    "duration": 0.24895833333333428,
                    "durationTicks": 239,
                    "midi": 77,
                    "name": "F5",
                    "ticks": 42960,
                    "time": 44.75,
                    "velocity": 1
                },
                {
                    "duration": 0.24895833333333428,
                    "durationTicks": 239,
                    "midi": 76,
                    "name": "E5",
                    "ticks": 43200,
                    "time": 45,
                    "velocity": 1
                },
                {
                    "duration": 0.24895833333333428,
                    "durationTicks": 239,
                    "midi": 84,
                    "name": "C6",
                    "ticks": 43200,
                    "time": 45,
                    "velocity": 1
                },
                {
                    "duration": 0.24895833333333428,
                    "durationTicks": 239,
                    "midi": 79,
                    "name": "G5",
                    "ticks": 43440,
                    "time": 45.25,
                    "velocity": 1
                },
                {
                    "duration": 0.24895833333333428,
                    "durationTicks": 239,
                    "midi": 77,
                    "name": "F5",
                    "ticks": 43680,
                    "time": 45.5,
                    "velocity": 1
                },
                {
                    "duration": 0.24895833333333428,
                    "durationTicks": 239,
                    "midi": 76,
                    "name": "E5",
                    "ticks": 43920,
                    "time": 45.75,
                    "velocity": 1
                },
                {
                    "duration": 0.23645833333333144,
                    "durationTicks": 227,
                    "midi": 70,
                    "name": "A#4",
                    "ticks": 44160,
                    "time": 46,
                    "velocity": 0.9921259842519685
                },
                {
                    "duration": 0.11770833333333286,
                    "durationTicks": 113,
                    "midi": 74,
                    "name": "D5",
                    "ticks": 44400,
                    "time": 46.25,
                    "velocity": 0.9921259842519685
                },
                {
                    "duration": 0.12395833333333428,
                    "durationTicks": 119,
                    "midi": 76,
                    "name": "E5",
                    "ticks": 44520,
                    "time": 46.375,
                    "velocity": 0.9921259842519685
                },
                {
                    "duration": 0.12395833333333428,
                    "durationTicks": 119,
                    "midi": 77,
                    "name": "F5",
                    "ticks": 44760,
                    "time": 46.625,
                    "velocity": 0.9921259842519685
                },
                {
                    "duration": 1.0677083333333357,
                    "durationTicks": 1025,
                    "midi": 76,
                    "name": "E5",
                    "ticks": 45000,
                    "time": 46.875,
                    "velocity": 0.9921259842519685
                },
                {
                    "duration": 1.0677083333333357,
                    "durationTicks": 1025,
                    "midi": 84,
                    "name": "C6",
                    "ticks": 45000,
                    "time": 46.875,
                    "velocity": 0.9921259842519685
                },
                {
                    "duration": 0.11770833333333286,
                    "durationTicks": 113,
                    "midi": 74,
                    "name": "D5",
                    "ticks": 47040,
                    "time": 49,
                    "velocity": 0.9921259842519685
                },
                {
                    "duration": 0.11770833333333286,
                    "durationTicks": 113,
                    "midi": 77,
                    "name": "F5",
                    "ticks": 47040,
                    "time": 49,
                    "velocity": 0.9921259842519685
                },
                {
                    "duration": 0.11770833333333286,
                    "durationTicks": 113,
                    "midi": 70,
                    "name": "A#4",
                    "ticks": 47160,
                    "time": 49.125,
                    "velocity": 0.9921259842519685
                },
                {
                    "duration": 0.11770833333333286,
                    "durationTicks": 113,
                    "midi": 74,
                    "name": "D5",
                    "ticks": 47160,
                    "time": 49.125,
                    "velocity": 0.9921259842519685
                },
                {
                    "duration": 0.11770833333333286,
                    "durationTicks": 113,
                    "midi": 74,
                    "name": "D5",
                    "ticks": 47280,
                    "time": 49.25,
                    "velocity": 0.9921259842519685
                },
                {
                    "duration": 0.11770833333333286,
                    "durationTicks": 113,
                    "midi": 77,
                    "name": "F5",
                    "ticks": 47280,
                    "time": 49.25,
                    "velocity": 0.9921259842519685
                },
                {
                    "duration": 0.11770833333333286,
                    "durationTicks": 113,
                    "midi": 74,
                    "name": "D5",
                    "ticks": 47400,
                    "time": 49.375,
                    "velocity": 0.9921259842519685
                },
                {
                    "duration": 0.11770833333333286,
                    "durationTicks": 113,
                    "midi": 79,
                    "name": "G5",
                    "ticks": 47400,
                    "time": 49.375,
                    "velocity": 0.9921259842519685
                },
                {
                    "duration": 0.11770833333333286,
                    "durationTicks": 113,
                    "midi": 74,
                    "name": "D5",
                    "ticks": 47520,
                    "time": 49.5,
                    "velocity": 0.9921259842519685
                },
                {
                    "duration": 0.11770833333333286,
                    "durationTicks": 113,
                    "midi": 80,
                    "name": "G#5",
                    "ticks": 47520,
                    "time": 49.5,
                    "velocity": 0.9921259842519685
                },
                {
                    "duration": 0.11770833333333286,
                    "durationTicks": 113,
                    "midi": 74,
                    "name": "D5",
                    "ticks": 47640,
                    "time": 49.625,
                    "velocity": 0.9921259842519685
                },
                {
                    "duration": 0.11770833333333286,
                    "durationTicks": 113,
                    "midi": 79,
                    "name": "G5",
                    "ticks": 47640,
                    "time": 49.625,
                    "velocity": 0.9921259842519685
                },
                {
                    "duration": 0.11770833333333286,
                    "durationTicks": 113,
                    "midi": 74,
                    "name": "D5",
                    "ticks": 47760,
                    "time": 49.75,
                    "velocity": 0.9921259842519685
                },
                {
                    "duration": 0.11770833333333286,
                    "durationTicks": 113,
                    "midi": 77,
                    "name": "F5",
                    "ticks": 47760,
                    "time": 49.75,
                    "velocity": 0.9921259842519685
                },
                {
                    "duration": 0.11770833333333286,
                    "durationTicks": 113,
                    "midi": 70,
                    "name": "A#4",
                    "ticks": 47880,
                    "time": 49.875,
                    "velocity": 0.9921259842519685
                },
                {
                    "duration": 0.11770833333333286,
                    "durationTicks": 113,
                    "midi": 74,
                    "name": "D5",
                    "ticks": 47880,
                    "time": 49.875,
                    "velocity": 0.9921259842519685
                },
                {
                    "duration": 0.05833333333333002,
                    "durationTicks": 56,
                    "midi": 77,
                    "name": "F5",
                    "ticks": 48000,
                    "time": 50,
                    "velocity": 0.9921259842519685
                },
                {
                    "duration": 0.05833333333333002,
                    "durationTicks": 56,
                    "midi": 80,
                    "name": "G#5",
                    "ticks": 48000,
                    "time": 50,
                    "velocity": 0.9921259842519685
                },
                {
                    "duration": 0.05833333333333002,
                    "durationTicks": 56,
                    "midi": 76,
                    "name": "E5",
                    "ticks": 48060,
                    "time": 50.0625,
                    "velocity": 0.9921259842519685
                },
                {
                    "duration": 0.05833333333333002,
                    "durationTicks": 56,
                    "midi": 79,
                    "name": "G5",
                    "ticks": 48060,
                    "time": 50.0625,
                    "velocity": 0.9921259842519685
                },
                {
                    "duration": 0.11770833333333286,
                    "durationTicks": 113,
                    "midi": 74,
                    "name": "D5",
                    "ticks": 48120,
                    "time": 50.125,
                    "velocity": 0.9921259842519685
                },
                {
                    "duration": 0.23645833333333144,
                    "durationTicks": 227,
                    "midi": 74,
                    "name": "D5",
                    "ticks": 48240,
                    "time": 50.25,
                    "velocity": 0.9921259842519685
                },
                {
                    "duration": 0.23645833333333144,
                    "durationTicks": 227,
                    "midi": 77,
                    "name": "F5",
                    "ticks": 48240,
                    "time": 50.25,
                    "velocity": 0.9921259842519685
                },
                {
                    "duration": 0.94895833333333,
                    "durationTicks": 911,
                    "midi": 76,
                    "name": "E5",
                    "ticks": 48480,
                    "time": 50.5,
                    "velocity": 0.9921259842519685
                },
                {
                    "duration": 1.0677083333333357,
                    "durationTicks": 1025,
                    "midi": 79,
                    "name": "G5",
                    "ticks": 48480,
                    "time": 50.5,
                    "velocity": 0.9921259842519685
                },
                {
                    "duration": 0.23645833333333144,
                    "durationTicks": 227,
                    "midi": 80,
                    "name": "G#5",
                    "ticks": 49560,
                    "time": 51.625,
                    "velocity": 0.9921259842519685
                },
                {
                    "duration": 0.11770833333333286,
                    "durationTicks": 113,
                    "midi": 81,
                    "name": "A5",
                    "ticks": 49800,
                    "time": 51.875,
                    "velocity": 0.9921259842519685
                },
                {
                    "duration": 0.23645833333333144,
                    "durationTicks": 227,
                    "midi": 84,
                    "name": "C6",
                    "ticks": 49920,
                    "time": 52,
                    "velocity": 0.9921259842519685
                },
                {
                    "duration": 0.11770833333333286,
                    "durationTicks": 113,
                    "midi": 81,
                    "name": "A5",
                    "ticks": 50160,
                    "time": 52.25,
                    "velocity": 0.9921259842519685
                },
                {
                    "duration": 0.11770833333333286,
                    "durationTicks": 113,
                    "midi": 80,
                    "name": "G#5",
                    "ticks": 50280,
                    "time": 52.375,
                    "velocity": 0.9921259842519685
                },
                {
                    "duration": 0.11770833333333286,
                    "durationTicks": 113,
                    "midi": 79,
                    "name": "G5",
                    "ticks": 50400,
                    "time": 52.5,
                    "velocity": 0.9921259842519685
                },
                {
                    "duration": 0.11770833333333286,
                    "durationTicks": 113,
                    "midi": 77,
                    "name": "F5",
                    "ticks": 50520,
                    "time": 52.625,
                    "velocity": 0.9921259842519685
                },
                {
                    "duration": 0.11770833333333286,
                    "durationTicks": 113,
                    "midi": 74,
                    "name": "D5",
                    "ticks": 50640,
                    "time": 52.75,
                    "velocity": 0.9921259842519685
                },
                {
                    "duration": 0.11770833333333286,
                    "durationTicks": 113,
                    "midi": 76,
                    "name": "E5",
                    "ticks": 50760,
                    "time": 52.875,
                    "velocity": 0.9921259842519685
                },
                {
                    "duration": 0.23645833333333144,
                    "durationTicks": 227,
                    "midi": 77,
                    "name": "F5",
                    "ticks": 50880,
                    "time": 53,
                    "velocity": 0.9921259842519685
                },
                {
                    "duration": 0.23645833333333144,
                    "durationTicks": 227,
                    "midi": 79,
                    "name": "G5",
                    "ticks": 51120,
                    "time": 53.25,
                    "velocity": 0.9921259842519685
                },
                {
                    "duration": 0.23645833333333144,
                    "durationTicks": 227,
                    "midi": 81,
                    "name": "A5",
                    "ticks": 51360,
                    "time": 53.5,
                    "velocity": 0.9921259842519685
                },
                {
                    "duration": 0.23645833333333144,
                    "durationTicks": 227,
                    "midi": 84,
                    "name": "C6",
                    "ticks": 51600,
                    "time": 53.75,
                    "velocity": 0.9921259842519685
                },
                {
                    "duration": 0.23645833333333144,
                    "durationTicks": 227,
                    "midi": 85,
                    "name": "C#6",
                    "ticks": 51840,
                    "time": 54,
                    "velocity": 0.9921259842519685
                },
                {
                    "duration": 0.23645833333333144,
                    "durationTicks": 227,
                    "midi": 80,
                    "name": "G#5",
                    "ticks": 52080,
                    "time": 54.25,
                    "velocity": 0.9921259842519685
                },
                {
                    "duration": 0.11770833333333286,
                    "durationTicks": 113,
                    "midi": 80,
                    "name": "G#5",
                    "ticks": 52320,
                    "time": 54.5,
                    "velocity": 0.9921259842519685
                },
                {
                    "duration": 0.11770833333333286,
                    "durationTicks": 113,
                    "midi": 79,
                    "name": "G5",
                    "ticks": 52440,
                    "time": 54.625,
                    "velocity": 0.9921259842519685
                },
                {
                    "duration": 0.11770833333333286,
                    "durationTicks": 113,
                    "midi": 77,
                    "name": "F5",
                    "ticks": 52560,
                    "time": 54.75,
                    "velocity": 0.9921259842519685
                },
                {
                    "duration": 1.0677083333333357,
                    "durationTicks": 1025,
                    "midi": 79,
                    "name": "G5",
                    "ticks": 52680,
                    "time": 54.875,
                    "velocity": 0.9921259842519685
                },
                {
                    "duration": 0.23645833333333144,
                    "durationTicks": 227,
                    "midi": 65,
                    "name": "F4",
                    "ticks": 53760,
                    "time": 56,
                    "velocity": 0.9921259842519685
                },
                {
                    "duration": 0.23645833333333144,
                    "durationTicks": 227,
                    "midi": 74,
                    "name": "D5",
                    "ticks": 53760,
                    "time": 56,
                    "velocity": 0.9921259842519685
                },
                {
                    "duration": 0.23645833333333144,
                    "durationTicks": 227,
                    "midi": 67,
                    "name": "G4",
                    "ticks": 54000,
                    "time": 56.25,
                    "velocity": 0.9921259842519685
                },
                {
                    "duration": 0.23645833333333144,
                    "durationTicks": 227,
                    "midi": 76,
                    "name": "E5",
                    "ticks": 54000,
                    "time": 56.25,
                    "velocity": 0.9921259842519685
                },
                {
                    "duration": 0.23645833333333144,
                    "durationTicks": 227,
                    "midi": 69,
                    "name": "A4",
                    "ticks": 54240,
                    "time": 56.5,
                    "velocity": 0.9921259842519685
                },
                {
                    "duration": 0.23645833333333144,
                    "durationTicks": 227,
                    "midi": 77,
                    "name": "F5",
                    "ticks": 54240,
                    "time": 56.5,
                    "velocity": 0.9921259842519685
                },
                {
                    "duration": 0.23645833333333144,
                    "durationTicks": 227,
                    "midi": 81,
                    "name": "A5",
                    "ticks": 54480,
                    "time": 56.75,
                    "velocity": 0.9921259842519685
                },
                {
                    "duration": 0.23645833333333144,
                    "durationTicks": 227,
                    "midi": 89,
                    "name": "F6",
                    "ticks": 54480,
                    "time": 56.75,
                    "velocity": 0.9921259842519685
                },
                {
                    "duration": 0.4739583333333357,
                    "durationTicks": 455,
                    "midi": 79,
                    "name": "G5",
                    "ticks": 54720,
                    "time": 57,
                    "velocity": 0.9921259842519685
                },
                {
                    "duration": 0.4739583333333357,
                    "durationTicks": 455,
                    "midi": 88,
                    "name": "E6",
                    "ticks": 54720,
                    "time": 57,
                    "velocity": 0.9921259842519685
                },
                {
                    "duration": 0.4739583333333357,
                    "durationTicks": 455,
                    "midi": 77,
                    "name": "F5",
                    "ticks": 55200,
                    "time": 57.5,
                    "velocity": 0.9921259842519685
                },
                {
                    "duration": 0.4739583333333357,
                    "durationTicks": 455,
                    "midi": 86,
                    "name": "D6",
                    "ticks": 55200,
                    "time": 57.5,
                    "velocity": 0.9921259842519685
                },
                {
                    "duration": 0.4739583333333357,
                    "durationTicks": 455,
                    "midi": 79,
                    "name": "G5",
                    "ticks": 55680,
                    "time": 58,
                    "velocity": 0.9921259842519685
                },
                {
                    "duration": 0.4739583333333357,
                    "durationTicks": 455,
                    "midi": 88,
                    "name": "E6",
                    "ticks": 55680,
                    "time": 58,
                    "velocity": 0.9921259842519685
                },
                {
                    "duration": 0.4739583333333357,
                    "durationTicks": 455,
                    "midi": 81,
                    "name": "A5",
                    "ticks": 56160,
                    "time": 58.5,
                    "velocity": 0.9921259842519685
                },
                {
                    "duration": 0.4739583333333357,
                    "durationTicks": 455,
                    "midi": 89,
                    "name": "F6",
                    "ticks": 56160,
                    "time": 58.5,
                    "velocity": 0.9921259842519685
                },
                {
                    "duration": 0.4739583333333357,
                    "durationTicks": 455,
                    "midi": 84,
                    "name": "C6",
                    "ticks": 56640,
                    "time": 59,
                    "velocity": 0.9921259842519685
                },
                {
                    "duration": 0.4739583333333357,
                    "durationTicks": 455,
                    "midi": 91,
                    "name": "G6",
                    "ticks": 56640,
                    "time": 59,
                    "velocity": 0.9921259842519685
                },
                {
                    "duration": 0.4739583333333357,
                    "durationTicks": 455,
                    "midi": 81,
                    "name": "A5",
                    "ticks": 57120,
                    "time": 59.5,
                    "velocity": 0.9921259842519685
                },
                {
                    "duration": 0.4739583333333357,
                    "durationTicks": 455,
                    "midi": 88,
                    "name": "E6",
                    "ticks": 57120,
                    "time": 59.5,
                    "velocity": 0.9921259842519685
                },
                {
                    "duration": 0.94895833333333,
                    "durationTicks": 911,
                    "midi": 93,
                    "name": "A6",
                    "ticks": 57600,
                    "time": 60,
                    "velocity": 0.9921259842519685
                },
                {
                    "duration": 1.8989583333333329,
                    "durationTicks": 1823,
                    "midi": 86,
                    "name": "D6",
                    "ticks": 57600,
                    "time": 60,
                    "velocity": 0.9921259842519685
                },
                {
                    "duration": 0.11770833333333286,
                    "durationTicks": 113,
                    "midi": 93,
                    "name": "A6",
                    "ticks": 58560,
                    "time": 61,
                    "velocity": 0.9921259842519685
                },
                {
                    "duration": 0.11770833333333286,
                    "durationTicks": 113,
                    "midi": 92,
                    "name": "G#6",
                    "ticks": 58680,
                    "time": 61.125,
                    "velocity": 0.9921259842519685
                },
                {
                    "duration": 0.11770833333333286,
                    "durationTicks": 113,
                    "midi": 91,
                    "name": "G6",
                    "ticks": 58800,
                    "time": 61.25,
                    "velocity": 0.9921259842519685
                },
                {
                    "duration": 0.11770833333333286,
                    "durationTicks": 113,
                    "midi": 90,
                    "name": "F#6",
                    "ticks": 58920,
                    "time": 61.375,
                    "velocity": 0.9921259842519685
                },
                {
                    "duration": 0.11770833333333286,
                    "durationTicks": 113,
                    "midi": 89,
                    "name": "F6",
                    "ticks": 59040,
                    "time": 61.5,
                    "velocity": 0.9921259842519685
                },
                {
                    "duration": 0.11770833333333286,
                    "durationTicks": 113,
                    "midi": 88,
                    "name": "E6",
                    "ticks": 59160,
                    "time": 61.625,
                    "velocity": 0.9921259842519685
                },
                {
                    "duration": 0.11770833333333286,
                    "durationTicks": 113,
                    "midi": 87,
                    "name": "D#6",
                    "ticks": 59280,
                    "time": 61.75,
                    "velocity": 0.9921259842519685
                },
                {
                    "duration": 0.11770833333333286,
                    "durationTicks": 113,
                    "midi": 86,
                    "name": "D6",
                    "ticks": 59400,
                    "time": 61.875,
                    "velocity": 0.9921259842519685
                },
                {
                    "duration": 0.94895833333333,
                    "durationTicks": 911,
                    "midi": 80,
                    "name": "G#5",
                    "ticks": 59520,
                    "time": 62,
                    "velocity": 0.9921259842519685
                },
                {
                    "duration": 0.94895833333333,
                    "durationTicks": 911,
                    "midi": 85,
                    "name": "C#6",
                    "ticks": 59520,
                    "time": 62,
                    "velocity": 0.9921259842519685
                },
                {
                    "duration": 1.4239583333333314,
                    "durationTicks": 1367,
                    "midi": 86,
                    "name": "D6",
                    "ticks": 60000,
                    "time": 62.5,
                    "velocity": 0.9921259842519685
                },
                {
                    "duration": 0.94895833333333,
                    "durationTicks": 911,
                    "midi": 82,
                    "name": "A#5",
                    "ticks": 60480,
                    "time": 63,
                    "velocity": 0.9921259842519685
                },
                {
                    "duration": 0.94895833333333,
                    "durationTicks": 911,
                    "midi": 87,
                    "name": "D#6",
                    "ticks": 60480,
                    "time": 63,
                    "velocity": 0.9921259842519685
                },
                {
                    "duration": 0.11770833333333997,
                    "durationTicks": 113,
                    "midi": 74,
                    "name": "D5",
                    "ticks": 62400,
                    "time": 65,
                    "velocity": 0.9921259842519685
                },
                {
                    "duration": 0.11770833333333997,
                    "durationTicks": 113,
                    "midi": 77,
                    "name": "F5",
                    "ticks": 62400,
                    "time": 65,
                    "velocity": 0.9921259842519685
                },
                {
                    "duration": 0.11770833333333997,
                    "durationTicks": 113,
                    "midi": 70,
                    "name": "A#4",
                    "ticks": 62520,
                    "time": 65.125,
                    "velocity": 0.9921259842519685
                },
                {
                    "duration": 0.11770833333333997,
                    "durationTicks": 113,
                    "midi": 74,
                    "name": "D5",
                    "ticks": 62520,
                    "time": 65.125,
                    "velocity": 0.9921259842519685
                },
                {
                    "duration": 0.11770833333333997,
                    "durationTicks": 113,
                    "midi": 74,
                    "name": "D5",
                    "ticks": 62640,
                    "time": 65.25,
                    "velocity": 0.9921259842519685
                },
                {
                    "duration": 0.11770833333333997,
                    "durationTicks": 113,
                    "midi": 77,
                    "name": "F5",
                    "ticks": 62640,
                    "time": 65.25,
                    "velocity": 0.9921259842519685
                },
                {
                    "duration": 0.11770833333333997,
                    "durationTicks": 113,
                    "midi": 74,
                    "name": "D5",
                    "ticks": 62760,
                    "time": 65.375,
                    "velocity": 0.9921259842519685
                },
                {
                    "duration": 0.11770833333333997,
                    "durationTicks": 113,
                    "midi": 79,
                    "name": "G5",
                    "ticks": 62760,
                    "time": 65.375,
                    "velocity": 0.9921259842519685
                },
                {
                    "duration": 0.11770833333333997,
                    "durationTicks": 113,
                    "midi": 74,
                    "name": "D5",
                    "ticks": 62880,
                    "time": 65.5,
                    "velocity": 0.9921259842519685
                },
                {
                    "duration": 0.11770833333333997,
                    "durationTicks": 113,
                    "midi": 80,
                    "name": "G#5",
                    "ticks": 62880,
                    "time": 65.5,
                    "velocity": 0.9921259842519685
                },
                {
                    "duration": 0.11770833333333997,
                    "durationTicks": 113,
                    "midi": 74,
                    "name": "D5",
                    "ticks": 63000,
                    "time": 65.625,
                    "velocity": 0.9921259842519685
                },
                {
                    "duration": 0.11770833333333997,
                    "durationTicks": 113,
                    "midi": 79,
                    "name": "G5",
                    "ticks": 63000,
                    "time": 65.625,
                    "velocity": 0.9921259842519685
                },
                {
                    "duration": 0.11770833333333997,
                    "durationTicks": 113,
                    "midi": 74,
                    "name": "D5",
                    "ticks": 63120,
                    "time": 65.75,
                    "velocity": 0.9921259842519685
                },
                {
                    "duration": 0.11770833333333997,
                    "durationTicks": 113,
                    "midi": 77,
                    "name": "F5",
                    "ticks": 63120,
                    "time": 65.75,
                    "velocity": 0.9921259842519685
                },
                {
                    "duration": 0.11770833333333997,
                    "durationTicks": 113,
                    "midi": 70,
                    "name": "A#4",
                    "ticks": 63240,
                    "time": 65.875,
                    "velocity": 0.9921259842519685
                },
                {
                    "duration": 0.11770833333333997,
                    "durationTicks": 113,
                    "midi": 74,
                    "name": "D5",
                    "ticks": 63240,
                    "time": 65.875,
                    "velocity": 0.9921259842519685
                },
                {
                    "duration": 0.05833333333333712,
                    "durationTicks": 56,
                    "midi": 77,
                    "name": "F5",
                    "ticks": 63360,
                    "time": 66,
                    "velocity": 0.9921259842519685
                },
                {
                    "duration": 0.05833333333333712,
                    "durationTicks": 56,
                    "midi": 80,
                    "name": "G#5",
                    "ticks": 63360,
                    "time": 66,
                    "velocity": 0.9921259842519685
                },
                {
                    "duration": 0.05833333333333712,
                    "durationTicks": 56,
                    "midi": 76,
                    "name": "E5",
                    "ticks": 63420,
                    "time": 66.0625,
                    "velocity": 0.9921259842519685
                },
                {
                    "duration": 0.05833333333333712,
                    "durationTicks": 56,
                    "midi": 79,
                    "name": "G5",
                    "ticks": 63420,
                    "time": 66.0625,
                    "velocity": 0.9921259842519685
                },
                {
                    "duration": 0.11770833333333997,
                    "durationTicks": 113,
                    "midi": 74,
                    "name": "D5",
                    "ticks": 63480,
                    "time": 66.125,
                    "velocity": 0.9921259842519685
                },
                {
                    "duration": 0.23645833333333144,
                    "durationTicks": 227,
                    "midi": 74,
                    "name": "D5",
                    "ticks": 63600,
                    "time": 66.25,
                    "velocity": 0.9921259842519685
                },
                {
                    "duration": 0.23645833333333144,
                    "durationTicks": 227,
                    "midi": 77,
                    "name": "F5",
                    "ticks": 63600,
                    "time": 66.25,
                    "velocity": 0.9921259842519685
                },
                {
                    "duration": 0.9489583333333371,
                    "durationTicks": 911,
                    "midi": 76,
                    "name": "E5",
                    "ticks": 63840,
                    "time": 66.5,
                    "velocity": 0.9921259842519685
                },
                {
                    "duration": 1.0677083333333286,
                    "durationTicks": 1025,
                    "midi": 79,
                    "name": "G5",
                    "ticks": 63840,
                    "time": 66.5,
                    "velocity": 0.9921259842519685
                },
                {
                    "duration": 0.23645833333333144,
                    "durationTicks": 227,
                    "midi": 80,
                    "name": "G#5",
                    "ticks": 64920,
                    "time": 67.625,
                    "velocity": 0.9921259842519685
                },
                {
                    "duration": 0.11770833333333997,
                    "durationTicks": 113,
                    "midi": 81,
                    "name": "A5",
                    "ticks": 65160,
                    "time": 67.875,
                    "velocity": 0.9921259842519685
                },
                {
                    "duration": 0.23645833333333144,
                    "durationTicks": 227,
                    "midi": 84,
                    "name": "C6",
                    "ticks": 65280,
                    "time": 68,
                    "velocity": 0.9921259842519685
                },
                {
                    "duration": 0.11770833333333997,
                    "durationTicks": 113,
                    "midi": 81,
                    "name": "A5",
                    "ticks": 65520,
                    "time": 68.25,
                    "velocity": 0.9921259842519685
                },
                {
                    "duration": 0.11770833333333997,
                    "durationTicks": 113,
                    "midi": 80,
                    "name": "G#5",
                    "ticks": 65640,
                    "time": 68.375,
                    "velocity": 0.9921259842519685
                },
                {
                    "duration": 0.11770833333333997,
                    "durationTicks": 113,
                    "midi": 79,
                    "name": "G5",
                    "ticks": 65760,
                    "time": 68.5,
                    "velocity": 0.9921259842519685
                },
                {
                    "duration": 0.11770833333333997,
                    "durationTicks": 113,
                    "midi": 77,
                    "name": "F5",
                    "ticks": 65880,
                    "time": 68.625,
                    "velocity": 0.9921259842519685
                },
                {
                    "duration": 0.11770833333333997,
                    "durationTicks": 113,
                    "midi": 74,
                    "name": "D5",
                    "ticks": 66000,
                    "time": 68.75,
                    "velocity": 0.9921259842519685
                },
                {
                    "duration": 0.11770833333333997,
                    "durationTicks": 113,
                    "midi": 76,
                    "name": "E5",
                    "ticks": 66120,
                    "time": 68.875,
                    "velocity": 0.9921259842519685
                },
                {
                    "duration": 0.23645833333333144,
                    "durationTicks": 227,
                    "midi": 77,
                    "name": "F5",
                    "ticks": 66240,
                    "time": 69,
                    "velocity": 0.9921259842519685
                },
                {
                    "duration": 0.23645833333333144,
                    "durationTicks": 227,
                    "midi": 79,
                    "name": "G5",
                    "ticks": 66480,
                    "time": 69.25,
                    "velocity": 0.9921259842519685
                },
                {
                    "duration": 0.23645833333333144,
                    "durationTicks": 227,
                    "midi": 81,
                    "name": "A5",
                    "ticks": 66720,
                    "time": 69.5,
                    "velocity": 0.9921259842519685
                },
                {
                    "duration": 0.23645833333333144,
                    "durationTicks": 227,
                    "midi": 84,
                    "name": "C6",
                    "ticks": 66960,
                    "time": 69.75,
                    "velocity": 0.9921259842519685
                },
                {
                    "duration": 0.23645833333333144,
                    "durationTicks": 227,
                    "midi": 85,
                    "name": "C#6",
                    "ticks": 67200,
                    "time": 70,
                    "velocity": 0.9921259842519685
                },
                {
                    "duration": 0.23645833333333144,
                    "durationTicks": 227,
                    "midi": 80,
                    "name": "G#5",
                    "ticks": 67440,
                    "time": 70.25,
                    "velocity": 0.9921259842519685
                },
                {
                    "duration": 0.11770833333333997,
                    "durationTicks": 113,
                    "midi": 80,
                    "name": "G#5",
                    "ticks": 67680,
                    "time": 70.5,
                    "velocity": 0.9921259842519685
                },
                {
                    "duration": 0.11770833333333997,
                    "durationTicks": 113,
                    "midi": 79,
                    "name": "G5",
                    "ticks": 67800,
                    "time": 70.625,
                    "velocity": 0.9921259842519685
                },
                {
                    "duration": 0.11770833333333997,
                    "durationTicks": 113,
                    "midi": 77,
                    "name": "F5",
                    "ticks": 67920,
                    "time": 70.75,
                    "velocity": 0.9921259842519685
                },
                {
                    "duration": 1.0677083333333286,
                    "durationTicks": 1025,
                    "midi": 79,
                    "name": "G5",
                    "ticks": 68040,
                    "time": 70.875,
                    "velocity": 0.9921259842519685
                },
                {
                    "duration": 0.23645833333333144,
                    "durationTicks": 227,
                    "midi": 65,
                    "name": "F4",
                    "ticks": 69120,
                    "time": 72,
                    "velocity": 0.9921259842519685
                },
                {
                    "duration": 0.23645833333333144,
                    "durationTicks": 227,
                    "midi": 74,
                    "name": "D5",
                    "ticks": 69120,
                    "time": 72,
                    "velocity": 0.9921259842519685
                },
                {
                    "duration": 0.23645833333333144,
                    "durationTicks": 227,
                    "midi": 67,
                    "name": "G4",
                    "ticks": 69360,
                    "time": 72.25,
                    "velocity": 0.9921259842519685
                },
                {
                    "duration": 0.23645833333333144,
                    "durationTicks": 227,
                    "midi": 76,
                    "name": "E5",
                    "ticks": 69360,
                    "time": 72.25,
                    "velocity": 0.9921259842519685
                },
                {
                    "duration": 0.23645833333333144,
                    "durationTicks": 227,
                    "midi": 69,
                    "name": "A4",
                    "ticks": 69600,
                    "time": 72.5,
                    "velocity": 0.9921259842519685
                },
                {
                    "duration": 0.23645833333333144,
                    "durationTicks": 227,
                    "midi": 77,
                    "name": "F5",
                    "ticks": 69600,
                    "time": 72.5,
                    "velocity": 0.9921259842519685
                },
                {
                    "duration": 0.23645833333333144,
                    "durationTicks": 227,
                    "midi": 81,
                    "name": "A5",
                    "ticks": 69840,
                    "time": 72.75,
                    "velocity": 0.9921259842519685
                },
                {
                    "duration": 0.23645833333333144,
                    "durationTicks": 227,
                    "midi": 89,
                    "name": "F6",
                    "ticks": 69840,
                    "time": 72.75,
                    "velocity": 0.9921259842519685
                },
                {
                    "duration": 0.4739583333333286,
                    "durationTicks": 455,
                    "midi": 79,
                    "name": "G5",
                    "ticks": 70080,
                    "time": 73,
                    "velocity": 0.9921259842519685
                },
                {
                    "duration": 0.4739583333333286,
                    "durationTicks": 455,
                    "midi": 88,
                    "name": "E6",
                    "ticks": 70080,
                    "time": 73,
                    "velocity": 0.9921259842519685
                },
                {
                    "duration": 0.4739583333333286,
                    "durationTicks": 455,
                    "midi": 77,
                    "name": "F5",
                    "ticks": 70560,
                    "time": 73.5,
                    "velocity": 0.9921259842519685
                },
                {
                    "duration": 0.4739583333333286,
                    "durationTicks": 455,
                    "midi": 86,
                    "name": "D6",
                    "ticks": 70560,
                    "time": 73.5,
                    "velocity": 0.9921259842519685
                },
                {
                    "duration": 0.4739583333333286,
                    "durationTicks": 455,
                    "midi": 79,
                    "name": "G5",
                    "ticks": 71040,
                    "time": 74,
                    "velocity": 0.9921259842519685
                },
                {
                    "duration": 0.4739583333333286,
                    "durationTicks": 455,
                    "midi": 88,
                    "name": "E6",
                    "ticks": 71040,
                    "time": 74,
                    "velocity": 0.9921259842519685
                },
                {
                    "duration": 0.4739583333333286,
                    "durationTicks": 455,
                    "midi": 81,
                    "name": "A5",
                    "ticks": 71520,
                    "time": 74.5,
                    "velocity": 0.9921259842519685
                },
                {
                    "duration": 0.4739583333333286,
                    "durationTicks": 455,
                    "midi": 89,
                    "name": "F6",
                    "ticks": 71520,
                    "time": 74.5,
                    "velocity": 0.9921259842519685
                },
                {
                    "duration": 0.4739583333333286,
                    "durationTicks": 455,
                    "midi": 84,
                    "name": "C6",
                    "ticks": 72000,
                    "time": 75,
                    "velocity": 0.9921259842519685
                },
                {
                    "duration": 0.4739583333333286,
                    "durationTicks": 455,
                    "midi": 91,
                    "name": "G6",
                    "ticks": 72000,
                    "time": 75,
                    "velocity": 0.9921259842519685
                },
                {
                    "duration": 0.4739583333333286,
                    "durationTicks": 455,
                    "midi": 81,
                    "name": "A5",
                    "ticks": 72480,
                    "time": 75.5,
                    "velocity": 0.9921259842519685
                },
                {
                    "duration": 0.4739583333333286,
                    "durationTicks": 455,
                    "midi": 88,
                    "name": "E6",
                    "ticks": 72480,
                    "time": 75.5,
                    "velocity": 0.9921259842519685
                },
                {
                    "duration": 0.9489583333333371,
                    "durationTicks": 911,
                    "midi": 93,
                    "name": "A6",
                    "ticks": 72960,
                    "time": 76,
                    "velocity": 0.9921259842519685
                },
                {
                    "duration": 1.89895833333334,
                    "durationTicks": 1823,
                    "midi": 86,
                    "name": "D6",
                    "ticks": 72960,
                    "time": 76,
                    "velocity": 0.9921259842519685
                },
                {
                    "duration": 0.11770833333333997,
                    "durationTicks": 113,
                    "midi": 93,
                    "name": "A6",
                    "ticks": 73920,
                    "time": 77,
                    "velocity": 0.9921259842519685
                },
                {
                    "duration": 0.11770833333333997,
                    "durationTicks": 113,
                    "midi": 92,
                    "name": "G#6",
                    "ticks": 74040,
                    "time": 77.125,
                    "velocity": 0.9921259842519685
                },
                {
                    "duration": 0.11770833333333997,
                    "durationTicks": 113,
                    "midi": 91,
                    "name": "G6",
                    "ticks": 74160,
                    "time": 77.25,
                    "velocity": 0.9921259842519685
                },
                {
                    "duration": 0.11770833333333997,
                    "durationTicks": 113,
                    "midi": 90,
                    "name": "F#6",
                    "ticks": 74280,
                    "time": 77.375,
                    "velocity": 0.9921259842519685
                },
                {
                    "duration": 0.11770833333333997,
                    "durationTicks": 113,
                    "midi": 89,
                    "name": "F6",
                    "ticks": 74400,
                    "time": 77.5,
                    "velocity": 0.9921259842519685
                },
                {
                    "duration": 0.11770833333333997,
                    "durationTicks": 113,
                    "midi": 88,
                    "name": "E6",
                    "ticks": 74520,
                    "time": 77.625,
                    "velocity": 0.9921259842519685
                },
                {
                    "duration": 0.11770833333333997,
                    "durationTicks": 113,
                    "midi": 87,
                    "name": "D#6",
                    "ticks": 74640,
                    "time": 77.75,
                    "velocity": 0.9921259842519685
                },
                {
                    "duration": 0.11770833333333997,
                    "durationTicks": 113,
                    "midi": 86,
                    "name": "D6",
                    "ticks": 74760,
                    "time": 77.875,
                    "velocity": 0.9921259842519685
                },
                {
                    "duration": 0.9489583333333371,
                    "durationTicks": 911,
                    "midi": 80,
                    "name": "G#5",
                    "ticks": 74880,
                    "time": 78,
                    "velocity": 0.9921259842519685
                },
                {
                    "duration": 0.9489583333333371,
                    "durationTicks": 911,
                    "midi": 85,
                    "name": "C#6",
                    "ticks": 74880,
                    "time": 78,
                    "velocity": 0.9921259842519685
                },
                {
                    "duration": 1.4239583333333314,
                    "durationTicks": 1367,
                    "midi": 86,
                    "name": "D6",
                    "ticks": 75360,
                    "time": 78.5,
                    "velocity": 0.9921259842519685
                },
                {
                    "duration": 0.9489583333333371,
                    "durationTicks": 911,
                    "midi": 82,
                    "name": "A#5",
                    "ticks": 75840,
                    "time": 79,
                    "velocity": 0.9921259842519685
                },
                {
                    "duration": 0.9489583333333371,
                    "durationTicks": 911,
                    "midi": 87,
                    "name": "D#6",
                    "ticks": 75840,
                    "time": 79,
                    "velocity": 0.9921259842519685
                },
                {
                    "duration": 1.4239583333333314,
                    "durationTicks": 1367,
                    "midi": 58,
                    "name": "A#3",
                    "ticks": 76800,
                    "time": 80,
                    "velocity": 0.9921259842519685
                },
                {
                    "duration": 0.4739583333333286,
                    "durationTicks": 455,
                    "midi": 65,
                    "name": "F4",
                    "ticks": 78240,
                    "time": 81.5,
                    "velocity": 0.9921259842519685
                },
                {
                    "duration": 0.9489583333333371,
                    "durationTicks": 911,
                    "midi": 64,
                    "name": "E4",
                    "ticks": 78720,
                    "time": 82,
                    "velocity": 0.9921259842519685
                },
                {
                    "duration": 0.9489583333333371,
                    "durationTicks": 911,
                    "midi": 62,
                    "name": "D4",
                    "ticks": 79680,
                    "time": 83,
                    "velocity": 0.9921259842519685
                },
                {
                    "duration": 1.89895833333334,
                    "durationTicks": 1823,
                    "midi": 65,
                    "name": "F4",
                    "ticks": 80640,
                    "time": 84,
                    "velocity": 0.9921259842519685
                },
                {
                    "duration": 1.4239583333333314,
                    "durationTicks": 1367,
                    "midi": 58,
                    "name": "A#3",
                    "ticks": 84480,
                    "time": 88,
                    "velocity": 0.9921259842519685
                },
                {
                    "duration": 0.4739583333333286,
                    "durationTicks": 455,
                    "midi": 65,
                    "name": "F4",
                    "ticks": 85920,
                    "time": 89.5,
                    "velocity": 0.9921259842519685
                },
                {
                    "duration": 0.9489583333333371,
                    "durationTicks": 911,
                    "midi": 64,
                    "name": "E4",
                    "ticks": 86400,
                    "time": 90,
                    "velocity": 0.9921259842519685
                },
                {
                    "duration": 0.9489583333333371,
                    "durationTicks": 911,
                    "midi": 62,
                    "name": "D4",
                    "ticks": 87360,
                    "time": 91,
                    "velocity": 0.9921259842519685
                },
                {
                    "duration": 2.3739583333333343,
                    "durationTicks": 2279,
                    "midi": 62,
                    "name": "D4",
                    "ticks": 88320,
                    "time": 92,
                    "velocity": 0.9921259842519685
                },
                {
                    "duration": 0.07604166666666856,
                    "durationTicks": 73,
                    "midi": 62,
                    "name": "D4",
                    "ticks": 90720,
                    "time": 94.5,
                    "velocity": 0.9921259842519685
                },
                {
                    "duration": 0.07604166666666856,
                    "durationTicks": 73,
                    "midi": 62,
                    "name": "D4",
                    "ticks": 90720,
                    "time": 94.5,
                    "velocity": 0.9921259842519685
                },
                {
                    "duration": 0.07604166666666856,
                    "durationTicks": 73,
                    "midi": 62,
                    "name": "D4",
                    "ticks": 90720,
                    "time": 94.5,
                    "velocity": 0.6299212598425197
                },
                {
                    "duration": 0.07604166666666856,
                    "durationTicks": 73,
                    "midi": 61,
                    "name": "C#4",
                    "ticks": 90799,
                    "time": 94.58229166666666,
                    "velocity": 0.9921259842519685
                },
                {
                    "duration": 0.07604166666666856,
                    "durationTicks": 73,
                    "midi": 61,
                    "name": "C#4",
                    "ticks": 90799,
                    "time": 94.58229166666666,
                    "velocity": 0.9921259842519685
                },
                {
                    "duration": 0.07604166666666856,
                    "durationTicks": 73,
                    "midi": 61,
                    "name": "C#4",
                    "ticks": 90799,
                    "time": 94.58229166666666,
                    "velocity": 0.6299212598425197
                },
                {
                    "duration": 0.07604166666665435,
                    "durationTicks": 73,
                    "midi": 60,
                    "name": "C4",
                    "ticks": 90879,
                    "time": 94.665625,
                    "velocity": 0.9921259842519685
                },
                {
                    "duration": 0.07604166666665435,
                    "durationTicks": 73,
                    "midi": 60,
                    "name": "C4",
                    "ticks": 90879,
                    "time": 94.665625,
                    "velocity": 0.9921259842519685
                },
                {
                    "duration": 0.07604166666665435,
                    "durationTicks": 73,
                    "midi": 60,
                    "name": "C4",
                    "ticks": 90879,
                    "time": 94.665625,
                    "velocity": 0.6299212598425197
                },
                {
                    "duration": 0.07604166666666856,
                    "durationTicks": 73,
                    "midi": 59,
                    "name": "B3",
                    "ticks": 90960,
                    "time": 94.75,
                    "velocity": 0.9921259842519685
                },
                {
                    "duration": 0.07604166666666856,
                    "durationTicks": 73,
                    "midi": 59,
                    "name": "B3",
                    "ticks": 90960,
                    "time": 94.75,
                    "velocity": 0.9921259842519685
                },
                {
                    "duration": 0.07604166666666856,
                    "durationTicks": 73,
                    "midi": 59,
                    "name": "B3",
                    "ticks": 90960,
                    "time": 94.75,
                    "velocity": 0.6299212598425197
                },
                {
                    "duration": 0.07604166666666856,
                    "durationTicks": 73,
                    "midi": 58,
                    "name": "A#3",
                    "ticks": 91039,
                    "time": 94.83229166666666,
                    "velocity": 0.9921259842519685
                },
                {
                    "duration": 0.07604166666666856,
                    "durationTicks": 73,
                    "midi": 58,
                    "name": "A#3",
                    "ticks": 91039,
                    "time": 94.83229166666666,
                    "velocity": 0.9921259842519685
                },
                {
                    "duration": 0.07604166666666856,
                    "durationTicks": 73,
                    "midi": 58,
                    "name": "A#3",
                    "ticks": 91039,
                    "time": 94.83229166666666,
                    "velocity": 0.6299212598425197
                },
                {
                    "duration": 0.07604166666665435,
                    "durationTicks": 73,
                    "midi": 57,
                    "name": "A3",
                    "ticks": 91119,
                    "time": 94.915625,
                    "velocity": 0.9921259842519685
                },
                {
                    "duration": 0.07604166666665435,
                    "durationTicks": 73,
                    "midi": 57,
                    "name": "A3",
                    "ticks": 91119,
                    "time": 94.915625,
                    "velocity": 0.9921259842519685
                },
                {
                    "duration": 0.07604166666665435,
                    "durationTicks": 73,
                    "midi": 57,
                    "name": "A3",
                    "ticks": 91119,
                    "time": 94.915625,
                    "velocity": 0.6299212598425197
                },
                {
                    "duration": 0.07604166666666856,
                    "durationTicks": 73,
                    "midi": 56,
                    "name": "G#3",
                    "ticks": 91200,
                    "time": 95,
                    "velocity": 0.9921259842519685
                },
                {
                    "duration": 0.07604166666666856,
                    "durationTicks": 73,
                    "midi": 56,
                    "name": "G#3",
                    "ticks": 91200,
                    "time": 95,
                    "velocity": 0.9921259842519685
                },
                {
                    "duration": 0.07604166666666856,
                    "durationTicks": 73,
                    "midi": 56,
                    "name": "G#3",
                    "ticks": 91200,
                    "time": 95,
                    "velocity": 0.6299212598425197
                },
                {
                    "duration": 0.07604166666666856,
                    "durationTicks": 73,
                    "midi": 55,
                    "name": "G3",
                    "ticks": 91279,
                    "time": 95.08229166666666,
                    "velocity": 0.9921259842519685
                },
                {
                    "duration": 0.07604166666666856,
                    "durationTicks": 73,
                    "midi": 55,
                    "name": "G3",
                    "ticks": 91279,
                    "time": 95.08229166666666,
                    "velocity": 0.9921259842519685
                },
                {
                    "duration": 0.07604166666666856,
                    "durationTicks": 73,
                    "midi": 55,
                    "name": "G3",
                    "ticks": 91279,
                    "time": 95.08229166666666,
                    "velocity": 0.6299212598425197
                },
                {
                    "duration": 0.07604166666665435,
                    "durationTicks": 73,
                    "midi": 54,
                    "name": "F#3",
                    "ticks": 91359,
                    "time": 95.165625,
                    "velocity": 0.9921259842519685
                },
                {
                    "duration": 0.07604166666665435,
                    "durationTicks": 73,
                    "midi": 54,
                    "name": "F#3",
                    "ticks": 91359,
                    "time": 95.165625,
                    "velocity": 0.9921259842519685
                },
                {
                    "duration": 0.07604166666665435,
                    "durationTicks": 73,
                    "midi": 54,
                    "name": "F#3",
                    "ticks": 91359,
                    "time": 95.165625,
                    "velocity": 0.6299212598425197
                },
                {
                    "duration": 0.07604166666666856,
                    "durationTicks": 73,
                    "midi": 53,
                    "name": "F3",
                    "ticks": 91440,
                    "time": 95.25,
                    "velocity": 0.9921259842519685
                },
                {
                    "duration": 0.07604166666666856,
                    "durationTicks": 73,
                    "midi": 53,
                    "name": "F3",
                    "ticks": 91440,
                    "time": 95.25,
                    "velocity": 0.9921259842519685
                },
                {
                    "duration": 0.07604166666666856,
                    "durationTicks": 73,
                    "midi": 53,
                    "name": "F3",
                    "ticks": 91440,
                    "time": 95.25,
                    "velocity": 0.6299212598425197
                },
                {
                    "duration": 0.07604166666666856,
                    "durationTicks": 73,
                    "midi": 52,
                    "name": "E3",
                    "ticks": 91519,
                    "time": 95.33229166666666,
                    "velocity": 0.9921259842519685
                },
                {
                    "duration": 0.07604166666666856,
                    "durationTicks": 73,
                    "midi": 52,
                    "name": "E3",
                    "ticks": 91519,
                    "time": 95.33229166666666,
                    "velocity": 0.9921259842519685
                },
                {
                    "duration": 0.07604166666666856,
                    "durationTicks": 73,
                    "midi": 52,
                    "name": "E3",
                    "ticks": 91519,
                    "time": 95.33229166666666,
                    "velocity": 0.6299212598425197
                },
                {
                    "duration": 0.07604166666665435,
                    "durationTicks": 73,
                    "midi": 51,
                    "name": "D#3",
                    "ticks": 91599,
                    "time": 95.415625,
                    "velocity": 0.9921259842519685
                },
                {
                    "duration": 0.07604166666665435,
                    "durationTicks": 73,
                    "midi": 51,
                    "name": "D#3",
                    "ticks": 91599,
                    "time": 95.415625,
                    "velocity": 0.9921259842519685
                },
                {
                    "duration": 0.07604166666665435,
                    "durationTicks": 73,
                    "midi": 51,
                    "name": "D#3",
                    "ticks": 91599,
                    "time": 95.415625,
                    "velocity": 0.6299212598425197
                },
                {
                    "duration": 0.4739583333333286,
                    "durationTicks": 455,
                    "midi": 50,
                    "name": "D3",
                    "ticks": 91680,
                    "time": 95.5,
                    "velocity": 0.6299212598425197
                },
                {
                    "duration": 1.4239583333333314,
                    "durationTicks": 1367,
                    "midi": 58,
                    "name": "A#3",
                    "ticks": 92160,
                    "time": 96,
                    "velocity": 0.8818897637795275
                },
                {
                    "duration": 0.4739583333333286,
                    "durationTicks": 455,
                    "midi": 65,
                    "name": "F4",
                    "ticks": 93600,
                    "time": 97.5,
                    "velocity": 0.8818897637795275
                },
                {
                    "duration": 0.9489583333333371,
                    "durationTicks": 911,
                    "midi": 64,
                    "name": "E4",
                    "ticks": 94080,
                    "time": 98,
                    "velocity": 0.8818897637795275
                },
                {
                    "duration": 0.9489583333333371,
                    "durationTicks": 911,
                    "midi": 62,
                    "name": "D4",
                    "ticks": 95040,
                    "time": 99,
                    "velocity": 0.8818897637795275
                },
                {
                    "duration": 1.89895833333334,
                    "durationTicks": 1823,
                    "midi": 65,
                    "name": "F4",
                    "ticks": 96000,
                    "time": 100,
                    "velocity": 0.8818897637795275
                },
                {
                    "duration": 0.11770833333333997,
                    "durationTicks": 113,
                    "midi": 79,
                    "name": "G5",
                    "ticks": 97920,
                    "time": 102,
                    "velocity": 0.5039370078740157
                },
                {
                    "duration": 0.11770833333333997,
                    "durationTicks": 113,
                    "midi": 86,
                    "name": "D6",
                    "ticks": 98040,
                    "time": 102.125,
                    "velocity": 0.5039370078740157
                },
                {
                    "duration": 0.11770833333333997,
                    "durationTicks": 113,
                    "midi": 89,
                    "name": "F6",
                    "ticks": 98160,
                    "time": 102.25,
                    "velocity": 0.5039370078740157
                },
                {
                    "duration": 0.11770833333333997,
                    "durationTicks": 113,
                    "midi": 86,
                    "name": "D6",
                    "ticks": 98280,
                    "time": 102.375,
                    "velocity": 0.5039370078740157
                },
                {
                    "duration": 0.23645833333333144,
                    "durationTicks": 227,
                    "midi": 91,
                    "name": "G6",
                    "ticks": 98400,
                    "time": 102.5,
                    "velocity": 0.5039370078740157
                },
                {
                    "duration": 0.23645833333333144,
                    "durationTicks": 227,
                    "midi": 89,
                    "name": "F6",
                    "ticks": 98640,
                    "time": 102.75,
                    "velocity": 0.5039370078740157
                },
                {
                    "duration": 0.11770833333333997,
                    "durationTicks": 113,
                    "midi": 86,
                    "name": "D6",
                    "ticks": 98880,
                    "time": 103,
                    "velocity": 0.5039370078740157
                },
                {
                    "duration": 0.11770833333333997,
                    "durationTicks": 113,
                    "midi": 84,
                    "name": "C6",
                    "ticks": 99000,
                    "time": 103.125,
                    "velocity": 0.5039370078740157
                },
                {
                    "duration": 0.4739583333333286,
                    "durationTicks": 455,
                    "midi": 79,
                    "name": "G5",
                    "ticks": 99360,
                    "time": 103.5,
                    "velocity": 0.5039370078740157
                },
                {
                    "duration": 1.4239583333333314,
                    "durationTicks": 1367,
                    "midi": 58,
                    "name": "A#3",
                    "ticks": 99840,
                    "time": 104,
                    "velocity": 0.8818897637795275
                },
                {
                    "duration": 0.4739583333333286,
                    "durationTicks": 455,
                    "midi": 65,
                    "name": "F4",
                    "ticks": 101280,
                    "time": 105.5,
                    "velocity": 0.8818897637795275
                },
                {
                    "duration": 0.9489583333333371,
                    "durationTicks": 911,
                    "midi": 64,
                    "name": "E4",
                    "ticks": 101760,
                    "time": 106,
                    "velocity": 0.8818897637795275
                },
                {
                    "duration": 0.9489583333333371,
                    "durationTicks": 911,
                    "midi": 62,
                    "name": "D4",
                    "ticks": 102720,
                    "time": 107,
                    "velocity": 0.8818897637795275
                },
                {
                    "duration": 0.23645833333333144,
                    "durationTicks": 227,
                    "midi": 62,
                    "name": "D4",
                    "ticks": 103680,
                    "time": 108,
                    "velocity": 0.8818897637795275
                },
                {
                    "duration": 0.12395833333333428,
                    "durationTicks": 119,
                    "midi": 65,
                    "name": "F4",
                    "ticks": 103920,
                    "time": 108.25,
                    "velocity": 0.6299212598425197
                },
                {
                    "duration": 0.12395833333333428,
                    "durationTicks": 119,
                    "midi": 77,
                    "name": "F5",
                    "ticks": 103920,
                    "time": 108.25,
                    "velocity": 0.6299212598425197
                },
                {
                    "duration": 0.12395833333333428,
                    "durationTicks": 119,
                    "midi": 64,
                    "name": "E4",
                    "ticks": 104160,
                    "time": 108.5,
                    "velocity": 0.6299212598425197
                },
                {
                    "duration": 0.12395833333333428,
                    "durationTicks": 119,
                    "midi": 76,
                    "name": "E5",
                    "ticks": 104160,
                    "time": 108.5,
                    "velocity": 0.6299212598425197
                },
                {
                    "duration": 0.12395833333333428,
                    "durationTicks": 119,
                    "midi": 60,
                    "name": "C4",
                    "ticks": 104520,
                    "time": 108.875,
                    "velocity": 0.6299212598425197
                },
                {
                    "duration": 0.12395833333333428,
                    "durationTicks": 119,
                    "midi": 72,
                    "name": "C5",
                    "ticks": 104520,
                    "time": 108.875,
                    "velocity": 0.6299212598425197
                },
                {
                    "duration": 0.12395833333333428,
                    "durationTicks": 119,
                    "midi": 64,
                    "name": "E4",
                    "ticks": 104760,
                    "time": 109.125,
                    "velocity": 0.6299212598425197
                },
                {
                    "duration": 0.12395833333333428,
                    "durationTicks": 119,
                    "midi": 76,
                    "name": "E5",
                    "ticks": 104760,
                    "time": 109.125,
                    "velocity": 0.6299212598425197
                },
                {
                    "duration": 0.23645833333333144,
                    "durationTicks": 227,
                    "midi": 62,
                    "name": "D4",
                    "ticks": 105000,
                    "time": 109.375,
                    "velocity": 0.6299212598425197
                },
                {
                    "duration": 0.23645833333333144,
                    "durationTicks": 227,
                    "midi": 74,
                    "name": "D5",
                    "ticks": 105000,
                    "time": 109.375,
                    "velocity": 0.6299212598425197
                },
                {
                    "duration": 0.11770833333333997,
                    "durationTicks": 113,
                    "midi": 67,
                    "name": "G4",
                    "ticks": 105240,
                    "time": 109.625,
                    "velocity": 0.3858267716535433
                },
                {
                    "duration": 0.11770833333333997,
                    "durationTicks": 113,
                    "midi": 69,
                    "name": "A4",
                    "ticks": 105360,
                    "time": 109.75,
                    "velocity": 0.3858267716535433
                },
                {
                    "duration": 0.11770833333333997,
                    "durationTicks": 113,
                    "midi": 72,
                    "name": "C5",
                    "ticks": 105480,
                    "time": 109.875,
                    "velocity": 0.3858267716535433
                },
                {
                    "duration": 0.12395833333333428,
                    "durationTicks": 119,
                    "midi": 65,
                    "name": "F4",
                    "ticks": 105840,
                    "time": 110.25,
                    "velocity": 0.6299212598425197
                },
                {
                    "duration": 0.12395833333333428,
                    "durationTicks": 119,
                    "midi": 77,
                    "name": "F5",
                    "ticks": 105840,
                    "time": 110.25,
                    "velocity": 0.6299212598425197
                },
                {
                    "duration": 0.12395833333333428,
                    "durationTicks": 119,
                    "midi": 64,
                    "name": "E4",
                    "ticks": 106080,
                    "time": 110.5,
                    "velocity": 0.6299212598425197
                },
                {
                    "duration": 0.12395833333333428,
                    "durationTicks": 119,
                    "midi": 76,
                    "name": "E5",
                    "ticks": 106080,
                    "time": 110.5,
                    "velocity": 0.6299212598425197
                },
                {
                    "duration": 0.12395833333333428,
                    "durationTicks": 119,
                    "midi": 60,
                    "name": "C4",
                    "ticks": 106440,
                    "time": 110.875,
                    "velocity": 0.6299212598425197
                },
                {
                    "duration": 0.12395833333333428,
                    "durationTicks": 119,
                    "midi": 72,
                    "name": "C5",
                    "ticks": 106440,
                    "time": 110.875,
                    "velocity": 0.6299212598425197
                },
                {
                    "duration": 0.12395833333333428,
                    "durationTicks": 119,
                    "midi": 64,
                    "name": "E4",
                    "ticks": 106680,
                    "time": 111.125,
                    "velocity": 0.6299212598425197
                },
                {
                    "duration": 0.12395833333333428,
                    "durationTicks": 119,
                    "midi": 76,
                    "name": "E5",
                    "ticks": 106680,
                    "time": 111.125,
                    "velocity": 0.6299212598425197
                },
                {
                    "duration": 0.23645833333333144,
                    "durationTicks": 227,
                    "midi": 62,
                    "name": "D4",
                    "ticks": 106920,
                    "time": 111.375,
                    "velocity": 0.6299212598425197
                },
                {
                    "duration": 0.23645833333333144,
                    "durationTicks": 227,
                    "midi": 74,
                    "name": "D5",
                    "ticks": 106920,
                    "time": 111.375,
                    "velocity": 0.6299212598425197
                },
                {
                    "duration": 0.11770833333333997,
                    "durationTicks": 113,
                    "midi": 67,
                    "name": "G4",
                    "ticks": 107160,
                    "time": 111.625,
                    "velocity": 0.3858267716535433
                },
                {
                    "duration": 0.11770833333333997,
                    "durationTicks": 113,
                    "midi": 69,
                    "name": "A4",
                    "ticks": 107280,
                    "time": 111.75,
                    "velocity": 0.3858267716535433
                },
                {
                    "duration": 0.11770833333333997,
                    "durationTicks": 113,
                    "midi": 72,
                    "name": "C5",
                    "ticks": 107400,
                    "time": 111.875,
                    "velocity": 0.3858267716535433
                },
                {
                    "duration": 0.11770833333332575,
                    "durationTicks": 113,
                    "midi": 58,
                    "name": "A#3",
                    "ticks": 138240,
                    "time": 144,
                    "velocity": 0.7559055118110236
                },
                {
                    "duration": 0.11770833333332575,
                    "durationTicks": 113,
                    "midi": 58,
                    "name": "A#3",
                    "ticks": 138360,
                    "time": 144.125,
                    "velocity": 0.7559055118110236
                },
                {
                    "duration": 0.12395833333332007,
                    "durationTicks": 119,
                    "midi": 74,
                    "name": "D5",
                    "ticks": 138480,
                    "time": 144.25,
                    "velocity": 0.7559055118110236
                },
                {
                    "duration": 0.12395833333332007,
                    "durationTicks": 119,
                    "midi": 69,
                    "name": "A4",
                    "ticks": 138720,
                    "time": 144.5,
                    "velocity": 0.7559055118110236
                },
                {
                    "duration": 0.12395833333332007,
                    "durationTicks": 119,
                    "midi": 68,
                    "name": "G#4",
                    "ticks": 139080,
                    "time": 144.875,
                    "velocity": 0.7559055118110236
                },
                {
                    "duration": 0.12395833333332007,
                    "durationTicks": 119,
                    "midi": 67,
                    "name": "G4",
                    "ticks": 139320,
                    "time": 145.125,
                    "velocity": 0.7559055118110236
                },
                {
                    "duration": 0.23645833333333144,
                    "durationTicks": 227,
                    "midi": 65,
                    "name": "F4",
                    "ticks": 139560,
                    "time": 145.375,
                    "velocity": 0.7559055118110236
                },
                {
                    "duration": 0.11770833333332575,
                    "durationTicks": 113,
                    "midi": 62,
                    "name": "D4",
                    "ticks": 139800,
                    "time": 145.625,
                    "velocity": 0.7559055118110236
                },
                {
                    "duration": 0.11770833333332575,
                    "durationTicks": 113,
                    "midi": 65,
                    "name": "F4",
                    "ticks": 139920,
                    "time": 145.75,
                    "velocity": 0.7559055118110236
                },
                {
                    "duration": 0.11770833333332575,
                    "durationTicks": 113,
                    "midi": 67,
                    "name": "G4",
                    "ticks": 140040,
                    "time": 145.875,
                    "velocity": 0.7559055118110236
                },
                {
                    "duration": 0.11770833333332575,
                    "durationTicks": 113,
                    "midi": 60,
                    "name": "C4",
                    "ticks": 140160,
                    "time": 146,
                    "velocity": 0.7559055118110236
                },
                {
                    "duration": 0.11770833333332575,
                    "durationTicks": 113,
                    "midi": 60,
                    "name": "C4",
                    "ticks": 140280,
                    "time": 146.125,
                    "velocity": 0.7559055118110236
                },
                {
                    "duration": 0.12395833333332007,
                    "durationTicks": 119,
                    "midi": 74,
                    "name": "D5",
                    "ticks": 140400,
                    "time": 146.25,
                    "velocity": 0.7559055118110236
                },
                {
                    "duration": 0.12395833333332007,
                    "durationTicks": 119,
                    "midi": 69,
                    "name": "A4",
                    "ticks": 140640,
                    "time": 146.5,
                    "velocity": 0.7559055118110236
                },
                {
                    "duration": 0.12395833333332007,
                    "durationTicks": 119,
                    "midi": 68,
                    "name": "G#4",
                    "ticks": 141000,
                    "time": 146.875,
                    "velocity": 0.7559055118110236
                },
                {
                    "duration": 0.12395833333332007,
                    "durationTicks": 119,
                    "midi": 67,
                    "name": "G4",
                    "ticks": 141240,
                    "time": 147.125,
                    "velocity": 0.7559055118110236
                },
                {
                    "duration": 0.23645833333333144,
                    "durationTicks": 227,
                    "midi": 65,
                    "name": "F4",
                    "ticks": 141480,
                    "time": 147.375,
                    "velocity": 0.7559055118110236
                },
                {
                    "duration": 0.11770833333332575,
                    "durationTicks": 113,
                    "midi": 62,
                    "name": "D4",
                    "ticks": 141720,
                    "time": 147.625,
                    "velocity": 0.7559055118110236
                },
                {
                    "duration": 0.11770833333332575,
                    "durationTicks": 113,
                    "midi": 65,
                    "name": "F4",
                    "ticks": 141840,
                    "time": 147.75,
                    "velocity": 0.7559055118110236
                },
                {
                    "duration": 0.11770833333332575,
                    "durationTicks": 113,
                    "midi": 67,
                    "name": "G4",
                    "ticks": 141960,
                    "time": 147.875,
                    "velocity": 0.7559055118110236
                },
                {
                    "duration": 0.23645833333333144,
                    "durationTicks": 227,
                    "midi": 62,
                    "name": "D4",
                    "ticks": 142080,
                    "time": 148,
                    "velocity": 0.7559055118110236
                }
            ],
            "endOfTrackTicks": 142308
        },
        {
            "channel": 1,
            "controlChanges": {
                "7": [
                    {
                        "number": 7,
                        "ticks": 0,
                        "time": 0,
                        "value": 0.7874015748031497
                    }
                ],
                "10": [
                    {
                        "number": 10,
                        "ticks": 0,
                        "time": 0,
                        "value": 0.5039370078740157
                    }
                ],
                "64": [
                    {
                        "number": 64,
                        "ticks": 15362,
                        "time": 16.002083333333335,
                        "value": 1
                    },
                    {
                        "number": 64,
                        "ticks": 15841,
                        "time": 16.501041666666666,
                        "value": 0
                    },
                    {
                        "number": 64,
                        "ticks": 15842,
                        "time": 16.502083333333335,
                        "value": 1
                    },
                    {
                        "number": 64,
                        "ticks": 16201,
                        "time": 16.876041666666666,
                        "value": 0
                    },
                    {
                        "number": 64,
                        "ticks": 16202,
                        "time": 16.877083333333335,
                        "value": 1
                    },
                    {
                        "number": 64,
                        "ticks": 16681,
                        "time": 17.376041666666666,
                        "value": 0
                    },
                    {
                        "number": 64,
                        "ticks": 16682,
                        "time": 17.377083333333335,
                        "value": 1
                    },
                    {
                        "number": 64,
                        "ticks": 17281,
                        "time": 18.001041666666666,
                        "value": 0
                    },
                    {
                        "number": 64,
                        "ticks": 17282,
                        "time": 18.002083333333335,
                        "value": 1
                    },
                    {
                        "number": 64,
                        "ticks": 17761,
                        "time": 18.501041666666666,
                        "value": 0
                    },
                    {
                        "number": 64,
                        "ticks": 17762,
                        "time": 18.502083333333335,
                        "value": 1
                    },
                    {
                        "number": 64,
                        "ticks": 18121,
                        "time": 18.876041666666666,
                        "value": 0
                    },
                    {
                        "number": 64,
                        "ticks": 18122,
                        "time": 18.877083333333335,
                        "value": 1
                    },
                    {
                        "number": 64,
                        "ticks": 18601,
                        "time": 19.376041666666666,
                        "value": 0
                    },
                    {
                        "number": 64,
                        "ticks": 18602,
                        "time": 19.377083333333335,
                        "value": 1
                    },
                    {
                        "number": 64,
                        "ticks": 19201,
                        "time": 20.001041666666666,
                        "value": 0
                    },
                    {
                        "number": 64,
                        "ticks": 19202,
                        "time": 20.002083333333335,
                        "value": 1
                    },
                    {
                        "number": 64,
                        "ticks": 19681,
                        "time": 20.501041666666666,
                        "value": 0
                    },
                    {
                        "number": 64,
                        "ticks": 19682,
                        "time": 20.502083333333335,
                        "value": 1
                    },
                    {
                        "number": 64,
                        "ticks": 20041,
                        "time": 20.876041666666666,
                        "value": 0
                    },
                    {
                        "number": 64,
                        "ticks": 20042,
                        "time": 20.877083333333335,
                        "value": 1
                    },
                    {
                        "number": 64,
                        "ticks": 20521,
                        "time": 21.376041666666666,
                        "value": 0
                    },
                    {
                        "number": 64,
                        "ticks": 20522,
                        "time": 21.377083333333335,
                        "value": 1
                    },
                    {
                        "number": 64,
                        "ticks": 21121,
                        "time": 22.001041666666666,
                        "value": 0
                    },
                    {
                        "number": 64,
                        "ticks": 21122,
                        "time": 22.002083333333335,
                        "value": 1
                    },
                    {
                        "number": 64,
                        "ticks": 21601,
                        "time": 22.501041666666666,
                        "value": 0
                    },
                    {
                        "number": 64,
                        "ticks": 21602,
                        "time": 22.502083333333335,
                        "value": 1
                    },
                    {
                        "number": 64,
                        "ticks": 21961,
                        "time": 22.876041666666666,
                        "value": 0
                    },
                    {
                        "number": 64,
                        "ticks": 21962,
                        "time": 22.877083333333335,
                        "value": 1
                    },
                    {
                        "number": 64,
                        "ticks": 22441,
                        "time": 23.376041666666666,
                        "value": 0
                    },
                    {
                        "number": 64,
                        "ticks": 22442,
                        "time": 23.377083333333335,
                        "value": 1
                    },
                    {
                        "number": 64,
                        "ticks": 23041,
                        "time": 24.001041666666666,
                        "value": 0
                    },
                    {
                        "number": 64,
                        "ticks": 23042,
                        "time": 24.002083333333335,
                        "value": 1
                    },
                    {
                        "number": 64,
                        "ticks": 23521,
                        "time": 24.501041666666666,
                        "value": 0
                    },
                    {
                        "number": 64,
                        "ticks": 23522,
                        "time": 24.502083333333335,
                        "value": 1
                    },
                    {
                        "number": 64,
                        "ticks": 23881,
                        "time": 24.876041666666666,
                        "value": 0
                    },
                    {
                        "number": 64,
                        "ticks": 23882,
                        "time": 24.877083333333335,
                        "value": 1
                    },
                    {
                        "number": 64,
                        "ticks": 24361,
                        "time": 25.376041666666666,
                        "value": 0
                    },
                    {
                        "number": 64,
                        "ticks": 24362,
                        "time": 25.377083333333335,
                        "value": 1
                    },
                    {
                        "number": 64,
                        "ticks": 24961,
                        "time": 26.001041666666666,
                        "value": 0
                    },
                    {
                        "number": 64,
                        "ticks": 24962,
                        "time": 26.002083333333335,
                        "value": 1
                    },
                    {
                        "number": 64,
                        "ticks": 25441,
                        "time": 26.501041666666666,
                        "value": 0
                    },
                    {
                        "number": 64,
                        "ticks": 25442,
                        "time": 26.502083333333335,
                        "value": 1
                    },
                    {
                        "number": 64,
                        "ticks": 25801,
                        "time": 26.876041666666666,
                        "value": 0
                    },
                    {
                        "number": 64,
                        "ticks": 25802,
                        "time": 26.877083333333335,
                        "value": 1
                    },
                    {
                        "number": 64,
                        "ticks": 26281,
                        "time": 27.376041666666666,
                        "value": 0
                    },
                    {
                        "number": 64,
                        "ticks": 26282,
                        "time": 27.377083333333335,
                        "value": 1
                    },
                    {
                        "number": 64,
                        "ticks": 26881,
                        "time": 28.001041666666666,
                        "value": 0
                    },
                    {
                        "number": 64,
                        "ticks": 26882,
                        "time": 28.002083333333335,
                        "value": 1
                    },
                    {
                        "number": 64,
                        "ticks": 27361,
                        "time": 28.501041666666666,
                        "value": 0
                    },
                    {
                        "number": 64,
                        "ticks": 27362,
                        "time": 28.502083333333335,
                        "value": 1
                    },
                    {
                        "number": 64,
                        "ticks": 27721,
                        "time": 28.876041666666666,
                        "value": 0
                    },
                    {
                        "number": 64,
                        "ticks": 27722,
                        "time": 28.877083333333335,
                        "value": 1
                    },
                    {
                        "number": 64,
                        "ticks": 28201,
                        "time": 29.376041666666666,
                        "value": 0
                    },
                    {
                        "number": 64,
                        "ticks": 28202,
                        "time": 29.377083333333335,
                        "value": 1
                    },
                    {
                        "number": 64,
                        "ticks": 28801,
                        "time": 30.001041666666666,
                        "value": 0
                    },
                    {
                        "number": 64,
                        "ticks": 28802,
                        "time": 30.002083333333335,
                        "value": 1
                    },
                    {
                        "number": 64,
                        "ticks": 29281,
                        "time": 30.501041666666666,
                        "value": 0
                    },
                    {
                        "number": 64,
                        "ticks": 29282,
                        "time": 30.502083333333335,
                        "value": 1
                    },
                    {
                        "number": 64,
                        "ticks": 29641,
                        "time": 30.876041666666666,
                        "value": 0
                    },
                    {
                        "number": 64,
                        "ticks": 29642,
                        "time": 30.877083333333335,
                        "value": 1
                    },
                    {
                        "number": 64,
                        "ticks": 30121,
                        "time": 31.376041666666666,
                        "value": 0
                    },
                    {
                        "number": 64,
                        "ticks": 30122,
                        "time": 31.377083333333335,
                        "value": 1
                    },
                    {
                        "number": 64,
                        "ticks": 30721,
                        "time": 32.001041666666666,
                        "value": 0
                    },
                    {
                        "number": 64,
                        "ticks": 46082,
                        "time": 48.00208333333333,
                        "value": 1
                    },
                    {
                        "number": 64,
                        "ticks": 46561,
                        "time": 48.501041666666666,
                        "value": 0
                    },
                    {
                        "number": 64,
                        "ticks": 46922,
                        "time": 48.87708333333333,
                        "value": 1
                    },
                    {
                        "number": 64,
                        "ticks": 47401,
                        "time": 49.376041666666666,
                        "value": 0
                    },
                    {
                        "number": 64,
                        "ticks": 47402,
                        "time": 49.37708333333333,
                        "value": 1
                    },
                    {
                        "number": 64,
                        "ticks": 47761,
                        "time": 49.751041666666666,
                        "value": 0
                    },
                    {
                        "number": 64,
                        "ticks": 48002,
                        "time": 50.00208333333333,
                        "value": 1
                    },
                    {
                        "number": 64,
                        "ticks": 48481,
                        "time": 50.501041666666666,
                        "value": 0
                    },
                    {
                        "number": 64,
                        "ticks": 48842,
                        "time": 50.87708333333333,
                        "value": 1
                    },
                    {
                        "number": 64,
                        "ticks": 49321,
                        "time": 51.376041666666666,
                        "value": 0
                    },
                    {
                        "number": 64,
                        "ticks": 49322,
                        "time": 51.37708333333333,
                        "value": 1
                    },
                    {
                        "number": 64,
                        "ticks": 49681,
                        "time": 51.751041666666666,
                        "value": 0
                    },
                    {
                        "number": 64,
                        "ticks": 49922,
                        "time": 52.00208333333333,
                        "value": 1
                    },
                    {
                        "number": 64,
                        "ticks": 50401,
                        "time": 52.501041666666666,
                        "value": 0
                    },
                    {
                        "number": 64,
                        "ticks": 50762,
                        "time": 52.87708333333333,
                        "value": 1
                    },
                    {
                        "number": 64,
                        "ticks": 51241,
                        "time": 53.376041666666666,
                        "value": 0
                    },
                    {
                        "number": 64,
                        "ticks": 51242,
                        "time": 53.37708333333333,
                        "value": 1
                    },
                    {
                        "number": 64,
                        "ticks": 51601,
                        "time": 53.751041666666666,
                        "value": 0
                    },
                    {
                        "number": 64,
                        "ticks": 51842,
                        "time": 54.00208333333333,
                        "value": 1
                    },
                    {
                        "number": 64,
                        "ticks": 52321,
                        "time": 54.501041666666666,
                        "value": 0
                    },
                    {
                        "number": 64,
                        "ticks": 52682,
                        "time": 54.87708333333333,
                        "value": 1
                    },
                    {
                        "number": 64,
                        "ticks": 53161,
                        "time": 55.376041666666666,
                        "value": 0
                    },
                    {
                        "number": 64,
                        "ticks": 53162,
                        "time": 55.37708333333333,
                        "value": 1
                    },
                    {
                        "number": 64,
                        "ticks": 53521,
                        "time": 55.751041666666666,
                        "value": 0
                    },
                    {
                        "number": 64,
                        "ticks": 53762,
                        "time": 56.00208333333333,
                        "value": 1
                    },
                    {
                        "number": 64,
                        "ticks": 54241,
                        "time": 56.501041666666666,
                        "value": 0
                    },
                    {
                        "number": 64,
                        "ticks": 54602,
                        "time": 56.87708333333333,
                        "value": 1
                    },
                    {
                        "number": 64,
                        "ticks": 55081,
                        "time": 57.376041666666666,
                        "value": 0
                    },
                    {
                        "number": 64,
                        "ticks": 55082,
                        "time": 57.37708333333333,
                        "value": 1
                    },
                    {
                        "number": 64,
                        "ticks": 55441,
                        "time": 57.751041666666666,
                        "value": 0
                    },
                    {
                        "number": 64,
                        "ticks": 55682,
                        "time": 58.00208333333333,
                        "value": 1
                    },
                    {
                        "number": 64,
                        "ticks": 56161,
                        "time": 58.501041666666666,
                        "value": 0
                    },
                    {
                        "number": 64,
                        "ticks": 56522,
                        "time": 58.87708333333333,
                        "value": 1
                    },
                    {
                        "number": 64,
                        "ticks": 57001,
                        "time": 59.376041666666666,
                        "value": 0
                    },
                    {
                        "number": 64,
                        "ticks": 57002,
                        "time": 59.37708333333333,
                        "value": 1
                    },
                    {
                        "number": 64,
                        "ticks": 57361,
                        "time": 59.751041666666666,
                        "value": 0
                    },
                    {
                        "number": 64,
                        "ticks": 57602,
                        "time": 60.00208333333333,
                        "value": 1
                    },
                    {
                        "number": 64,
                        "ticks": 58081,
                        "time": 60.501041666666666,
                        "value": 0
                    },
                    {
                        "number": 64,
                        "ticks": 58442,
                        "time": 60.87708333333333,
                        "value": 1
                    },
                    {
                        "number": 64,
                        "ticks": 58921,
                        "time": 61.376041666666666,
                        "value": 0
                    },
                    {
                        "number": 64,
                        "ticks": 58922,
                        "time": 61.37708333333333,
                        "value": 1
                    },
                    {
                        "number": 64,
                        "ticks": 59281,
                        "time": 61.751041666666666,
                        "value": 0
                    },
                    {
                        "number": 64,
                        "ticks": 59522,
                        "time": 62.00208333333333,
                        "value": 1
                    },
                    {
                        "number": 64,
                        "ticks": 60001,
                        "time": 62.501041666666666,
                        "value": 0
                    },
                    {
                        "number": 64,
                        "ticks": 60362,
                        "time": 62.87708333333333,
                        "value": 1
                    },
                    {
                        "number": 64,
                        "ticks": 60841,
                        "time": 63.376041666666666,
                        "value": 0
                    },
                    {
                        "number": 64,
                        "ticks": 60842,
                        "time": 63.37708333333333,
                        "value": 1
                    },
                    {
                        "number": 64,
                        "ticks": 61201,
                        "time": 63.751041666666666,
                        "value": 0
                    },
                    {
                        "number": 64,
                        "ticks": 61442,
                        "time": 64.00208333333333,
                        "value": 1
                    },
                    {
                        "number": 64,
                        "ticks": 61921,
                        "time": 64.50104166666667,
                        "value": 0
                    },
                    {
                        "number": 64,
                        "ticks": 62282,
                        "time": 64.87708333333333,
                        "value": 1
                    },
                    {
                        "number": 64,
                        "ticks": 62761,
                        "time": 65.37604166666667,
                        "value": 0
                    },
                    {
                        "number": 64,
                        "ticks": 62762,
                        "time": 65.37708333333333,
                        "value": 1
                    },
                    {
                        "number": 64,
                        "ticks": 63121,
                        "time": 65.75104166666667,
                        "value": 0
                    },
                    {
                        "number": 64,
                        "ticks": 63362,
                        "time": 66.00208333333333,
                        "value": 1
                    },
                    {
                        "number": 64,
                        "ticks": 63841,
                        "time": 66.50104166666667,
                        "value": 0
                    },
                    {
                        "number": 64,
                        "ticks": 64202,
                        "time": 66.87708333333333,
                        "value": 1
                    },
                    {
                        "number": 64,
                        "ticks": 64681,
                        "time": 67.37604166666667,
                        "value": 0
                    },
                    {
                        "number": 64,
                        "ticks": 64682,
                        "time": 67.37708333333333,
                        "value": 1
                    },
                    {
                        "number": 64,
                        "ticks": 65041,
                        "time": 67.75104166666667,
                        "value": 0
                    },
                    {
                        "number": 64,
                        "ticks": 65282,
                        "time": 68.00208333333333,
                        "value": 1
                    },
                    {
                        "number": 64,
                        "ticks": 65761,
                        "time": 68.50104166666667,
                        "value": 0
                    },
                    {
                        "number": 64,
                        "ticks": 66122,
                        "time": 68.87708333333333,
                        "value": 1
                    },
                    {
                        "number": 64,
                        "ticks": 66601,
                        "time": 69.37604166666667,
                        "value": 0
                    },
                    {
                        "number": 64,
                        "ticks": 66602,
                        "time": 69.37708333333333,
                        "value": 1
                    },
                    {
                        "number": 64,
                        "ticks": 66961,
                        "time": 69.75104166666667,
                        "value": 0
                    },
                    {
                        "number": 64,
                        "ticks": 67202,
                        "time": 70.00208333333333,
                        "value": 1
                    },
                    {
                        "number": 64,
                        "ticks": 67681,
                        "time": 70.50104166666667,
                        "value": 0
                    },
                    {
                        "number": 64,
                        "ticks": 68042,
                        "time": 70.87708333333333,
                        "value": 1
                    },
                    {
                        "number": 64,
                        "ticks": 68521,
                        "time": 71.37604166666667,
                        "value": 0
                    },
                    {
                        "number": 64,
                        "ticks": 68522,
                        "time": 71.37708333333333,
                        "value": 1
                    },
                    {
                        "number": 64,
                        "ticks": 68881,
                        "time": 71.75104166666667,
                        "value": 0
                    },
                    {
                        "number": 64,
                        "ticks": 69122,
                        "time": 72.00208333333333,
                        "value": 1
                    },
                    {
                        "number": 64,
                        "ticks": 69601,
                        "time": 72.50104166666667,
                        "value": 0
                    },
                    {
                        "number": 64,
                        "ticks": 69962,
                        "time": 72.87708333333333,
                        "value": 1
                    },
                    {
                        "number": 64,
                        "ticks": 70441,
                        "time": 73.37604166666667,
                        "value": 0
                    },
                    {
                        "number": 64,
                        "ticks": 70442,
                        "time": 73.37708333333333,
                        "value": 1
                    },
                    {
                        "number": 64,
                        "ticks": 70801,
                        "time": 73.75104166666667,
                        "value": 0
                    },
                    {
                        "number": 64,
                        "ticks": 71042,
                        "time": 74.00208333333333,
                        "value": 1
                    },
                    {
                        "number": 64,
                        "ticks": 71521,
                        "time": 74.50104166666667,
                        "value": 0
                    },
                    {
                        "number": 64,
                        "ticks": 71882,
                        "time": 74.87708333333333,
                        "value": 1
                    },
                    {
                        "number": 64,
                        "ticks": 72361,
                        "time": 75.37604166666667,
                        "value": 0
                    },
                    {
                        "number": 64,
                        "ticks": 72362,
                        "time": 75.37708333333333,
                        "value": 1
                    },
                    {
                        "number": 64,
                        "ticks": 72721,
                        "time": 75.75104166666667,
                        "value": 0
                    },
                    {
                        "number": 64,
                        "ticks": 72962,
                        "time": 76.00208333333333,
                        "value": 1
                    },
                    {
                        "number": 64,
                        "ticks": 73441,
                        "time": 76.50104166666667,
                        "value": 0
                    },
                    {
                        "number": 64,
                        "ticks": 73802,
                        "time": 76.87708333333333,
                        "value": 1
                    },
                    {
                        "number": 64,
                        "ticks": 74281,
                        "time": 77.37604166666667,
                        "value": 0
                    },
                    {
                        "number": 64,
                        "ticks": 74282,
                        "time": 77.37708333333333,
                        "value": 1
                    },
                    {
                        "number": 64,
                        "ticks": 74641,
                        "time": 77.75104166666667,
                        "value": 0
                    },
                    {
                        "number": 64,
                        "ticks": 74882,
                        "time": 78.00208333333333,
                        "value": 1
                    },
                    {
                        "number": 64,
                        "ticks": 75361,
                        "time": 78.50104166666667,
                        "value": 0
                    },
                    {
                        "number": 64,
                        "ticks": 75722,
                        "time": 78.87708333333333,
                        "value": 1
                    },
                    {
                        "number": 64,
                        "ticks": 76201,
                        "time": 79.37604166666667,
                        "value": 0
                    },
                    {
                        "number": 64,
                        "ticks": 76202,
                        "time": 79.37708333333333,
                        "value": 1
                    },
                    {
                        "number": 64,
                        "ticks": 76561,
                        "time": 79.75104166666667,
                        "value": 0
                    },
                    {
                        "number": 64,
                        "ticks": 76802,
                        "time": 80.00208333333333,
                        "value": 1
                    },
                    {
                        "number": 64,
                        "ticks": 77281,
                        "time": 80.50104166666667,
                        "value": 0
                    },
                    {
                        "number": 64,
                        "ticks": 77642,
                        "time": 80.87708333333333,
                        "value": 1
                    },
                    {
                        "number": 64,
                        "ticks": 78121,
                        "time": 81.37604166666667,
                        "value": 0
                    },
                    {
                        "number": 64,
                        "ticks": 78122,
                        "time": 81.37708333333333,
                        "value": 1
                    },
                    {
                        "number": 64,
                        "ticks": 78481,
                        "time": 81.75104166666667,
                        "value": 0
                    },
                    {
                        "number": 64,
                        "ticks": 78722,
                        "time": 82.00208333333333,
                        "value": 1
                    },
                    {
                        "number": 64,
                        "ticks": 79201,
                        "time": 82.50104166666667,
                        "value": 0
                    },
                    {
                        "number": 64,
                        "ticks": 79562,
                        "time": 82.87708333333333,
                        "value": 1
                    },
                    {
                        "number": 64,
                        "ticks": 80041,
                        "time": 83.37604166666667,
                        "value": 0
                    },
                    {
                        "number": 64,
                        "ticks": 80042,
                        "time": 83.37708333333333,
                        "value": 1
                    },
                    {
                        "number": 64,
                        "ticks": 80401,
                        "time": 83.75104166666667,
                        "value": 0
                    },
                    {
                        "number": 64,
                        "ticks": 80642,
                        "time": 84.00208333333333,
                        "value": 1
                    },
                    {
                        "number": 64,
                        "ticks": 81121,
                        "time": 84.50104166666667,
                        "value": 0
                    },
                    {
                        "number": 64,
                        "ticks": 81482,
                        "time": 84.87708333333333,
                        "value": 1
                    },
                    {
                        "number": 64,
                        "ticks": 81961,
                        "time": 85.37604166666667,
                        "value": 0
                    },
                    {
                        "number": 64,
                        "ticks": 81962,
                        "time": 85.37708333333333,
                        "value": 1
                    },
                    {
                        "number": 64,
                        "ticks": 82321,
                        "time": 85.75104166666667,
                        "value": 0
                    },
                    {
                        "number": 64,
                        "ticks": 82562,
                        "time": 86.00208333333333,
                        "value": 1
                    },
                    {
                        "number": 64,
                        "ticks": 83041,
                        "time": 86.50104166666667,
                        "value": 0
                    },
                    {
                        "number": 64,
                        "ticks": 83402,
                        "time": 86.87708333333333,
                        "value": 1
                    },
                    {
                        "number": 64,
                        "ticks": 83881,
                        "time": 87.37604166666667,
                        "value": 0
                    },
                    {
                        "number": 64,
                        "ticks": 83882,
                        "time": 87.37708333333333,
                        "value": 1
                    },
                    {
                        "number": 64,
                        "ticks": 84241,
                        "time": 87.75104166666667,
                        "value": 0
                    },
                    {
                        "number": 64,
                        "ticks": 84481,
                        "time": 88.00104166666667,
                        "value": 0
                    },
                    {
                        "number": 64,
                        "ticks": 84481,
                        "time": 88.00104166666667,
                        "value": 0
                    },
                    {
                        "number": 64,
                        "ticks": 84482,
                        "time": 88.00208333333333,
                        "value": 1
                    },
                    {
                        "number": 64,
                        "ticks": 84482,
                        "time": 88.00208333333333,
                        "value": 1
                    },
                    {
                        "number": 64,
                        "ticks": 84482,
                        "time": 88.00208333333333,
                        "value": 1
                    },
                    {
                        "number": 64,
                        "ticks": 84961,
                        "time": 88.50104166666667,
                        "value": 0
                    },
                    {
                        "number": 64,
                        "ticks": 85321,
                        "time": 88.87604166666667,
                        "value": 0
                    },
                    {
                        "number": 64,
                        "ticks": 85321,
                        "time": 88.87604166666667,
                        "value": 0
                    },
                    {
                        "number": 64,
                        "ticks": 85322,
                        "time": 88.87708333333333,
                        "value": 1
                    },
                    {
                        "number": 64,
                        "ticks": 85322,
                        "time": 88.87708333333333,
                        "value": 1
                    },
                    {
                        "number": 64,
                        "ticks": 85322,
                        "time": 88.87708333333333,
                        "value": 1
                    },
                    {
                        "number": 64,
                        "ticks": 85801,
                        "time": 89.37604166666667,
                        "value": 0
                    },
                    {
                        "number": 64,
                        "ticks": 85801,
                        "time": 89.37604166666667,
                        "value": 0
                    },
                    {
                        "number": 64,
                        "ticks": 85801,
                        "time": 89.37604166666667,
                        "value": 0
                    },
                    {
                        "number": 64,
                        "ticks": 85802,
                        "time": 89.37708333333333,
                        "value": 1
                    },
                    {
                        "number": 64,
                        "ticks": 85802,
                        "time": 89.37708333333333,
                        "value": 1
                    },
                    {
                        "number": 64,
                        "ticks": 85802,
                        "time": 89.37708333333333,
                        "value": 1
                    },
                    {
                        "number": 64,
                        "ticks": 86161,
                        "time": 89.75104166666667,
                        "value": 0
                    },
                    {
                        "number": 64,
                        "ticks": 86402,
                        "time": 90.00208333333333,
                        "value": 1
                    },
                    {
                        "number": 64,
                        "ticks": 86881,
                        "time": 90.50104166666667,
                        "value": 0
                    },
                    {
                        "number": 64,
                        "ticks": 87242,
                        "time": 90.87708333333333,
                        "value": 1
                    },
                    {
                        "number": 64,
                        "ticks": 87721,
                        "time": 91.37604166666667,
                        "value": 0
                    },
                    {
                        "number": 64,
                        "ticks": 87722,
                        "time": 91.37708333333333,
                        "value": 1
                    },
                    {
                        "number": 64,
                        "ticks": 88081,
                        "time": 91.75104166666667,
                        "value": 0
                    },
                    {
                        "number": 64,
                        "ticks": 88322,
                        "time": 92.00208333333333,
                        "value": 1
                    },
                    {
                        "number": 64,
                        "ticks": 88801,
                        "time": 92.50104166666667,
                        "value": 0
                    },
                    {
                        "number": 64,
                        "ticks": 89162,
                        "time": 92.87708333333333,
                        "value": 1
                    },
                    {
                        "number": 64,
                        "ticks": 89641,
                        "time": 93.37604166666667,
                        "value": 0
                    },
                    {
                        "number": 64,
                        "ticks": 89642,
                        "time": 93.37708333333333,
                        "value": 1
                    },
                    {
                        "number": 64,
                        "ticks": 90001,
                        "time": 93.75104166666667,
                        "value": 0
                    },
                    {
                        "number": 64,
                        "ticks": 90242,
                        "time": 94.00208333333333,
                        "value": 1
                    },
                    {
                        "number": 64,
                        "ticks": 90721,
                        "time": 94.50104166666667,
                        "value": 0
                    },
                    {
                        "number": 64,
                        "ticks": 91082,
                        "time": 94.87708333333333,
                        "value": 1
                    },
                    {
                        "number": 64,
                        "ticks": 91561,
                        "time": 95.37604166666667,
                        "value": 0
                    },
                    {
                        "number": 64,
                        "ticks": 91562,
                        "time": 95.37708333333333,
                        "value": 1
                    },
                    {
                        "number": 64,
                        "ticks": 91921,
                        "time": 95.75104166666667,
                        "value": 0
                    },
                    {
                        "number": 64,
                        "ticks": 92162,
                        "time": 96.00208333333333,
                        "value": 1
                    },
                    {
                        "number": 64,
                        "ticks": 92641,
                        "time": 96.50104166666667,
                        "value": 0
                    },
                    {
                        "number": 64,
                        "ticks": 93002,
                        "time": 96.87708333333333,
                        "value": 1
                    },
                    {
                        "number": 64,
                        "ticks": 93481,
                        "time": 97.37604166666667,
                        "value": 0
                    },
                    {
                        "number": 64,
                        "ticks": 93482,
                        "time": 97.37708333333333,
                        "value": 1
                    },
                    {
                        "number": 64,
                        "ticks": 93841,
                        "time": 97.75104166666667,
                        "value": 0
                    },
                    {
                        "number": 64,
                        "ticks": 94082,
                        "time": 98.00208333333333,
                        "value": 1
                    },
                    {
                        "number": 64,
                        "ticks": 94561,
                        "time": 98.50104166666667,
                        "value": 0
                    },
                    {
                        "number": 64,
                        "ticks": 94922,
                        "time": 98.87708333333333,
                        "value": 1
                    },
                    {
                        "number": 64,
                        "ticks": 95401,
                        "time": 99.37604166666667,
                        "value": 0
                    },
                    {
                        "number": 64,
                        "ticks": 95402,
                        "time": 99.37708333333333,
                        "value": 1
                    },
                    {
                        "number": 64,
                        "ticks": 95761,
                        "time": 99.75104166666667,
                        "value": 0
                    },
                    {
                        "number": 64,
                        "ticks": 96002,
                        "time": 100.00208333333333,
                        "value": 1
                    },
                    {
                        "number": 64,
                        "ticks": 96481,
                        "time": 100.50104166666667,
                        "value": 0
                    },
                    {
                        "number": 64,
                        "ticks": 96842,
                        "time": 100.87708333333333,
                        "value": 1
                    },
                    {
                        "number": 64,
                        "ticks": 97321,
                        "time": 101.37604166666667,
                        "value": 0
                    },
                    {
                        "number": 64,
                        "ticks": 97322,
                        "time": 101.37708333333333,
                        "value": 1
                    },
                    {
                        "number": 64,
                        "ticks": 97681,
                        "time": 101.75104166666667,
                        "value": 0
                    },
                    {
                        "number": 64,
                        "ticks": 99842,
                        "time": 104.00208333333333,
                        "value": 1
                    },
                    {
                        "number": 64,
                        "ticks": 100321,
                        "time": 104.50104166666667,
                        "value": 0
                    },
                    {
                        "number": 64,
                        "ticks": 100682,
                        "time": 104.87708333333333,
                        "value": 1
                    },
                    {
                        "number": 64,
                        "ticks": 101161,
                        "time": 105.37604166666667,
                        "value": 0
                    },
                    {
                        "number": 64,
                        "ticks": 101162,
                        "time": 105.37708333333333,
                        "value": 1
                    },
                    {
                        "number": 64,
                        "ticks": 101521,
                        "time": 105.75104166666667,
                        "value": 0
                    },
                    {
                        "number": 64,
                        "ticks": 101762,
                        "time": 106.00208333333333,
                        "value": 1
                    },
                    {
                        "number": 64,
                        "ticks": 102241,
                        "time": 106.50104166666667,
                        "value": 0
                    },
                    {
                        "number": 64,
                        "ticks": 102602,
                        "time": 106.87708333333333,
                        "value": 1
                    },
                    {
                        "number": 64,
                        "ticks": 103081,
                        "time": 107.37604166666667,
                        "value": 0
                    },
                    {
                        "number": 64,
                        "ticks": 103082,
                        "time": 107.37708333333333,
                        "value": 1
                    },
                    {
                        "number": 64,
                        "ticks": 103441,
                        "time": 107.75104166666667,
                        "value": 0
                    },
                    {
                        "number": 64,
                        "ticks": 103682,
                        "time": 108.00208333333333,
                        "value": 1
                    },
                    {
                        "number": 64,
                        "ticks": 104161,
                        "time": 108.50104166666667,
                        "value": 0
                    },
                    {
                        "number": 64,
                        "ticks": 104522,
                        "time": 108.87708333333333,
                        "value": 1
                    },
                    {
                        "number": 64,
                        "ticks": 105001,
                        "time": 109.37604166666667,
                        "value": 0
                    },
                    {
                        "number": 64,
                        "ticks": 105002,
                        "time": 109.37708333333333,
                        "value": 1
                    },
                    {
                        "number": 64,
                        "ticks": 105361,
                        "time": 109.75104166666667,
                        "value": 0
                    }
                ],
                "91": [
                    {
                        "number": 91,
                        "ticks": 0,
                        "time": 0,
                        "value": 0
                    }
                ],
                "93": [
                    {
                        "number": 93,
                        "ticks": 0,
                        "time": 0,
                        "value": 0
                    }
                ],
                "121": [
                    {
                        "number": 121,
                        "ticks": 0,
                        "time": 0,
                        "value": 0
                    }
                ]
            },
            "pitchBends": [],
            "instrument": {
                "family": "piano",
                "number": 0,
                "name": "acoustic grand piano"
            },
            "name": "",
            "notes": [
                {
                    "duration": 0.1239583333333325,
                    "durationTicks": 119,
                    "midi": 50,
                    "name": "D3",
                    "ticks": 7680,
                    "time": 8,
                    "velocity": 0.7559055118110236
                },
                {
                    "duration": 0.1239583333333325,
                    "durationTicks": 119,
                    "midi": 50,
                    "name": "D3",
                    "ticks": 7920,
                    "time": 8.25,
                    "velocity": 0.7559055118110236
                },
                {
                    "duration": 0.11770833333333286,
                    "durationTicks": 113,
                    "midi": 50,
                    "name": "D3",
                    "ticks": 8160,
                    "time": 8.5,
                    "velocity": 0.7559055118110236
                },
                {
                    "duration": 0.11770833333333286,
                    "durationTicks": 113,
                    "midi": 50,
                    "name": "D3",
                    "ticks": 8280,
                    "time": 8.625,
                    "velocity": 0.7559055118110236
                },
                {
                    "duration": 0.1239583333333325,
                    "durationTicks": 119,
                    "midi": 50,
                    "name": "D3",
                    "ticks": 8520,
                    "time": 8.875,
                    "velocity": 0.7559055118110236
                },
                {
                    "duration": 0.1239583333333325,
                    "durationTicks": 119,
                    "midi": 50,
                    "name": "D3",
                    "ticks": 8760,
                    "time": 9.125,
                    "velocity": 0.7559055118110236
                },
                {
                    "duration": 0.11770833333333286,
                    "durationTicks": 113,
                    "midi": 50,
                    "name": "D3",
                    "ticks": 9000,
                    "time": 9.375,
                    "velocity": 0.7559055118110236
                },
                {
                    "duration": 0.11770833333333286,
                    "durationTicks": 113,
                    "midi": 50,
                    "name": "D3",
                    "ticks": 9120,
                    "time": 9.5,
                    "velocity": 0.7559055118110236
                },
                {
                    "duration": 0.11770833333333286,
                    "durationTicks": 113,
                    "midi": 50,
                    "name": "D3",
                    "ticks": 9240,
                    "time": 9.625,
                    "velocity": 0.7559055118110236
                },
                {
                    "duration": 0.1239583333333325,
                    "durationTicks": 119,
                    "midi": 50,
                    "name": "D3",
                    "ticks": 9360,
                    "time": 9.75,
                    "velocity": 0.7559055118110236
                },
                {
                    "duration": 0.1239583333333325,
                    "durationTicks": 119,
                    "midi": 48,
                    "name": "C3",
                    "ticks": 9600,
                    "time": 10,
                    "velocity": 0.7559055118110236
                },
                {
                    "duration": 0.1239583333333325,
                    "durationTicks": 119,
                    "midi": 48,
                    "name": "C3",
                    "ticks": 9840,
                    "time": 10.25,
                    "velocity": 0.7559055118110236
                },
                {
                    "duration": 0.11770833333333286,
                    "durationTicks": 113,
                    "midi": 48,
                    "name": "C3",
                    "ticks": 10080,
                    "time": 10.5,
                    "velocity": 0.7559055118110236
                },
                {
                    "duration": 0.11770833333333286,
                    "durationTicks": 113,
                    "midi": 48,
                    "name": "C3",
                    "ticks": 10200,
                    "time": 10.625,
                    "velocity": 0.7559055118110236
                },
                {
                    "duration": 0.1239583333333325,
                    "durationTicks": 119,
                    "midi": 48,
                    "name": "C3",
                    "ticks": 10440,
                    "time": 10.875,
                    "velocity": 0.7559055118110236
                },
                {
                    "duration": 0.1239583333333325,
                    "durationTicks": 119,
                    "midi": 48,
                    "name": "C3",
                    "ticks": 10680,
                    "time": 11.125,
                    "velocity": 0.7559055118110236
                },
                {
                    "duration": 0.11770833333333286,
                    "durationTicks": 113,
                    "midi": 48,
                    "name": "C3",
                    "ticks": 10920,
                    "time": 11.375,
                    "velocity": 0.7559055118110236
                },
                {
                    "duration": 0.11770833333333286,
                    "durationTicks": 113,
                    "midi": 48,
                    "name": "C3",
                    "ticks": 11040,
                    "time": 11.5,
                    "velocity": 0.7559055118110236
                },
                {
                    "duration": 0.11770833333333286,
                    "durationTicks": 113,
                    "midi": 48,
                    "name": "C3",
                    "ticks": 11160,
                    "time": 11.625,
                    "velocity": 0.7559055118110236
                },
                {
                    "duration": 0.1239583333333325,
                    "durationTicks": 119,
                    "midi": 48,
                    "name": "C3",
                    "ticks": 11280,
                    "time": 11.75,
                    "velocity": 0.7559055118110236
                },
                {
                    "duration": 0.1239583333333325,
                    "durationTicks": 119,
                    "midi": 47,
                    "name": "B2",
                    "ticks": 11520,
                    "time": 12,
                    "velocity": 0.7559055118110236
                },
                {
                    "duration": 0.1239583333333325,
                    "durationTicks": 119,
                    "midi": 47,
                    "name": "B2",
                    "ticks": 11760,
                    "time": 12.25,
                    "velocity": 0.7559055118110236
                },
                {
                    "duration": 0.11770833333333286,
                    "durationTicks": 113,
                    "midi": 47,
                    "name": "B2",
                    "ticks": 12000,
                    "time": 12.5,
                    "velocity": 0.7559055118110236
                },
                {
                    "duration": 0.11770833333333286,
                    "durationTicks": 113,
                    "midi": 47,
                    "name": "B2",
                    "ticks": 12120,
                    "time": 12.625,
                    "velocity": 0.7559055118110236
                },
                {
                    "duration": 0.1239583333333325,
                    "durationTicks": 119,
                    "midi": 47,
                    "name": "B2",
                    "ticks": 12360,
                    "time": 12.875,
                    "velocity": 0.7559055118110236
                },
                {
                    "duration": 0.1239583333333325,
                    "durationTicks": 119,
                    "midi": 47,
                    "name": "B2",
                    "ticks": 12600,
                    "time": 13.125,
                    "velocity": 0.7559055118110236
                },
                {
                    "duration": 0.11770833333333286,
                    "durationTicks": 113,
                    "midi": 47,
                    "name": "B2",
                    "ticks": 12840,
                    "time": 13.375,
                    "velocity": 0.7559055118110236
                },
                {
                    "duration": 0.11770833333333286,
                    "durationTicks": 113,
                    "midi": 47,
                    "name": "B2",
                    "ticks": 12960,
                    "time": 13.5,
                    "velocity": 0.7559055118110236
                },
                {
                    "duration": 0.11770833333333286,
                    "durationTicks": 113,
                    "midi": 47,
                    "name": "B2",
                    "ticks": 13080,
                    "time": 13.625,
                    "velocity": 0.7559055118110236
                },
                {
                    "duration": 0.1239583333333325,
                    "durationTicks": 119,
                    "midi": 47,
                    "name": "B2",
                    "ticks": 13200,
                    "time": 13.75,
                    "velocity": 0.7559055118110236
                },
                {
                    "duration": 0.1239583333333325,
                    "durationTicks": 119,
                    "midi": 46,
                    "name": "A#2",
                    "ticks": 13440,
                    "time": 14,
                    "velocity": 0.7559055118110236
                },
                {
                    "duration": 0.1239583333333325,
                    "durationTicks": 119,
                    "midi": 46,
                    "name": "A#2",
                    "ticks": 13680,
                    "time": 14.25,
                    "velocity": 0.7559055118110236
                },
                {
                    "duration": 0.11770833333333286,
                    "durationTicks": 113,
                    "midi": 46,
                    "name": "A#2",
                    "ticks": 13920,
                    "time": 14.5,
                    "velocity": 0.7559055118110236
                },
                {
                    "duration": 0.11770833333333286,
                    "durationTicks": 113,
                    "midi": 46,
                    "name": "A#2",
                    "ticks": 14040,
                    "time": 14.625,
                    "velocity": 0.7559055118110236
                },
                {
                    "duration": 0.1239583333333325,
                    "durationTicks": 119,
                    "midi": 48,
                    "name": "C3",
                    "ticks": 14280,
                    "time": 14.875,
                    "velocity": 0.7559055118110236
                },
                {
                    "duration": 0.1239583333333325,
                    "durationTicks": 119,
                    "midi": 48,
                    "name": "C3",
                    "ticks": 14520,
                    "time": 15.125,
                    "velocity": 0.7559055118110236
                },
                {
                    "duration": 0.11770833333333286,
                    "durationTicks": 113,
                    "midi": 48,
                    "name": "C3",
                    "ticks": 14760,
                    "time": 15.375,
                    "velocity": 0.7559055118110236
                },
                {
                    "duration": 0.11770833333333286,
                    "durationTicks": 113,
                    "midi": 48,
                    "name": "C3",
                    "ticks": 14880,
                    "time": 15.5,
                    "velocity": 0.7559055118110236
                },
                {
                    "duration": 0.11770833333333286,
                    "durationTicks": 113,
                    "midi": 48,
                    "name": "C3",
                    "ticks": 15000,
                    "time": 15.625,
                    "velocity": 0.7559055118110236
                },
                {
                    "duration": 0.1239583333333325,
                    "durationTicks": 119,
                    "midi": 48,
                    "name": "C3",
                    "ticks": 15120,
                    "time": 15.75,
                    "velocity": 0.7559055118110236
                },
                {
                    "duration": 0.12395833333333428,
                    "durationTicks": 119,
                    "midi": 38,
                    "name": "D2",
                    "ticks": 15360,
                    "time": 16,
                    "velocity": 0.9921259842519685
                },
                {
                    "duration": 0.12395833333333428,
                    "durationTicks": 119,
                    "midi": 50,
                    "name": "D3",
                    "ticks": 15360,
                    "time": 16,
                    "velocity": 0.9921259842519685
                },
                {
                    "duration": 0.12395833333333428,
                    "durationTicks": 119,
                    "midi": 38,
                    "name": "D2",
                    "ticks": 15600,
                    "time": 16.25,
                    "velocity": 0.9921259842519685
                },
                {
                    "duration": 0.12395833333333428,
                    "durationTicks": 119,
                    "midi": 50,
                    "name": "D3",
                    "ticks": 15600,
                    "time": 16.25,
                    "velocity": 0.9921259842519685
                },
                {
                    "duration": 0.11770833333333286,
                    "durationTicks": 113,
                    "midi": 38,
                    "name": "D2",
                    "ticks": 15840,
                    "time": 16.5,
                    "velocity": 0.9921259842519685
                },
                {
                    "duration": 0.11770833333333286,
                    "durationTicks": 113,
                    "midi": 50,
                    "name": "D3",
                    "ticks": 15840,
                    "time": 16.5,
                    "velocity": 0.9921259842519685
                },
                {
                    "duration": 0.11770833333333286,
                    "durationTicks": 113,
                    "midi": 38,
                    "name": "D2",
                    "ticks": 15960,
                    "time": 16.625,
                    "velocity": 0.9921259842519685
                },
                {
                    "duration": 0.11770833333333286,
                    "durationTicks": 113,
                    "midi": 50,
                    "name": "D3",
                    "ticks": 15960,
                    "time": 16.625,
                    "velocity": 0.9921259842519685
                },
                {
                    "duration": 0.12395833333333428,
                    "durationTicks": 119,
                    "midi": 38,
                    "name": "D2",
                    "ticks": 16200,
                    "time": 16.875,
                    "velocity": 0.9921259842519685
                },
                {
                    "duration": 0.12395833333333428,
                    "durationTicks": 119,
                    "midi": 50,
                    "name": "D3",
                    "ticks": 16200,
                    "time": 16.875,
                    "velocity": 0.9921259842519685
                },
                {
                    "duration": 0.12395833333333428,
                    "durationTicks": 119,
                    "midi": 38,
                    "name": "D2",
                    "ticks": 16440,
                    "time": 17.125,
                    "velocity": 0.9921259842519685
                },
                {
                    "duration": 0.12395833333333428,
                    "durationTicks": 119,
                    "midi": 50,
                    "name": "D3",
                    "ticks": 16440,
                    "time": 17.125,
                    "velocity": 0.9921259842519685
                },
                {
                    "duration": 0.11770833333333286,
                    "durationTicks": 113,
                    "midi": 38,
                    "name": "D2",
                    "ticks": 16680,
                    "time": 17.375,
                    "velocity": 0.9921259842519685
                },
                {
                    "duration": 0.11770833333333286,
                    "durationTicks": 113,
                    "midi": 50,
                    "name": "D3",
                    "ticks": 16680,
                    "time": 17.375,
                    "velocity": 0.9921259842519685
                },
                {
                    "duration": 0.11770833333333286,
                    "durationTicks": 113,
                    "midi": 38,
                    "name": "D2",
                    "ticks": 16800,
                    "time": 17.5,
                    "velocity": 0.9921259842519685
                },
                {
                    "duration": 0.11770833333333286,
                    "durationTicks": 113,
                    "midi": 50,
                    "name": "D3",
                    "ticks": 16800,
                    "time": 17.5,
                    "velocity": 0.9921259842519685
                },
                {
                    "duration": 0.11770833333333286,
                    "durationTicks": 113,
                    "midi": 38,
                    "name": "D2",
                    "ticks": 16920,
                    "time": 17.625,
                    "velocity": 0.9921259842519685
                },
                {
                    "duration": 0.11770833333333286,
                    "durationTicks": 113,
                    "midi": 50,
                    "name": "D3",
                    "ticks": 16920,
                    "time": 17.625,
                    "velocity": 0.9921259842519685
                },
                {
                    "duration": 0.12395833333333428,
                    "durationTicks": 119,
                    "midi": 38,
                    "name": "D2",
                    "ticks": 17040,
                    "time": 17.75,
                    "velocity": 0.9921259842519685
                },
                {
                    "duration": 0.12395833333333428,
                    "durationTicks": 119,
                    "midi": 50,
                    "name": "D3",
                    "ticks": 17040,
                    "time": 17.75,
                    "velocity": 0.9921259842519685
                },
                {
                    "duration": 0.12395833333333428,
                    "durationTicks": 119,
                    "midi": 36,
                    "name": "C2",
                    "ticks": 17280,
                    "time": 18,
                    "velocity": 0.9921259842519685
                },
                {
                    "duration": 0.12395833333333428,
                    "durationTicks": 119,
                    "midi": 48,
                    "name": "C3",
                    "ticks": 17280,
                    "time": 18,
                    "velocity": 0.9921259842519685
                },
                {
                    "duration": 0.12395833333333428,
                    "durationTicks": 119,
                    "midi": 36,
                    "name": "C2",
                    "ticks": 17520,
                    "time": 18.25,
                    "velocity": 0.9921259842519685
                },
                {
                    "duration": 0.12395833333333428,
                    "durationTicks": 119,
                    "midi": 48,
                    "name": "C3",
                    "ticks": 17520,
                    "time": 18.25,
                    "velocity": 0.9921259842519685
                },
                {
                    "duration": 0.11770833333333286,
                    "durationTicks": 113,
                    "midi": 36,
                    "name": "C2",
                    "ticks": 17760,
                    "time": 18.5,
                    "velocity": 0.9921259842519685
                },
                {
                    "duration": 0.11770833333333286,
                    "durationTicks": 113,
                    "midi": 48,
                    "name": "C3",
                    "ticks": 17760,
                    "time": 18.5,
                    "velocity": 0.9921259842519685
                },
                {
                    "duration": 0.11770833333333286,
                    "durationTicks": 113,
                    "midi": 36,
                    "name": "C2",
                    "ticks": 17880,
                    "time": 18.625,
                    "velocity": 0.9921259842519685
                },
                {
                    "duration": 0.11770833333333286,
                    "durationTicks": 113,
                    "midi": 48,
                    "name": "C3",
                    "ticks": 17880,
                    "time": 18.625,
                    "velocity": 0.9921259842519685
                },
                {
                    "duration": 0.12395833333333428,
                    "durationTicks": 119,
                    "midi": 36,
                    "name": "C2",
                    "ticks": 18120,
                    "time": 18.875,
                    "velocity": 0.9921259842519685
                },
                {
                    "duration": 0.12395833333333428,
                    "durationTicks": 119,
                    "midi": 48,
                    "name": "C3",
                    "ticks": 18120,
                    "time": 18.875,
                    "velocity": 0.9921259842519685
                },
                {
                    "duration": 0.12395833333333428,
                    "durationTicks": 119,
                    "midi": 36,
                    "name": "C2",
                    "ticks": 18360,
                    "time": 19.125,
                    "velocity": 0.9921259842519685
                },
                {
                    "duration": 0.12395833333333428,
                    "durationTicks": 119,
                    "midi": 48,
                    "name": "C3",
                    "ticks": 18360,
                    "time": 19.125,
                    "velocity": 0.9921259842519685
                },
                {
                    "duration": 0.11770833333333286,
                    "durationTicks": 113,
                    "midi": 36,
                    "name": "C2",
                    "ticks": 18600,
                    "time": 19.375,
                    "velocity": 0.9921259842519685
                },
                {
                    "duration": 0.11770833333333286,
                    "durationTicks": 113,
                    "midi": 48,
                    "name": "C3",
                    "ticks": 18600,
                    "time": 19.375,
                    "velocity": 0.9921259842519685
                },
                {
                    "duration": 0.11770833333333286,
                    "durationTicks": 113,
                    "midi": 36,
                    "name": "C2",
                    "ticks": 18720,
                    "time": 19.5,
                    "velocity": 0.9921259842519685
                },
                {
                    "duration": 0.11770833333333286,
                    "durationTicks": 113,
                    "midi": 48,
                    "name": "C3",
                    "ticks": 18720,
                    "time": 19.5,
                    "velocity": 0.9921259842519685
                },
                {
                    "duration": 0.11770833333333286,
                    "durationTicks": 113,
                    "midi": 36,
                    "name": "C2",
                    "ticks": 18840,
                    "time": 19.625,
                    "velocity": 0.9921259842519685
                },
                {
                    "duration": 0.11770833333333286,
                    "durationTicks": 113,
                    "midi": 48,
                    "name": "C3",
                    "ticks": 18840,
                    "time": 19.625,
                    "velocity": 0.9921259842519685
                },
                {
                    "duration": 0.12395833333333428,
                    "durationTicks": 119,
                    "midi": 36,
                    "name": "C2",
                    "ticks": 18960,
                    "time": 19.75,
                    "velocity": 0.9921259842519685
                },
                {
                    "duration": 0.12395833333333428,
                    "durationTicks": 119,
                    "midi": 48,
                    "name": "C3",
                    "ticks": 18960,
                    "time": 19.75,
                    "velocity": 0.9921259842519685
                },
                {
                    "duration": 0.12395833333333428,
                    "durationTicks": 119,
                    "midi": 35,
                    "name": "B1",
                    "ticks": 19200,
                    "time": 20,
                    "velocity": 0.9921259842519685
                },
                {
                    "duration": 0.12395833333333428,
                    "durationTicks": 119,
                    "midi": 47,
                    "name": "B2",
                    "ticks": 19200,
                    "time": 20,
                    "velocity": 0.9921259842519685
                },
                {
                    "duration": 0.12395833333333428,
                    "durationTicks": 119,
                    "midi": 35,
                    "name": "B1",
                    "ticks": 19440,
                    "time": 20.25,
                    "velocity": 0.9921259842519685
                },
                {
                    "duration": 0.12395833333333428,
                    "durationTicks": 119,
                    "midi": 47,
                    "name": "B2",
                    "ticks": 19440,
                    "time": 20.25,
                    "velocity": 0.9921259842519685
                },
                {
                    "duration": 0.11770833333333286,
                    "durationTicks": 113,
                    "midi": 35,
                    "name": "B1",
                    "ticks": 19680,
                    "time": 20.5,
                    "velocity": 0.9921259842519685
                },
                {
                    "duration": 0.11770833333333286,
                    "durationTicks": 113,
                    "midi": 47,
                    "name": "B2",
                    "ticks": 19680,
                    "time": 20.5,
                    "velocity": 0.9921259842519685
                },
                {
                    "duration": 0.11770833333333286,
                    "durationTicks": 113,
                    "midi": 35,
                    "name": "B1",
                    "ticks": 19800,
                    "time": 20.625,
                    "velocity": 0.9921259842519685
                },
                {
                    "duration": 0.11770833333333286,
                    "durationTicks": 113,
                    "midi": 47,
                    "name": "B2",
                    "ticks": 19800,
                    "time": 20.625,
                    "velocity": 0.9921259842519685
                },
                {
                    "duration": 0.12395833333333428,
                    "durationTicks": 119,
                    "midi": 35,
                    "name": "B1",
                    "ticks": 20040,
                    "time": 20.875,
                    "velocity": 0.9921259842519685
                },
                {
                    "duration": 0.12395833333333428,
                    "durationTicks": 119,
                    "midi": 47,
                    "name": "B2",
                    "ticks": 20040,
                    "time": 20.875,
                    "velocity": 0.9921259842519685
                },
                {
                    "duration": 0.12395833333333428,
                    "durationTicks": 119,
                    "midi": 35,
                    "name": "B1",
                    "ticks": 20280,
                    "time": 21.125,
                    "velocity": 0.9921259842519685
                },
                {
                    "duration": 0.12395833333333428,
                    "durationTicks": 119,
                    "midi": 47,
                    "name": "B2",
                    "ticks": 20280,
                    "time": 21.125,
                    "velocity": 0.9921259842519685
                },
                {
                    "duration": 0.11770833333333286,
                    "durationTicks": 113,
                    "midi": 35,
                    "name": "B1",
                    "ticks": 20520,
                    "time": 21.375,
                    "velocity": 0.9921259842519685
                },
                {
                    "duration": 0.11770833333333286,
                    "durationTicks": 113,
                    "midi": 47,
                    "name": "B2",
                    "ticks": 20520,
                    "time": 21.375,
                    "velocity": 0.9921259842519685
                },
                {
                    "duration": 0.11770833333333286,
                    "durationTicks": 113,
                    "midi": 35,
                    "name": "B1",
                    "ticks": 20640,
                    "time": 21.5,
                    "velocity": 0.9921259842519685
                },
                {
                    "duration": 0.11770833333333286,
                    "durationTicks": 113,
                    "midi": 47,
                    "name": "B2",
                    "ticks": 20640,
                    "time": 21.5,
                    "velocity": 0.9921259842519685
                },
                {
                    "duration": 0.11770833333333286,
                    "durationTicks": 113,
                    "midi": 35,
                    "name": "B1",
                    "ticks": 20760,
                    "time": 21.625,
                    "velocity": 0.9921259842519685
                },
                {
                    "duration": 0.11770833333333286,
                    "durationTicks": 113,
                    "midi": 47,
                    "name": "B2",
                    "ticks": 20760,
                    "time": 21.625,
                    "velocity": 0.9921259842519685
                },
                {
                    "duration": 0.12395833333333428,
                    "durationTicks": 119,
                    "midi": 35,
                    "name": "B1",
                    "ticks": 20880,
                    "time": 21.75,
                    "velocity": 0.9921259842519685
                },
                {
                    "duration": 0.12395833333333428,
                    "durationTicks": 119,
                    "midi": 47,
                    "name": "B2",
                    "ticks": 20880,
                    "time": 21.75,
                    "velocity": 0.9921259842519685
                },
                {
                    "duration": 0.12395833333333428,
                    "durationTicks": 119,
                    "midi": 34,
                    "name": "A#1",
                    "ticks": 21120,
                    "time": 22,
                    "velocity": 0.9921259842519685
                },
                {
                    "duration": 0.12395833333333428,
                    "durationTicks": 119,
                    "midi": 46,
                    "name": "A#2",
                    "ticks": 21120,
                    "time": 22,
                    "velocity": 0.9921259842519685
                },
                {
                    "duration": 0.12395833333333428,
                    "durationTicks": 119,
                    "midi": 34,
                    "name": "A#1",
                    "ticks": 21360,
                    "time": 22.25,
                    "velocity": 0.9921259842519685
                },
                {
                    "duration": 0.12395833333333428,
                    "durationTicks": 119,
                    "midi": 46,
                    "name": "A#2",
                    "ticks": 21360,
                    "time": 22.25,
                    "velocity": 0.9921259842519685
                },
                {
                    "duration": 0.11770833333333286,
                    "durationTicks": 113,
                    "midi": 34,
                    "name": "A#1",
                    "ticks": 21600,
                    "time": 22.5,
                    "velocity": 0.9921259842519685
                },
                {
                    "duration": 0.11770833333333286,
                    "durationTicks": 113,
                    "midi": 46,
                    "name": "A#2",
                    "ticks": 21600,
                    "time": 22.5,
                    "velocity": 0.9921259842519685
                },
                {
                    "duration": 0.11770833333333286,
                    "durationTicks": 113,
                    "midi": 34,
                    "name": "A#1",
                    "ticks": 21720,
                    "time": 22.625,
                    "velocity": 0.9921259842519685
                },
                {
                    "duration": 0.11770833333333286,
                    "durationTicks": 113,
                    "midi": 46,
                    "name": "A#2",
                    "ticks": 21720,
                    "time": 22.625,
                    "velocity": 0.9921259842519685
                },
                {
                    "duration": 0.12395833333333428,
                    "durationTicks": 119,
                    "midi": 36,
                    "name": "C2",
                    "ticks": 21960,
                    "time": 22.875,
                    "velocity": 0.9921259842519685
                },
                {
                    "duration": 0.12395833333333428,
                    "durationTicks": 119,
                    "midi": 48,
                    "name": "C3",
                    "ticks": 21960,
                    "time": 22.875,
                    "velocity": 0.9921259842519685
                },
                {
                    "duration": 0.12395833333333428,
                    "durationTicks": 119,
                    "midi": 36,
                    "name": "C2",
                    "ticks": 22200,
                    "time": 23.125,
                    "velocity": 0.9921259842519685
                },
                {
                    "duration": 0.12395833333333428,
                    "durationTicks": 119,
                    "midi": 48,
                    "name": "C3",
                    "ticks": 22200,
                    "time": 23.125,
                    "velocity": 0.9921259842519685
                },
                {
                    "duration": 0.11770833333333286,
                    "durationTicks": 113,
                    "midi": 36,
                    "name": "C2",
                    "ticks": 22440,
                    "time": 23.375,
                    "velocity": 0.9921259842519685
                },
                {
                    "duration": 0.11770833333333286,
                    "durationTicks": 113,
                    "midi": 48,
                    "name": "C3",
                    "ticks": 22440,
                    "time": 23.375,
                    "velocity": 0.9921259842519685
                },
                {
                    "duration": 0.11770833333333286,
                    "durationTicks": 113,
                    "midi": 36,
                    "name": "C2",
                    "ticks": 22560,
                    "time": 23.5,
                    "velocity": 0.9921259842519685
                },
                {
                    "duration": 0.11770833333333286,
                    "durationTicks": 113,
                    "midi": 48,
                    "name": "C3",
                    "ticks": 22560,
                    "time": 23.5,
                    "velocity": 0.9921259842519685
                },
                {
                    "duration": 0.11770833333333286,
                    "durationTicks": 113,
                    "midi": 36,
                    "name": "C2",
                    "ticks": 22680,
                    "time": 23.625,
                    "velocity": 0.9921259842519685
                },
                {
                    "duration": 0.11770833333333286,
                    "durationTicks": 113,
                    "midi": 48,
                    "name": "C3",
                    "ticks": 22680,
                    "time": 23.625,
                    "velocity": 0.9921259842519685
                },
                {
                    "duration": 0.12395833333333428,
                    "durationTicks": 119,
                    "midi": 36,
                    "name": "C2",
                    "ticks": 22800,
                    "time": 23.75,
                    "velocity": 0.9921259842519685
                },
                {
                    "duration": 0.12395833333333428,
                    "durationTicks": 119,
                    "midi": 48,
                    "name": "C3",
                    "ticks": 22800,
                    "time": 23.75,
                    "velocity": 0.9921259842519685
                },
                {
                    "duration": 0.12395833333333428,
                    "durationTicks": 119,
                    "midi": 38,
                    "name": "D2",
                    "ticks": 23040,
                    "time": 24,
                    "velocity": 0.9921259842519685
                },
                {
                    "duration": 0.12395833333333428,
                    "durationTicks": 119,
                    "midi": 50,
                    "name": "D3",
                    "ticks": 23040,
                    "time": 24,
                    "velocity": 0.9921259842519685
                },
                {
                    "duration": 0.12395833333333428,
                    "durationTicks": 119,
                    "midi": 38,
                    "name": "D2",
                    "ticks": 23280,
                    "time": 24.25,
                    "velocity": 0.9921259842519685
                },
                {
                    "duration": 0.12395833333333428,
                    "durationTicks": 119,
                    "midi": 50,
                    "name": "D3",
                    "ticks": 23280,
                    "time": 24.25,
                    "velocity": 0.9921259842519685
                },
                {
                    "duration": 0.11770833333333286,
                    "durationTicks": 113,
                    "midi": 38,
                    "name": "D2",
                    "ticks": 23520,
                    "time": 24.5,
                    "velocity": 0.9921259842519685
                },
                {
                    "duration": 0.11770833333333286,
                    "durationTicks": 113,
                    "midi": 50,
                    "name": "D3",
                    "ticks": 23520,
                    "time": 24.5,
                    "velocity": 0.9921259842519685
                },
                {
                    "duration": 0.11770833333333286,
                    "durationTicks": 113,
                    "midi": 38,
                    "name": "D2",
                    "ticks": 23640,
                    "time": 24.625,
                    "velocity": 0.9921259842519685
                },
                {
                    "duration": 0.11770833333333286,
                    "durationTicks": 113,
                    "midi": 50,
                    "name": "D3",
                    "ticks": 23640,
                    "time": 24.625,
                    "velocity": 0.9921259842519685
                },
                {
                    "duration": 0.12395833333333428,
                    "durationTicks": 119,
                    "midi": 38,
                    "name": "D2",
                    "ticks": 23880,
                    "time": 24.875,
                    "velocity": 0.9921259842519685
                },
                {
                    "duration": 0.12395833333333428,
                    "durationTicks": 119,
                    "midi": 50,
                    "name": "D3",
                    "ticks": 23880,
                    "time": 24.875,
                    "velocity": 0.9921259842519685
                },
                {
                    "duration": 0.12395833333333428,
                    "durationTicks": 119,
                    "midi": 38,
                    "name": "D2",
                    "ticks": 24120,
                    "time": 25.125,
                    "velocity": 0.9921259842519685
                },
                {
                    "duration": 0.12395833333333428,
                    "durationTicks": 119,
                    "midi": 50,
                    "name": "D3",
                    "ticks": 24120,
                    "time": 25.125,
                    "velocity": 0.9921259842519685
                },
                {
                    "duration": 0.11770833333333286,
                    "durationTicks": 113,
                    "midi": 38,
                    "name": "D2",
                    "ticks": 24360,
                    "time": 25.375,
                    "velocity": 0.9921259842519685
                },
                {
                    "duration": 0.11770833333333286,
                    "durationTicks": 113,
                    "midi": 50,
                    "name": "D3",
                    "ticks": 24360,
                    "time": 25.375,
                    "velocity": 0.9921259842519685
                },
                {
                    "duration": 0.11770833333333286,
                    "durationTicks": 113,
                    "midi": 38,
                    "name": "D2",
                    "ticks": 24480,
                    "time": 25.5,
                    "velocity": 0.9921259842519685
                },
                {
                    "duration": 0.11770833333333286,
                    "durationTicks": 113,
                    "midi": 50,
                    "name": "D3",
                    "ticks": 24480,
                    "time": 25.5,
                    "velocity": 0.9921259842519685
                },
                {
                    "duration": 0.11770833333333286,
                    "durationTicks": 113,
                    "midi": 38,
                    "name": "D2",
                    "ticks": 24600,
                    "time": 25.625,
                    "velocity": 0.9921259842519685
                },
                {
                    "duration": 0.11770833333333286,
                    "durationTicks": 113,
                    "midi": 50,
                    "name": "D3",
                    "ticks": 24600,
                    "time": 25.625,
                    "velocity": 0.9921259842519685
                },
                {
                    "duration": 0.12395833333333428,
                    "durationTicks": 119,
                    "midi": 38,
                    "name": "D2",
                    "ticks": 24720,
                    "time": 25.75,
                    "velocity": 0.9921259842519685
                },
                {
                    "duration": 0.12395833333333428,
                    "durationTicks": 119,
                    "midi": 50,
                    "name": "D3",
                    "ticks": 24720,
                    "time": 25.75,
                    "velocity": 0.9921259842519685
                },
                {
                    "duration": 0.12395833333333428,
                    "durationTicks": 119,
                    "midi": 36,
                    "name": "C2",
                    "ticks": 24960,
                    "time": 26,
                    "velocity": 0.9921259842519685
                },
                {
                    "duration": 0.12395833333333428,
                    "durationTicks": 119,
                    "midi": 48,
                    "name": "C3",
                    "ticks": 24960,
                    "time": 26,
                    "velocity": 0.9921259842519685
                },
                {
                    "duration": 0.12395833333333428,
                    "durationTicks": 119,
                    "midi": 36,
                    "name": "C2",
                    "ticks": 25200,
                    "time": 26.25,
                    "velocity": 0.9921259842519685
                },
                {
                    "duration": 0.12395833333333428,
                    "durationTicks": 119,
                    "midi": 48,
                    "name": "C3",
                    "ticks": 25200,
                    "time": 26.25,
                    "velocity": 0.9921259842519685
                },
                {
                    "duration": 0.11770833333333286,
                    "durationTicks": 113,
                    "midi": 36,
                    "name": "C2",
                    "ticks": 25440,
                    "time": 26.5,
                    "velocity": 0.9921259842519685
                },
                {
                    "duration": 0.11770833333333286,
                    "durationTicks": 113,
                    "midi": 48,
                    "name": "C3",
                    "ticks": 25440,
                    "time": 26.5,
                    "velocity": 0.9921259842519685
                },
                {
                    "duration": 0.11770833333333286,
                    "durationTicks": 113,
                    "midi": 36,
                    "name": "C2",
                    "ticks": 25560,
                    "time": 26.625,
                    "velocity": 0.9921259842519685
                },
                {
                    "duration": 0.11770833333333286,
                    "durationTicks": 113,
                    "midi": 48,
                    "name": "C3",
                    "ticks": 25560,
                    "time": 26.625,
                    "velocity": 0.9921259842519685
                },
                {
                    "duration": 0.12395833333333428,
                    "durationTicks": 119,
                    "midi": 36,
                    "name": "C2",
                    "ticks": 25800,
                    "time": 26.875,
                    "velocity": 0.9921259842519685
                },
                {
                    "duration": 0.12395833333333428,
                    "durationTicks": 119,
                    "midi": 48,
                    "name": "C3",
                    "ticks": 25800,
                    "time": 26.875,
                    "velocity": 0.9921259842519685
                },
                {
                    "duration": 0.12395833333333428,
                    "durationTicks": 119,
                    "midi": 36,
                    "name": "C2",
                    "ticks": 26040,
                    "time": 27.125,
                    "velocity": 0.9921259842519685
                },
                {
                    "duration": 0.12395833333333428,
                    "durationTicks": 119,
                    "midi": 48,
                    "name": "C3",
                    "ticks": 26040,
                    "time": 27.125,
                    "velocity": 0.9921259842519685
                },
                {
                    "duration": 0.11770833333333286,
                    "durationTicks": 113,
                    "midi": 36,
                    "name": "C2",
                    "ticks": 26280,
                    "time": 27.375,
                    "velocity": 0.9921259842519685
                },
                {
                    "duration": 0.11770833333333286,
                    "durationTicks": 113,
                    "midi": 48,
                    "name": "C3",
                    "ticks": 26280,
                    "time": 27.375,
                    "velocity": 0.9921259842519685
                },
                {
                    "duration": 0.11770833333333286,
                    "durationTicks": 113,
                    "midi": 36,
                    "name": "C2",
                    "ticks": 26400,
                    "time": 27.5,
                    "velocity": 0.9921259842519685
                },
                {
                    "duration": 0.11770833333333286,
                    "durationTicks": 113,
                    "midi": 48,
                    "name": "C3",
                    "ticks": 26400,
                    "time": 27.5,
                    "velocity": 0.9921259842519685
                },
                {
                    "duration": 0.11770833333333286,
                    "durationTicks": 113,
                    "midi": 36,
                    "name": "C2",
                    "ticks": 26520,
                    "time": 27.625,
                    "velocity": 0.9921259842519685
                },
                {
                    "duration": 0.11770833333333286,
                    "durationTicks": 113,
                    "midi": 48,
                    "name": "C3",
                    "ticks": 26520,
                    "time": 27.625,
                    "velocity": 0.9921259842519685
                },
                {
                    "duration": 0.12395833333333428,
                    "durationTicks": 119,
                    "midi": 36,
                    "name": "C2",
                    "ticks": 26640,
                    "time": 27.75,
                    "velocity": 0.9921259842519685
                },
                {
                    "duration": 0.12395833333333428,
                    "durationTicks": 119,
                    "midi": 48,
                    "name": "C3",
                    "ticks": 26640,
                    "time": 27.75,
                    "velocity": 0.9921259842519685
                },
                {
                    "duration": 0.12395833333333428,
                    "durationTicks": 119,
                    "midi": 35,
                    "name": "B1",
                    "ticks": 26880,
                    "time": 28,
                    "velocity": 0.9921259842519685
                },
                {
                    "duration": 0.12395833333333428,
                    "durationTicks": 119,
                    "midi": 47,
                    "name": "B2",
                    "ticks": 26880,
                    "time": 28,
                    "velocity": 0.9921259842519685
                },
                {
                    "duration": 0.12395833333333428,
                    "durationTicks": 119,
                    "midi": 35,
                    "name": "B1",
                    "ticks": 27120,
                    "time": 28.25,
                    "velocity": 0.9921259842519685
                },
                {
                    "duration": 0.12395833333333428,
                    "durationTicks": 119,
                    "midi": 47,
                    "name": "B2",
                    "ticks": 27120,
                    "time": 28.25,
                    "velocity": 0.9921259842519685
                },
                {
                    "duration": 0.11770833333333286,
                    "durationTicks": 113,
                    "midi": 35,
                    "name": "B1",
                    "ticks": 27360,
                    "time": 28.5,
                    "velocity": 0.9921259842519685
                },
                {
                    "duration": 0.11770833333333286,
                    "durationTicks": 113,
                    "midi": 47,
                    "name": "B2",
                    "ticks": 27360,
                    "time": 28.5,
                    "velocity": 0.9921259842519685
                },
                {
                    "duration": 0.11770833333333286,
                    "durationTicks": 113,
                    "midi": 35,
                    "name": "B1",
                    "ticks": 27480,
                    "time": 28.625,
                    "velocity": 0.9921259842519685
                },
                {
                    "duration": 0.11770833333333286,
                    "durationTicks": 113,
                    "midi": 47,
                    "name": "B2",
                    "ticks": 27480,
                    "time": 28.625,
                    "velocity": 0.9921259842519685
                },
                {
                    "duration": 0.12395833333333428,
                    "durationTicks": 119,
                    "midi": 35,
                    "name": "B1",
                    "ticks": 27720,
                    "time": 28.875,
                    "velocity": 0.9921259842519685
                },
                {
                    "duration": 0.12395833333333428,
                    "durationTicks": 119,
                    "midi": 47,
                    "name": "B2",
                    "ticks": 27720,
                    "time": 28.875,
                    "velocity": 0.9921259842519685
                },
                {
                    "duration": 0.12395833333333428,
                    "durationTicks": 119,
                    "midi": 35,
                    "name": "B1",
                    "ticks": 27960,
                    "time": 29.125,
                    "velocity": 0.9921259842519685
                },
                {
                    "duration": 0.12395833333333428,
                    "durationTicks": 119,
                    "midi": 47,
                    "name": "B2",
                    "ticks": 27960,
                    "time": 29.125,
                    "velocity": 0.9921259842519685
                },
                {
                    "duration": 0.11770833333333286,
                    "durationTicks": 113,
                    "midi": 35,
                    "name": "B1",
                    "ticks": 28200,
                    "time": 29.375,
                    "velocity": 0.9921259842519685
                },
                {
                    "duration": 0.11770833333333286,
                    "durationTicks": 113,
                    "midi": 47,
                    "name": "B2",
                    "ticks": 28200,
                    "time": 29.375,
                    "velocity": 0.9921259842519685
                },
                {
                    "duration": 0.11770833333333286,
                    "durationTicks": 113,
                    "midi": 35,
                    "name": "B1",
                    "ticks": 28320,
                    "time": 29.5,
                    "velocity": 0.9921259842519685
                },
                {
                    "duration": 0.11770833333333286,
                    "durationTicks": 113,
                    "midi": 47,
                    "name": "B2",
                    "ticks": 28320,
                    "time": 29.5,
                    "velocity": 0.9921259842519685
                },
                {
                    "duration": 0.11770833333333286,
                    "durationTicks": 113,
                    "midi": 35,
                    "name": "B1",
                    "ticks": 28440,
                    "time": 29.625,
                    "velocity": 0.9921259842519685
                },
                {
                    "duration": 0.11770833333333286,
                    "durationTicks": 113,
                    "midi": 47,
                    "name": "B2",
                    "ticks": 28440,
                    "time": 29.625,
                    "velocity": 0.9921259842519685
                },
                {
                    "duration": 0.12395833333333428,
                    "durationTicks": 119,
                    "midi": 35,
                    "name": "B1",
                    "ticks": 28560,
                    "time": 29.75,
                    "velocity": 0.9921259842519685
                },
                {
                    "duration": 0.12395833333333428,
                    "durationTicks": 119,
                    "midi": 47,
                    "name": "B2",
                    "ticks": 28560,
                    "time": 29.75,
                    "velocity": 0.9921259842519685
                },
                {
                    "duration": 0.12395833333333428,
                    "durationTicks": 119,
                    "midi": 34,
                    "name": "A#1",
                    "ticks": 28800,
                    "time": 30,
                    "velocity": 0.9921259842519685
                },
                {
                    "duration": 0.12395833333333428,
                    "durationTicks": 119,
                    "midi": 46,
                    "name": "A#2",
                    "ticks": 28800,
                    "time": 30,
                    "velocity": 0.9921259842519685
                },
                {
                    "duration": 0.12395833333333428,
                    "durationTicks": 119,
                    "midi": 34,
                    "name": "A#1",
                    "ticks": 29040,
                    "time": 30.25,
                    "velocity": 0.9921259842519685
                },
                {
                    "duration": 0.12395833333333428,
                    "durationTicks": 119,
                    "midi": 46,
                    "name": "A#2",
                    "ticks": 29040,
                    "time": 30.25,
                    "velocity": 0.9921259842519685
                },
                {
                    "duration": 0.11770833333333286,
                    "durationTicks": 113,
                    "midi": 34,
                    "name": "A#1",
                    "ticks": 29280,
                    "time": 30.5,
                    "velocity": 0.9921259842519685
                },
                {
                    "duration": 0.11770833333333286,
                    "durationTicks": 113,
                    "midi": 46,
                    "name": "A#2",
                    "ticks": 29280,
                    "time": 30.5,
                    "velocity": 0.9921259842519685
                },
                {
                    "duration": 0.11770833333333286,
                    "durationTicks": 113,
                    "midi": 34,
                    "name": "A#1",
                    "ticks": 29400,
                    "time": 30.625,
                    "velocity": 0.9921259842519685
                },
                {
                    "duration": 0.11770833333333286,
                    "durationTicks": 113,
                    "midi": 46,
                    "name": "A#2",
                    "ticks": 29400,
                    "time": 30.625,
                    "velocity": 0.9921259842519685
                },
                {
                    "duration": 0.12395833333333428,
                    "durationTicks": 119,
                    "midi": 36,
                    "name": "C2",
                    "ticks": 29640,
                    "time": 30.875,
                    "velocity": 0.9921259842519685
                },
                {
                    "duration": 0.12395833333333428,
                    "durationTicks": 119,
                    "midi": 48,
                    "name": "C3",
                    "ticks": 29640,
                    "time": 30.875,
                    "velocity": 0.9921259842519685
                },
                {
                    "duration": 0.12395833333333428,
                    "durationTicks": 119,
                    "midi": 36,
                    "name": "C2",
                    "ticks": 29880,
                    "time": 31.125,
                    "velocity": 0.9921259842519685
                },
                {
                    "duration": 0.12395833333333428,
                    "durationTicks": 119,
                    "midi": 48,
                    "name": "C3",
                    "ticks": 29880,
                    "time": 31.125,
                    "velocity": 0.9921259842519685
                },
                {
                    "duration": 0.11770833333333286,
                    "durationTicks": 113,
                    "midi": 36,
                    "name": "C2",
                    "ticks": 30120,
                    "time": 31.375,
                    "velocity": 0.9921259842519685
                },
                {
                    "duration": 0.11770833333333286,
                    "durationTicks": 113,
                    "midi": 48,
                    "name": "C3",
                    "ticks": 30120,
                    "time": 31.375,
                    "velocity": 0.9921259842519685
                },
                {
                    "duration": 0.11770833333333286,
                    "durationTicks": 113,
                    "midi": 36,
                    "name": "C2",
                    "ticks": 30240,
                    "time": 31.5,
                    "velocity": 0.9921259842519685
                },
                {
                    "duration": 0.11770833333333286,
                    "durationTicks": 113,
                    "midi": 48,
                    "name": "C3",
                    "ticks": 30240,
                    "time": 31.5,
                    "velocity": 0.9921259842519685
                },
                {
                    "duration": 0.11770833333333286,
                    "durationTicks": 113,
                    "midi": 36,
                    "name": "C2",
                    "ticks": 30360,
                    "time": 31.625,
                    "velocity": 0.9921259842519685
                },
                {
                    "duration": 0.11770833333333286,
                    "durationTicks": 113,
                    "midi": 48,
                    "name": "C3",
                    "ticks": 30360,
                    "time": 31.625,
                    "velocity": 0.9921259842519685
                },
                {
                    "duration": 0.12395833333333428,
                    "durationTicks": 119,
                    "midi": 36,
                    "name": "C2",
                    "ticks": 30480,
                    "time": 31.75,
                    "velocity": 0.9921259842519685
                },
                {
                    "duration": 0.12395833333333428,
                    "durationTicks": 119,
                    "midi": 48,
                    "name": "C3",
                    "ticks": 30480,
                    "time": 31.75,
                    "velocity": 0.9921259842519685
                },
                {
                    "duration": 0.12395833333333428,
                    "durationTicks": 119,
                    "midi": 50,
                    "name": "D3",
                    "ticks": 30720,
                    "time": 32,
                    "velocity": 0.7559055118110236
                },
                {
                    "duration": 0.12395833333333428,
                    "durationTicks": 119,
                    "midi": 50,
                    "name": "D3",
                    "ticks": 30960,
                    "time": 32.25,
                    "velocity": 0.7559055118110236
                },
                {
                    "duration": 0.11770833333333286,
                    "durationTicks": 113,
                    "midi": 50,
                    "name": "D3",
                    "ticks": 31200,
                    "time": 32.5,
                    "velocity": 0.7559055118110236
                },
                {
                    "duration": 0.11770833333333286,
                    "durationTicks": 113,
                    "midi": 50,
                    "name": "D3",
                    "ticks": 31320,
                    "time": 32.625,
                    "velocity": 0.7559055118110236
                },
                {
                    "duration": 0.12395833333333428,
                    "durationTicks": 119,
                    "midi": 50,
                    "name": "D3",
                    "ticks": 31560,
                    "time": 32.875,
                    "velocity": 0.7559055118110236
                },
                {
                    "duration": 0.12395833333333428,
                    "durationTicks": 119,
                    "midi": 50,
                    "name": "D3",
                    "ticks": 31800,
                    "time": 33.125,
                    "velocity": 0.7559055118110236
                },
                {
                    "duration": 0.11770833333333286,
                    "durationTicks": 113,
                    "midi": 50,
                    "name": "D3",
                    "ticks": 32040,
                    "time": 33.375,
                    "velocity": 0.7559055118110236
                },
                {
                    "duration": 0.11770833333333286,
                    "durationTicks": 113,
                    "midi": 50,
                    "name": "D3",
                    "ticks": 32160,
                    "time": 33.5,
                    "velocity": 0.7559055118110236
                },
                {
                    "duration": 0.11770833333333286,
                    "durationTicks": 113,
                    "midi": 50,
                    "name": "D3",
                    "ticks": 32280,
                    "time": 33.625,
                    "velocity": 0.7559055118110236
                },
                {
                    "duration": 0.12395833333333428,
                    "durationTicks": 119,
                    "midi": 50,
                    "name": "D3",
                    "ticks": 32400,
                    "time": 33.75,
                    "velocity": 0.7559055118110236
                },
                {
                    "duration": 0.12395833333333428,
                    "durationTicks": 119,
                    "midi": 48,
                    "name": "C3",
                    "ticks": 32640,
                    "time": 34,
                    "velocity": 0.7559055118110236
                },
                {
                    "duration": 0.12395833333333428,
                    "durationTicks": 119,
                    "midi": 48,
                    "name": "C3",
                    "ticks": 32880,
                    "time": 34.25,
                    "velocity": 0.7559055118110236
                },
                {
                    "duration": 0.11770833333333286,
                    "durationTicks": 113,
                    "midi": 48,
                    "name": "C3",
                    "ticks": 33120,
                    "time": 34.5,
                    "velocity": 0.7559055118110236
                },
                {
                    "duration": 0.11770833333333286,
                    "durationTicks": 113,
                    "midi": 48,
                    "name": "C3",
                    "ticks": 33240,
                    "time": 34.625,
                    "velocity": 0.7559055118110236
                },
                {
                    "duration": 0.12395833333333428,
                    "durationTicks": 119,
                    "midi": 48,
                    "name": "C3",
                    "ticks": 33480,
                    "time": 34.875,
                    "velocity": 0.7559055118110236
                },
                {
                    "duration": 0.12395833333333428,
                    "durationTicks": 119,
                    "midi": 48,
                    "name": "C3",
                    "ticks": 33720,
                    "time": 35.125,
                    "velocity": 0.7559055118110236
                },
                {
                    "duration": 0.11770833333333286,
                    "durationTicks": 113,
                    "midi": 48,
                    "name": "C3",
                    "ticks": 33960,
                    "time": 35.375,
                    "velocity": 0.7559055118110236
                },
                {
                    "duration": 0.11770833333333286,
                    "durationTicks": 113,
                    "midi": 48,
                    "name": "C3",
                    "ticks": 34080,
                    "time": 35.5,
                    "velocity": 0.7559055118110236
                },
                {
                    "duration": 0.11770833333333286,
                    "durationTicks": 113,
                    "midi": 48,
                    "name": "C3",
                    "ticks": 34200,
                    "time": 35.625,
                    "velocity": 0.7559055118110236
                },
                {
                    "duration": 0.12395833333333428,
                    "durationTicks": 119,
                    "midi": 48,
                    "name": "C3",
                    "ticks": 34320,
                    "time": 35.75,
                    "velocity": 0.7559055118110236
                },
                {
                    "duration": 0.12395833333333428,
                    "durationTicks": 119,
                    "midi": 47,
                    "name": "B2",
                    "ticks": 34560,
                    "time": 36,
                    "velocity": 0.7559055118110236
                },
                {
                    "duration": 0.12395833333333428,
                    "durationTicks": 119,
                    "midi": 47,
                    "name": "B2",
                    "ticks": 34800,
                    "time": 36.25,
                    "velocity": 0.7559055118110236
                },
                {
                    "duration": 0.11770833333333286,
                    "durationTicks": 113,
                    "midi": 47,
                    "name": "B2",
                    "ticks": 35040,
                    "time": 36.5,
                    "velocity": 0.7559055118110236
                },
                {
                    "duration": 0.11770833333333286,
                    "durationTicks": 113,
                    "midi": 47,
                    "name": "B2",
                    "ticks": 35160,
                    "time": 36.625,
                    "velocity": 0.7559055118110236
                },
                {
                    "duration": 0.12395833333333428,
                    "durationTicks": 119,
                    "midi": 47,
                    "name": "B2",
                    "ticks": 35400,
                    "time": 36.875,
                    "velocity": 0.7559055118110236
                },
                {
                    "duration": 0.12395833333333428,
                    "durationTicks": 119,
                    "midi": 47,
                    "name": "B2",
                    "ticks": 35640,
                    "time": 37.125,
                    "velocity": 0.7559055118110236
                },
                {
                    "duration": 0.11770833333333286,
                    "durationTicks": 113,
                    "midi": 47,
                    "name": "B2",
                    "ticks": 35880,
                    "time": 37.375,
                    "velocity": 0.7559055118110236
                },
                {
                    "duration": 0.11770833333333286,
                    "durationTicks": 113,
                    "midi": 47,
                    "name": "B2",
                    "ticks": 36000,
                    "time": 37.5,
                    "velocity": 0.7559055118110236
                },
                {
                    "duration": 0.11770833333333286,
                    "durationTicks": 113,
                    "midi": 47,
                    "name": "B2",
                    "ticks": 36120,
                    "time": 37.625,
                    "velocity": 0.7559055118110236
                },
                {
                    "duration": 0.12395833333333428,
                    "durationTicks": 119,
                    "midi": 47,
                    "name": "B2",
                    "ticks": 36240,
                    "time": 37.75,
                    "velocity": 0.7559055118110236
                },
                {
                    "duration": 0.12395833333333428,
                    "durationTicks": 119,
                    "midi": 46,
                    "name": "A#2",
                    "ticks": 36480,
                    "time": 38,
                    "velocity": 0.7559055118110236
                },
                {
                    "duration": 0.12395833333333428,
                    "durationTicks": 119,
                    "midi": 46,
                    "name": "A#2",
                    "ticks": 36720,
                    "time": 38.25,
                    "velocity": 0.7559055118110236
                },
                {
                    "duration": 0.11770833333333286,
                    "durationTicks": 113,
                    "midi": 46,
                    "name": "A#2",
                    "ticks": 36960,
                    "time": 38.5,
                    "velocity": 0.7559055118110236
                },
                {
                    "duration": 0.11770833333333286,
                    "durationTicks": 113,
                    "midi": 46,
                    "name": "A#2",
                    "ticks": 37080,
                    "time": 38.625,
                    "velocity": 0.7559055118110236
                },
                {
                    "duration": 0.12395833333333428,
                    "durationTicks": 119,
                    "midi": 48,
                    "name": "C3",
                    "ticks": 37320,
                    "time": 38.875,
                    "velocity": 0.7559055118110236
                },
                {
                    "duration": 0.12395833333333428,
                    "durationTicks": 119,
                    "midi": 48,
                    "name": "C3",
                    "ticks": 37560,
                    "time": 39.125,
                    "velocity": 0.7559055118110236
                },
                {
                    "duration": 0.11770833333333286,
                    "durationTicks": 113,
                    "midi": 48,
                    "name": "C3",
                    "ticks": 37800,
                    "time": 39.375,
                    "velocity": 0.7559055118110236
                },
                {
                    "duration": 0.11770833333333286,
                    "durationTicks": 113,
                    "midi": 48,
                    "name": "C3",
                    "ticks": 37920,
                    "time": 39.5,
                    "velocity": 0.7559055118110236
                },
                {
                    "duration": 0.11770833333333286,
                    "durationTicks": 113,
                    "midi": 48,
                    "name": "C3",
                    "ticks": 38040,
                    "time": 39.625,
                    "velocity": 0.7559055118110236
                },
                {
                    "duration": 0.12395833333333428,
                    "durationTicks": 119,
                    "midi": 48,
                    "name": "C3",
                    "ticks": 38160,
                    "time": 39.75,
                    "velocity": 0.7559055118110236
                },
                {
                    "duration": 0.11770833333333286,
                    "durationTicks": 113,
                    "midi": 62,
                    "name": "D4",
                    "ticks": 38400,
                    "time": 40,
                    "velocity": 0.8818897637795275
                },
                {
                    "duration": 1.8989583333333329,
                    "durationTicks": 1823,
                    "midi": 50,
                    "name": "D3",
                    "ticks": 38400,
                    "time": 40,
                    "velocity": 0.8818897637795275
                },
                {
                    "duration": 0.11770833333333286,
                    "durationTicks": 113,
                    "midi": 62,
                    "name": "D4",
                    "ticks": 38520,
                    "time": 40.125,
                    "velocity": 0.8818897637795275
                },
                {
                    "duration": 0.12395833333333428,
                    "durationTicks": 119,
                    "midi": 74,
                    "name": "D5",
                    "ticks": 38640,
                    "time": 40.25,
                    "velocity": 0.8818897637795275
                },
                {
                    "duration": 0.12395833333333428,
                    "durationTicks": 119,
                    "midi": 69,
                    "name": "A4",
                    "ticks": 38880,
                    "time": 40.5,
                    "velocity": 0.8818897637795275
                },
                {
                    "duration": 0.12395833333333428,
                    "durationTicks": 119,
                    "midi": 68,
                    "name": "G#4",
                    "ticks": 39240,
                    "time": 40.875,
                    "velocity": 0.8818897637795275
                },
                {
                    "duration": 0.12395833333333428,
                    "durationTicks": 119,
                    "midi": 67,
                    "name": "G4",
                    "ticks": 39480,
                    "time": 41.125,
                    "velocity": 0.8818897637795275
                },
                {
                    "duration": 0.23645833333333144,
                    "durationTicks": 227,
                    "midi": 65,
                    "name": "F4",
                    "ticks": 39720,
                    "time": 41.375,
                    "velocity": 0.8818897637795275
                },
                {
                    "duration": 0.11770833333333286,
                    "durationTicks": 113,
                    "midi": 62,
                    "name": "D4",
                    "ticks": 39960,
                    "time": 41.625,
                    "velocity": 0.8818897637795275
                },
                {
                    "duration": 0.11770833333333286,
                    "durationTicks": 113,
                    "midi": 65,
                    "name": "F4",
                    "ticks": 40080,
                    "time": 41.75,
                    "velocity": 0.8818897637795275
                },
                {
                    "duration": 0.11770833333333286,
                    "durationTicks": 113,
                    "midi": 67,
                    "name": "G4",
                    "ticks": 40200,
                    "time": 41.875,
                    "velocity": 0.8818897637795275
                },
                {
                    "duration": 0.11770833333333286,
                    "durationTicks": 113,
                    "midi": 60,
                    "name": "C4",
                    "ticks": 40320,
                    "time": 42,
                    "velocity": 0.8818897637795275
                },
                {
                    "duration": 1.8989583333333329,
                    "durationTicks": 1823,
                    "midi": 48,
                    "name": "C3",
                    "ticks": 40320,
                    "time": 42,
                    "velocity": 0.8818897637795275
                },
                {
                    "duration": 0.11770833333333286,
                    "durationTicks": 113,
                    "midi": 60,
                    "name": "C4",
                    "ticks": 40440,
                    "time": 42.125,
                    "velocity": 0.8818897637795275
                },
                {
                    "duration": 0.12395833333333428,
                    "durationTicks": 119,
                    "midi": 74,
                    "name": "D5",
                    "ticks": 40560,
                    "time": 42.25,
                    "velocity": 0.8818897637795275
                },
                {
                    "duration": 0.12395833333333428,
                    "durationTicks": 119,
                    "midi": 69,
                    "name": "A4",
                    "ticks": 40800,
                    "time": 42.5,
                    "velocity": 0.8818897637795275
                },
                {
                    "duration": 0.12395833333333428,
                    "durationTicks": 119,
                    "midi": 68,
                    "name": "G#4",
                    "ticks": 41160,
                    "time": 42.875,
                    "velocity": 0.8818897637795275
                },
                {
                    "duration": 0.12395833333333428,
                    "durationTicks": 119,
                    "midi": 67,
                    "name": "G4",
                    "ticks": 41400,
                    "time": 43.125,
                    "velocity": 0.8818897637795275
                },
                {
                    "duration": 0.23645833333333144,
                    "durationTicks": 227,
                    "midi": 65,
                    "name": "F4",
                    "ticks": 41640,
                    "time": 43.375,
                    "velocity": 0.8818897637795275
                },
                {
                    "duration": 0.11770833333333286,
                    "durationTicks": 113,
                    "midi": 62,
                    "name": "D4",
                    "ticks": 41880,
                    "time": 43.625,
                    "velocity": 0.8818897637795275
                },
                {
                    "duration": 0.11770833333333286,
                    "durationTicks": 113,
                    "midi": 65,
                    "name": "F4",
                    "ticks": 42000,
                    "time": 43.75,
                    "velocity": 0.8818897637795275
                },
                {
                    "duration": 0.11770833333333286,
                    "durationTicks": 113,
                    "midi": 67,
                    "name": "G4",
                    "ticks": 42120,
                    "time": 43.875,
                    "velocity": 0.8818897637795275
                },
                {
                    "duration": 0.11770833333333286,
                    "durationTicks": 113,
                    "midi": 59,
                    "name": "B3",
                    "ticks": 42240,
                    "time": 44,
                    "velocity": 0.8818897637795275
                },
                {
                    "duration": 1.8989583333333329,
                    "durationTicks": 1823,
                    "midi": 47,
                    "name": "B2",
                    "ticks": 42240,
                    "time": 44,
                    "velocity": 0.8818897637795275
                },
                {
                    "duration": 0.11770833333333286,
                    "durationTicks": 113,
                    "midi": 59,
                    "name": "B3",
                    "ticks": 42360,
                    "time": 44.125,
                    "velocity": 0.8818897637795275
                },
                {
                    "duration": 0.12395833333333428,
                    "durationTicks": 119,
                    "midi": 74,
                    "name": "D5",
                    "ticks": 42480,
                    "time": 44.25,
                    "velocity": 0.8818897637795275
                },
                {
                    "duration": 0.12395833333333428,
                    "durationTicks": 119,
                    "midi": 69,
                    "name": "A4",
                    "ticks": 42720,
                    "time": 44.5,
                    "velocity": 0.8818897637795275
                },
                {
                    "duration": 0.12395833333333428,
                    "durationTicks": 119,
                    "midi": 68,
                    "name": "G#4",
                    "ticks": 43080,
                    "time": 44.875,
                    "velocity": 0.8818897637795275
                },
                {
                    "duration": 0.12395833333333428,
                    "durationTicks": 119,
                    "midi": 67,
                    "name": "G4",
                    "ticks": 43320,
                    "time": 45.125,
                    "velocity": 0.8818897637795275
                },
                {
                    "duration": 0.23645833333333144,
                    "durationTicks": 227,
                    "midi": 65,
                    "name": "F4",
                    "ticks": 43560,
                    "time": 45.375,
                    "velocity": 0.8818897637795275
                },
                {
                    "duration": 0.11770833333333286,
                    "durationTicks": 113,
                    "midi": 62,
                    "name": "D4",
                    "ticks": 43800,
                    "time": 45.625,
                    "velocity": 0.8818897637795275
                },
                {
                    "duration": 0.11770833333333286,
                    "durationTicks": 113,
                    "midi": 65,
                    "name": "F4",
                    "ticks": 43920,
                    "time": 45.75,
                    "velocity": 0.8818897637795275
                },
                {
                    "duration": 0.11770833333333286,
                    "durationTicks": 113,
                    "midi": 67,
                    "name": "G4",
                    "ticks": 44040,
                    "time": 45.875,
                    "velocity": 0.8818897637795275
                },
                {
                    "duration": 0.11770833333333286,
                    "durationTicks": 113,
                    "midi": 58,
                    "name": "A#3",
                    "ticks": 44160,
                    "time": 46,
                    "velocity": 0.8818897637795275
                },
                {
                    "duration": 0.8302083333333314,
                    "durationTicks": 797,
                    "midi": 46,
                    "name": "A#2",
                    "ticks": 44160,
                    "time": 46,
                    "velocity": 0.8818897637795275
                },
                {
                    "duration": 0.11770833333333286,
                    "durationTicks": 113,
                    "midi": 58,
                    "name": "A#3",
                    "ticks": 44280,
                    "time": 46.125,
                    "velocity": 0.8818897637795275
                },
                {
                    "duration": 0.12395833333333428,
                    "durationTicks": 119,
                    "midi": 74,
                    "name": "D5",
                    "ticks": 44400,
                    "time": 46.25,
                    "velocity": 0.8818897637795275
                },
                {
                    "duration": 0.12395833333333428,
                    "durationTicks": 119,
                    "midi": 69,
                    "name": "A4",
                    "ticks": 44640,
                    "time": 46.5,
                    "velocity": 0.8818897637795275
                },
                {
                    "duration": 1.0677083333333357,
                    "durationTicks": 1025,
                    "midi": 48,
                    "name": "C3",
                    "ticks": 45000,
                    "time": 46.875,
                    "velocity": 0.8818897637795275
                },
                {
                    "duration": 0.12395833333333428,
                    "durationTicks": 119,
                    "midi": 67,
                    "name": "G4",
                    "ticks": 45240,
                    "time": 47.125,
                    "velocity": 0.8818897637795275
                },
                {
                    "duration": 0.23645833333333144,
                    "durationTicks": 227,
                    "midi": 65,
                    "name": "F4",
                    "ticks": 45480,
                    "time": 47.375,
                    "velocity": 0.8818897637795275
                },
                {
                    "duration": 0.11770833333333286,
                    "durationTicks": 113,
                    "midi": 62,
                    "name": "D4",
                    "ticks": 45720,
                    "time": 47.625,
                    "velocity": 0.8818897637795275
                },
                {
                    "duration": 0.11770833333333286,
                    "durationTicks": 113,
                    "midi": 65,
                    "name": "F4",
                    "ticks": 45840,
                    "time": 47.75,
                    "velocity": 0.8818897637795275
                },
                {
                    "duration": 0.11770833333333286,
                    "durationTicks": 113,
                    "midi": 67,
                    "name": "G4",
                    "ticks": 45960,
                    "time": 47.875,
                    "velocity": 0.8818897637795275
                },
                {
                    "duration": 0.12395833333333428,
                    "durationTicks": 119,
                    "midi": 34,
                    "name": "A#1",
                    "ticks": 46080,
                    "time": 48,
                    "velocity": 0.8818897637795275
                },
                {
                    "duration": 0.12395833333333428,
                    "durationTicks": 119,
                    "midi": 46,
                    "name": "A#2",
                    "ticks": 46080,
                    "time": 48,
                    "velocity": 0.8818897637795275
                },
                {
                    "duration": 0.12395833333333428,
                    "durationTicks": 119,
                    "midi": 34,
                    "name": "A#1",
                    "ticks": 46320,
                    "time": 48.25,
                    "velocity": 0.8818897637795275
                },
                {
                    "duration": 0.12395833333333428,
                    "durationTicks": 119,
                    "midi": 46,
                    "name": "A#2",
                    "ticks": 46320,
                    "time": 48.25,
                    "velocity": 0.8818897637795275
                },
                {
                    "duration": 0.11770833333333286,
                    "durationTicks": 113,
                    "midi": 34,
                    "name": "A#1",
                    "ticks": 46560,
                    "time": 48.5,
                    "velocity": 0.8818897637795275
                },
                {
                    "duration": 0.11770833333333286,
                    "durationTicks": 113,
                    "midi": 46,
                    "name": "A#2",
                    "ticks": 46560,
                    "time": 48.5,
                    "velocity": 0.8818897637795275
                },
                {
                    "duration": 0.11770833333333286,
                    "durationTicks": 113,
                    "midi": 34,
                    "name": "A#1",
                    "ticks": 46680,
                    "time": 48.625,
                    "velocity": 0.8818897637795275
                },
                {
                    "duration": 0.11770833333333286,
                    "durationTicks": 113,
                    "midi": 46,
                    "name": "A#2",
                    "ticks": 46680,
                    "time": 48.625,
                    "velocity": 0.8818897637795275
                },
                {
                    "duration": 0.12395833333333428,
                    "durationTicks": 119,
                    "midi": 34,
                    "name": "A#1",
                    "ticks": 46920,
                    "time": 48.875,
                    "velocity": 0.8818897637795275
                },
                {
                    "duration": 0.12395833333333428,
                    "durationTicks": 119,
                    "midi": 46,
                    "name": "A#2",
                    "ticks": 46920,
                    "time": 48.875,
                    "velocity": 0.8818897637795275
                },
                {
                    "duration": 0.12395833333333428,
                    "durationTicks": 119,
                    "midi": 34,
                    "name": "A#1",
                    "ticks": 47160,
                    "time": 49.125,
                    "velocity": 0.8818897637795275
                },
                {
                    "duration": 0.12395833333333428,
                    "durationTicks": 119,
                    "midi": 46,
                    "name": "A#2",
                    "ticks": 47160,
                    "time": 49.125,
                    "velocity": 0.8818897637795275
                },
                {
                    "duration": 0.11770833333333286,
                    "durationTicks": 113,
                    "midi": 34,
                    "name": "A#1",
                    "ticks": 47400,
                    "time": 49.375,
                    "velocity": 0.8818897637795275
                },
                {
                    "duration": 0.11770833333333286,
                    "durationTicks": 113,
                    "midi": 46,
                    "name": "A#2",
                    "ticks": 47400,
                    "time": 49.375,
                    "velocity": 0.8818897637795275
                },
                {
                    "duration": 0.11770833333333286,
                    "durationTicks": 113,
                    "midi": 34,
                    "name": "A#1",
                    "ticks": 47520,
                    "time": 49.5,
                    "velocity": 0.8818897637795275
                },
                {
                    "duration": 0.11770833333333286,
                    "durationTicks": 113,
                    "midi": 46,
                    "name": "A#2",
                    "ticks": 47520,
                    "time": 49.5,
                    "velocity": 0.8818897637795275
                },
                {
                    "duration": 0.11770833333333286,
                    "durationTicks": 113,
                    "midi": 34,
                    "name": "A#1",
                    "ticks": 47640,
                    "time": 49.625,
                    "velocity": 0.8818897637795275
                },
                {
                    "duration": 0.11770833333333286,
                    "durationTicks": 113,
                    "midi": 46,
                    "name": "A#2",
                    "ticks": 47640,
                    "time": 49.625,
                    "velocity": 0.8818897637795275
                },
                {
                    "duration": 0.23645833333333144,
                    "durationTicks": 227,
                    "midi": 34,
                    "name": "A#1",
                    "ticks": 47760,
                    "time": 49.75,
                    "velocity": 0.8818897637795275
                },
                {
                    "duration": 0.23645833333333144,
                    "durationTicks": 227,
                    "midi": 46,
                    "name": "A#2",
                    "ticks": 47760,
                    "time": 49.75,
                    "velocity": 0.8818897637795275
                },
                {
                    "duration": 0.12395833333333428,
                    "durationTicks": 119,
                    "midi": 36,
                    "name": "C2",
                    "ticks": 48000,
                    "time": 50,
                    "velocity": 0.8818897637795275
                },
                {
                    "duration": 0.12395833333333428,
                    "durationTicks": 119,
                    "midi": 48,
                    "name": "C3",
                    "ticks": 48000,
                    "time": 50,
                    "velocity": 0.8818897637795275
                },
                {
                    "duration": 0.12395833333333428,
                    "durationTicks": 119,
                    "midi": 36,
                    "name": "C2",
                    "ticks": 48240,
                    "time": 50.25,
                    "velocity": 0.8818897637795275
                },
                {
                    "duration": 0.12395833333333428,
                    "durationTicks": 119,
                    "midi": 48,
                    "name": "C3",
                    "ticks": 48240,
                    "time": 50.25,
                    "velocity": 0.8818897637795275
                },
                {
                    "duration": 0.11770833333333286,
                    "durationTicks": 113,
                    "midi": 36,
                    "name": "C2",
                    "ticks": 48480,
                    "time": 50.5,
                    "velocity": 0.8818897637795275
                },
                {
                    "duration": 0.11770833333333286,
                    "durationTicks": 113,
                    "midi": 48,
                    "name": "C3",
                    "ticks": 48480,
                    "time": 50.5,
                    "velocity": 0.8818897637795275
                },
                {
                    "duration": 0.11770833333333286,
                    "durationTicks": 113,
                    "midi": 36,
                    "name": "C2",
                    "ticks": 48600,
                    "time": 50.625,
                    "velocity": 0.8818897637795275
                },
                {
                    "duration": 0.11770833333333286,
                    "durationTicks": 113,
                    "midi": 48,
                    "name": "C3",
                    "ticks": 48600,
                    "time": 50.625,
                    "velocity": 0.8818897637795275
                },
                {
                    "duration": 0.12395833333333428,
                    "durationTicks": 119,
                    "midi": 36,
                    "name": "C2",
                    "ticks": 48840,
                    "time": 50.875,
                    "velocity": 0.8818897637795275
                },
                {
                    "duration": 0.12395833333333428,
                    "durationTicks": 119,
                    "midi": 48,
                    "name": "C3",
                    "ticks": 48840,
                    "time": 50.875,
                    "velocity": 0.8818897637795275
                },
                {
                    "duration": 0.12395833333333428,
                    "durationTicks": 119,
                    "midi": 36,
                    "name": "C2",
                    "ticks": 49080,
                    "time": 51.125,
                    "velocity": 0.8818897637795275
                },
                {
                    "duration": 0.12395833333333428,
                    "durationTicks": 119,
                    "midi": 48,
                    "name": "C3",
                    "ticks": 49080,
                    "time": 51.125,
                    "velocity": 0.8818897637795275
                },
                {
                    "duration": 0.11770833333333286,
                    "durationTicks": 113,
                    "midi": 36,
                    "name": "C2",
                    "ticks": 49320,
                    "time": 51.375,
                    "velocity": 0.8818897637795275
                },
                {
                    "duration": 0.11770833333333286,
                    "durationTicks": 113,
                    "midi": 48,
                    "name": "C3",
                    "ticks": 49320,
                    "time": 51.375,
                    "velocity": 0.8818897637795275
                },
                {
                    "duration": 0.11770833333333286,
                    "durationTicks": 113,
                    "midi": 36,
                    "name": "C2",
                    "ticks": 49440,
                    "time": 51.5,
                    "velocity": 0.8818897637795275
                },
                {
                    "duration": 0.11770833333333286,
                    "durationTicks": 113,
                    "midi": 48,
                    "name": "C3",
                    "ticks": 49440,
                    "time": 51.5,
                    "velocity": 0.8818897637795275
                },
                {
                    "duration": 0.11770833333333286,
                    "durationTicks": 113,
                    "midi": 36,
                    "name": "C2",
                    "ticks": 49560,
                    "time": 51.625,
                    "velocity": 0.8818897637795275
                },
                {
                    "duration": 0.11770833333333286,
                    "durationTicks": 113,
                    "midi": 48,
                    "name": "C3",
                    "ticks": 49560,
                    "time": 51.625,
                    "velocity": 0.8818897637795275
                },
                {
                    "duration": 0.23645833333333144,
                    "durationTicks": 227,
                    "midi": 36,
                    "name": "C2",
                    "ticks": 49680,
                    "time": 51.75,
                    "velocity": 0.8818897637795275
                },
                {
                    "duration": 0.23645833333333144,
                    "durationTicks": 227,
                    "midi": 48,
                    "name": "C3",
                    "ticks": 49680,
                    "time": 51.75,
                    "velocity": 0.8818897637795275
                },
                {
                    "duration": 0.12395833333333428,
                    "durationTicks": 119,
                    "midi": 38,
                    "name": "D2",
                    "ticks": 49920,
                    "time": 52,
                    "velocity": 0.8818897637795275
                },
                {
                    "duration": 0.12395833333333428,
                    "durationTicks": 119,
                    "midi": 50,
                    "name": "D3",
                    "ticks": 49920,
                    "time": 52,
                    "velocity": 0.8818897637795275
                },
                {
                    "duration": 0.12395833333333428,
                    "durationTicks": 119,
                    "midi": 38,
                    "name": "D2",
                    "ticks": 50160,
                    "time": 52.25,
                    "velocity": 0.8818897637795275
                },
                {
                    "duration": 0.12395833333333428,
                    "durationTicks": 119,
                    "midi": 50,
                    "name": "D3",
                    "ticks": 50160,
                    "time": 52.25,
                    "velocity": 0.8818897637795275
                },
                {
                    "duration": 0.11770833333333286,
                    "durationTicks": 113,
                    "midi": 38,
                    "name": "D2",
                    "ticks": 50400,
                    "time": 52.5,
                    "velocity": 0.8818897637795275
                },
                {
                    "duration": 0.11770833333333286,
                    "durationTicks": 113,
                    "midi": 50,
                    "name": "D3",
                    "ticks": 50400,
                    "time": 52.5,
                    "velocity": 0.8818897637795275
                },
                {
                    "duration": 0.11770833333333286,
                    "durationTicks": 113,
                    "midi": 38,
                    "name": "D2",
                    "ticks": 50520,
                    "time": 52.625,
                    "velocity": 0.8818897637795275
                },
                {
                    "duration": 0.11770833333333286,
                    "durationTicks": 113,
                    "midi": 50,
                    "name": "D3",
                    "ticks": 50520,
                    "time": 52.625,
                    "velocity": 0.8818897637795275
                },
                {
                    "duration": 0.12395833333333428,
                    "durationTicks": 119,
                    "midi": 38,
                    "name": "D2",
                    "ticks": 50760,
                    "time": 52.875,
                    "velocity": 0.8818897637795275
                },
                {
                    "duration": 0.12395833333333428,
                    "durationTicks": 119,
                    "midi": 50,
                    "name": "D3",
                    "ticks": 50760,
                    "time": 52.875,
                    "velocity": 0.8818897637795275
                },
                {
                    "duration": 0.12395833333333428,
                    "durationTicks": 119,
                    "midi": 38,
                    "name": "D2",
                    "ticks": 51000,
                    "time": 53.125,
                    "velocity": 0.8818897637795275
                },
                {
                    "duration": 0.12395833333333428,
                    "durationTicks": 119,
                    "midi": 50,
                    "name": "D3",
                    "ticks": 51000,
                    "time": 53.125,
                    "velocity": 0.8818897637795275
                },
                {
                    "duration": 0.11770833333333286,
                    "durationTicks": 113,
                    "midi": 38,
                    "name": "D2",
                    "ticks": 51240,
                    "time": 53.375,
                    "velocity": 0.8818897637795275
                },
                {
                    "duration": 0.11770833333333286,
                    "durationTicks": 113,
                    "midi": 50,
                    "name": "D3",
                    "ticks": 51240,
                    "time": 53.375,
                    "velocity": 0.8818897637795275
                },
                {
                    "duration": 0.11770833333333286,
                    "durationTicks": 113,
                    "midi": 38,
                    "name": "D2",
                    "ticks": 51360,
                    "time": 53.5,
                    "velocity": 0.8818897637795275
                },
                {
                    "duration": 0.11770833333333286,
                    "durationTicks": 113,
                    "midi": 50,
                    "name": "D3",
                    "ticks": 51360,
                    "time": 53.5,
                    "velocity": 0.8818897637795275
                },
                {
                    "duration": 0.11770833333333286,
                    "durationTicks": 113,
                    "midi": 38,
                    "name": "D2",
                    "ticks": 51480,
                    "time": 53.625,
                    "velocity": 0.8818897637795275
                },
                {
                    "duration": 0.11770833333333286,
                    "durationTicks": 113,
                    "midi": 50,
                    "name": "D3",
                    "ticks": 51480,
                    "time": 53.625,
                    "velocity": 0.8818897637795275
                },
                {
                    "duration": 0.23645833333333144,
                    "durationTicks": 227,
                    "midi": 38,
                    "name": "D2",
                    "ticks": 51600,
                    "time": 53.75,
                    "velocity": 0.8818897637795275
                },
                {
                    "duration": 0.23645833333333144,
                    "durationTicks": 227,
                    "midi": 50,
                    "name": "D3",
                    "ticks": 51600,
                    "time": 53.75,
                    "velocity": 0.8818897637795275
                },
                {
                    "duration": 0.12395833333333428,
                    "durationTicks": 119,
                    "midi": 37,
                    "name": "C#2",
                    "ticks": 51840,
                    "time": 54,
                    "velocity": 0.8818897637795275
                },
                {
                    "duration": 0.12395833333333428,
                    "durationTicks": 119,
                    "midi": 49,
                    "name": "C#3",
                    "ticks": 51840,
                    "time": 54,
                    "velocity": 0.8818897637795275
                },
                {
                    "duration": 0.12395833333333428,
                    "durationTicks": 119,
                    "midi": 37,
                    "name": "C#2",
                    "ticks": 52080,
                    "time": 54.25,
                    "velocity": 0.8818897637795275
                },
                {
                    "duration": 0.12395833333333428,
                    "durationTicks": 119,
                    "midi": 49,
                    "name": "C#3",
                    "ticks": 52080,
                    "time": 54.25,
                    "velocity": 0.8818897637795275
                },
                {
                    "duration": 0.11770833333333286,
                    "durationTicks": 113,
                    "midi": 37,
                    "name": "C#2",
                    "ticks": 52320,
                    "time": 54.5,
                    "velocity": 0.8818897637795275
                },
                {
                    "duration": 0.11770833333333286,
                    "durationTicks": 113,
                    "midi": 49,
                    "name": "C#3",
                    "ticks": 52320,
                    "time": 54.5,
                    "velocity": 0.8818897637795275
                },
                {
                    "duration": 0.11770833333333286,
                    "durationTicks": 113,
                    "midi": 37,
                    "name": "C#2",
                    "ticks": 52440,
                    "time": 54.625,
                    "velocity": 0.8818897637795275
                },
                {
                    "duration": 0.11770833333333286,
                    "durationTicks": 113,
                    "midi": 49,
                    "name": "C#3",
                    "ticks": 52440,
                    "time": 54.625,
                    "velocity": 0.8818897637795275
                },
                {
                    "duration": 0.12395833333333428,
                    "durationTicks": 119,
                    "midi": 39,
                    "name": "D#2",
                    "ticks": 52680,
                    "time": 54.875,
                    "velocity": 0.8818897637795275
                },
                {
                    "duration": 0.12395833333333428,
                    "durationTicks": 119,
                    "midi": 51,
                    "name": "D#3",
                    "ticks": 52680,
                    "time": 54.875,
                    "velocity": 0.8818897637795275
                },
                {
                    "duration": 0.12395833333333428,
                    "durationTicks": 119,
                    "midi": 39,
                    "name": "D#2",
                    "ticks": 52920,
                    "time": 55.125,
                    "velocity": 0.8818897637795275
                },
                {
                    "duration": 0.12395833333333428,
                    "durationTicks": 119,
                    "midi": 51,
                    "name": "D#3",
                    "ticks": 52920,
                    "time": 55.125,
                    "velocity": 0.8818897637795275
                },
                {
                    "duration": 0.11770833333333286,
                    "durationTicks": 113,
                    "midi": 39,
                    "name": "D#2",
                    "ticks": 53160,
                    "time": 55.375,
                    "velocity": 0.8818897637795275
                },
                {
                    "duration": 0.11770833333333286,
                    "durationTicks": 113,
                    "midi": 51,
                    "name": "D#3",
                    "ticks": 53160,
                    "time": 55.375,
                    "velocity": 0.8818897637795275
                },
                {
                    "duration": 0.11770833333333286,
                    "durationTicks": 113,
                    "midi": 39,
                    "name": "D#2",
                    "ticks": 53280,
                    "time": 55.5,
                    "velocity": 0.8818897637795275
                },
                {
                    "duration": 0.11770833333333286,
                    "durationTicks": 113,
                    "midi": 51,
                    "name": "D#3",
                    "ticks": 53280,
                    "time": 55.5,
                    "velocity": 0.8818897637795275
                },
                {
                    "duration": 0.11770833333333286,
                    "durationTicks": 113,
                    "midi": 39,
                    "name": "D#2",
                    "ticks": 53400,
                    "time": 55.625,
                    "velocity": 0.8818897637795275
                },
                {
                    "duration": 0.11770833333333286,
                    "durationTicks": 113,
                    "midi": 51,
                    "name": "D#3",
                    "ticks": 53400,
                    "time": 55.625,
                    "velocity": 0.8818897637795275
                },
                {
                    "duration": 0.23645833333333144,
                    "durationTicks": 227,
                    "midi": 39,
                    "name": "D#2",
                    "ticks": 53520,
                    "time": 55.75,
                    "velocity": 0.8818897637795275
                },
                {
                    "duration": 0.23645833333333144,
                    "durationTicks": 227,
                    "midi": 51,
                    "name": "D#3",
                    "ticks": 53520,
                    "time": 55.75,
                    "velocity": 0.8818897637795275
                },
                {
                    "duration": 0.12395833333333428,
                    "durationTicks": 119,
                    "midi": 34,
                    "name": "A#1",
                    "ticks": 53760,
                    "time": 56,
                    "velocity": 0.8818897637795275
                },
                {
                    "duration": 0.12395833333333428,
                    "durationTicks": 119,
                    "midi": 46,
                    "name": "A#2",
                    "ticks": 53760,
                    "time": 56,
                    "velocity": 0.8818897637795275
                },
                {
                    "duration": 0.12395833333333428,
                    "durationTicks": 119,
                    "midi": 34,
                    "name": "A#1",
                    "ticks": 54000,
                    "time": 56.25,
                    "velocity": 0.8818897637795275
                },
                {
                    "duration": 0.12395833333333428,
                    "durationTicks": 119,
                    "midi": 46,
                    "name": "A#2",
                    "ticks": 54000,
                    "time": 56.25,
                    "velocity": 0.8818897637795275
                },
                {
                    "duration": 0.11770833333333286,
                    "durationTicks": 113,
                    "midi": 34,
                    "name": "A#1",
                    "ticks": 54240,
                    "time": 56.5,
                    "velocity": 0.8818897637795275
                },
                {
                    "duration": 0.11770833333333286,
                    "durationTicks": 113,
                    "midi": 46,
                    "name": "A#2",
                    "ticks": 54240,
                    "time": 56.5,
                    "velocity": 0.8818897637795275
                },
                {
                    "duration": 0.11770833333333286,
                    "durationTicks": 113,
                    "midi": 34,
                    "name": "A#1",
                    "ticks": 54360,
                    "time": 56.625,
                    "velocity": 0.8818897637795275
                },
                {
                    "duration": 0.11770833333333286,
                    "durationTicks": 113,
                    "midi": 46,
                    "name": "A#2",
                    "ticks": 54360,
                    "time": 56.625,
                    "velocity": 0.8818897637795275
                },
                {
                    "duration": 0.12395833333333428,
                    "durationTicks": 119,
                    "midi": 34,
                    "name": "A#1",
                    "ticks": 54600,
                    "time": 56.875,
                    "velocity": 0.8818897637795275
                },
                {
                    "duration": 0.12395833333333428,
                    "durationTicks": 119,
                    "midi": 46,
                    "name": "A#2",
                    "ticks": 54600,
                    "time": 56.875,
                    "velocity": 0.8818897637795275
                },
                {
                    "duration": 0.12395833333333428,
                    "durationTicks": 119,
                    "midi": 34,
                    "name": "A#1",
                    "ticks": 54840,
                    "time": 57.125,
                    "velocity": 0.8818897637795275
                },
                {
                    "duration": 0.12395833333333428,
                    "durationTicks": 119,
                    "midi": 46,
                    "name": "A#2",
                    "ticks": 54840,
                    "time": 57.125,
                    "velocity": 0.8818897637795275
                },
                {
                    "duration": 0.11770833333333286,
                    "durationTicks": 113,
                    "midi": 34,
                    "name": "A#1",
                    "ticks": 55080,
                    "time": 57.375,
                    "velocity": 0.8818897637795275
                },
                {
                    "duration": 0.11770833333333286,
                    "durationTicks": 113,
                    "midi": 46,
                    "name": "A#2",
                    "ticks": 55080,
                    "time": 57.375,
                    "velocity": 0.8818897637795275
                },
                {
                    "duration": 0.11770833333333286,
                    "durationTicks": 113,
                    "midi": 34,
                    "name": "A#1",
                    "ticks": 55200,
                    "time": 57.5,
                    "velocity": 0.8818897637795275
                },
                {
                    "duration": 0.11770833333333286,
                    "durationTicks": 113,
                    "midi": 46,
                    "name": "A#2",
                    "ticks": 55200,
                    "time": 57.5,
                    "velocity": 0.8818897637795275
                },
                {
                    "duration": 0.11770833333333286,
                    "durationTicks": 113,
                    "midi": 34,
                    "name": "A#1",
                    "ticks": 55320,
                    "time": 57.625,
                    "velocity": 0.8818897637795275
                },
                {
                    "duration": 0.11770833333333286,
                    "durationTicks": 113,
                    "midi": 46,
                    "name": "A#2",
                    "ticks": 55320,
                    "time": 57.625,
                    "velocity": 0.8818897637795275
                },
                {
                    "duration": 0.23645833333333144,
                    "durationTicks": 227,
                    "midi": 34,
                    "name": "A#1",
                    "ticks": 55440,
                    "time": 57.75,
                    "velocity": 0.8818897637795275
                },
                {
                    "duration": 0.23645833333333144,
                    "durationTicks": 227,
                    "midi": 46,
                    "name": "A#2",
                    "ticks": 55440,
                    "time": 57.75,
                    "velocity": 0.8818897637795275
                },
                {
                    "duration": 0.12395833333333428,
                    "durationTicks": 119,
                    "midi": 36,
                    "name": "C2",
                    "ticks": 55680,
                    "time": 58,
                    "velocity": 0.8818897637795275
                },
                {
                    "duration": 0.12395833333333428,
                    "durationTicks": 119,
                    "midi": 48,
                    "name": "C3",
                    "ticks": 55680,
                    "time": 58,
                    "velocity": 0.8818897637795275
                },
                {
                    "duration": 0.12395833333333428,
                    "durationTicks": 119,
                    "midi": 36,
                    "name": "C2",
                    "ticks": 55920,
                    "time": 58.25,
                    "velocity": 0.8818897637795275
                },
                {
                    "duration": 0.12395833333333428,
                    "durationTicks": 119,
                    "midi": 48,
                    "name": "C3",
                    "ticks": 55920,
                    "time": 58.25,
                    "velocity": 0.8818897637795275
                },
                {
                    "duration": 0.11770833333333286,
                    "durationTicks": 113,
                    "midi": 36,
                    "name": "C2",
                    "ticks": 56160,
                    "time": 58.5,
                    "velocity": 0.8818897637795275
                },
                {
                    "duration": 0.11770833333333286,
                    "durationTicks": 113,
                    "midi": 48,
                    "name": "C3",
                    "ticks": 56160,
                    "time": 58.5,
                    "velocity": 0.8818897637795275
                },
                {
                    "duration": 0.11770833333333286,
                    "durationTicks": 113,
                    "midi": 36,
                    "name": "C2",
                    "ticks": 56280,
                    "time": 58.625,
                    "velocity": 0.8818897637795275
                },
                {
                    "duration": 0.11770833333333286,
                    "durationTicks": 113,
                    "midi": 48,
                    "name": "C3",
                    "ticks": 56280,
                    "time": 58.625,
                    "velocity": 0.8818897637795275
                },
                {
                    "duration": 0.12395833333333428,
                    "durationTicks": 119,
                    "midi": 36,
                    "name": "C2",
                    "ticks": 56520,
                    "time": 58.875,
                    "velocity": 0.8818897637795275
                },
                {
                    "duration": 0.12395833333333428,
                    "durationTicks": 119,
                    "midi": 48,
                    "name": "C3",
                    "ticks": 56520,
                    "time": 58.875,
                    "velocity": 0.8818897637795275
                },
                {
                    "duration": 0.12395833333333428,
                    "durationTicks": 119,
                    "midi": 36,
                    "name": "C2",
                    "ticks": 56760,
                    "time": 59.125,
                    "velocity": 0.8818897637795275
                },
                {
                    "duration": 0.12395833333333428,
                    "durationTicks": 119,
                    "midi": 48,
                    "name": "C3",
                    "ticks": 56760,
                    "time": 59.125,
                    "velocity": 0.8818897637795275
                },
                {
                    "duration": 0.11770833333333286,
                    "durationTicks": 113,
                    "midi": 36,
                    "name": "C2",
                    "ticks": 57000,
                    "time": 59.375,
                    "velocity": 0.8818897637795275
                },
                {
                    "duration": 0.11770833333333286,
                    "durationTicks": 113,
                    "midi": 48,
                    "name": "C3",
                    "ticks": 57000,
                    "time": 59.375,
                    "velocity": 0.8818897637795275
                },
                {
                    "duration": 0.11770833333333286,
                    "durationTicks": 113,
                    "midi": 36,
                    "name": "C2",
                    "ticks": 57120,
                    "time": 59.5,
                    "velocity": 0.8818897637795275
                },
                {
                    "duration": 0.11770833333333286,
                    "durationTicks": 113,
                    "midi": 48,
                    "name": "C3",
                    "ticks": 57120,
                    "time": 59.5,
                    "velocity": 0.8818897637795275
                },
                {
                    "duration": 0.11770833333333286,
                    "durationTicks": 113,
                    "midi": 36,
                    "name": "C2",
                    "ticks": 57240,
                    "time": 59.625,
                    "velocity": 0.8818897637795275
                },
                {
                    "duration": 0.11770833333333286,
                    "durationTicks": 113,
                    "midi": 48,
                    "name": "C3",
                    "ticks": 57240,
                    "time": 59.625,
                    "velocity": 0.8818897637795275
                },
                {
                    "duration": 0.23645833333333144,
                    "durationTicks": 227,
                    "midi": 36,
                    "name": "C2",
                    "ticks": 57360,
                    "time": 59.75,
                    "velocity": 0.8818897637795275
                },
                {
                    "duration": 0.23645833333333144,
                    "durationTicks": 227,
                    "midi": 48,
                    "name": "C3",
                    "ticks": 57360,
                    "time": 59.75,
                    "velocity": 0.8818897637795275
                },
                {
                    "duration": 0.12395833333333428,
                    "durationTicks": 119,
                    "midi": 38,
                    "name": "D2",
                    "ticks": 57600,
                    "time": 60,
                    "velocity": 0.8818897637795275
                },
                {
                    "duration": 0.12395833333333428,
                    "durationTicks": 119,
                    "midi": 50,
                    "name": "D3",
                    "ticks": 57600,
                    "time": 60,
                    "velocity": 0.8818897637795275
                },
                {
                    "duration": 0.12395833333333428,
                    "durationTicks": 119,
                    "midi": 38,
                    "name": "D2",
                    "ticks": 57840,
                    "time": 60.25,
                    "velocity": 0.8818897637795275
                },
                {
                    "duration": 0.12395833333333428,
                    "durationTicks": 119,
                    "midi": 50,
                    "name": "D3",
                    "ticks": 57840,
                    "time": 60.25,
                    "velocity": 0.8818897637795275
                },
                {
                    "duration": 0.11770833333333286,
                    "durationTicks": 113,
                    "midi": 38,
                    "name": "D2",
                    "ticks": 58080,
                    "time": 60.5,
                    "velocity": 0.8818897637795275
                },
                {
                    "duration": 0.11770833333333286,
                    "durationTicks": 113,
                    "midi": 50,
                    "name": "D3",
                    "ticks": 58080,
                    "time": 60.5,
                    "velocity": 0.8818897637795275
                },
                {
                    "duration": 0.11770833333333286,
                    "durationTicks": 113,
                    "midi": 38,
                    "name": "D2",
                    "ticks": 58200,
                    "time": 60.625,
                    "velocity": 0.8818897637795275
                },
                {
                    "duration": 0.11770833333333286,
                    "durationTicks": 113,
                    "midi": 50,
                    "name": "D3",
                    "ticks": 58200,
                    "time": 60.625,
                    "velocity": 0.8818897637795275
                },
                {
                    "duration": 0.12395833333333428,
                    "durationTicks": 119,
                    "midi": 38,
                    "name": "D2",
                    "ticks": 58440,
                    "time": 60.875,
                    "velocity": 0.8818897637795275
                },
                {
                    "duration": 0.12395833333333428,
                    "durationTicks": 119,
                    "midi": 50,
                    "name": "D3",
                    "ticks": 58440,
                    "time": 60.875,
                    "velocity": 0.8818897637795275
                },
                {
                    "duration": 0.12395833333333428,
                    "durationTicks": 119,
                    "midi": 38,
                    "name": "D2",
                    "ticks": 58680,
                    "time": 61.125,
                    "velocity": 0.8818897637795275
                },
                {
                    "duration": 0.12395833333333428,
                    "durationTicks": 119,
                    "midi": 50,
                    "name": "D3",
                    "ticks": 58680,
                    "time": 61.125,
                    "velocity": 0.8818897637795275
                },
                {
                    "duration": 0.11770833333333286,
                    "durationTicks": 113,
                    "midi": 38,
                    "name": "D2",
                    "ticks": 58920,
                    "time": 61.375,
                    "velocity": 0.8818897637795275
                },
                {
                    "duration": 0.11770833333333286,
                    "durationTicks": 113,
                    "midi": 50,
                    "name": "D3",
                    "ticks": 58920,
                    "time": 61.375,
                    "velocity": 0.8818897637795275
                },
                {
                    "duration": 0.11770833333333286,
                    "durationTicks": 113,
                    "midi": 38,
                    "name": "D2",
                    "ticks": 59040,
                    "time": 61.5,
                    "velocity": 0.8818897637795275
                },
                {
                    "duration": 0.11770833333333286,
                    "durationTicks": 113,
                    "midi": 50,
                    "name": "D3",
                    "ticks": 59040,
                    "time": 61.5,
                    "velocity": 0.8818897637795275
                },
                {
                    "duration": 0.11770833333333286,
                    "durationTicks": 113,
                    "midi": 38,
                    "name": "D2",
                    "ticks": 59160,
                    "time": 61.625,
                    "velocity": 0.8818897637795275
                },
                {
                    "duration": 0.11770833333333286,
                    "durationTicks": 113,
                    "midi": 50,
                    "name": "D3",
                    "ticks": 59160,
                    "time": 61.625,
                    "velocity": 0.8818897637795275
                },
                {
                    "duration": 0.23645833333333144,
                    "durationTicks": 227,
                    "midi": 38,
                    "name": "D2",
                    "ticks": 59280,
                    "time": 61.75,
                    "velocity": 0.8818897637795275
                },
                {
                    "duration": 0.23645833333333144,
                    "durationTicks": 227,
                    "midi": 50,
                    "name": "D3",
                    "ticks": 59280,
                    "time": 61.75,
                    "velocity": 0.8818897637795275
                },
                {
                    "duration": 0.12395833333333428,
                    "durationTicks": 119,
                    "midi": 37,
                    "name": "C#2",
                    "ticks": 59520,
                    "time": 62,
                    "velocity": 0.8818897637795275
                },
                {
                    "duration": 0.12395833333333428,
                    "durationTicks": 119,
                    "midi": 49,
                    "name": "C#3",
                    "ticks": 59520,
                    "time": 62,
                    "velocity": 0.8818897637795275
                },
                {
                    "duration": 0.12395833333333428,
                    "durationTicks": 119,
                    "midi": 37,
                    "name": "C#2",
                    "ticks": 59760,
                    "time": 62.25,
                    "velocity": 0.8818897637795275
                },
                {
                    "duration": 0.12395833333333428,
                    "durationTicks": 119,
                    "midi": 49,
                    "name": "C#3",
                    "ticks": 59760,
                    "time": 62.25,
                    "velocity": 0.8818897637795275
                },
                {
                    "duration": 0.11770833333333286,
                    "durationTicks": 113,
                    "midi": 37,
                    "name": "C#2",
                    "ticks": 60000,
                    "time": 62.5,
                    "velocity": 0.8818897637795275
                },
                {
                    "duration": 0.11770833333333286,
                    "durationTicks": 113,
                    "midi": 49,
                    "name": "C#3",
                    "ticks": 60000,
                    "time": 62.5,
                    "velocity": 0.8818897637795275
                },
                {
                    "duration": 0.11770833333333286,
                    "durationTicks": 113,
                    "midi": 37,
                    "name": "C#2",
                    "ticks": 60120,
                    "time": 62.625,
                    "velocity": 0.8818897637795275
                },
                {
                    "duration": 0.11770833333333286,
                    "durationTicks": 113,
                    "midi": 49,
                    "name": "C#3",
                    "ticks": 60120,
                    "time": 62.625,
                    "velocity": 0.8818897637795275
                },
                {
                    "duration": 0.12395833333333428,
                    "durationTicks": 119,
                    "midi": 39,
                    "name": "D#2",
                    "ticks": 60360,
                    "time": 62.875,
                    "velocity": 0.8818897637795275
                },
                {
                    "duration": 0.12395833333333428,
                    "durationTicks": 119,
                    "midi": 51,
                    "name": "D#3",
                    "ticks": 60360,
                    "time": 62.875,
                    "velocity": 0.8818897637795275
                },
                {
                    "duration": 0.12395833333333428,
                    "durationTicks": 119,
                    "midi": 39,
                    "name": "D#2",
                    "ticks": 60600,
                    "time": 63.125,
                    "velocity": 0.8818897637795275
                },
                {
                    "duration": 0.12395833333333428,
                    "durationTicks": 119,
                    "midi": 51,
                    "name": "D#3",
                    "ticks": 60600,
                    "time": 63.125,
                    "velocity": 0.8818897637795275
                },
                {
                    "duration": 0.11770833333333286,
                    "durationTicks": 113,
                    "midi": 39,
                    "name": "D#2",
                    "ticks": 60840,
                    "time": 63.375,
                    "velocity": 0.8818897637795275
                },
                {
                    "duration": 0.11770833333333286,
                    "durationTicks": 113,
                    "midi": 51,
                    "name": "D#3",
                    "ticks": 60840,
                    "time": 63.375,
                    "velocity": 0.8818897637795275
                },
                {
                    "duration": 0.11770833333333286,
                    "durationTicks": 113,
                    "midi": 39,
                    "name": "D#2",
                    "ticks": 60960,
                    "time": 63.5,
                    "velocity": 0.8818897637795275
                },
                {
                    "duration": 0.11770833333333286,
                    "durationTicks": 113,
                    "midi": 51,
                    "name": "D#3",
                    "ticks": 60960,
                    "time": 63.5,
                    "velocity": 0.8818897637795275
                },
                {
                    "duration": 0.11770833333333286,
                    "durationTicks": 113,
                    "midi": 39,
                    "name": "D#2",
                    "ticks": 61080,
                    "time": 63.625,
                    "velocity": 0.8818897637795275
                },
                {
                    "duration": 0.11770833333333286,
                    "durationTicks": 113,
                    "midi": 51,
                    "name": "D#3",
                    "ticks": 61080,
                    "time": 63.625,
                    "velocity": 0.8818897637795275
                },
                {
                    "duration": 0.23645833333333144,
                    "durationTicks": 227,
                    "midi": 39,
                    "name": "D#2",
                    "ticks": 61200,
                    "time": 63.75,
                    "velocity": 0.8818897637795275
                },
                {
                    "duration": 0.23645833333333144,
                    "durationTicks": 227,
                    "midi": 51,
                    "name": "D#3",
                    "ticks": 61200,
                    "time": 63.75,
                    "velocity": 0.8818897637795275
                },
                {
                    "duration": 0.12395833333333428,
                    "durationTicks": 119,
                    "midi": 34,
                    "name": "A#1",
                    "ticks": 61440,
                    "time": 64,
                    "velocity": 0.8818897637795275
                },
                {
                    "duration": 0.12395833333333428,
                    "durationTicks": 119,
                    "midi": 46,
                    "name": "A#2",
                    "ticks": 61440,
                    "time": 64,
                    "velocity": 0.8818897637795275
                },
                {
                    "duration": 0.12395833333333428,
                    "durationTicks": 119,
                    "midi": 34,
                    "name": "A#1",
                    "ticks": 61680,
                    "time": 64.25,
                    "velocity": 0.8818897637795275
                },
                {
                    "duration": 0.12395833333333428,
                    "durationTicks": 119,
                    "midi": 46,
                    "name": "A#2",
                    "ticks": 61680,
                    "time": 64.25,
                    "velocity": 0.8818897637795275
                },
                {
                    "duration": 0.11770833333333997,
                    "durationTicks": 113,
                    "midi": 34,
                    "name": "A#1",
                    "ticks": 61920,
                    "time": 64.5,
                    "velocity": 0.8818897637795275
                },
                {
                    "duration": 0.11770833333333997,
                    "durationTicks": 113,
                    "midi": 46,
                    "name": "A#2",
                    "ticks": 61920,
                    "time": 64.5,
                    "velocity": 0.8818897637795275
                },
                {
                    "duration": 0.11770833333333997,
                    "durationTicks": 113,
                    "midi": 34,
                    "name": "A#1",
                    "ticks": 62040,
                    "time": 64.625,
                    "velocity": 0.8818897637795275
                },
                {
                    "duration": 0.11770833333333997,
                    "durationTicks": 113,
                    "midi": 46,
                    "name": "A#2",
                    "ticks": 62040,
                    "time": 64.625,
                    "velocity": 0.8818897637795275
                },
                {
                    "duration": 0.12395833333333428,
                    "durationTicks": 119,
                    "midi": 34,
                    "name": "A#1",
                    "ticks": 62280,
                    "time": 64.875,
                    "velocity": 0.8818897637795275
                },
                {
                    "duration": 0.12395833333333428,
                    "durationTicks": 119,
                    "midi": 46,
                    "name": "A#2",
                    "ticks": 62280,
                    "time": 64.875,
                    "velocity": 0.8818897637795275
                },
                {
                    "duration": 0.12395833333333428,
                    "durationTicks": 119,
                    "midi": 34,
                    "name": "A#1",
                    "ticks": 62520,
                    "time": 65.125,
                    "velocity": 0.8818897637795275
                },
                {
                    "duration": 0.12395833333333428,
                    "durationTicks": 119,
                    "midi": 46,
                    "name": "A#2",
                    "ticks": 62520,
                    "time": 65.125,
                    "velocity": 0.8818897637795275
                },
                {
                    "duration": 0.11770833333333997,
                    "durationTicks": 113,
                    "midi": 34,
                    "name": "A#1",
                    "ticks": 62760,
                    "time": 65.375,
                    "velocity": 0.8818897637795275
                },
                {
                    "duration": 0.11770833333333997,
                    "durationTicks": 113,
                    "midi": 46,
                    "name": "A#2",
                    "ticks": 62760,
                    "time": 65.375,
                    "velocity": 0.8818897637795275
                },
                {
                    "duration": 0.11770833333333997,
                    "durationTicks": 113,
                    "midi": 34,
                    "name": "A#1",
                    "ticks": 62880,
                    "time": 65.5,
                    "velocity": 0.8818897637795275
                },
                {
                    "duration": 0.11770833333333997,
                    "durationTicks": 113,
                    "midi": 46,
                    "name": "A#2",
                    "ticks": 62880,
                    "time": 65.5,
                    "velocity": 0.8818897637795275
                },
                {
                    "duration": 0.11770833333333997,
                    "durationTicks": 113,
                    "midi": 34,
                    "name": "A#1",
                    "ticks": 63000,
                    "time": 65.625,
                    "velocity": 0.8818897637795275
                },
                {
                    "duration": 0.11770833333333997,
                    "durationTicks": 113,
                    "midi": 46,
                    "name": "A#2",
                    "ticks": 63000,
                    "time": 65.625,
                    "velocity": 0.8818897637795275
                },
                {
                    "duration": 0.23645833333333144,
                    "durationTicks": 227,
                    "midi": 34,
                    "name": "A#1",
                    "ticks": 63120,
                    "time": 65.75,
                    "velocity": 0.8818897637795275
                },
                {
                    "duration": 0.23645833333333144,
                    "durationTicks": 227,
                    "midi": 46,
                    "name": "A#2",
                    "ticks": 63120,
                    "time": 65.75,
                    "velocity": 0.8818897637795275
                },
                {
                    "duration": 0.12395833333333428,
                    "durationTicks": 119,
                    "midi": 36,
                    "name": "C2",
                    "ticks": 63360,
                    "time": 66,
                    "velocity": 0.8818897637795275
                },
                {
                    "duration": 0.12395833333333428,
                    "durationTicks": 119,
                    "midi": 48,
                    "name": "C3",
                    "ticks": 63360,
                    "time": 66,
                    "velocity": 0.8818897637795275
                },
                {
                    "duration": 0.12395833333333428,
                    "durationTicks": 119,
                    "midi": 36,
                    "name": "C2",
                    "ticks": 63600,
                    "time": 66.25,
                    "velocity": 0.8818897637795275
                },
                {
                    "duration": 0.12395833333333428,
                    "durationTicks": 119,
                    "midi": 48,
                    "name": "C3",
                    "ticks": 63600,
                    "time": 66.25,
                    "velocity": 0.8818897637795275
                },
                {
                    "duration": 0.11770833333333997,
                    "durationTicks": 113,
                    "midi": 36,
                    "name": "C2",
                    "ticks": 63840,
                    "time": 66.5,
                    "velocity": 0.8818897637795275
                },
                {
                    "duration": 0.11770833333333997,
                    "durationTicks": 113,
                    "midi": 48,
                    "name": "C3",
                    "ticks": 63840,
                    "time": 66.5,
                    "velocity": 0.8818897637795275
                },
                {
                    "duration": 0.11770833333333997,
                    "durationTicks": 113,
                    "midi": 36,
                    "name": "C2",
                    "ticks": 63960,
                    "time": 66.625,
                    "velocity": 0.8818897637795275
                },
                {
                    "duration": 0.11770833333333997,
                    "durationTicks": 113,
                    "midi": 48,
                    "name": "C3",
                    "ticks": 63960,
                    "time": 66.625,
                    "velocity": 0.8818897637795275
                },
                {
                    "duration": 0.12395833333333428,
                    "durationTicks": 119,
                    "midi": 36,
                    "name": "C2",
                    "ticks": 64200,
                    "time": 66.875,
                    "velocity": 0.8818897637795275
                },
                {
                    "duration": 0.12395833333333428,
                    "durationTicks": 119,
                    "midi": 48,
                    "name": "C3",
                    "ticks": 64200,
                    "time": 66.875,
                    "velocity": 0.8818897637795275
                },
                {
                    "duration": 0.12395833333333428,
                    "durationTicks": 119,
                    "midi": 36,
                    "name": "C2",
                    "ticks": 64440,
                    "time": 67.125,
                    "velocity": 0.8818897637795275
                },
                {
                    "duration": 0.12395833333333428,
                    "durationTicks": 119,
                    "midi": 48,
                    "name": "C3",
                    "ticks": 64440,
                    "time": 67.125,
                    "velocity": 0.8818897637795275
                },
                {
                    "duration": 0.11770833333333997,
                    "durationTicks": 113,
                    "midi": 36,
                    "name": "C2",
                    "ticks": 64680,
                    "time": 67.375,
                    "velocity": 0.8818897637795275
                },
                {
                    "duration": 0.11770833333333997,
                    "durationTicks": 113,
                    "midi": 48,
                    "name": "C3",
                    "ticks": 64680,
                    "time": 67.375,
                    "velocity": 0.8818897637795275
                },
                {
                    "duration": 0.11770833333333997,
                    "durationTicks": 113,
                    "midi": 36,
                    "name": "C2",
                    "ticks": 64800,
                    "time": 67.5,
                    "velocity": 0.8818897637795275
                },
                {
                    "duration": 0.11770833333333997,
                    "durationTicks": 113,
                    "midi": 48,
                    "name": "C3",
                    "ticks": 64800,
                    "time": 67.5,
                    "velocity": 0.8818897637795275
                },
                {
                    "duration": 0.11770833333333997,
                    "durationTicks": 113,
                    "midi": 36,
                    "name": "C2",
                    "ticks": 64920,
                    "time": 67.625,
                    "velocity": 0.8818897637795275
                },
                {
                    "duration": 0.11770833333333997,
                    "durationTicks": 113,
                    "midi": 48,
                    "name": "C3",
                    "ticks": 64920,
                    "time": 67.625,
                    "velocity": 0.8818897637795275
                },
                {
                    "duration": 0.23645833333333144,
                    "durationTicks": 227,
                    "midi": 36,
                    "name": "C2",
                    "ticks": 65040,
                    "time": 67.75,
                    "velocity": 0.8818897637795275
                },
                {
                    "duration": 0.23645833333333144,
                    "durationTicks": 227,
                    "midi": 48,
                    "name": "C3",
                    "ticks": 65040,
                    "time": 67.75,
                    "velocity": 0.8818897637795275
                },
                {
                    "duration": 0.12395833333333428,
                    "durationTicks": 119,
                    "midi": 38,
                    "name": "D2",
                    "ticks": 65280,
                    "time": 68,
                    "velocity": 0.8818897637795275
                },
                {
                    "duration": 0.12395833333333428,
                    "durationTicks": 119,
                    "midi": 50,
                    "name": "D3",
                    "ticks": 65280,
                    "time": 68,
                    "velocity": 0.8818897637795275
                },
                {
                    "duration": 0.12395833333333428,
                    "durationTicks": 119,
                    "midi": 38,
                    "name": "D2",
                    "ticks": 65520,
                    "time": 68.25,
                    "velocity": 0.8818897637795275
                },
                {
                    "duration": 0.12395833333333428,
                    "durationTicks": 119,
                    "midi": 50,
                    "name": "D3",
                    "ticks": 65520,
                    "time": 68.25,
                    "velocity": 0.8818897637795275
                },
                {
                    "duration": 0.11770833333333997,
                    "durationTicks": 113,
                    "midi": 38,
                    "name": "D2",
                    "ticks": 65760,
                    "time": 68.5,
                    "velocity": 0.8818897637795275
                },
                {
                    "duration": 0.11770833333333997,
                    "durationTicks": 113,
                    "midi": 50,
                    "name": "D3",
                    "ticks": 65760,
                    "time": 68.5,
                    "velocity": 0.8818897637795275
                },
                {
                    "duration": 0.11770833333333997,
                    "durationTicks": 113,
                    "midi": 38,
                    "name": "D2",
                    "ticks": 65880,
                    "time": 68.625,
                    "velocity": 0.8818897637795275
                },
                {
                    "duration": 0.11770833333333997,
                    "durationTicks": 113,
                    "midi": 50,
                    "name": "D3",
                    "ticks": 65880,
                    "time": 68.625,
                    "velocity": 0.8818897637795275
                },
                {
                    "duration": 0.12395833333333428,
                    "durationTicks": 119,
                    "midi": 38,
                    "name": "D2",
                    "ticks": 66120,
                    "time": 68.875,
                    "velocity": 0.8818897637795275
                },
                {
                    "duration": 0.12395833333333428,
                    "durationTicks": 119,
                    "midi": 50,
                    "name": "D3",
                    "ticks": 66120,
                    "time": 68.875,
                    "velocity": 0.8818897637795275
                },
                {
                    "duration": 0.12395833333333428,
                    "durationTicks": 119,
                    "midi": 38,
                    "name": "D2",
                    "ticks": 66360,
                    "time": 69.125,
                    "velocity": 0.8818897637795275
                },
                {
                    "duration": 0.12395833333333428,
                    "durationTicks": 119,
                    "midi": 50,
                    "name": "D3",
                    "ticks": 66360,
                    "time": 69.125,
                    "velocity": 0.8818897637795275
                },
                {
                    "duration": 0.11770833333333997,
                    "durationTicks": 113,
                    "midi": 38,
                    "name": "D2",
                    "ticks": 66600,
                    "time": 69.375,
                    "velocity": 0.8818897637795275
                },
                {
                    "duration": 0.11770833333333997,
                    "durationTicks": 113,
                    "midi": 50,
                    "name": "D3",
                    "ticks": 66600,
                    "time": 69.375,
                    "velocity": 0.8818897637795275
                },
                {
                    "duration": 0.11770833333333997,
                    "durationTicks": 113,
                    "midi": 38,
                    "name": "D2",
                    "ticks": 66720,
                    "time": 69.5,
                    "velocity": 0.8818897637795275
                },
                {
                    "duration": 0.11770833333333997,
                    "durationTicks": 113,
                    "midi": 50,
                    "name": "D3",
                    "ticks": 66720,
                    "time": 69.5,
                    "velocity": 0.8818897637795275
                },
                {
                    "duration": 0.11770833333333997,
                    "durationTicks": 113,
                    "midi": 38,
                    "name": "D2",
                    "ticks": 66840,
                    "time": 69.625,
                    "velocity": 0.8818897637795275
                },
                {
                    "duration": 0.11770833333333997,
                    "durationTicks": 113,
                    "midi": 50,
                    "name": "D3",
                    "ticks": 66840,
                    "time": 69.625,
                    "velocity": 0.8818897637795275
                },
                {
                    "duration": 0.23645833333333144,
                    "durationTicks": 227,
                    "midi": 38,
                    "name": "D2",
                    "ticks": 66960,
                    "time": 69.75,
                    "velocity": 0.8818897637795275
                },
                {
                    "duration": 0.23645833333333144,
                    "durationTicks": 227,
                    "midi": 50,
                    "name": "D3",
                    "ticks": 66960,
                    "time": 69.75,
                    "velocity": 0.8818897637795275
                },
                {
                    "duration": 0.12395833333333428,
                    "durationTicks": 119,
                    "midi": 37,
                    "name": "C#2",
                    "ticks": 67200,
                    "time": 70,
                    "velocity": 0.8818897637795275
                },
                {
                    "duration": 0.12395833333333428,
                    "durationTicks": 119,
                    "midi": 49,
                    "name": "C#3",
                    "ticks": 67200,
                    "time": 70,
                    "velocity": 0.8818897637795275
                },
                {
                    "duration": 0.12395833333333428,
                    "durationTicks": 119,
                    "midi": 37,
                    "name": "C#2",
                    "ticks": 67440,
                    "time": 70.25,
                    "velocity": 0.8818897637795275
                },
                {
                    "duration": 0.12395833333333428,
                    "durationTicks": 119,
                    "midi": 49,
                    "name": "C#3",
                    "ticks": 67440,
                    "time": 70.25,
                    "velocity": 0.8818897637795275
                },
                {
                    "duration": 0.11770833333333997,
                    "durationTicks": 113,
                    "midi": 37,
                    "name": "C#2",
                    "ticks": 67680,
                    "time": 70.5,
                    "velocity": 0.8818897637795275
                },
                {
                    "duration": 0.11770833333333997,
                    "durationTicks": 113,
                    "midi": 49,
                    "name": "C#3",
                    "ticks": 67680,
                    "time": 70.5,
                    "velocity": 0.8818897637795275
                },
                {
                    "duration": 0.11770833333333997,
                    "durationTicks": 113,
                    "midi": 37,
                    "name": "C#2",
                    "ticks": 67800,
                    "time": 70.625,
                    "velocity": 0.8818897637795275
                },
                {
                    "duration": 0.11770833333333997,
                    "durationTicks": 113,
                    "midi": 49,
                    "name": "C#3",
                    "ticks": 67800,
                    "time": 70.625,
                    "velocity": 0.8818897637795275
                },
                {
                    "duration": 0.12395833333333428,
                    "durationTicks": 119,
                    "midi": 39,
                    "name": "D#2",
                    "ticks": 68040,
                    "time": 70.875,
                    "velocity": 0.8818897637795275
                },
                {
                    "duration": 0.12395833333333428,
                    "durationTicks": 119,
                    "midi": 51,
                    "name": "D#3",
                    "ticks": 68040,
                    "time": 70.875,
                    "velocity": 0.8818897637795275
                },
                {
                    "duration": 0.12395833333333428,
                    "durationTicks": 119,
                    "midi": 39,
                    "name": "D#2",
                    "ticks": 68280,
                    "time": 71.125,
                    "velocity": 0.8818897637795275
                },
                {
                    "duration": 0.12395833333333428,
                    "durationTicks": 119,
                    "midi": 51,
                    "name": "D#3",
                    "ticks": 68280,
                    "time": 71.125,
                    "velocity": 0.8818897637795275
                },
                {
                    "duration": 0.11770833333333997,
                    "durationTicks": 113,
                    "midi": 39,
                    "name": "D#2",
                    "ticks": 68520,
                    "time": 71.375,
                    "velocity": 0.8818897637795275
                },
                {
                    "duration": 0.11770833333333997,
                    "durationTicks": 113,
                    "midi": 51,
                    "name": "D#3",
                    "ticks": 68520,
                    "time": 71.375,
                    "velocity": 0.8818897637795275
                },
                {
                    "duration": 0.11770833333333997,
                    "durationTicks": 113,
                    "midi": 39,
                    "name": "D#2",
                    "ticks": 68640,
                    "time": 71.5,
                    "velocity": 0.8818897637795275
                },
                {
                    "duration": 0.11770833333333997,
                    "durationTicks": 113,
                    "midi": 51,
                    "name": "D#3",
                    "ticks": 68640,
                    "time": 71.5,
                    "velocity": 0.8818897637795275
                },
                {
                    "duration": 0.11770833333333997,
                    "durationTicks": 113,
                    "midi": 39,
                    "name": "D#2",
                    "ticks": 68760,
                    "time": 71.625,
                    "velocity": 0.8818897637795275
                },
                {
                    "duration": 0.11770833333333997,
                    "durationTicks": 113,
                    "midi": 51,
                    "name": "D#3",
                    "ticks": 68760,
                    "time": 71.625,
                    "velocity": 0.8818897637795275
                },
                {
                    "duration": 0.23645833333333144,
                    "durationTicks": 227,
                    "midi": 39,
                    "name": "D#2",
                    "ticks": 68880,
                    "time": 71.75,
                    "velocity": 0.8818897637795275
                },
                {
                    "duration": 0.23645833333333144,
                    "durationTicks": 227,
                    "midi": 51,
                    "name": "D#3",
                    "ticks": 68880,
                    "time": 71.75,
                    "velocity": 0.8818897637795275
                },
                {
                    "duration": 0.12395833333333428,
                    "durationTicks": 119,
                    "midi": 34,
                    "name": "A#1",
                    "ticks": 69120,
                    "time": 72,
                    "velocity": 0.8818897637795275
                },
                {
                    "duration": 0.12395833333333428,
                    "durationTicks": 119,
                    "midi": 46,
                    "name": "A#2",
                    "ticks": 69120,
                    "time": 72,
                    "velocity": 0.8818897637795275
                },
                {
                    "duration": 0.12395833333333428,
                    "durationTicks": 119,
                    "midi": 34,
                    "name": "A#1",
                    "ticks": 69360,
                    "time": 72.25,
                    "velocity": 0.8818897637795275
                },
                {
                    "duration": 0.12395833333333428,
                    "durationTicks": 119,
                    "midi": 46,
                    "name": "A#2",
                    "ticks": 69360,
                    "time": 72.25,
                    "velocity": 0.8818897637795275
                },
                {
                    "duration": 0.11770833333333997,
                    "durationTicks": 113,
                    "midi": 34,
                    "name": "A#1",
                    "ticks": 69600,
                    "time": 72.5,
                    "velocity": 0.8818897637795275
                },
                {
                    "duration": 0.11770833333333997,
                    "durationTicks": 113,
                    "midi": 46,
                    "name": "A#2",
                    "ticks": 69600,
                    "time": 72.5,
                    "velocity": 0.8818897637795275
                },
                {
                    "duration": 0.11770833333333997,
                    "durationTicks": 113,
                    "midi": 34,
                    "name": "A#1",
                    "ticks": 69720,
                    "time": 72.625,
                    "velocity": 0.8818897637795275
                },
                {
                    "duration": 0.11770833333333997,
                    "durationTicks": 113,
                    "midi": 46,
                    "name": "A#2",
                    "ticks": 69720,
                    "time": 72.625,
                    "velocity": 0.8818897637795275
                },
                {
                    "duration": 0.12395833333333428,
                    "durationTicks": 119,
                    "midi": 34,
                    "name": "A#1",
                    "ticks": 69960,
                    "time": 72.875,
                    "velocity": 0.8818897637795275
                },
                {
                    "duration": 0.12395833333333428,
                    "durationTicks": 119,
                    "midi": 46,
                    "name": "A#2",
                    "ticks": 69960,
                    "time": 72.875,
                    "velocity": 0.8818897637795275
                },
                {
                    "duration": 0.12395833333333428,
                    "durationTicks": 119,
                    "midi": 34,
                    "name": "A#1",
                    "ticks": 70200,
                    "time": 73.125,
                    "velocity": 0.8818897637795275
                },
                {
                    "duration": 0.12395833333333428,
                    "durationTicks": 119,
                    "midi": 46,
                    "name": "A#2",
                    "ticks": 70200,
                    "time": 73.125,
                    "velocity": 0.8818897637795275
                },
                {
                    "duration": 0.11770833333333997,
                    "durationTicks": 113,
                    "midi": 34,
                    "name": "A#1",
                    "ticks": 70440,
                    "time": 73.375,
                    "velocity": 0.8818897637795275
                },
                {
                    "duration": 0.11770833333333997,
                    "durationTicks": 113,
                    "midi": 46,
                    "name": "A#2",
                    "ticks": 70440,
                    "time": 73.375,
                    "velocity": 0.8818897637795275
                },
                {
                    "duration": 0.11770833333333997,
                    "durationTicks": 113,
                    "midi": 34,
                    "name": "A#1",
                    "ticks": 70560,
                    "time": 73.5,
                    "velocity": 0.8818897637795275
                },
                {
                    "duration": 0.11770833333333997,
                    "durationTicks": 113,
                    "midi": 46,
                    "name": "A#2",
                    "ticks": 70560,
                    "time": 73.5,
                    "velocity": 0.8818897637795275
                },
                {
                    "duration": 0.11770833333333997,
                    "durationTicks": 113,
                    "midi": 34,
                    "name": "A#1",
                    "ticks": 70680,
                    "time": 73.625,
                    "velocity": 0.8818897637795275
                },
                {
                    "duration": 0.11770833333333997,
                    "durationTicks": 113,
                    "midi": 46,
                    "name": "A#2",
                    "ticks": 70680,
                    "time": 73.625,
                    "velocity": 0.8818897637795275
                },
                {
                    "duration": 0.23645833333333144,
                    "durationTicks": 227,
                    "midi": 34,
                    "name": "A#1",
                    "ticks": 70800,
                    "time": 73.75,
                    "velocity": 0.8818897637795275
                },
                {
                    "duration": 0.23645833333333144,
                    "durationTicks": 227,
                    "midi": 46,
                    "name": "A#2",
                    "ticks": 70800,
                    "time": 73.75,
                    "velocity": 0.8818897637795275
                },
                {
                    "duration": 0.12395833333333428,
                    "durationTicks": 119,
                    "midi": 36,
                    "name": "C2",
                    "ticks": 71040,
                    "time": 74,
                    "velocity": 0.8818897637795275
                },
                {
                    "duration": 0.12395833333333428,
                    "durationTicks": 119,
                    "midi": 48,
                    "name": "C3",
                    "ticks": 71040,
                    "time": 74,
                    "velocity": 0.8818897637795275
                },
                {
                    "duration": 0.12395833333333428,
                    "durationTicks": 119,
                    "midi": 36,
                    "name": "C2",
                    "ticks": 71280,
                    "time": 74.25,
                    "velocity": 0.8818897637795275
                },
                {
                    "duration": 0.12395833333333428,
                    "durationTicks": 119,
                    "midi": 48,
                    "name": "C3",
                    "ticks": 71280,
                    "time": 74.25,
                    "velocity": 0.8818897637795275
                },
                {
                    "duration": 0.11770833333333997,
                    "durationTicks": 113,
                    "midi": 36,
                    "name": "C2",
                    "ticks": 71520,
                    "time": 74.5,
                    "velocity": 0.8818897637795275
                },
                {
                    "duration": 0.11770833333333997,
                    "durationTicks": 113,
                    "midi": 48,
                    "name": "C3",
                    "ticks": 71520,
                    "time": 74.5,
                    "velocity": 0.8818897637795275
                },
                {
                    "duration": 0.11770833333333997,
                    "durationTicks": 113,
                    "midi": 36,
                    "name": "C2",
                    "ticks": 71640,
                    "time": 74.625,
                    "velocity": 0.8818897637795275
                },
                {
                    "duration": 0.11770833333333997,
                    "durationTicks": 113,
                    "midi": 48,
                    "name": "C3",
                    "ticks": 71640,
                    "time": 74.625,
                    "velocity": 0.8818897637795275
                },
                {
                    "duration": 0.12395833333333428,
                    "durationTicks": 119,
                    "midi": 36,
                    "name": "C2",
                    "ticks": 71880,
                    "time": 74.875,
                    "velocity": 0.8818897637795275
                },
                {
                    "duration": 0.12395833333333428,
                    "durationTicks": 119,
                    "midi": 48,
                    "name": "C3",
                    "ticks": 71880,
                    "time": 74.875,
                    "velocity": 0.8818897637795275
                },
                {
                    "duration": 0.12395833333333428,
                    "durationTicks": 119,
                    "midi": 36,
                    "name": "C2",
                    "ticks": 72120,
                    "time": 75.125,
                    "velocity": 0.8818897637795275
                },
                {
                    "duration": 0.12395833333333428,
                    "durationTicks": 119,
                    "midi": 48,
                    "name": "C3",
                    "ticks": 72120,
                    "time": 75.125,
                    "velocity": 0.8818897637795275
                },
                {
                    "duration": 0.11770833333333997,
                    "durationTicks": 113,
                    "midi": 36,
                    "name": "C2",
                    "ticks": 72360,
                    "time": 75.375,
                    "velocity": 0.8818897637795275
                },
                {
                    "duration": 0.11770833333333997,
                    "durationTicks": 113,
                    "midi": 48,
                    "name": "C3",
                    "ticks": 72360,
                    "time": 75.375,
                    "velocity": 0.8818897637795275
                },
                {
                    "duration": 0.11770833333333997,
                    "durationTicks": 113,
                    "midi": 36,
                    "name": "C2",
                    "ticks": 72480,
                    "time": 75.5,
                    "velocity": 0.8818897637795275
                },
                {
                    "duration": 0.11770833333333997,
                    "durationTicks": 113,
                    "midi": 48,
                    "name": "C3",
                    "ticks": 72480,
                    "time": 75.5,
                    "velocity": 0.8818897637795275
                },
                {
                    "duration": 0.11770833333333997,
                    "durationTicks": 113,
                    "midi": 36,
                    "name": "C2",
                    "ticks": 72600,
                    "time": 75.625,
                    "velocity": 0.8818897637795275
                },
                {
                    "duration": 0.11770833333333997,
                    "durationTicks": 113,
                    "midi": 48,
                    "name": "C3",
                    "ticks": 72600,
                    "time": 75.625,
                    "velocity": 0.8818897637795275
                },
                {
                    "duration": 0.23645833333333144,
                    "durationTicks": 227,
                    "midi": 36,
                    "name": "C2",
                    "ticks": 72720,
                    "time": 75.75,
                    "velocity": 0.8818897637795275
                },
                {
                    "duration": 0.23645833333333144,
                    "durationTicks": 227,
                    "midi": 48,
                    "name": "C3",
                    "ticks": 72720,
                    "time": 75.75,
                    "velocity": 0.8818897637795275
                },
                {
                    "duration": 0.12395833333333428,
                    "durationTicks": 119,
                    "midi": 38,
                    "name": "D2",
                    "ticks": 72960,
                    "time": 76,
                    "velocity": 0.8818897637795275
                },
                {
                    "duration": 0.12395833333333428,
                    "durationTicks": 119,
                    "midi": 50,
                    "name": "D3",
                    "ticks": 72960,
                    "time": 76,
                    "velocity": 0.8818897637795275
                },
                {
                    "duration": 0.12395833333333428,
                    "durationTicks": 119,
                    "midi": 38,
                    "name": "D2",
                    "ticks": 73200,
                    "time": 76.25,
                    "velocity": 0.8818897637795275
                },
                {
                    "duration": 0.12395833333333428,
                    "durationTicks": 119,
                    "midi": 50,
                    "name": "D3",
                    "ticks": 73200,
                    "time": 76.25,
                    "velocity": 0.8818897637795275
                },
                {
                    "duration": 0.11770833333333997,
                    "durationTicks": 113,
                    "midi": 38,
                    "name": "D2",
                    "ticks": 73440,
                    "time": 76.5,
                    "velocity": 0.8818897637795275
                },
                {
                    "duration": 0.11770833333333997,
                    "durationTicks": 113,
                    "midi": 50,
                    "name": "D3",
                    "ticks": 73440,
                    "time": 76.5,
                    "velocity": 0.8818897637795275
                },
                {
                    "duration": 0.11770833333333997,
                    "durationTicks": 113,
                    "midi": 38,
                    "name": "D2",
                    "ticks": 73560,
                    "time": 76.625,
                    "velocity": 0.8818897637795275
                },
                {
                    "duration": 0.11770833333333997,
                    "durationTicks": 113,
                    "midi": 50,
                    "name": "D3",
                    "ticks": 73560,
                    "time": 76.625,
                    "velocity": 0.8818897637795275
                },
                {
                    "duration": 0.12395833333333428,
                    "durationTicks": 119,
                    "midi": 38,
                    "name": "D2",
                    "ticks": 73800,
                    "time": 76.875,
                    "velocity": 0.8818897637795275
                },
                {
                    "duration": 0.12395833333333428,
                    "durationTicks": 119,
                    "midi": 50,
                    "name": "D3",
                    "ticks": 73800,
                    "time": 76.875,
                    "velocity": 0.8818897637795275
                },
                {
                    "duration": 0.12395833333333428,
                    "durationTicks": 119,
                    "midi": 38,
                    "name": "D2",
                    "ticks": 74040,
                    "time": 77.125,
                    "velocity": 0.8818897637795275
                },
                {
                    "duration": 0.12395833333333428,
                    "durationTicks": 119,
                    "midi": 50,
                    "name": "D3",
                    "ticks": 74040,
                    "time": 77.125,
                    "velocity": 0.8818897637795275
                },
                {
                    "duration": 0.11770833333333997,
                    "durationTicks": 113,
                    "midi": 38,
                    "name": "D2",
                    "ticks": 74280,
                    "time": 77.375,
                    "velocity": 0.8818897637795275
                },
                {
                    "duration": 0.11770833333333997,
                    "durationTicks": 113,
                    "midi": 50,
                    "name": "D3",
                    "ticks": 74280,
                    "time": 77.375,
                    "velocity": 0.8818897637795275
                },
                {
                    "duration": 0.11770833333333997,
                    "durationTicks": 113,
                    "midi": 38,
                    "name": "D2",
                    "ticks": 74400,
                    "time": 77.5,
                    "velocity": 0.8818897637795275
                },
                {
                    "duration": 0.11770833333333997,
                    "durationTicks": 113,
                    "midi": 50,
                    "name": "D3",
                    "ticks": 74400,
                    "time": 77.5,
                    "velocity": 0.8818897637795275
                },
                {
                    "duration": 0.11770833333333997,
                    "durationTicks": 113,
                    "midi": 38,
                    "name": "D2",
                    "ticks": 74520,
                    "time": 77.625,
                    "velocity": 0.8818897637795275
                },
                {
                    "duration": 0.11770833333333997,
                    "durationTicks": 113,
                    "midi": 50,
                    "name": "D3",
                    "ticks": 74520,
                    "time": 77.625,
                    "velocity": 0.8818897637795275
                },
                {
                    "duration": 0.23645833333333144,
                    "durationTicks": 227,
                    "midi": 38,
                    "name": "D2",
                    "ticks": 74640,
                    "time": 77.75,
                    "velocity": 0.8818897637795275
                },
                {
                    "duration": 0.23645833333333144,
                    "durationTicks": 227,
                    "midi": 50,
                    "name": "D3",
                    "ticks": 74640,
                    "time": 77.75,
                    "velocity": 0.8818897637795275
                },
                {
                    "duration": 0.12395833333333428,
                    "durationTicks": 119,
                    "midi": 37,
                    "name": "C#2",
                    "ticks": 74880,
                    "time": 78,
                    "velocity": 0.8818897637795275
                },
                {
                    "duration": 0.12395833333333428,
                    "durationTicks": 119,
                    "midi": 49,
                    "name": "C#3",
                    "ticks": 74880,
                    "time": 78,
                    "velocity": 0.8818897637795275
                },
                {
                    "duration": 0.12395833333333428,
                    "durationTicks": 119,
                    "midi": 37,
                    "name": "C#2",
                    "ticks": 75120,
                    "time": 78.25,
                    "velocity": 0.8818897637795275
                },
                {
                    "duration": 0.12395833333333428,
                    "durationTicks": 119,
                    "midi": 49,
                    "name": "C#3",
                    "ticks": 75120,
                    "time": 78.25,
                    "velocity": 0.8818897637795275
                },
                {
                    "duration": 0.11770833333333997,
                    "durationTicks": 113,
                    "midi": 37,
                    "name": "C#2",
                    "ticks": 75360,
                    "time": 78.5,
                    "velocity": 0.8818897637795275
                },
                {
                    "duration": 0.11770833333333997,
                    "durationTicks": 113,
                    "midi": 49,
                    "name": "C#3",
                    "ticks": 75360,
                    "time": 78.5,
                    "velocity": 0.8818897637795275
                },
                {
                    "duration": 0.11770833333333997,
                    "durationTicks": 113,
                    "midi": 37,
                    "name": "C#2",
                    "ticks": 75480,
                    "time": 78.625,
                    "velocity": 0.8818897637795275
                },
                {
                    "duration": 0.11770833333333997,
                    "durationTicks": 113,
                    "midi": 49,
                    "name": "C#3",
                    "ticks": 75480,
                    "time": 78.625,
                    "velocity": 0.8818897637795275
                },
                {
                    "duration": 0.12395833333333428,
                    "durationTicks": 119,
                    "midi": 39,
                    "name": "D#2",
                    "ticks": 75720,
                    "time": 78.875,
                    "velocity": 0.8818897637795275
                },
                {
                    "duration": 0.12395833333333428,
                    "durationTicks": 119,
                    "midi": 51,
                    "name": "D#3",
                    "ticks": 75720,
                    "time": 78.875,
                    "velocity": 0.8818897637795275
                },
                {
                    "duration": 0.12395833333333428,
                    "durationTicks": 119,
                    "midi": 39,
                    "name": "D#2",
                    "ticks": 75960,
                    "time": 79.125,
                    "velocity": 0.8818897637795275
                },
                {
                    "duration": 0.12395833333333428,
                    "durationTicks": 119,
                    "midi": 51,
                    "name": "D#3",
                    "ticks": 75960,
                    "time": 79.125,
                    "velocity": 0.8818897637795275
                },
                {
                    "duration": 0.11770833333333997,
                    "durationTicks": 113,
                    "midi": 39,
                    "name": "D#2",
                    "ticks": 76200,
                    "time": 79.375,
                    "velocity": 0.8818897637795275
                },
                {
                    "duration": 0.11770833333333997,
                    "durationTicks": 113,
                    "midi": 51,
                    "name": "D#3",
                    "ticks": 76200,
                    "time": 79.375,
                    "velocity": 0.8818897637795275
                },
                {
                    "duration": 0.11770833333333997,
                    "durationTicks": 113,
                    "midi": 39,
                    "name": "D#2",
                    "ticks": 76320,
                    "time": 79.5,
                    "velocity": 0.8818897637795275
                },
                {
                    "duration": 0.11770833333333997,
                    "durationTicks": 113,
                    "midi": 51,
                    "name": "D#3",
                    "ticks": 76320,
                    "time": 79.5,
                    "velocity": 0.8818897637795275
                },
                {
                    "duration": 0.11770833333333997,
                    "durationTicks": 113,
                    "midi": 39,
                    "name": "D#2",
                    "ticks": 76440,
                    "time": 79.625,
                    "velocity": 0.8818897637795275
                },
                {
                    "duration": 0.11770833333333997,
                    "durationTicks": 113,
                    "midi": 51,
                    "name": "D#3",
                    "ticks": 76440,
                    "time": 79.625,
                    "velocity": 0.8818897637795275
                },
                {
                    "duration": 0.23645833333333144,
                    "durationTicks": 227,
                    "midi": 39,
                    "name": "D#2",
                    "ticks": 76560,
                    "time": 79.75,
                    "velocity": 0.8818897637795275
                },
                {
                    "duration": 0.23645833333333144,
                    "durationTicks": 227,
                    "midi": 51,
                    "name": "D#3",
                    "ticks": 76560,
                    "time": 79.75,
                    "velocity": 0.8818897637795275
                },
                {
                    "duration": 0.12395833333333428,
                    "durationTicks": 119,
                    "midi": 34,
                    "name": "A#1",
                    "ticks": 76800,
                    "time": 80,
                    "velocity": 0.8818897637795275
                },
                {
                    "duration": 0.12395833333333428,
                    "durationTicks": 119,
                    "midi": 46,
                    "name": "A#2",
                    "ticks": 76800,
                    "time": 80,
                    "velocity": 0.8818897637795275
                },
                {
                    "duration": 0.12395833333333428,
                    "durationTicks": 119,
                    "midi": 34,
                    "name": "A#1",
                    "ticks": 77040,
                    "time": 80.25,
                    "velocity": 0.8818897637795275
                },
                {
                    "duration": 0.12395833333333428,
                    "durationTicks": 119,
                    "midi": 46,
                    "name": "A#2",
                    "ticks": 77040,
                    "time": 80.25,
                    "velocity": 0.8818897637795275
                },
                {
                    "duration": 0.11770833333333997,
                    "durationTicks": 113,
                    "midi": 34,
                    "name": "A#1",
                    "ticks": 77280,
                    "time": 80.5,
                    "velocity": 0.8818897637795275
                },
                {
                    "duration": 0.11770833333333997,
                    "durationTicks": 113,
                    "midi": 46,
                    "name": "A#2",
                    "ticks": 77280,
                    "time": 80.5,
                    "velocity": 0.8818897637795275
                },
                {
                    "duration": 0.11770833333333997,
                    "durationTicks": 113,
                    "midi": 34,
                    "name": "A#1",
                    "ticks": 77400,
                    "time": 80.625,
                    "velocity": 0.8818897637795275
                },
                {
                    "duration": 0.11770833333333997,
                    "durationTicks": 113,
                    "midi": 46,
                    "name": "A#2",
                    "ticks": 77400,
                    "time": 80.625,
                    "velocity": 0.8818897637795275
                },
                {
                    "duration": 0.12395833333333428,
                    "durationTicks": 119,
                    "midi": 34,
                    "name": "A#1",
                    "ticks": 77640,
                    "time": 80.875,
                    "velocity": 0.8818897637795275
                },
                {
                    "duration": 0.12395833333333428,
                    "durationTicks": 119,
                    "midi": 46,
                    "name": "A#2",
                    "ticks": 77640,
                    "time": 80.875,
                    "velocity": 0.8818897637795275
                },
                {
                    "duration": 0.12395833333333428,
                    "durationTicks": 119,
                    "midi": 34,
                    "name": "A#1",
                    "ticks": 77880,
                    "time": 81.125,
                    "velocity": 0.8818897637795275
                },
                {
                    "duration": 0.12395833333333428,
                    "durationTicks": 119,
                    "midi": 46,
                    "name": "A#2",
                    "ticks": 77880,
                    "time": 81.125,
                    "velocity": 0.8818897637795275
                },
                {
                    "duration": 0.11770833333333997,
                    "durationTicks": 113,
                    "midi": 34,
                    "name": "A#1",
                    "ticks": 78120,
                    "time": 81.375,
                    "velocity": 0.8818897637795275
                },
                {
                    "duration": 0.11770833333333997,
                    "durationTicks": 113,
                    "midi": 46,
                    "name": "A#2",
                    "ticks": 78120,
                    "time": 81.375,
                    "velocity": 0.8818897637795275
                },
                {
                    "duration": 0.11770833333333997,
                    "durationTicks": 113,
                    "midi": 34,
                    "name": "A#1",
                    "ticks": 78240,
                    "time": 81.5,
                    "velocity": 0.8818897637795275
                },
                {
                    "duration": 0.11770833333333997,
                    "durationTicks": 113,
                    "midi": 46,
                    "name": "A#2",
                    "ticks": 78240,
                    "time": 81.5,
                    "velocity": 0.8818897637795275
                },
                {
                    "duration": 0.11770833333333997,
                    "durationTicks": 113,
                    "midi": 34,
                    "name": "A#1",
                    "ticks": 78360,
                    "time": 81.625,
                    "velocity": 0.8818897637795275
                },
                {
                    "duration": 0.11770833333333997,
                    "durationTicks": 113,
                    "midi": 46,
                    "name": "A#2",
                    "ticks": 78360,
                    "time": 81.625,
                    "velocity": 0.8818897637795275
                },
                {
                    "duration": 0.23645833333333144,
                    "durationTicks": 227,
                    "midi": 34,
                    "name": "A#1",
                    "ticks": 78480,
                    "time": 81.75,
                    "velocity": 0.8818897637795275
                },
                {
                    "duration": 0.23645833333333144,
                    "durationTicks": 227,
                    "midi": 46,
                    "name": "A#2",
                    "ticks": 78480,
                    "time": 81.75,
                    "velocity": 0.8818897637795275
                },
                {
                    "duration": 0.12395833333333428,
                    "durationTicks": 119,
                    "midi": 36,
                    "name": "C2",
                    "ticks": 78720,
                    "time": 82,
                    "velocity": 0.8818897637795275
                },
                {
                    "duration": 0.12395833333333428,
                    "durationTicks": 119,
                    "midi": 48,
                    "name": "C3",
                    "ticks": 78720,
                    "time": 82,
                    "velocity": 0.8818897637795275
                },
                {
                    "duration": 0.12395833333333428,
                    "durationTicks": 119,
                    "midi": 36,
                    "name": "C2",
                    "ticks": 78960,
                    "time": 82.25,
                    "velocity": 0.8818897637795275
                },
                {
                    "duration": 0.12395833333333428,
                    "durationTicks": 119,
                    "midi": 48,
                    "name": "C3",
                    "ticks": 78960,
                    "time": 82.25,
                    "velocity": 0.8818897637795275
                },
                {
                    "duration": 0.11770833333333997,
                    "durationTicks": 113,
                    "midi": 36,
                    "name": "C2",
                    "ticks": 79200,
                    "time": 82.5,
                    "velocity": 0.8818897637795275
                },
                {
                    "duration": 0.11770833333333997,
                    "durationTicks": 113,
                    "midi": 48,
                    "name": "C3",
                    "ticks": 79200,
                    "time": 82.5,
                    "velocity": 0.8818897637795275
                },
                {
                    "duration": 0.11770833333333997,
                    "durationTicks": 113,
                    "midi": 36,
                    "name": "C2",
                    "ticks": 79320,
                    "time": 82.625,
                    "velocity": 0.8818897637795275
                },
                {
                    "duration": 0.11770833333333997,
                    "durationTicks": 113,
                    "midi": 48,
                    "name": "C3",
                    "ticks": 79320,
                    "time": 82.625,
                    "velocity": 0.8818897637795275
                },
                {
                    "duration": 0.12395833333333428,
                    "durationTicks": 119,
                    "midi": 36,
                    "name": "C2",
                    "ticks": 79560,
                    "time": 82.875,
                    "velocity": 0.8818897637795275
                },
                {
                    "duration": 0.12395833333333428,
                    "durationTicks": 119,
                    "midi": 48,
                    "name": "C3",
                    "ticks": 79560,
                    "time": 82.875,
                    "velocity": 0.8818897637795275
                },
                {
                    "duration": 0.12395833333333428,
                    "durationTicks": 119,
                    "midi": 36,
                    "name": "C2",
                    "ticks": 79800,
                    "time": 83.125,
                    "velocity": 0.8818897637795275
                },
                {
                    "duration": 0.12395833333333428,
                    "durationTicks": 119,
                    "midi": 48,
                    "name": "C3",
                    "ticks": 79800,
                    "time": 83.125,
                    "velocity": 0.8818897637795275
                },
                {
                    "duration": 0.11770833333333997,
                    "durationTicks": 113,
                    "midi": 36,
                    "name": "C2",
                    "ticks": 80040,
                    "time": 83.375,
                    "velocity": 0.8818897637795275
                },
                {
                    "duration": 0.11770833333333997,
                    "durationTicks": 113,
                    "midi": 48,
                    "name": "C3",
                    "ticks": 80040,
                    "time": 83.375,
                    "velocity": 0.8818897637795275
                },
                {
                    "duration": 0.11770833333333997,
                    "durationTicks": 113,
                    "midi": 36,
                    "name": "C2",
                    "ticks": 80160,
                    "time": 83.5,
                    "velocity": 0.8818897637795275
                },
                {
                    "duration": 0.11770833333333997,
                    "durationTicks": 113,
                    "midi": 48,
                    "name": "C3",
                    "ticks": 80160,
                    "time": 83.5,
                    "velocity": 0.8818897637795275
                },
                {
                    "duration": 0.11770833333333997,
                    "durationTicks": 113,
                    "midi": 36,
                    "name": "C2",
                    "ticks": 80280,
                    "time": 83.625,
                    "velocity": 0.8818897637795275
                },
                {
                    "duration": 0.11770833333333997,
                    "durationTicks": 113,
                    "midi": 48,
                    "name": "C3",
                    "ticks": 80280,
                    "time": 83.625,
                    "velocity": 0.8818897637795275
                },
                {
                    "duration": 0.23645833333333144,
                    "durationTicks": 227,
                    "midi": 36,
                    "name": "C2",
                    "ticks": 80400,
                    "time": 83.75,
                    "velocity": 0.8818897637795275
                },
                {
                    "duration": 0.23645833333333144,
                    "durationTicks": 227,
                    "midi": 48,
                    "name": "C3",
                    "ticks": 80400,
                    "time": 83.75,
                    "velocity": 0.8818897637795275
                },
                {
                    "duration": 0.12395833333333428,
                    "durationTicks": 119,
                    "midi": 35,
                    "name": "B1",
                    "ticks": 80640,
                    "time": 84,
                    "velocity": 0.8818897637795275
                },
                {
                    "duration": 0.12395833333333428,
                    "durationTicks": 119,
                    "midi": 47,
                    "name": "B2",
                    "ticks": 80640,
                    "time": 84,
                    "velocity": 0.8818897637795275
                },
                {
                    "duration": 0.12395833333333428,
                    "durationTicks": 119,
                    "midi": 35,
                    "name": "B1",
                    "ticks": 80880,
                    "time": 84.25,
                    "velocity": 0.8818897637795275
                },
                {
                    "duration": 0.12395833333333428,
                    "durationTicks": 119,
                    "midi": 47,
                    "name": "B2",
                    "ticks": 80880,
                    "time": 84.25,
                    "velocity": 0.8818897637795275
                },
                {
                    "duration": 0.11770833333333997,
                    "durationTicks": 113,
                    "midi": 35,
                    "name": "B1",
                    "ticks": 81120,
                    "time": 84.5,
                    "velocity": 0.8818897637795275
                },
                {
                    "duration": 0.11770833333333997,
                    "durationTicks": 113,
                    "midi": 47,
                    "name": "B2",
                    "ticks": 81120,
                    "time": 84.5,
                    "velocity": 0.8818897637795275
                },
                {
                    "duration": 0.11770833333333997,
                    "durationTicks": 113,
                    "midi": 35,
                    "name": "B1",
                    "ticks": 81240,
                    "time": 84.625,
                    "velocity": 0.8818897637795275
                },
                {
                    "duration": 0.11770833333333997,
                    "durationTicks": 113,
                    "midi": 47,
                    "name": "B2",
                    "ticks": 81240,
                    "time": 84.625,
                    "velocity": 0.8818897637795275
                },
                {
                    "duration": 0.12395833333333428,
                    "durationTicks": 119,
                    "midi": 35,
                    "name": "B1",
                    "ticks": 81480,
                    "time": 84.875,
                    "velocity": 0.8818897637795275
                },
                {
                    "duration": 0.12395833333333428,
                    "durationTicks": 119,
                    "midi": 47,
                    "name": "B2",
                    "ticks": 81480,
                    "time": 84.875,
                    "velocity": 0.8818897637795275
                },
                {
                    "duration": 0.12395833333333428,
                    "durationTicks": 119,
                    "midi": 35,
                    "name": "B1",
                    "ticks": 81720,
                    "time": 85.125,
                    "velocity": 0.8818897637795275
                },
                {
                    "duration": 0.12395833333333428,
                    "durationTicks": 119,
                    "midi": 47,
                    "name": "B2",
                    "ticks": 81720,
                    "time": 85.125,
                    "velocity": 0.8818897637795275
                },
                {
                    "duration": 0.11770833333333997,
                    "durationTicks": 113,
                    "midi": 35,
                    "name": "B1",
                    "ticks": 81960,
                    "time": 85.375,
                    "velocity": 0.8818897637795275
                },
                {
                    "duration": 0.11770833333333997,
                    "durationTicks": 113,
                    "midi": 47,
                    "name": "B2",
                    "ticks": 81960,
                    "time": 85.375,
                    "velocity": 0.8818897637795275
                },
                {
                    "duration": 0.11770833333333997,
                    "durationTicks": 113,
                    "midi": 35,
                    "name": "B1",
                    "ticks": 82080,
                    "time": 85.5,
                    "velocity": 0.8818897637795275
                },
                {
                    "duration": 0.11770833333333997,
                    "durationTicks": 113,
                    "midi": 47,
                    "name": "B2",
                    "ticks": 82080,
                    "time": 85.5,
                    "velocity": 0.8818897637795275
                },
                {
                    "duration": 0.11770833333333997,
                    "durationTicks": 113,
                    "midi": 35,
                    "name": "B1",
                    "ticks": 82200,
                    "time": 85.625,
                    "velocity": 0.8818897637795275
                },
                {
                    "duration": 0.11770833333333997,
                    "durationTicks": 113,
                    "midi": 47,
                    "name": "B2",
                    "ticks": 82200,
                    "time": 85.625,
                    "velocity": 0.8818897637795275
                },
                {
                    "duration": 0.23645833333333144,
                    "durationTicks": 227,
                    "midi": 35,
                    "name": "B1",
                    "ticks": 82320,
                    "time": 85.75,
                    "velocity": 0.8818897637795275
                },
                {
                    "duration": 0.23645833333333144,
                    "durationTicks": 227,
                    "midi": 47,
                    "name": "B2",
                    "ticks": 82320,
                    "time": 85.75,
                    "velocity": 0.8818897637795275
                },
                {
                    "duration": 0.12395833333333428,
                    "durationTicks": 119,
                    "midi": 35,
                    "name": "B1",
                    "ticks": 82560,
                    "time": 86,
                    "velocity": 0.8818897637795275
                },
                {
                    "duration": 0.12395833333333428,
                    "durationTicks": 119,
                    "midi": 47,
                    "name": "B2",
                    "ticks": 82560,
                    "time": 86,
                    "velocity": 0.8818897637795275
                },
                {
                    "duration": 0.12395833333333428,
                    "durationTicks": 119,
                    "midi": 35,
                    "name": "B1",
                    "ticks": 82800,
                    "time": 86.25,
                    "velocity": 0.8818897637795275
                },
                {
                    "duration": 0.12395833333333428,
                    "durationTicks": 119,
                    "midi": 47,
                    "name": "B2",
                    "ticks": 82800,
                    "time": 86.25,
                    "velocity": 0.8818897637795275
                },
                {
                    "duration": 0.11770833333333997,
                    "durationTicks": 113,
                    "midi": 35,
                    "name": "B1",
                    "ticks": 83040,
                    "time": 86.5,
                    "velocity": 0.8818897637795275
                },
                {
                    "duration": 0.11770833333333997,
                    "durationTicks": 113,
                    "midi": 47,
                    "name": "B2",
                    "ticks": 83040,
                    "time": 86.5,
                    "velocity": 0.8818897637795275
                },
                {
                    "duration": 0.11770833333333997,
                    "durationTicks": 113,
                    "midi": 35,
                    "name": "B1",
                    "ticks": 83160,
                    "time": 86.625,
                    "velocity": 0.8818897637795275
                },
                {
                    "duration": 0.11770833333333997,
                    "durationTicks": 113,
                    "midi": 47,
                    "name": "B2",
                    "ticks": 83160,
                    "time": 86.625,
                    "velocity": 0.8818897637795275
                },
                {
                    "duration": 0.12395833333333428,
                    "durationTicks": 119,
                    "midi": 35,
                    "name": "B1",
                    "ticks": 83400,
                    "time": 86.875,
                    "velocity": 0.8818897637795275
                },
                {
                    "duration": 0.12395833333333428,
                    "durationTicks": 119,
                    "midi": 47,
                    "name": "B2",
                    "ticks": 83400,
                    "time": 86.875,
                    "velocity": 0.8818897637795275
                },
                {
                    "duration": 0.12395833333333428,
                    "durationTicks": 119,
                    "midi": 35,
                    "name": "B1",
                    "ticks": 83640,
                    "time": 87.125,
                    "velocity": 0.8818897637795275
                },
                {
                    "duration": 0.12395833333333428,
                    "durationTicks": 119,
                    "midi": 47,
                    "name": "B2",
                    "ticks": 83640,
                    "time": 87.125,
                    "velocity": 0.8818897637795275
                },
                {
                    "duration": 0.11770833333333997,
                    "durationTicks": 113,
                    "midi": 35,
                    "name": "B1",
                    "ticks": 83880,
                    "time": 87.375,
                    "velocity": 0.8818897637795275
                },
                {
                    "duration": 0.11770833333333997,
                    "durationTicks": 113,
                    "midi": 47,
                    "name": "B2",
                    "ticks": 83880,
                    "time": 87.375,
                    "velocity": 0.8818897637795275
                },
                {
                    "duration": 0.11770833333333997,
                    "durationTicks": 113,
                    "midi": 35,
                    "name": "B1",
                    "ticks": 84000,
                    "time": 87.5,
                    "velocity": 0.8818897637795275
                },
                {
                    "duration": 0.11770833333333997,
                    "durationTicks": 113,
                    "midi": 47,
                    "name": "B2",
                    "ticks": 84000,
                    "time": 87.5,
                    "velocity": 0.8818897637795275
                },
                {
                    "duration": 0.11770833333333997,
                    "durationTicks": 113,
                    "midi": 35,
                    "name": "B1",
                    "ticks": 84120,
                    "time": 87.625,
                    "velocity": 0.8818897637795275
                },
                {
                    "duration": 0.11770833333333997,
                    "durationTicks": 113,
                    "midi": 47,
                    "name": "B2",
                    "ticks": 84120,
                    "time": 87.625,
                    "velocity": 0.8818897637795275
                },
                {
                    "duration": 0.23645833333333144,
                    "durationTicks": 227,
                    "midi": 35,
                    "name": "B1",
                    "ticks": 84240,
                    "time": 87.75,
                    "velocity": 0.8818897637795275
                },
                {
                    "duration": 0.23645833333333144,
                    "durationTicks": 227,
                    "midi": 47,
                    "name": "B2",
                    "ticks": 84240,
                    "time": 87.75,
                    "velocity": 0.8818897637795275
                },
                {
                    "duration": 0.12395833333333428,
                    "durationTicks": 119,
                    "midi": 34,
                    "name": "A#1",
                    "ticks": 84480,
                    "time": 88,
                    "velocity": 0.8818897637795275
                },
                {
                    "duration": 0.12395833333333428,
                    "durationTicks": 119,
                    "midi": 46,
                    "name": "A#2",
                    "ticks": 84480,
                    "time": 88,
                    "velocity": 0.8818897637795275
                },
                {
                    "duration": 0.12395833333333428,
                    "durationTicks": 119,
                    "midi": 34,
                    "name": "A#1",
                    "ticks": 84720,
                    "time": 88.25,
                    "velocity": 0.8818897637795275
                },
                {
                    "duration": 0.12395833333333428,
                    "durationTicks": 119,
                    "midi": 46,
                    "name": "A#2",
                    "ticks": 84720,
                    "time": 88.25,
                    "velocity": 0.8818897637795275
                },
                {
                    "duration": 0.11770833333333997,
                    "durationTicks": 113,
                    "midi": 34,
                    "name": "A#1",
                    "ticks": 84960,
                    "time": 88.5,
                    "velocity": 0.8818897637795275
                },
                {
                    "duration": 0.11770833333333997,
                    "durationTicks": 113,
                    "midi": 46,
                    "name": "A#2",
                    "ticks": 84960,
                    "time": 88.5,
                    "velocity": 0.8818897637795275
                },
                {
                    "duration": 0.11770833333333997,
                    "durationTicks": 113,
                    "midi": 34,
                    "name": "A#1",
                    "ticks": 85080,
                    "time": 88.625,
                    "velocity": 0.8818897637795275
                },
                {
                    "duration": 0.11770833333333997,
                    "durationTicks": 113,
                    "midi": 46,
                    "name": "A#2",
                    "ticks": 85080,
                    "time": 88.625,
                    "velocity": 0.8818897637795275
                },
                {
                    "duration": 0.12395833333333428,
                    "durationTicks": 119,
                    "midi": 34,
                    "name": "A#1",
                    "ticks": 85320,
                    "time": 88.875,
                    "velocity": 0.8818897637795275
                },
                {
                    "duration": 0.12395833333333428,
                    "durationTicks": 119,
                    "midi": 46,
                    "name": "A#2",
                    "ticks": 85320,
                    "time": 88.875,
                    "velocity": 0.8818897637795275
                },
                {
                    "duration": 0.12395833333333428,
                    "durationTicks": 119,
                    "midi": 34,
                    "name": "A#1",
                    "ticks": 85560,
                    "time": 89.125,
                    "velocity": 0.8818897637795275
                },
                {
                    "duration": 0.12395833333333428,
                    "durationTicks": 119,
                    "midi": 46,
                    "name": "A#2",
                    "ticks": 85560,
                    "time": 89.125,
                    "velocity": 0.8818897637795275
                },
                {
                    "duration": 0.11770833333333997,
                    "durationTicks": 113,
                    "midi": 34,
                    "name": "A#1",
                    "ticks": 85800,
                    "time": 89.375,
                    "velocity": 0.8818897637795275
                },
                {
                    "duration": 0.11770833333333997,
                    "durationTicks": 113,
                    "midi": 46,
                    "name": "A#2",
                    "ticks": 85800,
                    "time": 89.375,
                    "velocity": 0.8818897637795275
                },
                {
                    "duration": 0.11770833333333997,
                    "durationTicks": 113,
                    "midi": 34,
                    "name": "A#1",
                    "ticks": 85920,
                    "time": 89.5,
                    "velocity": 0.8818897637795275
                },
                {
                    "duration": 0.11770833333333997,
                    "durationTicks": 113,
                    "midi": 46,
                    "name": "A#2",
                    "ticks": 85920,
                    "time": 89.5,
                    "velocity": 0.8818897637795275
                },
                {
                    "duration": 0.11770833333333997,
                    "durationTicks": 113,
                    "midi": 34,
                    "name": "A#1",
                    "ticks": 86040,
                    "time": 89.625,
                    "velocity": 0.8818897637795275
                },
                {
                    "duration": 0.11770833333333997,
                    "durationTicks": 113,
                    "midi": 46,
                    "name": "A#2",
                    "ticks": 86040,
                    "time": 89.625,
                    "velocity": 0.8818897637795275
                },
                {
                    "duration": 0.23645833333333144,
                    "durationTicks": 227,
                    "midi": 34,
                    "name": "A#1",
                    "ticks": 86160,
                    "time": 89.75,
                    "velocity": 0.8818897637795275
                },
                {
                    "duration": 0.23645833333333144,
                    "durationTicks": 227,
                    "midi": 46,
                    "name": "A#2",
                    "ticks": 86160,
                    "time": 89.75,
                    "velocity": 0.8818897637795275
                },
                {
                    "duration": 0.12395833333333428,
                    "durationTicks": 119,
                    "midi": 36,
                    "name": "C2",
                    "ticks": 86400,
                    "time": 90,
                    "velocity": 0.8818897637795275
                },
                {
                    "duration": 0.12395833333333428,
                    "durationTicks": 119,
                    "midi": 48,
                    "name": "C3",
                    "ticks": 86400,
                    "time": 90,
                    "velocity": 0.8818897637795275
                },
                {
                    "duration": 0.12395833333333428,
                    "durationTicks": 119,
                    "midi": 36,
                    "name": "C2",
                    "ticks": 86640,
                    "time": 90.25,
                    "velocity": 0.8818897637795275
                },
                {
                    "duration": 0.12395833333333428,
                    "durationTicks": 119,
                    "midi": 48,
                    "name": "C3",
                    "ticks": 86640,
                    "time": 90.25,
                    "velocity": 0.8818897637795275
                },
                {
                    "duration": 0.11770833333333997,
                    "durationTicks": 113,
                    "midi": 36,
                    "name": "C2",
                    "ticks": 86880,
                    "time": 90.5,
                    "velocity": 0.8818897637795275
                },
                {
                    "duration": 0.11770833333333997,
                    "durationTicks": 113,
                    "midi": 48,
                    "name": "C3",
                    "ticks": 86880,
                    "time": 90.5,
                    "velocity": 0.8818897637795275
                },
                {
                    "duration": 0.11770833333333997,
                    "durationTicks": 113,
                    "midi": 36,
                    "name": "C2",
                    "ticks": 87000,
                    "time": 90.625,
                    "velocity": 0.8818897637795275
                },
                {
                    "duration": 0.11770833333333997,
                    "durationTicks": 113,
                    "midi": 48,
                    "name": "C3",
                    "ticks": 87000,
                    "time": 90.625,
                    "velocity": 0.8818897637795275
                },
                {
                    "duration": 0.12395833333333428,
                    "durationTicks": 119,
                    "midi": 36,
                    "name": "C2",
                    "ticks": 87240,
                    "time": 90.875,
                    "velocity": 0.8818897637795275
                },
                {
                    "duration": 0.12395833333333428,
                    "durationTicks": 119,
                    "midi": 48,
                    "name": "C3",
                    "ticks": 87240,
                    "time": 90.875,
                    "velocity": 0.8818897637795275
                },
                {
                    "duration": 0.12395833333333428,
                    "durationTicks": 119,
                    "midi": 36,
                    "name": "C2",
                    "ticks": 87480,
                    "time": 91.125,
                    "velocity": 0.8818897637795275
                },
                {
                    "duration": 0.12395833333333428,
                    "durationTicks": 119,
                    "midi": 48,
                    "name": "C3",
                    "ticks": 87480,
                    "time": 91.125,
                    "velocity": 0.8818897637795275
                },
                {
                    "duration": 0.11770833333333997,
                    "durationTicks": 113,
                    "midi": 36,
                    "name": "C2",
                    "ticks": 87720,
                    "time": 91.375,
                    "velocity": 0.8818897637795275
                },
                {
                    "duration": 0.11770833333333997,
                    "durationTicks": 113,
                    "midi": 48,
                    "name": "C3",
                    "ticks": 87720,
                    "time": 91.375,
                    "velocity": 0.8818897637795275
                },
                {
                    "duration": 0.11770833333333997,
                    "durationTicks": 113,
                    "midi": 36,
                    "name": "C2",
                    "ticks": 87840,
                    "time": 91.5,
                    "velocity": 0.8818897637795275
                },
                {
                    "duration": 0.11770833333333997,
                    "durationTicks": 113,
                    "midi": 48,
                    "name": "C3",
                    "ticks": 87840,
                    "time": 91.5,
                    "velocity": 0.8818897637795275
                },
                {
                    "duration": 0.11770833333333997,
                    "durationTicks": 113,
                    "midi": 36,
                    "name": "C2",
                    "ticks": 87960,
                    "time": 91.625,
                    "velocity": 0.8818897637795275
                },
                {
                    "duration": 0.11770833333333997,
                    "durationTicks": 113,
                    "midi": 48,
                    "name": "C3",
                    "ticks": 87960,
                    "time": 91.625,
                    "velocity": 0.8818897637795275
                },
                {
                    "duration": 0.23645833333333144,
                    "durationTicks": 227,
                    "midi": 36,
                    "name": "C2",
                    "ticks": 88080,
                    "time": 91.75,
                    "velocity": 0.8818897637795275
                },
                {
                    "duration": 0.23645833333333144,
                    "durationTicks": 227,
                    "midi": 48,
                    "name": "C3",
                    "ticks": 88080,
                    "time": 91.75,
                    "velocity": 0.8818897637795275
                },
                {
                    "duration": 0.12395833333333428,
                    "durationTicks": 119,
                    "midi": 38,
                    "name": "D2",
                    "ticks": 88320,
                    "time": 92,
                    "velocity": 0.8818897637795275
                },
                {
                    "duration": 0.12395833333333428,
                    "durationTicks": 119,
                    "midi": 50,
                    "name": "D3",
                    "ticks": 88320,
                    "time": 92,
                    "velocity": 0.8818897637795275
                },
                {
                    "duration": 0.12395833333333428,
                    "durationTicks": 119,
                    "midi": 38,
                    "name": "D2",
                    "ticks": 88560,
                    "time": 92.25,
                    "velocity": 0.8818897637795275
                },
                {
                    "duration": 0.12395833333333428,
                    "durationTicks": 119,
                    "midi": 50,
                    "name": "D3",
                    "ticks": 88560,
                    "time": 92.25,
                    "velocity": 0.8818897637795275
                },
                {
                    "duration": 0.11770833333333997,
                    "durationTicks": 113,
                    "midi": 38,
                    "name": "D2",
                    "ticks": 88800,
                    "time": 92.5,
                    "velocity": 0.8818897637795275
                },
                {
                    "duration": 0.11770833333333997,
                    "durationTicks": 113,
                    "midi": 50,
                    "name": "D3",
                    "ticks": 88800,
                    "time": 92.5,
                    "velocity": 0.8818897637795275
                },
                {
                    "duration": 0.11770833333333997,
                    "durationTicks": 113,
                    "midi": 38,
                    "name": "D2",
                    "ticks": 88920,
                    "time": 92.625,
                    "velocity": 0.8818897637795275
                },
                {
                    "duration": 0.11770833333333997,
                    "durationTicks": 113,
                    "midi": 50,
                    "name": "D3",
                    "ticks": 88920,
                    "time": 92.625,
                    "velocity": 0.8818897637795275
                },
                {
                    "duration": 0.12395833333333428,
                    "durationTicks": 119,
                    "midi": 38,
                    "name": "D2",
                    "ticks": 89160,
                    "time": 92.875,
                    "velocity": 0.8818897637795275
                },
                {
                    "duration": 0.12395833333333428,
                    "durationTicks": 119,
                    "midi": 50,
                    "name": "D3",
                    "ticks": 89160,
                    "time": 92.875,
                    "velocity": 0.8818897637795275
                },
                {
                    "duration": 0.12395833333333428,
                    "durationTicks": 119,
                    "midi": 38,
                    "name": "D2",
                    "ticks": 89400,
                    "time": 93.125,
                    "velocity": 0.8818897637795275
                },
                {
                    "duration": 0.12395833333333428,
                    "durationTicks": 119,
                    "midi": 50,
                    "name": "D3",
                    "ticks": 89400,
                    "time": 93.125,
                    "velocity": 0.8818897637795275
                },
                {
                    "duration": 0.11770833333333997,
                    "durationTicks": 113,
                    "midi": 38,
                    "name": "D2",
                    "ticks": 89640,
                    "time": 93.375,
                    "velocity": 0.8818897637795275
                },
                {
                    "duration": 0.11770833333333997,
                    "durationTicks": 113,
                    "midi": 50,
                    "name": "D3",
                    "ticks": 89640,
                    "time": 93.375,
                    "velocity": 0.8818897637795275
                },
                {
                    "duration": 0.11770833333333997,
                    "durationTicks": 113,
                    "midi": 38,
                    "name": "D2",
                    "ticks": 89760,
                    "time": 93.5,
                    "velocity": 0.8818897637795275
                },
                {
                    "duration": 0.11770833333333997,
                    "durationTicks": 113,
                    "midi": 50,
                    "name": "D3",
                    "ticks": 89760,
                    "time": 93.5,
                    "velocity": 0.8818897637795275
                },
                {
                    "duration": 0.11770833333333997,
                    "durationTicks": 113,
                    "midi": 38,
                    "name": "D2",
                    "ticks": 89880,
                    "time": 93.625,
                    "velocity": 0.8818897637795275
                },
                {
                    "duration": 0.11770833333333997,
                    "durationTicks": 113,
                    "midi": 50,
                    "name": "D3",
                    "ticks": 89880,
                    "time": 93.625,
                    "velocity": 0.8818897637795275
                },
                {
                    "duration": 0.23645833333333144,
                    "durationTicks": 227,
                    "midi": 38,
                    "name": "D2",
                    "ticks": 90000,
                    "time": 93.75,
                    "velocity": 0.8818897637795275
                },
                {
                    "duration": 0.23645833333333144,
                    "durationTicks": 227,
                    "midi": 50,
                    "name": "D3",
                    "ticks": 90000,
                    "time": 93.75,
                    "velocity": 0.8818897637795275
                },
                {
                    "duration": 0.12395833333333428,
                    "durationTicks": 119,
                    "midi": 38,
                    "name": "D2",
                    "ticks": 90240,
                    "time": 94,
                    "velocity": 0.8818897637795275
                },
                {
                    "duration": 0.12395833333333428,
                    "durationTicks": 119,
                    "midi": 50,
                    "name": "D3",
                    "ticks": 90240,
                    "time": 94,
                    "velocity": 0.8818897637795275
                },
                {
                    "duration": 0.12395833333333428,
                    "durationTicks": 119,
                    "midi": 38,
                    "name": "D2",
                    "ticks": 90480,
                    "time": 94.25,
                    "velocity": 0.8818897637795275
                },
                {
                    "duration": 0.12395833333333428,
                    "durationTicks": 119,
                    "midi": 50,
                    "name": "D3",
                    "ticks": 90480,
                    "time": 94.25,
                    "velocity": 0.8818897637795275
                },
                {
                    "duration": 0.11770833333333997,
                    "durationTicks": 113,
                    "midi": 38,
                    "name": "D2",
                    "ticks": 90720,
                    "time": 94.5,
                    "velocity": 0.8818897637795275
                },
                {
                    "duration": 0.11770833333333997,
                    "durationTicks": 113,
                    "midi": 50,
                    "name": "D3",
                    "ticks": 90720,
                    "time": 94.5,
                    "velocity": 0.8818897637795275
                },
                {
                    "duration": 0.11770833333333997,
                    "durationTicks": 113,
                    "midi": 38,
                    "name": "D2",
                    "ticks": 90840,
                    "time": 94.625,
                    "velocity": 0.8818897637795275
                },
                {
                    "duration": 0.11770833333333997,
                    "durationTicks": 113,
                    "midi": 50,
                    "name": "D3",
                    "ticks": 90840,
                    "time": 94.625,
                    "velocity": 0.8818897637795275
                },
                {
                    "duration": 0.12395833333333428,
                    "durationTicks": 119,
                    "midi": 38,
                    "name": "D2",
                    "ticks": 91080,
                    "time": 94.875,
                    "velocity": 0.8818897637795275
                },
                {
                    "duration": 0.12395833333333428,
                    "durationTicks": 119,
                    "midi": 50,
                    "name": "D3",
                    "ticks": 91080,
                    "time": 94.875,
                    "velocity": 0.8818897637795275
                },
                {
                    "duration": 0.12395833333333428,
                    "durationTicks": 119,
                    "midi": 38,
                    "name": "D2",
                    "ticks": 91320,
                    "time": 95.125,
                    "velocity": 0.8818897637795275
                },
                {
                    "duration": 0.12395833333333428,
                    "durationTicks": 119,
                    "midi": 50,
                    "name": "D3",
                    "ticks": 91320,
                    "time": 95.125,
                    "velocity": 0.8818897637795275
                },
                {
                    "duration": 0.11770833333333997,
                    "durationTicks": 113,
                    "midi": 38,
                    "name": "D2",
                    "ticks": 91560,
                    "time": 95.375,
                    "velocity": 0.8818897637795275
                },
                {
                    "duration": 0.11770833333333997,
                    "durationTicks": 113,
                    "midi": 50,
                    "name": "D3",
                    "ticks": 91560,
                    "time": 95.375,
                    "velocity": 0.8818897637795275
                },
                {
                    "duration": 0.11770833333333997,
                    "durationTicks": 113,
                    "midi": 38,
                    "name": "D2",
                    "ticks": 91680,
                    "time": 95.5,
                    "velocity": 0.8818897637795275
                },
                {
                    "duration": 0.11770833333333997,
                    "durationTicks": 113,
                    "midi": 50,
                    "name": "D3",
                    "ticks": 91680,
                    "time": 95.5,
                    "velocity": 0.8818897637795275
                },
                {
                    "duration": 0.11770833333333997,
                    "durationTicks": 113,
                    "midi": 38,
                    "name": "D2",
                    "ticks": 91800,
                    "time": 95.625,
                    "velocity": 0.8818897637795275
                },
                {
                    "duration": 0.11770833333333997,
                    "durationTicks": 113,
                    "midi": 50,
                    "name": "D3",
                    "ticks": 91800,
                    "time": 95.625,
                    "velocity": 0.8818897637795275
                },
                {
                    "duration": 0.23645833333333144,
                    "durationTicks": 227,
                    "midi": 38,
                    "name": "D2",
                    "ticks": 91920,
                    "time": 95.75,
                    "velocity": 0.8818897637795275
                },
                {
                    "duration": 0.23645833333333144,
                    "durationTicks": 227,
                    "midi": 50,
                    "name": "D3",
                    "ticks": 91920,
                    "time": 95.75,
                    "velocity": 0.8818897637795275
                },
                {
                    "duration": 1.89895833333334,
                    "durationTicks": 1823,
                    "midi": 34,
                    "name": "A#1",
                    "ticks": 92160,
                    "time": 96,
                    "velocity": 0.6299212598425197
                },
                {
                    "duration": 0.11770833333333997,
                    "durationTicks": 113,
                    "midi": 50,
                    "name": "D3",
                    "ticks": 92280,
                    "time": 96.125,
                    "velocity": 0.6299212598425197
                },
                {
                    "duration": 0.12395833333333428,
                    "durationTicks": 119,
                    "midi": 62,
                    "name": "D4",
                    "ticks": 92400,
                    "time": 96.25,
                    "velocity": 0.6299212598425197
                },
                {
                    "duration": 0.12395833333333428,
                    "durationTicks": 119,
                    "midi": 57,
                    "name": "A3",
                    "ticks": 92640,
                    "time": 96.5,
                    "velocity": 0.6299212598425197
                },
                {
                    "duration": 0.12395833333333428,
                    "durationTicks": 119,
                    "midi": 56,
                    "name": "G#3",
                    "ticks": 93000,
                    "time": 96.875,
                    "velocity": 0.6299212598425197
                },
                {
                    "duration": 0.12395833333333428,
                    "durationTicks": 119,
                    "midi": 55,
                    "name": "G3",
                    "ticks": 93240,
                    "time": 97.125,
                    "velocity": 0.6299212598425197
                },
                {
                    "duration": 0.23645833333333144,
                    "durationTicks": 227,
                    "midi": 53,
                    "name": "F3",
                    "ticks": 93480,
                    "time": 97.375,
                    "velocity": 0.6299212598425197
                },
                {
                    "duration": 0.11770833333333997,
                    "durationTicks": 113,
                    "midi": 50,
                    "name": "D3",
                    "ticks": 93720,
                    "time": 97.625,
                    "velocity": 0.6299212598425197
                },
                {
                    "duration": 0.11770833333333997,
                    "durationTicks": 113,
                    "midi": 53,
                    "name": "F3",
                    "ticks": 93840,
                    "time": 97.75,
                    "velocity": 0.6299212598425197
                },
                {
                    "duration": 0.11770833333333997,
                    "durationTicks": 113,
                    "midi": 55,
                    "name": "G3",
                    "ticks": 93960,
                    "time": 97.875,
                    "velocity": 0.6299212598425197
                },
                {
                    "duration": 0.11770833333333997,
                    "durationTicks": 113,
                    "midi": 48,
                    "name": "C3",
                    "ticks": 94080,
                    "time": 98,
                    "velocity": 0.6299212598425197
                },
                {
                    "duration": 1.89895833333334,
                    "durationTicks": 1823,
                    "midi": 36,
                    "name": "C2",
                    "ticks": 94080,
                    "time": 98,
                    "velocity": 0.6299212598425197
                },
                {
                    "duration": 0.11770833333333997,
                    "durationTicks": 113,
                    "midi": 48,
                    "name": "C3",
                    "ticks": 94200,
                    "time": 98.125,
                    "velocity": 0.6299212598425197
                },
                {
                    "duration": 0.12395833333333428,
                    "durationTicks": 119,
                    "midi": 62,
                    "name": "D4",
                    "ticks": 94320,
                    "time": 98.25,
                    "velocity": 0.6299212598425197
                },
                {
                    "duration": 0.12395833333333428,
                    "durationTicks": 119,
                    "midi": 57,
                    "name": "A3",
                    "ticks": 94560,
                    "time": 98.5,
                    "velocity": 0.6299212598425197
                },
                {
                    "duration": 0.12395833333333428,
                    "durationTicks": 119,
                    "midi": 56,
                    "name": "G#3",
                    "ticks": 94920,
                    "time": 98.875,
                    "velocity": 0.6299212598425197
                },
                {
                    "duration": 0.12395833333333428,
                    "durationTicks": 119,
                    "midi": 55,
                    "name": "G3",
                    "ticks": 95160,
                    "time": 99.125,
                    "velocity": 0.6299212598425197
                },
                {
                    "duration": 0.23645833333333144,
                    "durationTicks": 227,
                    "midi": 53,
                    "name": "F3",
                    "ticks": 95400,
                    "time": 99.375,
                    "velocity": 0.6299212598425197
                },
                {
                    "duration": 0.11770833333333997,
                    "durationTicks": 113,
                    "midi": 50,
                    "name": "D3",
                    "ticks": 95640,
                    "time": 99.625,
                    "velocity": 0.6299212598425197
                },
                {
                    "duration": 0.11770833333333997,
                    "durationTicks": 113,
                    "midi": 53,
                    "name": "F3",
                    "ticks": 95760,
                    "time": 99.75,
                    "velocity": 0.6299212598425197
                },
                {
                    "duration": 0.11770833333333997,
                    "durationTicks": 113,
                    "midi": 55,
                    "name": "G3",
                    "ticks": 95880,
                    "time": 99.875,
                    "velocity": 0.6299212598425197
                },
                {
                    "duration": 0.11770833333333997,
                    "durationTicks": 113,
                    "midi": 47,
                    "name": "B2",
                    "ticks": 96000,
                    "time": 100,
                    "velocity": 0.6299212598425197
                },
                {
                    "duration": 3.7989583333333314,
                    "durationTicks": 3647,
                    "midi": 35,
                    "name": "B1",
                    "ticks": 96000,
                    "time": 100,
                    "velocity": 0.6299212598425197
                },
                {
                    "duration": 0.11770833333333997,
                    "durationTicks": 113,
                    "midi": 47,
                    "name": "B2",
                    "ticks": 96120,
                    "time": 100.125,
                    "velocity": 0.6299212598425197
                },
                {
                    "duration": 0.12395833333333428,
                    "durationTicks": 119,
                    "midi": 62,
                    "name": "D4",
                    "ticks": 96240,
                    "time": 100.25,
                    "velocity": 0.6299212598425197
                },
                {
                    "duration": 0.12395833333333428,
                    "durationTicks": 119,
                    "midi": 57,
                    "name": "A3",
                    "ticks": 96480,
                    "time": 100.5,
                    "velocity": 0.6299212598425197
                },
                {
                    "duration": 0.12395833333333428,
                    "durationTicks": 119,
                    "midi": 56,
                    "name": "G#3",
                    "ticks": 96840,
                    "time": 100.875,
                    "velocity": 0.6299212598425197
                },
                {
                    "duration": 0.12395833333333428,
                    "durationTicks": 119,
                    "midi": 55,
                    "name": "G3",
                    "ticks": 97080,
                    "time": 101.125,
                    "velocity": 0.6299212598425197
                },
                {
                    "duration": 0.23645833333333144,
                    "durationTicks": 227,
                    "midi": 53,
                    "name": "F3",
                    "ticks": 97320,
                    "time": 101.375,
                    "velocity": 0.6299212598425197
                },
                {
                    "duration": 0.11770833333333997,
                    "durationTicks": 113,
                    "midi": 50,
                    "name": "D3",
                    "ticks": 97560,
                    "time": 101.625,
                    "velocity": 0.6299212598425197
                },
                {
                    "duration": 0.11770833333333997,
                    "durationTicks": 113,
                    "midi": 53,
                    "name": "F3",
                    "ticks": 97680,
                    "time": 101.75,
                    "velocity": 0.6299212598425197
                },
                {
                    "duration": 0.11770833333333997,
                    "durationTicks": 113,
                    "midi": 55,
                    "name": "G3",
                    "ticks": 97800,
                    "time": 101.875,
                    "velocity": 0.6299212598425197
                },
                {
                    "duration": 0.11770833333333997,
                    "durationTicks": 113,
                    "midi": 47,
                    "name": "B2",
                    "ticks": 97920,
                    "time": 102,
                    "velocity": 0.6299212598425197
                },
                {
                    "duration": 0.11770833333333997,
                    "durationTicks": 113,
                    "midi": 47,
                    "name": "B2",
                    "ticks": 98040,
                    "time": 102.125,
                    "velocity": 0.6299212598425197
                },
                {
                    "duration": 0.12395833333333428,
                    "durationTicks": 119,
                    "midi": 62,
                    "name": "D4",
                    "ticks": 98160,
                    "time": 102.25,
                    "velocity": 0.6299212598425197
                },
                {
                    "duration": 0.12395833333333428,
                    "durationTicks": 119,
                    "midi": 57,
                    "name": "A3",
                    "ticks": 98400,
                    "time": 102.5,
                    "velocity": 0.6299212598425197
                },
                {
                    "duration": 0.23645833333333144,
                    "durationTicks": 227,
                    "midi": 56,
                    "name": "G#3",
                    "ticks": 98760,
                    "time": 102.875,
                    "velocity": 0.6299212598425197
                },
                {
                    "duration": 0.12395833333333428,
                    "durationTicks": 119,
                    "midi": 55,
                    "name": "G3",
                    "ticks": 99000,
                    "time": 103.125,
                    "velocity": 0.6299212598425197
                },
                {
                    "duration": 0.23645833333333144,
                    "durationTicks": 227,
                    "midi": 53,
                    "name": "F3",
                    "ticks": 99240,
                    "time": 103.375,
                    "velocity": 0.6299212598425197
                },
                {
                    "duration": 0.11770833333333997,
                    "durationTicks": 113,
                    "midi": 50,
                    "name": "D3",
                    "ticks": 99480,
                    "time": 103.625,
                    "velocity": 0.6299212598425197
                },
                {
                    "duration": 0.11770833333333997,
                    "durationTicks": 113,
                    "midi": 53,
                    "name": "F3",
                    "ticks": 99600,
                    "time": 103.75,
                    "velocity": 0.6299212598425197
                },
                {
                    "duration": 0.11770833333333997,
                    "durationTicks": 113,
                    "midi": 55,
                    "name": "G3",
                    "ticks": 99720,
                    "time": 103.875,
                    "velocity": 0.6299212598425197
                },
                {
                    "duration": 1.89895833333334,
                    "durationTicks": 1823,
                    "midi": 34,
                    "name": "A#1",
                    "ticks": 99840,
                    "time": 104,
                    "velocity": 0.6299212598425197
                },
                {
                    "duration": 0.11770833333333997,
                    "durationTicks": 113,
                    "midi": 50,
                    "name": "D3",
                    "ticks": 99960,
                    "time": 104.125,
                    "velocity": 0.6299212598425197
                },
                {
                    "duration": 0.12395833333333428,
                    "durationTicks": 119,
                    "midi": 62,
                    "name": "D4",
                    "ticks": 100080,
                    "time": 104.25,
                    "velocity": 0.6299212598425197
                },
                {
                    "duration": 0.12395833333333428,
                    "durationTicks": 119,
                    "midi": 57,
                    "name": "A3",
                    "ticks": 100320,
                    "time": 104.5,
                    "velocity": 0.6299212598425197
                },
                {
                    "duration": 0.12395833333333428,
                    "durationTicks": 119,
                    "midi": 56,
                    "name": "G#3",
                    "ticks": 100680,
                    "time": 104.875,
                    "velocity": 0.6299212598425197
                },
                {
                    "duration": 0.12395833333333428,
                    "durationTicks": 119,
                    "midi": 55,
                    "name": "G3",
                    "ticks": 100920,
                    "time": 105.125,
                    "velocity": 0.6299212598425197
                },
                {
                    "duration": 0.23645833333333144,
                    "durationTicks": 227,
                    "midi": 53,
                    "name": "F3",
                    "ticks": 101160,
                    "time": 105.375,
                    "velocity": 0.6299212598425197
                },
                {
                    "duration": 0.11770833333333997,
                    "durationTicks": 113,
                    "midi": 50,
                    "name": "D3",
                    "ticks": 101400,
                    "time": 105.625,
                    "velocity": 0.6299212598425197
                },
                {
                    "duration": 0.11770833333333997,
                    "durationTicks": 113,
                    "midi": 53,
                    "name": "F3",
                    "ticks": 101520,
                    "time": 105.75,
                    "velocity": 0.6299212598425197
                },
                {
                    "duration": 0.11770833333333997,
                    "durationTicks": 113,
                    "midi": 55,
                    "name": "G3",
                    "ticks": 101640,
                    "time": 105.875,
                    "velocity": 0.6299212598425197
                },
                {
                    "duration": 0.11770833333333997,
                    "durationTicks": 113,
                    "midi": 48,
                    "name": "C3",
                    "ticks": 101760,
                    "time": 106,
                    "velocity": 0.6299212598425197
                },
                {
                    "duration": 1.89895833333334,
                    "durationTicks": 1823,
                    "midi": 36,
                    "name": "C2",
                    "ticks": 101760,
                    "time": 106,
                    "velocity": 0.6299212598425197
                },
                {
                    "duration": 0.11770833333333997,
                    "durationTicks": 113,
                    "midi": 48,
                    "name": "C3",
                    "ticks": 101880,
                    "time": 106.125,
                    "velocity": 0.6299212598425197
                },
                {
                    "duration": 0.12395833333333428,
                    "durationTicks": 119,
                    "midi": 62,
                    "name": "D4",
                    "ticks": 102000,
                    "time": 106.25,
                    "velocity": 0.6299212598425197
                },
                {
                    "duration": 0.12395833333333428,
                    "durationTicks": 119,
                    "midi": 57,
                    "name": "A3",
                    "ticks": 102240,
                    "time": 106.5,
                    "velocity": 0.6299212598425197
                },
                {
                    "duration": 0.12395833333333428,
                    "durationTicks": 119,
                    "midi": 56,
                    "name": "G#3",
                    "ticks": 102600,
                    "time": 106.875,
                    "velocity": 0.6299212598425197
                },
                {
                    "duration": 0.12395833333333428,
                    "durationTicks": 119,
                    "midi": 55,
                    "name": "G3",
                    "ticks": 102840,
                    "time": 107.125,
                    "velocity": 0.6299212598425197
                },
                {
                    "duration": 0.23645833333333144,
                    "durationTicks": 227,
                    "midi": 53,
                    "name": "F3",
                    "ticks": 103080,
                    "time": 107.375,
                    "velocity": 0.6299212598425197
                },
                {
                    "duration": 0.11770833333333997,
                    "durationTicks": 113,
                    "midi": 50,
                    "name": "D3",
                    "ticks": 103320,
                    "time": 107.625,
                    "velocity": 0.6299212598425197
                },
                {
                    "duration": 0.11770833333333997,
                    "durationTicks": 113,
                    "midi": 53,
                    "name": "F3",
                    "ticks": 103440,
                    "time": 107.75,
                    "velocity": 0.6299212598425197
                },
                {
                    "duration": 0.11770833333333997,
                    "durationTicks": 113,
                    "midi": 55,
                    "name": "G3",
                    "ticks": 103560,
                    "time": 107.875,
                    "velocity": 0.6299212598425197
                },
                {
                    "duration": 0.11770833333333997,
                    "durationTicks": 113,
                    "midi": 50,
                    "name": "D3",
                    "ticks": 103680,
                    "time": 108,
                    "velocity": 0.6299212598425197
                },
                {
                    "duration": 3.7989583333333314,
                    "durationTicks": 3647,
                    "midi": 38,
                    "name": "D2",
                    "ticks": 103680,
                    "time": 108,
                    "velocity": 0.6299212598425197
                },
                {
                    "duration": 0.11770833333333997,
                    "durationTicks": 113,
                    "midi": 50,
                    "name": "D3",
                    "ticks": 103800,
                    "time": 108.125,
                    "velocity": 0.6299212598425197
                },
                {
                    "duration": 0.12395833333333428,
                    "durationTicks": 119,
                    "midi": 62,
                    "name": "D4",
                    "ticks": 103920,
                    "time": 108.25,
                    "velocity": 0.6299212598425197
                },
                {
                    "duration": 0.12395833333333428,
                    "durationTicks": 119,
                    "midi": 57,
                    "name": "A3",
                    "ticks": 104160,
                    "time": 108.5,
                    "velocity": 0.6299212598425197
                },
                {
                    "duration": 0.12395833333333428,
                    "durationTicks": 119,
                    "midi": 56,
                    "name": "G#3",
                    "ticks": 104520,
                    "time": 108.875,
                    "velocity": 0.6299212598425197
                },
                {
                    "duration": 0.12395833333333428,
                    "durationTicks": 119,
                    "midi": 55,
                    "name": "G3",
                    "ticks": 104760,
                    "time": 109.125,
                    "velocity": 0.6299212598425197
                },
                {
                    "duration": 0.23645833333333144,
                    "durationTicks": 227,
                    "midi": 53,
                    "name": "F3",
                    "ticks": 105000,
                    "time": 109.375,
                    "velocity": 0.6299212598425197
                },
                {
                    "duration": 0.11770833333333997,
                    "durationTicks": 113,
                    "midi": 50,
                    "name": "D3",
                    "ticks": 105240,
                    "time": 109.625,
                    "velocity": 0.6299212598425197
                },
                {
                    "duration": 0.11770833333333997,
                    "durationTicks": 113,
                    "midi": 53,
                    "name": "F3",
                    "ticks": 105360,
                    "time": 109.75,
                    "velocity": 0.6299212598425197
                },
                {
                    "duration": 0.11770833333333997,
                    "durationTicks": 113,
                    "midi": 55,
                    "name": "G3",
                    "ticks": 105480,
                    "time": 109.875,
                    "velocity": 0.6299212598425197
                },
                {
                    "duration": 0.11770833333333997,
                    "durationTicks": 113,
                    "midi": 50,
                    "name": "D3",
                    "ticks": 105600,
                    "time": 110,
                    "velocity": 0.6299212598425197
                },
                {
                    "duration": 0.11770833333333997,
                    "durationTicks": 113,
                    "midi": 50,
                    "name": "D3",
                    "ticks": 105720,
                    "time": 110.125,
                    "velocity": 0.6299212598425197
                },
                {
                    "duration": 0.12395833333333428,
                    "durationTicks": 119,
                    "midi": 62,
                    "name": "D4",
                    "ticks": 105840,
                    "time": 110.25,
                    "velocity": 0.6299212598425197
                },
                {
                    "duration": 0.12395833333333428,
                    "durationTicks": 119,
                    "midi": 57,
                    "name": "A3",
                    "ticks": 106080,
                    "time": 110.5,
                    "velocity": 0.6299212598425197
                },
                {
                    "duration": 0.23645833333333144,
                    "durationTicks": 227,
                    "midi": 56,
                    "name": "G#3",
                    "ticks": 106440,
                    "time": 110.875,
                    "velocity": 0.6299212598425197
                },
                {
                    "duration": 0.12395833333333428,
                    "durationTicks": 119,
                    "midi": 55,
                    "name": "G3",
                    "ticks": 106680,
                    "time": 111.125,
                    "velocity": 0.6299212598425197
                },
                {
                    "duration": 0.23645833333333144,
                    "durationTicks": 227,
                    "midi": 53,
                    "name": "F3",
                    "ticks": 106920,
                    "time": 111.375,
                    "velocity": 0.6299212598425197
                },
                {
                    "duration": 0.11770833333333997,
                    "durationTicks": 113,
                    "midi": 50,
                    "name": "D3",
                    "ticks": 107160,
                    "time": 111.625,
                    "velocity": 0.6299212598425197
                },
                {
                    "duration": 0.11770833333333997,
                    "durationTicks": 113,
                    "midi": 53,
                    "name": "F3",
                    "ticks": 107280,
                    "time": 111.75,
                    "velocity": 0.6299212598425197
                },
                {
                    "duration": 0.11770833333333997,
                    "durationTicks": 113,
                    "midi": 55,
                    "name": "G3",
                    "ticks": 107400,
                    "time": 111.875,
                    "velocity": 0.6299212598425197
                }
            ],
            "endOfTrackTicks": 107514
        }
    ]
}